
<svg xmlns="http://www.w3.org/2000/svg" xmlns:xlink="http://www.w3.org/1999/xlink" width="22px" height="22px" viewBox="0 0 22 22" version="1.1">
<defs>
<linearGradient id="linear0" gradientUnits="userSpaceOnUse" x1="-26.201" y1="1070.199951" x2="-26.201" y2="1082.599976" gradientTransform="matrix(0.243529,0,0,0.243529,11.991476,-258.136659)">
<stop offset="0" style="stop-color:rgb(47.058824%,76.47059%,99.215686%);stop-opacity:1;"/>
<stop offset="1" style="stop-color:rgb(48.235294%,77.64706%,100%);stop-opacity:1;"/>
</linearGradient>
<linearGradient id="linear1" gradientUnits="userSpaceOnUse" x1="-9.912" y1="1081.400024" x2="-9.912" y2="1139.800049" gradientTransform="matrix(0.243529,0,0,0.243529,11.991476,-258.136659)">
<stop offset="0" style="stop-color:rgb(20.784314%,64.705884%,98.823529%);stop-opacity:1;"/>
<stop offset="0.5" style="stop-color:rgb(27.058825%,75.294119%,100%);stop-opacity:1;"/>
<stop offset="1" style="stop-color:rgb(30.19608%,67.450982%,96.470588%);stop-opacity:1;"/>
</linearGradient>
<filter id="alpha" filterUnits="objectBoundingBox" x="0%" y="0%" width="100%" height="100%">
  <feColorMatrix type="matrix" in="SourceGraphic" values="0 0 0 0 1 0 0 0 0 1 0 0 0 0 1 0 0 0 1 0"/>
</filter>
<mask id="mask0">
  <g filter="url(#alpha)">
<rect x="0" y="0" width="22" height="22" style="fill:rgb(0%,0%,0%);fill-opacity:0.08;stroke:none;"/>
  </g>
</mask>
<clipPath id="clip1">
  <rect x="0" y="0" width="22" height="22"/>
</clipPath>
<g id="surface5" clip-path="url(#clip1)">
<path style=" stroke:none;fill-rule:nonzero;fill:rgb(0%,0%,0%);fill-opacity:1;" d="M 0.292969 18.042969 L 0.292969 18.289062 L 21.707031 18.289062 L 21.707031 18.042969 Z M 0.292969 18.582031 L 0.292969 18.710938 C 0.292969 18.75 0.296875 18.785156 0.300781 18.824219 L 21.703125 18.824219 C 21.707031 18.785156 21.710938 18.75 21.710938 18.710938 L 21.710938 18.582031 Z M 0.292969 18.582031 "/>
</g>
<mask id="mask1">
  <g filter="url(#alpha)">
<rect x="0" y="0" width="22" height="22" style="fill:rgb(0%,0%,0%);fill-opacity:0.25;stroke:none;"/>
  </g>
</mask>
<linearGradient id="linear2" gradientUnits="userSpaceOnUse" x1="-9.617" y1="1138.400024" x2="-9.617" y2="1140.199951" gradientTransform="matrix(0.243529,0,0,0.243529,11.991476,-258.136659)">
<stop offset="0" style="stop-color:rgb(0%,0%,0%);stop-opacity:0.046784;"/>
<stop offset="1" style="stop-color:rgb(0%,0%,0%);stop-opacity:1;"/>
</linearGradient>
<clipPath id="clip2">
  <rect x="0" y="0" width="22" height="22"/>
</clipPath>
<g id="surface8" clip-path="url(#clip2)">
<path style=" stroke:none;fill-rule:nonzero;fill:url(#linear2);" d="M 0.363281 19.046875 C 0.492188 19.335938 0.777344 19.519531 1.09375 19.519531 L 20.910156 19.519531 C 21.238281 19.519531 21.515625 19.328125 21.640625 19.046875 Z M 0.363281 19.046875 "/>
</g>
<mask id="mask2">
  <g filter="url(#alpha)">
<rect x="0" y="0" width="22" height="22" style="fill:rgb(0%,0%,0%);fill-opacity:0.15;stroke:none;"/>
  </g>
</mask>
<clipPath id="clip3">
  <rect x="0" y="0" width="22" height="22"/>
</clipPath>
<g id="surface11" clip-path="url(#clip3)">
<path style=" stroke:none;fill-rule:nonzero;fill:rgb(0%,0%,0%);fill-opacity:1;" d="M 6.234375 8.046875 C 5.84375 8.046875 5.664062 8.179688 5.664062 8.410156 L 5.664062 15.652344 C 5.664062 15.660156 5.664062 15.664062 5.664062 15.671875 C 5.664062 16.308594 6.203125 16.5 6.492188 16.5 L 7.390625 16.5 C 7.402344 16.503906 7.414062 16.503906 7.425781 16.503906 L 14.8125 16.503906 C 14.824219 16.503906 14.835938 16.503906 14.851562 16.5 L 15.515625 16.5 C 15.804688 16.5 16.347656 16.308594 16.347656 15.671875 C 16.347656 15.664062 16.34375 15.65625 16.34375 15.648438 L 16.34375 8.417969 L 16.347656 8.410156 C 16.347656 8.179688 16.167969 8.046875 15.78125 8.046875 Z M 6.488281 9.882812 L 15.519531 9.882812 C 15.707031 9.882812 15.816406 10.042969 15.871094 10.242188 L 15.871094 15.652344 C 15.863281 15.867188 15.710938 16.113281 15.492188 16.113281 L 15.023438 16.113281 L 15.023438 14.203125 C 15.023438 14.085938 14.929688 13.988281 14.8125 13.988281 L 7.425781 13.988281 C 7.308594 13.988281 7.214844 14.085938 7.214844 14.203125 L 7.214844 16.113281 L 6.515625 16.113281 C 6.296875 16.113281 6.144531 15.863281 6.136719 15.652344 L 6.136719 10.246094 C 6.191406 10.042969 6.300781 9.882812 6.488281 9.882812 Z M 6.488281 9.882812 "/>
</g>
</defs>
<g id="surface1">
<path style=" stroke:none;fill-rule:nonzero;fill:url(#linear0);" d="M 1.089844 2.488281 L 6.480469 2.488281 C 7.28125 2.488281 7.613281 4.210938 8.363281 4.210938 L 20.910156 4.210938 C 21.121094 4.210938 21.324219 4.292969 21.476562 4.445312 C 21.625 4.59375 21.710938 4.796875 21.707031 5.007812 L 21.707031 17.308594 C 21.707031 17.753906 21.351562 16.816406 20.910156 16.816406 L 1.089844 16.816406 C 0.878906 16.816406 0.675781 16.734375 0.523438 16.585938 C 0.375 16.433594 0.289062 16.230469 0.292969 16.019531 L 0.292969 3.289062 C 0.289062 3.074219 0.375 2.871094 0.523438 2.722656 C 0.675781 2.570312 0.878906 2.488281 1.089844 2.488281 Z M 1.089844 2.488281 "/>
<path style=" stroke:none;fill-rule:nonzero;fill:url(#linear1);" d="M 1.089844 5.191406 L 20.910156 5.191406 C 21.121094 5.191406 21.324219 5.273438 21.476562 5.425781 C 21.625 5.574219 21.707031 5.777344 21.707031 5.992188 L 21.707031 18.722656 C 21.707031 18.933594 21.625 19.136719 21.476562 19.285156 C 21.324219 19.4375 21.121094 19.519531 20.910156 19.519531 L 1.089844 19.519531 C 0.878906 19.519531 0.675781 19.4375 0.523438 19.285156 C 0.375 19.136719 0.289062 18.933594 0.292969 18.722656 L 0.292969 5.992188 C 0.289062 5.777344 0.375 5.574219 0.523438 5.425781 C 0.675781 5.273438 0.878906 5.191406 1.089844 5.191406 Z M 1.089844 5.191406 "/>
<use xlink:href="#surface5" mask="url(#mask0)"/>
<use xlink:href="#surface8" mask="url(#mask1)"/>
<use xlink:href="#surface11" mask="url(#mask2)"/>
</g>
</svg>
