
<svg xmlns="http://www.w3.org/2000/svg" xmlns:xlink="http://www.w3.org/1999/xlink" width="22px" height="22px" viewBox="0 0 22 22" version="1.1">
<defs>
<linearGradient id="linear0" gradientUnits="userSpaceOnUse" x1="9.93" y1="13.99" x2="54.07" y2="58.13" gradientTransform="matrix(0.34375,0,0,0.34375,0,0)">
<stop offset="0" style="stop-color:rgb(86.27451%,87.058824%,88.627451%);stop-opacity:1;"/>
<stop offset="1" style="stop-color:rgb(55.686275%,55.686275%,55.686275%);stop-opacity:1;"/>
</linearGradient>
</defs>
<g id="surface1">
<path style=" stroke:none;fill-rule:nonzero;fill:url(#linear0);" d="M 16.019531 21.429688 C 15.578125 21.429688 15.144531 21.320312 14.757812 21.117188 L 11.429688 19.367188 C 11.160156 19.226562 10.839844 19.226562 10.570312 19.367188 L 7.242188 21.117188 C 6.332031 21.59375 5.226562 21.515625 4.390625 20.910156 C 3.558594 20.304688 3.140625 19.277344 3.3125 18.261719 L 3.949219 14.554688 C 3.996094 14.257812 3.898438 13.957031 3.683594 13.75 L 0.992188 11.113281 C 0.253906 10.394531 -0.0117188 9.320312 0.308594 8.339844 C 0.625 7.359375 1.472656 6.644531 2.492188 6.496094 L 6.214844 5.957031 C 6.511719 5.910156 6.769531 5.722656 6.902344 5.453125 L 8.570312 2.078125 C 9.023438 1.15625 9.964844 0.570312 10.996094 0.570312 C 12.027344 0.570312 12.96875 1.15625 13.421875 2.078125 L 15.089844 5.453125 C 15.222656 5.722656 15.480469 5.910156 15.777344 5.957031 L 19.507812 6.496094 C 20.527344 6.644531 21.375 7.359375 21.691406 8.339844 C 22.011719 9.320312 21.746094 10.394531 21.007812 11.113281 L 18.316406 13.75 C 18.097656 13.960938 18 14.265625 18.050781 14.566406 L 18.6875 18.273438 C 18.820312 19.058594 18.601562 19.867188 18.085938 20.476562 C 17.574219 21.085938 16.816406 21.4375 16.019531 21.441406 Z M 16.019531 21.429688 "/>
<path style=" stroke:none;fill-rule:nonzero;fill:rgb(77.647059%,78.823529%,80%);fill-opacity:1;" d="M 11 0.742188 C 11.964844 0.738281 12.851562 1.289062 13.277344 2.15625 L 14.9375 5.527344 C 15.097656 5.851562 15.40625 6.074219 15.761719 6.125 L 19.484375 6.664062 C 20.441406 6.804688 21.234375 7.476562 21.535156 8.394531 C 21.832031 9.316406 21.582031 10.324219 20.890625 11 L 18.195312 13.621094 C 17.9375 13.871094 17.816406 14.230469 17.875 14.585938 L 18.511719 18.289062 C 18.675781 19.242188 18.289062 20.207031 17.507812 20.773438 C 16.726562 21.34375 15.691406 21.417969 14.835938 20.96875 L 11.507812 19.214844 C 11.1875 19.039062 10.800781 19.039062 10.476562 19.214844 L 7.164062 20.96875 C 6.796875 21.160156 6.394531 21.261719 5.980469 21.261719 C 5.234375 21.257812 4.523438 20.929688 4.042969 20.355469 C 3.5625 19.785156 3.355469 19.03125 3.480469 18.292969 L 4.125 14.585938 C 4.1875 14.230469 4.070312 13.867188 3.8125 13.617188 L 1.109375 11 C 0.417969 10.324219 0.167969 9.316406 0.464844 8.394531 C 0.765625 7.476562 1.558594 6.804688 2.515625 6.664062 L 6.238281 6.125 C 6.59375 6.074219 6.902344 5.851562 7.0625 5.527344 L 8.722656 2.15625 C 9.148438 1.289062 10.035156 0.738281 11 0.742188 M 11 0.398438 C 9.902344 0.394531 8.898438 1.019531 8.417969 2.003906 L 6.753906 5.375 C 6.644531 5.597656 6.433594 5.75 6.1875 5.785156 L 2.46875 6.324219 C 1.382812 6.484375 0.484375 7.242188 0.144531 8.285156 C -0.195312 9.328125 0.0898438 10.472656 0.875 11.238281 L 3.566406 13.863281 C 3.742188 14.035156 3.820312 14.285156 3.78125 14.527344 L 3.144531 18.21875 C 2.949219 19.300781 3.390625 20.402344 4.277344 21.050781 C 5.167969 21.699219 6.351562 21.785156 7.320312 21.269531 L 10.65625 19.519531 C 10.871094 19.40625 11.128906 19.40625 11.34375 19.519531 L 14.675781 21.269531 C 15.648438 21.78125 16.828125 21.695312 17.714844 21.046875 C 18.605469 20.398438 19.046875 19.300781 18.855469 18.21875 L 18.21875 14.527344 C 18.179688 14.285156 18.257812 14.035156 18.433594 13.863281 L 21.125 11.238281 C 21.910156 10.472656 22.195312 9.328125 21.855469 8.285156 C 21.515625 7.242188 20.617188 6.484375 19.53125 6.324219 L 15.8125 5.785156 C 15.566406 5.75 15.355469 5.597656 15.246094 5.375 L 13.582031 2.003906 C 13.101562 1.019531 12.097656 0.394531 11 0.398438 Z M 11 0.398438 "/>
</g>
</svg>
