
<svg xmlns="http://www.w3.org/2000/svg" xmlns:xlink="http://www.w3.org/1999/xlink" width="22px" height="22px" viewBox="0 0 22 22" version="1.1">
<defs>
<linearGradient id="linear0" gradientUnits="userSpaceOnUse" x1="-26.201" y1="1070.199951" x2="-26.201" y2="1082.599976" gradientTransform="matrix(0.243529,0,0,0.243529,11.991091,-258.141059)">
<stop offset="0" style="stop-color:rgb(93.333334%,61.56863%,44.705883%);stop-opacity:1;"/>
<stop offset="1" style="stop-color:rgb(91.37255%,62.352943%,46.666667%);stop-opacity:1;"/>
</linearGradient>
<linearGradient id="linear1" gradientUnits="userSpaceOnUse" x1="-9.912" y1="1081.400024" x2="-9.912" y2="1139.800049" gradientTransform="matrix(0.243529,0,0,0.243529,11.991091,-258.141059)">
<stop offset="0" style="stop-color:rgb(78.823531%,44.313726%,23.137255%);stop-opacity:1;"/>
<stop offset="0.5" style="stop-color:rgb(80.392158%,47.058824%,27.843139%);stop-opacity:1;"/>
<stop offset="1" style="stop-color:rgb(80.784315%,44.313726%,21.176471%);stop-opacity:1;"/>
</linearGradient>
<filter id="alpha" filterUnits="objectBoundingBox" x="0%" y="0%" width="100%" height="100%">
  <feColorMatrix type="matrix" in="SourceGraphic" values="0 0 0 0 1 0 0 0 0 1 0 0 0 0 1 0 0 0 1 0"/>
</filter>
<mask id="mask0">
  <g filter="url(#alpha)">
<rect x="0" y="0" width="22" height="22" style="fill:rgb(0%,0%,0%);fill-opacity:0.08;stroke:none;"/>
  </g>
</mask>
<clipPath id="clip1">
  <rect x="0" y="0" width="22" height="22"/>
</clipPath>
<g id="surface5" clip-path="url(#clip1)">
<path style=" stroke:none;fill-rule:nonzero;fill:rgb(0%,0%,0%);fill-opacity:1;" d="M 0.292969 18.039062 L 0.292969 18.285156 L 21.707031 18.285156 L 21.707031 18.039062 Z M 0.292969 18.574219 L 0.292969 18.707031 C 0.292969 18.746094 0.296875 18.78125 0.300781 18.820312 L 21.703125 18.820312 C 21.707031 18.78125 21.710938 18.746094 21.710938 18.707031 L 21.710938 18.574219 Z M 0.292969 18.574219 "/>
</g>
<mask id="mask1">
  <g filter="url(#alpha)">
<rect x="0" y="0" width="22" height="22" style="fill:rgb(0%,0%,0%);fill-opacity:0.25;stroke:none;"/>
  </g>
</mask>
<linearGradient id="linear2" gradientUnits="userSpaceOnUse" x1="-9.617" y1="1138.400024" x2="-9.617" y2="1140.199951" gradientTransform="matrix(0.243529,0,0,0.243529,11.991091,-258.141059)">
<stop offset="0" style="stop-color:rgb(0%,0%,0%);stop-opacity:0.046784;"/>
<stop offset="1" style="stop-color:rgb(0%,0%,0%);stop-opacity:1;"/>
</linearGradient>
<clipPath id="clip2">
  <rect x="0" y="0" width="22" height="22"/>
</clipPath>
<g id="surface8" clip-path="url(#clip2)">
<path style=" stroke:none;fill-rule:nonzero;fill:url(#linear2);" d="M 0.363281 19.042969 C 0.492188 19.332031 0.777344 19.515625 1.09375 19.515625 L 20.910156 19.515625 C 21.238281 19.515625 21.515625 19.324219 21.640625 19.042969 Z M 0.363281 19.042969 "/>
</g>
<mask id="mask2">
  <g filter="url(#alpha)">
<rect x="0" y="0" width="22" height="22" style="fill:rgb(0%,0%,0%);fill-opacity:0.15;stroke:none;"/>
  </g>
</mask>
<clipPath id="clip3">
  <rect x="0" y="0" width="22" height="22"/>
</clipPath>
<g id="surface11" clip-path="url(#clip3)">
<path style=" stroke:none;fill-rule:nonzero;fill:rgb(0%,0%,0%);fill-opacity:1;" d="M 11.054688 9.015625 C 9.1875 9.015625 7.425781 9.839844 6.21875 11.277344 C 6.105469 11.410156 6.082031 11.597656 6.15625 11.757812 C 6.230469 11.914062 6.390625 12.015625 6.566406 12.015625 C 6.695312 12.015625 6.820312 11.960938 6.910156 11.855469 C 7.945312 10.625 9.453125 9.917969 11.054688 9.917969 C 12.652344 9.917969 14.160156 10.625 15.195312 11.855469 C 15.285156 11.960938 15.414062 12.015625 15.542969 12.015625 C 15.714844 12.015625 15.875 11.917969 15.949219 11.757812 C 16.023438 11.597656 16 11.410156 15.886719 11.277344 C 14.679688 9.839844 12.917969 9.015625 11.050781 9.015625 Z M 11.054688 10.929688 C 9.722656 10.929688 8.460938 11.515625 7.601562 12.542969 C 7.441406 12.730469 7.464844 13.015625 7.65625 13.175781 C 7.847656 13.335938 8.132812 13.3125 8.292969 13.121094 C 8.976562 12.304688 9.988281 11.832031 11.054688 11.828125 C 12.117188 11.828125 13.125 12.300781 13.816406 13.121094 C 13.902344 13.226562 14.03125 13.28125 14.160156 13.28125 C 14.335938 13.28125 14.496094 13.179688 14.570312 13.023438 C 14.644531 12.863281 14.617188 12.675781 14.503906 12.542969 C 13.644531 11.515625 12.386719 10.929688 11.054688 10.929688 Z M 11.054688 12.914062 C 10.253906 12.914062 9.496094 13.265625 8.980469 13.878906 C 8.90625 13.972656 8.867188 14.089844 8.878906 14.207031 C 8.886719 14.328125 8.945312 14.4375 9.039062 14.515625 C 9.128906 14.59375 9.246094 14.628906 9.367188 14.621094 C 9.484375 14.609375 9.597656 14.550781 9.671875 14.460938 C 10.015625 14.050781 10.519531 13.816406 11.054688 13.816406 C 11.585938 13.816406 12.089844 14.050781 12.433594 14.460938 C 12.511719 14.550781 12.621094 14.609375 12.738281 14.621094 C 12.859375 14.628906 12.976562 14.59375 13.070312 14.515625 C 13.160156 14.4375 13.21875 14.328125 13.230469 14.207031 C 13.238281 14.089844 13.203125 13.972656 13.125 13.878906 C 12.613281 13.265625 11.851562 12.914062 11.054688 12.914062 Z M 11.015625 14.625 C 10.660156 14.660156 10.324219 14.921875 10.3125 15.316406 C 10.316406 15.71875 10.648438 16.042969 11.054688 16.042969 C 11.457031 16.042969 11.789062 15.71875 11.796875 15.316406 C 11.734375 14.789062 11.367188 14.589844 11.015625 14.625 Z M 11.015625 14.625 "/>
</g>
</defs>
<g id="surface1">
<path style=" stroke:none;fill-rule:nonzero;fill:url(#linear0);" d="M 1.089844 2.484375 L 6.480469 2.484375 C 7.28125 2.484375 7.613281 4.207031 8.363281 4.207031 L 20.910156 4.207031 C 21.121094 4.207031 21.324219 4.289062 21.476562 4.4375 C 21.625 4.589844 21.707031 4.792969 21.707031 5.003906 L 21.707031 17.304688 C 21.707031 17.75 21.351562 16.8125 20.910156 16.8125 L 1.089844 16.8125 C 0.878906 16.8125 0.675781 16.730469 0.523438 16.578125 C 0.375 16.429688 0.289062 16.226562 0.289062 16.015625 L 0.289062 3.285156 C 0.289062 3.070312 0.375 2.867188 0.523438 2.71875 C 0.675781 2.566406 0.878906 2.484375 1.089844 2.484375 Z M 1.089844 2.484375 "/>
<path style=" stroke:none;fill-rule:nonzero;fill:url(#linear1);" d="M 1.089844 5.1875 L 20.910156 5.1875 C 21.121094 5.1875 21.324219 5.269531 21.472656 5.421875 C 21.625 5.570312 21.707031 5.773438 21.707031 5.988281 L 21.707031 18.71875 C 21.707031 18.929688 21.625 19.132812 21.472656 19.28125 C 21.324219 19.433594 21.121094 19.515625 20.910156 19.515625 L 1.089844 19.515625 C 0.878906 19.515625 0.675781 19.433594 0.523438 19.28125 C 0.375 19.132812 0.289062 18.929688 0.289062 18.71875 L 0.289062 5.988281 C 0.289062 5.773438 0.375 5.570312 0.523438 5.421875 C 0.675781 5.269531 0.878906 5.1875 1.089844 5.1875 Z M 1.089844 5.1875 "/>
<use xlink:href="#surface5" mask="url(#mask0)"/>
<use xlink:href="#surface8" mask="url(#mask1)"/>
<use xlink:href="#surface11" mask="url(#mask2)"/>
</g>
</svg>
