
<svg xmlns="http://www.w3.org/2000/svg" xmlns:xlink="http://www.w3.org/1999/xlink" width="22px" height="22px" viewBox="0 0 22 22" version="1.1">
<defs>
<linearGradient id="linear0" gradientUnits="userSpaceOnUse" x1="-4.071" y1="1070.199951" x2="-4.071" y2="1131.599976" gradientTransform="matrix(0.243529,0,0,0.243529,12.045,-257.938989)">
<stop offset="0" style="stop-color:rgb(36.078432%,36.078432%,36.078432%);stop-opacity:1;"/>
<stop offset="1" style="stop-color:rgb(39.215687%,39.215687%,39.215687%);stop-opacity:1;"/>
</linearGradient>
<linearGradient id="linear1" gradientUnits="userSpaceOnUse" x1="-4.1916" y1="1096.699951" x2="-4.1916" y2="1140.099976" gradientTransform="matrix(0.243529,0,0,0.243529,12.045,-257.938989)">
<stop offset="0" style="stop-color:rgb(20.392157%,20.392157%,20.392157%);stop-opacity:1;"/>
<stop offset="0.5" style="stop-color:rgb(25.098041%,25.098041%,25.098041%);stop-opacity:1;"/>
<stop offset="1" style="stop-color:rgb(20.784314%,20%,20%);stop-opacity:1;"/>
</linearGradient>
<filter id="alpha" filterUnits="objectBoundingBox" x="0%" y="0%" width="100%" height="100%">
  <feColorMatrix type="matrix" in="SourceGraphic" values="0 0 0 0 1 0 0 0 0 1 0 0 0 0 1 0 0 0 1 0"/>
</filter>
<mask id="mask0">
  <g filter="url(#alpha)">
<rect x="0" y="0" width="22" height="22" style="fill:rgb(0%,0%,0%);fill-opacity:0.1;stroke:none;"/>
  </g>
</mask>
<clipPath id="clip1">
  <rect x="0" y="0" width="22" height="22"/>
</clipPath>
<g id="surface5" clip-path="url(#clip1)">
<path style=" stroke:none;fill-rule:nonzero;fill:rgb(0%,0%,0%);fill-opacity:1;" d="M 0.347656 18.242188 L 0.347656 18.488281 L 21.761719 18.488281 L 21.761719 18.242188 Z M 0.347656 18.777344 L 0.347656 18.90625 C 0.347656 18.949219 0.351562 18.984375 0.355469 19.023438 L 21.753906 19.023438 C 21.761719 18.984375 21.761719 18.949219 21.761719 18.90625 L 21.761719 18.777344 Z M 0.347656 18.777344 "/>
</g>
<mask id="mask1">
  <g filter="url(#alpha)">
<rect x="0" y="0" width="22" height="22" style="fill:rgb(0%,0%,0%);fill-opacity:0.25;stroke:none;"/>
  </g>
</mask>
<linearGradient id="linear2" gradientUnits="userSpaceOnUse" x1="-4.0625" y1="1138.199951" x2="-4.0625" y2="1140.099976" gradientTransform="matrix(0.243529,0,0,0.243529,12.045,-257.938989)">
<stop offset="0" style="stop-color:rgb(0%,0%,0%);stop-opacity:0.046784;"/>
<stop offset="1" style="stop-color:rgb(0%,0%,0%);stop-opacity:1;"/>
</linearGradient>
<clipPath id="clip2">
  <rect x="0" y="0" width="22" height="22"/>
</clipPath>
<g id="surface8" clip-path="url(#clip2)">
<path style=" stroke:none;fill-rule:nonzero;fill:url(#linear2);" d="M 0.417969 19.246094 C 0.546875 19.535156 0.832031 19.71875 1.148438 19.71875 L 20.964844 19.71875 C 21.289062 19.71875 21.570312 19.523438 21.695312 19.246094 Z M 0.417969 19.246094 "/>
</g>
</defs>
<g id="surface1">
<path style=" stroke:none;fill-rule:nonzero;fill:url(#linear0);" d="M 1.144531 2.6875 L 6.535156 2.6875 C 7.335938 2.6875 7.667969 4.40625 8.414062 4.40625 L 20.960938 4.40625 C 21.175781 4.40625 21.378906 4.492188 21.527344 4.640625 C 21.679688 4.792969 21.761719 4.996094 21.761719 5.207031 L 21.761719 17.507812 C 21.761719 17.949219 21.40625 17.015625 20.960938 17.015625 L 1.144531 17.015625 C 0.933594 17.015625 0.730469 16.933594 0.578125 16.78125 C 0.429688 16.632812 0.34375 16.429688 0.34375 16.214844 L 0.34375 3.484375 C 0.34375 3.273438 0.429688 3.070312 0.578125 2.917969 C 0.730469 2.769531 0.933594 2.683594 1.144531 2.6875 Z M 1.144531 2.6875 "/>
<path style=" stroke:none;fill-rule:nonzero;fill:url(#linear1);" d="M 0.878906 9.140625 L 21.171875 9.140625 C 21.613281 9.140625 21.976562 9.402344 21.96875 9.730469 L 21.761719 19.121094 C 21.753906 19.445312 21.40625 19.710938 20.960938 19.710938 L 1.144531 19.710938 C 0.703125 19.710938 0.355469 19.445312 0.34375 19.121094 L 0.078125 9.730469 C 0.0703125 9.402344 0.433594 9.140625 0.878906 9.140625 Z M 0.878906 9.140625 "/>
<use xlink:href="#surface5" mask="url(#mask0)"/>
<use xlink:href="#surface8" mask="url(#mask1)"/>
</g>
</svg>
