
<svg xmlns="http://www.w3.org/2000/svg" xmlns:xlink="http://www.w3.org/1999/xlink" width="22px" height="22px" viewBox="0 0 22 22" version="1.1">
<defs>
<linearGradient id="linear0" gradientUnits="userSpaceOnUse" x1="32" y1="3.8" x2="32" y2="23.49" gradientTransform="matrix(0.34375,0,0,0.34375,0,0)">
<stop offset="0" style="stop-color:rgb(16.078432%,71.372551%,96.470588%);stop-opacity:1;"/>
<stop offset="0.67" style="stop-color:rgb(39.607844%,45.09804%,82.745099%);stop-opacity:1;"/>
<stop offset="1" style="stop-color:rgb(49.411765%,34.117648%,76.862746%);stop-opacity:1;"/>
</linearGradient>
<linearGradient id="linear1" gradientUnits="userSpaceOnUse" x1="32" y1="60.900002" x2="32" y2="18.719999" gradientTransform="matrix(0.34375,0,0,0.34375,0,0)">
<stop offset="0" style="stop-color:rgb(86.274511%,87.058824%,88.627452%);stop-opacity:1;"/>
<stop offset="0.57" style="stop-color:rgb(87.058824%,87.843138%,89.411765%);stop-opacity:1;"/>
<stop offset="0.81" style="stop-color:rgb(89.803922%,90.588236%,91.764706%);stop-opacity:1;"/>
<stop offset="0.99" style="stop-color:rgb(94.901961%,95.294118%,95.686275%);stop-opacity:1;"/>
<stop offset="1" style="stop-color:rgb(95.294118%,95.686275%,96.078432%);stop-opacity:1;"/>
</linearGradient>
<linearGradient id="linear2" gradientUnits="userSpaceOnUse" x1="32" y1="51.889999" x2="32" y2="31.52" gradientTransform="matrix(0.34375,0,0,0.34375,0,0)">
<stop offset="0" style="stop-color:rgb(75.294119%,75.294119%,75.294119%);stop-opacity:1;"/>
<stop offset="1" style="stop-color:rgb(55.686277%,55.686277%,55.686277%);stop-opacity:1;"/>
</linearGradient>
<linearGradient id="linear3" gradientUnits="userSpaceOnUse" x1="32.009998" y1="51.889999" x2="32.009998" y2="31.52" gradientTransform="matrix(0.34375,0,0,0.34375,0,0)">
<stop offset="0" style="stop-color:rgb(75.294119%,75.294119%,75.294119%);stop-opacity:1;"/>
<stop offset="1" style="stop-color:rgb(55.686277%,55.686277%,55.686277%);stop-opacity:1;"/>
</linearGradient>
<linearGradient id="linear4" gradientUnits="userSpaceOnUse" x1="32" y1="51.889999" x2="32" y2="31.52" gradientTransform="matrix(0.34375,0,0,0.34375,0,0)">
<stop offset="0" style="stop-color:rgb(75.294119%,75.294119%,75.294119%);stop-opacity:1;"/>
<stop offset="1" style="stop-color:rgb(55.686277%,55.686277%,55.686277%);stop-opacity:1;"/>
</linearGradient>
</defs>
<g id="surface1">
<path style=" stroke:none;fill-rule:nonzero;fill:url(#linear0);" d="M 22 7.324219 C 21.996094 6.351562 21.210938 5.566406 20.234375 5.566406 L 14.25 5.566406 C 13.023438 5.566406 12.023438 4.585938 12 3.363281 C 12.019531 2.117188 11.027344 1.089844 9.78125 1.066406 L 1.164062 1.066406 C 0.519531 1.066406 0 1.585938 0 2.226562 L 0 8.050781 L 22 8.050781 Z M 22 7.324219 "/>
<path style=" stroke:none;fill-rule:nonzero;fill:url(#linear1);" d="M 20.234375 6.433594 L 1.765625 6.433594 C 0.789062 6.433594 0 7.226562 0 8.199219 L 0 19.175781 C 0.00390625 20.148438 0.789062 20.933594 1.765625 20.933594 L 20.234375 20.933594 C 21.210938 20.933594 21.996094 20.148438 22 19.175781 L 22 8.199219 C 22 7.226562 21.210938 6.433594 20.234375 6.433594 Z M 20.234375 6.433594 "/>
<path style=" stroke:none;fill-rule:nonzero;fill:url(#linear2);" d="M 8.324219 11.160156 C 6.847656 12.636719 6.851562 15.027344 8.328125 16.503906 C 9.804688 17.980469 12.195312 17.980469 13.671875 16.503906 C 15.148438 15.027344 15.152344 12.636719 13.675781 11.160156 C 12.199219 9.679688 9.800781 9.679688 8.324219 11.160156 Z M 13.203125 16.03125 C 12.085938 17.140625 10.316406 17.238281 9.078125 16.265625 L 10.523438 14.828125 C 10.601562 14.753906 10.640625 14.648438 10.632812 14.542969 C 10.625 14.4375 10.566406 14.339844 10.476562 14.28125 C 10.328125 14.183594 10.128906 14.207031 10.007812 14.339844 L 8.582031 15.765625 C 7.539062 14.453125 7.722656 12.554688 8.992188 11.464844 C 10.265625 10.375 12.167969 10.484375 13.304688 11.714844 C 14.441406 12.941406 14.40625 14.851562 13.222656 16.03125 Z M 13.203125 16.03125 "/>
<path style=" stroke:none;fill-rule:nonzero;fill:url(#linear3);" d="M 10.945312 11.382812 C 10.773438 11.421875 10.652344 11.578125 10.65625 11.753906 L 10.65625 12.746094 C 10.65625 12.941406 10.816406 13.101562 11.011719 13.101562 C 11.207031 13.101562 11.363281 12.941406 11.363281 12.746094 L 11.363281 11.734375 C 11.371094 11.628906 11.324219 11.523438 11.242188 11.457031 C 11.160156 11.386719 11.050781 11.359375 10.945312 11.382812 Z M 10.945312 11.382812 "/>
<path style=" stroke:none;fill-rule:nonzero;fill:url(#linear4);" d="M 10.570312 13.835938 C 10.570312 14.011719 10.671875 14.171875 10.835938 14.238281 C 10.996094 14.304688 11.183594 14.269531 11.308594 14.144531 C 11.433594 14.019531 11.46875 13.832031 11.402344 13.671875 C 11.335938 13.507812 11.175781 13.40625 11 13.40625 C 10.765625 13.410156 10.574219 13.597656 10.570312 13.835938 Z M 10.570312 13.835938 "/>
</g>
</svg>
