
<svg xmlns="http://www.w3.org/2000/svg" xmlns:xlink="http://www.w3.org/1999/xlink" width="22px" height="22px" viewBox="0 0 22 22" version="1.1">
<defs>
<linearGradient id="linear0" gradientUnits="userSpaceOnUse" x1="-26.201" y1="1070.199951" x2="-26.201" y2="1082.599976" gradientTransform="matrix(0.243529,0,0,0.243529,12.0439,-257.938989)">
<stop offset="0" style="stop-color:rgb(47.058824%,85.09804%,99.215686%);stop-opacity:1;"/>
<stop offset="1" style="stop-color:rgb(48.235294%,87.058824%,100%);stop-opacity:1;"/>
</linearGradient>
<linearGradient id="linear1" gradientUnits="userSpaceOnUse" x1="-9.912" y1="1081.400024" x2="-9.912" y2="1139.800049" gradientTransform="matrix(0.243529,0,0,0.243529,12.0439,-257.938989)">
<stop offset="0" style="stop-color:rgb(20.784314%,79.215688%,98.823529%);stop-opacity:1;"/>
<stop offset="0.5" style="stop-color:rgb(31.37255%,83.137256%,100%);stop-opacity:1;"/>
<stop offset="1" style="stop-color:rgb(30.19608%,79.607844%,96.470588%);stop-opacity:1;"/>
</linearGradient>
<filter id="alpha" filterUnits="objectBoundingBox" x="0%" y="0%" width="100%" height="100%">
  <feColorMatrix type="matrix" in="SourceGraphic" values="0 0 0 0 1 0 0 0 0 1 0 0 0 0 1 0 0 0 1 0"/>
</filter>
<mask id="mask0">
  <g filter="url(#alpha)">
<rect x="0" y="0" width="22" height="22" style="fill:rgb(0%,0%,0%);fill-opacity:0.976;stroke:none;"/>
  </g>
</mask>
<clipPath id="clip1">
  <rect x="0" y="0" width="22" height="22"/>
</clipPath>
<g id="surface5" clip-path="url(#clip1)">
<path style=" stroke:none;fill-rule:nonzero;fill:rgb(23.137255%,75.686276%,94.509804%);fill-opacity:1;" d="M 0.347656 18.238281 L 0.347656 18.480469 L 21.761719 18.480469 L 21.761719 18.238281 Z M 0.347656 18.777344 L 0.347656 18.90625 C 0.347656 18.949219 0.347656 18.984375 0.355469 19.023438 L 21.753906 19.023438 C 21.761719 18.984375 21.761719 18.949219 21.761719 18.90625 L 21.761719 18.777344 Z M 0.347656 18.777344 "/>
</g>
<mask id="mask1">
  <g filter="url(#alpha)">
<rect x="0" y="0" width="22" height="22" style="fill:rgb(0%,0%,0%);fill-opacity:0.976;stroke:none;"/>
  </g>
</mask>
<linearGradient id="linear2" gradientUnits="userSpaceOnUse" x1="-9.617" y1="1138.400024" x2="-9.617" y2="1140.199951" gradientTransform="matrix(0.243529,0,0,0.243529,12.0439,-257.938989)">
<stop offset="0" style="stop-color:rgb(23.137255%,75.686276%,94.509804%);stop-opacity:1;"/>
<stop offset="1" style="stop-color:rgb(5.490196%,58.431375%,77.254903%);stop-opacity:1;"/>
</linearGradient>
<clipPath id="clip2">
  <rect x="0" y="0" width="22" height="22"/>
</clipPath>
<g id="surface8" clip-path="url(#clip2)">
<path style=" stroke:none;fill-rule:nonzero;fill:url(#linear2);" d="M 0.414062 19.246094 C 0.542969 19.535156 0.832031 19.71875 1.144531 19.71875 L 20.964844 19.71875 C 21.289062 19.71875 21.570312 19.523438 21.695312 19.246094 Z M 0.414062 19.246094 "/>
</g>
<linearGradient id="linear3" gradientUnits="userSpaceOnUse" x1="8" y1="2" x2="8" y2="14" gradientTransform="matrix(0.696663,0,0,0.696663,5.42663,6.63663)">
<stop offset="0" style="stop-color:rgb(1.176471%,71.372551%,92.54902%);stop-opacity:1;"/>
<stop offset="1" style="stop-color:rgb(7.450981%,75.294119%,96.862745%);stop-opacity:1;"/>
</linearGradient>
<linearGradient id="linear4" gradientUnits="userSpaceOnUse" x1="8" y1="2" x2="8" y2="14" gradientTransform="matrix(0.696663,0,0,0.696663,5.42663,6.63663)">
<stop offset="0" style="stop-color:rgb(1.176471%,71.372551%,92.54902%);stop-opacity:1;"/>
<stop offset="1" style="stop-color:rgb(7.450981%,75.294119%,96.862745%);stop-opacity:1;"/>
</linearGradient>
</defs>
<g id="surface1">
<path style=" stroke:none;fill-rule:nonzero;fill:url(#linear0);" d="M 1.144531 2.6875 L 6.53125 2.6875 C 7.332031 2.6875 7.664062 4.40625 8.414062 4.40625 L 20.960938 4.40625 C 21.171875 4.40625 21.378906 4.492188 21.527344 4.640625 C 21.675781 4.792969 21.761719 4.996094 21.761719 5.207031 L 21.761719 17.507812 C 21.761719 17.949219 21.40625 17.015625 20.960938 17.015625 L 1.144531 17.015625 C 0.929688 17.015625 0.726562 16.933594 0.578125 16.78125 C 0.425781 16.632812 0.34375 16.429688 0.34375 16.214844 L 0.34375 3.484375 C 0.34375 3.273438 0.425781 3.070312 0.578125 2.917969 C 0.726562 2.769531 0.929688 2.683594 1.144531 2.6875 Z M 1.144531 2.6875 "/>
<path style=" stroke:none;fill-rule:nonzero;fill:url(#linear1);" d="M 1.144531 5.390625 L 20.960938 5.390625 C 21.171875 5.386719 21.378906 5.472656 21.527344 5.621094 C 21.675781 5.773438 21.761719 5.976562 21.761719 6.1875 L 21.761719 18.917969 C 21.761719 19.132812 21.675781 19.335938 21.527344 19.484375 C 21.378906 19.636719 21.171875 19.71875 20.960938 19.71875 L 1.144531 19.71875 C 0.929688 19.71875 0.726562 19.636719 0.578125 19.484375 C 0.425781 19.335938 0.34375 19.132812 0.34375 18.917969 L 0.34375 6.1875 C 0.34375 5.976562 0.425781 5.773438 0.578125 5.621094 C 0.726562 5.472656 0.929688 5.386719 1.144531 5.390625 Z M 1.144531 5.390625 "/>
<use xlink:href="#surface5" mask="url(#mask0)"/>
<use xlink:href="#surface8" mask="url(#mask1)"/>
<path style=" stroke:none;fill-rule:nonzero;fill:url(#linear3);" d="M 12.394531 8.03125 L 11 8.03125 L 6.820312 16.390625 L 8.214844 16.390625 Z M 12.394531 8.03125 "/>
<path style=" stroke:none;fill-rule:nonzero;fill:url(#linear4);" d="M 11 15.691406 L 15.179688 15.691406 L 15.179688 16.390625 L 11 16.390625 Z M 11 15.691406 "/>
</g>
</svg>
