
<svg xmlns="http://www.w3.org/2000/svg" xmlns:xlink="http://www.w3.org/1999/xlink" width="22px" height="22px" viewBox="0 0 22 22" version="1.1">
<defs>
<linearGradient id="linear0" gradientUnits="userSpaceOnUse" x1="32" y1="3.8" x2="32" y2="23.49" gradientTransform="matrix(0.34375,0,0,0.34375,0,0)">
<stop offset="0" style="stop-color:rgb(16.078432%,71.372551%,96.470588%);stop-opacity:1;"/>
<stop offset="0.67" style="stop-color:rgb(39.607844%,45.09804%,82.745099%);stop-opacity:1;"/>
<stop offset="1" style="stop-color:rgb(49.411765%,34.117648%,76.862746%);stop-opacity:1;"/>
</linearGradient>
<linearGradient id="linear1" gradientUnits="userSpaceOnUse" x1="32" y1="60.900002" x2="32" y2="18.719999" gradientTransform="matrix(0.34375,0,0,0.34375,0,0)">
<stop offset="0" style="stop-color:rgb(86.274511%,87.058824%,88.627452%);stop-opacity:1;"/>
<stop offset="0.57" style="stop-color:rgb(87.058824%,87.843138%,89.411765%);stop-opacity:1;"/>
<stop offset="0.81" style="stop-color:rgb(89.803922%,90.588236%,91.764706%);stop-opacity:1;"/>
<stop offset="0.99" style="stop-color:rgb(94.901961%,95.294118%,95.686275%);stop-opacity:1;"/>
<stop offset="1" style="stop-color:rgb(95.294118%,95.686275%,96.078432%);stop-opacity:1;"/>
</linearGradient>
<linearGradient id="linear2" gradientUnits="userSpaceOnUse" x1="29.32" y1="51.810001" x2="29.32" y2="28.379999" gradientTransform="matrix(0.34375,0,0,0.34375,0,0)">
<stop offset="0" style="stop-color:rgb(75.294119%,75.294119%,75.294119%);stop-opacity:1;"/>
<stop offset="1" style="stop-color:rgb(55.686277%,55.686277%,55.686277%);stop-opacity:1;"/>
</linearGradient>
<linearGradient id="linear3" gradientUnits="userSpaceOnUse" x1="30.58" y1="51.810001" x2="30.58" y2="28.379999" gradientTransform="matrix(0.34375,0,0,0.34375,0,0)">
<stop offset="0" style="stop-color:rgb(75.294119%,75.294119%,75.294119%);stop-opacity:1;"/>
<stop offset="1" style="stop-color:rgb(55.686277%,55.686277%,55.686277%);stop-opacity:1;"/>
</linearGradient>
<linearGradient id="linear4" gradientUnits="userSpaceOnUse" x1="33.419998" y1="51.810001" x2="33.419998" y2="28.379999" gradientTransform="matrix(0.34375,0,0,0.34375,0,0)">
<stop offset="0" style="stop-color:rgb(75.294119%,75.294119%,75.294119%);stop-opacity:1;"/>
<stop offset="1" style="stop-color:rgb(55.686277%,55.686277%,55.686277%);stop-opacity:1;"/>
</linearGradient>
<linearGradient id="linear5" gradientUnits="userSpaceOnUse" x1="33.59" y1="51.810001" x2="33.59" y2="28.379999" gradientTransform="matrix(0.34375,0,0,0.34375,0,0)">
<stop offset="0" style="stop-color:rgb(75.294119%,75.294119%,75.294119%);stop-opacity:1;"/>
<stop offset="1" style="stop-color:rgb(55.686277%,55.686277%,55.686277%);stop-opacity:1;"/>
</linearGradient>
<linearGradient id="linear6" gradientUnits="userSpaceOnUse" x1="27.57" y1="51.810001" x2="27.57" y2="28.379999" gradientTransform="matrix(0.34375,0,0,0.34375,0,0)">
<stop offset="0" style="stop-color:rgb(75.294119%,75.294119%,75.294119%);stop-opacity:1;"/>
<stop offset="1" style="stop-color:rgb(55.686277%,55.686277%,55.686277%);stop-opacity:1;"/>
</linearGradient>
<linearGradient id="linear7" gradientUnits="userSpaceOnUse" x1="26.59" y1="40.560001" x2="35.310001" y2="40.560001" gradientTransform="matrix(0.34375,0,0,0.34375,0,0)">
<stop offset="0" style="stop-color:rgb(75.294119%,75.294119%,75.294119%);stop-opacity:1;"/>
<stop offset="1" style="stop-color:rgb(55.686277%,55.686277%,55.686277%);stop-opacity:1;"/>
</linearGradient>
</defs>
<g id="surface1">
<path style=" stroke:none;fill-rule:nonzero;fill:url(#linear0);" d="M 22 7.324219 C 21.996094 6.351562 21.210938 5.566406 20.234375 5.566406 L 14.25 5.566406 C 13.023438 5.566406 12.023438 4.585938 12 3.363281 C 12.019531 2.117188 11.027344 1.089844 9.78125 1.066406 L 1.164062 1.066406 C 0.519531 1.066406 0 1.585938 0 2.226562 L 0 8.050781 L 22 8.050781 Z M 22 7.324219 "/>
<path style=" stroke:none;fill-rule:nonzero;fill:url(#linear1);" d="M 20.234375 6.433594 L 1.765625 6.433594 C 0.789062 6.433594 0 7.226562 0 8.199219 L 0 19.175781 C 0.00390625 20.148438 0.789062 20.933594 1.765625 20.933594 L 20.234375 20.933594 C 21.210938 20.933594 21.996094 20.148438 22 19.175781 L 22 8.199219 C 22 7.226562 21.210938 6.433594 20.234375 6.433594 Z M 20.234375 6.433594 "/>
<path style=" stroke:none;fill-rule:nonzero;fill:url(#linear2);" d="M 9.921875 9.945312 C 9.789062 9.945312 9.683594 10.050781 9.683594 10.179688 C 9.683594 10.3125 9.789062 10.417969 9.921875 10.417969 L 10.472656 10.417969 C 10.460938 10.339844 10.453125 10.261719 10.453125 10.179688 C 10.453125 10.101562 10.460938 10.023438 10.472656 9.945312 Z M 9.921875 9.945312 "/>
<path style=" stroke:none;fill-rule:nonzero;fill:url(#linear3);" d="M 13.46875 16.980469 L 13.46875 10.179688 C 13.46875 10.050781 13.363281 9.945312 13.230469 9.945312 L 11.992188 9.945312 C 11.859375 9.945312 11.753906 10.050781 11.753906 10.179688 C 11.753906 10.3125 11.859375 10.417969 11.992188 10.417969 L 12.992188 10.417969 L 12.992188 16.746094 L 8.03125 16.746094 L 8.03125 10.417969 L 8.402344 10.417969 C 8.390625 10.339844 8.382812 10.261719 8.382812 10.179688 C 8.386719 10.101562 8.390625 10.023438 8.402344 9.945312 L 7.792969 9.945312 C 7.660156 9.945312 7.554688 10.050781 7.554688 10.179688 L 7.554688 16.980469 C 7.554688 17.042969 7.582031 17.105469 7.625 17.148438 C 7.671875 17.191406 7.730469 17.214844 7.792969 17.214844 L 13.230469 17.214844 C 13.292969 17.214844 13.355469 17.191406 13.398438 17.148438 C 13.441406 17.105469 13.46875 17.042969 13.46875 16.980469 Z M 13.46875 16.980469 "/>
<path style=" stroke:none;fill-rule:nonzero;fill:url(#linear4);" d="M 14.207031 10.921875 C 14.078125 10.921875 13.96875 11.027344 13.96875 11.160156 L 13.96875 17.71875 L 8.769531 17.71875 C 8.707031 17.71875 8.644531 17.742188 8.601562 17.789062 C 8.558594 17.832031 8.53125 17.890625 8.53125 17.953125 C 8.53125 18.085938 8.636719 18.191406 8.769531 18.191406 L 14.207031 18.191406 C 14.339844 18.191406 14.445312 18.085938 14.445312 17.953125 L 14.445312 11.160156 C 14.445312 11.027344 14.339844 10.921875 14.207031 10.921875 Z M 14.207031 10.921875 "/>
<path style=" stroke:none;fill-rule:nonzero;fill:url(#linear5);" d="M 11.992188 11.304688 C 12.121094 11.304688 12.226562 11.199219 12.226562 11.070312 C 12.226562 10.9375 12.121094 10.832031 11.992188 10.832031 C 11.722656 10.832031 11.484375 10.667969 11.382812 10.417969 C 11.355469 10.34375 11.339844 10.261719 11.339844 10.179688 C 11.339844 10.101562 11.355469 10.019531 11.382812 9.945312 C 11.484375 9.695312 11.722656 9.53125 11.992188 9.53125 C 12.121094 9.53125 12.226562 9.425781 12.226562 9.292969 C 12.226562 9.164062 12.121094 9.058594 11.992188 9.058594 C 11.371094 9.0625 10.871094 9.5625 10.867188 10.179688 C 10.867188 10.261719 10.875 10.339844 10.894531 10.417969 C 11.003906 10.9375 11.460938 11.304688 11.992188 11.304688 Z M 11.992188 11.304688 "/>
<path style=" stroke:none;fill-rule:nonzero;fill:url(#linear6);" d="M 9.921875 11.304688 C 10.050781 11.304688 10.15625 11.199219 10.15625 11.070312 C 10.15625 10.9375 10.050781 10.832031 9.921875 10.832031 C 9.652344 10.832031 9.414062 10.667969 9.316406 10.417969 C 9.285156 10.34375 9.273438 10.261719 9.269531 10.179688 C 9.273438 10.101562 9.285156 10.019531 9.316406 9.945312 C 9.414062 9.695312 9.652344 9.53125 9.921875 9.53125 C 10.050781 9.53125 10.15625 9.425781 10.15625 9.292969 C 10.15625 9.164062 10.050781 9.058594 9.921875 9.058594 C 9.300781 9.0625 8.800781 9.5625 8.796875 10.179688 C 8.796875 10.261719 8.804688 10.339844 8.824219 10.417969 C 8.9375 10.933594 9.394531 11.304688 9.921875 11.304688 Z M 9.921875 11.304688 "/>
<path style=" stroke:none;fill-rule:nonzero;fill:url(#linear7);" d="M 11.8125 15.542969 C 11.710938 15.542969 11.609375 15.523438 11.511719 15.480469 C 11.433594 15.445312 11.367188 15.390625 11.316406 15.320312 C 11.261719 15.25 11.226562 15.164062 11.207031 15.078125 C 11.183594 14.972656 11.175781 14.871094 11.175781 14.765625 L 11.175781 14.175781 C 10.96875 14.09375 10.753906 14.042969 10.535156 14.019531 C 10.375 14.003906 10.210938 14.023438 10.054688 14.070312 C 9.933594 14.105469 9.828125 14.179688 9.75 14.277344 C 9.679688 14.378906 9.644531 14.5 9.648438 14.621094 C 9.640625 14.773438 9.710938 14.917969 9.832031 15.007812 C 9.976562 15.09375 10.144531 15.132812 10.3125 15.125 C 10.398438 15.128906 10.488281 15.121094 10.570312 15.101562 C 10.644531 15.101562 10.722656 15.058594 10.800781 15.035156 C 10.847656 15.015625 10.902344 15.015625 10.949219 15.035156 C 10.984375 15.050781 11.015625 15.078125 11.035156 15.113281 C 11.050781 15.15625 11.050781 15.199219 11.035156 15.242188 C 11.019531 15.292969 10.988281 15.339844 10.941406 15.371094 C 10.855469 15.4375 10.753906 15.484375 10.648438 15.507812 C 10.511719 15.539062 10.371094 15.554688 10.230469 15.554688 C 10.09375 15.554688 9.957031 15.535156 9.828125 15.496094 C 9.703125 15.457031 9.585938 15.394531 9.484375 15.316406 C 9.378906 15.234375 9.296875 15.128906 9.234375 15.011719 C 9.167969 14.875 9.136719 14.722656 9.140625 14.570312 C 9.136719 14.375 9.199219 14.1875 9.320312 14.03125 C 9.441406 13.875 9.601562 13.757812 9.785156 13.6875 C 9.992188 13.613281 10.214844 13.582031 10.4375 13.59375 C 10.695312 13.609375 10.945312 13.675781 11.175781 13.789062 L 11.175781 13.40625 C 11.179688 13.3125 11.160156 13.21875 11.117188 13.136719 C 11.078125 13.058594 11.023438 12.996094 10.953125 12.945312 C 10.882812 12.898438 10.804688 12.859375 10.722656 12.839844 C 10.628906 12.816406 10.535156 12.804688 10.4375 12.804688 C 10.324219 12.800781 10.207031 12.820312 10.09375 12.859375 C 10.019531 12.890625 9.949219 12.929688 9.886719 12.976562 L 9.734375 13.097656 C 9.679688 13.132812 9.617188 13.152344 9.550781 13.152344 C 9.492188 13.152344 9.441406 13.128906 9.398438 13.09375 C 9.351562 13.050781 9.324219 12.988281 9.328125 12.925781 C 9.332031 12.847656 9.363281 12.773438 9.414062 12.714844 C 9.476562 12.636719 9.554688 12.570312 9.640625 12.519531 C 9.75 12.457031 9.867188 12.40625 9.984375 12.375 C 10.132812 12.335938 10.28125 12.316406 10.433594 12.320312 C 10.597656 12.320312 10.761719 12.34375 10.921875 12.390625 C 11.0625 12.433594 11.199219 12.503906 11.316406 12.597656 C 11.425781 12.683594 11.515625 12.792969 11.582031 12.917969 C 11.648438 13.046875 11.683594 13.1875 11.6875 13.332031 L 11.6875 14.707031 C 11.683594 14.804688 11.695312 14.898438 11.714844 14.992188 C 11.734375 15.058594 11.761719 15.09375 11.804688 15.09375 L 11.871094 15.09375 C 11.945312 15.089844 12.015625 15.113281 12.070312 15.160156 C 12.117188 15.199219 12.144531 15.257812 12.144531 15.320312 C 12.144531 15.386719 12.113281 15.445312 12.0625 15.480469 C 11.988281 15.527344 11.902344 15.550781 11.8125 15.542969 Z M 11.8125 15.542969 "/>
</g>
</svg>
