
<svg xmlns="http://www.w3.org/2000/svg" xmlns:xlink="http://www.w3.org/1999/xlink" width="22px" height="22px" viewBox="0 0 22 22" version="1.1">
<defs>
<linearGradient id="linear0" gradientUnits="userSpaceOnUse" x1="32" y1="3.8" x2="32" y2="23.49" gradientTransform="matrix(0.34375,0,0,0.34375,0,0)">
<stop offset="0" style="stop-color:rgb(16.078432%,71.372551%,96.470588%);stop-opacity:1;"/>
<stop offset="0.67" style="stop-color:rgb(39.607844%,45.09804%,82.745099%);stop-opacity:1;"/>
<stop offset="1" style="stop-color:rgb(49.411765%,34.117648%,76.862746%);stop-opacity:1;"/>
</linearGradient>
<linearGradient id="linear1" gradientUnits="userSpaceOnUse" x1="32" y1="60.900002" x2="32" y2="18.719999" gradientTransform="matrix(0.34375,0,0,0.34375,0,0)">
<stop offset="0" style="stop-color:rgb(86.274511%,87.058824%,88.627452%);stop-opacity:1;"/>
<stop offset="0.57" style="stop-color:rgb(87.058824%,87.843138%,89.411765%);stop-opacity:1;"/>
<stop offset="0.81" style="stop-color:rgb(89.803922%,90.588236%,91.764706%);stop-opacity:1;"/>
<stop offset="0.99" style="stop-color:rgb(94.901961%,95.294118%,95.686275%);stop-opacity:1;"/>
<stop offset="1" style="stop-color:rgb(95.294118%,95.686275%,96.078432%);stop-opacity:1;"/>
</linearGradient>
<linearGradient id="linear2" gradientUnits="userSpaceOnUse" x1="32" y1="50.630001" x2="32" y2="28.33" gradientTransform="matrix(0.34375,0,0,0.34375,0,0)">
<stop offset="0" style="stop-color:rgb(75.294119%,75.294119%,75.294119%);stop-opacity:1;"/>
<stop offset="1" style="stop-color:rgb(55.686277%,55.686277%,55.686277%);stop-opacity:1;"/>
</linearGradient>
<linearGradient id="linear3" gradientUnits="userSpaceOnUse" x1="32" y1="50.630001" x2="32" y2="28.33" gradientTransform="matrix(0.34375,0,0,0.34375,0,0)">
<stop offset="0" style="stop-color:rgb(75.294119%,75.294119%,75.294119%);stop-opacity:1;"/>
<stop offset="1" style="stop-color:rgb(55.686277%,55.686277%,55.686277%);stop-opacity:1;"/>
</linearGradient>
</defs>
<g id="surface1">
<path style=" stroke:none;fill-rule:nonzero;fill:url(#linear0);" d="M 22 7.324219 C 21.996094 6.351562 21.210938 5.566406 20.234375 5.566406 L 14.25 5.566406 C 13.023438 5.566406 12.023438 4.585938 12 3.363281 C 12.019531 2.117188 11.027344 1.089844 9.78125 1.066406 L 1.164062 1.066406 C 0.519531 1.066406 0 1.585938 0 2.226562 L 0 8.050781 L 22 8.050781 Z M 22 7.324219 "/>
<path style=" stroke:none;fill-rule:nonzero;fill:url(#linear1);" d="M 20.234375 6.433594 L 1.765625 6.433594 C 0.789062 6.433594 0 7.226562 0 8.199219 L 0 19.175781 C 0.00390625 20.148438 0.789062 20.933594 1.765625 20.933594 L 20.234375 20.933594 C 21.210938 20.933594 21.996094 20.148438 22 19.175781 L 22 8.199219 C 22 7.226562 21.210938 6.433594 20.234375 6.433594 Z M 20.234375 6.433594 "/>
<path style=" stroke:none;fill-rule:nonzero;fill:url(#linear2);" d="M 11 10.789062 C 11.523438 10.789062 11.949219 11.210938 11.949219 11.734375 C 11.949219 12.257812 11.523438 12.683594 11 12.683594 C 10.75 12.6875 10.507812 12.585938 10.328125 12.40625 C 10.058594 12.132812 9.976562 11.726562 10.125 11.371094 C 10.269531 11.019531 10.617188 10.789062 11 10.789062 M 11 10.015625 C 10.050781 10.015625 9.28125 10.785156 9.28125 11.734375 C 9.28125 12.683594 10.050781 13.453125 11 13.453125 C 11.949219 13.453125 12.71875 12.683594 12.71875 11.734375 C 12.71875 10.785156 11.949219 10.015625 11 10.015625 Z M 11 10.015625 "/>
<path style=" stroke:none;fill-rule:nonzero;fill:url(#linear3);" d="M 11 14.601562 C 12.398438 14.601562 13.625 15.539062 13.992188 16.890625 C 13.996094 16.898438 13.996094 16.914062 13.992188 16.925781 C 13.984375 16.929688 13.976562 16.929688 13.96875 16.925781 L 8.03125 16.925781 C 8.027344 16.929688 8.019531 16.929688 8.011719 16.925781 C 8.007812 16.914062 8.007812 16.898438 8.011719 16.890625 C 8.378906 15.539062 9.601562 14.601562 11 14.601562 M 11 13.835938 C 9.253906 13.835938 7.726562 15.003906 7.265625 16.683594 C 7.195312 16.929688 7.242188 17.191406 7.390625 17.394531 C 7.542969 17.597656 7.78125 17.714844 8.03125 17.714844 L 13.96875 17.714844 C 14.21875 17.714844 14.457031 17.597656 14.609375 17.394531 C 14.757812 17.191406 14.804688 16.929688 14.734375 16.683594 C 14.273438 15.003906 12.746094 13.835938 11 13.835938 Z M 11 13.835938 "/>
</g>
</svg>
