
<svg xmlns="http://www.w3.org/2000/svg" xmlns:xlink="http://www.w3.org/1999/xlink" width="22px" height="22px" viewBox="0 0 22 22" version="1.1">
<defs>
<linearGradient id="linear0" gradientUnits="userSpaceOnUse" x1="-26.201" y1="1070.199951" x2="-26.201" y2="1082.599976" gradientTransform="matrix(0.243529,0,0,0.243529,12.04445,-257.943394)">
<stop offset="0" style="stop-color:rgb(47.058824%,85.09804%,99.215686%);stop-opacity:1;"/>
<stop offset="1" style="stop-color:rgb(48.235294%,87.058824%,100%);stop-opacity:1;"/>
</linearGradient>
<linearGradient id="linear1" gradientUnits="userSpaceOnUse" x1="-9.912" y1="1081.400024" x2="-9.912" y2="1139.800049" gradientTransform="matrix(0.243529,0,0,0.179639,12.04445,-185.101435)">
<stop offset="0" style="stop-color:rgb(20.784314%,79.215688%,98.823529%);stop-opacity:1;"/>
<stop offset="0.5" style="stop-color:rgb(31.37255%,83.137256%,100%);stop-opacity:1;"/>
<stop offset="1" style="stop-color:rgb(30.19608%,79.607844%,96.470588%);stop-opacity:1;"/>
</linearGradient>
<filter id="alpha" filterUnits="objectBoundingBox" x="0%" y="0%" width="100%" height="100%">
  <feColorMatrix type="matrix" in="SourceGraphic" values="0 0 0 0 1 0 0 0 0 1 0 0 0 0 1 0 0 0 1 0"/>
</filter>
<mask id="mask0">
  <g filter="url(#alpha)">
<rect x="0" y="0" width="22" height="22" style="fill:rgb(0%,0%,0%);fill-opacity:0.976;stroke:none;"/>
  </g>
</mask>
<clipPath id="clip1">
  <rect x="0" y="0" width="22" height="22"/>
</clipPath>
<g id="surface5" clip-path="url(#clip1)">
<path style=" stroke:none;fill-rule:nonzero;fill:rgb(23.137255%,75.686276%,94.509804%);fill-opacity:1;" d="M 0.347656 18.242188 L 0.347656 18.488281 L 21.761719 18.488281 L 21.761719 18.242188 Z M 0.347656 18.777344 L 0.347656 18.90625 C 0.347656 18.949219 0.351562 18.984375 0.355469 19.023438 L 21.753906 19.023438 C 21.761719 18.984375 21.761719 18.949219 21.761719 18.90625 L 21.761719 18.777344 Z M 0.347656 18.777344 "/>
</g>
<mask id="mask1">
  <g filter="url(#alpha)">
<rect x="0" y="0" width="22" height="22" style="fill:rgb(0%,0%,0%);fill-opacity:0.976;stroke:none;"/>
  </g>
</mask>
<linearGradient id="linear2" gradientUnits="userSpaceOnUse" x1="-9.617" y1="1138.400024" x2="-9.617" y2="1140.199951" gradientTransform="matrix(0.243529,0,0,0.243529,12.04445,-257.943394)">
<stop offset="0" style="stop-color:rgb(23.137255%,75.686276%,94.509804%);stop-opacity:1;"/>
<stop offset="1" style="stop-color:rgb(5.490196%,58.431375%,77.254903%);stop-opacity:1;"/>
</linearGradient>
<clipPath id="clip2">
  <rect x="0" y="0" width="22" height="22"/>
</clipPath>
<g id="surface8" clip-path="url(#clip2)">
<path style=" stroke:none;fill-rule:nonzero;fill:url(#linear2);" d="M 0.414062 19.242188 C 0.546875 19.527344 0.832031 19.714844 1.148438 19.714844 L 20.964844 19.714844 C 21.289062 19.714844 21.570312 19.519531 21.695312 19.242188 Z M 0.414062 19.242188 "/>
</g>
</defs>
<g id="surface1">
<path style=" stroke:none;fill-rule:nonzero;fill:url(#linear0);" d="M 1.144531 2.679688 L 6.53125 2.679688 C 7.332031 2.679688 7.667969 4.402344 8.414062 4.402344 L 20.960938 4.402344 C 21.175781 4.402344 21.378906 4.488281 21.527344 4.636719 C 21.679688 4.785156 21.761719 4.992188 21.761719 5.203125 L 21.761719 17.503906 C 21.761719 17.945312 21.40625 17.011719 20.960938 17.011719 L 1.144531 17.011719 C 0.933594 17.011719 0.726562 16.925781 0.578125 16.777344 C 0.429688 16.628906 0.34375 16.421875 0.34375 16.210938 L 0.34375 3.480469 C 0.34375 3.269531 0.429688 3.066406 0.578125 2.914062 C 0.726562 2.765625 0.933594 2.679688 1.144531 2.679688 Z M 1.144531 2.679688 "/>
<path style=" stroke:none;fill-rule:nonzero;fill:url(#linear1);" d="M 0.878906 9.136719 L 21.171875 9.136719 C 21.613281 9.136719 21.976562 9.398438 21.96875 9.726562 L 21.761719 19.113281 C 21.753906 19.441406 21.40625 19.703125 20.960938 19.703125 L 1.144531 19.703125 C 0.699219 19.703125 0.351562 19.441406 0.34375 19.117188 L 0.078125 9.726562 C 0.0703125 9.398438 0.433594 9.136719 0.878906 9.136719 Z M 0.878906 9.136719 "/>
<use xlink:href="#surface5" mask="url(#mask0)"/>
<use xlink:href="#surface8" mask="url(#mask1)"/>
</g>
</svg>
