
<svg xmlns="http://www.w3.org/2000/svg" xmlns:xlink="http://www.w3.org/1999/xlink" width="22px" height="22px" viewBox="0 0 22 22" version="1.1">
<defs>
<linearGradient id="linear0" gradientUnits="userSpaceOnUse" x1="32" y1="3.8" x2="32" y2="23.49" gradientTransform="matrix(0.34375,0,0,0.34375,0,0)">
<stop offset="0" style="stop-color:rgb(16.078432%,71.372551%,96.470588%);stop-opacity:1;"/>
<stop offset="0.67" style="stop-color:rgb(39.607844%,45.09804%,82.745099%);stop-opacity:1;"/>
<stop offset="1" style="stop-color:rgb(49.411765%,34.117648%,76.862746%);stop-opacity:1;"/>
</linearGradient>
<linearGradient id="linear1" gradientUnits="userSpaceOnUse" x1="32" y1="60.900002" x2="32" y2="18.719999" gradientTransform="matrix(0.34375,0,0,0.34375,0,0)">
<stop offset="0" style="stop-color:rgb(86.274511%,87.058824%,88.627452%);stop-opacity:1;"/>
<stop offset="0.57" style="stop-color:rgb(87.058824%,87.843138%,89.411765%);stop-opacity:1;"/>
<stop offset="0.81" style="stop-color:rgb(89.803922%,90.588236%,91.764706%);stop-opacity:1;"/>
<stop offset="0.99" style="stop-color:rgb(94.901961%,95.294118%,95.686275%);stop-opacity:1;"/>
<stop offset="1" style="stop-color:rgb(95.294118%,95.686275%,96.078432%);stop-opacity:1;"/>
</linearGradient>
<linearGradient id="linear2" gradientUnits="userSpaceOnUse" x1="32.09" y1="34.84" x2="32.09" y2="28.02" gradientTransform="matrix(0.34375,0,0,0.34375,0,0)">
<stop offset="0" style="stop-color:rgb(75.294119%,75.294119%,75.294119%);stop-opacity:1;"/>
<stop offset="1" style="stop-color:rgb(55.686277%,55.686277%,55.686277%);stop-opacity:1;"/>
</linearGradient>
<linearGradient id="linear3" gradientUnits="userSpaceOnUse" x1="32" y1="52.02" x2="32" y2="30.799999" gradientTransform="matrix(0.34375,0,0,0.34375,0,0)">
<stop offset="0" style="stop-color:rgb(75.294119%,75.294119%,75.294119%);stop-opacity:1;"/>
<stop offset="1" style="stop-color:rgb(55.686277%,55.686277%,55.686277%);stop-opacity:1;"/>
</linearGradient>
<linearGradient id="linear4" gradientUnits="userSpaceOnUse" x1="32.009998" y1="45.759998" x2="32.009998" y2="44.139999" gradientTransform="matrix(0.34375,0,0,0.34375,0,0)">
<stop offset="0" style="stop-color:rgb(75.294119%,75.294119%,75.294119%);stop-opacity:1;"/>
<stop offset="1" style="stop-color:rgb(55.686277%,55.686277%,55.686277%);stop-opacity:1;"/>
</linearGradient>
<linearGradient id="linear5" gradientUnits="userSpaceOnUse" x1="30.360001" y1="48.610001" x2="30.360001" y2="46.98" gradientTransform="matrix(0.34375,0,0,0.34375,0,0)">
<stop offset="0" style="stop-color:rgb(75.294119%,75.294119%,75.294119%);stop-opacity:1;"/>
<stop offset="1" style="stop-color:rgb(55.686277%,55.686277%,55.686277%);stop-opacity:1;"/>
</linearGradient>
</defs>
<g id="surface1">
<path style=" stroke:none;fill-rule:nonzero;fill:url(#linear0);" d="M 22 7.324219 C 21.996094 6.351562 21.210938 5.566406 20.234375 5.566406 L 14.25 5.566406 C 13.023438 5.566406 12.023438 4.585938 12 3.363281 C 12.019531 2.117188 11.027344 1.089844 9.78125 1.066406 L 1.164062 1.066406 C 0.519531 1.066406 0 1.585938 0 2.226562 L 0 8.050781 L 22 8.050781 Z M 22 7.324219 "/>
<path style=" stroke:none;fill-rule:nonzero;fill:url(#linear1);" d="M 20.234375 6.433594 L 1.765625 6.433594 C 0.789062 6.433594 0 7.226562 0 8.199219 L 0 19.175781 C 0.00390625 20.148438 0.789062 20.933594 1.765625 20.933594 L 20.234375 20.933594 C 21.210938 20.933594 21.996094 20.148438 22 19.175781 L 22 8.199219 C 22 7.226562 21.210938 6.433594 20.234375 6.433594 Z M 20.234375 6.433594 "/>
<path style=" stroke:none;fill-rule:nonzero;fill:url(#linear2);" d="M 11.449219 9.625 C 11.492188 9.71875 11.527344 9.8125 11.546875 9.914062 C 11.554688 10.09375 11.554688 10.277344 11.546875 10.460938 C 11.546875 10.574219 11.59375 10.617188 11.699219 10.617188 C 11.816406 10.605469 11.929688 10.605469 12.042969 10.617188 C 12.109375 10.613281 12.167969 10.652344 12.195312 10.710938 C 12.21875 10.773438 12.207031 10.839844 12.15625 10.886719 C 11.8125 11.230469 11.46875 11.574219 11.125 11.917969 C 11.097656 11.953125 11.050781 11.972656 11.003906 11.972656 C 10.957031 11.972656 10.914062 11.953125 10.882812 11.917969 C 10.539062 11.574219 10.214844 11.25 9.886719 10.910156 C 9.84375 10.859375 9.828125 10.789062 9.84375 10.726562 C 9.878906 10.671875 9.9375 10.636719 10.003906 10.628906 C 10.117188 10.621094 10.234375 10.621094 10.347656 10.628906 C 10.453125 10.628906 10.5 10.582031 10.496094 10.472656 C 10.496094 10.292969 10.496094 10.105469 10.496094 9.929688 C 10.519531 9.828125 10.554688 9.730469 10.59375 9.636719 Z M 11.449219 9.625 "/>
<path style=" stroke:none;fill-rule:nonzero;fill:url(#linear3);" d="M 13.53125 12.5 L 14.34375 12.5 C 14.53125 12.484375 14.714844 12.550781 14.847656 12.683594 C 14.980469 12.816406 15.046875 13 15.03125 13.1875 C 15.03125 14.042969 15.03125 14.898438 15.03125 15.746094 C 15.046875 15.933594 14.980469 16.117188 14.847656 16.25 C 14.714844 16.382812 14.53125 16.449219 14.34375 16.433594 L 13.53125 16.433594 L 13.53125 16.925781 C 13.550781 17.183594 13.457031 17.441406 13.273438 17.625 C 13.085938 17.808594 12.832031 17.898438 12.570312 17.875 L 9.429688 17.875 C 9.171875 17.894531 8.921875 17.800781 8.738281 17.617188 C 8.558594 17.433594 8.464844 17.183594 8.488281 16.925781 L 8.488281 16.425781 L 7.613281 16.425781 C 7.308594 16.429688 7.042969 16.210938 6.984375 15.910156 C 6.980469 15.851562 6.980469 15.792969 6.984375 15.734375 C 6.984375 14.882812 6.984375 14.039062 6.984375 13.1875 C 6.972656 13.003906 7.039062 12.820312 7.171875 12.6875 C 7.304688 12.558594 7.488281 12.488281 7.671875 12.5 L 8.496094 12.5 C 8.496094 12.136719 8.496094 11.789062 8.496094 11.441406 C 8.496094 10.996094 8.835938 10.628906 9.28125 10.589844 C 9.449219 10.589844 9.550781 10.648438 9.5625 10.78125 C 9.574219 10.917969 9.488281 10.992188 9.316406 11.015625 C 9.109375 11.035156 8.949219 11.203125 8.9375 11.410156 C 8.9375 11.753906 8.9375 12.117188 8.9375 12.484375 L 13.09375 12.484375 C 13.09375 12.117188 13.09375 11.757812 13.09375 11.390625 C 13.070312 11.183594 12.898438 11.023438 12.691406 11.015625 C 12.519531 10.992188 12.441406 10.917969 12.453125 10.78125 C 12.46875 10.644531 12.558594 10.582031 12.734375 10.589844 C 13.144531 10.621094 13.472656 10.9375 13.511719 11.34375 C 13.539062 11.648438 13.511719 11.957031 13.511719 12.261719 Z M 8.9375 14.546875 C 8.933594 14.574219 8.933594 14.605469 8.9375 14.632812 C 8.9375 15.421875 8.9375 16.210938 8.9375 17 C 8.9375 17.285156 9.121094 17.445312 9.4375 17.445312 L 12.605469 17.445312 C 12.746094 17.464844 12.882812 17.417969 12.984375 17.320312 C 13.082031 17.21875 13.128906 17.078125 13.109375 16.941406 L 13.109375 14.703125 C 13.109375 14.648438 13.109375 14.597656 13.109375 14.546875 Z M 14.328125 13.8125 C 14.328125 13.722656 14.292969 13.636719 14.226562 13.574219 C 14.160156 13.515625 14.074219 13.484375 13.984375 13.492188 C 13.894531 13.492188 13.808594 13.527344 13.746094 13.59375 C 13.683594 13.65625 13.652344 13.746094 13.660156 13.835938 C 13.671875 14.019531 13.824219 14.160156 14.003906 14.160156 C 14.09375 14.160156 14.183594 14.125 14.242188 14.058594 C 14.304688 13.992188 14.335938 13.902344 14.328125 13.8125 Z M 14.328125 13.8125 "/>
<path style=" stroke:none;fill-rule:nonzero;fill:url(#linear4);" d="M 12.320312 15.171875 L 12.320312 15.730469 L 9.691406 15.730469 L 9.691406 15.171875 Z M 12.320312 15.171875 "/>
<path style=" stroke:none;fill-rule:nonzero;fill:url(#linear5);" d="M 9.695312 16.15625 L 11.175781 16.15625 L 11.175781 16.71875 L 9.695312 16.71875 Z M 9.695312 16.15625 "/>
</g>
</svg>
