
<svg xmlns="http://www.w3.org/2000/svg" xmlns:xlink="http://www.w3.org/1999/xlink" width="22px" height="22px" viewBox="0 0 22 22" version="1.1">
<defs>
<linearGradient id="linear0" gradientUnits="userSpaceOnUse" x1="32" y1="3.8" x2="32" y2="23.49" gradientTransform="matrix(0.34375,0,0,0.34375,0,0)">
<stop offset="0" style="stop-color:rgb(16.078432%,71.372551%,96.470588%);stop-opacity:1;"/>
<stop offset="0.67" style="stop-color:rgb(39.607844%,45.09804%,82.745099%);stop-opacity:1;"/>
<stop offset="1" style="stop-color:rgb(49.411765%,34.117648%,76.862746%);stop-opacity:1;"/>
</linearGradient>
<linearGradient id="linear1" gradientUnits="userSpaceOnUse" x1="32" y1="60.900002" x2="32" y2="18.719999" gradientTransform="matrix(0.34375,0,0,0.34375,0,0)">
<stop offset="0" style="stop-color:rgb(86.274511%,87.058824%,88.627452%);stop-opacity:1;"/>
<stop offset="0.57" style="stop-color:rgb(87.058824%,87.843138%,89.411765%);stop-opacity:1;"/>
<stop offset="0.81" style="stop-color:rgb(89.803922%,90.588236%,91.764706%);stop-opacity:1;"/>
<stop offset="0.99" style="stop-color:rgb(94.901961%,95.294118%,95.686275%);stop-opacity:1;"/>
<stop offset="1" style="stop-color:rgb(95.294118%,95.686275%,96.078432%);stop-opacity:1;"/>
</linearGradient>
<linearGradient id="linear2" gradientUnits="userSpaceOnUse" x1="32.02" y1="30.5" x2="32.02" y2="49.509998" gradientTransform="matrix(0.34375,0,0,0.34375,0,0)">
<stop offset="0" style="stop-color:rgb(55.686277%,55.686277%,55.686277%);stop-opacity:1;"/>
<stop offset="1" style="stop-color:rgb(75.294119%,75.294119%,75.294119%);stop-opacity:1;"/>
</linearGradient>
<linearGradient id="linear3" gradientUnits="userSpaceOnUse" x1="32.009998" y1="30.5" x2="32.009998" y2="49.509998" gradientTransform="matrix(0.34375,0,0,0.34375,0,0)">
<stop offset="0" style="stop-color:rgb(55.686277%,55.686277%,55.686277%);stop-opacity:1;"/>
<stop offset="1" style="stop-color:rgb(75.294119%,75.294119%,75.294119%);stop-opacity:1;"/>
</linearGradient>
<linearGradient id="linear4" gradientUnits="userSpaceOnUse" x1="32" y1="30.5" x2="32" y2="49.509998" gradientTransform="matrix(0.34375,0,0,0.34375,0,0)">
<stop offset="0" style="stop-color:rgb(55.686277%,55.686277%,55.686277%);stop-opacity:1;"/>
<stop offset="1" style="stop-color:rgb(75.294119%,75.294119%,75.294119%);stop-opacity:1;"/>
</linearGradient>
<linearGradient id="linear5" gradientUnits="userSpaceOnUse" x1="32.09" y1="30.5" x2="32.09" y2="49.509998" gradientTransform="matrix(0.34375,0,0,0.34375,-0.00123942,-0.00134795)">
<stop offset="0" style="stop-color:rgb(55.686277%,55.686277%,55.686277%);stop-opacity:1;"/>
<stop offset="1" style="stop-color:rgb(75.294119%,75.294119%,75.294119%);stop-opacity:1;"/>
</linearGradient>
</defs>
<g id="surface1">
<path style=" stroke:none;fill-rule:nonzero;fill:url(#linear0);" d="M 22 7.324219 C 21.996094 6.351562 21.210938 5.566406 20.234375 5.566406 L 14.25 5.566406 C 13.023438 5.566406 12.023438 4.585938 12 3.363281 C 12.019531 2.117188 11.027344 1.089844 9.78125 1.066406 L 1.164062 1.066406 C 0.519531 1.066406 0 1.585938 0 2.226562 L 0 8.050781 L 22 8.050781 Z M 22 7.324219 "/>
<path style=" stroke:none;fill-rule:nonzero;fill:url(#linear1);" d="M 20.234375 6.433594 L 1.765625 6.433594 C 0.789062 6.433594 0 7.226562 0 8.199219 L 0 19.175781 C 0.00390625 20.148438 0.789062 20.933594 1.765625 20.933594 L 20.234375 20.933594 C 21.210938 20.933594 21.996094 20.148438 22 19.175781 L 22 8.199219 C 22 7.226562 21.210938 6.433594 20.234375 6.433594 Z M 20.234375 6.433594 "/>
<path style=" stroke:none;fill-rule:nonzero;fill:url(#linear2);" d="M 13.253906 15.125 C 13.175781 15.207031 13.066406 15.25 12.953125 15.25 C 12.839844 15.25 12.730469 15.207031 12.648438 15.125 C 11.742188 14.222656 10.273438 14.222656 9.363281 15.125 C 9.195312 15.292969 8.925781 15.292969 8.757812 15.125 C 8.589844 14.957031 8.589844 14.6875 8.757812 14.519531 C 10 13.28125 12.011719 13.28125 13.25 14.519531 C 13.417969 14.6875 13.421875 14.957031 13.253906 15.125 Z M 13.253906 15.125 "/>
<path style=" stroke:none;fill-rule:nonzero;fill:url(#linear3);" d="M 14.207031 14.125 C 14.128906 14.207031 14.019531 14.25 13.90625 14.25 C 13.789062 14.25 13.683594 14.207031 13.601562 14.125 C 12.167969 12.691406 9.839844 12.691406 8.40625 14.125 C 8.234375 14.277344 7.976562 14.269531 7.8125 14.109375 C 7.652344 13.949219 7.644531 13.691406 7.796875 13.519531 C 9.566406 11.75 12.4375 11.75 14.207031 13.519531 C 14.371094 13.6875 14.371094 13.957031 14.207031 14.125 Z M 14.207031 14.125 "/>
<path style=" stroke:none;fill-rule:nonzero;fill:url(#linear4);" d="M 15.171875 13.101562 C 15.003906 13.265625 14.734375 13.265625 14.570312 13.101562 C 12.597656 11.128906 9.40625 11.128906 7.4375 13.101562 C 7.265625 13.253906 7.007812 13.246094 6.84375 13.085938 C 6.683594 12.925781 6.675781 12.664062 6.828125 12.496094 C 9.132812 10.191406 12.863281 10.191406 15.171875 12.496094 C 15.335938 12.660156 15.339844 12.929688 15.171875 13.101562 Z M 15.171875 13.101562 "/>
<path style=" stroke:none;fill-rule:nonzero;fill:url(#linear5);" d="M 11.765625 15.449219 C 11.46875 15.042969 10.902344 14.953125 10.5 15.246094 C 10.09375 15.539062 10.007812 16.105469 10.300781 16.511719 C 10.59375 16.917969 11.160156 17.007812 11.566406 16.714844 C 11.96875 16.421875 12.058594 15.855469 11.765625 15.449219 Z M 11.765625 15.449219 "/>
</g>
</svg>
