
<svg xmlns="http://www.w3.org/2000/svg" xmlns:xlink="http://www.w3.org/1999/xlink" width="22px" height="22px" viewBox="0 0 22 22" version="1.1">
<defs>
<linearGradient id="linear0" gradientUnits="userSpaceOnUse" x1="32" y1="3.8" x2="32" y2="23.49" gradientTransform="matrix(0.34375,0,0,0.34375,0,0)">
<stop offset="0" style="stop-color:rgb(16.078432%,71.372551%,96.470588%);stop-opacity:1;"/>
<stop offset="0.67" style="stop-color:rgb(39.607844%,45.09804%,82.745099%);stop-opacity:1;"/>
<stop offset="1" style="stop-color:rgb(49.411765%,34.117648%,76.862746%);stop-opacity:1;"/>
</linearGradient>
<linearGradient id="linear1" gradientUnits="userSpaceOnUse" x1="32" y1="60.900002" x2="32" y2="18.719999" gradientTransform="matrix(0.34375,0,0,0.34375,0,0)">
<stop offset="0" style="stop-color:rgb(86.274511%,87.058824%,88.627452%);stop-opacity:1;"/>
<stop offset="0.57" style="stop-color:rgb(87.058824%,87.843138%,89.411765%);stop-opacity:1;"/>
<stop offset="0.81" style="stop-color:rgb(89.803922%,90.588236%,91.764706%);stop-opacity:1;"/>
<stop offset="0.99" style="stop-color:rgb(94.901961%,95.294118%,95.686275%);stop-opacity:1;"/>
<stop offset="1" style="stop-color:rgb(95.294118%,95.686275%,96.078432%);stop-opacity:1;"/>
</linearGradient>
<linearGradient id="linear2" gradientUnits="userSpaceOnUse" x1="32" y1="46.240002" x2="32" y2="39" gradientTransform="matrix(0.34375,0,0,0.34375,0,0)">
<stop offset="0" style="stop-color:rgb(75.294119%,75.294119%,75.294119%);stop-opacity:1;"/>
<stop offset="1" style="stop-color:rgb(55.686277%,55.686277%,55.686277%);stop-opacity:1;"/>
</linearGradient>
<linearGradient id="linear3" gradientUnits="userSpaceOnUse" x1="32" y1="52.619999" x2="32" y2="29.91" gradientTransform="matrix(0.34375,0,0,0.34375,0,0)">
<stop offset="0" style="stop-color:rgb(75.294119%,75.294119%,75.294119%);stop-opacity:1;"/>
<stop offset="1" style="stop-color:rgb(55.686277%,55.686277%,55.686277%);stop-opacity:1;"/>
</linearGradient>
</defs>
<g id="surface1">
<path style=" stroke:none;fill-rule:nonzero;fill:url(#linear0);" d="M 22 7.324219 C 21.996094 6.351562 21.210938 5.566406 20.234375 5.566406 L 14.25 5.566406 C 13.023438 5.566406 12.023438 4.585938 12 3.363281 C 12.019531 2.117188 11.027344 1.089844 9.78125 1.066406 L 1.164062 1.066406 C 0.519531 1.066406 0 1.585938 0 2.226562 L 0 8.050781 L 22 8.050781 Z M 22 7.324219 "/>
<path style=" stroke:none;fill-rule:nonzero;fill:url(#linear1);" d="M 20.234375 6.433594 L 1.765625 6.433594 C 0.789062 6.433594 0 7.226562 0 8.199219 L 0 19.175781 C 0.00390625 20.148438 0.789062 20.933594 1.765625 20.933594 L 20.234375 20.933594 C 21.210938 20.933594 21.996094 20.148438 22 19.175781 L 22 8.199219 C 22 7.226562 21.210938 6.433594 20.234375 6.433594 Z M 20.234375 6.433594 "/>
<path style=" stroke:none;fill-rule:nonzero;fill:url(#linear2);" d="M 12.152344 14.53125 C 12.152344 15.167969 11.636719 15.679688 11 15.679688 C 10.363281 15.679688 9.847656 15.167969 9.847656 14.53125 C 9.847656 13.894531 10.363281 13.378906 11 13.378906 C 11.636719 13.378906 12.152344 13.894531 12.152344 14.53125 Z M 12.152344 14.53125 "/>
<path style=" stroke:none;fill-rule:nonzero;fill:url(#linear3);" d="M 13.886719 11.34375 L 13.0625 11.34375 L 13.0625 10.902344 C 13.054688 10.527344 12.75 10.226562 12.375 10.214844 L 9.625 10.214844 C 9.242188 10.214844 8.929688 10.519531 8.921875 10.902344 L 8.921875 11.34375 L 8.113281 11.34375 C 7.464844 11.347656 6.941406 11.871094 6.941406 12.519531 L 6.941406 16.25 C 6.941406 16.894531 7.464844 17.417969 8.113281 17.421875 L 13.886719 17.421875 C 14.535156 17.417969 15.058594 16.894531 15.058594 16.25 L 15.058594 12.519531 C 15.058594 11.871094 14.535156 11.347656 13.886719 11.34375 Z M 11 16.644531 C 9.832031 16.644531 8.886719 15.699219 8.886719 14.53125 C 8.886719 13.363281 9.832031 12.414062 11 12.414062 C 12.167969 12.414062 13.113281 13.363281 13.113281 14.53125 C 13.113281 15.695312 12.167969 16.640625 11 16.644531 Z M 13.75 13.160156 C 13.484375 13.160156 13.269531 12.941406 13.269531 12.679688 C 13.269531 12.410156 13.484375 12.195312 13.75 12.195312 C 14.015625 12.195312 14.230469 12.410156 14.230469 12.679688 C 14.230469 12.941406 14.015625 13.160156 13.75 13.160156 Z M 13.75 13.160156 "/>
</g>
</svg>
