
<svg xmlns="http://www.w3.org/2000/svg" xmlns:xlink="http://www.w3.org/1999/xlink" width="22px" height="22px" viewBox="0 0 22 22" version="1.1">
<defs>
<linearGradient id="linear0" gradientUnits="userSpaceOnUse" x1="-26.201" y1="1070.199951" x2="-26.201" y2="1082.599976" gradientTransform="matrix(0.243529,0,0,0.243529,11.991476,-258.136659)">
<stop offset="0" style="stop-color:rgb(47.058824%,76.47059%,99.215686%);stop-opacity:1;"/>
<stop offset="1" style="stop-color:rgb(48.235294%,77.64706%,100%);stop-opacity:1;"/>
</linearGradient>
<linearGradient id="linear1" gradientUnits="userSpaceOnUse" x1="-9.912" y1="1081.400024" x2="-9.912" y2="1139.800049" gradientTransform="matrix(0.243529,0,0,0.243529,11.991476,-258.136659)">
<stop offset="0" style="stop-color:rgb(20.784314%,64.705884%,98.823529%);stop-opacity:1;"/>
<stop offset="0.5" style="stop-color:rgb(27.058825%,75.294119%,100%);stop-opacity:1;"/>
<stop offset="1" style="stop-color:rgb(30.19608%,67.450982%,96.470588%);stop-opacity:1;"/>
</linearGradient>
<filter id="alpha" filterUnits="objectBoundingBox" x="0%" y="0%" width="100%" height="100%">
  <feColorMatrix type="matrix" in="SourceGraphic" values="0 0 0 0 1 0 0 0 0 1 0 0 0 0 1 0 0 0 1 0"/>
</filter>
<mask id="mask0">
  <g filter="url(#alpha)">
<rect x="0" y="0" width="22" height="22" style="fill:rgb(0%,0%,0%);fill-opacity:0.08;stroke:none;"/>
  </g>
</mask>
<clipPath id="clip1">
  <rect x="0" y="0" width="22" height="22"/>
</clipPath>
<g id="surface5" clip-path="url(#clip1)">
<path style=" stroke:none;fill-rule:nonzero;fill:rgb(0%,0%,0%);fill-opacity:1;" d="M 0.292969 18.042969 L 0.292969 18.289062 L 21.707031 18.289062 L 21.707031 18.042969 Z M 0.292969 18.582031 L 0.292969 18.710938 C 0.292969 18.75 0.296875 18.785156 0.300781 18.824219 L 21.703125 18.824219 C 21.707031 18.785156 21.710938 18.75 21.710938 18.710938 L 21.710938 18.582031 Z M 0.292969 18.582031 "/>
</g>
<mask id="mask1">
  <g filter="url(#alpha)">
<rect x="0" y="0" width="22" height="22" style="fill:rgb(0%,0%,0%);fill-opacity:0.25;stroke:none;"/>
  </g>
</mask>
<linearGradient id="linear2" gradientUnits="userSpaceOnUse" x1="-9.617" y1="1138.400024" x2="-9.617" y2="1140.199951" gradientTransform="matrix(0.243529,0,0,0.243529,11.991476,-258.136659)">
<stop offset="0" style="stop-color:rgb(0%,0%,0%);stop-opacity:0.046784;"/>
<stop offset="1" style="stop-color:rgb(0%,0%,0%);stop-opacity:1;"/>
</linearGradient>
<clipPath id="clip2">
  <rect x="0" y="0" width="22" height="22"/>
</clipPath>
<g id="surface8" clip-path="url(#clip2)">
<path style=" stroke:none;fill-rule:nonzero;fill:url(#linear2);" d="M 0.363281 19.046875 C 0.492188 19.335938 0.777344 19.519531 1.09375 19.519531 L 20.910156 19.519531 C 21.238281 19.519531 21.515625 19.328125 21.640625 19.046875 Z M 0.363281 19.046875 "/>
</g>
<mask id="mask2">
  <g filter="url(#alpha)">
<rect x="0" y="0" width="22" height="22" style="fill:rgb(0%,0%,0%);fill-opacity:0.15;stroke:none;"/>
  </g>
</mask>
<clipPath id="clip3">
  <rect x="0" y="0" width="22" height="22"/>
</clipPath>
<g id="surface11" clip-path="url(#clip3)">
<path style=" stroke:none;fill-rule:nonzero;fill:rgb(0%,0%,0%);fill-opacity:1;" d="M 11.09375 7.824219 C 11.03125 7.824219 10.964844 7.847656 10.90625 7.882812 L 10.574219 8.074219 C 10.472656 8.132812 10.402344 8.230469 10.371094 8.34375 C 10.339844 8.457031 10.355469 8.578125 10.417969 8.679688 L 13.28125 13.683594 L 14.332031 12.976562 L 11.507812 8.050781 C 11.429688 7.917969 11.300781 7.835938 11.160156 7.824219 C 11.136719 7.820312 11.117188 7.824219 11.09375 7.824219 Z M 10.082031 9.53125 C 9.9375 9.542969 9.804688 9.617188 9.726562 9.75 L 9.4375 10.25 L 10.527344 10.882812 L 10.816406 10.386719 C 10.875 10.285156 10.894531 10.164062 10.863281 10.050781 C 10.832031 9.933594 10.761719 9.839844 10.660156 9.777344 L 10.335938 9.589844 C 10.257812 9.542969 10.167969 9.523438 10.082031 9.527344 Z M 9.253906 10.574219 L 6.785156 14.894531 L 7.875 15.523438 L 10.347656 11.210938 Z M 5.648438 12.511719 L 5.648438 13.785156 L 7.109375 13.785156 L 7.835938 12.511719 Z M 9.914062 12.511719 L 9.191406 13.785156 L 13.027344 13.785156 L 12.296875 12.511719 Z M 14.378906 12.511719 L 15.109375 13.785156 L 16.460938 13.785156 L 16.460938 12.511719 Z M 14.519531 13.300781 L 13.46875 14.007812 L 13.996094 14.925781 L 15.042969 14.21875 Z M 15.234375 14.550781 L 14.183594 15.257812 C 14.214844 16.519531 15.171875 16.363281 15.539062 17.152344 C 16.238281 16.402344 16.027344 15.25 15.234375 14.550781 Z M 6.597656 15.222656 L 6.023438 17.285156 L 7.6875 15.855469 Z M 6.597656 15.222656 "/>
</g>
</defs>
<g id="surface1">
<path style=" stroke:none;fill-rule:nonzero;fill:url(#linear0);" d="M 1.089844 2.488281 L 6.480469 2.488281 C 7.28125 2.488281 7.613281 4.210938 8.363281 4.210938 L 20.910156 4.210938 C 21.121094 4.210938 21.324219 4.292969 21.476562 4.445312 C 21.625 4.59375 21.710938 4.796875 21.707031 5.007812 L 21.707031 17.308594 C 21.707031 17.753906 21.351562 16.816406 20.910156 16.816406 L 1.089844 16.816406 C 0.878906 16.816406 0.675781 16.734375 0.523438 16.585938 C 0.375 16.433594 0.289062 16.230469 0.292969 16.019531 L 0.292969 3.289062 C 0.289062 3.074219 0.375 2.871094 0.523438 2.722656 C 0.675781 2.570312 0.878906 2.488281 1.089844 2.488281 Z M 1.089844 2.488281 "/>
<path style=" stroke:none;fill-rule:nonzero;fill:url(#linear1);" d="M 1.089844 5.191406 L 20.910156 5.191406 C 21.121094 5.191406 21.324219 5.273438 21.476562 5.425781 C 21.625 5.574219 21.707031 5.777344 21.707031 5.992188 L 21.707031 18.722656 C 21.707031 18.933594 21.625 19.136719 21.476562 19.285156 C 21.324219 19.4375 21.121094 19.519531 20.910156 19.519531 L 1.089844 19.519531 C 0.878906 19.519531 0.675781 19.4375 0.523438 19.285156 C 0.375 19.136719 0.289062 18.933594 0.292969 18.722656 L 0.292969 5.992188 C 0.289062 5.777344 0.375 5.574219 0.523438 5.425781 C 0.675781 5.273438 0.878906 5.191406 1.089844 5.191406 Z M 1.089844 5.191406 "/>
<use xlink:href="#surface5" mask="url(#mask0)"/>
<use xlink:href="#surface8" mask="url(#mask1)"/>
<use xlink:href="#surface11" mask="url(#mask2)"/>
</g>
</svg>
