
<svg xmlns="http://www.w3.org/2000/svg" xmlns:xlink="http://www.w3.org/1999/xlink" width="22px" height="22px" viewBox="0 0 22 22" version="1.1">
<defs>
<linearGradient id="linear0" gradientUnits="userSpaceOnUse" x1="32" y1="3.8" x2="32" y2="23.49" gradientTransform="matrix(0.34375,0,0,0.34375,0,0)">
<stop offset="0" style="stop-color:rgb(16.078432%,71.372551%,96.470588%);stop-opacity:1;"/>
<stop offset="0.67" style="stop-color:rgb(39.607844%,45.09804%,82.745099%);stop-opacity:1;"/>
<stop offset="1" style="stop-color:rgb(49.411765%,34.117648%,76.862746%);stop-opacity:1;"/>
</linearGradient>
<linearGradient id="linear1" gradientUnits="userSpaceOnUse" x1="32" y1="60.900002" x2="32" y2="18.719999" gradientTransform="matrix(0.34375,0,0,0.34375,0,0)">
<stop offset="0" style="stop-color:rgb(86.274511%,87.058824%,88.627452%);stop-opacity:1;"/>
<stop offset="0.57" style="stop-color:rgb(87.058824%,87.843138%,89.411765%);stop-opacity:1;"/>
<stop offset="0.81" style="stop-color:rgb(89.803922%,90.588236%,91.764706%);stop-opacity:1;"/>
<stop offset="0.99" style="stop-color:rgb(94.901961%,95.294118%,95.686275%);stop-opacity:1;"/>
<stop offset="1" style="stop-color:rgb(95.294118%,95.686275%,96.078432%);stop-opacity:1;"/>
</linearGradient>
<linearGradient id="linear2" gradientUnits="userSpaceOnUse" x1="32" y1="52.32" x2="32" y2="28.32" gradientTransform="matrix(0.34375,0,0,0.34375,0,0)">
<stop offset="0" style="stop-color:rgb(75.294119%,75.294119%,75.294119%);stop-opacity:1;"/>
<stop offset="1" style="stop-color:rgb(55.686277%,55.686277%,55.686277%);stop-opacity:1;"/>
</linearGradient>
<linearGradient id="linear3" gradientUnits="userSpaceOnUse" x1="32" y1="44.290001" x2="32" y2="36.330002" gradientTransform="matrix(0.34375,0,0,0.34375,0,0)">
<stop offset="0" style="stop-color:rgb(75.294119%,75.294119%,75.294119%);stop-opacity:1;"/>
<stop offset="1" style="stop-color:rgb(55.686277%,55.686277%,55.686277%);stop-opacity:1;"/>
</linearGradient>
</defs>
<g id="surface1">
<path style=" stroke:none;fill-rule:nonzero;fill:url(#linear0);" d="M 22 7.324219 C 21.996094 6.351562 21.210938 5.566406 20.234375 5.566406 L 14.25 5.566406 C 13.023438 5.566406 12.023438 4.585938 12 3.363281 C 12.019531 2.117188 11.027344 1.089844 9.78125 1.066406 L 1.164062 1.066406 C 0.519531 1.066406 0 1.585938 0 2.226562 L 0 8.050781 L 22 8.050781 Z M 22 7.324219 "/>
<path style=" stroke:none;fill-rule:nonzero;fill:url(#linear1);" d="M 20.234375 6.433594 L 1.765625 6.433594 C 0.789062 6.433594 0 7.226562 0 8.199219 L 0 19.175781 C 0.00390625 20.148438 0.789062 20.933594 1.765625 20.933594 L 20.234375 20.933594 C 21.210938 20.933594 21.996094 20.148438 22 19.175781 L 22 8.199219 C 22 7.226562 21.210938 6.433594 20.234375 6.433594 Z M 20.234375 6.433594 "/>
<path style=" stroke:none;fill-rule:nonzero;fill:url(#linear2);" d="M 11.210938 17.984375 L 10.867188 17.984375 C 10.375 17.910156 10 17.503906 9.96875 17.003906 C 9.96875 16.871094 9.929688 16.765625 9.789062 16.710938 C 9.664062 16.671875 9.527344 16.710938 9.445312 16.8125 C 9.023438 17.175781 8.398438 17.160156 7.996094 16.773438 C 7.605469 16.390625 7.59375 15.761719 7.972656 15.367188 C 8.054688 15.273438 8.125 15.183594 8.066406 15.054688 C 8.007812 14.929688 7.890625 14.90625 7.753906 14.902344 C 7.320312 14.898438 6.929688 14.625 6.785156 14.214844 C 6.769531 14.164062 6.75 14.113281 6.726562 14.0625 L 6.726562 13.71875 C 6.824219 13.226562 7.253906 12.867188 7.757812 12.855469 C 7.878906 12.871094 7.996094 12.808594 8.042969 12.695312 C 8.09375 12.582031 8.058594 12.453125 7.964844 12.375 C 7.777344 12.183594 7.675781 11.925781 7.679688 11.660156 C 7.6875 11.394531 7.796875 11.140625 7.992188 10.953125 C 8.40625 10.574219 9.042969 10.574219 9.457031 10.953125 C 9.542969 11.050781 9.683594 11.082031 9.800781 11.027344 C 9.9375 10.972656 9.953125 10.867188 9.957031 10.746094 C 9.96875 10.273438 10.304688 9.867188 10.769531 9.769531 C 10.792969 9.761719 10.8125 9.753906 10.832031 9.742188 L 11.175781 9.742188 C 11.191406 9.75 11.203125 9.761719 11.21875 9.769531 C 11.695312 9.859375 12.042969 10.265625 12.058594 10.746094 C 12.070312 10.851562 12.128906 10.945312 12.214844 11 C 12.324219 11.019531 12.433594 10.988281 12.515625 10.921875 C 12.941406 10.550781 13.574219 10.558594 13.988281 10.945312 C 14.378906 11.339844 14.378906 11.976562 13.988281 12.367188 C 13.882812 12.449219 13.851562 12.59375 13.910156 12.710938 C 13.96875 12.84375 14.078125 12.863281 14.203125 12.863281 C 14.460938 12.84375 14.714844 12.941406 14.890625 13.128906 C 15.027344 13.3125 15.148438 13.511719 15.25 13.714844 L 15.25 14.058594 C 15.140625 14.570312 14.679688 14.929688 14.15625 14.917969 C 14.066406 14.933594 13.988281 14.988281 13.949219 15.070312 C 13.9375 15.171875 13.96875 15.277344 14.03125 15.359375 C 14.40625 15.765625 14.398438 16.394531 14.007812 16.785156 C 13.59375 17.167969 12.960938 17.175781 12.535156 16.808594 C 12.453125 16.738281 12.34375 16.710938 12.242188 16.730469 C 12.152344 16.792969 12.09375 16.894531 12.082031 17.003906 C 12.082031 17.253906 11.980469 17.492188 11.804688 17.664062 C 11.613281 17.789062 11.417969 17.894531 11.210938 17.984375 Z M 11.015625 17.320312 C 11.117188 17.328125 11.21875 17.292969 11.292969 17.222656 C 11.367188 17.148438 11.402344 17.050781 11.394531 16.945312 C 11.375 16.570312 11.601562 16.222656 11.953125 16.082031 C 12.300781 15.929688 12.710938 16.003906 12.984375 16.273438 C 13.128906 16.414062 13.363281 16.414062 13.507812 16.273438 C 13.585938 16.207031 13.628906 16.113281 13.628906 16.011719 C 13.628906 15.910156 13.585938 15.816406 13.507812 15.75 C 13.234375 15.496094 13.15625 15.09375 13.316406 14.753906 C 13.460938 14.417969 13.792969 14.199219 14.160156 14.203125 C 14.417969 14.1875 14.570312 14.046875 14.5625 13.839844 C 14.558594 13.632812 14.40625 13.496094 14.140625 13.496094 C 13.777344 13.503906 13.441406 13.292969 13.292969 12.957031 C 13.121094 12.609375 13.191406 12.191406 13.46875 11.925781 C 13.550781 11.863281 13.605469 11.765625 13.609375 11.664062 C 13.613281 11.558594 13.570312 11.457031 13.492188 11.390625 C 13.417969 11.320312 13.316406 11.285156 13.21875 11.289062 C 13.117188 11.292969 13.019531 11.335938 12.953125 11.414062 C 12.679688 11.671875 12.28125 11.742188 11.9375 11.59375 C 11.589844 11.464844 11.359375 11.132812 11.363281 10.761719 C 11.363281 10.5625 11.199219 10.402344 11 10.398438 C 10.898438 10.398438 10.804688 10.4375 10.734375 10.511719 C 10.664062 10.582031 10.628906 10.679688 10.636719 10.78125 C 10.648438 11.152344 10.425781 11.492188 10.082031 11.628906 C 9.726562 11.796875 9.300781 11.726562 9.015625 11.453125 C 8.949219 11.378906 8.851562 11.335938 8.75 11.332031 C 8.648438 11.328125 8.550781 11.363281 8.476562 11.433594 C 8.398438 11.5 8.355469 11.59375 8.355469 11.695312 C 8.355469 11.792969 8.398438 11.890625 8.476562 11.957031 C 8.75 12.214844 8.824219 12.617188 8.667969 12.957031 C 8.53125 13.304688 8.191406 13.53125 7.820312 13.527344 C 7.75 13.527344 7.683594 13.542969 7.621094 13.570312 C 7.472656 13.636719 7.390625 13.792969 7.421875 13.949219 C 7.457031 14.128906 7.621094 14.253906 7.804688 14.242188 C 8.1875 14.214844 8.546875 14.429688 8.703125 14.78125 C 8.882812 15.128906 8.804688 15.554688 8.511719 15.8125 C 8.46875 15.855469 8.433594 15.910156 8.414062 15.96875 C 8.363281 16.117188 8.421875 16.285156 8.554688 16.367188 C 8.703125 16.46875 8.898438 16.449219 9.023438 16.320312 C 9.261719 16.085938 9.601562 15.996094 9.921875 16.078125 C 10.328125 16.15625 10.628906 16.496094 10.65625 16.910156 C 10.675781 17.167969 10.808594 17.3125 11.015625 17.320312 Z M 11.015625 17.320312 "/>
<path style=" stroke:none;fill-rule:nonzero;fill:url(#linear3);" d="M 11 15.222656 C 10.246094 15.207031 9.644531 14.585938 9.65625 13.828125 C 9.667969 13.074219 10.285156 12.46875 11.039062 12.476562 C 11.796875 12.480469 12.40625 13.09375 12.40625 13.847656 C 12.390625 14.617188 11.765625 15.226562 11 15.222656 Z M 11.726562 13.847656 C 11.730469 13.554688 11.554688 13.285156 11.285156 13.167969 C 11.011719 13.050781 10.695312 13.109375 10.484375 13.316406 C 10.273438 13.523438 10.210938 13.839844 10.324219 14.113281 C 10.4375 14.386719 10.703125 14.566406 11 14.5625 C 11.394531 14.5625 11.714844 14.25 11.726562 13.855469 Z M 11.726562 13.847656 "/>
</g>
</svg>
