
<svg xmlns="http://www.w3.org/2000/svg" xmlns:xlink="http://www.w3.org/1999/xlink" width="22px" height="22px" viewBox="0 0 22 22" version="1.1">
<defs>
<linearGradient id="linear0" gradientUnits="userSpaceOnUse" x1="32" y1="3.8" x2="32" y2="23.49" gradientTransform="matrix(0.34375,0,0,0.34375,0,0)">
<stop offset="0" style="stop-color:rgb(16.078432%,71.372551%,96.470588%);stop-opacity:1;"/>
<stop offset="0.67" style="stop-color:rgb(39.607844%,45.09804%,82.745099%);stop-opacity:1;"/>
<stop offset="1" style="stop-color:rgb(49.411765%,34.117648%,76.862746%);stop-opacity:1;"/>
</linearGradient>
<linearGradient id="linear1" gradientUnits="userSpaceOnUse" x1="32" y1="60.900002" x2="32" y2="18.719999" gradientTransform="matrix(0.34375,0,0,0.34375,0,0)">
<stop offset="0" style="stop-color:rgb(86.274511%,87.058824%,88.627452%);stop-opacity:1;"/>
<stop offset="0.57" style="stop-color:rgb(87.058824%,87.843138%,89.411765%);stop-opacity:1;"/>
<stop offset="0.81" style="stop-color:rgb(89.803922%,90.588236%,91.764706%);stop-opacity:1;"/>
<stop offset="0.99" style="stop-color:rgb(94.901961%,95.294118%,95.686275%);stop-opacity:1;"/>
<stop offset="1" style="stop-color:rgb(95.294118%,95.686275%,96.078432%);stop-opacity:1;"/>
</linearGradient>
<linearGradient id="linear2" gradientUnits="userSpaceOnUse" x1="32" y1="51.860001" x2="32" y2="31.549999" gradientTransform="matrix(0.34375,0,0,0.34375,0,0)">
<stop offset="0" style="stop-color:rgb(75.294119%,75.294119%,75.294119%);stop-opacity:1;"/>
<stop offset="1" style="stop-color:rgb(55.686277%,55.686277%,55.686277%);stop-opacity:1;"/>
</linearGradient>
<linearGradient id="linear3" gradientUnits="userSpaceOnUse" x1="32" y1="51.860001" x2="32" y2="31.549999" gradientTransform="matrix(0.34375,0,0,0.34375,0,0)">
<stop offset="0" style="stop-color:rgb(75.294119%,75.294119%,75.294119%);stop-opacity:1;"/>
<stop offset="1" style="stop-color:rgb(55.686277%,55.686277%,55.686277%);stop-opacity:1;"/>
</linearGradient>
</defs>
<g id="surface1">
<path style=" stroke:none;fill-rule:nonzero;fill:url(#linear0);" d="M 22 7.324219 C 21.996094 6.351562 21.210938 5.566406 20.234375 5.566406 L 14.25 5.566406 C 13.023438 5.566406 12.023438 4.585938 12 3.363281 C 12.019531 2.117188 11.027344 1.089844 9.78125 1.066406 L 1.164062 1.066406 C 0.519531 1.066406 0 1.585938 0 2.226562 L 0 8.050781 L 22 8.050781 Z M 22 7.324219 "/>
<path style=" stroke:none;fill-rule:nonzero;fill:url(#linear1);" d="M 20.234375 6.433594 L 1.765625 6.433594 C 0.789062 6.433594 0 7.226562 0 8.199219 L 0 19.175781 C 0.00390625 20.148438 0.789062 20.933594 1.765625 20.933594 L 20.234375 20.933594 C 21.210938 20.933594 21.996094 20.148438 22 19.175781 L 22 8.199219 C 22 7.226562 21.210938 6.433594 20.234375 6.433594 Z M 20.234375 6.433594 "/>
<path style=" stroke:none;fill-rule:nonzero;fill:url(#linear2);" d="M 12.054688 13.972656 C 12.054688 13.390625 11.582031 12.917969 11 12.917969 C 10.417969 12.917969 9.945312 13.390625 9.945312 13.972656 C 9.945312 14.554688 10.417969 15.027344 11 15.027344 C 11.582031 15.027344 12.054688 14.554688 12.054688 13.972656 Z M 10.445312 13.972656 C 10.445312 13.667969 10.691406 13.417969 11 13.417969 C 11.308594 13.417969 11.554688 13.667969 11.554688 13.972656 C 11.554688 14.28125 11.308594 14.53125 11 14.53125 C 10.851562 14.53125 10.710938 14.472656 10.605469 14.367188 C 10.5 14.261719 10.441406 14.121094 10.445312 13.972656 Z M 10.445312 13.972656 "/>
<path style=" stroke:none;fill-rule:nonzero;fill:url(#linear3);" d="M 11 10.191406 C 8.910156 10.191406 7.21875 11.886719 7.21875 13.972656 C 7.21875 16.0625 8.910156 17.753906 11 17.753906 C 13.089844 17.753906 14.78125 16.0625 14.78125 13.972656 C 14.78125 11.886719 13.089844 10.191406 11 10.191406 Z M 13.613281 13.972656 C 13.609375 15.417969 12.441406 16.585938 11 16.589844 L 11 16.308594 C 12.289062 16.304688 13.332031 15.261719 13.332031 13.972656 Z M 9.203125 13.972656 C 9.203125 12.980469 10.007812 12.175781 11 12.175781 C 11.992188 12.175781 12.796875 12.980469 12.796875 13.972656 C 12.796875 14.964844 11.992188 15.773438 11 15.773438 C 10.007812 15.769531 9.203125 14.964844 9.203125 13.972656 Z M 11 17.304688 L 11 17.027344 C 12.683594 17.023438 14.050781 15.660156 14.054688 13.972656 L 14.332031 13.972656 C 14.328125 15.8125 12.839844 17.300781 11 17.304688 Z M 11 17.304688 "/>
</g>
</svg>
