
<svg xmlns="http://www.w3.org/2000/svg" xmlns:xlink="http://www.w3.org/1999/xlink" width="22px" height="22px" viewBox="0 0 22 22" version="1.1">
<defs>
<linearGradient id="linear0" gradientUnits="userSpaceOnUse" x1="32" y1="3.8" x2="32" y2="23.49" gradientTransform="matrix(0.34375,0,0,0.34375,0,0)">
<stop offset="0" style="stop-color:rgb(16.078431%,71.372549%,96.470588%);stop-opacity:1;"/>
<stop offset="0.67" style="stop-color:rgb(39.607843%,45.098039%,82.745098%);stop-opacity:1;"/>
<stop offset="1" style="stop-color:rgb(49.411765%,34.117647%,76.862745%);stop-opacity:1;"/>
</linearGradient>
<linearGradient id="linear1" gradientUnits="userSpaceOnUse" x1="32" y1="33.75" x2="32" y2="58.78" gradientTransform="matrix(0.34375,0,0,0.34375,0,0)">
<stop offset="0" style="stop-color:rgb(87.45098%,88.235294%,89.411765%);stop-opacity:1;"/>
<stop offset="0.05" style="stop-color:rgb(85.490196%,86.27451%,87.843137%);stop-opacity:1;"/>
<stop offset="0.22" style="stop-color:rgb(80.392157%,81.568627%,83.529412%);stop-opacity:1;"/>
<stop offset="0.45" style="stop-color:rgb(77.647059%,78.823529%,81.568627%);stop-opacity:1;"/>
<stop offset="1" style="stop-color:rgb(76.862745%,78.039216%,80.784314%);stop-opacity:1;"/>
</linearGradient>
</defs>
<g id="surface1">
<path style=" stroke:none;fill-rule:nonzero;fill:url(#linear0);" d="M 22 7.324219 C 22 6.351562 21.210938 5.566406 20.238281 5.566406 L 14.25 5.566406 C 13.023438 5.566406 12.023438 4.585938 12 3.363281 C 12.019531 2.117188 11.027344 1.089844 9.78125 1.066406 L 1.160156 1.066406 C 0.519531 1.066406 0 1.585938 0 2.226562 L 0 8.050781 L 22 8.050781 Z M 22 7.324219 "/>
<path style=" stroke:none;fill-rule:nonzero;fill:rgb(49.411765%,34.117647%,76.862745%);fill-opacity:1;" d="M 0 7.964844 L 22 7.964844 L 22 12.605469 L 0 12.605469 Z M 0 7.964844 "/>
<path style=" stroke:none;fill-rule:nonzero;fill:url(#linear1);" d="M 0 19.175781 C 0 20.148438 0.789062 20.933594 1.761719 20.933594 L 20.238281 20.933594 C 21.210938 20.933594 22 20.148438 22 19.175781 L 22 11.613281 C 22 11 21.503906 10.5 20.890625 10.5 L 1.109375 10.5 C 0.5 10.5 0 10.996094 0 11.609375 Z M 0 19.175781 "/>
</g>
</svg>
