
<svg xmlns="http://www.w3.org/2000/svg" xmlns:xlink="http://www.w3.org/1999/xlink" width="22px" height="22px" viewBox="0 0 22 22" version="1.1">
<defs>
<linearGradient id="linear0" gradientUnits="userSpaceOnUse" x1="32" y1="3.8" x2="32" y2="23.49" gradientTransform="matrix(0.34375,0,0,0.34375,0,0)">
<stop offset="0" style="stop-color:rgb(16.078432%,71.372551%,96.470588%);stop-opacity:1;"/>
<stop offset="0.67" style="stop-color:rgb(39.607844%,45.09804%,82.745099%);stop-opacity:1;"/>
<stop offset="1" style="stop-color:rgb(49.411765%,34.117648%,76.862746%);stop-opacity:1;"/>
</linearGradient>
<linearGradient id="linear1" gradientUnits="userSpaceOnUse" x1="32" y1="60.900002" x2="32" y2="18.719999" gradientTransform="matrix(0.34375,0,0,0.34375,0,0)">
<stop offset="0" style="stop-color:rgb(86.274511%,87.058824%,88.627452%);stop-opacity:1;"/>
<stop offset="0.57" style="stop-color:rgb(87.058824%,87.843138%,89.411765%);stop-opacity:1;"/>
<stop offset="0.81" style="stop-color:rgb(89.803922%,90.588236%,91.764706%);stop-opacity:1;"/>
<stop offset="0.99" style="stop-color:rgb(94.901961%,95.294118%,95.686275%);stop-opacity:1;"/>
<stop offset="1" style="stop-color:rgb(95.294118%,95.686275%,96.078432%);stop-opacity:1;"/>
</linearGradient>
<linearGradient id="linear2" gradientUnits="userSpaceOnUse" x1="32" y1="32.900002" x2="32" y2="49.02" gradientTransform="matrix(0.34375,0,0,0.34375,0,0)">
<stop offset="0" style="stop-color:rgb(55.686277%,55.686277%,55.686277%);stop-opacity:1;"/>
<stop offset="1" style="stop-color:rgb(75.294119%,75.294119%,75.294119%);stop-opacity:1;"/>
</linearGradient>
<linearGradient id="linear3" gradientUnits="userSpaceOnUse" x1="32" y1="32.900002" x2="32" y2="49.02" gradientTransform="matrix(0.34375,0,0,0.34375,0,0)">
<stop offset="0" style="stop-color:rgb(55.686277%,55.686277%,55.686277%);stop-opacity:1;"/>
<stop offset="1" style="stop-color:rgb(75.294119%,75.294119%,75.294119%);stop-opacity:1;"/>
</linearGradient>
</defs>
<g id="surface1">
<path style=" stroke:none;fill-rule:nonzero;fill:url(#linear0);" d="M 22 7.324219 C 21.996094 6.351562 21.210938 5.566406 20.234375 5.566406 L 14.25 5.566406 C 13.023438 5.566406 12.023438 4.585938 12 3.363281 C 12.019531 2.117188 11.027344 1.089844 9.78125 1.066406 L 1.164062 1.066406 C 0.519531 1.066406 0 1.585938 0 2.226562 L 0 8.050781 L 22 8.050781 Z M 22 7.324219 "/>
<path style=" stroke:none;fill-rule:nonzero;fill:url(#linear1);" d="M 20.234375 6.433594 L 1.765625 6.433594 C 0.789062 6.433594 0 7.226562 0 8.199219 L 0 19.175781 C 0.00390625 20.148438 0.789062 20.933594 1.765625 20.933594 L 20.234375 20.933594 C 21.210938 20.933594 21.996094 20.148438 22 19.175781 L 22 8.199219 C 22 7.226562 21.210938 6.433594 20.234375 6.433594 Z M 20.234375 6.433594 "/>
<path style=" stroke:none;fill-rule:nonzero;fill:url(#linear2);" d="M 13.589844 17.113281 L 8.410156 17.113281 C 7.667969 17.113281 7.0625 16.507812 7.058594 15.765625 L 7.058594 14.238281 C 7.058594 14.039062 7.222656 13.882812 7.417969 13.882812 C 7.617188 13.882812 7.773438 14.039062 7.773438 14.238281 L 7.773438 15.765625 C 7.773438 16.117188 8.0625 16.402344 8.410156 16.402344 L 13.589844 16.402344 C 13.9375 16.402344 14.226562 16.117188 14.226562 15.765625 L 14.226562 14.238281 C 14.226562 14.039062 14.382812 13.882812 14.582031 13.882812 C 14.777344 13.882812 14.941406 14.039062 14.941406 14.238281 L 14.941406 15.765625 C 14.9375 16.507812 14.332031 17.113281 13.589844 17.113281 Z M 13.589844 17.113281 "/>
<path style=" stroke:none;fill-rule:nonzero;fill:url(#linear3);" d="M 11 15.667969 C 10.875 15.667969 10.75 15.625 10.65625 15.542969 L 8.128906 13.320312 C 7.96875 13.179688 7.914062 12.949219 7.988281 12.75 C 8.058594 12.542969 8.253906 12.40625 8.46875 12.40625 L 9.121094 12.40625 L 9.121094 10.6875 C 9.121094 10.488281 9.28125 10.328125 9.476562 10.328125 C 9.675781 10.328125 9.835938 10.488281 9.835938 10.6875 L 9.835938 12.605469 C 9.832031 12.886719 9.601562 13.117188 9.320312 13.117188 L 9 13.117188 L 11 14.890625 L 12.996094 13.132812 L 12.679688 13.132812 C 12.394531 13.132812 12.164062 12.902344 12.164062 12.621094 L 12.164062 10.703125 C 12.164062 10.503906 12.324219 10.34375 12.519531 10.34375 C 12.71875 10.34375 12.878906 10.503906 12.878906 10.703125 L 12.878906 12.421875 L 13.527344 12.421875 C 13.742188 12.417969 13.933594 12.550781 14.007812 12.75 C 14.085938 12.953125 14.03125 13.179688 13.871094 13.320312 L 11.34375 15.542969 C 11.25 15.625 11.125 15.667969 11 15.667969 Z M 10.867188 15.003906 Z M 10.867188 15.003906 "/>
</g>
</svg>
