
<svg xmlns="http://www.w3.org/2000/svg" xmlns:xlink="http://www.w3.org/1999/xlink" width="22px" height="22px" viewBox="0 0 22 22" version="1.1">
<defs>
<linearGradient id="linear0" gradientUnits="userSpaceOnUse" x1="32" y1="3.8" x2="32" y2="23.49" gradientTransform="matrix(0.34375,0,0,0.34375,0,0)">
<stop offset="0" style="stop-color:rgb(16.078432%,71.372551%,96.470588%);stop-opacity:1;"/>
<stop offset="0.67" style="stop-color:rgb(39.607844%,45.09804%,82.745099%);stop-opacity:1;"/>
<stop offset="1" style="stop-color:rgb(49.411765%,34.117648%,76.862746%);stop-opacity:1;"/>
</linearGradient>
<linearGradient id="linear1" gradientUnits="userSpaceOnUse" x1="32" y1="60.900002" x2="32" y2="18.719999" gradientTransform="matrix(0.34375,0,0,0.34375,0,0)">
<stop offset="0" style="stop-color:rgb(86.274511%,87.058824%,88.627452%);stop-opacity:1;"/>
<stop offset="0.57" style="stop-color:rgb(87.058824%,87.843138%,89.411765%);stop-opacity:1;"/>
<stop offset="0.81" style="stop-color:rgb(89.803922%,90.588236%,91.764706%);stop-opacity:1;"/>
<stop offset="0.99" style="stop-color:rgb(94.901961%,95.294118%,95.686275%);stop-opacity:1;"/>
<stop offset="1" style="stop-color:rgb(95.294118%,95.686275%,96.078432%);stop-opacity:1;"/>
</linearGradient>
<linearGradient id="linear2" gradientUnits="userSpaceOnUse" x1="32" y1="51.310001" x2="32" y2="28.790001" gradientTransform="matrix(0.34375,0,0,0.34375,0,0)">
<stop offset="0" style="stop-color:rgb(75.294119%,75.294119%,75.294119%);stop-opacity:1;"/>
<stop offset="1" style="stop-color:rgb(55.686277%,55.686277%,55.686277%);stop-opacity:1;"/>
</linearGradient>
</defs>
<g id="surface1">
<path style=" stroke:none;fill-rule:nonzero;fill:url(#linear0);" d="M 22 7.324219 C 21.996094 6.351562 21.210938 5.566406 20.234375 5.566406 L 14.25 5.566406 C 13.023438 5.566406 12.023438 4.585938 12 3.363281 C 12.019531 2.117188 11.027344 1.089844 9.78125 1.066406 L 1.164062 1.066406 C 0.519531 1.066406 0 1.585938 0 2.226562 L 0 8.050781 L 22 8.050781 Z M 22 7.324219 "/>
<path style=" stroke:none;fill-rule:nonzero;fill:url(#linear1);" d="M 20.234375 6.433594 L 1.765625 6.433594 C 0.789062 6.433594 0 7.226562 0 8.199219 L 0 19.175781 C 0.00390625 20.148438 0.789062 20.933594 1.765625 20.933594 L 20.234375 20.933594 C 21.210938 20.933594 21.996094 20.148438 22 19.175781 L 22 8.199219 C 22 7.226562 21.210938 6.433594 20.234375 6.433594 Z M 20.234375 6.433594 "/>
<path style=" stroke:none;fill-rule:nonzero;fill:url(#linear2);" d="M 12.554688 17.636719 L 9.460938 17.636719 C 8.714844 17.636719 8.109375 17.035156 8.109375 16.289062 L 8.109375 13.683594 C 8.109375 12.941406 8.714844 12.335938 9.460938 12.335938 L 11.429688 12.335938 C 11.660156 12.335938 11.847656 12.523438 11.847656 12.753906 C 11.847656 12.984375 11.660156 13.167969 11.429688 13.167969 L 9.445312 13.167969 C 9.164062 13.171875 8.9375 13.402344 8.9375 13.683594 L 8.9375 16.289062 C 8.9375 16.578125 9.167969 16.808594 9.457031 16.808594 L 12.550781 16.808594 C 12.835938 16.804688 13.0625 16.574219 13.0625 16.289062 L 13.0625 13.683594 C 13.0625 13.546875 13.007812 13.414062 12.910156 13.320312 C 12.8125 13.222656 12.679688 13.167969 12.542969 13.167969 L 12.128906 13.167969 L 12.128906 11.449219 C 12.128906 11.039062 11.796875 10.707031 11.390625 10.707031 L 10.914062 10.707031 C 10.503906 10.707031 10.171875 11.039062 10.171875 11.449219 L 10.171875 11.621094 C 10.171875 11.851562 9.984375 12.039062 9.757812 12.039062 C 9.527344 12.039062 9.339844 11.851562 9.339844 11.621094 L 9.339844 11.449219 C 9.339844 10.582031 10.046875 9.878906 10.914062 9.878906 L 11.398438 9.878906 C 12.265625 9.882812 12.96875 10.582031 12.96875 11.449219 L 12.96875 12.386719 C 13.527344 12.5625 13.90625 13.082031 13.90625 13.667969 L 13.90625 16.273438 C 13.910156 16.632812 13.765625 16.980469 13.511719 17.238281 C 13.261719 17.492188 12.914062 17.636719 12.554688 17.636719 Z M 12.554688 17.636719 "/>
</g>
</svg>
