
<svg xmlns="http://www.w3.org/2000/svg" xmlns:xlink="http://www.w3.org/1999/xlink" width="22px" height="22px" viewBox="0 0 22 22" version="1.1">
<defs>
<linearGradient id="linear0" gradientUnits="userSpaceOnUse" x1="32" y1="3.8" x2="32" y2="23.49" gradientTransform="matrix(0.34375,0,0,0.34375,0,0)">
<stop offset="0" style="stop-color:rgb(16.078432%,71.372551%,96.470588%);stop-opacity:1;"/>
<stop offset="0.67" style="stop-color:rgb(39.607844%,45.09804%,82.745099%);stop-opacity:1;"/>
<stop offset="1" style="stop-color:rgb(49.411765%,34.117648%,76.862746%);stop-opacity:1;"/>
</linearGradient>
<linearGradient id="linear1" gradientUnits="userSpaceOnUse" x1="32" y1="60.900002" x2="32" y2="18.719999" gradientTransform="matrix(0.34375,0,0,0.34375,0,0)">
<stop offset="0" style="stop-color:rgb(86.274511%,87.058824%,88.627452%);stop-opacity:1;"/>
<stop offset="0.57" style="stop-color:rgb(87.058824%,87.843138%,89.411765%);stop-opacity:1;"/>
<stop offset="0.81" style="stop-color:rgb(89.803922%,90.588236%,91.764706%);stop-opacity:1;"/>
<stop offset="0.99" style="stop-color:rgb(94.901961%,95.294118%,95.686275%);stop-opacity:1;"/>
<stop offset="1" style="stop-color:rgb(95.294118%,95.686275%,96.078432%);stop-opacity:1;"/>
</linearGradient>
<linearGradient id="linear2" gradientUnits="userSpaceOnUse" x1="32" y1="52.360001" x2="32" y2="27.360001" gradientTransform="matrix(0.34375,0,0,0.34375,0,0)">
<stop offset="0" style="stop-color:rgb(75.294119%,75.294119%,75.294119%);stop-opacity:1;"/>
<stop offset="1" style="stop-color:rgb(55.686277%,55.686277%,55.686277%);stop-opacity:1;"/>
</linearGradient>
</defs>
<g id="surface1">
<path style=" stroke:none;fill-rule:nonzero;fill:url(#linear0);" d="M 22 7.324219 C 21.996094 6.351562 21.210938 5.566406 20.234375 5.566406 L 14.25 5.566406 C 13.023438 5.566406 12.023438 4.585938 12 3.363281 C 12.019531 2.117188 11.027344 1.089844 9.78125 1.066406 L 1.164062 1.066406 C 0.519531 1.066406 0 1.585938 0 2.226562 L 0 8.050781 L 22 8.050781 Z M 22 7.324219 "/>
<path style=" stroke:none;fill-rule:nonzero;fill:url(#linear1);" d="M 20.234375 6.433594 L 1.765625 6.433594 C 0.789062 6.433594 0 7.226562 0 8.199219 L 0 19.175781 C 0.00390625 20.148438 0.789062 20.933594 1.765625 20.933594 L 20.234375 20.933594 C 21.210938 20.933594 21.996094 20.148438 22 19.175781 L 22 8.199219 C 22 7.226562 21.210938 6.433594 20.234375 6.433594 Z M 20.234375 6.433594 "/>
<path style=" stroke:none;fill-rule:nonzero;fill:url(#linear2);" d="M 11.125 18 L 10.902344 18 C 10.726562 17.980469 10.570312 17.898438 10.457031 17.765625 C 9.289062 16.59375 8.121094 15.425781 6.949219 14.257812 C 6.820312 14.15625 6.734375 14.007812 6.703125 13.847656 L 6.703125 13.554688 C 6.726562 13.390625 6.808594 13.246094 6.933594 13.136719 C 7.6875 12.390625 8.441406 11.640625 9.1875 10.886719 L 9.316406 10.757812 C 9.429688 10.648438 9.453125 10.648438 9.5625 10.757812 L 10.382812 11.578125 C 10.445312 11.632812 10.46875 11.71875 10.449219 11.796875 C 10.367188 12.070312 10.496094 12.359375 10.75 12.484375 C 10.804688 12.519531 10.832031 12.582031 10.820312 12.644531 L 10.820312 13.613281 C 10.820312 14.015625 10.820312 14.421875 10.820312 14.820312 C 10.832031 14.914062 10.785156 15 10.703125 15.039062 C 10.488281 15.171875 10.382812 15.425781 10.445312 15.671875 C 10.5 15.925781 10.71875 16.109375 10.976562 16.128906 C 11.234375 16.148438 11.476562 15.996094 11.570312 15.753906 C 11.664062 15.515625 11.589844 15.238281 11.390625 15.078125 C 11.289062 15.011719 11.230469 14.894531 11.246094 14.773438 C 11.246094 14.105469 11.246094 13.4375 11.246094 12.765625 C 11.246094 12.703125 11.210938 12.617188 11.289062 12.582031 C 11.363281 12.546875 11.410156 12.636719 11.457031 12.683594 C 11.683594 12.902344 11.90625 13.136719 12.144531 13.371094 C 12.230469 13.441406 12.265625 13.550781 12.234375 13.65625 C 12.179688 13.941406 12.339844 14.222656 12.613281 14.320312 C 12.878906 14.414062 13.175781 14.308594 13.320312 14.066406 C 13.46875 13.824219 13.417969 13.507812 13.203125 13.324219 C 13.074219 13.203125 12.894531 13.152344 12.722656 13.1875 C 12.628906 13.210938 12.527344 13.175781 12.46875 13.097656 L 11.675781 12.300781 C 11.617188 12.25 11.589844 12.171875 11.601562 12.097656 C 11.640625 11.90625 11.578125 11.707031 11.441406 11.570312 C 11.304688 11.429688 11.105469 11.371094 10.914062 11.410156 C 10.835938 11.421875 10.761719 11.394531 10.707031 11.335938 L 9.867188 10.496094 C 9.761719 10.386719 9.761719 10.363281 9.867188 10.253906 C 10.0625 10.058594 10.265625 9.871094 10.449219 9.664062 C 10.554688 9.535156 10.703125 9.453125 10.867188 9.4375 L 11.136719 9.4375 C 11.296875 9.457031 11.445312 9.539062 11.550781 9.664062 C 12.722656 10.84375 13.894531 12.019531 15.078125 13.1875 C 15.207031 13.300781 15.292969 13.457031 15.308594 13.628906 L 15.308594 13.851562 C 15.292969 14.039062 15.199219 14.207031 15.050781 14.320312 C 13.90625 15.464844 12.761719 16.613281 11.613281 17.757812 C 11.488281 17.898438 11.3125 17.984375 11.125 18 Z M 11.125 18 "/>
</g>
</svg>
