
<svg xmlns="http://www.w3.org/2000/svg" xmlns:xlink="http://www.w3.org/1999/xlink" width="22px" height="22px" viewBox="0 0 22 22" version="1.1">
<defs>
<linearGradient id="linear0" gradientUnits="userSpaceOnUse" x1="32" y1="3.8" x2="32" y2="23.49" gradientTransform="matrix(0.34375,0,0,0.34375,0,0)">
<stop offset="0" style="stop-color:rgb(16.078432%,71.372551%,96.470588%);stop-opacity:1;"/>
<stop offset="0.67" style="stop-color:rgb(39.607844%,45.09804%,82.745099%);stop-opacity:1;"/>
<stop offset="1" style="stop-color:rgb(49.411765%,34.117648%,76.862746%);stop-opacity:1;"/>
</linearGradient>
<linearGradient id="linear1" gradientUnits="userSpaceOnUse" x1="32" y1="60.900002" x2="32" y2="18.719999" gradientTransform="matrix(0.34375,0,0,0.34375,0,0)">
<stop offset="0" style="stop-color:rgb(86.274511%,87.058824%,88.627452%);stop-opacity:1;"/>
<stop offset="0.57" style="stop-color:rgb(87.058824%,87.843138%,89.411765%);stop-opacity:1;"/>
<stop offset="0.81" style="stop-color:rgb(89.803922%,90.588236%,91.764706%);stop-opacity:1;"/>
<stop offset="0.99" style="stop-color:rgb(94.901961%,95.294118%,95.686275%);stop-opacity:1;"/>
<stop offset="1" style="stop-color:rgb(95.294118%,95.686275%,96.078432%);stop-opacity:1;"/>
</linearGradient>
<linearGradient id="linear2" gradientUnits="userSpaceOnUse" x1="32" y1="29.75" x2="32" y2="48.32" gradientTransform="matrix(0.34375,0,0,0.34375,0,0)">
<stop offset="0" style="stop-color:rgb(55.686277%,55.686277%,55.686277%);stop-opacity:1;"/>
<stop offset="1" style="stop-color:rgb(75.294119%,75.294119%,75.294119%);stop-opacity:1;"/>
</linearGradient>
</defs>
<g id="surface1">
<path style=" stroke:none;fill-rule:nonzero;fill:url(#linear0);" d="M 22 7.324219 C 21.996094 6.351562 21.210938 5.566406 20.234375 5.566406 L 14.25 5.566406 C 13.023438 5.566406 12.023438 4.585938 12 3.363281 C 12.019531 2.117188 11.027344 1.089844 9.78125 1.066406 L 1.164062 1.066406 C 0.519531 1.066406 0 1.585938 0 2.226562 L 0 8.050781 L 22 8.050781 Z M 22 7.324219 "/>
<path style=" stroke:none;fill-rule:nonzero;fill:url(#linear1);" d="M 20.234375 6.433594 L 1.765625 6.433594 C 0.789062 6.433594 0 7.226562 0 8.199219 L 0 19.175781 C 0.00390625 20.148438 0.789062 20.933594 1.765625 20.933594 L 20.234375 20.933594 C 21.210938 20.933594 21.996094 20.148438 22 19.175781 L 22 8.199219 C 22 7.226562 21.210938 6.433594 20.234375 6.433594 Z M 20.234375 6.433594 "/>
<path style=" stroke:none;fill-rule:nonzero;fill:url(#linear2);" d="M 15.125 11.511719 L 13.238281 10.882812 C 13.097656 10.835938 13.003906 10.703125 13.003906 10.558594 C 13.003906 10.367188 12.851562 10.214844 12.660156 10.214844 L 6.988281 10.214844 C 6.796875 10.214844 6.644531 10.367188 6.644531 10.558594 L 6.644531 16.652344 C 6.644531 16.839844 6.796875 16.996094 6.988281 16.996094 L 12.652344 16.996094 C 12.84375 16.996094 12.996094 16.839844 12.996094 16.652344 C 12.992188 16.539062 13.042969 16.429688 13.132812 16.359375 C 13.222656 16.292969 13.339844 16.273438 13.445312 16.308594 L 13.503906 16.324219 C 13.59375 16.355469 13.6875 16.347656 13.769531 16.308594 C 13.851562 16.265625 13.914062 16.195312 13.941406 16.109375 L 15.316406 11.9375 C 15.375 11.769531 15.289062 11.582031 15.125 11.511719 Z M 11.882812 15.542969 L 7.757812 15.542969 C 7.570312 15.542969 7.414062 15.386719 7.414062 15.199219 L 7.414062 11.324219 C 7.414062 11.132812 7.570312 10.980469 7.757812 10.980469 L 11.882812 10.980469 C 12.074219 10.980469 12.226562 11.132812 12.226562 11.324219 L 12.226562 15.199219 C 12.226562 15.386719 12.074219 15.542969 11.882812 15.542969 Z M 12.996094 14.78125 L 12.996094 11.886719 C 12.996094 11.777344 13.050781 11.671875 13.140625 11.609375 C 13.226562 11.542969 13.34375 11.527344 13.445312 11.5625 L 14.390625 11.875 C 14.476562 11.90625 14.546875 11.96875 14.589844 12.050781 C 14.628906 12.132812 14.636719 12.226562 14.605469 12.3125 L 13.75 14.902344 C 13.691406 15.082031 13.496094 15.179688 13.316406 15.121094 L 13.242188 15.09375 C 13.101562 15.050781 13.003906 14.925781 12.996094 14.78125 Z M 12.996094 14.78125 "/>
</g>
</svg>
