
<svg xmlns="http://www.w3.org/2000/svg" xmlns:xlink="http://www.w3.org/1999/xlink" width="22px" height="22px" viewBox="0 0 22 22" version="1.1">
<defs>
<linearGradient id="linear0" gradientUnits="userSpaceOnUse" x1="-26.201" y1="1070.199951" x2="-26.201" y2="1082.599976" gradientTransform="matrix(0.243529,0,0,0.243529,12.04445,-257.943394)">
<stop offset="0" style="stop-color:rgb(47.058824%,85.09804%,99.215686%);stop-opacity:1;"/>
<stop offset="1" style="stop-color:rgb(48.235294%,87.058824%,100%);stop-opacity:1;"/>
</linearGradient>
<linearGradient id="linear1" gradientUnits="userSpaceOnUse" x1="-9.912" y1="1081.400024" x2="-9.912" y2="1139.800049" gradientTransform="matrix(0.243529,0,0,0.243529,12.04445,-257.943394)">
<stop offset="0" style="stop-color:rgb(20.784314%,79.215688%,98.823529%);stop-opacity:1;"/>
<stop offset="0.5" style="stop-color:rgb(31.37255%,83.137256%,100%);stop-opacity:1;"/>
<stop offset="1" style="stop-color:rgb(30.19608%,79.607844%,96.470588%);stop-opacity:1;"/>
</linearGradient>
<filter id="alpha" filterUnits="objectBoundingBox" x="0%" y="0%" width="100%" height="100%">
  <feColorMatrix type="matrix" in="SourceGraphic" values="0 0 0 0 1 0 0 0 0 1 0 0 0 0 1 0 0 0 1 0"/>
</filter>
<mask id="mask0">
  <g filter="url(#alpha)">
<rect x="0" y="0" width="22" height="22" style="fill:rgb(0%,0%,0%);fill-opacity:0.976;stroke:none;"/>
  </g>
</mask>
<clipPath id="clip1">
  <rect x="0" y="0" width="22" height="22"/>
</clipPath>
<g id="surface5" clip-path="url(#clip1)">
<path style=" stroke:none;fill-rule:nonzero;fill:rgb(23.137255%,75.686276%,94.509804%);fill-opacity:1;" d="M 0.347656 18.242188 L 0.347656 18.488281 L 21.761719 18.488281 L 21.761719 18.242188 Z M 0.347656 18.777344 L 0.347656 18.90625 C 0.347656 18.949219 0.351562 18.984375 0.355469 19.023438 L 21.753906 19.023438 C 21.761719 18.984375 21.761719 18.949219 21.761719 18.90625 L 21.761719 18.777344 Z M 0.347656 18.777344 "/>
</g>
<mask id="mask1">
  <g filter="url(#alpha)">
<rect x="0" y="0" width="22" height="22" style="fill:rgb(0%,0%,0%);fill-opacity:0.976;stroke:none;"/>
  </g>
</mask>
<linearGradient id="linear2" gradientUnits="userSpaceOnUse" x1="-9.617" y1="1138.400024" x2="-9.617" y2="1140.199951" gradientTransform="matrix(0.243529,0,0,0.243529,12.04445,-257.943394)">
<stop offset="0" style="stop-color:rgb(23.137255%,75.686276%,94.509804%);stop-opacity:1;"/>
<stop offset="1" style="stop-color:rgb(5.490196%,58.431375%,77.254903%);stop-opacity:1;"/>
</linearGradient>
<clipPath id="clip2">
  <rect x="0" y="0" width="22" height="22"/>
</clipPath>
<g id="surface8" clip-path="url(#clip2)">
<path style=" stroke:none;fill-rule:nonzero;fill:url(#linear2);" d="M 0.414062 19.242188 C 0.546875 19.527344 0.832031 19.714844 1.148438 19.714844 L 20.964844 19.714844 C 21.289062 19.714844 21.570312 19.519531 21.695312 19.242188 Z M 0.414062 19.242188 "/>
</g>
<linearGradient id="linear3" gradientUnits="userSpaceOnUse" x1="29.591" y1="1098.199951" x2="29.591" y2="1120.800049" gradientTransform="matrix(0.312423,0,0,0.312423,1.807708,-334.099786)">
<stop offset="0" style="stop-color:rgb(1.176471%,71.372551%,92.54902%);stop-opacity:1;"/>
<stop offset="1" style="stop-color:rgb(7.450981%,75.294119%,96.862745%);stop-opacity:1;"/>
</linearGradient>
</defs>
<g id="surface1">
<path style=" stroke:none;fill-rule:nonzero;fill:url(#linear0);" d="M 1.144531 2.679688 L 6.53125 2.679688 C 7.332031 2.679688 7.667969 4.402344 8.414062 4.402344 L 20.960938 4.402344 C 21.175781 4.402344 21.378906 4.488281 21.527344 4.636719 C 21.679688 4.785156 21.761719 4.992188 21.761719 5.203125 L 21.761719 17.503906 C 21.761719 17.945312 21.40625 17.011719 20.960938 17.011719 L 1.144531 17.011719 C 0.933594 17.011719 0.726562 16.925781 0.578125 16.777344 C 0.429688 16.628906 0.34375 16.421875 0.34375 16.210938 L 0.34375 3.480469 C 0.34375 3.269531 0.429688 3.066406 0.578125 2.914062 C 0.726562 2.765625 0.933594 2.679688 1.144531 2.679688 Z M 1.144531 2.679688 "/>
<path style=" stroke:none;fill-rule:nonzero;fill:url(#linear1);" d="M 1.144531 5.382812 L 20.960938 5.382812 C 21.175781 5.382812 21.378906 5.46875 21.527344 5.617188 C 21.679688 5.769531 21.761719 5.972656 21.761719 6.183594 L 21.761719 18.914062 C 21.761719 19.125 21.679688 19.332031 21.527344 19.480469 C 21.378906 19.628906 21.175781 19.714844 20.960938 19.714844 L 1.144531 19.714844 C 0.929688 19.714844 0.726562 19.628906 0.578125 19.480469 C 0.425781 19.332031 0.34375 19.125 0.34375 18.914062 L 0.34375 6.183594 C 0.34375 5.972656 0.425781 5.769531 0.578125 5.617188 C 0.726562 5.46875 0.929688 5.382812 1.144531 5.382812 Z M 1.144531 5.382812 "/>
<use xlink:href="#surface5" mask="url(#mask0)"/>
<use xlink:href="#surface8" mask="url(#mask1)"/>
<path style=" stroke:none;fill-rule:nonzero;fill:url(#linear3);" d="M 11.050781 9.011719 C 9.1875 9.011719 7.425781 9.835938 6.21875 11.273438 C 6.105469 11.40625 6.082031 11.59375 6.15625 11.753906 C 6.230469 11.910156 6.390625 12.011719 6.566406 12.011719 C 6.691406 12.011719 6.820312 11.957031 6.910156 11.851562 C 7.945312 10.621094 9.453125 9.914062 11.050781 9.914062 C 12.652344 9.914062 14.160156 10.621094 15.195312 11.851562 C 15.285156 11.957031 15.410156 12.011719 15.539062 12.011719 C 15.714844 12.011719 15.875 11.910156 15.949219 11.753906 C 16.023438 11.59375 16 11.40625 15.886719 11.273438 C 14.679688 9.835938 12.917969 9.011719 11.050781 9.011719 Z M 11.050781 10.921875 C 9.71875 10.921875 8.460938 11.511719 7.601562 12.535156 C 7.441406 12.726562 7.464844 13.011719 7.65625 13.171875 C 7.847656 13.332031 8.128906 13.308594 8.289062 13.117188 C 8.976562 12.300781 9.984375 11.824219 11.050781 11.824219 C 12.117188 11.824219 13.125 12.296875 13.8125 13.117188 C 13.902344 13.222656 14.03125 13.277344 14.160156 13.277344 C 14.335938 13.277344 14.496094 13.175781 14.566406 13.015625 C 14.640625 12.859375 14.617188 12.671875 14.503906 12.535156 C 13.640625 11.511719 12.386719 10.921875 11.050781 10.921875 Z M 11.050781 12.90625 C 10.253906 12.90625 9.496094 13.261719 8.980469 13.875 C 8.902344 13.964844 8.867188 14.085938 8.878906 14.203125 C 8.886719 14.324219 8.945312 14.433594 9.035156 14.511719 C 9.128906 14.589844 9.246094 14.625 9.367188 14.617188 C 9.484375 14.605469 9.59375 14.546875 9.671875 14.457031 C 10.015625 14.046875 10.519531 13.808594 11.050781 13.808594 C 11.585938 13.808594 12.089844 14.046875 12.433594 14.457031 C 12.511719 14.546875 12.621094 14.605469 12.738281 14.613281 C 12.859375 14.625 12.976562 14.585938 13.070312 14.511719 C 13.160156 14.433594 13.21875 14.324219 13.226562 14.203125 C 13.238281 14.085938 13.203125 13.964844 13.125 13.875 C 12.609375 13.261719 11.851562 12.90625 11.050781 12.90625 Z M 11.015625 14.621094 C 10.660156 14.65625 10.320312 14.917969 10.308594 15.3125 C 10.316406 15.714844 10.648438 16.039062 11.050781 16.039062 C 11.457031 16.039062 11.789062 15.714844 11.796875 15.3125 C 11.734375 14.785156 11.367188 14.585938 11.015625 14.621094 Z M 11.015625 14.621094 "/>
</g>
</svg>
