
<svg xmlns="http://www.w3.org/2000/svg" xmlns:xlink="http://www.w3.org/1999/xlink" width="22px" height="22px" viewBox="0 0 22 22" version="1.1">
<defs>
<linearGradient id="linear0" gradientUnits="userSpaceOnUse" x1="32" y1="3.8" x2="32" y2="23.49" gradientTransform="matrix(0.34375,0,0,0.34375,0,0)">
<stop offset="0" style="stop-color:rgb(25.490198%,74.117649%,83.137256%);stop-opacity:1;"/>
<stop offset="1" style="stop-color:rgb(50.980395%,32.549021%,83.92157%);stop-opacity:1;"/>
</linearGradient>
<linearGradient id="linear1" gradientUnits="userSpaceOnUse" x1="32" y1="60.900002" x2="32" y2="18.719999" gradientTransform="matrix(0.34375,0,0,0.34375,0,0)">
<stop offset="0" style="stop-color:rgb(86.274511%,87.058824%,88.627452%);stop-opacity:1;"/>
<stop offset="0.57" style="stop-color:rgb(87.058824%,87.843138%,89.411765%);stop-opacity:1;"/>
<stop offset="0.81" style="stop-color:rgb(89.803922%,90.588236%,91.764706%);stop-opacity:1;"/>
<stop offset="0.99" style="stop-color:rgb(94.901961%,95.294118%,95.686275%);stop-opacity:1;"/>
<stop offset="1" style="stop-color:rgb(95.294118%,95.686275%,96.078432%);stop-opacity:1;"/>
</linearGradient>
</defs>
<g id="surface1">
<path style=" stroke:none;fill-rule:nonzero;fill:url(#linear0);" d="M 22 7.324219 C 21.996094 6.351562 21.210938 5.566406 20.234375 5.566406 L 14.25 5.566406 C 13.023438 5.566406 12.023438 4.585938 12 3.363281 C 12.019531 2.117188 11.027344 1.089844 9.78125 1.066406 L 1.164062 1.066406 C 0.519531 1.066406 0 1.585938 0 2.226562 L 0 8.050781 L 22 8.050781 Z M 22 7.324219 "/>
<path style=" stroke:none;fill-rule:nonzero;fill:url(#linear1);" d="M 20.234375 6.433594 L 1.765625 6.433594 C 0.789062 6.433594 0 7.226562 0 8.199219 L 0 19.175781 C 0.00390625 20.148438 0.789062 20.933594 1.765625 20.933594 L 20.234375 20.933594 C 21.210938 20.933594 21.996094 20.148438 22 19.175781 L 22 8.199219 C 22 7.226562 21.210938 6.433594 20.234375 6.433594 Z M 20.234375 6.433594 "/>
</g>
</svg>
