
<svg xmlns="http://www.w3.org/2000/svg" xmlns:xlink="http://www.w3.org/1999/xlink" width="22px" height="22px" viewBox="0 0 22 22" version="1.1">
<defs>
<linearGradient id="linear0" gradientUnits="userSpaceOnUse" x1="32" y1="3.8" x2="32" y2="23.49" gradientTransform="matrix(0.34375,0,0,0.34375,0,0)">
<stop offset="0" style="stop-color:rgb(16.078432%,71.372551%,96.470588%);stop-opacity:1;"/>
<stop offset="0.67" style="stop-color:rgb(39.607844%,45.09804%,82.745099%);stop-opacity:1;"/>
<stop offset="1" style="stop-color:rgb(49.411765%,34.117648%,76.862746%);stop-opacity:1;"/>
</linearGradient>
<linearGradient id="linear1" gradientUnits="userSpaceOnUse" x1="32" y1="60.900002" x2="32" y2="18.719999" gradientTransform="matrix(0.34375,0,0,0.34375,0,0)">
<stop offset="0" style="stop-color:rgb(86.274511%,87.058824%,88.627452%);stop-opacity:1;"/>
<stop offset="0.57" style="stop-color:rgb(87.058824%,87.843138%,89.411765%);stop-opacity:1;"/>
<stop offset="0.81" style="stop-color:rgb(89.803922%,90.588236%,91.764706%);stop-opacity:1;"/>
<stop offset="0.99" style="stop-color:rgb(94.901961%,95.294118%,95.686275%);stop-opacity:1;"/>
<stop offset="1" style="stop-color:rgb(95.294118%,95.686275%,96.078432%);stop-opacity:1;"/>
</linearGradient>
<linearGradient id="linear2" gradientUnits="userSpaceOnUse" x1="31.299999" y1="51.939999" x2="31.299999" y2="35.799999" gradientTransform="matrix(0.34375,0,0,0.34375,0,0)">
<stop offset="0" style="stop-color:rgb(75.294119%,75.294119%,75.294119%);stop-opacity:1;"/>
<stop offset="1" style="stop-color:rgb(55.686277%,55.686277%,55.686277%);stop-opacity:1;"/>
</linearGradient>
<linearGradient id="linear3" gradientUnits="userSpaceOnUse" x1="38.52" y1="34.709999" x2="38.52" y2="27.379999" gradientTransform="matrix(0.34375,0,0,0.34375,0,0)">
<stop offset="0" style="stop-color:rgb(75.294119%,75.294119%,75.294119%);stop-opacity:1;"/>
<stop offset="1" style="stop-color:rgb(55.686277%,55.686277%,55.686277%);stop-opacity:1;"/>
</linearGradient>
<linearGradient id="linear4" gradientUnits="userSpaceOnUse" x1="31.59" y1="33.82" x2="31.59" y2="28.35" gradientTransform="matrix(0.34375,0,0,0.34375,0,0)">
<stop offset="0" style="stop-color:rgb(75.294119%,75.294119%,75.294119%);stop-opacity:1;"/>
<stop offset="1" style="stop-color:rgb(55.686277%,55.686277%,55.686277%);stop-opacity:1;"/>
</linearGradient>
<linearGradient id="linear5" gradientUnits="userSpaceOnUse" x1="26.9" y1="35.080002" x2="26.9" y2="30.33" gradientTransform="matrix(0.34375,0,0,0.34375,0,0)">
<stop offset="0" style="stop-color:rgb(75.294119%,75.294119%,75.294119%);stop-opacity:1;"/>
<stop offset="1" style="stop-color:rgb(55.686277%,55.686277%,55.686277%);stop-opacity:1;"/>
</linearGradient>
<linearGradient id="linear6" gradientUnits="userSpaceOnUse" x1="23.440001" y1="37.560001" x2="23.440001" y2="33.389999" gradientTransform="matrix(0.34375,0,0,0.34375,0,0)">
<stop offset="0" style="stop-color:rgb(75.294119%,75.294119%,75.294119%);stop-opacity:1;"/>
<stop offset="1" style="stop-color:rgb(55.686277%,55.686277%,55.686277%);stop-opacity:1;"/>
</linearGradient>
</defs>
<g id="surface1">
<path style=" stroke:none;fill-rule:nonzero;fill:url(#linear0);" d="M 22 7.324219 C 21.996094 6.351562 21.210938 5.566406 20.234375 5.566406 L 14.25 5.566406 C 13.023438 5.566406 12.023438 4.585938 12 3.363281 C 12.019531 2.117188 11.027344 1.089844 9.78125 1.066406 L 1.164062 1.066406 C 0.519531 1.066406 0 1.585938 0 2.226562 L 0 8.050781 L 22 8.050781 Z M 22 7.324219 "/>
<path style=" stroke:none;fill-rule:nonzero;fill:url(#linear1);" d="M 20.234375 6.433594 L 1.765625 6.433594 C 0.789062 6.433594 0 7.226562 0 8.199219 L 0 19.175781 C 0.00390625 20.148438 0.789062 20.933594 1.765625 20.933594 L 20.234375 20.933594 C 21.210938 20.933594 21.996094 20.148438 22 19.175781 L 22 8.199219 C 22 7.226562 21.210938 6.433594 20.234375 6.433594 Z M 20.234375 6.433594 "/>
<path style=" stroke:none;fill-rule:nonzero;fill:url(#linear2);" d="M 11.296875 17.851562 C 10.644531 17.832031 10.015625 17.589844 9.523438 17.164062 C 8.953125 16.730469 8.523438 16.140625 8.277344 15.46875 C 7.925781 14.585938 8.246094 13.578125 9.046875 13.0625 C 9.621094 12.652344 10.296875 12.402344 11 12.335938 C 11.320312 12.304688 11.640625 12.296875 11.960938 12.316406 C 12.25 12.332031 12.53125 12.414062 12.785156 12.554688 C 12.988281 12.660156 13.140625 12.847656 13.199219 13.074219 C 13.257812 13.296875 13.222656 13.535156 13.097656 13.730469 C 12.886719 14.066406 12.597656 14.347656 12.261719 14.554688 C 11.839844 14.835938 11.40625 15.101562 10.984375 15.382812 C 10.859375 15.472656 10.742188 15.570312 10.640625 15.6875 C 10.511719 15.78125 10.4375 15.929688 10.4375 16.085938 C 10.4375 16.242188 10.511719 16.390625 10.640625 16.488281 C 10.75 16.601562 10.878906 16.691406 11.019531 16.761719 C 11.195312 16.855469 11.40625 16.839844 11.566406 16.726562 C 11.726562 16.613281 11.804688 16.414062 11.773438 16.222656 C 11.734375 16.054688 11.824219 15.882812 11.980469 15.8125 C 12.308594 15.632812 12.695312 15.578125 13.0625 15.660156 C 13.179688 15.664062 13.289062 15.726562 13.351562 15.824219 C 13.410156 15.925781 13.417969 16.050781 13.367188 16.15625 C 13.132812 17.027344 12.417969 17.6875 11.527344 17.851562 C 11.453125 17.855469 11.375 17.855469 11.296875 17.851562 Z M 11.296875 17.851562 "/>
<path style=" stroke:none;fill-rule:nonzero;fill:url(#linear3);" d="M 13.785156 9.441406 C 13.851562 9.445312 13.921875 9.457031 13.992188 9.46875 C 14.144531 9.488281 14.277344 9.574219 14.359375 9.707031 C 14.4375 9.835938 14.453125 9.996094 14.398438 10.140625 C 14.265625 10.613281 14 11.035156 13.636719 11.363281 C 13.429688 11.582031 13.175781 11.757812 12.898438 11.871094 C 12.730469 11.964844 12.527344 11.964844 12.363281 11.875 C 12.195312 11.78125 12.085938 11.609375 12.078125 11.417969 C 11.953125 10.617188 12.398438 9.832031 13.152344 9.53125 C 13.359375 9.480469 13.570312 9.441406 13.78125 9.414062 Z M 13.785156 9.441406 "/>
<path style=" stroke:none;fill-rule:nonzero;fill:url(#linear4);" d="M 10.277344 10.566406 C 10.269531 10.300781 10.386719 10.046875 10.59375 9.878906 C 10.730469 9.78125 10.898438 9.738281 11.066406 9.757812 C 11.289062 9.804688 11.445312 10.007812 11.4375 10.238281 C 11.460938 10.625 11.363281 11.011719 11.15625 11.34375 C 11.074219 11.476562 10.976562 11.621094 10.792969 11.617188 C 10.609375 11.613281 10.519531 11.464844 10.449219 11.320312 C 10.332031 11.085938 10.273438 10.828125 10.277344 10.566406 Z M 10.277344 10.566406 "/>
<path style=" stroke:none;fill-rule:nonzero;fill:url(#linear5);" d="M 8.742188 11.046875 C 8.726562 10.804688 8.863281 10.578125 9.085938 10.476562 C 9.183594 10.417969 9.300781 10.40625 9.40625 10.445312 C 9.515625 10.484375 9.597656 10.570312 9.636719 10.675781 C 9.738281 10.902344 9.777344 11.152344 9.746094 11.398438 C 9.726562 11.558594 9.683594 11.714844 9.625 11.867188 C 9.53125 12.085938 9.351562 12.113281 9.164062 11.957031 C 8.964844 11.785156 8.828125 11.546875 8.777344 11.289062 C 8.757812 11.210938 8.746094 11.128906 8.742188 11.046875 Z M 8.742188 11.046875 "/>
<path style=" stroke:none;fill-rule:nonzero;fill:url(#linear6);" d="M 7.5625 12.101562 C 7.519531 11.871094 7.628906 11.644531 7.832031 11.527344 C 7.953125 11.445312 8.121094 11.464844 8.21875 11.578125 C 8.394531 11.765625 8.496094 12.007812 8.515625 12.265625 C 8.53125 12.390625 8.53125 12.515625 8.515625 12.640625 C 8.492188 12.882812 8.324219 12.984375 8.109375 12.855469 C 7.816406 12.707031 7.613281 12.425781 7.5625 12.101562 Z M 7.5625 12.101562 "/>
</g>
</svg>
