
<svg xmlns="http://www.w3.org/2000/svg" xmlns:xlink="http://www.w3.org/1999/xlink" width="22px" height="22px" viewBox="0 0 22 22" version="1.1">
<defs>
<linearGradient id="linear0" gradientUnits="userSpaceOnUse" x1="32" y1="3.8" x2="32" y2="23.49" gradientTransform="matrix(0.34375,0,0,0.34375,0,0)">
<stop offset="0" style="stop-color:rgb(16.078432%,71.372551%,96.470588%);stop-opacity:1;"/>
<stop offset="0.67" style="stop-color:rgb(39.607844%,45.09804%,82.745099%);stop-opacity:1;"/>
<stop offset="1" style="stop-color:rgb(49.411765%,34.117648%,76.862746%);stop-opacity:1;"/>
</linearGradient>
<linearGradient id="linear1" gradientUnits="userSpaceOnUse" x1="32" y1="60.900002" x2="32" y2="18.719999" gradientTransform="matrix(0.34375,0,0,0.34375,0,0)">
<stop offset="0" style="stop-color:rgb(86.274511%,87.058824%,88.627452%);stop-opacity:1;"/>
<stop offset="0.57" style="stop-color:rgb(87.058824%,87.843138%,89.411765%);stop-opacity:1;"/>
<stop offset="0.81" style="stop-color:rgb(89.803922%,90.588236%,91.764706%);stop-opacity:1;"/>
<stop offset="0.99" style="stop-color:rgb(94.901961%,95.294118%,95.686275%);stop-opacity:1;"/>
<stop offset="1" style="stop-color:rgb(95.294118%,95.686275%,96.078432%);stop-opacity:1;"/>
</linearGradient>
<linearGradient id="linear2" gradientUnits="userSpaceOnUse" x1="32.259998" y1="50.880001" x2="32.259998" y2="29.559999" gradientTransform="matrix(0.34375,0,0,0.34375,0,0)">
<stop offset="0" style="stop-color:rgb(75.294119%,75.294119%,75.294119%);stop-opacity:1;"/>
<stop offset="1" style="stop-color:rgb(55.686277%,55.686277%,55.686277%);stop-opacity:1;"/>
</linearGradient>
</defs>
<g id="surface1">
<path style=" stroke:none;fill-rule:nonzero;fill:url(#linear0);" d="M 22 7.324219 C 21.996094 6.351562 21.210938 5.566406 20.234375 5.566406 L 14.25 5.566406 C 13.023438 5.566406 12.023438 4.585938 12 3.363281 C 12.019531 2.117188 11.027344 1.089844 9.78125 1.066406 L 1.164062 1.066406 C 0.519531 1.066406 0 1.585938 0 2.226562 L 0 8.050781 L 22 8.050781 Z M 22 7.324219 "/>
<path style=" stroke:none;fill-rule:nonzero;fill:url(#linear1);" d="M 20.234375 6.433594 L 1.765625 6.433594 C 0.789062 6.433594 0 7.226562 0 8.199219 L 0 19.175781 C 0.00390625 20.148438 0.789062 20.933594 1.765625 20.933594 L 20.234375 20.933594 C 21.210938 20.933594 21.996094 20.148438 22 19.175781 L 22 8.199219 C 22 7.226562 21.210938 6.433594 20.234375 6.433594 Z M 20.234375 6.433594 "/>
<path style=" stroke:none;fill-rule:nonzero;fill:url(#linear2);" d="M 13.488281 12.542969 L 11.449219 12.542969 L 11.449219 11.90625 C 11.449219 11.671875 11.640625 11.480469 11.871094 11.476562 L 12.472656 11.476562 C 12.976562 11.476562 13.382812 11.070312 13.382812 10.570312 L 13.382812 10.117188 C 13.382812 10.050781 13.359375 9.992188 13.3125 9.945312 C 13.269531 9.898438 13.207031 9.871094 13.140625 9.871094 C 13.007812 9.871094 12.898438 9.980469 12.898438 10.117188 L 12.898438 10.570312 C 12.898438 10.683594 12.855469 10.792969 12.777344 10.875 C 12.695312 10.953125 12.585938 11 12.472656 11 L 11.871094 11 C 11.371094 11.003906 10.964844 11.410156 10.964844 11.910156 L 10.964844 12.550781 L 8.691406 12.550781 C 7.484375 12.550781 6.457031 13.429688 6.273438 14.621094 C 6.085938 15.816406 6.800781 16.964844 7.949219 17.332031 C 9.101562 17.695312 10.34375 17.167969 10.882812 16.085938 L 11.296875 16.085938 C 11.835938 17.167969 13.082031 17.695312 14.230469 17.332031 C 15.382812 16.964844 16.09375 15.816406 15.910156 14.621094 C 15.722656 13.429688 14.695312 12.550781 13.488281 12.550781 Z M 9.320312 15.160156 L 8.886719 15.160156 L 8.886719 15.613281 C 8.882812 15.738281 8.785156 15.839844 8.660156 15.839844 L 8.59375 15.839844 C 8.46875 15.839844 8.371094 15.738281 8.371094 15.613281 L 8.371094 15.160156 L 7.90625 15.160156 C 7.78125 15.15625 7.679688 15.058594 7.679688 14.933594 L 7.679688 14.855469 C 7.679688 14.734375 7.78125 14.632812 7.90625 14.632812 L 8.351562 14.632812 L 8.351562 14.207031 C 8.351562 14.082031 8.453125 13.984375 8.578125 13.984375 L 8.652344 13.984375 C 8.777344 13.984375 8.878906 14.082031 8.878906 14.207031 L 8.878906 14.632812 L 9.3125 14.632812 C 9.4375 14.632812 9.535156 14.734375 9.535156 14.855469 L 9.535156 14.933594 C 9.535156 15.054688 9.441406 15.152344 9.320312 15.160156 Z M 11.59375 14.621094 C 11.59375 14.738281 11.496094 14.832031 11.378906 14.832031 L 10.839844 14.832031 C 10.722656 14.832031 10.628906 14.738281 10.625 14.621094 L 10.625 14.546875 C 10.625 14.429688 10.722656 14.332031 10.839844 14.332031 L 11.378906 14.332031 C 11.496094 14.332031 11.59375 14.429688 11.59375 14.546875 Z M 13.0625 15.160156 C 12.964844 15.261719 12.816406 15.292969 12.6875 15.242188 C 12.554688 15.1875 12.46875 15.0625 12.46875 14.921875 C 12.46875 14.78125 12.554688 14.65625 12.6875 14.601562 C 12.816406 14.550781 12.964844 14.582031 13.0625 14.683594 C 13.1875 14.816406 13.1875 15.027344 13.0625 15.160156 Z M 13.300781 13.949219 C 13.398438 13.847656 13.546875 13.816406 13.675781 13.867188 C 13.804688 13.917969 13.890625 14.046875 13.890625 14.1875 C 13.890625 14.328125 13.804688 14.453125 13.675781 14.507812 C 13.546875 14.558594 13.398438 14.527344 13.300781 14.425781 C 13.167969 14.292969 13.164062 14.085938 13.289062 13.949219 Z M 13.796875 15.871094 C 13.664062 15.996094 13.457031 15.996094 13.324219 15.871094 C 13.222656 15.773438 13.1875 15.625 13.242188 15.496094 C 13.292969 15.363281 13.421875 15.277344 13.5625 15.277344 C 13.703125 15.277344 13.828125 15.363281 13.878906 15.496094 C 13.933594 15.625 13.898438 15.773438 13.796875 15.871094 Z M 14.5 15.125 C 14.402344 15.226562 14.253906 15.257812 14.125 15.203125 C 13.992188 15.152344 13.910156 15.027344 13.910156 14.886719 C 13.910156 14.746094 13.992188 14.621094 14.125 14.566406 C 14.253906 14.515625 14.402344 14.546875 14.5 14.648438 C 14.628906 14.78125 14.628906 14.992188 14.5 15.125 Z M 14.5 15.125 "/>
</g>
</svg>
