
<svg xmlns="http://www.w3.org/2000/svg" xmlns:xlink="http://www.w3.org/1999/xlink" width="22px" height="22px" viewBox="0 0 22 22" version="1.1">
<defs>
<linearGradient id="linear0" gradientUnits="userSpaceOnUse" x1="32" y1="3.8" x2="32" y2="23.49" gradientTransform="matrix(0.34375,0,0,0.34375,0,0)">
<stop offset="0" style="stop-color:rgb(16.078432%,71.372551%,96.470588%);stop-opacity:1;"/>
<stop offset="0.67" style="stop-color:rgb(39.607844%,45.09804%,82.745099%);stop-opacity:1;"/>
<stop offset="1" style="stop-color:rgb(49.411765%,34.117648%,76.862746%);stop-opacity:1;"/>
</linearGradient>
<linearGradient id="linear1" gradientUnits="userSpaceOnUse" x1="32" y1="60.900002" x2="32" y2="18.719999" gradientTransform="matrix(0.34375,0,0,0.34375,0,0)">
<stop offset="0" style="stop-color:rgb(86.274511%,87.058824%,88.627452%);stop-opacity:1;"/>
<stop offset="0.57" style="stop-color:rgb(87.058824%,87.843138%,89.411765%);stop-opacity:1;"/>
<stop offset="0.81" style="stop-color:rgb(89.803922%,90.588236%,91.764706%);stop-opacity:1;"/>
<stop offset="0.99" style="stop-color:rgb(94.901961%,95.294118%,95.686275%);stop-opacity:1;"/>
<stop offset="1" style="stop-color:rgb(95.294118%,95.686275%,96.078432%);stop-opacity:1;"/>
</linearGradient>
<linearGradient id="linear2" gradientUnits="userSpaceOnUse" x1="32" y1="48.869999" x2="32" y2="29.99" gradientTransform="matrix(0.34375,0,0,0.34375,0,0)">
<stop offset="0" style="stop-color:rgb(75.294119%,75.294119%,75.294119%);stop-opacity:1;"/>
<stop offset="1" style="stop-color:rgb(55.686277%,55.686277%,55.686277%);stop-opacity:1;"/>
</linearGradient>
</defs>
<g id="surface1">
<path style=" stroke:none;fill-rule:nonzero;fill:url(#linear0);" d="M 22 7.324219 C 21.996094 6.351562 21.210938 5.566406 20.234375 5.566406 L 14.25 5.566406 C 13.023438 5.566406 12.023438 4.585938 12 3.363281 C 12.019531 2.117188 11.027344 1.089844 9.78125 1.066406 L 1.164062 1.066406 C 0.519531 1.066406 0 1.585938 0 2.226562 L 0 8.050781 L 22 8.050781 Z M 22 7.324219 "/>
<path style=" stroke:none;fill-rule:nonzero;fill:url(#linear1);" d="M 20.234375 6.433594 L 1.765625 6.433594 C 0.789062 6.433594 0 7.226562 0 8.199219 L 0 19.175781 C 0.00390625 20.148438 0.789062 20.933594 1.765625 20.933594 L 20.234375 20.933594 C 21.210938 20.933594 21.996094 20.148438 22 19.175781 L 22 8.199219 C 22 7.226562 21.210938 6.433594 20.234375 6.433594 Z M 20.234375 6.433594 "/>
<path style=" stroke:none;fill-rule:nonzero;fill:url(#linear2);" d="M 14.933594 9.863281 L 14.484375 9.863281 C 14.367188 9.863281 14.273438 9.957031 14.273438 10.070312 L 14.273438 10.472656 C 14.273438 10.585938 14.179688 10.675781 14.066406 10.675781 L 13.75 10.675781 C 13.695312 10.679688 13.640625 10.65625 13.601562 10.617188 C 13.5625 10.578125 13.539062 10.527344 13.539062 10.472656 L 13.539062 10.070312 C 13.539062 9.957031 13.445312 9.863281 13.332031 9.863281 L 8.660156 9.863281 C 8.542969 9.863281 8.449219 9.957031 8.449219 10.070312 L 8.449219 10.472656 C 8.449219 10.527344 8.425781 10.578125 8.386719 10.617188 C 8.347656 10.65625 8.296875 10.679688 8.238281 10.675781 L 7.933594 10.675781 C 7.820312 10.675781 7.726562 10.585938 7.726562 10.472656 L 7.726562 10.070312 C 7.726562 9.957031 7.632812 9.863281 7.515625 9.863281 L 7.066406 9.863281 C 7.011719 9.863281 6.957031 9.882812 6.921875 9.921875 C 6.882812 9.964844 6.859375 10.015625 6.863281 10.070312 L 6.863281 16.898438 C 6.859375 16.953125 6.882812 17.007812 6.921875 17.046875 C 6.957031 17.085938 7.011719 17.109375 7.066406 17.109375 L 7.515625 17.109375 C 7.632812 17.109375 7.726562 17.015625 7.726562 16.898438 L 7.726562 16.5 C 7.726562 16.386719 7.820312 16.292969 7.933594 16.292969 L 8.25 16.292969 C 8.304688 16.292969 8.359375 16.3125 8.398438 16.351562 C 8.4375 16.390625 8.460938 16.445312 8.460938 16.5 L 8.460938 16.898438 C 8.460938 17.015625 8.554688 17.109375 8.667969 17.109375 L 13.339844 17.109375 C 13.457031 17.109375 13.550781 17.015625 13.550781 16.898438 L 13.550781 16.5 C 13.550781 16.445312 13.574219 16.390625 13.613281 16.351562 C 13.652344 16.3125 13.703125 16.292969 13.761719 16.292969 L 14.066406 16.292969 C 14.179688 16.292969 14.273438 16.386719 14.273438 16.5 L 14.273438 16.898438 C 14.273438 17.015625 14.367188 17.109375 14.484375 17.109375 L 14.933594 17.109375 C 14.988281 17.109375 15.042969 17.085938 15.078125 17.046875 C 15.117188 17.007812 15.140625 16.953125 15.136719 16.898438 L 15.136719 10.070312 C 15.140625 10.015625 15.117188 9.964844 15.078125 9.921875 C 15.042969 9.882812 14.988281 9.863281 14.933594 9.863281 Z M 8.449219 14.828125 C 8.449219 14.941406 8.355469 15.035156 8.238281 15.035156 L 7.933594 15.035156 C 7.878906 15.035156 7.824219 15.011719 7.785156 14.972656 C 7.746094 14.933594 7.726562 14.882812 7.726562 14.828125 L 7.726562 14.324219 C 7.726562 14.269531 7.746094 14.214844 7.785156 14.175781 C 7.824219 14.136719 7.878906 14.113281 7.933594 14.113281 L 8.25 14.113281 C 8.367188 14.113281 8.460938 14.207031 8.460938 14.324219 Z M 8.449219 12.644531 C 8.449219 12.761719 8.355469 12.855469 8.238281 12.855469 L 7.933594 12.855469 C 7.878906 12.855469 7.824219 12.835938 7.785156 12.792969 C 7.746094 12.753906 7.726562 12.703125 7.726562 12.644531 L 7.726562 12.144531 C 7.726562 12.03125 7.820312 11.9375 7.933594 11.933594 L 8.25 11.933594 C 8.367188 11.933594 8.460938 12.027344 8.460938 12.144531 Z M 12.101562 13.726562 L 10.214844 14.816406 C 10.117188 14.871094 9.996094 14.871094 9.898438 14.816406 C 9.800781 14.761719 9.742188 14.65625 9.742188 14.542969 L 9.742188 12.375 C 9.742188 12.261719 9.800781 12.160156 9.898438 12.101562 C 9.996094 12.046875 10.117188 12.046875 10.214844 12.105469 L 12.101562 13.195312 C 12.191406 13.25 12.25 13.351562 12.25 13.460938 C 12.25 13.566406 12.191406 13.667969 12.101562 13.726562 Z M 14.273438 14.828125 C 14.273438 14.882812 14.253906 14.933594 14.214844 14.972656 C 14.175781 15.011719 14.121094 15.035156 14.066406 15.035156 L 13.75 15.035156 C 13.632812 15.035156 13.539062 14.941406 13.539062 14.828125 L 13.539062 14.324219 C 13.539062 14.207031 13.632812 14.113281 13.75 14.113281 L 14.054688 14.113281 C 14.109375 14.113281 14.164062 14.136719 14.203125 14.175781 C 14.242188 14.214844 14.261719 14.269531 14.261719 14.324219 Z M 14.273438 12.644531 C 14.273438 12.703125 14.253906 12.753906 14.214844 12.792969 C 14.175781 12.835938 14.121094 12.855469 14.066406 12.855469 L 13.75 12.855469 C 13.632812 12.855469 13.539062 12.761719 13.539062 12.644531 L 13.539062 12.144531 C 13.539062 12.027344 13.632812 11.933594 13.75 11.933594 L 14.054688 11.933594 C 14.171875 11.9375 14.261719 12.03125 14.261719 12.144531 Z M 14.273438 12.644531 "/>
</g>
</svg>
