
<svg xmlns="http://www.w3.org/2000/svg" xmlns:xlink="http://www.w3.org/1999/xlink" width="22px" height="22px" viewBox="0 0 22 22" version="1.1">
<defs>
<linearGradient id="linear0" gradientUnits="userSpaceOnUse" x1="-26.201" y1="1070.199951" x2="-26.201" y2="1082.599976" gradientTransform="matrix(0.243529,0,0,0.243529,12.045,-257.938989)">
<stop offset="0" style="stop-color:rgb(47.058824%,85.09804%,99.215686%);stop-opacity:1;"/>
<stop offset="1" style="stop-color:rgb(48.235294%,87.058824%,100%);stop-opacity:1;"/>
</linearGradient>
<linearGradient id="linear1" gradientUnits="userSpaceOnUse" x1="-9.912" y1="1081.400024" x2="-9.912" y2="1139.800049" gradientTransform="matrix(0.243529,0,0,0.243529,12.045,-257.938989)">
<stop offset="0" style="stop-color:rgb(20.784314%,79.215688%,98.823529%);stop-opacity:1;"/>
<stop offset="0.5" style="stop-color:rgb(31.37255%,83.137256%,100%);stop-opacity:1;"/>
<stop offset="1" style="stop-color:rgb(30.19608%,79.607844%,96.470588%);stop-opacity:1;"/>
</linearGradient>
<filter id="alpha" filterUnits="objectBoundingBox" x="0%" y="0%" width="100%" height="100%">
  <feColorMatrix type="matrix" in="SourceGraphic" values="0 0 0 0 1 0 0 0 0 1 0 0 0 0 1 0 0 0 1 0"/>
</filter>
<mask id="mask0">
  <g filter="url(#alpha)">
<rect x="0" y="0" width="22" height="22" style="fill:rgb(0%,0%,0%);fill-opacity:0.976;stroke:none;"/>
  </g>
</mask>
<clipPath id="clip1">
  <rect x="0" y="0" width="22" height="22"/>
</clipPath>
<g id="surface5" clip-path="url(#clip1)">
<path style=" stroke:none;fill-rule:nonzero;fill:rgb(23.137255%,75.686276%,94.509804%);fill-opacity:1;" d="M 0.347656 18.242188 L 0.347656 18.484375 L 21.761719 18.484375 L 21.761719 18.242188 Z M 0.347656 18.777344 L 0.347656 18.90625 C 0.347656 18.945312 0.351562 18.984375 0.355469 19.023438 L 21.753906 19.023438 C 21.761719 18.984375 21.761719 18.945312 21.761719 18.90625 L 21.761719 18.777344 Z M 0.347656 18.777344 "/>
</g>
<mask id="mask1">
  <g filter="url(#alpha)">
<rect x="0" y="0" width="22" height="22" style="fill:rgb(0%,0%,0%);fill-opacity:0.976;stroke:none;"/>
  </g>
</mask>
<linearGradient id="linear2" gradientUnits="userSpaceOnUse" x1="-9.617" y1="1138.400024" x2="-9.617" y2="1140.199951" gradientTransform="matrix(0.243529,0,0,0.243529,12.045,-257.938989)">
<stop offset="0" style="stop-color:rgb(23.137255%,75.686276%,94.509804%);stop-opacity:1;"/>
<stop offset="1" style="stop-color:rgb(5.490196%,58.431375%,77.254903%);stop-opacity:1;"/>
</linearGradient>
<clipPath id="clip2">
  <rect x="0" y="0" width="22" height="22"/>
</clipPath>
<g id="surface8" clip-path="url(#clip2)">
<path style=" stroke:none;fill-rule:nonzero;fill:url(#linear2);" d="M 0.417969 19.246094 C 0.546875 19.535156 0.832031 19.71875 1.148438 19.71875 L 20.964844 19.71875 C 21.289062 19.71875 21.570312 19.523438 21.695312 19.246094 Z M 0.417969 19.246094 "/>
</g>
<linearGradient id="linear3" gradientUnits="userSpaceOnUse" x1="-366.019989" y1="1088.5" x2="-366.019989" y2="1141.5" gradientTransform="matrix(0.167277,0,0,0.167277,72.245803,-174.085997)">
<stop offset="0" style="stop-color:rgb(1.176471%,71.372551%,92.54902%);stop-opacity:1;"/>
<stop offset="1" style="stop-color:rgb(7.450981%,75.294119%,96.862745%);stop-opacity:1;"/>
</linearGradient>
</defs>
<g id="surface1">
<path style=" stroke:none;fill-rule:nonzero;fill:url(#linear0);" d="M 1.144531 2.6875 L 6.535156 2.6875 C 7.335938 2.6875 7.667969 4.40625 8.414062 4.40625 L 20.960938 4.40625 C 21.175781 4.40625 21.378906 4.492188 21.527344 4.640625 C 21.679688 4.792969 21.761719 4.996094 21.761719 5.207031 L 21.761719 17.507812 C 21.761719 17.949219 21.40625 17.015625 20.960938 17.015625 L 1.144531 17.015625 C 0.933594 17.015625 0.730469 16.933594 0.578125 16.78125 C 0.429688 16.632812 0.34375 16.429688 0.34375 16.214844 L 0.34375 3.484375 C 0.34375 3.273438 0.429688 3.070312 0.578125 2.917969 C 0.730469 2.769531 0.933594 2.683594 1.144531 2.6875 Z M 1.144531 2.6875 "/>
<path style=" stroke:none;fill-rule:nonzero;fill:url(#linear1);" d="M 1.144531 5.390625 L 20.960938 5.390625 C 21.175781 5.386719 21.378906 5.472656 21.527344 5.621094 C 21.679688 5.773438 21.761719 5.976562 21.761719 6.1875 L 21.761719 18.917969 C 21.761719 19.132812 21.679688 19.335938 21.527344 19.484375 C 21.378906 19.636719 21.175781 19.71875 20.960938 19.71875 L 1.144531 19.71875 C 0.933594 19.71875 0.726562 19.636719 0.578125 19.484375 C 0.429688 19.335938 0.34375 19.132812 0.34375 18.917969 L 0.34375 6.1875 C 0.34375 5.976562 0.429688 5.773438 0.578125 5.621094 C 0.726562 5.472656 0.933594 5.386719 1.144531 5.390625 Z M 1.144531 5.390625 "/>
<use xlink:href="#surface5" mask="url(#mask0)"/>
<use xlink:href="#surface8" mask="url(#mask1)"/>
<path style=" stroke:none;fill-rule:evenodd;fill:url(#linear3);" d="M 15.832031 16.828125 C 15.832031 15.246094 13.144531 14.441406 12.074219 14.152344 C 12.074219 14.152344 12.121094 13.265625 12.222656 12.941406 C 12.328125 12.617188 12.339844 12.246094 12.386719 12.144531 C 12.429688 12.039062 12.953125 11.566406 12.984375 11.121094 C 12.976562 10.859375 12.921875 10.796875 12.792969 10.796875 L 12.792969 9.421875 C 12.792969 8.679688 11.710938 8.03125 11 8.03125 C 10.289062 8.03125 9.207031 8.679688 9.207031 9.421875 L 9.207031 10.796875 C 9.078125 10.796875 9.023438 10.859375 9.019531 11.121094 C 9.046875 11.566406 9.570312 12.039062 9.613281 12.144531 C 9.660156 12.246094 9.671875 12.617188 9.777344 12.941406 C 9.878906 13.265625 9.925781 14.152344 9.925781 14.152344 C 8.855469 14.441406 6.167969 15.246094 6.167969 16.828125 Z M 15.832031 16.828125 "/>
</g>
</svg>
