
<svg xmlns="http://www.w3.org/2000/svg" xmlns:xlink="http://www.w3.org/1999/xlink" width="22px" height="22px" viewBox="0 0 22 22" version="1.1">
<defs>
<linearGradient id="linear0" gradientUnits="userSpaceOnUse" x1="32" y1="3.8" x2="32" y2="23.49" gradientTransform="matrix(0.34375,0,0,0.34375,0,0)">
<stop offset="0" style="stop-color:rgb(16.078432%,71.372551%,96.470588%);stop-opacity:1;"/>
<stop offset="0.67" style="stop-color:rgb(39.607844%,45.09804%,82.745099%);stop-opacity:1;"/>
<stop offset="1" style="stop-color:rgb(49.411765%,34.117648%,76.862746%);stop-opacity:1;"/>
</linearGradient>
<linearGradient id="linear1" gradientUnits="userSpaceOnUse" x1="32" y1="60.900002" x2="32" y2="18.719999" gradientTransform="matrix(0.34375,0,0,0.34375,0,0)">
<stop offset="0" style="stop-color:rgb(86.274511%,87.058824%,88.627452%);stop-opacity:1;"/>
<stop offset="0.57" style="stop-color:rgb(87.058824%,87.843138%,89.411765%);stop-opacity:1;"/>
<stop offset="0.81" style="stop-color:rgb(89.803922%,90.588236%,91.764706%);stop-opacity:1;"/>
<stop offset="0.99" style="stop-color:rgb(94.901961%,95.294118%,95.686275%);stop-opacity:1;"/>
<stop offset="1" style="stop-color:rgb(95.294118%,95.686275%,96.078432%);stop-opacity:1;"/>
</linearGradient>
<linearGradient id="linear2" gradientUnits="userSpaceOnUse" x1="22.23" y1="50" x2="22.23" y2="31.889999" gradientTransform="matrix(0.34375,0,0,0.34375,0,0)">
<stop offset="0" style="stop-color:rgb(75.294119%,75.294119%,75.294119%);stop-opacity:1;"/>
<stop offset="1" style="stop-color:rgb(55.686277%,55.686277%,55.686277%);stop-opacity:1;"/>
</linearGradient>
<linearGradient id="linear3" gradientUnits="userSpaceOnUse" x1="41.77" y1="50" x2="41.77" y2="31.889999" gradientTransform="matrix(0.34375,0,0,0.34375,0,0)">
<stop offset="0" style="stop-color:rgb(75.294119%,75.294119%,75.294119%);stop-opacity:1;"/>
<stop offset="1" style="stop-color:rgb(55.686277%,55.686277%,55.686277%);stop-opacity:1;"/>
</linearGradient>
<linearGradient id="linear4" gradientUnits="userSpaceOnUse" x1="32" y1="50" x2="32" y2="31.889999" gradientTransform="matrix(0.34375,0,0,0.34375,0,0)">
<stop offset="0" style="stop-color:rgb(75.294119%,75.294119%,75.294119%);stop-opacity:1;"/>
<stop offset="1" style="stop-color:rgb(55.686277%,55.686277%,55.686277%);stop-opacity:1;"/>
</linearGradient>
</defs>
<g id="surface1">
<path style=" stroke:none;fill-rule:nonzero;fill:url(#linear0);" d="M 22 7.324219 C 21.996094 6.351562 21.210938 5.566406 20.234375 5.566406 L 14.25 5.566406 C 13.023438 5.566406 12.023438 4.585938 12 3.363281 C 12.019531 2.117188 11.027344 1.089844 9.78125 1.066406 L 1.164062 1.066406 C 0.519531 1.066406 0 1.585938 0 2.226562 L 0 8.050781 L 22 8.050781 Z M 22 7.324219 "/>
<path style=" stroke:none;fill-rule:nonzero;fill:url(#linear1);" d="M 20.234375 6.433594 L 1.765625 6.433594 C 0.789062 6.433594 0 7.226562 0 8.199219 L 0 19.175781 C 0.00390625 20.148438 0.789062 20.933594 1.765625 20.933594 L 20.234375 20.933594 C 21.210938 20.933594 21.996094 20.148438 22 19.175781 L 22 8.199219 C 22 7.226562 21.210938 6.433594 20.234375 6.433594 Z M 20.234375 6.433594 "/>
<path style=" stroke:none;fill-rule:nonzero;fill:url(#linear2);" d="M 8.839844 16.933594 C 8.714844 16.933594 8.601562 16.878906 8.519531 16.789062 L 6.132812 14.066406 C 5.996094 13.90625 5.996094 13.671875 6.132812 13.511719 L 8.539062 10.789062 C 8.628906 10.648438 8.792969 10.570312 8.957031 10.597656 C 9.125 10.621094 9.257812 10.742188 9.300781 10.90625 C 9.34375 11.070312 9.285156 11.242188 9.148438 11.34375 L 7.007812 13.789062 L 9.148438 16.238281 C 9.230469 16.324219 9.269531 16.433594 9.261719 16.550781 C 9.253906 16.664062 9.203125 16.769531 9.113281 16.84375 C 9.035156 16.90625 8.9375 16.9375 8.839844 16.933594 Z M 8.839844 16.933594 "/>
<path style=" stroke:none;fill-rule:nonzero;fill:url(#linear3);" d="M 13.160156 16.933594 C 13.0625 16.933594 12.964844 16.894531 12.886719 16.832031 C 12.804688 16.757812 12.75 16.652344 12.746094 16.542969 C 12.738281 16.429688 12.773438 16.320312 12.851562 16.238281 L 14.992188 13.789062 L 12.851562 11.34375 C 12.742188 11.230469 12.703125 11.070312 12.75 10.925781 C 12.796875 10.777344 12.921875 10.667969 13.074219 10.640625 C 13.226562 10.613281 13.382812 10.667969 13.480469 10.789062 L 15.867188 13.511719 C 16.003906 13.671875 16.003906 13.90625 15.867188 14.066406 L 13.480469 16.789062 C 13.398438 16.878906 13.285156 16.933594 13.160156 16.933594 Z M 13.160156 16.933594 "/>
<path style=" stroke:none;fill-rule:nonzero;fill:url(#linear4);" d="M 10.050781 17.027344 C 10.003906 17.03125 9.960938 17.023438 9.917969 17.003906 C 9.699219 16.933594 9.578125 16.695312 9.652344 16.476562 L 11.554688 10.839844 C 11.636719 10.632812 11.863281 10.527344 12.074219 10.597656 C 12.285156 10.667969 12.402344 10.890625 12.347656 11.101562 L 10.445312 16.746094 C 10.390625 16.914062 10.230469 17.03125 10.050781 17.027344 Z M 10.050781 17.027344 "/>
</g>
</svg>
