
<svg xmlns="http://www.w3.org/2000/svg" xmlns:xlink="http://www.w3.org/1999/xlink" width="22px" height="22px" viewBox="0 0 22 22" version="1.1">
<defs>
<linearGradient id="linear0" gradientUnits="userSpaceOnUse" x1="32" y1="3.8" x2="32" y2="23.49" gradientTransform="matrix(0.34375,0,0,0.34375,0,0)">
<stop offset="0" style="stop-color:rgb(16.078432%,71.372551%,96.470588%);stop-opacity:1;"/>
<stop offset="0.67" style="stop-color:rgb(39.607844%,45.09804%,82.745099%);stop-opacity:1;"/>
<stop offset="1" style="stop-color:rgb(49.411765%,34.117648%,76.862746%);stop-opacity:1;"/>
</linearGradient>
<linearGradient id="linear1" gradientUnits="userSpaceOnUse" x1="32" y1="60.900002" x2="32" y2="18.719999" gradientTransform="matrix(0.34375,0,0,0.34375,0,0)">
<stop offset="0" style="stop-color:rgb(86.274511%,87.058824%,88.627452%);stop-opacity:1;"/>
<stop offset="0.57" style="stop-color:rgb(87.058824%,87.843138%,89.411765%);stop-opacity:1;"/>
<stop offset="0.81" style="stop-color:rgb(89.803922%,90.588236%,91.764706%);stop-opacity:1;"/>
<stop offset="0.99" style="stop-color:rgb(94.901961%,95.294118%,95.686275%);stop-opacity:1;"/>
<stop offset="1" style="stop-color:rgb(95.294118%,95.686275%,96.078432%);stop-opacity:1;"/>
</linearGradient>
<linearGradient id="linear2" gradientUnits="userSpaceOnUse" x1="29.32" y1="51.639999" x2="29.32" y2="28.209999" gradientTransform="matrix(0.34375,0,0,0.34375,0,0)">
<stop offset="0" style="stop-color:rgb(75.294119%,75.294119%,75.294119%);stop-opacity:1;"/>
<stop offset="1" style="stop-color:rgb(55.686277%,55.686277%,55.686277%);stop-opacity:1;"/>
</linearGradient>
<linearGradient id="linear3" gradientUnits="userSpaceOnUse" x1="30.58" y1="51.639999" x2="30.58" y2="28.209999" gradientTransform="matrix(0.34375,0,0,0.34375,0,0)">
<stop offset="0" style="stop-color:rgb(75.294119%,75.294119%,75.294119%);stop-opacity:1;"/>
<stop offset="1" style="stop-color:rgb(55.686277%,55.686277%,55.686277%);stop-opacity:1;"/>
</linearGradient>
<linearGradient id="linear4" gradientUnits="userSpaceOnUse" x1="33.419998" y1="51.639999" x2="33.419998" y2="28.209999" gradientTransform="matrix(0.34375,0,0,0.34375,0,0)">
<stop offset="0" style="stop-color:rgb(75.294119%,75.294119%,75.294119%);stop-opacity:1;"/>
<stop offset="1" style="stop-color:rgb(55.686277%,55.686277%,55.686277%);stop-opacity:1;"/>
</linearGradient>
<linearGradient id="linear5" gradientUnits="userSpaceOnUse" x1="30.58" y1="51.639999" x2="30.58" y2="28.209999" gradientTransform="matrix(0.34375,0,0,0.34375,0,0)">
<stop offset="0" style="stop-color:rgb(75.294119%,75.294119%,75.294119%);stop-opacity:1;"/>
<stop offset="1" style="stop-color:rgb(55.686277%,55.686277%,55.686277%);stop-opacity:1;"/>
</linearGradient>
<linearGradient id="linear6" gradientUnits="userSpaceOnUse" x1="30.58" y1="51.639999" x2="30.58" y2="28.209999" gradientTransform="matrix(0.34375,0,0,0.34375,0,0)">
<stop offset="0" style="stop-color:rgb(75.294119%,75.294119%,75.294119%);stop-opacity:1;"/>
<stop offset="1" style="stop-color:rgb(55.686277%,55.686277%,55.686277%);stop-opacity:1;"/>
</linearGradient>
<linearGradient id="linear7" gradientUnits="userSpaceOnUse" x1="30.58" y1="51.639999" x2="30.58" y2="28.209999" gradientTransform="matrix(0.34375,0,0,0.34375,0,0)">
<stop offset="0" style="stop-color:rgb(75.294119%,75.294119%,75.294119%);stop-opacity:1;"/>
<stop offset="1" style="stop-color:rgb(55.686277%,55.686277%,55.686277%);stop-opacity:1;"/>
</linearGradient>
<linearGradient id="linear8" gradientUnits="userSpaceOnUse" x1="29.08" y1="51.639999" x2="29.08" y2="28.209999" gradientTransform="matrix(0.34375,0,0,0.34375,0,0)">
<stop offset="0" style="stop-color:rgb(75.294119%,75.294119%,75.294119%);stop-opacity:1;"/>
<stop offset="1" style="stop-color:rgb(55.686277%,55.686277%,55.686277%);stop-opacity:1;"/>
</linearGradient>
<linearGradient id="linear9" gradientUnits="userSpaceOnUse" x1="33.59" y1="51.639999" x2="33.59" y2="28.209999" gradientTransform="matrix(0.34375,0,0,0.34375,0,0)">
<stop offset="0" style="stop-color:rgb(75.294119%,75.294119%,75.294119%);stop-opacity:1;"/>
<stop offset="1" style="stop-color:rgb(55.686277%,55.686277%,55.686277%);stop-opacity:1;"/>
</linearGradient>
<linearGradient id="linear10" gradientUnits="userSpaceOnUse" x1="27.57" y1="51.639999" x2="27.57" y2="28.209999" gradientTransform="matrix(0.34375,0,0,0.34375,0,0)">
<stop offset="0" style="stop-color:rgb(75.294119%,75.294119%,75.294119%);stop-opacity:1;"/>
<stop offset="1" style="stop-color:rgb(55.686277%,55.686277%,55.686277%);stop-opacity:1;"/>
</linearGradient>
</defs>
<g id="surface1">
<path style=" stroke:none;fill-rule:nonzero;fill:url(#linear0);" d="M 22 7.324219 C 21.996094 6.351562 21.210938 5.566406 20.234375 5.566406 L 14.25 5.566406 C 13.023438 5.566406 12.023438 4.585938 12 3.363281 C 12.019531 2.117188 11.027344 1.089844 9.78125 1.066406 L 1.164062 1.066406 C 0.519531 1.066406 0 1.585938 0 2.226562 L 0 8.050781 L 22 8.050781 Z M 22 7.324219 "/>
<path style=" stroke:none;fill-rule:nonzero;fill:url(#linear1);" d="M 20.234375 6.433594 L 1.765625 6.433594 C 0.789062 6.433594 0 7.226562 0 8.199219 L 0 19.175781 C 0.00390625 20.148438 0.789062 20.933594 1.765625 20.933594 L 20.234375 20.933594 C 21.210938 20.933594 21.996094 20.148438 22 19.175781 L 22 8.199219 C 22 7.226562 21.210938 6.433594 20.234375 6.433594 Z M 20.234375 6.433594 "/>
<path style=" stroke:none;fill-rule:nonzero;fill:url(#linear2);" d="M 9.921875 9.886719 C 9.789062 9.886719 9.683594 9.992188 9.683594 10.125 C 9.683594 10.253906 9.789062 10.359375 9.921875 10.359375 L 10.472656 10.359375 C 10.460938 10.28125 10.453125 10.203125 10.453125 10.125 C 10.453125 10.042969 10.460938 9.964844 10.472656 9.886719 Z M 9.921875 9.886719 "/>
<path style=" stroke:none;fill-rule:nonzero;fill:url(#linear3);" d="M 13.46875 16.917969 L 13.46875 10.125 C 13.46875 9.992188 13.363281 9.886719 13.230469 9.886719 L 11.992188 9.886719 C 11.859375 9.886719 11.753906 9.992188 11.753906 10.125 C 11.753906 10.253906 11.859375 10.359375 11.992188 10.359375 L 12.992188 10.359375 L 12.992188 16.683594 L 8.03125 16.683594 L 8.03125 10.359375 L 8.402344 10.359375 C 8.390625 10.28125 8.386719 10.203125 8.382812 10.125 C 8.382812 10.042969 8.390625 9.964844 8.402344 9.886719 L 7.792969 9.886719 C 7.660156 9.886719 7.554688 9.992188 7.554688 10.125 L 7.554688 16.917969 C 7.554688 17.050781 7.660156 17.15625 7.792969 17.15625 L 13.230469 17.15625 C 13.363281 17.15625 13.46875 17.050781 13.46875 16.917969 Z M 13.46875 16.917969 "/>
<path style=" stroke:none;fill-rule:nonzero;fill:url(#linear4);" d="M 14.207031 10.863281 C 14.078125 10.863281 13.96875 10.96875 13.96875 11.097656 L 13.96875 17.65625 L 8.769531 17.65625 C 8.636719 17.65625 8.53125 17.765625 8.53125 17.894531 C 8.53125 18.027344 8.636719 18.132812 8.769531 18.132812 L 14.207031 18.132812 C 14.339844 18.132812 14.445312 18.027344 14.445312 17.894531 L 14.445312 11.097656 C 14.445312 10.96875 14.339844 10.863281 14.207031 10.863281 Z M 14.207031 10.863281 "/>
<path style=" stroke:none;fill-rule:nonzero;fill:url(#linear5);" d="M 9.035156 12.488281 L 11.992188 12.488281 C 12.121094 12.488281 12.226562 12.382812 12.226562 12.25 C 12.226562 12.121094 12.121094 12.015625 11.992188 12.015625 L 9.035156 12.015625 C 8.902344 12.015625 8.796875 12.121094 8.796875 12.25 C 8.796875 12.382812 8.902344 12.488281 9.035156 12.488281 Z M 9.035156 12.488281 "/>
<path style=" stroke:none;fill-rule:nonzero;fill:url(#linear6);" d="M 9.035156 13.550781 L 11.992188 13.550781 C 12.121094 13.550781 12.226562 13.445312 12.226562 13.3125 C 12.226562 13.25 12.203125 13.191406 12.15625 13.148438 C 12.113281 13.101562 12.050781 13.078125 11.992188 13.078125 L 9.035156 13.078125 C 8.972656 13.078125 8.910156 13.101562 8.867188 13.148438 C 8.820312 13.191406 8.796875 13.25 8.796875 13.3125 C 8.796875 13.445312 8.902344 13.550781 9.035156 13.550781 Z M 9.035156 13.550781 "/>
<path style=" stroke:none;fill-rule:nonzero;fill:url(#linear7);" d="M 9.035156 14.617188 L 11.992188 14.617188 C 12.121094 14.617188 12.226562 14.511719 12.226562 14.378906 C 12.226562 14.25 12.121094 14.140625 11.992188 14.140625 L 9.035156 14.140625 C 8.902344 14.140625 8.796875 14.25 8.796875 14.378906 C 8.796875 14.511719 8.902344 14.617188 9.035156 14.617188 Z M 9.035156 14.617188 "/>
<path style=" stroke:none;fill-rule:nonzero;fill:url(#linear8);" d="M 9.035156 15.679688 L 10.960938 15.679688 C 11.023438 15.679688 11.085938 15.652344 11.128906 15.609375 C 11.171875 15.5625 11.195312 15.503906 11.195312 15.441406 C 11.195312 15.378906 11.171875 15.320312 11.128906 15.273438 C 11.085938 15.230469 11.023438 15.207031 10.960938 15.207031 L 9.035156 15.207031 C 8.972656 15.207031 8.910156 15.230469 8.867188 15.273438 C 8.820312 15.316406 8.796875 15.378906 8.796875 15.441406 C 8.796875 15.570312 8.902344 15.679688 9.035156 15.679688 Z M 9.035156 15.679688 "/>
<path style=" stroke:none;fill-rule:nonzero;fill:url(#linear9);" d="M 11.992188 11.246094 C 12.121094 11.246094 12.226562 11.140625 12.226562 11.011719 C 12.226562 10.878906 12.121094 10.773438 11.992188 10.773438 C 11.722656 10.773438 11.484375 10.609375 11.382812 10.359375 C 11.355469 10.285156 11.339844 10.203125 11.339844 10.125 C 11.339844 10.042969 11.355469 9.960938 11.382812 9.886719 C 11.484375 9.636719 11.722656 9.476562 11.992188 9.472656 C 12.121094 9.472656 12.226562 9.367188 12.226562 9.234375 C 12.226562 9.105469 12.121094 9 11.992188 9 C 11.460938 9 11.003906 9.367188 10.894531 9.886719 C 10.875 9.964844 10.867188 10.042969 10.867188 10.125 C 10.871094 10.742188 11.371094 11.242188 11.992188 11.246094 Z M 11.992188 11.246094 "/>
<path style=" stroke:none;fill-rule:nonzero;fill:url(#linear10);" d="M 9.921875 11.246094 C 10.050781 11.246094 10.15625 11.140625 10.15625 11.011719 C 10.15625 10.878906 10.050781 10.773438 9.921875 10.773438 C 9.652344 10.773438 9.414062 10.609375 9.316406 10.359375 C 9.285156 10.285156 9.273438 10.203125 9.269531 10.125 C 9.273438 10.042969 9.285156 9.960938 9.316406 9.886719 C 9.414062 9.636719 9.652344 9.476562 9.921875 9.472656 C 10.050781 9.472656 10.15625 9.367188 10.15625 9.234375 C 10.15625 9.105469 10.050781 9 9.921875 9 C 9.394531 9 8.9375 9.371094 8.824219 9.886719 C 8.804688 9.964844 8.796875 10.042969 8.796875 10.125 C 8.800781 10.742188 9.300781 11.242188 9.921875 11.246094 Z M 9.921875 11.246094 "/>
</g>
</svg>
