
<svg xmlns="http://www.w3.org/2000/svg" xmlns:xlink="http://www.w3.org/1999/xlink" width="22px" height="22px" viewBox="0 0 22 22" version="1.1">
<defs>
<linearGradient id="linear0" gradientUnits="userSpaceOnUse" x1="-26.201" y1="1070.199951" x2="-26.201" y2="1082.599976" gradientTransform="matrix(0.243529,0,0,0.243529,11.991091,-258.141059)">
<stop offset="0" style="stop-color:rgb(99.215686%,47.058824%,47.058824%);stop-opacity:1;"/>
<stop offset="1" style="stop-color:rgb(100%,48.235294%,48.235294%);stop-opacity:1;"/>
</linearGradient>
<linearGradient id="linear1" gradientUnits="userSpaceOnUse" x1="-9.912" y1="1081.400024" x2="-9.912" y2="1139.800049" gradientTransform="matrix(0.243529,0,0,0.243529,11.991091,-258.141059)">
<stop offset="0" style="stop-color:rgb(99.215686%,30.980393%,30.980393%);stop-opacity:1;"/>
<stop offset="0.5" style="stop-color:rgb(100%,34.901962%,34.901962%);stop-opacity:1;"/>
<stop offset="1" style="stop-color:rgb(96.470588%,30.19608%,30.19608%);stop-opacity:1;"/>
</linearGradient>
<filter id="alpha" filterUnits="objectBoundingBox" x="0%" y="0%" width="100%" height="100%">
  <feColorMatrix type="matrix" in="SourceGraphic" values="0 0 0 0 1 0 0 0 0 1 0 0 0 0 1 0 0 0 1 0"/>
</filter>
<mask id="mask0">
  <g filter="url(#alpha)">
<rect x="0" y="0" width="22" height="22" style="fill:rgb(0%,0%,0%);fill-opacity:0.08;stroke:none;"/>
  </g>
</mask>
<clipPath id="clip1">
  <rect x="0" y="0" width="22" height="22"/>
</clipPath>
<g id="surface5" clip-path="url(#clip1)">
<path style=" stroke:none;fill-rule:nonzero;fill:rgb(0%,0%,0%);fill-opacity:1;" d="M 0.292969 18.039062 L 0.292969 18.285156 L 21.707031 18.285156 L 21.707031 18.039062 Z M 0.292969 18.574219 L 0.292969 18.707031 C 0.292969 18.746094 0.296875 18.78125 0.300781 18.820312 L 21.703125 18.820312 C 21.707031 18.78125 21.710938 18.746094 21.710938 18.707031 L 21.710938 18.574219 Z M 0.292969 18.574219 "/>
</g>
<mask id="mask1">
  <g filter="url(#alpha)">
<rect x="0" y="0" width="22" height="22" style="fill:rgb(0%,0%,0%);fill-opacity:0.25;stroke:none;"/>
  </g>
</mask>
<linearGradient id="linear2" gradientUnits="userSpaceOnUse" x1="-9.617" y1="1138.400024" x2="-9.617" y2="1140.199951" gradientTransform="matrix(0.243529,0,0,0.243529,11.991091,-258.141059)">
<stop offset="0" style="stop-color:rgb(0%,0%,0%);stop-opacity:0.046784;"/>
<stop offset="1" style="stop-color:rgb(0%,0%,0%);stop-opacity:1;"/>
</linearGradient>
<clipPath id="clip2">
  <rect x="0" y="0" width="22" height="22"/>
</clipPath>
<g id="surface8" clip-path="url(#clip2)">
<path style=" stroke:none;fill-rule:nonzero;fill:url(#linear2);" d="M 0.363281 19.042969 C 0.492188 19.332031 0.777344 19.515625 1.09375 19.515625 L 20.910156 19.515625 C 21.238281 19.515625 21.515625 19.324219 21.640625 19.042969 Z M 0.363281 19.042969 "/>
</g>
<mask id="mask2">
  <g filter="url(#alpha)">
<rect x="0" y="0" width="22" height="22" style="fill:rgb(0%,0%,0%);fill-opacity:0.15;stroke:none;"/>
  </g>
</mask>
<clipPath id="clip3">
  <rect x="0" y="0" width="22" height="22"/>
</clipPath>
<g id="surface11" clip-path="url(#clip3)">
<path style=" stroke:none;fill-rule:nonzero;fill:rgb(0%,0%,0%);fill-opacity:1;" d="M 11.09375 7.824219 C 11.03125 7.824219 10.964844 7.847656 10.90625 7.882812 L 10.574219 8.074219 C 10.472656 8.132812 10.402344 8.230469 10.371094 8.34375 C 10.339844 8.457031 10.355469 8.578125 10.417969 8.679688 L 13.28125 13.683594 L 14.332031 12.976562 L 11.507812 8.050781 C 11.429688 7.917969 11.300781 7.835938 11.160156 7.824219 C 11.136719 7.820312 11.117188 7.824219 11.09375 7.824219 Z M 10.082031 9.53125 C 9.9375 9.542969 9.804688 9.617188 9.726562 9.75 L 9.4375 10.25 L 10.527344 10.882812 L 10.816406 10.386719 C 10.875 10.285156 10.894531 10.164062 10.863281 10.050781 C 10.832031 9.933594 10.761719 9.839844 10.660156 9.777344 L 10.335938 9.589844 C 10.257812 9.542969 10.167969 9.523438 10.082031 9.527344 Z M 9.253906 10.574219 L 6.785156 14.894531 L 7.875 15.523438 L 10.347656 11.210938 Z M 5.648438 12.511719 L 5.648438 13.785156 L 7.109375 13.785156 L 7.835938 12.511719 Z M 9.914062 12.511719 L 9.191406 13.785156 L 13.027344 13.785156 L 12.296875 12.511719 Z M 14.378906 12.511719 L 15.109375 13.785156 L 16.460938 13.785156 L 16.460938 12.511719 Z M 14.519531 13.300781 L 13.46875 14.007812 L 13.996094 14.925781 L 15.042969 14.21875 Z M 15.234375 14.550781 L 14.183594 15.257812 C 14.214844 16.519531 15.171875 16.363281 15.539062 17.152344 C 16.238281 16.402344 16.027344 15.25 15.234375 14.550781 Z M 6.597656 15.222656 L 6.023438 17.285156 L 7.6875 15.855469 Z M 6.597656 15.222656 "/>
</g>
</defs>
<g id="surface1">
<path style=" stroke:none;fill-rule:nonzero;fill:url(#linear0);" d="M 1.089844 2.484375 L 6.480469 2.484375 C 7.28125 2.484375 7.613281 4.207031 8.363281 4.207031 L 20.910156 4.207031 C 21.121094 4.207031 21.324219 4.289062 21.476562 4.4375 C 21.625 4.589844 21.707031 4.792969 21.707031 5.003906 L 21.707031 17.304688 C 21.707031 17.75 21.351562 16.8125 20.910156 16.8125 L 1.089844 16.8125 C 0.878906 16.8125 0.675781 16.730469 0.523438 16.578125 C 0.375 16.429688 0.289062 16.226562 0.289062 16.015625 L 0.289062 3.285156 C 0.289062 3.070312 0.375 2.867188 0.523438 2.71875 C 0.675781 2.566406 0.878906 2.484375 1.089844 2.484375 Z M 1.089844 2.484375 "/>
<path style=" stroke:none;fill-rule:nonzero;fill:url(#linear1);" d="M 1.089844 5.1875 L 20.910156 5.1875 C 21.121094 5.1875 21.324219 5.269531 21.472656 5.421875 C 21.625 5.570312 21.707031 5.773438 21.707031 5.988281 L 21.707031 18.71875 C 21.707031 18.929688 21.625 19.132812 21.472656 19.28125 C 21.324219 19.433594 21.121094 19.515625 20.910156 19.515625 L 1.089844 19.515625 C 0.878906 19.515625 0.675781 19.433594 0.523438 19.28125 C 0.375 19.132812 0.289062 18.929688 0.289062 18.71875 L 0.289062 5.988281 C 0.289062 5.773438 0.375 5.570312 0.523438 5.421875 C 0.675781 5.269531 0.878906 5.1875 1.089844 5.1875 Z M 1.089844 5.1875 "/>
<use xlink:href="#surface5" mask="url(#mask0)"/>
<use xlink:href="#surface8" mask="url(#mask1)"/>
<use xlink:href="#surface11" mask="url(#mask2)"/>
</g>
</svg>
