
<svg xmlns="http://www.w3.org/2000/svg" xmlns:xlink="http://www.w3.org/1999/xlink" width="22px" height="22px" viewBox="0 0 22 22" version="1.1">
<defs>
<linearGradient id="linear0" gradientUnits="userSpaceOnUse" x1="32" y1="3.8" x2="32" y2="23.49" gradientTransform="matrix(0.34375,0,0,0.34375,0,0)">
<stop offset="0" style="stop-color:rgb(16.078432%,71.372551%,96.470588%);stop-opacity:1;"/>
<stop offset="0.67" style="stop-color:rgb(39.607844%,45.09804%,82.745099%);stop-opacity:1;"/>
<stop offset="1" style="stop-color:rgb(49.411765%,34.117648%,76.862746%);stop-opacity:1;"/>
</linearGradient>
<linearGradient id="linear1" gradientUnits="userSpaceOnUse" x1="32" y1="60.900002" x2="32" y2="18.719999" gradientTransform="matrix(0.34375,0,0,0.34375,0,0)">
<stop offset="0" style="stop-color:rgb(86.274511%,87.058824%,88.627452%);stop-opacity:1;"/>
<stop offset="0.57" style="stop-color:rgb(87.058824%,87.843138%,89.411765%);stop-opacity:1;"/>
<stop offset="0.81" style="stop-color:rgb(89.803922%,90.588236%,91.764706%);stop-opacity:1;"/>
<stop offset="0.99" style="stop-color:rgb(94.901961%,95.294118%,95.686275%);stop-opacity:1;"/>
<stop offset="1" style="stop-color:rgb(95.294118%,95.686275%,96.078432%);stop-opacity:1;"/>
</linearGradient>
<linearGradient id="linear2" gradientUnits="userSpaceOnUse" x1="32" y1="49.650002" x2="32" y2="33.139999" gradientTransform="matrix(0.34375,0,0,0.34375,0,0)">
<stop offset="0" style="stop-color:rgb(75.294119%,75.294119%,75.294119%);stop-opacity:1;"/>
<stop offset="1" style="stop-color:rgb(55.686277%,55.686277%,55.686277%);stop-opacity:1;"/>
</linearGradient>
<linearGradient id="linear3" gradientUnits="userSpaceOnUse" x1="25.940001" y1="49.650002" x2="25.940001" y2="33.139999" gradientTransform="matrix(0.34375,0,0,0.34375,0,0)">
<stop offset="0" style="stop-color:rgb(75.294119%,75.294119%,75.294119%);stop-opacity:1;"/>
<stop offset="1" style="stop-color:rgb(55.686277%,55.686277%,55.686277%);stop-opacity:1;"/>
</linearGradient>
<linearGradient id="linear4" gradientUnits="userSpaceOnUse" x1="25.940001" y1="49.650002" x2="25.940001" y2="33.139999" gradientTransform="matrix(0.34375,0,0,0.34375,0,0)">
<stop offset="0" style="stop-color:rgb(75.294119%,75.294119%,75.294119%);stop-opacity:1;"/>
<stop offset="1" style="stop-color:rgb(55.686277%,55.686277%,55.686277%);stop-opacity:1;"/>
</linearGradient>
<linearGradient id="linear5" gradientUnits="userSpaceOnUse" x1="25.940001" y1="49.650002" x2="25.940001" y2="33.139999" gradientTransform="matrix(0.34375,0,0,0.34375,0,0)">
<stop offset="0" style="stop-color:rgb(75.294119%,75.294119%,75.294119%);stop-opacity:1;"/>
<stop offset="1" style="stop-color:rgb(55.686277%,55.686277%,55.686277%);stop-opacity:1;"/>
</linearGradient>
<linearGradient id="linear6" gradientUnits="userSpaceOnUse" x1="25.940001" y1="49.650002" x2="25.940001" y2="33.139999" gradientTransform="matrix(0.34375,0,0,0.34375,0,0)">
<stop offset="0" style="stop-color:rgb(75.294119%,75.294119%,75.294119%);stop-opacity:1;"/>
<stop offset="1" style="stop-color:rgb(55.686277%,55.686277%,55.686277%);stop-opacity:1;"/>
</linearGradient>
</defs>
<g id="surface1">
<path style=" stroke:none;fill-rule:nonzero;fill:url(#linear0);" d="M 22 7.324219 C 21.996094 6.351562 21.210938 5.566406 20.234375 5.566406 L 14.25 5.566406 C 13.023438 5.566406 12.023438 4.585938 12 3.363281 C 12.019531 2.117188 11.027344 1.089844 9.78125 1.066406 L 1.164062 1.066406 C 0.519531 1.066406 0 1.585938 0 2.226562 L 0 8.050781 L 22 8.050781 Z M 22 7.324219 "/>
<path style=" stroke:none;fill-rule:nonzero;fill:url(#linear1);" d="M 20.234375 6.433594 L 1.765625 6.433594 C 0.789062 6.433594 0 7.226562 0 8.199219 L 0 19.175781 C 0.00390625 20.148438 0.789062 20.933594 1.765625 20.933594 L 20.234375 20.933594 C 21.210938 20.933594 21.996094 20.148438 22 19.175781 L 22 8.199219 C 22 7.226562 21.210938 6.433594 20.234375 6.433594 Z M 20.234375 6.433594 "/>
<path style=" stroke:none;fill-rule:nonzero;fill:url(#linear2);" d="M 15.390625 11.578125 C 15.003906 11.417969 14.605469 11.292969 14.195312 11.207031 L 14.195312 9.488281 C 14.195312 9.421875 14.164062 9.359375 14.113281 9.316406 C 14.0625 9.273438 13.996094 9.257812 13.933594 9.269531 C 12.328125 9.550781 11.238281 10.988281 10.910156 11.492188 C 8.289062 10.496094 6.640625 11.535156 6.570312 11.582031 C 6.507812 11.621094 6.46875 11.695312 6.46875 11.769531 L 6.46875 17.070312 C 6.472656 17.152344 6.515625 17.226562 6.585938 17.265625 C 6.65625 17.304688 6.742188 17.300781 6.8125 17.261719 C 6.8125 17.261719 8.417969 16.261719 10.910156 17.261719 L 11.070312 17.261719 C 11.070312 17.261719 12.679688 16.261719 15.171875 17.261719 C 15.195312 17.273438 15.226562 17.277344 15.257812 17.277344 C 15.300781 17.277344 15.34375 17.261719 15.378906 17.238281 C 15.441406 17.199219 15.480469 17.128906 15.480469 17.054688 L 15.480469 11.785156 C 15.488281 11.707031 15.457031 11.625 15.390625 11.578125 Z M 10.777344 16.734375 C 10.117188 16.488281 9.417969 16.363281 8.714844 16.355469 C 8.101562 16.347656 7.496094 16.464844 6.929688 16.699219 L 6.929688 11.917969 C 7.3125 11.726562 8.726562 11.152344 10.789062 11.9375 Z M 15.078125 16.734375 C 14.421875 16.488281 13.722656 16.363281 13.015625 16.355469 C 12.554688 16.351562 12.089844 16.414062 11.640625 16.546875 C 12.121094 15.972656 12.945312 15.1875 14 15 C 14.109375 14.984375 14.195312 14.894531 14.195312 14.78125 L 14.195312 11.6875 C 14.496094 11.753906 14.792969 11.84375 15.078125 11.957031 Z M 15.078125 16.734375 "/>
<path style=" stroke:none;fill-rule:nonzero;fill:url(#linear3);" d="M 7.507812 12.402344 C 7.394531 12.453125 7.34375 12.585938 7.394531 12.699219 C 7.445312 12.8125 7.578125 12.863281 7.6875 12.8125 C 8.496094 12.539062 9.371094 12.582031 10.148438 12.925781 C 10.175781 12.929688 10.203125 12.929688 10.234375 12.925781 C 10.324219 12.910156 10.398438 12.839844 10.417969 12.746094 C 10.433594 12.652344 10.394531 12.5625 10.3125 12.511719 C 9.425781 12.113281 8.421875 12.074219 7.507812 12.402344 Z M 7.507812 12.402344 "/>
<path style=" stroke:none;fill-rule:nonzero;fill:url(#linear4);" d="M 10.3125 13.519531 C 9.429688 13.117188 8.421875 13.078125 7.507812 13.40625 C 7.453125 13.429688 7.410156 13.472656 7.386719 13.53125 C 7.367188 13.585938 7.367188 13.648438 7.394531 13.703125 C 7.445312 13.8125 7.578125 13.863281 7.6875 13.816406 C 8.492188 13.539062 9.371094 13.582031 10.148438 13.929688 C 10.175781 13.9375 10.203125 13.945312 10.234375 13.945312 C 10.324219 13.949219 10.40625 13.890625 10.4375 13.804688 C 10.480469 13.691406 10.425781 13.566406 10.3125 13.519531 Z M 10.3125 13.519531 "/>
<path style=" stroke:none;fill-rule:nonzero;fill:url(#linear5);" d="M 10.3125 14.53125 C 9.425781 14.140625 8.417969 14.105469 7.507812 14.4375 C 7.394531 14.488281 7.34375 14.621094 7.394531 14.734375 C 7.445312 14.847656 7.578125 14.898438 7.6875 14.847656 C 8.496094 14.574219 9.371094 14.617188 10.148438 14.964844 C 10.175781 14.972656 10.203125 14.980469 10.234375 14.980469 C 10.359375 15.003906 10.476562 14.917969 10.496094 14.792969 C 10.519531 14.671875 10.4375 14.550781 10.3125 14.53125 Z M 10.3125 14.53125 "/>
<path style=" stroke:none;fill-rule:nonzero;fill:url(#linear6);" d="M 10.3125 15.539062 C 9.425781 15.136719 8.417969 15.101562 7.5 15.429688 C 7.445312 15.457031 7.402344 15.5 7.382812 15.554688 C 7.359375 15.609375 7.363281 15.671875 7.386719 15.726562 C 7.4375 15.839844 7.570312 15.886719 7.683594 15.839844 C 8.488281 15.566406 9.363281 15.609375 10.140625 15.953125 C 10.167969 15.964844 10.195312 15.972656 10.226562 15.972656 C 10.316406 15.972656 10.398438 15.917969 10.433594 15.832031 C 10.480469 15.71875 10.425781 15.585938 10.3125 15.539062 Z M 10.3125 15.539062 "/>
</g>
</svg>
