
<svg xmlns="http://www.w3.org/2000/svg" xmlns:xlink="http://www.w3.org/1999/xlink" width="22px" height="22px" viewBox="0 0 22 22" version="1.1">
<defs>
<linearGradient id="linear0" gradientUnits="userSpaceOnUse" x1="32" y1="60.27" x2="32" y2="4.37" gradientTransform="matrix(0.34375,0,0,0.34375,0,0)">
<stop offset="0" style="stop-color:rgb(92.54902%,25.098041%,47.843137%);stop-opacity:1;"/>
<stop offset="1" style="stop-color:rgb(49.411765%,34.117648%,76.862746%);stop-opacity:1;"/>
</linearGradient>
<linearGradient id="linear1" gradientUnits="userSpaceOnUse" x1="26.83" y1="31.6" x2="28.940001" y2="38.82" gradientTransform="matrix(0.34375,0,0,0.34375,0,0)">
<stop offset="0" style="stop-color:rgb(86.274511%,87.058824%,88.627452%);stop-opacity:1;"/>
<stop offset="0.57" style="stop-color:rgb(87.058824%,87.843138%,89.411765%);stop-opacity:1;"/>
<stop offset="0.81" style="stop-color:rgb(89.803922%,90.588236%,91.764706%);stop-opacity:1;"/>
<stop offset="0.99" style="stop-color:rgb(94.901961%,95.294118%,95.686275%);stop-opacity:1;"/>
<stop offset="1" style="stop-color:rgb(95.294118%,95.686275%,96.078432%);stop-opacity:1;"/>
</linearGradient>
<linearGradient id="linear2" gradientUnits="userSpaceOnUse" x1="35.669998" y1="31.6" x2="37.779999" y2="38.82" gradientTransform="matrix(0.34375,0,0,0.34375,0,0)">
<stop offset="0" style="stop-color:rgb(86.274511%,87.058824%,88.627452%);stop-opacity:1;"/>
<stop offset="0.57" style="stop-color:rgb(87.058824%,87.843138%,89.411765%);stop-opacity:1;"/>
<stop offset="0.81" style="stop-color:rgb(89.803922%,90.588236%,91.764706%);stop-opacity:1;"/>
<stop offset="0.99" style="stop-color:rgb(94.901961%,95.294118%,95.686275%);stop-opacity:1;"/>
<stop offset="1" style="stop-color:rgb(95.294118%,95.686275%,96.078432%);stop-opacity:1;"/>
</linearGradient>
<linearGradient id="linear3" gradientUnits="userSpaceOnUse" x1="26.83" y1="40.439999" x2="28.940001" y2="47.66" gradientTransform="matrix(0.34375,0,0,0.34375,0,0)">
<stop offset="0" style="stop-color:rgb(86.274511%,87.058824%,88.627452%);stop-opacity:1;"/>
<stop offset="0.57" style="stop-color:rgb(87.058824%,87.843138%,89.411765%);stop-opacity:1;"/>
<stop offset="0.81" style="stop-color:rgb(89.803922%,90.588236%,91.764706%);stop-opacity:1;"/>
<stop offset="0.99" style="stop-color:rgb(94.901961%,95.294118%,95.686275%);stop-opacity:1;"/>
<stop offset="1" style="stop-color:rgb(95.294118%,95.686275%,96.078432%);stop-opacity:1;"/>
</linearGradient>
<linearGradient id="linear4" gradientUnits="userSpaceOnUse" x1="35.669998" y1="40.439999" x2="37.779999" y2="47.66" gradientTransform="matrix(0.34375,0,0,0.34375,0,0)">
<stop offset="0" style="stop-color:rgb(86.274511%,87.058824%,88.627452%);stop-opacity:1;"/>
<stop offset="0.57" style="stop-color:rgb(87.058824%,87.843138%,89.411765%);stop-opacity:1;"/>
<stop offset="0.81" style="stop-color:rgb(89.803922%,90.588236%,91.764706%);stop-opacity:1;"/>
<stop offset="0.99" style="stop-color:rgb(94.901961%,95.294118%,95.686275%);stop-opacity:1;"/>
<stop offset="1" style="stop-color:rgb(95.294118%,95.686275%,96.078432%);stop-opacity:1;"/>
</linearGradient>
</defs>
<g id="surface1">
<path style=" stroke:none;fill-rule:nonzero;fill:url(#linear0);" d="M 17.554688 7.425781 L 12.054688 1.925781 C 11.777344 1.644531 11.402344 1.488281 11.007812 1.488281 C 10.613281 1.488281 10.234375 1.644531 9.957031 1.925781 L 4.457031 7.425781 L 2.242188 9.625 L 2.242188 21.128906 L 19.773438 21.128906 L 19.773438 9.625 Z M 17.554688 7.425781 "/>
<path style=" stroke:none;fill-rule:nonzero;fill:rgb(80.784315%,80.784315%,80.784315%);fill-opacity:1;" d="M 21.285156 12.535156 C 21.09375 12.53125 20.914062 12.457031 20.78125 12.324219 L 11 2.542969 L 1.21875 12.324219 C 0.933594 12.601562 0.480469 12.597656 0.199219 12.3125 C -0.078125 12.027344 -0.0742188 11.570312 0.210938 11.292969 L 10.179688 1.324219 C 10.640625 0.867188 11.382812 0.867188 11.84375 1.324219 L 21.8125 11.292969 C 22.015625 11.496094 22.074219 11.804688 21.964844 12.070312 C 21.855469 12.339844 21.59375 12.515625 21.304688 12.515625 Z M 21.285156 12.535156 "/>
<path style=" stroke:none;fill-rule:nonzero;fill:url(#linear1);" d="M 8.542969 11.0625 L 10.628906 11.0625 L 10.628906 13.148438 L 8.542969 13.148438 Z M 8.542969 11.0625 "/>
<path style=" stroke:none;fill-rule:nonzero;fill:url(#linear2);" d="M 11.582031 11.0625 L 13.667969 11.0625 L 13.667969 13.148438 L 11.582031 13.148438 Z M 11.582031 11.0625 "/>
<path style=" stroke:none;fill-rule:nonzero;fill:url(#linear3);" d="M 8.542969 14.101562 L 10.628906 14.101562 L 10.628906 16.1875 L 8.542969 16.1875 Z M 8.542969 14.101562 "/>
<path style=" stroke:none;fill-rule:nonzero;fill:url(#linear4);" d="M 11.582031 14.101562 L 13.667969 14.101562 L 13.667969 16.1875 L 11.582031 16.1875 Z M 11.582031 14.101562 "/>
</g>
</svg>
