
<svg xmlns="http://www.w3.org/2000/svg" xmlns:xlink="http://www.w3.org/1999/xlink" width="22px" height="22px" viewBox="0 0 22 22" version="1.1">
<defs>
<linearGradient id="linear0" gradientUnits="userSpaceOnUse" x1="32" y1="64" x2="32" y2="44" gradientTransform="matrix(0.34375,0,0,0.34375,0,0)">
<stop offset="0" style="stop-color:rgb(86.27451%,87.058824%,88.627451%);stop-opacity:1;"/>
<stop offset="1" style="stop-color:rgb(95.294118%,95.686275%,96.078431%);stop-opacity:1;"/>
</linearGradient>
<linearGradient id="linear1" gradientUnits="userSpaceOnUse" x1="280.33" y1="250.15" x2="280.33" y2="288.17" gradientTransform="matrix(-0.34375,0.000000000000000042,-0.000000000000000042,-0.34375,107.480313,99.120313)">
<stop offset="0" style="stop-color:rgb(92.54902%,25.098039%,47.843137%);stop-opacity:1;"/>
<stop offset="1" style="stop-color:rgb(49.411765%,34.117647%,76.862745%);stop-opacity:1;"/>
</linearGradient>
</defs>
<g id="surface1">
<path style=" stroke:none;fill-rule:nonzero;fill:rgb(77.647059%,78.431373%,80.784314%);fill-opacity:1;" d="M 1.03125 21.675781 C 0.84375 21.679688 0.664062 21.601562 0.53125 21.46875 C 0.398438 21.335938 0.320312 21.15625 0.324219 20.96875 L 0.324219 14.070312 L 4.308594 6.4375 C 4.464844 6.136719 4.78125 5.945312 5.121094 5.945312 L 16.878906 5.945312 C 17.21875 5.945312 17.535156 6.132812 17.6875 6.4375 L 21.675781 14.070312 L 21.675781 20.96875 C 21.679688 21.15625 21.601562 21.335938 21.46875 21.46875 C 21.335938 21.601562 21.15625 21.679688 20.96875 21.675781 Z M 1.03125 21.675781 "/>
<path style=" stroke:none;fill-rule:nonzero;fill:rgb(87.843137%,88.627451%,89.803922%);fill-opacity:1;" d="M 16.878906 6.269531 C 17.097656 6.269531 17.300781 6.390625 17.402344 6.585938 L 21.355469 14.148438 L 21.355469 20.96875 C 21.355469 21.070312 21.3125 21.167969 21.242188 21.242188 C 21.167969 21.3125 21.070312 21.355469 20.96875 21.355469 L 1.03125 21.355469 C 0.929688 21.355469 0.832031 21.3125 0.757812 21.242188 C 0.6875 21.167969 0.644531 21.070312 0.644531 20.96875 L 0.644531 14.148438 L 4.597656 6.585938 C 4.699219 6.390625 4.902344 6.269531 5.121094 6.269531 L 16.878906 6.269531 M 16.878906 5.621094 L 5.121094 5.621094 C 4.660156 5.621094 4.234375 5.878906 4.023438 6.289062 L 0.0703125 13.851562 L 0 13.992188 L 0 20.96875 C 0 21.539062 0.460938 22 1.03125 22 L 20.96875 22 C 21.539062 22 22 21.539062 22 20.96875 L 22 13.992188 L 21.929688 13.851562 L 17.976562 6.289062 C 17.765625 5.878906 17.339844 5.621094 16.878906 5.621094 Z M 16.878906 5.621094 "/>
<path style=" stroke:none;fill-rule:nonzero;fill:url(#linear0);" d="M 15.214844 14.148438 C 14.824219 14.144531 14.484375 14.421875 14.410156 14.804688 C 14.089844 16.433594 12.660156 17.609375 11 17.609375 C 9.339844 17.609375 7.910156 16.433594 7.589844 14.804688 C 7.515625 14.421875 7.175781 14.144531 6.785156 14.148438 L 0.644531 14.148438 L 0.644531 20.96875 C 0.644531 21.070312 0.6875 21.167969 0.757812 21.242188 C 0.832031 21.3125 0.929688 21.355469 1.03125 21.355469 L 20.96875 21.355469 C 21.070312 21.355469 21.167969 21.3125 21.242188 21.242188 C 21.3125 21.167969 21.355469 21.070312 21.355469 20.96875 L 21.355469 14.148438 Z M 15.214844 14.148438 "/>
<path style=" stroke:none;fill-rule:nonzero;fill:url(#linear1);" d="M 5.460938 5.542969 C 5.597656 5.929688 5.960938 6.1875 6.367188 6.1875 L 7.585938 6.1875 L 7.585938 12.476562 C 7.585938 12.851562 7.882812 13.15625 8.257812 13.164062 L 13.972656 13.164062 C 14.351562 13.164062 14.660156 12.859375 14.660156 12.476562 L 14.660156 6.1875 L 15.882812 6.1875 C 16.292969 6.1875 16.660156 5.933594 16.796875 5.546875 C 16.9375 5.160156 16.816406 4.730469 16.5 4.46875 L 11.757812 0.300781 C 11.578125 0.148438 11.351562 0.0625 11.113281 0.0625 C 10.878906 0.0625 10.652344 0.148438 10.476562 0.300781 L 5.726562 4.46875 C 5.417969 4.734375 5.3125 5.167969 5.460938 5.542969 Z M 5.460938 5.542969 "/>
</g>
</svg>
