
<svg xmlns="http://www.w3.org/2000/svg" xmlns:xlink="http://www.w3.org/1999/xlink" width="22px" height="22px" viewBox="0 0 22 22" version="1.1">
<defs>
<linearGradient id="linear0" gradientUnits="userSpaceOnUse" x1="32" y1="61.93" x2="32" y2="41.93" gradientTransform="matrix(0.34375,0,0,0.34375,0,0)">
<stop offset="0" style="stop-color:rgb(86.27451%,87.058824%,88.627451%);stop-opacity:1;"/>
<stop offset="1" style="stop-color:rgb(95.294118%,95.686275%,96.078431%);stop-opacity:1;"/>
</linearGradient>
<linearGradient id="linear1" gradientUnits="userSpaceOnUse" x1="32.33" y1="2.07" x2="32.33" y2="40.1" gradientTransform="matrix(0.34375,0,0,0.34375,0,0)">
<stop offset="0" style="stop-color:rgb(16.078431%,71.372549%,96.470588%);stop-opacity:1;"/>
<stop offset="0.67" style="stop-color:rgb(39.607843%,45.098039%,82.745098%);stop-opacity:1;"/>
<stop offset="1" style="stop-color:rgb(49.411765%,34.117647%,76.862745%);stop-opacity:1;"/>
</linearGradient>
</defs>
<g id="surface1">
<path style=" stroke:none;fill-rule:nonzero;fill:rgb(77.647059%,78.431373%,80.784314%);fill-opacity:1;" d="M 1.03125 20.96875 C 0.84375 20.96875 0.664062 20.894531 0.53125 20.761719 C 0.398438 20.628906 0.320312 20.449219 0.324219 20.261719 L 0.324219 13.359375 L 4.308594 5.726562 C 4.464844 5.421875 4.777344 5.230469 5.121094 5.230469 L 16.878906 5.230469 C 17.21875 5.230469 17.53125 5.421875 17.6875 5.722656 L 21.675781 13.359375 L 21.675781 20.261719 C 21.679688 20.449219 21.601562 20.628906 21.46875 20.761719 C 21.335938 20.894531 21.15625 20.96875 20.96875 20.96875 Z M 1.03125 20.96875 "/>
<path style=" stroke:none;fill-rule:nonzero;fill:rgb(87.843137%,88.627451%,89.803922%);fill-opacity:1;" d="M 16.878906 5.554688 C 17.097656 5.554688 17.300781 5.679688 17.402344 5.875 L 21.355469 13.4375 L 21.355469 20.261719 C 21.34375 20.464844 21.175781 20.628906 20.96875 20.625 L 1.03125 20.625 C 0.820312 20.625 0.652344 20.457031 0.648438 20.246094 L 0.648438 13.4375 L 4.597656 5.875 C 4.703125 5.679688 4.902344 5.554688 5.125 5.554688 L 16.878906 5.554688 M 16.878906 4.910156 L 5.121094 4.910156 C 4.660156 4.90625 4.234375 5.164062 4.023438 5.574219 L 0.0703125 13.136719 L 0 13.277344 L 0 20.261719 C 0 20.832031 0.460938 21.292969 1.03125 21.292969 L 20.96875 21.292969 C 21.539062 21.292969 22 20.832031 22 20.261719 L 22 13.277344 L 21.929688 13.136719 L 17.976562 5.574219 C 17.765625 5.164062 17.339844 4.90625 16.878906 4.910156 Z M 16.878906 4.910156 "/>
<path style=" stroke:none;fill-rule:nonzero;fill:url(#linear0);" d="M 15.214844 13.4375 C 14.824219 13.433594 14.484375 13.710938 14.410156 14.09375 C 14.089844 15.722656 12.660156 16.898438 11 16.898438 C 9.339844 16.898438 7.910156 15.722656 7.589844 14.09375 C 7.515625 13.710938 7.175781 13.433594 6.785156 13.4375 L 0.644531 13.4375 L 0.644531 20.261719 C 0.65625 20.464844 0.824219 20.628906 1.03125 20.625 L 20.96875 20.625 C 21.179688 20.625 21.347656 20.457031 21.351562 20.246094 L 21.351562 13.4375 Z M 15.214844 13.4375 "/>
<path style=" stroke:none;fill-rule:nonzero;fill:url(#linear1);" d="M 16.769531 8.300781 C 16.628906 7.925781 16.265625 7.675781 15.863281 7.675781 L 14.644531 7.675781 L 14.644531 1.375 C 14.644531 0.996094 14.335938 0.6875 13.957031 0.6875 L 8.25 0.6875 C 7.878906 0.695312 7.578125 1 7.578125 1.375 L 7.578125 7.664062 L 6.367188 7.664062 C 5.964844 7.667969 5.605469 7.917969 5.464844 8.292969 C 5.320312 8.667969 5.425781 9.09375 5.726562 9.359375 L 10.472656 13.542969 C 10.652344 13.699219 10.878906 13.785156 11.117188 13.785156 C 11.351562 13.785156 11.578125 13.699219 11.753906 13.542969 L 16.5 9.371094 C 16.804688 9.105469 16.914062 8.679688 16.769531 8.300781 Z M 16.769531 8.300781 "/>
</g>
</svg>
