
<svg xmlns="http://www.w3.org/2000/svg" xmlns:xlink="http://www.w3.org/1999/xlink" width="22px" height="22px" viewBox="0 0 22 22" version="1.1">
<defs>
<linearGradient id="linear0" gradientUnits="userSpaceOnUse" x1="-26.201" y1="1070.199951" x2="-26.201" y2="1082.599976" gradientTransform="matrix(0.243529,0,0,0.243529,11.991476,-258.136659)">
<stop offset="0" style="stop-color:rgb(99.215686%,61.56863%,47.058824%);stop-opacity:1;"/>
<stop offset="1" style="stop-color:rgb(100%,68.235296%,48.235294%);stop-opacity:1;"/>
</linearGradient>
<linearGradient id="linear1" gradientUnits="userSpaceOnUse" x1="-9.912" y1="1081.400024" x2="-9.912" y2="1139.800049" gradientTransform="matrix(0.243529,0,0,0.243529,11.991476,-258.136659)">
<stop offset="0" style="stop-color:rgb(98.431373%,49.019608%,22.352941%);stop-opacity:1;"/>
<stop offset="0.5" style="stop-color:rgb(98.823529%,57.647061%,31.37255%);stop-opacity:1;"/>
<stop offset="1" style="stop-color:rgb(100%,55.29412%,27.058825%);stop-opacity:1;"/>
</linearGradient>
<filter id="alpha" filterUnits="objectBoundingBox" x="0%" y="0%" width="100%" height="100%">
  <feColorMatrix type="matrix" in="SourceGraphic" values="0 0 0 0 1 0 0 0 0 1 0 0 0 0 1 0 0 0 1 0"/>
</filter>
<mask id="mask0">
  <g filter="url(#alpha)">
<rect x="0" y="0" width="22" height="22" style="fill:rgb(0%,0%,0%);fill-opacity:0.08;stroke:none;"/>
  </g>
</mask>
<clipPath id="clip1">
  <rect x="0" y="0" width="22" height="22"/>
</clipPath>
<g id="surface5" clip-path="url(#clip1)">
<path style=" stroke:none;fill-rule:nonzero;fill:rgb(0%,0%,0%);fill-opacity:1;" d="M 0.292969 18.042969 L 0.292969 18.289062 L 21.707031 18.289062 L 21.707031 18.042969 Z M 0.292969 18.582031 L 0.292969 18.710938 C 0.292969 18.75 0.296875 18.785156 0.300781 18.824219 L 21.703125 18.824219 C 21.707031 18.785156 21.710938 18.75 21.710938 18.710938 L 21.710938 18.582031 Z M 0.292969 18.582031 "/>
</g>
<mask id="mask1">
  <g filter="url(#alpha)">
<rect x="0" y="0" width="22" height="22" style="fill:rgb(0%,0%,0%);fill-opacity:0.25;stroke:none;"/>
  </g>
</mask>
<linearGradient id="linear2" gradientUnits="userSpaceOnUse" x1="-9.617" y1="1138.400024" x2="-9.617" y2="1140.199951" gradientTransform="matrix(0.243529,0,0,0.243529,11.991476,-258.136659)">
<stop offset="0" style="stop-color:rgb(0%,0%,0%);stop-opacity:0.046784;"/>
<stop offset="1" style="stop-color:rgb(0%,0%,0%);stop-opacity:1;"/>
</linearGradient>
<clipPath id="clip2">
  <rect x="0" y="0" width="22" height="22"/>
</clipPath>
<g id="surface8" clip-path="url(#clip2)">
<path style=" stroke:none;fill-rule:nonzero;fill:url(#linear2);" d="M 0.363281 19.046875 C 0.492188 19.335938 0.777344 19.519531 1.09375 19.519531 L 20.910156 19.519531 C 21.238281 19.519531 21.515625 19.328125 21.640625 19.046875 Z M 0.363281 19.046875 "/>
</g>
<mask id="mask2">
  <g filter="url(#alpha)">
<rect x="0" y="0" width="22" height="22" style="fill:rgb(0%,0%,0%);fill-opacity:0.15;stroke:none;"/>
  </g>
</mask>
<clipPath id="clip3">
  <rect x="0" y="0" width="22" height="22"/>
</clipPath>
<g id="surface11" clip-path="url(#clip3)">
<path style=" stroke:none;fill-rule:nonzero;fill:rgb(0%,0%,0%);fill-opacity:1;" d="M 7.679688 16.789062 L 11 13.75 C 12.136719 14.4375 13.632812 14.296875 14.613281 13.316406 C 15.765625 12.164062 15.765625 10.289062 14.613281 9.136719 C 13.460938 7.984375 11.597656 7.992188 10.445312 9.144531 C 9.464844 10.125 9.316406 11.617188 10.003906 12.753906 L 6.683594 15.792969 Z M 13.964844 9.785156 C 14.757812 10.578125 14.757812 11.871094 13.964844 12.664062 C 13.179688 13.449219 11.910156 13.449219 11.113281 12.679688 L 11.09375 12.660156 C 11.085938 12.648438 11.078125 12.644531 11.070312 12.636719 C 10.300781 11.84375 10.308594 10.578125 11.09375 9.792969 C 11.886719 9 13.171875 8.992188 13.964844 9.785156 Z M 13.964844 9.785156 "/>
</g>
</defs>
<g id="surface1">
<path style=" stroke:none;fill-rule:nonzero;fill:url(#linear0);" d="M 1.089844 2.488281 L 6.480469 2.488281 C 7.28125 2.488281 7.613281 4.210938 8.363281 4.210938 L 20.910156 4.210938 C 21.121094 4.210938 21.324219 4.292969 21.476562 4.445312 C 21.625 4.59375 21.710938 4.796875 21.707031 5.007812 L 21.707031 17.308594 C 21.707031 17.753906 21.351562 16.816406 20.910156 16.816406 L 1.089844 16.816406 C 0.878906 16.816406 0.675781 16.734375 0.523438 16.585938 C 0.375 16.433594 0.289062 16.230469 0.292969 16.019531 L 0.292969 3.289062 C 0.289062 3.074219 0.375 2.871094 0.523438 2.722656 C 0.675781 2.570312 0.878906 2.488281 1.089844 2.488281 Z M 1.089844 2.488281 "/>
<path style=" stroke:none;fill-rule:nonzero;fill:url(#linear1);" d="M 1.089844 5.191406 L 20.910156 5.191406 C 21.121094 5.191406 21.324219 5.273438 21.476562 5.425781 C 21.625 5.574219 21.707031 5.777344 21.707031 5.992188 L 21.707031 18.722656 C 21.707031 18.933594 21.625 19.136719 21.476562 19.285156 C 21.324219 19.4375 21.121094 19.519531 20.910156 19.519531 L 1.089844 19.519531 C 0.878906 19.519531 0.675781 19.4375 0.523438 19.285156 C 0.375 19.136719 0.289062 18.933594 0.292969 18.722656 L 0.292969 5.992188 C 0.289062 5.777344 0.375 5.574219 0.523438 5.425781 C 0.675781 5.273438 0.878906 5.191406 1.089844 5.191406 Z M 1.089844 5.191406 "/>
<use xlink:href="#surface5" mask="url(#mask0)"/>
<use xlink:href="#surface8" mask="url(#mask1)"/>
<use xlink:href="#surface11" mask="url(#mask2)"/>
</g>
</svg>
