
<svg xmlns="http://www.w3.org/2000/svg" xmlns:xlink="http://www.w3.org/1999/xlink" width="22px" height="22px" viewBox="0 0 22 22" version="1.1">
<defs>
<linearGradient id="linear0" gradientUnits="userSpaceOnUse" x1="38.13" y1="32.12" x2="54.87" y2="3.12" gradientTransform="matrix(0.34375,0,0,0.34375,0,0)">
<stop offset="0" style="stop-color:rgb(83.137255%,83.137255%,83.137255%);stop-opacity:1;"/>
<stop offset="0.34" style="stop-color:rgb(45.882353%,75.294118%,96.470588%);stop-opacity:1;"/>
<stop offset="0.46" style="stop-color:rgb(47.843137%,53.72549%,86.27451%);stop-opacity:1;"/>
<stop offset="0.57" style="stop-color:rgb(49.411765%,34.117647%,76.862745%);stop-opacity:1;"/>
<stop offset="0.65" style="stop-color:rgb(47.45098%,36.078431%,78.039216%);stop-opacity:1;"/>
<stop offset="0.74" style="stop-color:rgb(42.352941%,41.960784%,81.176471%);stop-opacity:1;"/>
<stop offset="0.84" style="stop-color:rgb(33.72549%,51.372549%,85.882353%);stop-opacity:1;"/>
<stop offset="0.95" style="stop-color:rgb(21.960784%,64.705882%,92.941176%);stop-opacity:1;"/>
<stop offset="1" style="stop-color:rgb(16.078431%,71.372549%,96.470588%);stop-opacity:1;"/>
</linearGradient>
<linearGradient id="linear1" gradientUnits="userSpaceOnUse" x1="23.46" y1="46.79" x2="40.2" y2="17.79" gradientTransform="matrix(0.34375,0,0,0.34375,0,0)">
<stop offset="0" style="stop-color:rgb(83.137255%,83.137255%,83.137255%);stop-opacity:1;"/>
<stop offset="0.34" style="stop-color:rgb(45.882353%,75.294118%,96.470588%);stop-opacity:1;"/>
<stop offset="0.46" style="stop-color:rgb(47.843137%,53.72549%,86.27451%);stop-opacity:1;"/>
<stop offset="0.57" style="stop-color:rgb(49.411765%,34.117647%,76.862745%);stop-opacity:1;"/>
<stop offset="0.65" style="stop-color:rgb(47.45098%,36.078431%,78.039216%);stop-opacity:1;"/>
<stop offset="0.74" style="stop-color:rgb(42.352941%,41.960784%,81.176471%);stop-opacity:1;"/>
<stop offset="0.84" style="stop-color:rgb(33.72549%,51.372549%,85.882353%);stop-opacity:1;"/>
<stop offset="0.95" style="stop-color:rgb(21.960784%,64.705882%,92.941176%);stop-opacity:1;"/>
<stop offset="1" style="stop-color:rgb(16.078431%,71.372549%,96.470588%);stop-opacity:1;"/>
</linearGradient>
<linearGradient id="linear2" gradientUnits="userSpaceOnUse" x1="8.8" y1="61.45" x2="25.54" y2="32.46" gradientTransform="matrix(0.34375,0,0,0.34375,0,0)">
<stop offset="0" style="stop-color:rgb(83.137255%,83.137255%,83.137255%);stop-opacity:1;"/>
<stop offset="0.34" style="stop-color:rgb(45.882353%,75.294118%,96.470588%);stop-opacity:1;"/>
<stop offset="0.46" style="stop-color:rgb(47.843137%,53.72549%,86.27451%);stop-opacity:1;"/>
<stop offset="0.57" style="stop-color:rgb(49.411765%,34.117647%,76.862745%);stop-opacity:1;"/>
<stop offset="0.65" style="stop-color:rgb(47.45098%,36.078431%,78.039216%);stop-opacity:1;"/>
<stop offset="0.74" style="stop-color:rgb(42.352941%,41.960784%,81.176471%);stop-opacity:1;"/>
<stop offset="0.84" style="stop-color:rgb(33.72549%,51.372549%,85.882353%);stop-opacity:1;"/>
<stop offset="0.95" style="stop-color:rgb(21.960784%,64.705882%,92.941176%);stop-opacity:1;"/>
<stop offset="1" style="stop-color:rgb(16.078431%,71.372549%,96.470588%);stop-opacity:1;"/>
</linearGradient>
</defs>
<g id="surface1">
<path style="fill-rule:nonzero;fill:rgb(92.156863%,92.54902%,93.333333%);fill-opacity:1;stroke-width:1;stroke-linecap:butt;stroke-linejoin:miter;stroke:rgb(82.352941%,83.529412%,85.490196%);stroke-opacity:1;stroke-miterlimit:10;" d="M 46.670455 7.102273 C 41.011364 7.102273 36.431818 11.681818 36.431818 17.340909 C 36.431818 23 41.022727 27.579545 46.681818 27.579545 C 52.329545 27.579545 56.920455 22.988636 56.909091 17.329545 C 56.909091 11.681818 52.318182 7.102273 46.670455 7.102273 Z M 46.670455 20.886364 C 44.704545 20.897727 43.102273 19.306818 43.102273 17.340909 C 43.090909 15.363636 44.693182 13.772727 46.659091 13.772727 C 48.625 13.772727 50.215909 15.363636 50.215909 17.329545 C 50.215909 19.295455 48.625 20.875 46.670455 20.886364 Z M 46.670455 20.886364 " transform="matrix(0.34375,0,0,0.34375,0,0)"/>
<path style=" stroke:none;fill-rule:nonzero;fill:url(#linear0);" d="M 16.042969 0.0585938 C 12.78125 0.0546875 10.136719 2.699219 10.136719 5.960938 C 10.136719 9.21875 12.78125 11.863281 16.039062 11.863281 C 19.300781 11.863281 21.945312 9.21875 21.941406 5.957031 C 21.941406 2.699219 19.300781 0.0585938 16.042969 0.0585938 Z M 13.234375 5.957031 C 13.234375 4.40625 14.488281 3.148438 16.039062 3.144531 C 17.59375 3.144531 18.851562 4.402344 18.851562 5.953125 C 18.851562 7.503906 17.59375 8.761719 16.042969 8.761719 C 14.492188 8.761719 13.238281 7.507812 13.234375 5.957031 Z M 13.234375 5.957031 "/>
<path style="fill-rule:nonzero;fill:rgb(92.156863%,92.54902%,93.333333%);fill-opacity:1;stroke-width:1;stroke-linecap:butt;stroke-linejoin:miter;stroke:rgb(82.352941%,83.529412%,85.490196%);stroke-opacity:1;stroke-miterlimit:10;" d="M 32 21.761364 C 26.340909 21.761364 21.761364 26.340909 21.761364 32 C 21.761364 37.659091 26.340909 42.238636 32 42.238636 C 37.659091 42.238636 42.238636 37.659091 42.238636 32 C 42.238636 26.352273 37.647727 21.761364 32 21.761364 Z M 32 35.545455 C 30.034091 35.545455 28.454545 33.965909 28.454545 32 C 28.454545 30.034091 30.034091 28.454545 32 28.454545 C 33.965909 28.454545 35.545455 30.034091 35.545455 32 C 35.545455 33.965909 33.965909 35.545455 32 35.545455 Z M 32 35.545455 " transform="matrix(0.34375,0,0,0.34375,0,0)"/>
<path style=" stroke:none;fill-rule:nonzero;fill:url(#linear1);" d="M 11 5.097656 C 7.742188 5.097656 5.097656 7.742188 5.097656 11 C 5.097656 14.257812 7.742188 16.902344 11 16.902344 C 14.257812 16.902344 16.902344 14.257812 16.902344 11 C 16.902344 7.742188 14.257812 5.097656 11 5.097656 Z M 8.195312 11 C 8.195312 9.449219 9.449219 8.195312 11 8.195312 C 12.550781 8.195312 13.804688 9.449219 13.804688 11 C 13.804688 12.550781 12.550781 13.804688 11 13.804688 C 9.453125 13.804688 8.195312 12.546875 8.195312 11 Z M 8.195312 11 "/>
<path style="fill-rule:nonzero;fill:rgb(92.156863%,92.54902%,93.333333%);fill-opacity:1;stroke-width:1;stroke-linecap:butt;stroke-linejoin:miter;stroke:rgb(82.352941%,83.529412%,85.490196%);stroke-opacity:1;stroke-miterlimit:10;" d="M 17.329545 36.431818 C 11.670455 36.431818 7.090909 41.011364 7.090909 46.670455 C 7.090909 52.329545 11.670455 56.909091 17.329545 56.909091 C 22.988636 56.909091 27.568182 52.329545 27.568182 46.670455 C 27.568182 41.011364 22.988636 36.431818 17.329545 36.431818 Z M 17.329545 50.215909 C 15.363636 50.215909 13.772727 48.625 13.772727 46.659091 C 13.772727 44.693182 15.363636 43.090909 17.340909 43.102273 C 19.306818 43.102273 20.897727 44.704545 20.886364 46.670455 C 20.886364 47.613636 20.511364 48.522727 19.852273 49.181818 C 19.181818 49.852273 18.272727 50.227273 17.329545 50.215909 Z M 17.329545 50.215909 " transform="matrix(0.34375,0,0,0.34375,0,0)"/>
<path style=" stroke:none;fill-rule:nonzero;fill:url(#linear2);" d="M 5.957031 10.140625 C 2.699219 10.140625 0.0546875 12.78125 0.0546875 16.042969 C 0.0546875 19.300781 2.699219 21.945312 5.957031 21.945312 C 9.21875 21.945312 11.859375 19.300781 11.859375 16.042969 C 11.859375 14.476562 11.238281 12.976562 10.132812 11.867188 C 9.023438 10.761719 7.523438 10.140625 5.957031 10.140625 Z M 3.152344 16.042969 C 3.152344 14.492188 4.40625 13.238281 5.957031 13.238281 C 7.507812 13.238281 8.761719 14.492188 8.761719 16.042969 C 8.761719 17.59375 7.507812 18.847656 5.957031 18.847656 C 4.410156 18.847656 3.152344 17.589844 3.152344 16.042969 Z M 3.152344 16.042969 "/>
</g>
</svg>
