
<svg xmlns="http://www.w3.org/2000/svg" xmlns:xlink="http://www.w3.org/1999/xlink" width="22px" height="22px" viewBox="0 0 22 22" version="1.1">
<defs>
<linearGradient id="linear0" gradientUnits="userSpaceOnUse" x1="32" y1="3.8" x2="32" y2="23.49" gradientTransform="matrix(0.34375,0,0,0.34375,0,0)">
<stop offset="0" style="stop-color:rgb(16.078432%,71.372551%,96.470588%);stop-opacity:1;"/>
<stop offset="0.67" style="stop-color:rgb(39.607844%,45.09804%,82.745099%);stop-opacity:1;"/>
<stop offset="1" style="stop-color:rgb(49.411765%,34.117648%,76.862746%);stop-opacity:1;"/>
</linearGradient>
<linearGradient id="linear1" gradientUnits="userSpaceOnUse" x1="32" y1="60.900002" x2="32" y2="18.719999" gradientTransform="matrix(0.34375,0,0,0.34375,0,0)">
<stop offset="0" style="stop-color:rgb(86.274511%,87.058824%,88.627452%);stop-opacity:1;"/>
<stop offset="0.57" style="stop-color:rgb(87.058824%,87.843138%,89.411765%);stop-opacity:1;"/>
<stop offset="0.81" style="stop-color:rgb(89.803922%,90.588236%,91.764706%);stop-opacity:1;"/>
<stop offset="0.99" style="stop-color:rgb(94.901961%,95.294118%,95.686275%);stop-opacity:1;"/>
<stop offset="1" style="stop-color:rgb(95.294118%,95.686275%,96.078432%);stop-opacity:1;"/>
</linearGradient>
<linearGradient id="linear2" gradientUnits="userSpaceOnUse" x1="32" y1="51.330002" x2="32" y2="29.83" gradientTransform="matrix(0.34375,0,0,0.34375,0,0)">
<stop offset="0" style="stop-color:rgb(75.294119%,75.294119%,75.294119%);stop-opacity:1;"/>
<stop offset="1" style="stop-color:rgb(55.686277%,55.686277%,55.686277%);stop-opacity:1;"/>
</linearGradient>
</defs>
<g id="surface1">
<path style=" stroke:none;fill-rule:nonzero;fill:url(#linear0);" d="M 22 7.324219 C 21.996094 6.351562 21.210938 5.566406 20.234375 5.566406 L 14.25 5.566406 C 13.023438 5.566406 12.023438 4.585938 12 3.363281 C 12.019531 2.117188 11.027344 1.089844 9.78125 1.066406 L 1.164062 1.066406 C 0.519531 1.066406 0 1.585938 0 2.226562 L 0 8.050781 L 22 8.050781 Z M 22 7.324219 "/>
<path style=" stroke:none;fill-rule:nonzero;fill:url(#linear1);" d="M 20.234375 6.433594 L 1.765625 6.433594 C 0.789062 6.433594 0 7.226562 0 8.199219 L 0 19.175781 C 0.00390625 20.148438 0.789062 20.933594 1.765625 20.933594 L 20.234375 20.933594 C 21.210938 20.933594 21.996094 20.148438 22 19.175781 L 22 8.199219 C 22 7.226562 21.210938 6.433594 20.234375 6.433594 Z M 20.234375 6.433594 "/>
<path style=" stroke:none;fill-rule:nonzero;fill:url(#linear2);" d="M 14.226562 15.027344 L 14.226562 14.878906 C 14.226562 14.457031 14.039062 14.0625 13.710938 13.796875 L 12.742188 13 C 13.316406 12.128906 13.160156 10.96875 12.371094 10.28125 C 11.585938 9.59375 10.414062 9.59375 9.628906 10.28125 C 8.839844 10.96875 8.683594 12.128906 9.257812 13 L 8.285156 13.796875 C 7.960938 14.0625 7.773438 14.457031 7.773438 14.878906 L 7.773438 15.027344 C 7.207031 15.140625 6.820312 15.667969 6.878906 16.242188 C 6.9375 16.820312 7.421875 17.257812 8 17.257812 C 8.578125 17.257812 9.0625 16.820312 9.121094 16.242188 C 9.179688 15.667969 8.792969 15.140625 8.226562 15.027344 L 8.226562 14.878906 C 8.222656 14.59375 8.351562 14.324219 8.570312 14.144531 L 9.546875 13.347656 C 9.878906 13.675781 10.3125 13.878906 10.777344 13.929688 L 10.777344 15.351562 C 10.210938 15.464844 9.824219 15.992188 9.882812 16.566406 C 9.9375 17.140625 10.421875 17.578125 11 17.578125 C 11.578125 17.578125 12.0625 17.140625 12.117188 16.566406 C 12.175781 15.992188 11.789062 15.464844 11.222656 15.351562 L 11.222656 13.929688 C 11.6875 13.878906 12.121094 13.675781 12.453125 13.347656 L 13.429688 14.144531 C 13.648438 14.324219 13.777344 14.59375 13.773438 14.878906 L 13.773438 15.027344 C 13.207031 15.140625 12.820312 15.667969 12.878906 16.242188 C 12.9375 16.820312 13.421875 17.257812 14 17.257812 C 14.578125 17.257812 15.0625 16.820312 15.121094 16.242188 C 15.179688 15.667969 14.792969 15.140625 14.226562 15.027344 Z M 8.554688 16.128906 C 8.554688 16.433594 8.304688 16.683594 8 16.683594 C 7.695312 16.683594 7.445312 16.433594 7.445312 16.128906 C 7.445312 15.824219 7.695312 15.574219 8 15.574219 C 8.304688 15.574219 8.554688 15.824219 8.554688 16.128906 Z M 11.554688 16.453125 C 11.554688 16.761719 11.304688 17.007812 11 17.007812 C 10.695312 17.007812 10.445312 16.761719 10.445312 16.453125 C 10.445312 16.148438 10.695312 15.902344 11 15.902344 C 11.304688 15.902344 11.554688 16.148438 11.554688 16.453125 Z M 11 13.207031 C 10.25 13.207031 9.644531 12.601562 9.640625 11.855469 C 9.640625 11.105469 10.246094 10.5 10.996094 10.496094 C 11.742188 10.496094 12.351562 11.105469 12.351562 11.851562 C 12.351562 12.597656 11.746094 13.203125 11 13.207031 Z M 14 16.683594 C 13.695312 16.683594 13.445312 16.433594 13.445312 16.128906 C 13.445312 15.824219 13.695312 15.574219 14 15.574219 C 14.304688 15.574219 14.554688 15.824219 14.554688 16.128906 C 14.554688 16.433594 14.304688 16.683594 14 16.683594 Z M 14 16.683594 "/>
</g>
</svg>
