
<svg xmlns="http://www.w3.org/2000/svg" xmlns:xlink="http://www.w3.org/1999/xlink" width="22px" height="22px" viewBox="0 0 22 22" version="1.1">
<defs>
<linearGradient id="linear0" gradientUnits="userSpaceOnUse" x1="5.67" y1="32.07" x2="58.330002" y2="32.07" gradientTransform="matrix(0.34375,0,0,0.34375,0,0)">
<stop offset="0" style="stop-color:rgb(83.92157%,85.09804%,86.666667%);stop-opacity:1;"/>
<stop offset="0.27" style="stop-color:rgb(82.352942%,83.92157%,85.490197%);stop-opacity:1;"/>
<stop offset="0.5" style="stop-color:rgb(78.431374%,79.607844%,81.960785%);stop-opacity:1;"/>
<stop offset="0.73" style="stop-color:rgb(71.372551%,72.941178%,76.078433%);stop-opacity:1;"/>
<stop offset="0.92" style="stop-color:rgb(62.352943%,64.705884%,69.01961%);stop-opacity:1;"/>
</linearGradient>
</defs>
<g id="surface1">
<path style=" stroke:none;fill-rule:nonzero;fill:url(#linear0);" d="M 3.949219 18.964844 L 1.949219 3.914062 C 1.949219 1.84375 6.003906 0.160156 11 0.160156 C 15.996094 0.160156 20.050781 1.84375 20.050781 3.914062 L 18.050781 18.964844 C 18.050781 20.578125 14.894531 21.886719 11 21.886719 C 7.105469 21.886719 3.949219 20.578125 3.949219 18.964844 Z M 3.949219 18.964844 "/>
<path style=" stroke:none;fill-rule:nonzero;fill:rgb(49.411765%,34.117648%,76.862746%);fill-opacity:1;" d="M 11 7.316406 C 5.792969 7.316406 2.292969 5.558594 2.292969 3.914062 C 2.292969 2.265625 5.792969 0.503906 11 0.503906 C 16.207031 0.503906 19.707031 2.269531 19.707031 3.914062 C 19.707031 5.554688 16.207031 7.316406 11 7.316406 Z M 11 7.316406 "/>
<path style=" stroke:none;fill-rule:nonzero;fill:rgb(100%,100%,100%);fill-opacity:1;" d="M 11 0.847656 C 15.789062 0.847656 19.363281 2.46875 19.363281 3.914062 C 19.363281 5.355469 15.789062 6.972656 11 6.972656 C 6.210938 6.972656 2.636719 5.359375 2.636719 3.914062 C 2.636719 2.464844 6.210938 0.847656 11 0.847656 M 11 0.160156 C 6.003906 0.160156 1.949219 1.84375 1.949219 3.914062 C 1.949219 5.980469 6.003906 7.660156 11 7.660156 C 15.996094 7.660156 20.050781 5.984375 20.050781 3.914062 C 20.050781 1.839844 15.996094 0.160156 11 0.160156 Z M 11 0.160156 "/>
<path style=" stroke:none;fill-rule:nonzero;fill:rgb(38.039216%,26.666668%,62.7451%);fill-opacity:1;" d="M 11.285156 11.6875 C 11.261719 11.292969 11.539062 10.945312 11.929688 10.878906 C 12.335938 10.78125 12.761719 10.949219 12.988281 11.296875 L 13.914062 12.765625 C 13.945312 12.816406 13.933594 12.835938 13.886719 12.859375 L 12.40625 13.660156 C 12.355469 13.691406 12.335938 13.683594 12.300781 13.632812 L 11.390625 12.128906 C 11.324219 11.992188 11.289062 11.839844 11.285156 11.6875 Z M 11.285156 11.6875 "/>
<path style=" stroke:none;fill-rule:nonzero;fill:rgb(38.039216%,26.666668%,62.7451%);fill-opacity:1;" d="M 13.40625 16.101562 C 13.703125 16.109375 13.984375 16.25 14.171875 16.480469 C 14.296875 16.65625 14.34375 16.878906 14.304688 17.09375 C 14.261719 17.308594 14.136719 17.496094 13.953125 17.613281 C 13.777344 17.734375 13.574219 17.796875 13.359375 17.796875 L 11.5625 17.796875 C 11.496094 17.796875 11.46875 17.796875 11.46875 17.707031 C 11.46875 17.183594 11.46875 16.675781 11.46875 16.160156 C 11.46875 16.09375 11.46875 16.078125 11.550781 16.078125 Z M 13.40625 16.101562 "/>
<path style=" stroke:none;fill-rule:nonzero;fill:rgb(38.039216%,26.666668%,62.7451%);fill-opacity:1;" d="M 8 16.15625 C 7.679688 16.175781 7.375 16.019531 7.203125 15.746094 C 7.035156 15.476562 7.023438 15.132812 7.179688 14.855469 C 7.476562 14.351562 7.789062 13.851562 8.089844 13.355469 C 8.117188 13.308594 8.144531 13.308594 8.1875 13.332031 C 8.6875 13.609375 9.183594 13.875 9.675781 14.132812 C 9.734375 14.164062 9.730469 14.183594 9.699219 14.230469 C 9.390625 14.714844 9.089844 15.207031 8.773438 15.6875 C 8.597656 15.949219 8.3125 16.125 8 16.15625 Z M 8 16.15625 "/>
<path style=" stroke:none;fill-rule:nonzero;fill:rgb(49.411765%,34.117648%,76.862746%);fill-opacity:1;" d="M 12.414062 15.386719 L 13.511719 13.800781 C 13.53125 13.777344 13.554688 13.765625 13.585938 13.761719 L 15.050781 13.683594 L 15.640625 13.652344 C 15.640625 13.6875 15.601562 13.6875 15.585938 13.699219 L 14.882812 14.09375 C 14.832031 14.121094 14.828125 14.140625 14.855469 14.1875 C 15.027344 14.453125 15.199219 14.722656 15.363281 14.992188 C 15.449219 15.148438 15.46875 15.332031 15.421875 15.503906 C 15.375 15.734375 15.285156 15.953125 15.164062 16.15625 C 14.882812 16.617188 14.546875 17.039062 14.164062 17.417969 C 14.199219 17.265625 14.230469 17.113281 14.253906 16.960938 C 14.277344 16.800781 14.246094 16.640625 14.167969 16.5 C 13.875 15.996094 13.550781 15.507812 13.238281 15.019531 C 13.207031 14.972656 13.1875 14.984375 13.148438 15.019531 L 12.433594 15.398438 Z M 12.414062 15.386719 "/>
<path style=" stroke:none;fill-rule:nonzero;fill:rgb(49.411765%,34.117648%,76.862746%);fill-opacity:1;" d="M 7.144531 15.65625 C 7.179688 15.65625 7.191406 15.679688 7.210938 15.699219 C 7.230469 15.714844 7.339844 15.8125 7.40625 15.867188 C 7.574219 16.015625 7.796875 16.09375 8.019531 16.082031 C 8.605469 16.082031 9.1875 16.082031 9.769531 16.082031 C 9.84375 16.082031 9.863281 16.066406 9.859375 15.996094 C 9.859375 15.738281 9.859375 15.484375 9.859375 15.226562 C 9.890625 15.226562 9.890625 15.257812 9.898438 15.273438 L 10.78125 16.902344 C 10.808594 16.9375 10.808594 16.984375 10.78125 17.019531 L 9.890625 18.667969 C 9.890625 18.667969 9.871094 18.695312 9.859375 18.726562 C 9.859375 18.6875 9.859375 18.664062 9.859375 18.644531 C 9.859375 18.398438 9.859375 18.148438 9.859375 17.902344 C 9.859375 17.84375 9.859375 17.820312 9.785156 17.824219 C 9.441406 17.824219 9.121094 17.824219 8.792969 17.824219 C 8.683594 17.824219 8.574219 17.792969 8.480469 17.734375 C 8.238281 17.59375 8.03125 17.394531 7.878906 17.160156 C 7.570312 16.699219 7.320312 16.195312 7.144531 15.667969 C 7.144531 15.667969 7.144531 15.664062 7.144531 15.65625 Z M 7.144531 15.65625 "/>
<path style=" stroke:none;fill-rule:nonzero;fill:rgb(49.411765%,34.117648%,76.862746%);fill-opacity:1;" d="M 8.078125 11.527344 L 8.832031 11.933594 C 8.875 11.957031 8.898438 11.960938 8.929688 11.910156 C 9.089844 11.640625 9.25 11.375 9.414062 11.109375 C 9.464844 11.03125 9.542969 10.96875 9.632812 10.933594 C 9.832031 10.847656 10.042969 10.796875 10.261719 10.78125 C 10.859375 10.730469 11.460938 10.746094 12.054688 10.824219 L 12.277344 10.824219 C 12.277344 10.847656 12.242188 10.84375 12.21875 10.851562 C 12.09375 10.882812 11.96875 10.925781 11.847656 10.972656 C 11.667969 11.03125 11.519531 11.15625 11.421875 11.316406 C 11.140625 11.789062 10.84375 12.261719 10.554688 12.730469 C 10.523438 12.78125 10.519531 12.804688 10.582031 12.835938 C 10.800781 12.949219 11.015625 13.070312 11.234375 13.179688 C 11.257812 13.1875 11.28125 13.207031 11.296875 13.230469 L 10.730469 13.207031 C 10.300781 13.1875 9.875 13.160156 9.445312 13.148438 C 9.296875 13.15625 9.152344 13.078125 9.078125 12.949219 C 8.765625 12.480469 8.433594 12.027344 8.109375 11.574219 L 8.066406 11.503906 Z M 8.078125 11.527344 "/>
<path style=" stroke:none;fill-rule:nonzero;fill:rgb(95.294118%,96.470588%,96.862745%);fill-opacity:1;" d="M 8.007812 3.839844 L 7.96875 3.839844 C 7.796875 4.871094 6.542969 5.136719 5.734375 5.882812 C 5.644531 5.960938 5.570312 6.0625 5.519531 6.171875 C 6.488281 6.496094 7.488281 6.714844 8.5 6.828125 C 8.730469 6.753906 8.953125 6.6875 9.171875 6.625 C 9.296875 5.554688 8.855469 4.5 8.007812 3.839844 Z M 8.007812 3.839844 "/>
<path style=" stroke:none;fill-rule:nonzero;fill:rgb(69.803923%,73.333335%,73.725492%);fill-opacity:1;" d="M 8.5 6.839844 C 8.707031 6.867188 8.917969 6.886719 9.128906 6.910156 C 9.128906 6.816406 9.160156 6.726562 9.171875 6.632812 C 8.945312 6.695312 8.71875 6.765625 8.5 6.839844 Z M 8.5 6.839844 "/>
<path style=" stroke:none;fill-rule:nonzero;fill:rgb(82.745099%,83.92157%,84.313726%);fill-opacity:1;" d="M 9.171875 6.632812 C 10.0625 6.402344 10.980469 6.285156 11.898438 6.289062 C 11.914062 6.191406 11.914062 6.09375 11.898438 5.996094 C 10.4375 5.34375 10.222656 4.765625 10.222656 4.765625 C 9.648438 3.59375 8.261719 3.785156 8.003906 3.832031 C 8.859375 4.496094 9.304688 5.558594 9.171875 6.632812 Z M 9.171875 6.632812 "/>
<path style=" stroke:none;fill-rule:nonzero;fill:rgb(55.686277%,55.686277%,55.686277%);fill-opacity:1;" d="M 11.820312 6.53125 C 11.820312 6.507812 11.820312 6.484375 11.851562 6.457031 C 11.875 6.40625 11.894531 6.351562 11.898438 6.292969 C 10.980469 6.289062 10.0625 6.40625 9.171875 6.636719 C 9.171875 6.730469 9.144531 6.820312 9.128906 6.914062 C 9.726562 6.964844 10.351562 6.996094 10.988281 6.996094 L 11.171875 6.996094 C 11.375 6.820312 11.589844 6.664062 11.820312 6.53125 Z M 11.820312 6.53125 "/>
<path style=" stroke:none;fill-rule:nonzero;fill:rgb(63.137257%,65.098041%,65.490198%);fill-opacity:1;" d="M 16.726562 5.84375 C 15.730469 6.027344 14.703125 5.988281 13.722656 5.734375 C 13.300781 6.03125 12.964844 6.4375 12.75 6.90625 C 14.148438 6.816406 15.527344 6.519531 16.84375 6.03125 L 16.910156 5.890625 Z M 16.726562 5.84375 "/>
<path style=" stroke:none;fill-rule:nonzero;fill:rgb(69.803923%,73.333335%,73.725492%);fill-opacity:1;" d="M 16.726562 5.84375 C 16.105469 5.707031 15.53125 5.40625 15.0625 4.972656 C 14.585938 5.171875 14.136719 5.429688 13.722656 5.734375 C 14.703125 5.988281 15.730469 6.027344 16.726562 5.84375 Z M 16.726562 5.84375 "/>
<path style=" stroke:none;fill-rule:nonzero;fill:rgb(82.745099%,83.92157%,84.313726%);fill-opacity:1;" d="M 11.5625 4.847656 L 11.410156 4.847656 C 11.667969 5.191406 11.835938 5.59375 11.90625 6.019531 C 11.917969 6.117188 11.917969 6.214844 11.90625 6.3125 C 11.898438 6.371094 11.878906 6.425781 11.855469 6.476562 C 11.855469 6.503906 11.835938 6.527344 11.824219 6.550781 C 11.769531 6.691406 11.75 6.84375 11.765625 6.992188 C 12.109375 6.992188 12.433594 6.960938 12.753906 6.933594 C 12.96875 6.464844 13.304688 6.0625 13.726562 5.761719 C 12.960938 5.570312 12.230469 5.261719 11.5625 4.847656 Z M 11.5625 4.847656 "/>
<path style=" stroke:none;fill-rule:nonzero;fill:rgb(95.294118%,96.470588%,96.862745%);fill-opacity:1;" d="M 15.0625 4.984375 C 14.808594 4.753906 14.597656 4.484375 14.4375 4.183594 C 13.40625 4.972656 12.03125 4.898438 11.566406 4.847656 C 12.238281 5.257812 12.964844 5.558594 13.730469 5.746094 C 14.140625 5.4375 14.589844 5.183594 15.0625 4.984375 Z M 15.0625 4.984375 "/>
</g>
</svg>
