
<svg xmlns="http://www.w3.org/2000/svg" xmlns:xlink="http://www.w3.org/1999/xlink" width="24px" height="24px" viewBox="0 0 24 24" version="1.1">
<defs>
<linearGradient id="linear0" gradientUnits="userSpaceOnUse" x1="-26.201" y1="1070.197998" x2="-26.201" y2="1082.581055" gradientTransform="matrix(0.265663,0,0,0.265663,13.1388,-281.38752)">
<stop offset="0" style="stop-color:rgb(47.058824%,85.09804%,99.215686%);stop-opacity:1;"/>
<stop offset="1" style="stop-color:rgb(48.235294%,87.058824%,100%);stop-opacity:1;"/>
</linearGradient>
<linearGradient id="linear1" gradientUnits="userSpaceOnUse" x1="-9.912" y1="1081.404053" x2="-9.912" y2="1139.777954" gradientTransform="matrix(0.265663,0,0,0.265663,13.1388,-281.38752)">
<stop offset="0" style="stop-color:rgb(20.784314%,79.215688%,98.823529%);stop-opacity:1;"/>
<stop offset="0.5" style="stop-color:rgb(31.37255%,83.137256%,100%);stop-opacity:1;"/>
<stop offset="1" style="stop-color:rgb(30.19608%,79.607844%,96.470588%);stop-opacity:1;"/>
</linearGradient>
<filter id="alpha" filterUnits="objectBoundingBox" x="0%" y="0%" width="100%" height="100%">
  <feColorMatrix type="matrix" in="SourceGraphic" values="0 0 0 0 1 0 0 0 0 1 0 0 0 0 1 0 0 0 1 0"/>
</filter>
<mask id="mask0">
  <g filter="url(#alpha)">
<rect x="0" y="0" width="24" height="24" style="fill:rgb(0%,0%,0%);fill-opacity:0.976;stroke:none;"/>
  </g>
</mask>
<clipPath id="clip1">
  <rect x="0" y="0" width="24" height="24"/>
</clipPath>
<g id="surface5" clip-path="url(#clip1)">
<path style=" stroke:none;fill-rule:nonzero;fill:rgb(23.137255%,75.686276%,94.509804%);fill-opacity:1;" d="M 0.378906 19.894531 L 0.378906 20.160156 L 23.742188 20.160156 L 23.742188 19.894531 Z M 0.378906 20.484375 L 0.378906 20.628906 C 0.378906 20.671875 0.382812 20.710938 0.386719 20.75 L 23.730469 20.75 C 23.738281 20.710938 23.742188 20.671875 23.742188 20.628906 L 23.742188 20.484375 Z M 0.378906 20.484375 "/>
</g>
<mask id="mask1">
  <g filter="url(#alpha)">
<rect x="0" y="0" width="24" height="24" style="fill:rgb(0%,0%,0%);fill-opacity:0.976;stroke:none;"/>
  </g>
</mask>
<linearGradient id="linear2" gradientUnits="userSpaceOnUse" x1="-9.617" y1="1138.385986" x2="-9.617" y2="1140.189941" gradientTransform="matrix(0.265663,0,0,0.265663,13.1388,-281.38752)">
<stop offset="0" style="stop-color:rgb(23.137255%,75.686276%,94.509804%);stop-opacity:1;"/>
<stop offset="1" style="stop-color:rgb(5.490196%,58.431375%,77.254903%);stop-opacity:1;"/>
</linearGradient>
<clipPath id="clip2">
  <rect x="0" y="0" width="24" height="24"/>
</clipPath>
<g id="surface8" clip-path="url(#clip2)">
<path style=" stroke:none;fill-rule:nonzero;fill:url(#linear2);" d="M 0.453125 20.984375 C 0.59375 21.296875 0.90625 21.5 1.25 21.5 L 22.867188 21.5 C 23.226562 21.5 23.53125 21.289062 23.664062 20.984375 Z M 0.453125 20.984375 "/>
</g>
<linearGradient id="linear3" gradientUnits="userSpaceOnUse" x1="102.357002" y1="921.518982" x2="102.357002" y2="998.947021" gradientTransform="matrix(0.12,0,0,0.12,-0.0234,-101.5752)">
<stop offset="0" style="stop-color:rgb(1.176471%,71.372551%,92.54902%);stop-opacity:1;"/>
<stop offset="1" style="stop-color:rgb(7.450981%,75.294119%,96.862745%);stop-opacity:1;"/>
</linearGradient>
</defs>
<g id="surface1">
<path style=" stroke:none;fill-rule:nonzero;fill:url(#linear0);" d="M 1.246094 2.925781 L 7.125 2.925781 C 8 2.925781 8.363281 4.804688 9.179688 4.804688 L 22.867188 4.804688 C 23.097656 4.804688 23.320312 4.898438 23.484375 5.058594 C 23.648438 5.222656 23.738281 5.445312 23.738281 5.675781 L 23.738281 19.09375 C 23.738281 19.578125 23.351562 18.558594 22.867188 18.558594 L 1.246094 18.558594 C 1.015625 18.558594 0.792969 18.46875 0.628906 18.304688 C 0.464844 18.140625 0.375 17.917969 0.375 17.6875 L 0.375 3.800781 C 0.375 3.566406 0.464844 3.34375 0.628906 3.183594 C 0.792969 3.019531 1.015625 2.925781 1.246094 2.925781 Z M 1.246094 2.925781 "/>
<path style=" stroke:none;fill-rule:nonzero;fill:url(#linear1);" d="M 1.246094 5.867188 L 22.867188 5.867188 C 23.097656 5.867188 23.320312 5.960938 23.484375 6.125 C 23.648438 6.285156 23.738281 6.507812 23.738281 6.742188 L 23.738281 20.628906 C 23.738281 20.859375 23.648438 21.082031 23.484375 21.246094 C 23.320312 21.410156 23.097656 21.5 22.867188 21.5 L 1.246094 21.5 C 1.015625 21.5 0.792969 21.410156 0.628906 21.246094 C 0.464844 21.082031 0.375 20.859375 0.375 20.628906 L 0.375 6.742188 C 0.375 6.507812 0.464844 6.285156 0.628906 6.125 C 0.792969 5.960938 1.015625 5.867188 1.246094 5.867188 Z M 1.246094 5.867188 "/>
<use xlink:href="#surface5" mask="url(#mask0)"/>
<use xlink:href="#surface8" mask="url(#mask1)"/>
<path style=" stroke:none;fill-rule:nonzero;fill:url(#linear3);" d="M 8.378906 18.316406 L 12 15 C 13.238281 15.75 14.871094 15.59375 15.941406 14.527344 C 17.199219 13.269531 17.199219 11.226562 15.941406 9.96875 C 14.683594 8.710938 12.652344 8.71875 11.394531 9.976562 C 10.324219 11.046875 10.164062 12.675781 10.910156 13.910156 L 7.289062 17.226562 Z M 15.234375 10.675781 C 16.097656 11.539062 16.097656 12.953125 15.234375 13.816406 C 14.378906 14.671875 12.992188 14.671875 12.125 13.832031 L 12.101562 13.808594 C 12.09375 13.800781 12.085938 13.792969 12.078125 13.785156 C 11.234375 12.917969 11.242188 11.539062 12.101562 10.683594 C 12.964844 9.816406 14.371094 9.808594 15.234375 10.671875 Z M 15.234375 10.675781 "/>
</g>
</svg>
