
<svg xmlns="http://www.w3.org/2000/svg" xmlns:xlink="http://www.w3.org/1999/xlink" width="24px" height="24px" viewBox="0 0 24 24" version="1.1">
<defs>
<linearGradient id="linear0" gradientUnits="userSpaceOnUse" x1="-26.201" y1="1070.199951" x2="-26.201" y2="1082.599976" gradientTransform="matrix(0.265668,0,0,0.265668,13.08161,-281.603628)">
<stop offset="0" style="stop-color:rgb(47.058824%,76.47059%,99.215686%);stop-opacity:1;"/>
<stop offset="1" style="stop-color:rgb(48.235294%,77.64706%,100%);stop-opacity:1;"/>
</linearGradient>
<linearGradient id="linear1" gradientUnits="userSpaceOnUse" x1="-9.912" y1="1081.400024" x2="-9.912" y2="1139.800049" gradientTransform="matrix(0.265668,0,0,0.265668,13.08161,-281.603628)">
<stop offset="0" style="stop-color:rgb(20.784314%,64.705884%,98.823529%);stop-opacity:1;"/>
<stop offset="0.5" style="stop-color:rgb(27.058825%,75.294119%,100%);stop-opacity:1;"/>
<stop offset="1" style="stop-color:rgb(30.19608%,67.450982%,96.470588%);stop-opacity:1;"/>
</linearGradient>
<filter id="alpha" filterUnits="objectBoundingBox" x="0%" y="0%" width="100%" height="100%">
  <feColorMatrix type="matrix" in="SourceGraphic" values="0 0 0 0 1 0 0 0 0 1 0 0 0 0 1 0 0 0 1 0"/>
</filter>
<mask id="mask0">
  <g filter="url(#alpha)">
<rect x="0" y="0" width="24" height="24" style="fill:rgb(0%,0%,0%);fill-opacity:0.08;stroke:none;"/>
  </g>
</mask>
<clipPath id="clip1">
  <rect x="0" y="0" width="24" height="24"/>
</clipPath>
<g id="surface5" clip-path="url(#clip1)">
<path style=" stroke:none;fill-rule:nonzero;fill:rgb(0%,0%,0%);fill-opacity:1;" d="M 0.320312 19.683594 L 0.320312 19.949219 L 23.683594 19.949219 L 23.683594 19.683594 Z M 0.320312 20.269531 L 0.320312 20.410156 C 0.320312 20.453125 0.324219 20.492188 0.328125 20.535156 L 23.675781 20.535156 C 23.679688 20.492188 23.683594 20.453125 23.683594 20.410156 L 23.683594 20.269531 Z M 0.320312 20.269531 "/>
</g>
<mask id="mask1">
  <g filter="url(#alpha)">
<rect x="0" y="0" width="24" height="24" style="fill:rgb(0%,0%,0%);fill-opacity:0.25;stroke:none;"/>
  </g>
</mask>
<linearGradient id="linear2" gradientUnits="userSpaceOnUse" x1="-9.617" y1="1138.400024" x2="-9.617" y2="1140.199951" gradientTransform="matrix(0.265668,0,0,0.265668,13.08161,-281.603628)">
<stop offset="0" style="stop-color:rgb(0%,0%,0%);stop-opacity:0.046784;"/>
<stop offset="1" style="stop-color:rgb(0%,0%,0%);stop-opacity:1;"/>
</linearGradient>
<clipPath id="clip2">
  <rect x="0" y="0" width="24" height="24"/>
</clipPath>
<g id="surface8" clip-path="url(#clip2)">
<path style=" stroke:none;fill-rule:nonzero;fill:url(#linear2);" d="M 0.394531 20.78125 C 0.535156 21.09375 0.847656 21.296875 1.191406 21.292969 L 22.8125 21.292969 C 23.167969 21.292969 23.472656 21.082031 23.609375 20.78125 Z M 0.394531 20.78125 "/>
</g>
<mask id="mask2">
  <g filter="url(#alpha)">
<rect x="0" y="0" width="24" height="24" style="fill:rgb(0%,0%,0%);fill-opacity:0.15;stroke:none;"/>
  </g>
</mask>
<clipPath id="clip3">
  <rect x="0" y="0" width="24" height="24"/>
</clipPath>
<g id="surface11" clip-path="url(#clip3)">
<path style=" stroke:none;fill-rule:nonzero;fill:rgb(0%,0%,0%);fill-opacity:1;" d="M 12.058594 9.835938 C 10.023438 9.835938 8.101562 10.734375 6.785156 12.300781 C 6.660156 12.449219 6.636719 12.652344 6.714844 12.824219 C 6.796875 13 6.972656 13.109375 7.160156 13.109375 C 7.300781 13.109375 7.441406 13.050781 7.539062 12.933594 C 8.667969 11.589844 10.316406 10.820312 12.058594 10.820312 C 13.800781 10.820312 15.449219 11.589844 16.578125 12.933594 C 16.675781 13.050781 16.8125 13.109375 16.953125 13.109375 C 17.144531 13.109375 17.320312 13 17.402344 12.824219 C 17.480469 12.652344 17.453125 12.449219 17.332031 12.300781 C 16.015625 10.734375 14.09375 9.835938 12.058594 9.835938 Z M 12.058594 11.921875 C 10.605469 11.921875 9.230469 12.5625 8.292969 13.679688 C 8.117188 13.890625 8.144531 14.199219 8.351562 14.375 C 8.558594 14.550781 8.871094 14.523438 9.046875 14.3125 C 9.792969 13.421875 10.894531 12.90625 12.058594 12.90625 C 13.21875 12.90625 14.320312 13.417969 15.070312 14.3125 C 15.167969 14.429688 15.308594 14.488281 15.449219 14.488281 C 15.640625 14.488281 15.8125 14.378906 15.894531 14.207031 C 15.972656 14.03125 15.945312 13.828125 15.824219 13.679688 C 14.882812 12.5625 13.511719 11.921875 12.058594 11.921875 Z M 12.058594 14.085938 C 11.1875 14.085938 10.359375 14.472656 9.796875 15.140625 C 9.714844 15.242188 9.671875 15.371094 9.683594 15.5 C 9.695312 15.628906 9.757812 15.75 9.859375 15.835938 C 9.957031 15.917969 10.085938 15.960938 10.21875 15.949219 C 10.347656 15.9375 10.46875 15.875 10.550781 15.773438 C 10.925781 15.328125 11.476562 15.070312 12.058594 15.070312 C 12.640625 15.070312 13.1875 15.328125 13.5625 15.773438 C 13.648438 15.875 13.769531 15.9375 13.898438 15.949219 C 14.027344 15.960938 14.15625 15.917969 14.257812 15.835938 C 14.355469 15.75 14.421875 15.628906 14.429688 15.5 C 14.441406 15.371094 14.402344 15.242188 14.316406 15.140625 C 13.757812 14.472656 12.929688 14.085938 12.058594 14.085938 Z M 12.015625 15.953125 C 11.632812 15.992188 11.261719 16.277344 11.25 16.707031 C 11.257812 17.148438 11.617188 17.503906 12.058594 17.503906 C 12.5 17.503906 12.859375 17.148438 12.867188 16.707031 C 12.800781 16.132812 12.402344 15.917969 12.015625 15.953125 Z M 12.015625 15.953125 "/>
</g>
</defs>
<g id="surface1">
<path style=" stroke:none;fill-rule:nonzero;fill:url(#linear0);" d="M 1.191406 2.714844 L 7.070312 2.714844 C 7.941406 2.714844 8.304688 4.59375 9.121094 4.59375 L 22.808594 4.59375 C 23.042969 4.59375 23.265625 4.683594 23.425781 4.847656 C 23.589844 5.011719 23.683594 5.234375 23.683594 5.464844 L 23.683594 18.882812 C 23.683594 19.367188 23.292969 18.347656 22.808594 18.347656 L 1.191406 18.347656 C 0.957031 18.347656 0.738281 18.253906 0.574219 18.09375 C 0.410156 17.929688 0.316406 17.707031 0.316406 17.472656 L 0.316406 3.585938 C 0.316406 3.355469 0.410156 3.132812 0.574219 2.96875 C 0.738281 2.804688 0.957031 2.714844 1.191406 2.714844 Z M 1.191406 2.714844 "/>
<path style=" stroke:none;fill-rule:nonzero;fill:url(#linear1);" d="M 1.191406 5.664062 L 22.808594 5.664062 C 23.042969 5.664062 23.261719 5.753906 23.425781 5.917969 C 23.589844 6.082031 23.683594 6.304688 23.683594 6.535156 L 23.683594 20.421875 C 23.683594 20.65625 23.589844 20.875 23.425781 21.039062 C 23.261719 21.203125 23.042969 21.296875 22.808594 21.296875 L 1.191406 21.296875 C 0.957031 21.296875 0.734375 21.203125 0.574219 21.039062 C 0.410156 20.875 0.316406 20.65625 0.316406 20.421875 L 0.316406 6.535156 C 0.316406 6.304688 0.410156 6.082031 0.574219 5.917969 C 0.734375 5.753906 0.957031 5.664062 1.191406 5.664062 Z M 1.191406 5.664062 "/>
<use xlink:href="#surface5" mask="url(#mask0)"/>
<use xlink:href="#surface8" mask="url(#mask1)"/>
<use xlink:href="#surface11" mask="url(#mask2)"/>
</g>
</svg>
