
<svg xmlns="http://www.w3.org/2000/svg" xmlns:xlink="http://www.w3.org/1999/xlink" width="24px" height="24px" viewBox="0 0 24 24" version="1.1">
<defs>
<linearGradient id="linear0" gradientUnits="userSpaceOnUse" x1="-26.201" y1="1070.199951" x2="-26.201" y2="1082.599976" gradientTransform="matrix(0.265668,0,0,0.265668,13.08161,-281.603628)">
<stop offset="0" style="stop-color:rgb(47.058824%,76.47059%,99.215686%);stop-opacity:1;"/>
<stop offset="1" style="stop-color:rgb(48.235294%,77.64706%,100%);stop-opacity:1;"/>
</linearGradient>
<linearGradient id="linear1" gradientUnits="userSpaceOnUse" x1="-9.912" y1="1081.400024" x2="-9.912" y2="1139.800049" gradientTransform="matrix(0.265668,0,0,0.265668,13.08161,-281.603628)">
<stop offset="0" style="stop-color:rgb(20.784314%,64.705884%,98.823529%);stop-opacity:1;"/>
<stop offset="0.5" style="stop-color:rgb(27.058825%,75.294119%,100%);stop-opacity:1;"/>
<stop offset="1" style="stop-color:rgb(30.19608%,67.450982%,96.470588%);stop-opacity:1;"/>
</linearGradient>
<filter id="alpha" filterUnits="objectBoundingBox" x="0%" y="0%" width="100%" height="100%">
  <feColorMatrix type="matrix" in="SourceGraphic" values="0 0 0 0 1 0 0 0 0 1 0 0 0 0 1 0 0 0 1 0"/>
</filter>
<mask id="mask0">
  <g filter="url(#alpha)">
<rect x="0" y="0" width="24" height="24" style="fill:rgb(0%,0%,0%);fill-opacity:0.08;stroke:none;"/>
  </g>
</mask>
<clipPath id="clip1">
  <rect x="0" y="0" width="24" height="24"/>
</clipPath>
<g id="surface5" clip-path="url(#clip1)">
<path style=" stroke:none;fill-rule:nonzero;fill:rgb(0%,0%,0%);fill-opacity:1;" d="M 0.320312 19.683594 L 0.320312 19.949219 L 23.683594 19.949219 L 23.683594 19.683594 Z M 0.320312 20.269531 L 0.320312 20.410156 C 0.320312 20.453125 0.324219 20.492188 0.328125 20.535156 L 23.675781 20.535156 C 23.679688 20.492188 23.683594 20.453125 23.683594 20.410156 L 23.683594 20.269531 Z M 0.320312 20.269531 "/>
</g>
<mask id="mask1">
  <g filter="url(#alpha)">
<rect x="0" y="0" width="24" height="24" style="fill:rgb(0%,0%,0%);fill-opacity:0.25;stroke:none;"/>
  </g>
</mask>
<linearGradient id="linear2" gradientUnits="userSpaceOnUse" x1="-9.617" y1="1138.400024" x2="-9.617" y2="1140.199951" gradientTransform="matrix(0.265668,0,0,0.265668,13.08161,-281.603628)">
<stop offset="0" style="stop-color:rgb(0%,0%,0%);stop-opacity:0.046784;"/>
<stop offset="1" style="stop-color:rgb(0%,0%,0%);stop-opacity:1;"/>
</linearGradient>
<clipPath id="clip2">
  <rect x="0" y="0" width="24" height="24"/>
</clipPath>
<g id="surface8" clip-path="url(#clip2)">
<path style=" stroke:none;fill-rule:nonzero;fill:url(#linear2);" d="M 0.394531 20.78125 C 0.535156 21.09375 0.847656 21.296875 1.191406 21.292969 L 22.8125 21.292969 C 23.167969 21.292969 23.472656 21.082031 23.609375 20.78125 Z M 0.394531 20.78125 "/>
</g>
<mask id="mask2">
  <g filter="url(#alpha)">
<rect x="0" y="0" width="24" height="24" style="fill:rgb(0%,0%,0%);fill-opacity:0.15;stroke:none;"/>
  </g>
</mask>
<clipPath id="clip3">
  <rect x="0" y="0" width="24" height="24"/>
</clipPath>
<g id="surface11" clip-path="url(#clip3)">
<path style=" stroke:none;fill-rule:nonzero;fill:rgb(0%,0%,0%);fill-opacity:1;" d="M 6.800781 8.78125 C 6.375 8.78125 6.179688 8.921875 6.179688 9.175781 L 6.179688 17.074219 C 6.179688 17.082031 6.175781 17.085938 6.175781 17.097656 C 6.175781 17.789062 6.769531 18 7.082031 18 L 8.0625 18 C 8.074219 18.003906 8.089844 18.003906 8.101562 18.003906 L 16.15625 18.003906 C 16.171875 18.003906 16.1875 18.003906 16.199219 18 L 16.925781 18 C 17.242188 18 17.832031 17.789062 17.832031 17.097656 C 17.832031 17.085938 17.832031 17.078125 17.832031 17.070312 L 17.832031 9.175781 C 17.832031 8.921875 17.636719 8.78125 17.214844 8.78125 Z M 7.078125 10.78125 L 16.933594 10.78125 C 17.136719 10.78125 17.253906 10.953125 17.316406 11.171875 L 17.316406 17.074219 C 17.308594 17.308594 17.136719 17.578125 16.902344 17.578125 L 16.390625 17.578125 L 16.390625 15.492188 C 16.390625 15.363281 16.285156 15.261719 16.15625 15.261719 L 8.101562 15.261719 C 7.976562 15.261719 7.871094 15.363281 7.871094 15.492188 L 7.871094 17.578125 L 7.109375 17.578125 C 6.871094 17.578125 6.699219 17.304688 6.695312 17.074219 L 6.695312 11.175781 C 6.753906 10.957031 6.871094 10.78125 7.078125 10.78125 Z M 7.078125 10.78125 "/>
</g>
</defs>
<g id="surface1">
<path style=" stroke:none;fill-rule:nonzero;fill:url(#linear0);" d="M 1.191406 2.714844 L 7.070312 2.714844 C 7.941406 2.714844 8.304688 4.59375 9.121094 4.59375 L 22.808594 4.59375 C 23.042969 4.59375 23.265625 4.683594 23.425781 4.847656 C 23.589844 5.011719 23.683594 5.234375 23.683594 5.464844 L 23.683594 18.882812 C 23.683594 19.367188 23.292969 18.347656 22.808594 18.347656 L 1.191406 18.347656 C 0.957031 18.347656 0.738281 18.253906 0.574219 18.09375 C 0.410156 17.929688 0.316406 17.707031 0.316406 17.472656 L 0.316406 3.585938 C 0.316406 3.355469 0.410156 3.132812 0.574219 2.96875 C 0.738281 2.804688 0.957031 2.714844 1.191406 2.714844 Z M 1.191406 2.714844 "/>
<path style=" stroke:none;fill-rule:nonzero;fill:url(#linear1);" d="M 1.191406 5.664062 L 22.808594 5.664062 C 23.042969 5.664062 23.261719 5.753906 23.425781 5.917969 C 23.589844 6.082031 23.683594 6.304688 23.683594 6.535156 L 23.683594 20.421875 C 23.683594 20.65625 23.589844 20.875 23.425781 21.039062 C 23.261719 21.203125 23.042969 21.296875 22.808594 21.296875 L 1.191406 21.296875 C 0.957031 21.296875 0.734375 21.203125 0.574219 21.039062 C 0.410156 20.875 0.316406 20.65625 0.316406 20.421875 L 0.316406 6.535156 C 0.316406 6.304688 0.410156 6.082031 0.574219 5.917969 C 0.734375 5.753906 0.957031 5.664062 1.191406 5.664062 Z M 1.191406 5.664062 "/>
<use xlink:href="#surface5" mask="url(#mask0)"/>
<use xlink:href="#surface8" mask="url(#mask1)"/>
<use xlink:href="#surface11" mask="url(#mask2)"/>
</g>
</svg>
