
<svg xmlns="http://www.w3.org/2000/svg" xmlns:xlink="http://www.w3.org/1999/xlink" width="24px" height="24px" viewBox="0 0 24 24" version="1.1">
<defs>
<linearGradient id="linear0" gradientUnits="userSpaceOnUse" x1="9.93" y1="13.99" x2="54.07" y2="58.13" gradientTransform="matrix(0.375,0,0,0.375,0,0)">
<stop offset="0" style="stop-color:rgb(86.27451%,87.058824%,88.627451%);stop-opacity:1;"/>
<stop offset="1" style="stop-color:rgb(55.686275%,55.686275%,55.686275%);stop-opacity:1;"/>
</linearGradient>
</defs>
<g id="surface1">
<path style=" stroke:none;fill-rule:nonzero;fill:url(#linear0);" d="M 17.476562 23.378906 C 16.996094 23.375 16.523438 23.257812 16.097656 23.035156 L 12.46875 21.128906 C 12.175781 20.972656 11.824219 20.972656 11.53125 21.128906 L 7.902344 23.035156 C 6.90625 23.558594 5.699219 23.472656 4.792969 22.8125 C 3.882812 22.152344 3.425781 21.03125 3.613281 19.921875 L 4.308594 15.878906 C 4.359375 15.554688 4.253906 15.226562 4.019531 15 L 1.082031 12.125 C 0.277344 11.339844 -0.0117188 10.167969 0.335938 9.097656 C 0.683594 8.027344 1.605469 7.25 2.71875 7.085938 L 6.78125 6.5 C 7.105469 6.449219 7.386719 6.242188 7.53125 5.949219 L 9.347656 2.269531 C 9.84375 1.261719 10.871094 0.621094 11.996094 0.621094 C 13.121094 0.621094 14.148438 1.261719 14.644531 2.269531 L 16.460938 5.949219 C 16.609375 6.242188 16.886719 6.449219 17.210938 6.5 L 21.28125 7.085938 C 22.394531 7.25 23.316406 8.027344 23.664062 9.097656 C 24.011719 10.167969 23.722656 11.339844 22.917969 12.125 L 19.980469 15 C 19.742188 15.230469 19.636719 15.5625 19.691406 15.890625 L 20.386719 19.933594 C 20.53125 20.792969 20.292969 21.671875 19.730469 22.335938 C 19.171875 23.003906 18.34375 23.386719 17.476562 23.390625 Z M 17.476562 23.378906 "/>
<path style=" stroke:none;fill-rule:nonzero;fill:rgb(77.647059%,78.823529%,80%);fill-opacity:1;" d="M 12 0.808594 C 13.054688 0.804688 14.019531 1.40625 14.484375 2.351562 L 16.296875 6.03125 C 16.46875 6.382812 16.804688 6.625 17.195312 6.683594 L 21.253906 7.269531 C 22.300781 7.421875 23.167969 8.15625 23.492188 9.160156 C 23.816406 10.164062 23.546875 11.265625 22.789062 12 L 19.847656 14.859375 C 19.566406 15.132812 19.4375 15.523438 19.5 15.910156 L 20.195312 19.953125 C 20.375 20.992188 19.949219 22.042969 19.097656 22.664062 C 18.246094 23.28125 17.117188 23.363281 16.183594 22.875 L 12.554688 20.960938 C 12.203125 20.773438 11.78125 20.773438 11.429688 20.960938 L 7.816406 22.875 C 7.417969 23.082031 6.972656 23.191406 6.523438 23.195312 C 5.710938 23.191406 4.9375 22.832031 4.410156 22.207031 C 3.886719 21.585938 3.660156 20.761719 3.796875 19.957031 L 4.5 15.910156 C 4.566406 15.523438 4.441406 15.128906 4.160156 14.855469 L 1.210938 12 C 0.453125 11.265625 0.183594 10.164062 0.507812 9.160156 C 0.832031 8.15625 1.699219 7.421875 2.746094 7.269531 L 6.804688 6.683594 C 7.195312 6.625 7.53125 6.382812 7.703125 6.03125 L 9.515625 2.351562 C 9.980469 1.40625 10.945312 0.804688 12 0.808594 M 12 0.433594 C 10.804688 0.429688 9.707031 1.109375 9.183594 2.1875 L 7.367188 5.863281 C 7.246094 6.105469 7.015625 6.273438 6.75 6.3125 L 2.691406 6.898438 C 1.507812 7.074219 0.527344 7.902344 0.15625 9.039062 C -0.210938 10.175781 0.0976562 11.425781 0.953125 12.257812 L 3.890625 15.125 C 4.082031 15.3125 4.167969 15.582031 4.125 15.847656 L 3.429688 19.875 C 3.21875 21.058594 3.699219 22.257812 4.667969 22.964844 C 5.636719 23.671875 6.925781 23.765625 7.988281 23.203125 L 11.625 21.292969 C 11.859375 21.171875 12.140625 21.171875 12.375 21.292969 L 16.007812 23.203125 C 17.070312 23.761719 18.355469 23.667969 19.324219 22.960938 C 20.296875 22.253906 20.777344 21.054688 20.570312 19.875 L 19.875 15.847656 C 19.832031 15.582031 19.917969 15.3125 20.109375 15.125 L 23.046875 12.257812 C 23.902344 11.425781 24.210938 10.175781 23.84375 9.039062 C 23.472656 7.902344 22.492188 7.074219 21.308594 6.898438 L 17.25 6.3125 C 16.984375 6.273438 16.753906 6.105469 16.632812 5.863281 L 14.816406 2.1875 C 14.292969 1.109375 13.195312 0.429688 12 0.433594 Z M 12 0.433594 "/>
</g>
</svg>
