
<svg xmlns="http://www.w3.org/2000/svg" xmlns:xlink="http://www.w3.org/1999/xlink" width="24px" height="24px" viewBox="0 0 24 24" version="1.1">
<defs>
<linearGradient id="linear0" gradientUnits="userSpaceOnUse" x1="-26.201" y1="1070.199951" x2="-26.201" y2="1082.599976" gradientTransform="matrix(0.265668,0,0,0.265668,13.08119,-281.608428)">
<stop offset="0" style="stop-color:rgb(36.078432%,36.078432%,36.078432%);stop-opacity:1;"/>
<stop offset="1" style="stop-color:rgb(39.215687%,39.215687%,39.215687%);stop-opacity:1;"/>
</linearGradient>
<linearGradient id="linear1" gradientUnits="userSpaceOnUse" x1="-9.912" y1="1081.400024" x2="-9.912" y2="1139.800049" gradientTransform="matrix(0.265668,0,0,0.265668,13.08119,-281.608428)">
<stop offset="0" style="stop-color:rgb(20.392157%,20.392157%,20.392157%);stop-opacity:1;"/>
<stop offset="0.5" style="stop-color:rgb(25.098041%,25.098041%,25.098041%);stop-opacity:1;"/>
<stop offset="1" style="stop-color:rgb(20.784314%,20%,20%);stop-opacity:1;"/>
</linearGradient>
<filter id="alpha" filterUnits="objectBoundingBox" x="0%" y="0%" width="100%" height="100%">
  <feColorMatrix type="matrix" in="SourceGraphic" values="0 0 0 0 1 0 0 0 0 1 0 0 0 0 1 0 0 0 1 0"/>
</filter>
<mask id="mask0">
  <g filter="url(#alpha)">
<rect x="0" y="0" width="24" height="24" style="fill:rgb(0%,0%,0%);fill-opacity:0.08;stroke:none;"/>
  </g>
</mask>
<clipPath id="clip1">
  <rect x="0" y="0" width="24" height="24"/>
</clipPath>
<g id="surface5" clip-path="url(#clip1)">
<path style=" stroke:none;fill-rule:nonzero;fill:rgb(0%,0%,0%);fill-opacity:1;" d="M 0.320312 19.679688 L 0.320312 19.945312 L 23.683594 19.945312 L 23.683594 19.679688 Z M 0.320312 20.265625 L 0.320312 20.40625 C 0.320312 20.449219 0.324219 20.488281 0.328125 20.53125 L 23.675781 20.53125 C 23.679688 20.488281 23.683594 20.449219 23.683594 20.40625 L 23.683594 20.265625 Z M 0.320312 20.265625 "/>
</g>
<mask id="mask1">
  <g filter="url(#alpha)">
<rect x="0" y="0" width="24" height="24" style="fill:rgb(0%,0%,0%);fill-opacity:0.25;stroke:none;"/>
  </g>
</mask>
<linearGradient id="linear2" gradientUnits="userSpaceOnUse" x1="-9.617" y1="1138.400024" x2="-9.617" y2="1140.199951" gradientTransform="matrix(0.265668,0,0,0.265668,13.08119,-281.608428)">
<stop offset="0" style="stop-color:rgb(0%,0%,0%);stop-opacity:0.046784;"/>
<stop offset="1" style="stop-color:rgb(0%,0%,0%);stop-opacity:1;"/>
</linearGradient>
<clipPath id="clip2">
  <rect x="0" y="0" width="24" height="24"/>
</clipPath>
<g id="surface8" clip-path="url(#clip2)">
<path style=" stroke:none;fill-rule:nonzero;fill:url(#linear2);" d="M 0.394531 20.773438 C 0.535156 21.089844 0.847656 21.289062 1.191406 21.289062 L 22.8125 21.289062 C 23.167969 21.289062 23.472656 21.078125 23.609375 20.773438 Z M 0.394531 20.773438 "/>
</g>
<mask id="mask2">
  <g filter="url(#alpha)">
<rect x="0" y="0" width="24" height="24" style="fill:rgb(0%,0%,0%);fill-opacity:0.15;stroke:none;"/>
  </g>
</mask>
<clipPath id="clip3">
  <rect x="0" y="0" width="24" height="24"/>
</clipPath>
<g id="surface11" clip-path="url(#clip3)">
<path style=" stroke:none;fill-rule:nonzero;fill:rgb(100%,100%,100%);fill-opacity:1;" d="M 7.148438 11.328125 L 12 8.59375 L 16.878906 11.382812 L 16.878906 11.578125 L 7.132812 11.578125 Z M 12 10.800781 C 12.363281 10.800781 12.65625 10.507812 12.65625 10.144531 C 12.65625 9.78125 12.363281 9.488281 12 9.488281 C 11.636719 9.488281 11.34375 9.78125 11.34375 10.144531 C 11.34375 10.507812 11.636719 10.800781 12 10.800781 Z M 9.097656 16.855469 L 9.289062 16.855469 L 9.289062 17.167969 L 10.273438 17.167969 L 10.273438 16.855469 L 10.457031 16.855469 L 10.457031 12.628906 L 11.300781 12.628906 L 11.300781 16.855469 L 11.492188 16.855469 L 11.492188 17.167969 L 12.472656 17.167969 L 12.472656 16.855469 L 12.660156 16.855469 L 12.660156 12.628906 L 13.503906 12.628906 L 13.503906 16.855469 L 13.691406 16.855469 L 13.691406 17.167969 L 14.722656 17.167969 L 14.722656 16.855469 L 14.910156 16.855469 L 14.910156 12.628906 L 14.816406 12.628906 L 14.675781 11.972656 L 15.988281 11.972656 L 15.847656 12.628906 L 15.75 12.628906 L 15.75 16.855469 L 15.941406 16.855469 L 15.941406 17.167969 L 16.457031 17.167969 L 16.691406 17.730469 L 7.320312 17.730469 L 7.554688 17.167969 L 8.070312 17.167969 L 8.070312 16.855469 L 8.257812 16.855469 L 8.257812 12.628906 L 8.164062 12.628906 L 8.023438 11.972656 L 9.335938 11.972656 L 9.195312 12.628906 L 9.097656 12.628906 Z M 6.898438 18.054688 L 17.113281 18.054688 L 17.347656 18.621094 L 6.667969 18.621094 Z M 6.898438 18.054688 "/>
</g>
</defs>
<g id="surface1">
<path style=" stroke:none;fill-rule:nonzero;fill:url(#linear0);" d="M 1.1875 2.710938 L 7.070312 2.710938 C 7.941406 2.710938 8.304688 4.589844 9.121094 4.589844 L 22.808594 4.589844 C 23.042969 4.585938 23.261719 4.679688 23.425781 4.84375 C 23.589844 5.007812 23.683594 5.230469 23.683594 5.460938 L 23.683594 18.878906 C 23.683594 19.363281 23.292969 18.34375 22.808594 18.34375 L 1.191406 18.34375 C 0.957031 18.34375 0.734375 18.25 0.574219 18.085938 C 0.410156 17.921875 0.316406 17.703125 0.316406 17.46875 L 0.316406 3.582031 C 0.316406 3.351562 0.410156 3.128906 0.574219 2.964844 C 0.734375 2.800781 0.957031 2.710938 1.191406 2.710938 Z M 1.1875 2.710938 "/>
<path style=" stroke:none;fill-rule:nonzero;fill:url(#linear1);" d="M 1.1875 5.660156 L 22.808594 5.660156 C 23.039062 5.65625 23.261719 5.75 23.425781 5.914062 C 23.589844 6.078125 23.683594 6.300781 23.679688 6.53125 L 23.679688 20.417969 C 23.683594 20.648438 23.589844 20.871094 23.425781 21.035156 C 23.261719 21.199219 23.039062 21.292969 22.808594 21.289062 L 1.1875 21.289062 C 0.957031 21.292969 0.734375 21.199219 0.570312 21.035156 C 0.410156 20.871094 0.316406 20.648438 0.316406 20.417969 L 0.316406 6.53125 C 0.316406 6.300781 0.410156 6.078125 0.570312 5.914062 C 0.734375 5.75 0.957031 5.65625 1.1875 5.660156 Z M 1.1875 5.660156 "/>
<use xlink:href="#surface5" mask="url(#mask0)"/>
<use xlink:href="#surface8" mask="url(#mask1)"/>
<use xlink:href="#surface11" mask="url(#mask2)"/>
</g>
</svg>
