
<svg xmlns="http://www.w3.org/2000/svg" xmlns:xlink="http://www.w3.org/1999/xlink" width="24px" height="24px" viewBox="0 0 24 24" version="1.1">
<defs>
<linearGradient id="linear0" gradientUnits="userSpaceOnUse" x1="-26.201" y1="1070.199951" x2="-26.201" y2="1082.599976" gradientTransform="matrix(0.265668,0,0,0.265668,13.08119,-281.608428)">
<stop offset="0" style="stop-color:rgb(36.078432%,36.078432%,36.078432%);stop-opacity:1;"/>
<stop offset="1" style="stop-color:rgb(39.215687%,39.215687%,39.215687%);stop-opacity:1;"/>
</linearGradient>
<linearGradient id="linear1" gradientUnits="userSpaceOnUse" x1="-9.912" y1="1081.400024" x2="-9.912" y2="1139.800049" gradientTransform="matrix(0.265668,0,0,0.265668,13.08119,-281.608428)">
<stop offset="0" style="stop-color:rgb(20.392157%,20.392157%,20.392157%);stop-opacity:1;"/>
<stop offset="0.5" style="stop-color:rgb(25.098041%,25.098041%,25.098041%);stop-opacity:1;"/>
<stop offset="1" style="stop-color:rgb(20.784314%,20%,20%);stop-opacity:1;"/>
</linearGradient>
<filter id="alpha" filterUnits="objectBoundingBox" x="0%" y="0%" width="100%" height="100%">
  <feColorMatrix type="matrix" in="SourceGraphic" values="0 0 0 0 1 0 0 0 0 1 0 0 0 0 1 0 0 0 1 0"/>
</filter>
<mask id="mask0">
  <g filter="url(#alpha)">
<rect x="0" y="0" width="24" height="24" style="fill:rgb(0%,0%,0%);fill-opacity:0.08;stroke:none;"/>
  </g>
</mask>
<clipPath id="clip1">
  <rect x="0" y="0" width="24" height="24"/>
</clipPath>
<g id="surface5" clip-path="url(#clip1)">
<path style=" stroke:none;fill-rule:nonzero;fill:rgb(0%,0%,0%);fill-opacity:1;" d="M 0.320312 19.679688 L 0.320312 19.945312 L 23.683594 19.945312 L 23.683594 19.679688 Z M 0.320312 20.265625 L 0.320312 20.40625 C 0.320312 20.449219 0.324219 20.488281 0.328125 20.53125 L 23.675781 20.53125 C 23.679688 20.488281 23.683594 20.449219 23.683594 20.40625 L 23.683594 20.265625 Z M 0.320312 20.265625 "/>
</g>
<mask id="mask1">
  <g filter="url(#alpha)">
<rect x="0" y="0" width="24" height="24" style="fill:rgb(0%,0%,0%);fill-opacity:0.25;stroke:none;"/>
  </g>
</mask>
<linearGradient id="linear2" gradientUnits="userSpaceOnUse" x1="-9.617" y1="1138.400024" x2="-9.617" y2="1140.199951" gradientTransform="matrix(0.265668,0,0,0.265668,13.08119,-281.608428)">
<stop offset="0" style="stop-color:rgb(0%,0%,0%);stop-opacity:0.046784;"/>
<stop offset="1" style="stop-color:rgb(0%,0%,0%);stop-opacity:1;"/>
</linearGradient>
<clipPath id="clip2">
  <rect x="0" y="0" width="24" height="24"/>
</clipPath>
<g id="surface8" clip-path="url(#clip2)">
<path style=" stroke:none;fill-rule:nonzero;fill:url(#linear2);" d="M 0.394531 20.773438 C 0.535156 21.089844 0.847656 21.289062 1.191406 21.289062 L 22.8125 21.289062 C 23.167969 21.289062 23.472656 21.078125 23.609375 20.773438 Z M 0.394531 20.773438 "/>
</g>
<mask id="mask2">
  <g filter="url(#alpha)">
<rect x="0" y="0" width="24" height="24" style="fill:rgb(0%,0%,0%);fill-opacity:0.15;stroke:none;"/>
  </g>
</mask>
<clipPath id="clip3">
  <rect x="0" y="0" width="24" height="24"/>
</clipPath>
<g id="surface11" clip-path="url(#clip3)">
<path style=" stroke:none;fill-rule:nonzero;fill:rgb(100%,100%,100%);fill-opacity:1;" d="M 12.058594 9.835938 C 10.023438 9.835938 8.101562 10.734375 6.785156 12.300781 C 6.660156 12.449219 6.636719 12.652344 6.714844 12.824219 C 6.796875 13 6.972656 13.109375 7.160156 13.109375 C 7.300781 13.109375 7.441406 13.050781 7.539062 12.933594 C 8.667969 11.589844 10.316406 10.820312 12.058594 10.820312 C 13.800781 10.820312 15.449219 11.589844 16.578125 12.933594 C 16.675781 13.050781 16.8125 13.109375 16.953125 13.109375 C 17.144531 13.109375 17.320312 13 17.402344 12.824219 C 17.480469 12.652344 17.453125 12.449219 17.332031 12.300781 C 16.015625 10.734375 14.09375 9.835938 12.058594 9.835938 Z M 12.058594 11.921875 C 10.605469 11.921875 9.230469 12.5625 8.292969 13.679688 C 8.117188 13.890625 8.144531 14.199219 8.351562 14.375 C 8.558594 14.550781 8.871094 14.523438 9.046875 14.3125 C 9.792969 13.421875 10.894531 12.90625 12.058594 12.90625 C 13.21875 12.90625 14.320312 13.417969 15.070312 14.3125 C 15.167969 14.429688 15.308594 14.488281 15.449219 14.488281 C 15.640625 14.488281 15.8125 14.378906 15.894531 14.207031 C 15.972656 14.03125 15.945312 13.828125 15.824219 13.679688 C 14.882812 12.5625 13.511719 11.921875 12.058594 11.921875 Z M 12.058594 14.085938 C 11.1875 14.085938 10.359375 14.472656 9.796875 15.140625 C 9.714844 15.242188 9.671875 15.371094 9.683594 15.5 C 9.695312 15.628906 9.757812 15.75 9.859375 15.835938 C 9.957031 15.917969 10.085938 15.960938 10.21875 15.949219 C 10.347656 15.9375 10.46875 15.875 10.550781 15.773438 C 10.925781 15.328125 11.476562 15.070312 12.058594 15.070312 C 12.640625 15.070312 13.1875 15.328125 13.5625 15.773438 C 13.648438 15.875 13.769531 15.9375 13.898438 15.949219 C 14.027344 15.960938 14.15625 15.917969 14.257812 15.835938 C 14.355469 15.75 14.421875 15.628906 14.429688 15.5 C 14.441406 15.371094 14.402344 15.242188 14.316406 15.140625 C 13.757812 14.472656 12.929688 14.085938 12.058594 14.085938 Z M 12.015625 15.953125 C 11.632812 15.992188 11.261719 16.277344 11.25 16.707031 C 11.257812 17.148438 11.617188 17.503906 12.058594 17.503906 C 12.5 17.503906 12.859375 17.148438 12.867188 16.707031 C 12.800781 16.132812 12.402344 15.917969 12.015625 15.953125 Z M 12.015625 15.953125 "/>
</g>
</defs>
<g id="surface1">
<path style=" stroke:none;fill-rule:nonzero;fill:url(#linear0);" d="M 1.1875 2.710938 L 7.070312 2.710938 C 7.941406 2.710938 8.304688 4.589844 9.121094 4.589844 L 22.808594 4.589844 C 23.042969 4.585938 23.261719 4.679688 23.425781 4.84375 C 23.589844 5.007812 23.683594 5.230469 23.683594 5.460938 L 23.683594 18.878906 C 23.683594 19.363281 23.292969 18.34375 22.808594 18.34375 L 1.191406 18.34375 C 0.957031 18.34375 0.734375 18.25 0.574219 18.085938 C 0.410156 17.921875 0.316406 17.703125 0.316406 17.46875 L 0.316406 3.582031 C 0.316406 3.351562 0.410156 3.128906 0.574219 2.964844 C 0.734375 2.800781 0.957031 2.710938 1.191406 2.710938 Z M 1.1875 2.710938 "/>
<path style=" stroke:none;fill-rule:nonzero;fill:url(#linear1);" d="M 1.1875 5.660156 L 22.808594 5.660156 C 23.039062 5.65625 23.261719 5.75 23.425781 5.914062 C 23.589844 6.078125 23.683594 6.300781 23.679688 6.53125 L 23.679688 20.417969 C 23.683594 20.648438 23.589844 20.871094 23.425781 21.035156 C 23.261719 21.199219 23.039062 21.292969 22.808594 21.289062 L 1.1875 21.289062 C 0.957031 21.292969 0.734375 21.199219 0.570312 21.035156 C 0.410156 20.871094 0.316406 20.648438 0.316406 20.417969 L 0.316406 6.53125 C 0.316406 6.300781 0.410156 6.078125 0.570312 5.914062 C 0.734375 5.75 0.957031 5.65625 1.1875 5.660156 Z M 1.1875 5.660156 "/>
<use xlink:href="#surface5" mask="url(#mask0)"/>
<use xlink:href="#surface8" mask="url(#mask1)"/>
<use xlink:href="#surface11" mask="url(#mask2)"/>
</g>
</svg>
