
<svg xmlns="http://www.w3.org/2000/svg" xmlns:xlink="http://www.w3.org/1999/xlink" width="24px" height="24px" viewBox="0 0 24 24" version="1.1">
<defs>
<linearGradient id="linear0" gradientUnits="userSpaceOnUse" x1="-26.201" y1="1070.199951" x2="-26.201" y2="1082.599976" gradientTransform="matrix(0.265668,0,0,0.265668,13.1388,-281.387988)">
<stop offset="0" style="stop-color:rgb(47.058824%,85.09804%,99.215686%);stop-opacity:1;"/>
<stop offset="1" style="stop-color:rgb(48.235294%,87.058824%,100%);stop-opacity:1;"/>
</linearGradient>
<linearGradient id="linear1" gradientUnits="userSpaceOnUse" x1="-9.912" y1="1081.400024" x2="-9.912" y2="1139.800049" gradientTransform="matrix(0.265668,0,0,0.265668,13.1388,-281.387988)">
<stop offset="0" style="stop-color:rgb(20.784314%,79.215688%,98.823529%);stop-opacity:1;"/>
<stop offset="0.5" style="stop-color:rgb(31.37255%,83.137256%,100%);stop-opacity:1;"/>
<stop offset="1" style="stop-color:rgb(30.19608%,79.607844%,96.470588%);stop-opacity:1;"/>
</linearGradient>
<filter id="alpha" filterUnits="objectBoundingBox" x="0%" y="0%" width="100%" height="100%">
  <feColorMatrix type="matrix" in="SourceGraphic" values="0 0 0 0 1 0 0 0 0 1 0 0 0 0 1 0 0 0 1 0"/>
</filter>
<mask id="mask0">
  <g filter="url(#alpha)">
<rect x="0" y="0" width="24" height="24" style="fill:rgb(0%,0%,0%);fill-opacity:0.976;stroke:none;"/>
  </g>
</mask>
<clipPath id="clip1">
  <rect x="0" y="0" width="24" height="24"/>
</clipPath>
<g id="surface5" clip-path="url(#clip1)">
<path style=" stroke:none;fill-rule:nonzero;fill:rgb(23.137255%,75.686276%,94.509804%);fill-opacity:1;" d="M 0.378906 19.894531 L 0.378906 20.160156 L 23.742188 20.160156 L 23.742188 19.894531 Z M 0.378906 20.484375 L 0.378906 20.628906 C 0.378906 20.671875 0.382812 20.710938 0.386719 20.75 L 23.730469 20.75 C 23.738281 20.710938 23.742188 20.671875 23.742188 20.628906 L 23.742188 20.484375 Z M 0.378906 20.484375 "/>
</g>
<mask id="mask1">
  <g filter="url(#alpha)">
<rect x="0" y="0" width="24" height="24" style="fill:rgb(0%,0%,0%);fill-opacity:0.976;stroke:none;"/>
  </g>
</mask>
<linearGradient id="linear2" gradientUnits="userSpaceOnUse" x1="-9.617" y1="1138.400024" x2="-9.617" y2="1140.199951" gradientTransform="matrix(0.265668,0,0,0.265668,13.1388,-281.387988)">
<stop offset="0" style="stop-color:rgb(23.137255%,75.686276%,94.509804%);stop-opacity:1;"/>
<stop offset="1" style="stop-color:rgb(5.490196%,58.431375%,77.254903%);stop-opacity:1;"/>
</linearGradient>
<clipPath id="clip2">
  <rect x="0" y="0" width="24" height="24"/>
</clipPath>
<g id="surface8" clip-path="url(#clip2)">
<path style=" stroke:none;fill-rule:nonzero;fill:url(#linear2);" d="M 0.453125 20.996094 C 0.59375 21.308594 0.90625 21.511719 1.25 21.511719 L 22.867188 21.511719 C 23.226562 21.511719 23.53125 21.300781 23.664062 20.996094 Z M 0.453125 20.996094 "/>
</g>
<linearGradient id="linear3" gradientUnits="userSpaceOnUse" x1="8" y1="2" x2="8" y2="14" gradientTransform="matrix(0.759996,0,0,0.759996,5.91996,7.23996)">
<stop offset="0" style="stop-color:rgb(1.176471%,71.372551%,92.54902%);stop-opacity:1;"/>
<stop offset="1" style="stop-color:rgb(7.450981%,75.294119%,96.862745%);stop-opacity:1;"/>
</linearGradient>
<linearGradient id="linear4" gradientUnits="userSpaceOnUse" x1="8" y1="2" x2="8" y2="14" gradientTransform="matrix(0.759996,0,0,0.759996,5.91996,7.23996)">
<stop offset="0" style="stop-color:rgb(1.176471%,71.372551%,92.54902%);stop-opacity:1;"/>
<stop offset="1" style="stop-color:rgb(7.450981%,75.294119%,96.862745%);stop-opacity:1;"/>
</linearGradient>
</defs>
<g id="surface1">
<path style=" stroke:none;fill-rule:nonzero;fill:url(#linear0);" d="M 1.246094 2.929688 L 7.125 2.929688 C 8 2.929688 8.363281 4.808594 9.179688 4.808594 L 22.867188 4.808594 C 23.097656 4.808594 23.320312 4.898438 23.484375 5.0625 C 23.648438 5.226562 23.738281 5.449219 23.738281 5.679688 L 23.738281 19.097656 C 23.738281 19.582031 23.351562 18.5625 22.867188 18.5625 L 1.246094 18.5625 C 1.015625 18.5625 0.792969 18.472656 0.628906 18.308594 C 0.464844 18.144531 0.375 17.921875 0.375 17.691406 L 0.375 3.800781 C 0.375 3.570312 0.464844 3.347656 0.628906 3.183594 C 0.792969 3.019531 1.015625 2.929688 1.246094 2.929688 Z M 1.246094 2.929688 "/>
<path style=" stroke:none;fill-rule:nonzero;fill:url(#linear1);" d="M 1.246094 5.878906 L 22.867188 5.878906 C 23.097656 5.878906 23.320312 5.96875 23.484375 6.132812 C 23.648438 6.296875 23.738281 6.519531 23.738281 6.75 L 23.738281 20.640625 C 23.738281 20.871094 23.648438 21.09375 23.484375 21.257812 C 23.320312 21.417969 23.097656 21.511719 22.867188 21.511719 L 1.246094 21.511719 C 1.015625 21.511719 0.792969 21.417969 0.628906 21.257812 C 0.464844 21.09375 0.375 20.871094 0.375 20.640625 L 0.375 6.75 C 0.375 6.519531 0.464844 6.296875 0.628906 6.132812 C 0.792969 5.96875 1.015625 5.878906 1.246094 5.878906 Z M 1.246094 5.878906 "/>
<use xlink:href="#surface5" mask="url(#mask0)"/>
<use xlink:href="#surface8" mask="url(#mask1)"/>
<path style=" stroke:none;fill-rule:nonzero;fill:url(#linear3);" d="M 13.519531 8.761719 L 12 8.761719 L 7.441406 17.878906 L 8.960938 17.878906 Z M 13.519531 8.761719 "/>
<path style=" stroke:none;fill-rule:nonzero;fill:url(#linear4);" d="M 12 17.121094 L 16.558594 17.121094 L 16.558594 17.878906 L 12 17.878906 Z M 12 17.121094 "/>
</g>
</svg>
