
<svg xmlns="http://www.w3.org/2000/svg" xmlns:xlink="http://www.w3.org/1999/xlink" width="24px" height="24px" viewBox="0 0 24 24" version="1.1">
<defs>
<linearGradient id="linear0" gradientUnits="userSpaceOnUse" x1="32" y1="3.8" x2="32" y2="23.49" gradientTransform="matrix(0.375,0,0,0.375,0,0)">
<stop offset="0" style="stop-color:rgb(25.490198%,74.117649%,83.137256%);stop-opacity:1;"/>
<stop offset="1" style="stop-color:rgb(50.980395%,32.549021%,83.92157%);stop-opacity:1;"/>
</linearGradient>
<linearGradient id="linear1" gradientUnits="userSpaceOnUse" x1="32" y1="60.900002" x2="32" y2="18.719999" gradientTransform="matrix(0.375,0,0,0.375,0,0)">
<stop offset="0" style="stop-color:rgb(86.274511%,87.058824%,88.627452%);stop-opacity:1;"/>
<stop offset="0.57" style="stop-color:rgb(87.058824%,87.843138%,89.411765%);stop-opacity:1;"/>
<stop offset="0.81" style="stop-color:rgb(89.803922%,90.588236%,91.764706%);stop-opacity:1;"/>
<stop offset="0.99" style="stop-color:rgb(94.901961%,95.294118%,95.686275%);stop-opacity:1;"/>
<stop offset="1" style="stop-color:rgb(95.294118%,95.686275%,96.078432%);stop-opacity:1;"/>
</linearGradient>
</defs>
<g id="surface1">
<path style=" stroke:none;fill-rule:nonzero;fill:url(#linear0);" d="M 24 7.992188 C 23.996094 6.929688 23.136719 6.070312 22.074219 6.070312 L 15.542969 6.070312 C 14.207031 6.070312 13.117188 5.003906 13.089844 3.667969 C 13.113281 2.308594 12.027344 1.1875 10.667969 1.164062 L 1.269531 1.164062 C 0.566406 1.164062 0 1.730469 0 2.429688 L 0 8.78125 L 24 8.78125 Z M 24 7.992188 "/>
<path style=" stroke:none;fill-rule:nonzero;fill:url(#linear1);" d="M 22.074219 7.019531 L 1.925781 7.019531 C 0.859375 7.019531 0 7.882812 0 8.945312 L 0 20.917969 C 0.00390625 21.976562 0.863281 22.835938 1.925781 22.835938 L 22.074219 22.835938 C 23.136719 22.835938 23.996094 21.976562 24 20.917969 L 24 8.945312 C 24 7.882812 23.140625 7.019531 22.074219 7.019531 Z M 22.074219 7.019531 "/>
</g>
</svg>
