
<svg xmlns="http://www.w3.org/2000/svg" xmlns:xlink="http://www.w3.org/1999/xlink" width="24px" height="24px" viewBox="0 0 24 24" version="1.1">
<defs>
<linearGradient id="linear0" gradientUnits="userSpaceOnUse" x1="32" y1="3.8" x2="32" y2="23.49" gradientTransform="matrix(0.375,0,0,0.375,0,0)">
<stop offset="0" style="stop-color:rgb(16.078432%,71.372551%,96.470588%);stop-opacity:1;"/>
<stop offset="0.67" style="stop-color:rgb(39.607844%,45.09804%,82.745099%);stop-opacity:1;"/>
<stop offset="1" style="stop-color:rgb(49.411765%,34.117648%,76.862746%);stop-opacity:1;"/>
</linearGradient>
<linearGradient id="linear1" gradientUnits="userSpaceOnUse" x1="32" y1="60.900002" x2="32" y2="18.719999" gradientTransform="matrix(0.375,0,0,0.375,0,0)">
<stop offset="0" style="stop-color:rgb(86.274511%,87.058824%,88.627452%);stop-opacity:1;"/>
<stop offset="0.57" style="stop-color:rgb(87.058824%,87.843138%,89.411765%);stop-opacity:1;"/>
<stop offset="0.81" style="stop-color:rgb(89.803922%,90.588236%,91.764706%);stop-opacity:1;"/>
<stop offset="0.99" style="stop-color:rgb(94.901961%,95.294118%,95.686275%);stop-opacity:1;"/>
<stop offset="1" style="stop-color:rgb(95.294118%,95.686275%,96.078432%);stop-opacity:1;"/>
</linearGradient>
<linearGradient id="linear2" gradientUnits="userSpaceOnUse" x1="32" y1="51.889999" x2="32" y2="31.52" gradientTransform="matrix(0.375,0,0,0.375,0,0)">
<stop offset="0" style="stop-color:rgb(75.294119%,75.294119%,75.294119%);stop-opacity:1;"/>
<stop offset="1" style="stop-color:rgb(55.686277%,55.686277%,55.686277%);stop-opacity:1;"/>
</linearGradient>
<linearGradient id="linear3" gradientUnits="userSpaceOnUse" x1="32.009998" y1="51.889999" x2="32.009998" y2="31.52" gradientTransform="matrix(0.375,0,0,0.375,0,0)">
<stop offset="0" style="stop-color:rgb(75.294119%,75.294119%,75.294119%);stop-opacity:1;"/>
<stop offset="1" style="stop-color:rgb(55.686277%,55.686277%,55.686277%);stop-opacity:1;"/>
</linearGradient>
<linearGradient id="linear4" gradientUnits="userSpaceOnUse" x1="32" y1="51.889999" x2="32" y2="31.52" gradientTransform="matrix(0.375,0,0,0.375,0,0)">
<stop offset="0" style="stop-color:rgb(75.294119%,75.294119%,75.294119%);stop-opacity:1;"/>
<stop offset="1" style="stop-color:rgb(55.686277%,55.686277%,55.686277%);stop-opacity:1;"/>
</linearGradient>
</defs>
<g id="surface1">
<path style=" stroke:none;fill-rule:nonzero;fill:url(#linear0);" d="M 24 7.992188 C 23.996094 6.929688 23.136719 6.070312 22.074219 6.070312 L 15.542969 6.070312 C 14.207031 6.070312 13.117188 5.003906 13.089844 3.667969 C 13.113281 2.308594 12.027344 1.1875 10.667969 1.164062 L 1.269531 1.164062 C 0.566406 1.164062 0 1.730469 0 2.429688 L 0 8.78125 L 24 8.78125 Z M 24 7.992188 "/>
<path style=" stroke:none;fill-rule:nonzero;fill:url(#linear1);" d="M 22.074219 7.019531 L 1.925781 7.019531 C 0.859375 7.019531 0 7.882812 0 8.945312 L 0 20.917969 C 0.00390625 21.976562 0.863281 22.835938 1.925781 22.835938 L 22.074219 22.835938 C 23.136719 22.835938 23.996094 21.976562 24 20.917969 L 24 8.945312 C 24 7.882812 23.140625 7.019531 22.074219 7.019531 Z M 22.074219 7.019531 "/>
<path style=" stroke:none;fill-rule:nonzero;fill:url(#linear2);" d="M 9.082031 12.171875 C 7.472656 13.785156 7.472656 16.394531 9.082031 18.007812 C 10.695312 19.617188 13.304688 19.617188 14.917969 18.007812 C 16.527344 16.394531 16.527344 13.785156 14.917969 12.171875 C 13.304688 10.5625 10.695312 10.5625 9.082031 12.171875 Z M 14.402344 17.492188 C 13.183594 18.699219 11.253906 18.808594 9.902344 17.746094 L 11.480469 16.175781 C 11.566406 16.09375 11.609375 15.980469 11.601562 15.867188 C 11.589844 15.75 11.527344 15.644531 11.429688 15.582031 C 11.265625 15.472656 11.050781 15.5 10.917969 15.640625 L 9.359375 17.195312 C 8.226562 15.765625 8.425781 13.695312 9.8125 12.507812 C 11.199219 11.316406 13.273438 11.4375 14.515625 12.777344 C 15.757812 14.117188 15.714844 16.199219 14.421875 17.492188 Z M 14.402344 17.492188 "/>
<path style=" stroke:none;fill-rule:nonzero;fill:url(#linear3);" d="M 11.941406 12.417969 C 11.753906 12.460938 11.621094 12.628906 11.625 12.820312 L 11.625 13.90625 C 11.625 14.117188 11.796875 14.289062 12.011719 14.289062 C 12.226562 14.289062 12.398438 14.117188 12.398438 13.90625 L 12.398438 12.804688 C 12.402344 12.6875 12.351562 12.574219 12.265625 12.5 C 12.171875 12.421875 12.054688 12.394531 11.941406 12.417969 Z M 11.941406 12.417969 "/>
<path style=" stroke:none;fill-rule:nonzero;fill:url(#linear4);" d="M 11.53125 15.09375 C 11.53125 15.285156 11.644531 15.460938 11.820312 15.53125 C 11.996094 15.605469 12.203125 15.566406 12.335938 15.429688 C 12.472656 15.296875 12.511719 15.089844 12.4375 14.914062 C 12.367188 14.738281 12.191406 14.625 12 14.625 C 11.742188 14.628906 11.535156 14.835938 11.53125 15.09375 Z M 11.53125 15.09375 "/>
</g>
</svg>
