
<svg xmlns="http://www.w3.org/2000/svg" xmlns:xlink="http://www.w3.org/1999/xlink" width="24px" height="24px" viewBox="0 0 24 24" version="1.1">
<defs>
<linearGradient id="linear0" gradientUnits="userSpaceOnUse" x1="32" y1="3.8" x2="32" y2="23.49" gradientTransform="matrix(0.375,0,0,0.375,0,0)">
<stop offset="0" style="stop-color:rgb(16.078432%,71.372551%,96.470588%);stop-opacity:1;"/>
<stop offset="0.67" style="stop-color:rgb(39.607844%,45.09804%,82.745099%);stop-opacity:1;"/>
<stop offset="1" style="stop-color:rgb(49.411765%,34.117648%,76.862746%);stop-opacity:1;"/>
</linearGradient>
<linearGradient id="linear1" gradientUnits="userSpaceOnUse" x1="32" y1="60.900002" x2="32" y2="18.719999" gradientTransform="matrix(0.375,0,0,0.375,0,0)">
<stop offset="0" style="stop-color:rgb(86.274511%,87.058824%,88.627452%);stop-opacity:1;"/>
<stop offset="0.57" style="stop-color:rgb(87.058824%,87.843138%,89.411765%);stop-opacity:1;"/>
<stop offset="0.81" style="stop-color:rgb(89.803922%,90.588236%,91.764706%);stop-opacity:1;"/>
<stop offset="0.99" style="stop-color:rgb(94.901961%,95.294118%,95.686275%);stop-opacity:1;"/>
<stop offset="1" style="stop-color:rgb(95.294118%,95.686275%,96.078432%);stop-opacity:1;"/>
</linearGradient>
<linearGradient id="linear2" gradientUnits="userSpaceOnUse" x1="32" y1="49.650002" x2="32" y2="33.139999" gradientTransform="matrix(0.375,0,0,0.375,0,0)">
<stop offset="0" style="stop-color:rgb(75.294119%,75.294119%,75.294119%);stop-opacity:1;"/>
<stop offset="1" style="stop-color:rgb(55.686277%,55.686277%,55.686277%);stop-opacity:1;"/>
</linearGradient>
<linearGradient id="linear3" gradientUnits="userSpaceOnUse" x1="25.940001" y1="49.650002" x2="25.940001" y2="33.139999" gradientTransform="matrix(0.375,0,0,0.375,0,0)">
<stop offset="0" style="stop-color:rgb(75.294119%,75.294119%,75.294119%);stop-opacity:1;"/>
<stop offset="1" style="stop-color:rgb(55.686277%,55.686277%,55.686277%);stop-opacity:1;"/>
</linearGradient>
<linearGradient id="linear4" gradientUnits="userSpaceOnUse" x1="25.940001" y1="49.650002" x2="25.940001" y2="33.139999" gradientTransform="matrix(0.375,0,0,0.375,0,0)">
<stop offset="0" style="stop-color:rgb(75.294119%,75.294119%,75.294119%);stop-opacity:1;"/>
<stop offset="1" style="stop-color:rgb(55.686277%,55.686277%,55.686277%);stop-opacity:1;"/>
</linearGradient>
<linearGradient id="linear5" gradientUnits="userSpaceOnUse" x1="25.940001" y1="49.650002" x2="25.940001" y2="33.139999" gradientTransform="matrix(0.375,0,0,0.375,0,0)">
<stop offset="0" style="stop-color:rgb(75.294119%,75.294119%,75.294119%);stop-opacity:1;"/>
<stop offset="1" style="stop-color:rgb(55.686277%,55.686277%,55.686277%);stop-opacity:1;"/>
</linearGradient>
<linearGradient id="linear6" gradientUnits="userSpaceOnUse" x1="25.940001" y1="49.650002" x2="25.940001" y2="33.139999" gradientTransform="matrix(0.375,0,0,0.375,0,0)">
<stop offset="0" style="stop-color:rgb(75.294119%,75.294119%,75.294119%);stop-opacity:1;"/>
<stop offset="1" style="stop-color:rgb(55.686277%,55.686277%,55.686277%);stop-opacity:1;"/>
</linearGradient>
</defs>
<g id="surface1">
<path style=" stroke:none;fill-rule:nonzero;fill:url(#linear0);" d="M 24 7.992188 C 23.996094 6.929688 23.136719 6.070312 22.074219 6.070312 L 15.542969 6.070312 C 14.207031 6.070312 13.117188 5.003906 13.089844 3.667969 C 13.113281 2.308594 12.027344 1.1875 10.667969 1.164062 L 1.269531 1.164062 C 0.566406 1.164062 0 1.730469 0 2.429688 L 0 8.78125 L 24 8.78125 Z M 24 7.992188 "/>
<path style=" stroke:none;fill-rule:nonzero;fill:url(#linear1);" d="M 22.074219 7.019531 L 1.925781 7.019531 C 0.859375 7.019531 0 7.882812 0 8.945312 L 0 20.917969 C 0.00390625 21.976562 0.863281 22.835938 1.925781 22.835938 L 22.074219 22.835938 C 23.136719 22.835938 23.996094 21.976562 24 20.917969 L 24 8.945312 C 24 7.882812 23.140625 7.019531 22.074219 7.019531 Z M 22.074219 7.019531 "/>
<path style=" stroke:none;fill-rule:nonzero;fill:url(#linear2);" d="M 16.789062 12.628906 C 16.367188 12.457031 15.933594 12.320312 15.488281 12.226562 L 15.488281 10.351562 C 15.484375 10.277344 15.453125 10.210938 15.398438 10.164062 C 15.34375 10.117188 15.269531 10.097656 15.199219 10.109375 C 13.445312 10.421875 12.257812 11.984375 11.902344 12.535156 C 9.042969 11.453125 7.246094 12.585938 7.167969 12.632812 C 7.097656 12.679688 7.054688 12.757812 7.058594 12.839844 L 7.058594 18.621094 C 7.058594 18.710938 7.109375 18.789062 7.1875 18.832031 C 7.261719 18.875 7.355469 18.875 7.433594 18.828125 C 7.433594 18.828125 9.183594 17.742188 11.902344 18.828125 L 12.074219 18.828125 C 12.074219 18.828125 13.832031 17.742188 16.550781 18.828125 C 16.578125 18.84375 16.609375 18.847656 16.644531 18.847656 C 16.691406 18.847656 16.738281 18.832031 16.777344 18.804688 C 16.84375 18.761719 16.886719 18.683594 16.886719 18.601562 L 16.886719 12.859375 C 16.898438 12.769531 16.859375 12.683594 16.789062 12.628906 Z M 11.757812 18.253906 C 11.035156 17.988281 10.273438 17.851562 9.507812 17.84375 C 8.839844 17.835938 8.175781 17.960938 7.558594 18.21875 L 7.558594 13 C 7.976562 12.789062 9.523438 12.164062 11.769531 13.023438 Z M 16.449219 18.253906 C 15.730469 17.988281 14.96875 17.847656 14.199219 17.84375 C 13.695312 17.839844 13.1875 17.90625 12.699219 18.050781 C 13.222656 17.421875 14.121094 16.566406 15.273438 16.367188 C 15.394531 16.347656 15.484375 16.246094 15.488281 16.125 L 15.488281 12.75 C 15.816406 12.824219 16.136719 12.921875 16.449219 13.042969 Z M 16.449219 18.253906 "/>
<path style=" stroke:none;fill-rule:nonzero;fill:url(#linear3);" d="M 8.191406 13.53125 C 8.066406 13.585938 8.011719 13.730469 8.066406 13.851562 C 8.121094 13.976562 8.265625 14.03125 8.386719 13.976562 C 9.265625 13.679688 10.222656 13.722656 11.070312 14.101562 C 11.101562 14.105469 11.132812 14.105469 11.164062 14.101562 C 11.265625 14.082031 11.34375 14.007812 11.363281 13.90625 C 11.382812 13.804688 11.339844 13.703125 11.25 13.648438 C 10.285156 13.214844 9.1875 13.171875 8.191406 13.53125 Z M 8.191406 13.53125 "/>
<path style=" stroke:none;fill-rule:nonzero;fill:url(#linear4);" d="M 11.25 14.75 C 10.285156 14.3125 9.1875 14.265625 8.191406 14.625 C 8.128906 14.652344 8.082031 14.699219 8.058594 14.757812 C 8.035156 14.820312 8.039062 14.890625 8.066406 14.945312 C 8.125 15.066406 8.265625 15.121094 8.386719 15.070312 C 9.265625 14.769531 10.226562 14.816406 11.070312 15.195312 C 11.101562 15.207031 11.132812 15.210938 11.164062 15.214844 C 11.265625 15.214844 11.355469 15.152344 11.386719 15.058594 C 11.433594 14.9375 11.375 14.796875 11.25 14.75 Z M 11.25 14.75 "/>
<path style=" stroke:none;fill-rule:nonzero;fill:url(#linear5);" d="M 11.25 15.851562 C 10.28125 15.425781 9.183594 15.386719 8.191406 15.75 C 8.066406 15.804688 8.011719 15.949219 8.066406 16.070312 C 8.121094 16.195312 8.265625 16.25 8.386719 16.195312 C 9.265625 15.898438 10.222656 15.945312 11.070312 16.324219 C 11.101562 16.335938 11.132812 16.339844 11.164062 16.34375 C 11.300781 16.367188 11.429688 16.277344 11.453125 16.140625 C 11.476562 16.003906 11.386719 15.875 11.25 15.851562 Z M 11.25 15.851562 "/>
<path style=" stroke:none;fill-rule:nonzero;fill:url(#linear6);" d="M 11.25 16.949219 C 10.28125 16.515625 9.183594 16.472656 8.183594 16.835938 C 8.125 16.859375 8.078125 16.910156 8.054688 16.96875 C 8.03125 17.03125 8.03125 17.097656 8.058594 17.15625 C 8.117188 17.277344 8.257812 17.332031 8.382812 17.28125 C 9.257812 16.984375 10.214844 17.027344 11.0625 17.402344 C 11.09375 17.417969 11.125 17.421875 11.15625 17.421875 C 11.253906 17.421875 11.34375 17.363281 11.382812 17.273438 C 11.433594 17.148438 11.375 17.003906 11.25 16.949219 Z M 11.25 16.949219 "/>
</g>
</svg>
