
<svg xmlns="http://www.w3.org/2000/svg" xmlns:xlink="http://www.w3.org/1999/xlink" width="24px" height="24px" viewBox="0 0 24 24" version="1.1">
<defs>
<linearGradient id="linear0" gradientUnits="userSpaceOnUse" x1="32" y1="3.8" x2="32" y2="23.49" gradientTransform="matrix(0.375,0,0,0.375,0,0)">
<stop offset="0" style="stop-color:rgb(16.078432%,71.372551%,96.470588%);stop-opacity:1;"/>
<stop offset="0.67" style="stop-color:rgb(39.607844%,45.09804%,82.745099%);stop-opacity:1;"/>
<stop offset="1" style="stop-color:rgb(49.411765%,34.117648%,76.862746%);stop-opacity:1;"/>
</linearGradient>
<linearGradient id="linear1" gradientUnits="userSpaceOnUse" x1="32" y1="60.900002" x2="32" y2="18.719999" gradientTransform="matrix(0.375,0,0,0.375,0,0)">
<stop offset="0" style="stop-color:rgb(86.274511%,87.058824%,88.627452%);stop-opacity:1;"/>
<stop offset="0.57" style="stop-color:rgb(87.058824%,87.843138%,89.411765%);stop-opacity:1;"/>
<stop offset="0.81" style="stop-color:rgb(89.803922%,90.588236%,91.764706%);stop-opacity:1;"/>
<stop offset="0.99" style="stop-color:rgb(94.901961%,95.294118%,95.686275%);stop-opacity:1;"/>
<stop offset="1" style="stop-color:rgb(95.294118%,95.686275%,96.078432%);stop-opacity:1;"/>
</linearGradient>
<linearGradient id="linear2" gradientUnits="userSpaceOnUse" x1="32" y1="32.900002" x2="32" y2="49.02" gradientTransform="matrix(0.375,0,0,0.375,0,0)">
<stop offset="0" style="stop-color:rgb(55.686277%,55.686277%,55.686277%);stop-opacity:1;"/>
<stop offset="1" style="stop-color:rgb(75.294119%,75.294119%,75.294119%);stop-opacity:1;"/>
</linearGradient>
<linearGradient id="linear3" gradientUnits="userSpaceOnUse" x1="32" y1="32.900002" x2="32" y2="49.02" gradientTransform="matrix(0.375,0,0,0.375,0,0)">
<stop offset="0" style="stop-color:rgb(55.686277%,55.686277%,55.686277%);stop-opacity:1;"/>
<stop offset="1" style="stop-color:rgb(75.294119%,75.294119%,75.294119%);stop-opacity:1;"/>
</linearGradient>
</defs>
<g id="surface1">
<path style=" stroke:none;fill-rule:nonzero;fill:url(#linear0);" d="M 24 7.992188 C 23.996094 6.929688 23.136719 6.070312 22.074219 6.070312 L 15.542969 6.070312 C 14.207031 6.070312 13.117188 5.003906 13.089844 3.667969 C 13.113281 2.308594 12.027344 1.1875 10.667969 1.164062 L 1.269531 1.164062 C 0.566406 1.164062 0 1.730469 0 2.429688 L 0 8.78125 L 24 8.78125 Z M 24 7.992188 "/>
<path style=" stroke:none;fill-rule:nonzero;fill:url(#linear1);" d="M 22.074219 7.019531 L 1.925781 7.019531 C 0.859375 7.019531 0 7.882812 0 8.945312 L 0 20.917969 C 0.00390625 21.976562 0.863281 22.835938 1.925781 22.835938 L 22.074219 22.835938 C 23.136719 22.835938 23.996094 21.976562 24 20.917969 L 24 8.945312 C 24 7.882812 23.140625 7.019531 22.074219 7.019531 Z M 22.074219 7.019531 "/>
<path style=" stroke:none;fill-rule:nonzero;fill:url(#linear2);" d="M 14.824219 18.667969 L 9.175781 18.667969 C 8.363281 18.667969 7.703125 18.011719 7.703125 17.195312 L 7.703125 15.53125 C 7.703125 15.316406 7.878906 15.144531 8.09375 15.144531 C 8.308594 15.144531 8.480469 15.316406 8.480469 15.53125 L 8.480469 17.195312 C 8.480469 17.582031 8.792969 17.890625 9.175781 17.890625 L 14.824219 17.890625 C 15.207031 17.890625 15.519531 17.582031 15.519531 17.195312 L 15.519531 15.53125 C 15.519531 15.316406 15.691406 15.144531 15.90625 15.144531 C 16.121094 15.144531 16.296875 15.316406 16.296875 15.53125 L 16.296875 17.195312 C 16.296875 18.011719 15.636719 18.667969 14.824219 18.667969 Z M 14.824219 18.667969 "/>
<path style=" stroke:none;fill-rule:nonzero;fill:url(#linear3);" d="M 12 17.09375 C 11.863281 17.09375 11.726562 17.046875 11.625 16.953125 L 8.867188 14.53125 C 8.691406 14.375 8.632812 14.128906 8.714844 13.910156 C 8.792969 13.683594 9.003906 13.535156 9.242188 13.535156 L 9.949219 13.535156 L 9.949219 11.660156 C 9.949219 11.445312 10.125 11.269531 10.339844 11.269531 C 10.554688 11.269531 10.730469 11.445312 10.730469 11.660156 L 10.730469 13.75 C 10.726562 14.058594 10.476562 14.308594 10.167969 14.308594 L 9.816406 14.308594 L 12 16.246094 L 14.179688 14.324219 L 13.832031 14.324219 C 13.519531 14.324219 13.273438 14.074219 13.273438 13.765625 L 13.273438 11.675781 C 13.273438 11.460938 13.445312 11.285156 13.660156 11.285156 C 13.875 11.285156 14.046875 11.460938 14.046875 11.675781 L 14.046875 13.550781 L 14.757812 13.550781 C 14.988281 13.546875 15.199219 13.691406 15.28125 13.910156 C 15.367188 14.128906 15.304688 14.375 15.132812 14.53125 L 12.375 16.953125 C 12.273438 17.046875 12.136719 17.09375 12 17.09375 Z M 11.855469 16.367188 Z M 11.855469 16.367188 "/>
</g>
</svg>
