
<svg xmlns="http://www.w3.org/2000/svg" xmlns:xlink="http://www.w3.org/1999/xlink" width="24px" height="24px" viewBox="0 0 24 24" version="1.1">
<defs>
<linearGradient id="linear0" gradientUnits="userSpaceOnUse" x1="32" y1="3.8" x2="32" y2="23.49" gradientTransform="matrix(0.375,0,0,0.375,0,0)">
<stop offset="0" style="stop-color:rgb(16.078432%,71.372551%,96.470588%);stop-opacity:1;"/>
<stop offset="0.67" style="stop-color:rgb(39.607844%,45.09804%,82.745099%);stop-opacity:1;"/>
<stop offset="1" style="stop-color:rgb(49.411765%,34.117648%,76.862746%);stop-opacity:1;"/>
</linearGradient>
<linearGradient id="linear1" gradientUnits="userSpaceOnUse" x1="32" y1="60.900002" x2="32" y2="18.719999" gradientTransform="matrix(0.375,0,0,0.375,0,0)">
<stop offset="0" style="stop-color:rgb(86.274511%,87.058824%,88.627452%);stop-opacity:1;"/>
<stop offset="0.57" style="stop-color:rgb(87.058824%,87.843138%,89.411765%);stop-opacity:1;"/>
<stop offset="0.81" style="stop-color:rgb(89.803922%,90.588236%,91.764706%);stop-opacity:1;"/>
<stop offset="0.99" style="stop-color:rgb(94.901961%,95.294118%,95.686275%);stop-opacity:1;"/>
<stop offset="1" style="stop-color:rgb(95.294118%,95.686275%,96.078432%);stop-opacity:1;"/>
</linearGradient>
<linearGradient id="linear2" gradientUnits="userSpaceOnUse" x1="32" y1="52.32" x2="32" y2="28.32" gradientTransform="matrix(0.375,0,0,0.375,0,0)">
<stop offset="0" style="stop-color:rgb(75.294119%,75.294119%,75.294119%);stop-opacity:1;"/>
<stop offset="1" style="stop-color:rgb(55.686277%,55.686277%,55.686277%);stop-opacity:1;"/>
</linearGradient>
<linearGradient id="linear3" gradientUnits="userSpaceOnUse" x1="32" y1="44.290001" x2="32" y2="36.330002" gradientTransform="matrix(0.375,0,0,0.375,0,0)">
<stop offset="0" style="stop-color:rgb(75.294119%,75.294119%,75.294119%);stop-opacity:1;"/>
<stop offset="1" style="stop-color:rgb(55.686277%,55.686277%,55.686277%);stop-opacity:1;"/>
</linearGradient>
</defs>
<g id="surface1">
<path style=" stroke:none;fill-rule:nonzero;fill:url(#linear0);" d="M 24 7.992188 C 23.996094 6.929688 23.136719 6.070312 22.074219 6.070312 L 15.542969 6.070312 C 14.207031 6.070312 13.117188 5.003906 13.089844 3.667969 C 13.113281 2.308594 12.027344 1.1875 10.667969 1.164062 L 1.269531 1.164062 C 0.566406 1.164062 0 1.730469 0 2.429688 L 0 8.78125 L 24 8.78125 Z M 24 7.992188 "/>
<path style=" stroke:none;fill-rule:nonzero;fill:url(#linear1);" d="M 22.074219 7.019531 L 1.925781 7.019531 C 0.859375 7.019531 0 7.882812 0 8.945312 L 0 20.917969 C 0.00390625 21.976562 0.863281 22.835938 1.925781 22.835938 L 22.074219 22.835938 C 23.136719 22.835938 23.996094 21.976562 24 20.917969 L 24 8.945312 C 24 7.882812 23.140625 7.019531 22.074219 7.019531 Z M 22.074219 7.019531 "/>
<path style=" stroke:none;fill-rule:nonzero;fill:url(#linear2);" d="M 12.226562 19.621094 L 11.855469 19.621094 C 11.316406 19.539062 10.910156 19.09375 10.875 18.550781 C 10.875 18.40625 10.832031 18.289062 10.679688 18.230469 C 10.542969 18.1875 10.394531 18.230469 10.304688 18.339844 C 9.84375 18.738281 9.160156 18.71875 8.722656 18.300781 C 8.296875 17.878906 8.285156 17.195312 8.695312 16.761719 C 8.785156 16.660156 8.867188 16.5625 8.800781 16.425781 C 8.738281 16.285156 8.605469 16.257812 8.460938 16.257812 C 7.984375 16.253906 7.5625 15.953125 7.402344 15.507812 C 7.382812 15.449219 7.363281 15.398438 7.339844 15.339844 L 7.339844 14.964844 C 7.445312 14.425781 7.914062 14.035156 8.464844 14.023438 C 8.59375 14.042969 8.722656 13.972656 8.777344 13.847656 C 8.828125 13.726562 8.792969 13.582031 8.6875 13.5 C 8.484375 13.292969 8.375 13.011719 8.378906 12.71875 C 8.386719 12.429688 8.507812 12.152344 8.71875 11.949219 C 9.171875 11.535156 9.863281 11.535156 10.316406 11.949219 C 10.410156 12.058594 10.5625 12.089844 10.691406 12.03125 C 10.839844 11.96875 10.855469 11.855469 10.859375 11.722656 C 10.875 11.207031 11.242188 10.765625 11.75 10.65625 C 11.773438 10.652344 11.796875 10.640625 11.816406 10.628906 L 12.191406 10.628906 C 12.207031 10.636719 12.222656 10.648438 12.242188 10.65625 C 12.757812 10.753906 13.136719 11.199219 13.15625 11.722656 C 13.167969 11.835938 13.230469 11.9375 13.328125 12 C 13.445312 12.019531 13.5625 11.988281 13.652344 11.914062 C 14.117188 11.507812 14.808594 11.519531 15.257812 11.941406 C 15.6875 12.367188 15.6875 13.0625 15.257812 13.492188 C 15.144531 13.582031 15.109375 13.738281 15.175781 13.867188 C 15.238281 14.011719 15.355469 14.03125 15.496094 14.03125 C 15.777344 14.011719 16.050781 14.117188 16.246094 14.320312 C 16.394531 14.523438 16.527344 14.738281 16.636719 14.960938 L 16.636719 15.335938 C 16.515625 15.894531 16.015625 16.289062 15.441406 16.273438 C 15.34375 16.289062 15.261719 16.351562 15.21875 16.441406 C 15.207031 16.554688 15.238281 16.664062 15.308594 16.753906 C 15.71875 17.195312 15.707031 17.882812 15.28125 18.3125 C 14.828125 18.726562 14.136719 18.738281 13.671875 18.335938 C 13.585938 18.261719 13.46875 18.230469 13.351562 18.25 C 13.253906 18.320312 13.191406 18.429688 13.179688 18.550781 C 13.179688 18.824219 13.070312 19.082031 12.878906 19.273438 C 12.671875 19.40625 12.453125 19.519531 12.226562 19.621094 Z M 12.019531 18.894531 C 12.128906 18.902344 12.242188 18.867188 12.320312 18.789062 C 12.398438 18.710938 12.441406 18.597656 12.429688 18.488281 C 12.410156 18.078125 12.65625 17.695312 13.039062 17.546875 C 13.421875 17.375 13.867188 17.457031 14.164062 17.753906 C 14.324219 17.90625 14.578125 17.90625 14.738281 17.753906 C 14.820312 17.679688 14.867188 17.578125 14.867188 17.46875 C 14.867188 17.359375 14.820312 17.253906 14.738281 17.183594 C 14.4375 16.90625 14.351562 16.464844 14.527344 16.09375 C 14.6875 15.730469 15.046875 15.492188 15.445312 15.496094 C 15.726562 15.476562 15.898438 15.320312 15.886719 15.097656 C 15.882812 14.871094 15.714844 14.722656 15.429688 14.722656 C 15.027344 14.734375 14.660156 14.5 14.5 14.132812 C 14.3125 13.757812 14.390625 13.300781 14.691406 13.007812 C 14.785156 12.941406 14.839844 12.835938 14.847656 12.722656 C 14.851562 12.609375 14.804688 12.5 14.71875 12.425781 C 14.636719 12.347656 14.527344 12.308594 14.417969 12.316406 C 14.308594 12.320312 14.203125 12.367188 14.128906 12.449219 C 13.835938 12.730469 13.398438 12.808594 13.023438 12.648438 C 12.644531 12.507812 12.394531 12.144531 12.398438 11.742188 C 12.394531 11.523438 12.21875 11.347656 12 11.34375 C 11.890625 11.34375 11.785156 11.386719 11.710938 11.464844 C 11.636719 11.542969 11.597656 11.652344 11.601562 11.761719 C 11.617188 12.164062 11.375 12.535156 11 12.6875 C 10.609375 12.871094 10.148438 12.792969 9.835938 12.496094 C 9.761719 12.414062 9.65625 12.367188 9.546875 12.363281 C 9.4375 12.359375 9.328125 12.398438 9.246094 12.472656 C 9.164062 12.542969 9.117188 12.648438 9.117188 12.757812 C 9.117188 12.867188 9.164062 12.972656 9.246094 13.042969 C 9.542969 13.324219 9.625 13.765625 9.453125 14.132812 C 9.304688 14.511719 8.9375 14.757812 8.53125 14.757812 C 8.457031 14.757812 8.382812 14.773438 8.3125 14.804688 C 8.152344 14.875 8.0625 15.046875 8.097656 15.21875 C 8.136719 15.414062 8.3125 15.550781 8.511719 15.535156 C 8.933594 15.503906 9.324219 15.742188 9.496094 16.125 C 9.691406 16.503906 9.605469 16.96875 9.285156 17.25 C 9.238281 17.296875 9.199219 17.355469 9.179688 17.417969 C 9.125 17.582031 9.1875 17.765625 9.335938 17.855469 C 9.496094 17.964844 9.707031 17.941406 9.84375 17.804688 C 10.101562 17.550781 10.472656 17.449219 10.824219 17.539062 C 11.269531 17.625 11.597656 17.996094 11.625 18.445312 C 11.648438 18.726562 11.789062 18.886719 12.019531 18.894531 Z M 12.019531 18.894531 "/>
<path style=" stroke:none;fill-rule:nonzero;fill:url(#linear3);" d="M 12 16.609375 C 11.175781 16.589844 10.523438 15.910156 10.535156 15.085938 C 10.546875 14.261719 11.21875 13.601562 12.042969 13.609375 C 12.867188 13.613281 13.535156 14.285156 13.535156 15.109375 C 13.519531 15.945312 12.835938 16.613281 12 16.609375 Z M 12.789062 15.109375 C 12.796875 14.785156 12.605469 14.492188 12.308594 14.363281 C 12.011719 14.234375 11.667969 14.300781 11.4375 14.527344 C 11.207031 14.753906 11.136719 15.097656 11.261719 15.398438 C 11.386719 15.695312 11.675781 15.890625 12 15.886719 C 12.429688 15.886719 12.78125 15.546875 12.792969 15.117188 Z M 12.789062 15.109375 "/>
</g>
</svg>
