
<svg xmlns="http://www.w3.org/2000/svg" xmlns:xlink="http://www.w3.org/1999/xlink" width="24px" height="24px" viewBox="0 0 24 24" version="1.1">
<defs>
<linearGradient id="linear0" gradientUnits="userSpaceOnUse" x1="32" y1="3.8" x2="32" y2="23.49" gradientTransform="matrix(0.375,0,0,0.375,0,0)">
<stop offset="0" style="stop-color:rgb(16.078432%,71.372551%,96.470588%);stop-opacity:1;"/>
<stop offset="0.67" style="stop-color:rgb(39.607844%,45.09804%,82.745099%);stop-opacity:1;"/>
<stop offset="1" style="stop-color:rgb(49.411765%,34.117648%,76.862746%);stop-opacity:1;"/>
</linearGradient>
<linearGradient id="linear1" gradientUnits="userSpaceOnUse" x1="32" y1="60.900002" x2="32" y2="18.719999" gradientTransform="matrix(0.375,0,0,0.375,0,0)">
<stop offset="0" style="stop-color:rgb(86.274511%,87.058824%,88.627452%);stop-opacity:1;"/>
<stop offset="0.57" style="stop-color:rgb(87.058824%,87.843138%,89.411765%);stop-opacity:1;"/>
<stop offset="0.81" style="stop-color:rgb(89.803922%,90.588236%,91.764706%);stop-opacity:1;"/>
<stop offset="0.99" style="stop-color:rgb(94.901961%,95.294118%,95.686275%);stop-opacity:1;"/>
<stop offset="1" style="stop-color:rgb(95.294118%,95.686275%,96.078432%);stop-opacity:1;"/>
</linearGradient>
<linearGradient id="linear2" gradientUnits="userSpaceOnUse" x1="22.23" y1="50" x2="22.23" y2="31.889999" gradientTransform="matrix(0.375,0,0,0.375,0,0)">
<stop offset="0" style="stop-color:rgb(75.294119%,75.294119%,75.294119%);stop-opacity:1;"/>
<stop offset="1" style="stop-color:rgb(55.686277%,55.686277%,55.686277%);stop-opacity:1;"/>
</linearGradient>
<linearGradient id="linear3" gradientUnits="userSpaceOnUse" x1="41.77" y1="50" x2="41.77" y2="31.889999" gradientTransform="matrix(0.375,0,0,0.375,0,0)">
<stop offset="0" style="stop-color:rgb(75.294119%,75.294119%,75.294119%);stop-opacity:1;"/>
<stop offset="1" style="stop-color:rgb(55.686277%,55.686277%,55.686277%);stop-opacity:1;"/>
</linearGradient>
<linearGradient id="linear4" gradientUnits="userSpaceOnUse" x1="32" y1="50" x2="32" y2="31.889999" gradientTransform="matrix(0.375,0,0,0.375,0,0)">
<stop offset="0" style="stop-color:rgb(75.294119%,75.294119%,75.294119%);stop-opacity:1;"/>
<stop offset="1" style="stop-color:rgb(55.686277%,55.686277%,55.686277%);stop-opacity:1;"/>
</linearGradient>
</defs>
<g id="surface1">
<path style=" stroke:none;fill-rule:nonzero;fill:url(#linear0);" d="M 24 7.992188 C 23.996094 6.929688 23.136719 6.070312 22.074219 6.070312 L 15.542969 6.070312 C 14.207031 6.070312 13.117188 5.003906 13.089844 3.667969 C 13.113281 2.308594 12.027344 1.1875 10.667969 1.164062 L 1.269531 1.164062 C 0.566406 1.164062 0 1.730469 0 2.429688 L 0 8.78125 L 24 8.78125 Z M 24 7.992188 "/>
<path style=" stroke:none;fill-rule:nonzero;fill:url(#linear1);" d="M 22.074219 7.019531 L 1.925781 7.019531 C 0.859375 7.019531 0 7.882812 0 8.945312 L 0 20.917969 C 0.00390625 21.976562 0.863281 22.835938 1.925781 22.835938 L 22.074219 22.835938 C 23.136719 22.835938 23.996094 21.976562 24 20.917969 L 24 8.945312 C 24 7.882812 23.140625 7.019531 22.074219 7.019531 Z M 22.074219 7.019531 "/>
<path style=" stroke:none;fill-rule:nonzero;fill:url(#linear2);" d="M 9.640625 18.472656 C 9.507812 18.472656 9.382812 18.414062 9.296875 18.316406 L 6.691406 15.34375 C 6.539062 15.171875 6.539062 14.914062 6.691406 14.742188 L 9.316406 11.773438 C 9.410156 11.617188 9.59375 11.53125 9.773438 11.558594 C 9.953125 11.585938 10.101562 11.71875 10.148438 11.898438 C 10.191406 12.074219 10.128906 12.265625 9.980469 12.375 L 7.644531 15.042969 L 9.980469 17.714844 C 10.066406 17.804688 10.113281 17.929688 10.105469 18.054688 C 10.097656 18.179688 10.039062 18.296875 9.941406 18.375 C 9.855469 18.441406 9.75 18.476562 9.640625 18.472656 Z M 9.640625 18.472656 "/>
<path style=" stroke:none;fill-rule:nonzero;fill:url(#linear3);" d="M 14.359375 18.472656 C 14.25 18.472656 14.140625 18.433594 14.058594 18.359375 C 13.96875 18.28125 13.910156 18.167969 13.902344 18.046875 C 13.894531 17.925781 13.9375 17.804688 14.019531 17.714844 L 16.355469 15.042969 L 14.019531 12.375 C 13.902344 12.253906 13.859375 12.078125 13.910156 11.917969 C 13.960938 11.757812 14.097656 11.636719 14.265625 11.609375 C 14.429688 11.578125 14.597656 11.640625 14.703125 11.773438 L 17.308594 14.742188 C 17.460938 14.914062 17.460938 15.171875 17.308594 15.34375 L 14.703125 18.316406 C 14.617188 18.414062 14.492188 18.472656 14.359375 18.472656 Z M 14.359375 18.472656 "/>
<path style=" stroke:none;fill-rule:nonzero;fill:url(#linear4);" d="M 10.964844 18.578125 C 10.914062 18.578125 10.867188 18.570312 10.820312 18.550781 C 10.578125 18.472656 10.449219 18.214844 10.53125 17.972656 L 12.601562 11.824219 C 12.695312 11.601562 12.945312 11.484375 13.171875 11.5625 C 13.402344 11.636719 13.53125 11.878906 13.46875 12.113281 L 11.398438 18.265625 C 11.335938 18.453125 11.160156 18.578125 10.964844 18.578125 Z M 10.964844 18.578125 "/>
</g>
</svg>
