
<svg xmlns="http://www.w3.org/2000/svg" xmlns:xlink="http://www.w3.org/1999/xlink" width="24px" height="24px" viewBox="0 0 24 24" version="1.1">
<defs>
<linearGradient id="linear0" gradientUnits="userSpaceOnUse" x1="32" y1="3.8" x2="32" y2="23.49" gradientTransform="matrix(0.375,0,0,0.375,0,0)">
<stop offset="0" style="stop-color:rgb(16.078432%,71.372551%,96.470588%);stop-opacity:1;"/>
<stop offset="0.67" style="stop-color:rgb(39.607844%,45.09804%,82.745099%);stop-opacity:1;"/>
<stop offset="1" style="stop-color:rgb(49.411765%,34.117648%,76.862746%);stop-opacity:1;"/>
</linearGradient>
<linearGradient id="linear1" gradientUnits="userSpaceOnUse" x1="32" y1="60.900002" x2="32" y2="18.719999" gradientTransform="matrix(0.375,0,0,0.375,0,0)">
<stop offset="0" style="stop-color:rgb(86.274511%,87.058824%,88.627452%);stop-opacity:1;"/>
<stop offset="0.57" style="stop-color:rgb(87.058824%,87.843138%,89.411765%);stop-opacity:1;"/>
<stop offset="0.81" style="stop-color:rgb(89.803922%,90.588236%,91.764706%);stop-opacity:1;"/>
<stop offset="0.99" style="stop-color:rgb(94.901961%,95.294118%,95.686275%);stop-opacity:1;"/>
<stop offset="1" style="stop-color:rgb(95.294118%,95.686275%,96.078432%);stop-opacity:1;"/>
</linearGradient>
<linearGradient id="linear2" gradientUnits="userSpaceOnUse" x1="32" y1="52.360001" x2="32" y2="27.360001" gradientTransform="matrix(0.375,0,0,0.375,0,0)">
<stop offset="0" style="stop-color:rgb(75.294119%,75.294119%,75.294119%);stop-opacity:1;"/>
<stop offset="1" style="stop-color:rgb(55.686277%,55.686277%,55.686277%);stop-opacity:1;"/>
</linearGradient>
</defs>
<g id="surface1">
<path style=" stroke:none;fill-rule:nonzero;fill:url(#linear0);" d="M 24 7.992188 C 23.996094 6.929688 23.136719 6.070312 22.074219 6.070312 L 15.542969 6.070312 C 14.207031 6.070312 13.117188 5.003906 13.089844 3.667969 C 13.113281 2.308594 12.027344 1.1875 10.667969 1.164062 L 1.269531 1.164062 C 0.566406 1.164062 0 1.730469 0 2.429688 L 0 8.78125 L 24 8.78125 Z M 24 7.992188 "/>
<path style=" stroke:none;fill-rule:nonzero;fill:url(#linear1);" d="M 22.074219 7.019531 L 1.925781 7.019531 C 0.859375 7.019531 0 7.882812 0 8.945312 L 0 20.917969 C 0.00390625 21.976562 0.863281 22.835938 1.925781 22.835938 L 22.074219 22.835938 C 23.136719 22.835938 23.996094 21.976562 24 20.917969 L 24 8.945312 C 24 7.882812 23.140625 7.019531 22.074219 7.019531 Z M 22.074219 7.019531 "/>
<path style=" stroke:none;fill-rule:nonzero;fill:url(#linear2);" d="M 12.132812 19.632812 L 11.890625 19.632812 C 11.703125 19.617188 11.53125 19.523438 11.40625 19.378906 C 10.136719 18.101562 8.859375 16.828125 7.582031 15.554688 C 7.441406 15.441406 7.34375 15.28125 7.3125 15.105469 L 7.3125 14.785156 C 7.339844 14.609375 7.429688 14.449219 7.5625 14.332031 C 8.386719 13.515625 9.207031 12.699219 10.023438 11.875 L 10.164062 11.738281 C 10.285156 11.617188 10.3125 11.617188 10.433594 11.738281 L 11.324219 12.628906 C 11.394531 12.6875 11.421875 12.78125 11.398438 12.871094 C 11.3125 13.164062 11.449219 13.484375 11.726562 13.621094 C 11.785156 13.65625 11.816406 13.726562 11.804688 13.796875 L 11.804688 14.851562 C 11.804688 15.289062 11.804688 15.730469 11.804688 16.167969 C 11.816406 16.269531 11.765625 16.363281 11.679688 16.40625 C 11.441406 16.550781 11.328125 16.828125 11.394531 17.097656 C 11.457031 17.371094 11.691406 17.574219 11.972656 17.59375 C 12.253906 17.617188 12.519531 17.449219 12.621094 17.1875 C 12.722656 16.925781 12.644531 16.625 12.425781 16.445312 C 12.3125 16.375 12.25 16.25 12.265625 16.117188 C 12.265625 15.390625 12.265625 14.660156 12.265625 13.929688 C 12.265625 13.855469 12.230469 13.761719 12.316406 13.726562 C 12.398438 13.6875 12.445312 13.785156 12.5 13.835938 C 12.746094 14.078125 12.988281 14.328125 13.25 14.585938 C 13.34375 14.660156 13.378906 14.785156 13.347656 14.898438 C 13.285156 15.207031 13.460938 15.515625 13.757812 15.621094 C 14.050781 15.726562 14.375 15.609375 14.53125 15.34375 C 14.691406 15.078125 14.640625 14.738281 14.402344 14.535156 C 14.261719 14.402344 14.066406 14.347656 13.878906 14.382812 C 13.773438 14.410156 13.667969 14.371094 13.601562 14.289062 L 12.734375 13.421875 C 12.671875 13.363281 12.644531 13.28125 12.65625 13.195312 C 12.699219 12.988281 12.632812 12.769531 12.480469 12.621094 C 12.332031 12.46875 12.113281 12.40625 11.90625 12.445312 C 11.824219 12.460938 11.738281 12.429688 11.679688 12.367188 L 10.761719 11.449219 C 10.648438 11.332031 10.648438 11.304688 10.761719 11.1875 C 10.976562 10.972656 11.199219 10.765625 11.398438 10.542969 C 11.511719 10.402344 11.679688 10.3125 11.855469 10.292969 L 12.148438 10.292969 C 12.324219 10.316406 12.488281 10.40625 12.601562 10.542969 C 13.878906 11.828125 15.160156 13.109375 16.445312 14.382812 C 16.589844 14.507812 16.679688 14.679688 16.703125 14.867188 L 16.703125 15.113281 C 16.679688 15.3125 16.578125 15.496094 16.421875 15.621094 C 15.171875 16.871094 13.921875 18.121094 12.671875 19.371094 C 12.53125 19.527344 12.339844 19.621094 12.132812 19.632812 Z M 12.132812 19.632812 "/>
</g>
</svg>
