
<svg xmlns="http://www.w3.org/2000/svg" xmlns:xlink="http://www.w3.org/1999/xlink" width="24px" height="24px" viewBox="0 0 24 24" version="1.1">
<defs>
<linearGradient id="linear0" gradientUnits="userSpaceOnUse" x1="32" y1="3.8" x2="32" y2="23.49" gradientTransform="matrix(0.375,0,0,0.375,0,0)">
<stop offset="0" style="stop-color:rgb(16.078432%,71.372551%,96.470588%);stop-opacity:1;"/>
<stop offset="0.67" style="stop-color:rgb(39.607844%,45.09804%,82.745099%);stop-opacity:1;"/>
<stop offset="1" style="stop-color:rgb(49.411765%,34.117648%,76.862746%);stop-opacity:1;"/>
</linearGradient>
<linearGradient id="linear1" gradientUnits="userSpaceOnUse" x1="32" y1="60.900002" x2="32" y2="18.719999" gradientTransform="matrix(0.375,0,0,0.375,0,0)">
<stop offset="0" style="stop-color:rgb(86.274511%,87.058824%,88.627452%);stop-opacity:1;"/>
<stop offset="0.57" style="stop-color:rgb(87.058824%,87.843138%,89.411765%);stop-opacity:1;"/>
<stop offset="0.81" style="stop-color:rgb(89.803922%,90.588236%,91.764706%);stop-opacity:1;"/>
<stop offset="0.99" style="stop-color:rgb(94.901961%,95.294118%,95.686275%);stop-opacity:1;"/>
<stop offset="1" style="stop-color:rgb(95.294118%,95.686275%,96.078432%);stop-opacity:1;"/>
</linearGradient>
<linearGradient id="linear2" gradientUnits="userSpaceOnUse" x1="29.32" y1="51.639999" x2="29.32" y2="28.209999" gradientTransform="matrix(0.375,0,0,0.375,0,0)">
<stop offset="0" style="stop-color:rgb(75.294119%,75.294119%,75.294119%);stop-opacity:1;"/>
<stop offset="1" style="stop-color:rgb(55.686277%,55.686277%,55.686277%);stop-opacity:1;"/>
</linearGradient>
<linearGradient id="linear3" gradientUnits="userSpaceOnUse" x1="30.58" y1="51.639999" x2="30.58" y2="28.209999" gradientTransform="matrix(0.375,0,0,0.375,0,0)">
<stop offset="0" style="stop-color:rgb(75.294119%,75.294119%,75.294119%);stop-opacity:1;"/>
<stop offset="1" style="stop-color:rgb(55.686277%,55.686277%,55.686277%);stop-opacity:1;"/>
</linearGradient>
<linearGradient id="linear4" gradientUnits="userSpaceOnUse" x1="33.419998" y1="51.639999" x2="33.419998" y2="28.209999" gradientTransform="matrix(0.375,0,0,0.375,0,0)">
<stop offset="0" style="stop-color:rgb(75.294119%,75.294119%,75.294119%);stop-opacity:1;"/>
<stop offset="1" style="stop-color:rgb(55.686277%,55.686277%,55.686277%);stop-opacity:1;"/>
</linearGradient>
<linearGradient id="linear5" gradientUnits="userSpaceOnUse" x1="30.58" y1="51.639999" x2="30.58" y2="28.209999" gradientTransform="matrix(0.375,0,0,0.375,0,0)">
<stop offset="0" style="stop-color:rgb(75.294119%,75.294119%,75.294119%);stop-opacity:1;"/>
<stop offset="1" style="stop-color:rgb(55.686277%,55.686277%,55.686277%);stop-opacity:1;"/>
</linearGradient>
<linearGradient id="linear6" gradientUnits="userSpaceOnUse" x1="30.58" y1="51.639999" x2="30.58" y2="28.209999" gradientTransform="matrix(0.375,0,0,0.375,0,0)">
<stop offset="0" style="stop-color:rgb(75.294119%,75.294119%,75.294119%);stop-opacity:1;"/>
<stop offset="1" style="stop-color:rgb(55.686277%,55.686277%,55.686277%);stop-opacity:1;"/>
</linearGradient>
<linearGradient id="linear7" gradientUnits="userSpaceOnUse" x1="30.58" y1="51.639999" x2="30.58" y2="28.209999" gradientTransform="matrix(0.375,0,0,0.375,0,0)">
<stop offset="0" style="stop-color:rgb(75.294119%,75.294119%,75.294119%);stop-opacity:1;"/>
<stop offset="1" style="stop-color:rgb(55.686277%,55.686277%,55.686277%);stop-opacity:1;"/>
</linearGradient>
<linearGradient id="linear8" gradientUnits="userSpaceOnUse" x1="29.08" y1="51.639999" x2="29.08" y2="28.209999" gradientTransform="matrix(0.375,0,0,0.375,0,0)">
<stop offset="0" style="stop-color:rgb(75.294119%,75.294119%,75.294119%);stop-opacity:1;"/>
<stop offset="1" style="stop-color:rgb(55.686277%,55.686277%,55.686277%);stop-opacity:1;"/>
</linearGradient>
<linearGradient id="linear9" gradientUnits="userSpaceOnUse" x1="33.59" y1="51.639999" x2="33.59" y2="28.209999" gradientTransform="matrix(0.375,0,0,0.375,0,0)">
<stop offset="0" style="stop-color:rgb(75.294119%,75.294119%,75.294119%);stop-opacity:1;"/>
<stop offset="1" style="stop-color:rgb(55.686277%,55.686277%,55.686277%);stop-opacity:1;"/>
</linearGradient>
<linearGradient id="linear10" gradientUnits="userSpaceOnUse" x1="27.57" y1="51.639999" x2="27.57" y2="28.209999" gradientTransform="matrix(0.375,0,0,0.375,0,0)">
<stop offset="0" style="stop-color:rgb(75.294119%,75.294119%,75.294119%);stop-opacity:1;"/>
<stop offset="1" style="stop-color:rgb(55.686277%,55.686277%,55.686277%);stop-opacity:1;"/>
</linearGradient>
</defs>
<g id="surface1">
<path style=" stroke:none;fill-rule:nonzero;fill:url(#linear0);" d="M 24 7.992188 C 23.996094 6.929688 23.136719 6.070312 22.074219 6.070312 L 15.542969 6.070312 C 14.207031 6.070312 13.117188 5.003906 13.089844 3.667969 C 13.113281 2.308594 12.027344 1.1875 10.667969 1.164062 L 1.269531 1.164062 C 0.566406 1.164062 0 1.730469 0 2.429688 L 0 8.78125 L 24 8.78125 Z M 24 7.992188 "/>
<path style=" stroke:none;fill-rule:nonzero;fill:url(#linear1);" d="M 22.074219 7.019531 L 1.925781 7.019531 C 0.859375 7.019531 0 7.882812 0 8.945312 L 0 20.917969 C 0.00390625 21.976562 0.863281 22.835938 1.925781 22.835938 L 22.074219 22.835938 C 23.136719 22.835938 23.996094 21.976562 24 20.917969 L 24 8.945312 C 24 7.882812 23.140625 7.019531 22.074219 7.019531 Z M 22.074219 7.019531 "/>
<path style=" stroke:none;fill-rule:nonzero;fill:url(#linear2);" d="M 10.824219 10.785156 C 10.679688 10.785156 10.5625 10.902344 10.5625 11.042969 C 10.5625 11.1875 10.679688 11.304688 10.824219 11.304688 L 11.421875 11.304688 C 11.410156 11.21875 11.40625 11.128906 11.402344 11.042969 C 11.402344 10.957031 11.410156 10.871094 11.421875 10.785156 Z M 10.824219 10.785156 "/>
<path style=" stroke:none;fill-rule:nonzero;fill:url(#linear3);" d="M 14.691406 18.457031 L 14.691406 11.042969 C 14.691406 10.902344 14.578125 10.785156 14.433594 10.785156 L 13.082031 10.785156 C 12.9375 10.785156 12.820312 10.902344 12.820312 11.042969 C 12.820312 11.1875 12.9375 11.304688 13.082031 11.304688 L 14.175781 11.304688 L 14.175781 18.203125 L 8.761719 18.203125 L 8.761719 11.304688 L 9.164062 11.304688 C 9.152344 11.21875 9.148438 11.128906 9.148438 11.042969 C 9.148438 10.957031 9.152344 10.871094 9.164062 10.785156 L 8.5 10.785156 C 8.359375 10.785156 8.242188 10.902344 8.242188 11.042969 L 8.242188 18.457031 C 8.242188 18.601562 8.359375 18.714844 8.5 18.714844 L 14.433594 18.714844 C 14.578125 18.714844 14.691406 18.601562 14.691406 18.457031 Z M 14.691406 18.457031 "/>
<path style=" stroke:none;fill-rule:nonzero;fill:url(#linear4);" d="M 15.5 11.851562 C 15.355469 11.851562 15.242188 11.964844 15.242188 12.109375 L 15.242188 19.261719 L 9.566406 19.261719 C 9.421875 19.261719 9.308594 19.378906 9.308594 19.523438 C 9.308594 19.664062 9.421875 19.78125 9.566406 19.78125 L 15.5 19.78125 C 15.640625 19.78125 15.757812 19.664062 15.757812 19.523438 L 15.757812 12.109375 C 15.757812 11.964844 15.640625 11.851562 15.5 11.851562 Z M 15.5 11.851562 "/>
<path style=" stroke:none;fill-rule:nonzero;fill:url(#linear5);" d="M 9.855469 13.625 L 13.082031 13.625 C 13.222656 13.625 13.339844 13.507812 13.339844 13.367188 C 13.339844 13.222656 13.222656 13.105469 13.082031 13.105469 L 9.855469 13.105469 C 9.710938 13.105469 9.597656 13.222656 9.597656 13.367188 C 9.597656 13.507812 9.710938 13.625 9.855469 13.625 Z M 9.855469 13.625 "/>
<path style=" stroke:none;fill-rule:nonzero;fill:url(#linear6);" d="M 9.855469 14.78125 L 13.082031 14.78125 C 13.222656 14.78125 13.339844 14.667969 13.339844 14.523438 C 13.339844 14.457031 13.3125 14.390625 13.261719 14.34375 C 13.214844 14.292969 13.148438 14.265625 13.082031 14.269531 L 9.855469 14.269531 C 9.785156 14.265625 9.71875 14.292969 9.671875 14.34375 C 9.625 14.390625 9.597656 14.457031 9.597656 14.523438 C 9.597656 14.667969 9.710938 14.78125 9.855469 14.78125 Z M 9.855469 14.78125 "/>
<path style=" stroke:none;fill-rule:nonzero;fill:url(#linear7);" d="M 9.855469 15.945312 L 13.082031 15.945312 C 13.222656 15.945312 13.339844 15.828125 13.339844 15.6875 C 13.339844 15.542969 13.222656 15.429688 13.082031 15.429688 L 9.855469 15.429688 C 9.710938 15.429688 9.597656 15.542969 9.597656 15.6875 C 9.597656 15.828125 9.710938 15.945312 9.855469 15.945312 Z M 9.855469 15.945312 "/>
<path style=" stroke:none;fill-rule:nonzero;fill:url(#linear8);" d="M 9.855469 17.101562 L 11.960938 17.101562 C 12.027344 17.101562 12.09375 17.078125 12.140625 17.027344 C 12.1875 16.980469 12.214844 16.914062 12.214844 16.84375 C 12.214844 16.777344 12.1875 16.710938 12.140625 16.664062 C 12.09375 16.617188 12.027344 16.589844 11.960938 16.589844 L 9.855469 16.589844 C 9.785156 16.589844 9.71875 16.617188 9.671875 16.664062 C 9.625 16.710938 9.597656 16.777344 9.597656 16.84375 C 9.597656 16.988281 9.710938 17.101562 9.855469 17.101562 Z M 9.855469 17.101562 "/>
<path style=" stroke:none;fill-rule:nonzero;fill:url(#linear9);" d="M 13.082031 12.269531 C 13.222656 12.269531 13.339844 12.152344 13.339844 12.011719 C 13.339844 11.867188 13.222656 11.753906 13.082031 11.753906 C 12.789062 11.75 12.527344 11.574219 12.417969 11.304688 C 12.390625 11.21875 12.371094 11.132812 12.371094 11.042969 C 12.371094 10.957031 12.390625 10.867188 12.417969 10.785156 C 12.527344 10.515625 12.789062 10.335938 13.082031 10.335938 C 13.222656 10.335938 13.339844 10.21875 13.339844 10.074219 C 13.339844 9.933594 13.222656 9.816406 13.082031 9.816406 C 12.503906 9.816406 12.003906 10.21875 11.882812 10.785156 C 11.863281 10.871094 11.855469 10.957031 11.855469 11.042969 C 11.859375 11.71875 12.40625 12.265625 13.082031 12.269531 Z M 13.082031 12.269531 "/>
<path style=" stroke:none;fill-rule:nonzero;fill:url(#linear10);" d="M 10.824219 12.269531 C 10.964844 12.269531 11.082031 12.152344 11.082031 12.011719 C 11.082031 11.867188 10.964844 11.753906 10.824219 11.753906 C 10.53125 11.75 10.269531 11.574219 10.164062 11.304688 C 10.132812 11.21875 10.113281 11.132812 10.113281 11.042969 C 10.113281 10.957031 10.132812 10.867188 10.164062 10.785156 C 10.269531 10.515625 10.53125 10.335938 10.824219 10.335938 C 10.964844 10.335938 11.082031 10.21875 11.082031 10.074219 C 11.082031 9.933594 10.964844 9.816406 10.824219 9.816406 C 10.246094 9.820312 9.75 10.222656 9.625 10.785156 C 9.605469 10.871094 9.597656 10.957031 9.597656 11.042969 C 9.601562 11.71875 10.148438 12.265625 10.824219 12.269531 Z M 10.824219 12.269531 "/>
</g>
</svg>
