
<svg xmlns="http://www.w3.org/2000/svg" xmlns:xlink="http://www.w3.org/1999/xlink" width="24px" height="24px" viewBox="0 0 24 24" version="1.1">
<defs>
<linearGradient id="linear0" gradientUnits="userSpaceOnUse" x1="32" y1="3.8" x2="32" y2="23.49" gradientTransform="matrix(0.375,0,0,0.375,0,0)">
<stop offset="0" style="stop-color:rgb(16.078432%,71.372551%,96.470588%);stop-opacity:1;"/>
<stop offset="0.67" style="stop-color:rgb(39.607844%,45.09804%,82.745099%);stop-opacity:1;"/>
<stop offset="1" style="stop-color:rgb(49.411765%,34.117648%,76.862746%);stop-opacity:1;"/>
</linearGradient>
<linearGradient id="linear1" gradientUnits="userSpaceOnUse" x1="32" y1="60.900002" x2="32" y2="18.719999" gradientTransform="matrix(0.375,0,0,0.375,0,0)">
<stop offset="0" style="stop-color:rgb(86.274511%,87.058824%,88.627452%);stop-opacity:1;"/>
<stop offset="0.57" style="stop-color:rgb(87.058824%,87.843138%,89.411765%);stop-opacity:1;"/>
<stop offset="0.81" style="stop-color:rgb(89.803922%,90.588236%,91.764706%);stop-opacity:1;"/>
<stop offset="0.99" style="stop-color:rgb(94.901961%,95.294118%,95.686275%);stop-opacity:1;"/>
<stop offset="1" style="stop-color:rgb(95.294118%,95.686275%,96.078432%);stop-opacity:1;"/>
</linearGradient>
<linearGradient id="linear2" gradientUnits="userSpaceOnUse" x1="31.299999" y1="51.939999" x2="31.299999" y2="35.799999" gradientTransform="matrix(0.375,0,0,0.375,0,0)">
<stop offset="0" style="stop-color:rgb(75.294119%,75.294119%,75.294119%);stop-opacity:1;"/>
<stop offset="1" style="stop-color:rgb(55.686277%,55.686277%,55.686277%);stop-opacity:1;"/>
</linearGradient>
<linearGradient id="linear3" gradientUnits="userSpaceOnUse" x1="38.52" y1="34.709999" x2="38.52" y2="27.379999" gradientTransform="matrix(0.375,0,0,0.375,0,0)">
<stop offset="0" style="stop-color:rgb(75.294119%,75.294119%,75.294119%);stop-opacity:1;"/>
<stop offset="1" style="stop-color:rgb(55.686277%,55.686277%,55.686277%);stop-opacity:1;"/>
</linearGradient>
<linearGradient id="linear4" gradientUnits="userSpaceOnUse" x1="31.59" y1="33.82" x2="31.59" y2="28.35" gradientTransform="matrix(0.375,0,0,0.375,0,0)">
<stop offset="0" style="stop-color:rgb(75.294119%,75.294119%,75.294119%);stop-opacity:1;"/>
<stop offset="1" style="stop-color:rgb(55.686277%,55.686277%,55.686277%);stop-opacity:1;"/>
</linearGradient>
<linearGradient id="linear5" gradientUnits="userSpaceOnUse" x1="26.9" y1="35.080002" x2="26.9" y2="30.33" gradientTransform="matrix(0.375,0,0,0.375,0,0)">
<stop offset="0" style="stop-color:rgb(75.294119%,75.294119%,75.294119%);stop-opacity:1;"/>
<stop offset="1" style="stop-color:rgb(55.686277%,55.686277%,55.686277%);stop-opacity:1;"/>
</linearGradient>
<linearGradient id="linear6" gradientUnits="userSpaceOnUse" x1="23.440001" y1="37.560001" x2="23.440001" y2="33.389999" gradientTransform="matrix(0.375,0,0,0.375,0,0)">
<stop offset="0" style="stop-color:rgb(75.294119%,75.294119%,75.294119%);stop-opacity:1;"/>
<stop offset="1" style="stop-color:rgb(55.686277%,55.686277%,55.686277%);stop-opacity:1;"/>
</linearGradient>
</defs>
<g id="surface1">
<path style=" stroke:none;fill-rule:nonzero;fill:url(#linear0);" d="M 24 7.992188 C 23.996094 6.929688 23.136719 6.070312 22.074219 6.070312 L 15.542969 6.070312 C 14.207031 6.070312 13.117188 5.003906 13.089844 3.667969 C 13.113281 2.308594 12.027344 1.1875 10.667969 1.164062 L 1.269531 1.164062 C 0.566406 1.164062 0 1.730469 0 2.429688 L 0 8.78125 L 24 8.78125 Z M 24 7.992188 "/>
<path style=" stroke:none;fill-rule:nonzero;fill:url(#linear1);" d="M 22.074219 7.019531 L 1.925781 7.019531 C 0.859375 7.019531 0 7.882812 0 8.945312 L 0 20.917969 C 0.00390625 21.976562 0.863281 22.835938 1.925781 22.835938 L 22.074219 22.835938 C 23.136719 22.835938 23.996094 21.976562 24 20.917969 L 24 8.945312 C 24 7.882812 23.140625 7.019531 22.074219 7.019531 Z M 22.074219 7.019531 "/>
<path style=" stroke:none;fill-rule:nonzero;fill:url(#linear2);" d="M 12.320312 19.472656 C 11.609375 19.453125 10.929688 19.1875 10.386719 18.722656 C 9.769531 18.25 9.296875 17.609375 9.03125 16.875 C 8.644531 15.910156 8.996094 14.8125 9.871094 14.25 C 10.496094 13.800781 11.234375 13.527344 12 13.460938 C 12.347656 13.421875 12.699219 13.414062 13.050781 13.4375 C 13.363281 13.453125 13.671875 13.539062 13.945312 13.695312 C 14.171875 13.8125 14.335938 14.015625 14.398438 14.261719 C 14.464844 14.503906 14.421875 14.765625 14.289062 14.976562 C 14.054688 15.34375 13.746094 15.652344 13.375 15.878906 C 12.914062 16.183594 12.441406 16.472656 11.980469 16.78125 C 11.84375 16.878906 11.71875 16.988281 11.605469 17.113281 C 11.46875 17.214844 11.386719 17.375 11.386719 17.546875 C 11.386719 17.71875 11.46875 17.882812 11.605469 17.984375 C 11.726562 18.109375 11.867188 18.210938 12.023438 18.285156 C 12.210938 18.386719 12.441406 18.371094 12.617188 18.246094 C 12.789062 18.121094 12.878906 17.90625 12.84375 17.695312 C 12.804688 17.511719 12.898438 17.328125 13.070312 17.25 C 13.429688 17.054688 13.847656 16.996094 14.25 17.085938 C 14.378906 17.085938 14.496094 17.15625 14.5625 17.265625 C 14.628906 17.375 14.636719 17.511719 14.582031 17.625 C 14.324219 18.574219 13.546875 19.296875 12.578125 19.472656 C 12.492188 19.480469 12.40625 19.480469 12.320312 19.472656 Z M 12.320312 19.472656 "/>
<path style=" stroke:none;fill-rule:nonzero;fill:url(#linear3);" d="M 15.039062 10.296875 C 15.113281 10.304688 15.1875 10.316406 15.261719 10.332031 C 15.429688 10.351562 15.578125 10.445312 15.664062 10.589844 C 15.75 10.730469 15.765625 10.90625 15.710938 11.0625 C 15.5625 11.578125 15.273438 12.039062 14.875 12.398438 C 14.648438 12.636719 14.375 12.824219 14.070312 12.949219 C 13.890625 13.050781 13.667969 13.054688 13.484375 12.953125 C 13.304688 12.851562 13.1875 12.664062 13.179688 12.457031 C 13.039062 11.582031 13.523438 10.726562 14.347656 10.398438 C 14.574219 10.339844 14.800781 10.296875 15.035156 10.269531 Z M 15.039062 10.296875 "/>
<path style=" stroke:none;fill-rule:nonzero;fill:url(#linear4);" d="M 11.210938 11.527344 C 11.203125 11.238281 11.332031 10.960938 11.558594 10.777344 C 11.703125 10.667969 11.890625 10.621094 12.070312 10.648438 C 12.316406 10.699219 12.488281 10.917969 12.476562 11.167969 C 12.5 11.59375 12.394531 12.015625 12.167969 12.375 C 12.078125 12.523438 11.972656 12.679688 11.773438 12.675781 C 11.574219 12.671875 11.476562 12.507812 11.398438 12.347656 C 11.269531 12.09375 11.207031 11.8125 11.210938 11.527344 Z M 11.210938 11.527344 "/>
<path style=" stroke:none;fill-rule:nonzero;fill:url(#linear5);" d="M 9.535156 12.054688 C 9.519531 11.785156 9.667969 11.539062 9.910156 11.429688 C 10.015625 11.363281 10.148438 11.351562 10.261719 11.394531 C 10.378906 11.4375 10.472656 11.53125 10.511719 11.648438 C 10.625 11.894531 10.667969 12.167969 10.632812 12.433594 C 10.609375 12.609375 10.566406 12.78125 10.5 12.945312 C 10.398438 13.183594 10.199219 13.214844 9.996094 13.046875 C 9.78125 12.855469 9.632812 12.597656 9.574219 12.316406 C 9.554688 12.226562 9.542969 12.140625 9.535156 12.054688 Z M 9.535156 12.054688 "/>
<path style=" stroke:none;fill-rule:nonzero;fill:url(#linear6);" d="M 8.25 13.199219 C 8.203125 12.953125 8.324219 12.703125 8.542969 12.578125 C 8.675781 12.484375 8.859375 12.507812 8.964844 12.628906 C 9.15625 12.835938 9.269531 13.101562 9.289062 13.378906 C 9.304688 13.515625 9.304688 13.652344 9.289062 13.789062 C 9.261719 14.054688 9.078125 14.164062 8.847656 14.023438 C 8.527344 13.859375 8.304688 13.554688 8.25 13.199219 Z M 8.25 13.199219 "/>
</g>
</svg>
