
<svg xmlns="http://www.w3.org/2000/svg" xmlns:xlink="http://www.w3.org/1999/xlink" width="24px" height="24px" viewBox="0 0 24 24" version="1.1">
<defs>
<linearGradient id="linear0" gradientUnits="userSpaceOnUse" x1="32" y1="3.8" x2="32" y2="23.49" gradientTransform="matrix(0.375,0,0,0.375,0,0)">
<stop offset="0" style="stop-color:rgb(16.078431%,71.372549%,96.470588%);stop-opacity:1;"/>
<stop offset="0.67" style="stop-color:rgb(39.607843%,45.098039%,82.745098%);stop-opacity:1;"/>
<stop offset="1" style="stop-color:rgb(49.411765%,34.117647%,76.862745%);stop-opacity:1;"/>
</linearGradient>
<linearGradient id="linear1" gradientUnits="userSpaceOnUse" x1="32" y1="60.9" x2="32" y2="18.72" gradientTransform="matrix(0.375,0,0,0.375,0,0)">
<stop offset="0" style="stop-color:rgb(86.27451%,87.058824%,88.627451%);stop-opacity:1;"/>
<stop offset="0.57" style="stop-color:rgb(87.058824%,87.843137%,89.411765%);stop-opacity:1;"/>
<stop offset="0.81" style="stop-color:rgb(89.803922%,90.588235%,91.764706%);stop-opacity:1;"/>
<stop offset="0.99" style="stop-color:rgb(94.901961%,95.294118%,95.686275%);stop-opacity:1;"/>
<stop offset="1" style="stop-color:rgb(95.294118%,95.686275%,96.078431%);stop-opacity:1;"/>
</linearGradient>
<linearGradient id="linear2" gradientUnits="userSpaceOnUse" x1="32" y1="48.87" x2="32" y2="29.99" gradientTransform="matrix(0.375,0,0,0.375,0,0)">
<stop offset="0" style="stop-color:rgb(16.078431%,71.372549%,96.470588%);stop-opacity:1;"/>
<stop offset="0.67" style="stop-color:rgb(39.607843%,45.098039%,82.745098%);stop-opacity:1;"/>
<stop offset="1" style="stop-color:rgb(49.411765%,34.117647%,76.862745%);stop-opacity:1;"/>
</linearGradient>
</defs>
<g id="surface1">
<path style=" stroke:none;fill-rule:nonzero;fill:url(#linear0);" d="M 24 7.992188 C 23.996094 6.929688 23.136719 6.070312 22.078125 6.070312 L 15.542969 6.070312 C 14.207031 6.070312 13.117188 5.003906 13.089844 3.667969 C 13.113281 2.308594 12.027344 1.1875 10.667969 1.164062 L 1.265625 1.164062 C 0.566406 1.164062 0 1.730469 0 2.429688 L 0 8.78125 L 24 8.78125 Z M 24 7.992188 "/>
<path style=" stroke:none;fill-rule:nonzero;fill:url(#linear1);" d="M 22.078125 7.019531 L 1.921875 7.019531 C 0.859375 7.019531 0 7.882812 0 8.945312 L 0 20.917969 C 0.00390625 21.976562 0.863281 22.835938 1.921875 22.835938 L 22.078125 22.835938 C 23.136719 22.835938 23.996094 21.976562 24 20.917969 L 24 8.945312 C 24 7.882812 23.140625 7.019531 22.078125 7.019531 Z M 22.078125 7.019531 "/>
<path style=" stroke:none;fill-rule:nonzero;fill:url(#linear2);" d="M 16.289062 10.757812 L 15.796875 10.757812 C 15.671875 10.757812 15.570312 10.859375 15.570312 10.988281 L 15.570312 11.421875 C 15.570312 11.546875 15.46875 11.648438 15.34375 11.648438 L 15 11.648438 C 14.941406 11.648438 14.882812 11.625 14.839844 11.582031 C 14.796875 11.539062 14.769531 11.484375 14.769531 11.421875 L 14.769531 10.988281 C 14.769531 10.859375 14.667969 10.757812 14.542969 10.757812 L 9.445312 10.757812 C 9.320312 10.757812 9.21875 10.859375 9.21875 10.988281 L 9.21875 11.421875 C 9.21875 11.484375 9.191406 11.539062 9.148438 11.582031 C 9.105469 11.625 9.050781 11.648438 8.988281 11.648438 L 8.65625 11.648438 C 8.53125 11.648438 8.429688 11.546875 8.429688 11.421875 L 8.429688 10.988281 C 8.429688 10.859375 8.328125 10.757812 8.203125 10.757812 L 7.710938 10.757812 C 7.648438 10.757812 7.59375 10.78125 7.550781 10.824219 C 7.507812 10.867188 7.484375 10.925781 7.484375 10.988281 L 7.484375 18.433594 C 7.484375 18.496094 7.507812 18.554688 7.550781 18.597656 C 7.59375 18.640625 7.648438 18.664062 7.710938 18.664062 L 8.203125 18.664062 C 8.328125 18.664062 8.429688 18.5625 8.429688 18.433594 L 8.429688 18 C 8.429688 17.875 8.53125 17.773438 8.65625 17.773438 L 9 17.773438 C 9.058594 17.773438 9.117188 17.796875 9.160156 17.839844 C 9.203125 17.882812 9.230469 17.941406 9.230469 18 L 9.230469 18.433594 C 9.230469 18.5625 9.332031 18.664062 9.457031 18.664062 L 14.554688 18.664062 C 14.679688 18.664062 14.78125 18.5625 14.78125 18.433594 L 14.78125 18 C 14.78125 17.941406 14.808594 17.882812 14.851562 17.839844 C 14.894531 17.796875 14.949219 17.773438 15.011719 17.773438 L 15.34375 17.773438 C 15.46875 17.773438 15.570312 17.875 15.570312 18 L 15.570312 18.433594 C 15.570312 18.5625 15.671875 18.664062 15.796875 18.664062 L 16.289062 18.664062 C 16.351562 18.664062 16.40625 18.640625 16.449219 18.597656 C 16.492188 18.554688 16.515625 18.496094 16.515625 18.433594 L 16.515625 10.988281 C 16.515625 10.925781 16.492188 10.867188 16.449219 10.824219 C 16.40625 10.78125 16.351562 10.757812 16.289062 10.757812 Z M 9.21875 16.171875 C 9.21875 16.300781 9.113281 16.402344 8.988281 16.402344 L 8.65625 16.402344 C 8.59375 16.402344 8.535156 16.378906 8.496094 16.335938 C 8.453125 16.292969 8.429688 16.234375 8.429688 16.171875 L 8.429688 15.625 C 8.429688 15.566406 8.453125 15.507812 8.496094 15.464844 C 8.535156 15.421875 8.59375 15.398438 8.65625 15.398438 L 9 15.398438 C 9.125 15.398438 9.230469 15.5 9.230469 15.625 Z M 9.21875 13.796875 C 9.21875 13.921875 9.113281 14.023438 8.988281 14.023438 L 8.65625 14.023438 C 8.59375 14.023438 8.535156 14 8.496094 13.957031 C 8.453125 13.914062 8.429688 13.855469 8.429688 13.796875 L 8.429688 13.25 C 8.429688 13.125 8.53125 13.023438 8.65625 13.019531 L 9 13.019531 C 9.125 13.019531 9.230469 13.121094 9.230469 13.25 Z M 15.570312 16.171875 C 15.570312 16.234375 15.546875 16.292969 15.503906 16.335938 C 15.464844 16.378906 15.40625 16.402344 15.34375 16.402344 L 15 16.402344 C 14.875 16.402344 14.769531 16.300781 14.769531 16.171875 L 14.769531 15.625 C 14.769531 15.5 14.875 15.398438 15 15.398438 L 15.332031 15.398438 C 15.394531 15.398438 15.453125 15.421875 15.496094 15.464844 C 15.535156 15.507812 15.558594 15.566406 15.558594 15.625 Z M 15.570312 13.796875 C 15.570312 13.855469 15.546875 13.914062 15.503906 13.957031 C 15.464844 14 15.40625 14.023438 15.34375 14.023438 L 15 14.023438 C 14.875 14.023438 14.769531 13.921875 14.769531 13.796875 L 14.769531 13.25 C 14.769531 13.121094 14.875 13.019531 15 13.019531 L 15.332031 13.019531 C 15.457031 13.023438 15.558594 13.125 15.558594 13.25 Z M 13.921875 14.382812 L 9.984375 14.382812 L 9.984375 11.625 L 13.921875 11.625 Z M 13.921875 17.8125 L 9.984375 17.8125 L 9.984375 15.054688 L 13.921875 15.054688 Z M 13.921875 17.8125 "/>
</g>
</svg>
