
<svg xmlns="http://www.w3.org/2000/svg" xmlns:xlink="http://www.w3.org/1999/xlink" width="24px" height="24px" viewBox="0 0 24 24" version="1.1">
<defs>
<linearGradient id="linear0" gradientUnits="userSpaceOnUse" x1="32" y1="3.8" x2="32" y2="23.49" gradientTransform="matrix(0.375,0,0,0.375,0,0)">
<stop offset="0" style="stop-color:rgb(16.078431%,71.372549%,96.470588%);stop-opacity:1;"/>
<stop offset="0.67" style="stop-color:rgb(39.607843%,45.098039%,82.745098%);stop-opacity:1;"/>
<stop offset="1" style="stop-color:rgb(49.411765%,34.117647%,76.862745%);stop-opacity:1;"/>
</linearGradient>
<linearGradient id="linear1" gradientUnits="userSpaceOnUse" x1="32" y1="33.75" x2="32" y2="58.78" gradientTransform="matrix(0.375,0,0,0.375,0,0)">
<stop offset="0" style="stop-color:rgb(87.45098%,88.235294%,89.411765%);stop-opacity:1;"/>
<stop offset="0.05" style="stop-color:rgb(85.490196%,86.27451%,87.843137%);stop-opacity:1;"/>
<stop offset="0.22" style="stop-color:rgb(80.392157%,81.568627%,83.529412%);stop-opacity:1;"/>
<stop offset="0.45" style="stop-color:rgb(77.647059%,78.823529%,81.568627%);stop-opacity:1;"/>
<stop offset="1" style="stop-color:rgb(76.862745%,78.039216%,80.784314%);stop-opacity:1;"/>
</linearGradient>
</defs>
<g id="surface1">
<path style=" stroke:none;fill-rule:nonzero;fill:url(#linear0);" d="M 24 7.992188 C 23.996094 6.929688 23.136719 6.070312 22.078125 6.070312 L 15.542969 6.070312 C 14.207031 6.070312 13.117188 5.003906 13.089844 3.667969 C 13.113281 2.308594 12.027344 1.1875 10.667969 1.164062 L 1.265625 1.164062 C 0.566406 1.164062 0 1.730469 0 2.429688 L 0 8.78125 L 24 8.78125 Z M 24 7.992188 "/>
<path style=" stroke:none;fill-rule:nonzero;fill:rgb(49.411765%,34.117647%,76.862745%);fill-opacity:1;" d="M 0 8.6875 L 24 8.6875 L 24 13.75 L 0 13.75 Z M 0 8.6875 "/>
<path style=" stroke:none;fill-rule:nonzero;fill:url(#linear1);" d="M 0 20.917969 C 0.00390625 21.976562 0.863281 22.835938 1.921875 22.835938 L 22.078125 22.835938 C 23.136719 22.835938 23.996094 21.976562 24 20.917969 L 24 12.667969 C 24 12 23.457031 11.457031 22.789062 11.457031 L 1.210938 11.457031 C 0.542969 11.457031 0.00390625 11.996094 0 12.664062 Z M 0 20.917969 "/>
</g>
</svg>
