
<svg xmlns="http://www.w3.org/2000/svg" xmlns:xlink="http://www.w3.org/1999/xlink" width="24px" height="24px" viewBox="0 0 24 24" version="1.1">
<defs>
<linearGradient id="linear0" gradientUnits="userSpaceOnUse" x1="-26.201" y1="1070.199951" x2="-26.201" y2="1082.599976" gradientTransform="matrix(0.265668,0,0,0.265668,13.1394,-281.392793)">
<stop offset="0" style="stop-color:rgb(47.058824%,85.09804%,99.215686%);stop-opacity:1;"/>
<stop offset="1" style="stop-color:rgb(48.235294%,87.058824%,100%);stop-opacity:1;"/>
</linearGradient>
<linearGradient id="linear1" gradientUnits="userSpaceOnUse" x1="-9.912" y1="1081.400024" x2="-9.912" y2="1139.800049" gradientTransform="matrix(0.265668,0,0,0.265668,13.1394,-281.392793)">
<stop offset="0" style="stop-color:rgb(20.784314%,79.215688%,98.823529%);stop-opacity:1;"/>
<stop offset="0.5" style="stop-color:rgb(31.37255%,83.137256%,100%);stop-opacity:1;"/>
<stop offset="1" style="stop-color:rgb(30.19608%,79.607844%,96.470588%);stop-opacity:1;"/>
</linearGradient>
<filter id="alpha" filterUnits="objectBoundingBox" x="0%" y="0%" width="100%" height="100%">
  <feColorMatrix type="matrix" in="SourceGraphic" values="0 0 0 0 1 0 0 0 0 1 0 0 0 0 1 0 0 0 1 0"/>
</filter>
<mask id="mask0">
  <g filter="url(#alpha)">
<rect x="0" y="0" width="24" height="24" style="fill:rgb(0%,0%,0%);fill-opacity:0.976;stroke:none;"/>
  </g>
</mask>
<clipPath id="clip1">
  <rect x="0" y="0" width="24" height="24"/>
</clipPath>
<g id="surface5" clip-path="url(#clip1)">
<path style=" stroke:none;fill-rule:nonzero;fill:rgb(23.137255%,75.686276%,94.509804%);fill-opacity:1;" d="M 0.378906 19.902344 L 0.378906 20.167969 L 23.742188 20.167969 L 23.742188 19.902344 Z M 0.378906 20.484375 L 0.378906 20.625 C 0.378906 20.671875 0.382812 20.710938 0.386719 20.75 L 23.734375 20.75 C 23.738281 20.710938 23.742188 20.671875 23.742188 20.625 L 23.742188 20.484375 Z M 0.378906 20.484375 "/>
</g>
<mask id="mask1">
  <g filter="url(#alpha)">
<rect x="0" y="0" width="24" height="24" style="fill:rgb(0%,0%,0%);fill-opacity:0.976;stroke:none;"/>
  </g>
</mask>
<linearGradient id="linear2" gradientUnits="userSpaceOnUse" x1="-9.617" y1="1138.400024" x2="-9.617" y2="1140.199951" gradientTransform="matrix(0.265668,0,0,0.265668,13.1394,-281.392793)">
<stop offset="0" style="stop-color:rgb(23.137255%,75.686276%,94.509804%);stop-opacity:1;"/>
<stop offset="1" style="stop-color:rgb(5.490196%,58.431375%,77.254903%);stop-opacity:1;"/>
</linearGradient>
<clipPath id="clip2">
  <rect x="0" y="0" width="24" height="24"/>
</clipPath>
<g id="surface8" clip-path="url(#clip2)">
<path style=" stroke:none;fill-rule:nonzero;fill:url(#linear2);" d="M 0.453125 20.992188 C 0.59375 21.304688 0.90625 21.507812 1.25 21.503906 L 22.871094 21.503906 C 23.226562 21.503906 23.53125 21.292969 23.667969 20.992188 Z M 0.453125 20.992188 "/>
</g>
<linearGradient id="linear3" gradientUnits="userSpaceOnUse" x1="29.591" y1="1098.199951" x2="29.591" y2="1120.800049" gradientTransform="matrix(0.340825,0,0,0.340825,1.972046,-364.472494)">
<stop offset="0" style="stop-color:rgb(1.176471%,71.372551%,92.54902%);stop-opacity:1;"/>
<stop offset="1" style="stop-color:rgb(7.450981%,75.294119%,96.862745%);stop-opacity:1;"/>
</linearGradient>
</defs>
<g id="surface1">
<path style=" stroke:none;fill-rule:nonzero;fill:url(#linear0);" d="M 1.246094 2.925781 L 7.128906 2.925781 C 8 2.925781 8.363281 4.804688 9.179688 4.804688 L 22.867188 4.804688 C 23.097656 4.804688 23.320312 4.894531 23.484375 5.058594 C 23.648438 5.222656 23.742188 5.445312 23.738281 5.675781 L 23.738281 19.09375 C 23.738281 19.578125 23.351562 18.558594 22.867188 18.558594 L 1.246094 18.558594 C 1.015625 18.558594 0.792969 18.464844 0.628906 18.300781 C 0.46875 18.140625 0.375 17.917969 0.375 17.683594 L 0.375 3.796875 C 0.375 3.566406 0.46875 3.34375 0.628906 3.179688 C 0.792969 3.015625 1.015625 2.925781 1.246094 2.925781 Z M 1.246094 2.925781 "/>
<path style=" stroke:none;fill-rule:nonzero;fill:url(#linear1);" d="M 1.246094 5.875 L 22.867188 5.875 C 23.097656 5.875 23.320312 5.964844 23.484375 6.128906 C 23.648438 6.292969 23.742188 6.515625 23.738281 6.746094 L 23.738281 20.632812 C 23.742188 20.867188 23.648438 21.085938 23.484375 21.25 C 23.320312 21.414062 23.097656 21.507812 22.867188 21.507812 L 1.246094 21.507812 C 1.015625 21.507812 0.792969 21.414062 0.628906 21.25 C 0.464844 21.085938 0.375 20.867188 0.375 20.632812 L 0.375 6.746094 C 0.375 6.515625 0.464844 6.292969 0.628906 6.128906 C 0.792969 5.964844 1.015625 5.875 1.246094 5.875 Z M 1.246094 5.875 "/>
<use xlink:href="#surface5" mask="url(#mask0)"/>
<use xlink:href="#surface8" mask="url(#mask1)"/>
<path style=" stroke:none;fill-rule:nonzero;fill:url(#linear3);" d="M 12.058594 9.832031 C 10.023438 9.832031 8.101562 10.730469 6.785156 12.296875 C 6.660156 12.441406 6.632812 12.648438 6.714844 12.820312 C 6.796875 12.992188 6.96875 13.105469 7.160156 13.105469 C 7.300781 13.105469 7.441406 13.042969 7.539062 12.929688 C 8.667969 11.585938 10.3125 10.816406 12.058594 10.816406 C 13.800781 10.816406 15.449219 11.585938 16.578125 12.929688 C 16.671875 13.046875 16.8125 13.105469 16.953125 13.105469 C 17.144531 13.105469 17.320312 12.996094 17.398438 12.820312 C 17.480469 12.648438 17.453125 12.441406 17.332031 12.296875 C 16.015625 10.730469 14.09375 9.832031 12.058594 9.832031 Z M 12.058594 11.917969 C 10.605469 11.917969 9.230469 12.558594 8.292969 13.675781 C 8.117188 13.882812 8.144531 14.195312 8.351562 14.371094 C 8.558594 14.542969 8.871094 14.515625 9.042969 14.308594 C 9.789062 13.417969 10.894531 12.902344 12.058594 12.902344 C 13.21875 12.902344 14.316406 13.414062 15.070312 14.308594 C 15.167969 14.425781 15.308594 14.484375 15.445312 14.484375 C 15.636719 14.484375 15.8125 14.375 15.894531 14.199219 C 15.972656 14.027344 15.945312 13.824219 15.824219 13.675781 C 14.882812 12.558594 13.511719 11.917969 12.058594 11.917969 Z M 12.058594 14.082031 C 11.183594 14.082031 10.355469 14.46875 9.796875 15.136719 C 9.714844 15.238281 9.671875 15.367188 9.683594 15.496094 C 9.695312 15.625 9.757812 15.746094 9.859375 15.828125 C 9.957031 15.914062 10.085938 15.957031 10.21875 15.945312 C 10.347656 15.933594 10.46875 15.871094 10.550781 15.769531 C 10.925781 15.324219 11.476562 15.066406 12.058594 15.066406 C 12.636719 15.066406 13.1875 15.320312 13.5625 15.769531 C 13.648438 15.871094 13.769531 15.933594 13.898438 15.945312 C 14.027344 15.953125 14.15625 15.914062 14.257812 15.828125 C 14.355469 15.746094 14.417969 15.625 14.429688 15.496094 C 14.441406 15.367188 14.402344 15.238281 14.316406 15.136719 C 13.757812 14.46875 12.929688 14.082031 12.058594 14.082031 Z M 12.015625 15.949219 C 11.628906 15.988281 11.261719 16.273438 11.246094 16.703125 C 11.253906 17.144531 11.617188 17.496094 12.058594 17.496094 C 12.5 17.496094 12.859375 17.144531 12.867188 16.703125 C 12.800781 16.128906 12.398438 15.914062 12.015625 15.949219 Z M 12.015625 15.949219 "/>
</g>
</svg>
