
<svg xmlns="http://www.w3.org/2000/svg" xmlns:xlink="http://www.w3.org/1999/xlink" width="24px" height="24px" viewBox="0 0 24 24" version="1.1">
<defs>
<linearGradient id="linear0" gradientUnits="userSpaceOnUse" x1="32" y1="3.8" x2="32" y2="23.49" gradientTransform="matrix(0.375,0,0,0.375,0,0)">
<stop offset="0" style="stop-color:rgb(16.078432%,71.372551%,96.470588%);stop-opacity:1;"/>
<stop offset="0.67" style="stop-color:rgb(39.607844%,45.09804%,82.745099%);stop-opacity:1;"/>
<stop offset="1" style="stop-color:rgb(49.411765%,34.117648%,76.862746%);stop-opacity:1;"/>
</linearGradient>
<linearGradient id="linear1" gradientUnits="userSpaceOnUse" x1="32" y1="60.900002" x2="32" y2="18.719999" gradientTransform="matrix(0.375,0,0,0.375,0,0)">
<stop offset="0" style="stop-color:rgb(86.274511%,87.058824%,88.627452%);stop-opacity:1;"/>
<stop offset="0.57" style="stop-color:rgb(87.058824%,87.843138%,89.411765%);stop-opacity:1;"/>
<stop offset="0.81" style="stop-color:rgb(89.803922%,90.588236%,91.764706%);stop-opacity:1;"/>
<stop offset="0.99" style="stop-color:rgb(94.901961%,95.294118%,95.686275%);stop-opacity:1;"/>
<stop offset="1" style="stop-color:rgb(95.294118%,95.686275%,96.078432%);stop-opacity:1;"/>
</linearGradient>
<linearGradient id="linear2" gradientUnits="userSpaceOnUse" x1="32" y1="46.240002" x2="32" y2="39" gradientTransform="matrix(0.375,0,0,0.375,0,0)">
<stop offset="0" style="stop-color:rgb(75.294119%,75.294119%,75.294119%);stop-opacity:1;"/>
<stop offset="1" style="stop-color:rgb(55.686277%,55.686277%,55.686277%);stop-opacity:1;"/>
</linearGradient>
<linearGradient id="linear3" gradientUnits="userSpaceOnUse" x1="32" y1="52.619999" x2="32" y2="29.91" gradientTransform="matrix(0.375,0,0,0.375,0,0)">
<stop offset="0" style="stop-color:rgb(75.294119%,75.294119%,75.294119%);stop-opacity:1;"/>
<stop offset="1" style="stop-color:rgb(55.686277%,55.686277%,55.686277%);stop-opacity:1;"/>
</linearGradient>
</defs>
<g id="surface1">
<path style=" stroke:none;fill-rule:nonzero;fill:url(#linear0);" d="M 24 7.992188 C 23.996094 6.929688 23.136719 6.070312 22.074219 6.070312 L 15.542969 6.070312 C 14.207031 6.070312 13.117188 5.003906 13.089844 3.667969 C 13.113281 2.308594 12.027344 1.1875 10.667969 1.164062 L 1.269531 1.164062 C 0.566406 1.164062 0 1.730469 0 2.429688 L 0 8.78125 L 24 8.78125 Z M 24 7.992188 "/>
<path style=" stroke:none;fill-rule:nonzero;fill:url(#linear1);" d="M 22.074219 7.019531 L 1.925781 7.019531 C 0.859375 7.019531 0 7.882812 0 8.945312 L 0 20.917969 C 0.00390625 21.976562 0.863281 22.835938 1.925781 22.835938 L 22.074219 22.835938 C 23.136719 22.835938 23.996094 21.976562 24 20.917969 L 24 8.945312 C 24 7.882812 23.140625 7.019531 22.074219 7.019531 Z M 22.074219 7.019531 "/>
<path style=" stroke:none;fill-rule:nonzero;fill:url(#linear2);" d="M 13.257812 15.851562 C 13.257812 16.546875 12.695312 17.105469 12 17.105469 C 11.304688 17.105469 10.742188 16.546875 10.742188 15.851562 C 10.742188 15.15625 11.304688 14.59375 12 14.59375 C 12.695312 14.59375 13.257812 15.15625 13.257812 15.851562 Z M 13.257812 15.851562 "/>
<path style=" stroke:none;fill-rule:nonzero;fill:url(#linear3);" d="M 15.148438 12.375 L 14.25 12.375 L 14.25 11.894531 C 14.242188 11.484375 13.910156 11.15625 13.5 11.144531 L 10.5 11.144531 C 10.082031 11.144531 9.742188 11.476562 9.730469 11.894531 L 9.730469 12.375 L 8.851562 12.375 C 8.144531 12.378906 7.570312 12.949219 7.570312 13.65625 L 7.570312 17.726562 C 7.574219 18.429688 8.144531 19.003906 8.851562 19.003906 L 15.148438 19.003906 C 15.855469 19.003906 16.425781 18.429688 16.429688 17.726562 L 16.429688 13.65625 C 16.429688 12.949219 15.855469 12.378906 15.148438 12.375 Z M 12 18.15625 C 10.726562 18.15625 9.695312 17.125 9.695312 15.851562 C 9.695312 14.578125 10.726562 13.542969 12 13.542969 C 13.273438 13.542969 14.304688 14.578125 14.304688 15.851562 C 14.304688 17.125 13.273438 18.15625 12 18.15625 Z M 15 14.355469 C 14.710938 14.355469 14.476562 14.121094 14.476562 13.832031 C 14.476562 13.539062 14.710938 13.304688 15 13.304688 C 15.289062 13.304688 15.523438 13.539062 15.523438 13.832031 C 15.523438 14.121094 15.289062 14.355469 15 14.355469 Z M 15 14.355469 "/>
</g>
</svg>
