
<svg xmlns="http://www.w3.org/2000/svg" xmlns:xlink="http://www.w3.org/1999/xlink" width="24px" height="24px" viewBox="0 0 24 24" version="1.1">
<defs>
<linearGradient id="linear0" gradientUnits="userSpaceOnUse" x1="32" y1="3.8" x2="32" y2="23.49" gradientTransform="matrix(0.375,0,0,0.375,0,0)">
<stop offset="0" style="stop-color:rgb(16.078432%,71.372551%,96.470588%);stop-opacity:1;"/>
<stop offset="0.67" style="stop-color:rgb(39.607844%,45.09804%,82.745099%);stop-opacity:1;"/>
<stop offset="1" style="stop-color:rgb(49.411765%,34.117648%,76.862746%);stop-opacity:1;"/>
</linearGradient>
<linearGradient id="linear1" gradientUnits="userSpaceOnUse" x1="32" y1="60.900002" x2="32" y2="18.719999" gradientTransform="matrix(0.375,0,0,0.375,0,0)">
<stop offset="0" style="stop-color:rgb(86.274511%,87.058824%,88.627452%);stop-opacity:1;"/>
<stop offset="0.57" style="stop-color:rgb(87.058824%,87.843138%,89.411765%);stop-opacity:1;"/>
<stop offset="0.81" style="stop-color:rgb(89.803922%,90.588236%,91.764706%);stop-opacity:1;"/>
<stop offset="0.99" style="stop-color:rgb(94.901961%,95.294118%,95.686275%);stop-opacity:1;"/>
<stop offset="1" style="stop-color:rgb(95.294118%,95.686275%,96.078432%);stop-opacity:1;"/>
</linearGradient>
<linearGradient id="linear2" gradientUnits="userSpaceOnUse" x1="29.32" y1="51.810001" x2="29.32" y2="28.379999" gradientTransform="matrix(0.375,0,0,0.375,0,0)">
<stop offset="0" style="stop-color:rgb(75.294119%,75.294119%,75.294119%);stop-opacity:1;"/>
<stop offset="1" style="stop-color:rgb(55.686277%,55.686277%,55.686277%);stop-opacity:1;"/>
</linearGradient>
<linearGradient id="linear3" gradientUnits="userSpaceOnUse" x1="30.58" y1="51.810001" x2="30.58" y2="28.379999" gradientTransform="matrix(0.375,0,0,0.375,0,0)">
<stop offset="0" style="stop-color:rgb(75.294119%,75.294119%,75.294119%);stop-opacity:1;"/>
<stop offset="1" style="stop-color:rgb(55.686277%,55.686277%,55.686277%);stop-opacity:1;"/>
</linearGradient>
<linearGradient id="linear4" gradientUnits="userSpaceOnUse" x1="33.419998" y1="51.810001" x2="33.419998" y2="28.379999" gradientTransform="matrix(0.375,0,0,0.375,0,0)">
<stop offset="0" style="stop-color:rgb(75.294119%,75.294119%,75.294119%);stop-opacity:1;"/>
<stop offset="1" style="stop-color:rgb(55.686277%,55.686277%,55.686277%);stop-opacity:1;"/>
</linearGradient>
<linearGradient id="linear5" gradientUnits="userSpaceOnUse" x1="33.59" y1="51.810001" x2="33.59" y2="28.379999" gradientTransform="matrix(0.375,0,0,0.375,0,0)">
<stop offset="0" style="stop-color:rgb(75.294119%,75.294119%,75.294119%);stop-opacity:1;"/>
<stop offset="1" style="stop-color:rgb(55.686277%,55.686277%,55.686277%);stop-opacity:1;"/>
</linearGradient>
<linearGradient id="linear6" gradientUnits="userSpaceOnUse" x1="27.57" y1="51.810001" x2="27.57" y2="28.379999" gradientTransform="matrix(0.375,0,0,0.375,0,0)">
<stop offset="0" style="stop-color:rgb(75.294119%,75.294119%,75.294119%);stop-opacity:1;"/>
<stop offset="1" style="stop-color:rgb(55.686277%,55.686277%,55.686277%);stop-opacity:1;"/>
</linearGradient>
<linearGradient id="linear7" gradientUnits="userSpaceOnUse" x1="26.59" y1="40.560001" x2="35.310001" y2="40.560001" gradientTransform="matrix(0.375,0,0,0.375,0,0)">
<stop offset="0" style="stop-color:rgb(75.294119%,75.294119%,75.294119%);stop-opacity:1;"/>
<stop offset="1" style="stop-color:rgb(55.686277%,55.686277%,55.686277%);stop-opacity:1;"/>
</linearGradient>
</defs>
<g id="surface1">
<path style=" stroke:none;fill-rule:nonzero;fill:url(#linear0);" d="M 24 7.992188 C 23.996094 6.929688 23.136719 6.070312 22.074219 6.070312 L 15.542969 6.070312 C 14.207031 6.070312 13.117188 5.003906 13.089844 3.667969 C 13.113281 2.308594 12.027344 1.1875 10.667969 1.164062 L 1.269531 1.164062 C 0.566406 1.164062 0 1.730469 0 2.429688 L 0 8.78125 L 24 8.78125 Z M 24 7.992188 "/>
<path style=" stroke:none;fill-rule:nonzero;fill:url(#linear1);" d="M 22.074219 7.019531 L 1.925781 7.019531 C 0.859375 7.019531 0 7.882812 0 8.945312 L 0 20.917969 C 0.00390625 21.976562 0.863281 22.835938 1.925781 22.835938 L 22.074219 22.835938 C 23.136719 22.835938 23.996094 21.976562 24 20.917969 L 24 8.945312 C 24 7.882812 23.140625 7.019531 22.074219 7.019531 Z M 22.074219 7.019531 "/>
<path style=" stroke:none;fill-rule:nonzero;fill:url(#linear2);" d="M 10.824219 10.847656 C 10.679688 10.847656 10.5625 10.964844 10.5625 11.105469 C 10.5625 11.25 10.679688 11.367188 10.824219 11.367188 L 11.421875 11.367188 C 11.410156 11.28125 11.40625 11.195312 11.402344 11.105469 C 11.40625 11.019531 11.410156 10.933594 11.421875 10.847656 Z M 10.824219 10.847656 "/>
<path style=" stroke:none;fill-rule:nonzero;fill:url(#linear3);" d="M 14.691406 18.523438 L 14.691406 11.105469 C 14.691406 10.964844 14.578125 10.847656 14.433594 10.847656 L 13.082031 10.847656 C 12.9375 10.847656 12.820312 10.964844 12.820312 11.105469 C 12.820312 11.25 12.9375 11.367188 13.082031 11.367188 L 14.175781 11.367188 L 14.175781 18.265625 L 8.761719 18.265625 L 8.761719 11.367188 L 9.164062 11.367188 C 9.152344 11.28125 9.148438 11.195312 9.148438 11.105469 C 9.148438 11.019531 9.152344 10.933594 9.164062 10.847656 L 8.5 10.847656 C 8.359375 10.847656 8.242188 10.964844 8.242188 11.105469 L 8.242188 18.523438 C 8.242188 18.59375 8.269531 18.660156 8.320312 18.707031 C 8.367188 18.753906 8.433594 18.78125 8.5 18.78125 L 14.433594 18.78125 C 14.5 18.78125 14.566406 18.753906 14.617188 18.707031 C 14.664062 18.660156 14.691406 18.59375 14.691406 18.523438 Z M 14.691406 18.523438 "/>
<path style=" stroke:none;fill-rule:nonzero;fill:url(#linear4);" d="M 15.5 11.914062 C 15.355469 11.914062 15.242188 12.03125 15.242188 12.171875 L 15.242188 19.332031 L 9.566406 19.332031 C 9.5 19.328125 9.433594 19.355469 9.382812 19.40625 C 9.335938 19.453125 9.308594 19.519531 9.308594 19.585938 C 9.308594 19.730469 9.421875 19.84375 9.566406 19.84375 L 15.5 19.84375 C 15.640625 19.84375 15.757812 19.730469 15.757812 19.585938 L 15.757812 12.171875 C 15.757812 12.03125 15.640625 11.914062 15.5 11.914062 Z M 15.5 11.914062 "/>
<path style=" stroke:none;fill-rule:nonzero;fill:url(#linear5);" d="M 13.082031 12.335938 C 13.222656 12.335938 13.339844 12.21875 13.339844 12.074219 C 13.339844 11.933594 13.222656 11.816406 13.082031 11.816406 C 12.789062 11.816406 12.527344 11.636719 12.417969 11.367188 C 12.390625 11.285156 12.371094 11.195312 12.371094 11.105469 C 12.371094 11.019531 12.390625 10.929688 12.417969 10.847656 C 12.527344 10.578125 12.789062 10.398438 13.082031 10.398438 C 13.222656 10.398438 13.339844 10.28125 13.339844 10.140625 C 13.339844 9.996094 13.222656 9.882812 13.082031 9.882812 C 12.40625 9.886719 11.859375 10.433594 11.855469 11.105469 C 11.855469 11.195312 11.863281 11.28125 11.882812 11.367188 C 12.003906 11.929688 12.503906 12.335938 13.082031 12.335938 Z M 13.082031 12.335938 "/>
<path style=" stroke:none;fill-rule:nonzero;fill:url(#linear6);" d="M 10.824219 12.335938 C 10.964844 12.335938 11.082031 12.21875 11.082031 12.074219 C 11.082031 11.933594 10.964844 11.816406 10.824219 11.816406 C 10.53125 11.816406 10.269531 11.636719 10.164062 11.367188 C 10.132812 11.285156 10.113281 11.195312 10.113281 11.105469 C 10.113281 11.019531 10.132812 10.929688 10.164062 10.847656 C 10.269531 10.578125 10.53125 10.398438 10.824219 10.398438 C 10.964844 10.398438 11.082031 10.28125 11.082031 10.140625 C 11.082031 9.996094 10.964844 9.882812 10.824219 9.882812 C 10.148438 9.886719 9.601562 10.433594 9.597656 11.105469 C 9.597656 11.195312 9.605469 11.28125 9.625 11.367188 C 9.75 11.929688 10.246094 12.332031 10.824219 12.335938 Z M 10.824219 12.335938 "/>
<path style=" stroke:none;fill-rule:nonzero;fill:url(#linear7);" d="M 12.886719 16.953125 C 12.777344 16.957031 12.664062 16.933594 12.558594 16.890625 C 12.472656 16.851562 12.398438 16.789062 12.34375 16.714844 C 12.285156 16.632812 12.246094 16.542969 12.226562 16.445312 C 12.203125 16.335938 12.191406 16.222656 12.191406 16.105469 L 12.191406 15.464844 C 11.96875 15.375 11.734375 15.320312 11.492188 15.296875 C 11.316406 15.277344 11.140625 15.296875 10.96875 15.347656 C 10.835938 15.390625 10.722656 15.46875 10.636719 15.578125 C 10.558594 15.6875 10.519531 15.816406 10.527344 15.953125 C 10.519531 16.117188 10.59375 16.273438 10.726562 16.371094 C 10.882812 16.464844 11.066406 16.511719 11.25 16.5 C 11.34375 16.503906 11.441406 16.496094 11.53125 16.472656 C 11.613281 16.472656 11.695312 16.429688 11.78125 16.402344 C 11.832031 16.378906 11.890625 16.378906 11.945312 16.402344 C 11.984375 16.417969 12.019531 16.449219 12.039062 16.488281 C 12.054688 16.535156 12.054688 16.582031 12.039062 16.628906 C 12.019531 16.683594 11.984375 16.734375 11.9375 16.769531 C 11.84375 16.839844 11.734375 16.890625 11.617188 16.914062 C 11.46875 16.953125 11.3125 16.96875 11.160156 16.96875 C 11.011719 16.96875 10.863281 16.945312 10.722656 16.90625 C 10.585938 16.863281 10.460938 16.796875 10.347656 16.710938 C 10.234375 16.621094 10.140625 16.507812 10.074219 16.375 C 10.003906 16.226562 9.96875 16.0625 9.972656 15.898438 C 9.964844 15.683594 10.035156 15.476562 10.167969 15.308594 C 10.296875 15.136719 10.472656 15.007812 10.671875 14.933594 C 10.902344 14.851562 11.144531 14.816406 11.386719 14.832031 C 11.667969 14.847656 11.941406 14.917969 12.191406 15.039062 L 12.191406 14.625 C 12.195312 14.523438 12.171875 14.421875 12.128906 14.328125 C 12.085938 14.246094 12.027344 14.175781 11.949219 14.121094 C 11.875 14.070312 11.789062 14.03125 11.695312 14.007812 C 11.59375 13.980469 11.492188 13.96875 11.386719 13.96875 C 11.261719 13.964844 11.132812 13.984375 11.011719 14.027344 C 10.933594 14.0625 10.855469 14.101562 10.785156 14.15625 L 10.621094 14.289062 C 10.5625 14.328125 10.488281 14.351562 10.417969 14.347656 C 10.355469 14.347656 10.296875 14.324219 10.253906 14.285156 C 10.199219 14.238281 10.171875 14.167969 10.179688 14.101562 C 10.179688 14.015625 10.214844 13.933594 10.269531 13.871094 C 10.335938 13.785156 10.421875 13.710938 10.519531 13.65625 C 10.636719 13.585938 10.761719 13.535156 10.894531 13.5 C 11.054688 13.457031 11.21875 13.4375 11.382812 13.441406 C 11.5625 13.4375 11.742188 13.464844 11.914062 13.519531 C 12.070312 13.566406 12.21875 13.640625 12.34375 13.742188 C 12.464844 13.839844 12.5625 13.957031 12.632812 14.09375 C 12.707031 14.234375 12.746094 14.386719 12.75 14.546875 L 12.75 16.046875 C 12.746094 16.148438 12.757812 16.253906 12.78125 16.351562 C 12.804688 16.429688 12.832031 16.464844 12.878906 16.464844 L 12.953125 16.464844 C 13.03125 16.460938 13.105469 16.488281 13.164062 16.539062 C 13.21875 16.582031 13.25 16.644531 13.25 16.714844 C 13.25 16.785156 13.214844 16.847656 13.160156 16.890625 C 13.078125 16.941406 12.984375 16.960938 12.886719 16.953125 Z M 12.886719 16.953125 "/>
</g>
</svg>
