
<svg xmlns="http://www.w3.org/2000/svg" xmlns:xlink="http://www.w3.org/1999/xlink" width="24px" height="24px" viewBox="0 0 24 24" version="1.1">
<defs>
<linearGradient id="linear0" gradientUnits="userSpaceOnUse" x1="32" y1="3.8" x2="32" y2="23.49" gradientTransform="matrix(0.375,0,0,0.375,0,0)">
<stop offset="0" style="stop-color:rgb(16.078432%,71.372551%,96.470588%);stop-opacity:1;"/>
<stop offset="0.67" style="stop-color:rgb(39.607844%,45.09804%,82.745099%);stop-opacity:1;"/>
<stop offset="1" style="stop-color:rgb(49.411765%,34.117648%,76.862746%);stop-opacity:1;"/>
</linearGradient>
<linearGradient id="linear1" gradientUnits="userSpaceOnUse" x1="32" y1="60.900002" x2="32" y2="18.719999" gradientTransform="matrix(0.375,0,0,0.375,0,0)">
<stop offset="0" style="stop-color:rgb(86.274511%,87.058824%,88.627452%);stop-opacity:1;"/>
<stop offset="0.57" style="stop-color:rgb(87.058824%,87.843138%,89.411765%);stop-opacity:1;"/>
<stop offset="0.81" style="stop-color:rgb(89.803922%,90.588236%,91.764706%);stop-opacity:1;"/>
<stop offset="0.99" style="stop-color:rgb(94.901961%,95.294118%,95.686275%);stop-opacity:1;"/>
<stop offset="1" style="stop-color:rgb(95.294118%,95.686275%,96.078432%);stop-opacity:1;"/>
</linearGradient>
<linearGradient id="linear2" gradientUnits="userSpaceOnUse" x1="32.02" y1="30.5" x2="32.02" y2="49.509998" gradientTransform="matrix(0.375,0,0,0.375,0,0)">
<stop offset="0" style="stop-color:rgb(55.686277%,55.686277%,55.686277%);stop-opacity:1;"/>
<stop offset="1" style="stop-color:rgb(75.294119%,75.294119%,75.294119%);stop-opacity:1;"/>
</linearGradient>
<linearGradient id="linear3" gradientUnits="userSpaceOnUse" x1="32.009998" y1="30.5" x2="32.009998" y2="49.509998" gradientTransform="matrix(0.375,0,0,0.375,0,0)">
<stop offset="0" style="stop-color:rgb(55.686277%,55.686277%,55.686277%);stop-opacity:1;"/>
<stop offset="1" style="stop-color:rgb(75.294119%,75.294119%,75.294119%);stop-opacity:1;"/>
</linearGradient>
<linearGradient id="linear4" gradientUnits="userSpaceOnUse" x1="32" y1="30.5" x2="32" y2="49.509998" gradientTransform="matrix(0.375,0,0,0.375,0,0)">
<stop offset="0" style="stop-color:rgb(55.686277%,55.686277%,55.686277%);stop-opacity:1;"/>
<stop offset="1" style="stop-color:rgb(75.294119%,75.294119%,75.294119%);stop-opacity:1;"/>
</linearGradient>
<linearGradient id="linear5" gradientUnits="userSpaceOnUse" x1="32.09" y1="30.5" x2="32.09" y2="49.509998" gradientTransform="matrix(0.375,0,0,0.375,-0.00135209,-0.00147049)">
<stop offset="0" style="stop-color:rgb(55.686277%,55.686277%,55.686277%);stop-opacity:1;"/>
<stop offset="1" style="stop-color:rgb(75.294119%,75.294119%,75.294119%);stop-opacity:1;"/>
</linearGradient>
</defs>
<g id="surface1">
<path style=" stroke:none;fill-rule:nonzero;fill:url(#linear0);" d="M 24 7.992188 C 23.996094 6.929688 23.136719 6.070312 22.074219 6.070312 L 15.542969 6.070312 C 14.207031 6.070312 13.117188 5.003906 13.089844 3.667969 C 13.113281 2.308594 12.027344 1.1875 10.667969 1.164062 L 1.269531 1.164062 C 0.566406 1.164062 0 1.730469 0 2.429688 L 0 8.78125 L 24 8.78125 Z M 24 7.992188 "/>
<path style=" stroke:none;fill-rule:nonzero;fill:url(#linear1);" d="M 22.074219 7.019531 L 1.925781 7.019531 C 0.859375 7.019531 0 7.882812 0 8.945312 L 0 20.917969 C 0.00390625 21.976562 0.863281 22.835938 1.925781 22.835938 L 22.074219 22.835938 C 23.136719 22.835938 23.996094 21.976562 24 20.917969 L 24 8.945312 C 24 7.882812 23.140625 7.019531 22.074219 7.019531 Z M 22.074219 7.019531 "/>
<path style=" stroke:none;fill-rule:nonzero;fill:url(#linear2);" d="M 14.460938 16.5 C 14.375 16.585938 14.253906 16.636719 14.128906 16.636719 C 14.007812 16.636719 13.886719 16.585938 13.800781 16.5 C 12.808594 15.515625 11.207031 15.515625 10.214844 16.5 C 10.03125 16.683594 9.738281 16.683594 9.554688 16.5 C 9.371094 16.316406 9.371094 16.023438 9.554688 15.839844 C 10.910156 14.488281 13.101562 14.488281 14.457031 15.839844 C 14.636719 16.023438 14.640625 16.316406 14.460938 16.5 Z M 14.460938 16.5 "/>
<path style=" stroke:none;fill-rule:nonzero;fill:url(#linear3);" d="M 15.5 15.410156 C 15.410156 15.496094 15.292969 15.546875 15.167969 15.546875 C 15.042969 15.546875 14.925781 15.496094 14.839844 15.410156 C 13.273438 13.84375 10.734375 13.84375 9.167969 15.410156 C 8.984375 15.574219 8.703125 15.566406 8.523438 15.390625 C 8.347656 15.21875 8.339844 14.933594 8.503906 14.75 C 10.4375 12.820312 13.566406 12.820312 15.5 14.75 C 15.679688 14.929688 15.679688 15.226562 15.5 15.410156 Z M 15.5 15.410156 "/>
<path style=" stroke:none;fill-rule:nonzero;fill:url(#linear4);" d="M 16.554688 14.289062 C 16.367188 14.46875 16.074219 14.46875 15.894531 14.289062 C 13.742188 12.140625 10.261719 12.140625 8.113281 14.289062 C 7.925781 14.457031 7.644531 14.449219 7.46875 14.273438 C 7.292969 14.101562 7.28125 13.816406 7.449219 13.632812 C 9.960938 11.121094 14.035156 11.121094 16.550781 13.632812 C 16.730469 13.8125 16.734375 14.105469 16.554688 14.289062 Z M 16.554688 14.289062 "/>
<path style=" stroke:none;fill-rule:nonzero;fill:url(#linear5);" d="M 12.832031 16.855469 C 12.511719 16.410156 11.894531 16.3125 11.453125 16.632812 C 11.011719 16.953125 10.917969 17.570312 11.238281 18.011719 C 11.558594 18.453125 12.175781 18.554688 12.617188 18.234375 C 13.058594 17.914062 13.15625 17.296875 12.832031 16.855469 Z M 12.832031 16.855469 "/>
</g>
</svg>
