
<svg xmlns="http://www.w3.org/2000/svg" xmlns:xlink="http://www.w3.org/1999/xlink" width="24px" height="24px" viewBox="0 0 24 24" version="1.1">
<defs>
<linearGradient id="linear0" gradientUnits="userSpaceOnUse" x1="-26.201" y1="1070.199951" x2="-26.201" y2="1082.599976" gradientTransform="matrix(0.265668,0,0,0.265668,13.08161,-281.603628)">
<stop offset="0" style="stop-color:rgb(99.215686%,61.56863%,47.058824%);stop-opacity:1;"/>
<stop offset="1" style="stop-color:rgb(100%,68.235296%,48.235294%);stop-opacity:1;"/>
</linearGradient>
<linearGradient id="linear1" gradientUnits="userSpaceOnUse" x1="-9.912" y1="1081.400024" x2="-9.912" y2="1139.800049" gradientTransform="matrix(0.265668,0,0,0.265668,13.08161,-281.603628)">
<stop offset="0" style="stop-color:rgb(98.431373%,49.019608%,22.352941%);stop-opacity:1;"/>
<stop offset="0.5" style="stop-color:rgb(98.823529%,57.647061%,31.37255%);stop-opacity:1;"/>
<stop offset="1" style="stop-color:rgb(100%,55.29412%,27.058825%);stop-opacity:1;"/>
</linearGradient>
<filter id="alpha" filterUnits="objectBoundingBox" x="0%" y="0%" width="100%" height="100%">
  <feColorMatrix type="matrix" in="SourceGraphic" values="0 0 0 0 1 0 0 0 0 1 0 0 0 0 1 0 0 0 1 0"/>
</filter>
<mask id="mask0">
  <g filter="url(#alpha)">
<rect x="0" y="0" width="24" height="24" style="fill:rgb(0%,0%,0%);fill-opacity:0.08;stroke:none;"/>
  </g>
</mask>
<clipPath id="clip1">
  <rect x="0" y="0" width="24" height="24"/>
</clipPath>
<g id="surface5" clip-path="url(#clip1)">
<path style=" stroke:none;fill-rule:nonzero;fill:rgb(0%,0%,0%);fill-opacity:1;" d="M 0.320312 19.683594 L 0.320312 19.949219 L 23.683594 19.949219 L 23.683594 19.683594 Z M 0.320312 20.269531 L 0.320312 20.410156 C 0.320312 20.453125 0.324219 20.492188 0.328125 20.535156 L 23.675781 20.535156 C 23.679688 20.492188 23.683594 20.453125 23.683594 20.410156 L 23.683594 20.269531 Z M 0.320312 20.269531 "/>
</g>
<mask id="mask1">
  <g filter="url(#alpha)">
<rect x="0" y="0" width="24" height="24" style="fill:rgb(0%,0%,0%);fill-opacity:0.25;stroke:none;"/>
  </g>
</mask>
<linearGradient id="linear2" gradientUnits="userSpaceOnUse" x1="-9.617" y1="1138.400024" x2="-9.617" y2="1140.199951" gradientTransform="matrix(0.265668,0,0,0.265668,13.08161,-281.603628)">
<stop offset="0" style="stop-color:rgb(0%,0%,0%);stop-opacity:0.046784;"/>
<stop offset="1" style="stop-color:rgb(0%,0%,0%);stop-opacity:1;"/>
</linearGradient>
<clipPath id="clip2">
  <rect x="0" y="0" width="24" height="24"/>
</clipPath>
<g id="surface8" clip-path="url(#clip2)">
<path style=" stroke:none;fill-rule:nonzero;fill:url(#linear2);" d="M 0.394531 20.78125 C 0.535156 21.09375 0.847656 21.296875 1.191406 21.292969 L 22.8125 21.292969 C 23.167969 21.292969 23.472656 21.082031 23.609375 20.78125 Z M 0.394531 20.78125 "/>
</g>
<mask id="mask2">
  <g filter="url(#alpha)">
<rect x="0" y="0" width="24" height="24" style="fill:rgb(0%,0%,0%);fill-opacity:0.15;stroke:none;"/>
  </g>
</mask>
<clipPath id="clip3">
  <rect x="0" y="0" width="24" height="24"/>
</clipPath>
<g id="surface11" clip-path="url(#clip3)">
<path style=" stroke:none;fill-rule:nonzero;fill:rgb(0%,0%,0%);fill-opacity:1;" d="M 10.957031 8.828125 C 10.171875 8.828125 8.972656 9.542969 8.972656 10.363281 L 8.972656 11.886719 C 8.828125 11.886719 8.769531 11.953125 8.761719 12.246094 C 8.796875 12.738281 9.375 13.261719 9.421875 13.375 C 9.472656 13.492188 9.488281 13.898438 9.601562 14.257812 C 9.71875 14.617188 9.765625 15.601562 9.765625 15.601562 C 8.582031 15.917969 5.613281 16.808594 5.613281 18.558594 L 18.09375 18.558594 C 18.09375 17.144531 15.691406 16.421875 14.734375 16.167969 C 14.734375 16.167969 14.773438 15.375 14.867188 15.082031 C 14.960938 14.792969 14.972656 14.460938 15.011719 14.367188 C 15.050781 14.277344 15.519531 13.851562 15.546875 13.457031 C 15.539062 13.21875 15.492188 13.164062 15.375 13.164062 L 15.375 11.933594 C 15.375 11.269531 14.410156 10.691406 13.773438 10.691406 C 13.519531 10.691406 13.214844 10.785156 12.9375 10.9375 L 12.9375 10.363281 C 12.9375 9.542969 11.742188 8.828125 10.957031 8.828125 Z M 12.34375 14.128906 C 12.4375 14.242188 12.519531 14.332031 12.535156 14.367188 C 12.574219 14.460938 12.585938 14.792969 12.679688 15.082031 C 12.730469 15.238281 12.761719 15.539062 12.785156 15.785156 C 12.542969 15.710938 12.320312 15.648438 12.144531 15.601562 C 12.144531 15.601562 12.195312 14.617188 12.308594 14.257812 C 12.320312 14.214844 12.335938 14.171875 12.34375 14.128906 Z M 12.34375 14.128906 "/>
</g>
</defs>
<g id="surface1">
<path style=" stroke:none;fill-rule:nonzero;fill:url(#linear0);" d="M 1.191406 2.714844 L 7.070312 2.714844 C 7.941406 2.714844 8.304688 4.59375 9.121094 4.59375 L 22.808594 4.59375 C 23.042969 4.59375 23.265625 4.683594 23.425781 4.847656 C 23.589844 5.011719 23.683594 5.234375 23.683594 5.464844 L 23.683594 18.882812 C 23.683594 19.367188 23.292969 18.347656 22.808594 18.347656 L 1.191406 18.347656 C 0.957031 18.347656 0.738281 18.253906 0.574219 18.09375 C 0.410156 17.929688 0.316406 17.707031 0.316406 17.472656 L 0.316406 3.585938 C 0.316406 3.355469 0.410156 3.132812 0.574219 2.96875 C 0.738281 2.804688 0.957031 2.714844 1.191406 2.714844 Z M 1.191406 2.714844 "/>
<path style=" stroke:none;fill-rule:nonzero;fill:url(#linear1);" d="M 1.191406 5.664062 L 22.808594 5.664062 C 23.042969 5.664062 23.261719 5.753906 23.425781 5.917969 C 23.589844 6.082031 23.683594 6.304688 23.683594 6.535156 L 23.683594 20.421875 C 23.683594 20.65625 23.589844 20.875 23.425781 21.039062 C 23.261719 21.203125 23.042969 21.296875 22.808594 21.296875 L 1.191406 21.296875 C 0.957031 21.296875 0.734375 21.203125 0.574219 21.039062 C 0.410156 20.875 0.316406 20.65625 0.316406 20.421875 L 0.316406 6.535156 C 0.316406 6.304688 0.410156 6.082031 0.574219 5.917969 C 0.734375 5.753906 0.957031 5.664062 1.191406 5.664062 Z M 1.191406 5.664062 "/>
<use xlink:href="#surface5" mask="url(#mask0)"/>
<use xlink:href="#surface8" mask="url(#mask1)"/>
<use xlink:href="#surface11" mask="url(#mask2)"/>
</g>
</svg>
