
<svg xmlns="http://www.w3.org/2000/svg" xmlns:xlink="http://www.w3.org/1999/xlink" width="24px" height="24px" viewBox="0 0 24 24" version="1.1">
<defs>
<linearGradient id="linear0" gradientUnits="userSpaceOnUse" x1="32" y1="3.8" x2="32" y2="23.49" gradientTransform="matrix(0.375,0,0,0.375,0,0)">
<stop offset="0" style="stop-color:rgb(16.078432%,71.372551%,96.470588%);stop-opacity:1;"/>
<stop offset="0.67" style="stop-color:rgb(39.607844%,45.09804%,82.745099%);stop-opacity:1;"/>
<stop offset="1" style="stop-color:rgb(49.411765%,34.117648%,76.862746%);stop-opacity:1;"/>
</linearGradient>
<linearGradient id="linear1" gradientUnits="userSpaceOnUse" x1="32" y1="60.900002" x2="32" y2="18.719999" gradientTransform="matrix(0.375,0,0,0.375,0,0)">
<stop offset="0" style="stop-color:rgb(86.274511%,87.058824%,88.627452%);stop-opacity:1;"/>
<stop offset="0.57" style="stop-color:rgb(87.058824%,87.843138%,89.411765%);stop-opacity:1;"/>
<stop offset="0.81" style="stop-color:rgb(89.803922%,90.588236%,91.764706%);stop-opacity:1;"/>
<stop offset="0.99" style="stop-color:rgb(94.901961%,95.294118%,95.686275%);stop-opacity:1;"/>
<stop offset="1" style="stop-color:rgb(95.294118%,95.686275%,96.078432%);stop-opacity:1;"/>
</linearGradient>
<linearGradient id="linear2" gradientUnits="userSpaceOnUse" x1="32.09" y1="34.84" x2="32.09" y2="28.02" gradientTransform="matrix(0.375,0,0,0.375,0,0)">
<stop offset="0" style="stop-color:rgb(75.294119%,75.294119%,75.294119%);stop-opacity:1;"/>
<stop offset="1" style="stop-color:rgb(55.686277%,55.686277%,55.686277%);stop-opacity:1;"/>
</linearGradient>
<linearGradient id="linear3" gradientUnits="userSpaceOnUse" x1="32" y1="52.02" x2="32" y2="30.799999" gradientTransform="matrix(0.375,0,0,0.375,0,0)">
<stop offset="0" style="stop-color:rgb(75.294119%,75.294119%,75.294119%);stop-opacity:1;"/>
<stop offset="1" style="stop-color:rgb(55.686277%,55.686277%,55.686277%);stop-opacity:1;"/>
</linearGradient>
<linearGradient id="linear4" gradientUnits="userSpaceOnUse" x1="32.009998" y1="45.759998" x2="32.009998" y2="44.139999" gradientTransform="matrix(0.375,0,0,0.375,0,0)">
<stop offset="0" style="stop-color:rgb(75.294119%,75.294119%,75.294119%);stop-opacity:1;"/>
<stop offset="1" style="stop-color:rgb(55.686277%,55.686277%,55.686277%);stop-opacity:1;"/>
</linearGradient>
<linearGradient id="linear5" gradientUnits="userSpaceOnUse" x1="30.360001" y1="48.610001" x2="30.360001" y2="46.98" gradientTransform="matrix(0.375,0,0,0.375,0,0)">
<stop offset="0" style="stop-color:rgb(75.294119%,75.294119%,75.294119%);stop-opacity:1;"/>
<stop offset="1" style="stop-color:rgb(55.686277%,55.686277%,55.686277%);stop-opacity:1;"/>
</linearGradient>
</defs>
<g id="surface1">
<path style=" stroke:none;fill-rule:nonzero;fill:url(#linear0);" d="M 24 7.992188 C 23.996094 6.929688 23.136719 6.070312 22.074219 6.070312 L 15.542969 6.070312 C 14.207031 6.070312 13.117188 5.003906 13.089844 3.667969 C 13.113281 2.308594 12.027344 1.1875 10.667969 1.164062 L 1.269531 1.164062 C 0.566406 1.164062 0 1.730469 0 2.429688 L 0 8.78125 L 24 8.78125 Z M 24 7.992188 "/>
<path style=" stroke:none;fill-rule:nonzero;fill:url(#linear1);" d="M 22.074219 7.019531 L 1.925781 7.019531 C 0.859375 7.019531 0 7.882812 0 8.945312 L 0 20.917969 C 0.00390625 21.976562 0.863281 22.835938 1.925781 22.835938 L 22.074219 22.835938 C 23.136719 22.835938 23.996094 21.976562 24 20.917969 L 24 8.945312 C 24 7.882812 23.140625 7.019531 22.074219 7.019531 Z M 22.074219 7.019531 "/>
<path style=" stroke:none;fill-rule:nonzero;fill:url(#linear2);" d="M 12.492188 10.5 C 12.539062 10.601562 12.574219 10.707031 12.597656 10.816406 C 12.605469 11.011719 12.605469 11.210938 12.597656 11.410156 C 12.597656 11.535156 12.648438 11.582031 12.765625 11.582031 C 12.890625 11.570312 13.015625 11.570312 13.140625 11.582031 C 13.210938 11.578125 13.273438 11.621094 13.304688 11.6875 C 13.328125 11.75 13.316406 11.828125 13.261719 11.875 C 12.886719 12.25 12.511719 12.625 12.136719 13 C 12.105469 13.039062 12.054688 13.0625 12.007812 13.0625 C 11.953125 13.0625 11.90625 13.039062 11.871094 13 C 11.496094 12.625 11.140625 12.273438 10.785156 11.902344 C 10.738281 11.847656 10.71875 11.773438 10.738281 11.699219 C 10.777344 11.640625 10.839844 11.601562 10.914062 11.59375 C 11.039062 11.585938 11.164062 11.585938 11.289062 11.59375 C 11.402344 11.59375 11.457031 11.546875 11.453125 11.425781 C 11.453125 11.226562 11.453125 11.023438 11.453125 10.832031 C 11.476562 10.722656 11.511719 10.617188 11.558594 10.515625 Z M 12.492188 10.5 "/>
<path style=" stroke:none;fill-rule:nonzero;fill:url(#linear3);" d="M 14.757812 13.632812 L 15.648438 13.632812 C 15.851562 13.617188 16.054688 13.691406 16.199219 13.835938 C 16.34375 13.980469 16.414062 14.179688 16.398438 14.382812 C 16.398438 15.320312 16.398438 16.25 16.398438 17.179688 C 16.414062 17.382812 16.34375 17.582031 16.199219 17.726562 C 16.054688 17.871094 15.851562 17.945312 15.648438 17.929688 L 14.757812 17.929688 L 14.757812 18.464844 C 14.78125 18.746094 14.679688 19.027344 14.476562 19.226562 C 14.277344 19.425781 13.996094 19.527344 13.714844 19.5 L 10.285156 19.5 C 10.007812 19.519531 9.730469 19.417969 9.535156 19.21875 C 9.335938 19.019531 9.234375 18.742188 9.257812 18.464844 L 9.257812 17.921875 L 8.304688 17.921875 C 7.972656 17.921875 7.683594 17.683594 7.621094 17.355469 C 7.613281 17.289062 7.613281 17.226562 7.621094 17.164062 C 7.621094 16.238281 7.621094 15.316406 7.621094 14.386719 C 7.605469 14.1875 7.679688 13.984375 7.824219 13.84375 C 7.96875 13.699219 8.167969 13.625 8.371094 13.636719 L 9.265625 13.636719 C 9.265625 13.242188 9.265625 12.863281 9.265625 12.484375 C 9.269531 11.996094 9.640625 11.59375 10.125 11.554688 C 10.308594 11.554688 10.421875 11.617188 10.433594 11.761719 C 10.445312 11.910156 10.351562 11.992188 10.164062 12.019531 C 9.9375 12.039062 9.761719 12.222656 9.75 12.445312 C 9.75 12.820312 9.75 13.21875 9.75 13.621094 L 14.285156 13.621094 C 14.285156 13.21875 14.285156 12.824219 14.285156 12.429688 C 14.257812 12.199219 14.074219 12.027344 13.84375 12.019531 C 13.65625 11.992188 13.570312 11.910156 13.585938 11.761719 C 13.601562 11.609375 13.703125 11.542969 13.894531 11.554688 C 14.339844 11.585938 14.695312 11.929688 14.742188 12.375 C 14.773438 12.710938 14.742188 13.042969 14.742188 13.375 Z M 9.75 15.871094 C 9.746094 15.902344 9.746094 15.933594 9.75 15.964844 C 9.75 16.820312 9.75 17.683594 9.75 18.542969 C 9.75 18.859375 9.953125 19.03125 10.292969 19.03125 L 13.75 19.03125 C 13.902344 19.050781 14.054688 19 14.164062 18.894531 C 14.273438 18.785156 14.324219 18.632812 14.304688 18.480469 L 14.304688 16.039062 C 14.304688 15.980469 14.304688 15.925781 14.304688 15.871094 Z M 15.628906 15.066406 C 15.632812 14.96875 15.59375 14.875 15.519531 14.808594 C 15.449219 14.742188 15.351562 14.710938 15.253906 14.71875 C 15.15625 14.71875 15.0625 14.757812 14.996094 14.828125 C 14.929688 14.898438 14.894531 14.996094 14.902344 15.09375 C 14.914062 15.292969 15.078125 15.445312 15.277344 15.445312 C 15.375 15.449219 15.472656 15.40625 15.539062 15.335938 C 15.605469 15.261719 15.640625 15.164062 15.628906 15.066406 Z M 15.628906 15.066406 "/>
<path style=" stroke:none;fill-rule:nonzero;fill:url(#linear4);" d="M 13.441406 16.554688 L 13.441406 17.160156 L 10.570312 17.160156 L 10.570312 16.554688 Z M 13.441406 16.554688 "/>
<path style=" stroke:none;fill-rule:nonzero;fill:url(#linear5);" d="M 10.574219 17.625 L 12.191406 17.625 L 12.191406 18.238281 L 10.574219 18.238281 Z M 10.574219 17.625 "/>
</g>
</svg>
