
<svg xmlns="http://www.w3.org/2000/svg" xmlns:xlink="http://www.w3.org/1999/xlink" width="24px" height="24px" viewBox="0 0 24 24" version="1.1">
<defs>
<linearGradient id="linear0" gradientUnits="userSpaceOnUse" x1="32" y1="3.8" x2="32" y2="23.49" gradientTransform="matrix(0.375,0,0,0.375,0,0)">
<stop offset="0" style="stop-color:rgb(16.078432%,71.372551%,96.470588%);stop-opacity:1;"/>
<stop offset="0.67" style="stop-color:rgb(39.607844%,45.09804%,82.745099%);stop-opacity:1;"/>
<stop offset="1" style="stop-color:rgb(49.411765%,34.117648%,76.862746%);stop-opacity:1;"/>
</linearGradient>
<linearGradient id="linear1" gradientUnits="userSpaceOnUse" x1="32" y1="60.900002" x2="32" y2="18.719999" gradientTransform="matrix(0.375,0,0,0.375,0,0)">
<stop offset="0" style="stop-color:rgb(86.274511%,87.058824%,88.627452%);stop-opacity:1;"/>
<stop offset="0.57" style="stop-color:rgb(87.058824%,87.843138%,89.411765%);stop-opacity:1;"/>
<stop offset="0.81" style="stop-color:rgb(89.803922%,90.588236%,91.764706%);stop-opacity:1;"/>
<stop offset="0.99" style="stop-color:rgb(94.901961%,95.294118%,95.686275%);stop-opacity:1;"/>
<stop offset="1" style="stop-color:rgb(95.294118%,95.686275%,96.078432%);stop-opacity:1;"/>
</linearGradient>
<linearGradient id="linear2" gradientUnits="userSpaceOnUse" x1="32.259998" y1="50.880001" x2="32.259998" y2="29.559999" gradientTransform="matrix(0.375,0,0,0.375,0,0)">
<stop offset="0" style="stop-color:rgb(75.294119%,75.294119%,75.294119%);stop-opacity:1;"/>
<stop offset="1" style="stop-color:rgb(55.686277%,55.686277%,55.686277%);stop-opacity:1;"/>
</linearGradient>
</defs>
<g id="surface1">
<path style=" stroke:none;fill-rule:nonzero;fill:url(#linear0);" d="M 24 7.992188 C 23.996094 6.929688 23.136719 6.070312 22.074219 6.070312 L 15.542969 6.070312 C 14.207031 6.070312 13.117188 5.003906 13.089844 3.667969 C 13.113281 2.308594 12.027344 1.1875 10.667969 1.164062 L 1.269531 1.164062 C 0.566406 1.164062 0 1.730469 0 2.429688 L 0 8.78125 L 24 8.78125 Z M 24 7.992188 "/>
<path style=" stroke:none;fill-rule:nonzero;fill:url(#linear1);" d="M 22.074219 7.019531 L 1.925781 7.019531 C 0.859375 7.019531 0 7.882812 0 8.945312 L 0 20.917969 C 0.00390625 21.976562 0.863281 22.835938 1.925781 22.835938 L 22.074219 22.835938 C 23.136719 22.835938 23.996094 21.976562 24 20.917969 L 24 8.945312 C 24 7.882812 23.140625 7.019531 22.074219 7.019531 Z M 22.074219 7.019531 "/>
<path style=" stroke:none;fill-rule:nonzero;fill:url(#linear2);" d="M 14.714844 13.683594 L 12.492188 13.683594 L 12.492188 12.988281 C 12.492188 12.730469 12.695312 12.523438 12.953125 12.523438 L 13.609375 12.523438 C 14.15625 12.523438 14.597656 12.078125 14.597656 11.53125 L 14.597656 11.035156 C 14.601562 10.964844 14.570312 10.898438 14.523438 10.847656 C 14.472656 10.796875 14.40625 10.769531 14.335938 10.769531 C 14.1875 10.769531 14.070312 10.890625 14.070312 11.035156 L 14.070312 11.53125 C 14.070312 11.65625 14.023438 11.773438 13.9375 11.863281 C 13.851562 11.949219 13.730469 12 13.609375 12 L 12.953125 12 C 12.40625 12.003906 11.960938 12.445312 11.960938 12.992188 L 11.960938 13.691406 L 9.484375 13.691406 C 8.167969 13.691406 7.046875 14.648438 6.84375 15.949219 C 6.640625 17.253906 7.417969 18.507812 8.671875 18.90625 C 9.929688 19.304688 11.285156 18.730469 11.871094 17.550781 L 12.324219 17.550781 C 12.914062 18.730469 14.269531 19.304688 15.527344 18.90625 C 16.78125 18.507812 17.558594 17.253906 17.355469 15.949219 C 17.152344 14.648438 16.03125 13.691406 14.714844 13.691406 Z M 10.167969 16.539062 L 9.695312 16.539062 L 9.695312 17.03125 C 9.691406 17.167969 9.582031 17.277344 9.445312 17.28125 L 9.375 17.28125 C 9.238281 17.277344 9.132812 17.167969 9.132812 17.03125 L 9.132812 16.539062 L 8.625 16.539062 C 8.488281 16.535156 8.378906 16.425781 8.378906 16.289062 L 8.378906 16.207031 C 8.378906 16.070312 8.488281 15.964844 8.625 15.964844 L 9.113281 15.964844 L 9.113281 15.5 C 9.113281 15.363281 9.222656 15.253906 9.355469 15.253906 L 9.4375 15.253906 C 9.574219 15.253906 9.683594 15.363281 9.6875 15.5 L 9.6875 15.964844 L 10.160156 15.964844 C 10.292969 15.964844 10.402344 16.074219 10.402344 16.207031 L 10.402344 16.289062 C 10.402344 16.421875 10.296875 16.53125 10.167969 16.539062 Z M 12.648438 15.949219 C 12.648438 16.078125 12.542969 16.179688 12.414062 16.179688 L 11.828125 16.179688 C 11.699219 16.179688 11.59375 16.078125 11.589844 15.949219 L 11.589844 15.871094 C 11.589844 15.738281 11.695312 15.632812 11.828125 15.632812 L 12.414062 15.632812 C 12.542969 15.632812 12.648438 15.738281 12.648438 15.871094 Z M 14.25 16.539062 C 14.144531 16.648438 13.980469 16.683594 13.839844 16.625 C 13.695312 16.570312 13.601562 16.433594 13.601562 16.277344 C 13.601562 16.125 13.695312 15.988281 13.839844 15.929688 C 13.980469 15.875 14.144531 15.910156 14.25 16.019531 C 14.386719 16.164062 14.386719 16.390625 14.25 16.539062 Z M 14.507812 15.21875 C 14.613281 15.105469 14.777344 15.070312 14.917969 15.128906 C 15.0625 15.183594 15.15625 15.324219 15.15625 15.476562 C 15.15625 15.628906 15.0625 15.765625 14.917969 15.824219 C 14.777344 15.882812 14.613281 15.847656 14.507812 15.734375 C 14.367188 15.59375 14.363281 15.367188 14.496094 15.21875 Z M 15.054688 17.3125 C 14.90625 17.453125 14.679688 17.453125 14.535156 17.3125 C 14.425781 17.207031 14.386719 17.046875 14.445312 16.902344 C 14.503906 16.761719 14.640625 16.667969 14.792969 16.667969 C 14.945312 16.667969 15.085938 16.761719 15.140625 16.902344 C 15.199219 17.046875 15.164062 17.207031 15.054688 17.3125 Z M 15.816406 16.5 C 15.710938 16.609375 15.550781 16.644531 15.40625 16.585938 C 15.265625 16.53125 15.171875 16.390625 15.171875 16.238281 C 15.171875 16.085938 15.265625 15.949219 15.40625 15.890625 C 15.550781 15.835938 15.710938 15.867188 15.816406 15.976562 C 15.957031 16.125 15.957031 16.355469 15.816406 16.5 Z M 15.816406 16.5 "/>
</g>
</svg>
