
<svg xmlns="http://www.w3.org/2000/svg" xmlns:xlink="http://www.w3.org/1999/xlink" width="24px" height="24px" viewBox="0 0 24 24" version="1.1">
<defs>
<linearGradient id="linear0" gradientUnits="userSpaceOnUse" x1="-26.201" y1="1070.199951" x2="-26.201" y2="1082.599976" gradientTransform="matrix(0.265668,0,0,0.265668,13.08119,-281.608428)">
<stop offset="0" style="stop-color:rgb(93.333334%,61.56863%,44.705883%);stop-opacity:1;"/>
<stop offset="1" style="stop-color:rgb(91.37255%,62.352943%,46.666667%);stop-opacity:1;"/>
</linearGradient>
<linearGradient id="linear1" gradientUnits="userSpaceOnUse" x1="-9.912" y1="1081.400024" x2="-9.912" y2="1139.800049" gradientTransform="matrix(0.265668,0,0,0.265668,13.08119,-281.608428)">
<stop offset="0" style="stop-color:rgb(78.823531%,44.313726%,23.137255%);stop-opacity:1;"/>
<stop offset="0.5" style="stop-color:rgb(80.392158%,47.058824%,27.843139%);stop-opacity:1;"/>
<stop offset="1" style="stop-color:rgb(80.784315%,44.313726%,21.176471%);stop-opacity:1;"/>
</linearGradient>
<filter id="alpha" filterUnits="objectBoundingBox" x="0%" y="0%" width="100%" height="100%">
  <feColorMatrix type="matrix" in="SourceGraphic" values="0 0 0 0 1 0 0 0 0 1 0 0 0 0 1 0 0 0 1 0"/>
</filter>
<mask id="mask0">
  <g filter="url(#alpha)">
<rect x="0" y="0" width="24" height="24" style="fill:rgb(0%,0%,0%);fill-opacity:0.08;stroke:none;"/>
  </g>
</mask>
<clipPath id="clip1">
  <rect x="0" y="0" width="24" height="24"/>
</clipPath>
<g id="surface5" clip-path="url(#clip1)">
<path style=" stroke:none;fill-rule:nonzero;fill:rgb(0%,0%,0%);fill-opacity:1;" d="M 0.320312 19.679688 L 0.320312 19.945312 L 23.683594 19.945312 L 23.683594 19.679688 Z M 0.320312 20.265625 L 0.320312 20.40625 C 0.320312 20.449219 0.324219 20.488281 0.328125 20.53125 L 23.675781 20.53125 C 23.679688 20.488281 23.683594 20.449219 23.683594 20.40625 L 23.683594 20.265625 Z M 0.320312 20.265625 "/>
</g>
<mask id="mask1">
  <g filter="url(#alpha)">
<rect x="0" y="0" width="24" height="24" style="fill:rgb(0%,0%,0%);fill-opacity:0.25;stroke:none;"/>
  </g>
</mask>
<linearGradient id="linear2" gradientUnits="userSpaceOnUse" x1="-9.617" y1="1138.400024" x2="-9.617" y2="1140.199951" gradientTransform="matrix(0.265668,0,0,0.265668,13.08119,-281.608428)">
<stop offset="0" style="stop-color:rgb(0%,0%,0%);stop-opacity:0.046784;"/>
<stop offset="1" style="stop-color:rgb(0%,0%,0%);stop-opacity:1;"/>
</linearGradient>
<clipPath id="clip2">
  <rect x="0" y="0" width="24" height="24"/>
</clipPath>
<g id="surface8" clip-path="url(#clip2)">
<path style=" stroke:none;fill-rule:nonzero;fill:url(#linear2);" d="M 0.394531 20.773438 C 0.535156 21.089844 0.847656 21.289062 1.191406 21.289062 L 22.8125 21.289062 C 23.167969 21.289062 23.472656 21.078125 23.609375 20.773438 Z M 0.394531 20.773438 "/>
</g>
<mask id="mask2">
  <g filter="url(#alpha)">
<rect x="0" y="0" width="24" height="24" style="fill:rgb(0%,0%,0%);fill-opacity:0.15;stroke:none;"/>
  </g>
</mask>
<clipPath id="clip3">
  <rect x="0" y="0" width="24" height="24"/>
</clipPath>
<g id="surface11" clip-path="url(#clip3)">
<path style=" stroke:none;fill-rule:nonzero;fill:rgb(0%,0%,0%);fill-opacity:1;" d="M 6.800781 8.78125 C 6.375 8.78125 6.179688 8.921875 6.179688 9.175781 L 6.179688 17.074219 C 6.179688 17.082031 6.175781 17.085938 6.175781 17.097656 C 6.175781 17.789062 6.769531 18 7.082031 18 L 8.0625 18 C 8.074219 18.003906 8.089844 18.003906 8.101562 18.003906 L 16.15625 18.003906 C 16.171875 18.003906 16.1875 18.003906 16.199219 18 L 16.925781 18 C 17.242188 18 17.832031 17.789062 17.832031 17.097656 C 17.832031 17.085938 17.832031 17.078125 17.832031 17.070312 L 17.832031 9.175781 C 17.832031 8.921875 17.636719 8.78125 17.214844 8.78125 Z M 7.078125 10.78125 L 16.933594 10.78125 C 17.136719 10.78125 17.253906 10.953125 17.316406 11.171875 L 17.316406 17.074219 C 17.308594 17.308594 17.136719 17.578125 16.902344 17.578125 L 16.390625 17.578125 L 16.390625 15.492188 C 16.390625 15.363281 16.285156 15.261719 16.15625 15.261719 L 8.101562 15.261719 C 7.976562 15.261719 7.871094 15.363281 7.871094 15.492188 L 7.871094 17.578125 L 7.109375 17.578125 C 6.871094 17.578125 6.699219 17.304688 6.695312 17.074219 L 6.695312 11.175781 C 6.753906 10.957031 6.871094 10.78125 7.078125 10.78125 Z M 7.078125 10.78125 "/>
</g>
</defs>
<g id="surface1">
<path style=" stroke:none;fill-rule:nonzero;fill:url(#linear0);" d="M 1.1875 2.710938 L 7.070312 2.710938 C 7.941406 2.710938 8.304688 4.589844 9.121094 4.589844 L 22.808594 4.589844 C 23.042969 4.585938 23.261719 4.679688 23.425781 4.84375 C 23.589844 5.007812 23.683594 5.230469 23.683594 5.460938 L 23.683594 18.878906 C 23.683594 19.363281 23.292969 18.34375 22.808594 18.34375 L 1.191406 18.34375 C 0.957031 18.34375 0.734375 18.25 0.574219 18.085938 C 0.410156 17.921875 0.316406 17.703125 0.316406 17.46875 L 0.316406 3.582031 C 0.316406 3.351562 0.410156 3.128906 0.574219 2.964844 C 0.734375 2.800781 0.957031 2.710938 1.191406 2.710938 Z M 1.1875 2.710938 "/>
<path style=" stroke:none;fill-rule:nonzero;fill:url(#linear1);" d="M 1.1875 5.660156 L 22.808594 5.660156 C 23.039062 5.65625 23.261719 5.75 23.425781 5.914062 C 23.589844 6.078125 23.683594 6.300781 23.679688 6.53125 L 23.679688 20.417969 C 23.683594 20.648438 23.589844 20.871094 23.425781 21.035156 C 23.261719 21.199219 23.039062 21.292969 22.808594 21.289062 L 1.1875 21.289062 C 0.957031 21.292969 0.734375 21.199219 0.570312 21.035156 C 0.410156 20.871094 0.316406 20.648438 0.316406 20.417969 L 0.316406 6.53125 C 0.316406 6.300781 0.410156 6.078125 0.570312 5.914062 C 0.734375 5.75 0.957031 5.65625 1.1875 5.660156 Z M 1.1875 5.660156 "/>
<use xlink:href="#surface5" mask="url(#mask0)"/>
<use xlink:href="#surface8" mask="url(#mask1)"/>
<use xlink:href="#surface11" mask="url(#mask2)"/>
</g>
</svg>
