
<svg xmlns="http://www.w3.org/2000/svg" xmlns:xlink="http://www.w3.org/1999/xlink" width="24px" height="24px" viewBox="0 0 24 24" version="1.1">
<defs>
<linearGradient id="linear0" gradientUnits="userSpaceOnUse" x1="32" y1="60.27" x2="32" y2="4.37" gradientTransform="matrix(0.375,0,0,0.375,0,0)">
<stop offset="0" style="stop-color:rgb(92.54902%,25.098041%,47.843137%);stop-opacity:1;"/>
<stop offset="1" style="stop-color:rgb(49.411765%,34.117648%,76.862746%);stop-opacity:1;"/>
</linearGradient>
<linearGradient id="linear1" gradientUnits="userSpaceOnUse" x1="26.83" y1="31.6" x2="28.940001" y2="38.82" gradientTransform="matrix(0.375,0,0,0.375,0,0)">
<stop offset="0" style="stop-color:rgb(86.274511%,87.058824%,88.627452%);stop-opacity:1;"/>
<stop offset="0.57" style="stop-color:rgb(87.058824%,87.843138%,89.411765%);stop-opacity:1;"/>
<stop offset="0.81" style="stop-color:rgb(89.803922%,90.588236%,91.764706%);stop-opacity:1;"/>
<stop offset="0.99" style="stop-color:rgb(94.901961%,95.294118%,95.686275%);stop-opacity:1;"/>
<stop offset="1" style="stop-color:rgb(95.294118%,95.686275%,96.078432%);stop-opacity:1;"/>
</linearGradient>
<linearGradient id="linear2" gradientUnits="userSpaceOnUse" x1="35.669998" y1="31.6" x2="37.779999" y2="38.82" gradientTransform="matrix(0.375,0,0,0.375,0,0)">
<stop offset="0" style="stop-color:rgb(86.274511%,87.058824%,88.627452%);stop-opacity:1;"/>
<stop offset="0.57" style="stop-color:rgb(87.058824%,87.843138%,89.411765%);stop-opacity:1;"/>
<stop offset="0.81" style="stop-color:rgb(89.803922%,90.588236%,91.764706%);stop-opacity:1;"/>
<stop offset="0.99" style="stop-color:rgb(94.901961%,95.294118%,95.686275%);stop-opacity:1;"/>
<stop offset="1" style="stop-color:rgb(95.294118%,95.686275%,96.078432%);stop-opacity:1;"/>
</linearGradient>
<linearGradient id="linear3" gradientUnits="userSpaceOnUse" x1="26.83" y1="40.439999" x2="28.940001" y2="47.66" gradientTransform="matrix(0.375,0,0,0.375,0,0)">
<stop offset="0" style="stop-color:rgb(86.274511%,87.058824%,88.627452%);stop-opacity:1;"/>
<stop offset="0.57" style="stop-color:rgb(87.058824%,87.843138%,89.411765%);stop-opacity:1;"/>
<stop offset="0.81" style="stop-color:rgb(89.803922%,90.588236%,91.764706%);stop-opacity:1;"/>
<stop offset="0.99" style="stop-color:rgb(94.901961%,95.294118%,95.686275%);stop-opacity:1;"/>
<stop offset="1" style="stop-color:rgb(95.294118%,95.686275%,96.078432%);stop-opacity:1;"/>
</linearGradient>
<linearGradient id="linear4" gradientUnits="userSpaceOnUse" x1="35.669998" y1="40.439999" x2="37.779999" y2="47.66" gradientTransform="matrix(0.375,0,0,0.375,0,0)">
<stop offset="0" style="stop-color:rgb(86.274511%,87.058824%,88.627452%);stop-opacity:1;"/>
<stop offset="0.57" style="stop-color:rgb(87.058824%,87.843138%,89.411765%);stop-opacity:1;"/>
<stop offset="0.81" style="stop-color:rgb(89.803922%,90.588236%,91.764706%);stop-opacity:1;"/>
<stop offset="0.99" style="stop-color:rgb(94.901961%,95.294118%,95.686275%);stop-opacity:1;"/>
<stop offset="1" style="stop-color:rgb(95.294118%,95.686275%,96.078432%);stop-opacity:1;"/>
</linearGradient>
</defs>
<g id="surface1">
<path style=" stroke:none;fill-rule:nonzero;fill:url(#linear0);" d="M 19.152344 8.101562 L 13.152344 2.101562 C 12.847656 1.796875 12.4375 1.625 12.007812 1.625 C 11.578125 1.625 11.167969 1.796875 10.863281 2.101562 L 4.863281 8.101562 L 2.445312 10.5 L 2.445312 23.050781 L 21.570312 23.050781 L 21.570312 10.5 Z M 19.152344 8.101562 "/>
<path style=" stroke:none;fill-rule:nonzero;fill:rgb(80.784315%,80.784315%,80.784315%);fill-opacity:1;" d="M 23.21875 13.671875 C 23.011719 13.671875 22.816406 13.589844 22.667969 13.445312 L 12 2.773438 L 1.332031 13.445312 C 1.019531 13.75 0.523438 13.742188 0.21875 13.433594 C -0.0859375 13.121094 -0.0820312 12.625 0.226562 12.320312 L 11.105469 1.445312 C 11.605469 0.945312 12.417969 0.945312 12.917969 1.445312 L 23.792969 12.320312 C 24.015625 12.542969 24.082031 12.878906 23.960938 13.167969 C 23.839844 13.460938 23.558594 13.652344 23.242188 13.652344 Z M 23.21875 13.671875 "/>
<path style=" stroke:none;fill-rule:nonzero;fill:url(#linear1);" d="M 9.320312 12.066406 L 11.59375 12.066406 L 11.59375 14.34375 L 9.320312 14.34375 Z M 9.320312 12.066406 "/>
<path style=" stroke:none;fill-rule:nonzero;fill:url(#linear2);" d="M 12.632812 12.066406 L 14.910156 12.066406 L 14.910156 14.34375 L 12.632812 14.34375 Z M 12.632812 12.066406 "/>
<path style=" stroke:none;fill-rule:nonzero;fill:url(#linear3);" d="M 9.320312 15.382812 L 11.59375 15.382812 L 11.59375 17.660156 L 9.320312 17.660156 Z M 9.320312 15.382812 "/>
<path style=" stroke:none;fill-rule:nonzero;fill:url(#linear4);" d="M 12.632812 15.382812 L 14.910156 15.382812 L 14.910156 17.660156 L 12.632812 17.660156 Z M 12.632812 15.382812 "/>
</g>
</svg>
