
<svg xmlns="http://www.w3.org/2000/svg" xmlns:xlink="http://www.w3.org/1999/xlink" width="24px" height="24px" viewBox="0 0 24 24" version="1.1">
<defs>
<linearGradient id="linear0" gradientUnits="userSpaceOnUse" x1="-26.201" y1="1070.199951" x2="-26.201" y2="1082.599976" gradientTransform="matrix(0.265668,0,0,0.265668,13.08119,-281.608428)">
<stop offset="0" style="stop-color:rgb(47.058824%,99.215686%,63.137257%);stop-opacity:1;"/>
<stop offset="1" style="stop-color:rgb(48.235294%,100%,69.01961%);stop-opacity:1;"/>
</linearGradient>
<linearGradient id="linear1" gradientUnits="userSpaceOnUse" x1="-9.912" y1="1081.400024" x2="-9.912" y2="1139.800049" gradientTransform="matrix(0.265668,0,0,0.265668,13.08119,-281.608428)">
<stop offset="0" style="stop-color:rgb(20.784314%,98.823529%,52.156866%);stop-opacity:1;"/>
<stop offset="0.5" style="stop-color:rgb(38.039216%,100%,63.921571%);stop-opacity:1;"/>
<stop offset="1" style="stop-color:rgb(30.19608%,96.470588%,53.333336%);stop-opacity:1;"/>
</linearGradient>
<filter id="alpha" filterUnits="objectBoundingBox" x="0%" y="0%" width="100%" height="100%">
  <feColorMatrix type="matrix" in="SourceGraphic" values="0 0 0 0 1 0 0 0 0 1 0 0 0 0 1 0 0 0 1 0"/>
</filter>
<mask id="mask0">
  <g filter="url(#alpha)">
<rect x="0" y="0" width="24" height="24" style="fill:rgb(0%,0%,0%);fill-opacity:0.08;stroke:none;"/>
  </g>
</mask>
<clipPath id="clip1">
  <rect x="0" y="0" width="24" height="24"/>
</clipPath>
<g id="surface5" clip-path="url(#clip1)">
<path style=" stroke:none;fill-rule:nonzero;fill:rgb(0%,0%,0%);fill-opacity:1;" d="M 0.320312 19.679688 L 0.320312 19.945312 L 23.683594 19.945312 L 23.683594 19.679688 Z M 0.320312 20.265625 L 0.320312 20.40625 C 0.320312 20.449219 0.324219 20.488281 0.328125 20.53125 L 23.675781 20.53125 C 23.679688 20.488281 23.683594 20.449219 23.683594 20.40625 L 23.683594 20.265625 Z M 0.320312 20.265625 "/>
</g>
<mask id="mask1">
  <g filter="url(#alpha)">
<rect x="0" y="0" width="24" height="24" style="fill:rgb(0%,0%,0%);fill-opacity:0.25;stroke:none;"/>
  </g>
</mask>
<linearGradient id="linear2" gradientUnits="userSpaceOnUse" x1="-9.617" y1="1138.400024" x2="-9.617" y2="1140.199951" gradientTransform="matrix(0.265668,0,0,0.265668,13.08119,-281.608428)">
<stop offset="0" style="stop-color:rgb(0%,0%,0%);stop-opacity:0.046784;"/>
<stop offset="1" style="stop-color:rgb(0%,0%,0%);stop-opacity:1;"/>
</linearGradient>
<clipPath id="clip2">
  <rect x="0" y="0" width="24" height="24"/>
</clipPath>
<g id="surface8" clip-path="url(#clip2)">
<path style=" stroke:none;fill-rule:nonzero;fill:url(#linear2);" d="M 0.394531 20.773438 C 0.535156 21.089844 0.847656 21.289062 1.191406 21.289062 L 22.8125 21.289062 C 23.167969 21.289062 23.472656 21.078125 23.609375 20.773438 Z M 0.394531 20.773438 "/>
</g>
<mask id="mask2">
  <g filter="url(#alpha)">
<rect x="0" y="0" width="24" height="24" style="fill:rgb(0%,0%,0%);fill-opacity:0.15;stroke:none;"/>
  </g>
</mask>
<clipPath id="clip3">
  <rect x="0" y="0" width="24" height="24"/>
</clipPath>
<g id="surface11" clip-path="url(#clip3)">
<path style=" stroke:none;fill-rule:nonzero;fill:rgb(0%,0%,0%);fill-opacity:1;" d="M 12.101562 8.535156 C 12.03125 8.535156 11.960938 8.5625 11.898438 8.601562 L 11.539062 8.808594 C 11.425781 8.871094 11.347656 8.980469 11.3125 9.101562 C 11.28125 9.226562 11.300781 9.359375 11.363281 9.46875 L 14.488281 14.925781 L 15.632812 14.15625 L 12.554688 8.78125 C 12.46875 8.636719 12.328125 8.546875 12.171875 8.535156 C 12.152344 8.53125 12.125 8.535156 12.101562 8.535156 Z M 10.996094 10.394531 C 10.84375 10.414062 10.695312 10.492188 10.609375 10.636719 L 10.296875 11.179688 L 11.484375 11.875 L 11.800781 11.328125 C 11.867188 11.21875 11.882812 11.085938 11.851562 10.960938 C 11.820312 10.839844 11.738281 10.734375 11.628906 10.667969 L 11.273438 10.460938 C 11.191406 10.410156 11.09375 10.390625 10.996094 10.394531 Z M 10.097656 11.535156 L 7.402344 16.25 L 8.589844 16.9375 L 11.285156 12.230469 Z M 6.160156 13.648438 L 6.160156 15.035156 L 7.757812 15.035156 L 8.546875 13.648438 Z M 10.816406 13.648438 L 10.027344 15.035156 L 14.210938 15.035156 L 13.414062 13.648438 Z M 15.683594 13.648438 L 16.484375 15.035156 L 17.957031 15.035156 L 17.957031 13.648438 Z M 15.839844 14.511719 L 14.695312 15.28125 L 15.265625 16.28125 L 16.414062 15.511719 Z M 16.617188 15.871094 L 15.472656 16.644531 C 15.507812 18.023438 16.550781 17.851562 16.953125 18.710938 C 17.714844 17.894531 17.484375 16.636719 16.617188 15.871094 Z M 7.195312 16.605469 L 6.570312 18.855469 L 8.386719 17.300781 Z M 7.195312 16.605469 "/>
</g>
</defs>
<g id="surface1">
<path style=" stroke:none;fill-rule:nonzero;fill:url(#linear0);" d="M 1.1875 2.710938 L 7.070312 2.710938 C 7.941406 2.710938 8.304688 4.589844 9.121094 4.589844 L 22.808594 4.589844 C 23.042969 4.585938 23.261719 4.679688 23.425781 4.84375 C 23.589844 5.007812 23.683594 5.230469 23.683594 5.460938 L 23.683594 18.878906 C 23.683594 19.363281 23.292969 18.34375 22.808594 18.34375 L 1.191406 18.34375 C 0.957031 18.34375 0.734375 18.25 0.574219 18.085938 C 0.410156 17.921875 0.316406 17.703125 0.316406 17.46875 L 0.316406 3.582031 C 0.316406 3.351562 0.410156 3.128906 0.574219 2.964844 C 0.734375 2.800781 0.957031 2.710938 1.191406 2.710938 Z M 1.1875 2.710938 "/>
<path style=" stroke:none;fill-rule:nonzero;fill:url(#linear1);" d="M 1.1875 5.660156 L 22.808594 5.660156 C 23.039062 5.65625 23.261719 5.75 23.425781 5.914062 C 23.589844 6.078125 23.683594 6.300781 23.679688 6.53125 L 23.679688 20.417969 C 23.683594 20.648438 23.589844 20.871094 23.425781 21.035156 C 23.261719 21.199219 23.039062 21.292969 22.808594 21.289062 L 1.1875 21.289062 C 0.957031 21.292969 0.734375 21.199219 0.570312 21.035156 C 0.410156 20.871094 0.316406 20.648438 0.316406 20.417969 L 0.316406 6.53125 C 0.316406 6.300781 0.410156 6.078125 0.570312 5.914062 C 0.734375 5.75 0.957031 5.65625 1.1875 5.660156 Z M 1.1875 5.660156 "/>
<use xlink:href="#surface5" mask="url(#mask0)"/>
<use xlink:href="#surface8" mask="url(#mask1)"/>
<use xlink:href="#surface11" mask="url(#mask2)"/>
</g>
</svg>
