
<svg xmlns="http://www.w3.org/2000/svg" xmlns:xlink="http://www.w3.org/1999/xlink" width="24px" height="24px" viewBox="0 0 24 24" version="1.1">
<defs>
<linearGradient id="linear0" gradientUnits="userSpaceOnUse" x1="-26.201" y1="1070.199951" x2="-26.201" y2="1082.599976" gradientTransform="matrix(0.265668,0,0,0.265668,13.08119,-281.608428)">
<stop offset="0" style="stop-color:rgb(47.058824%,99.215686%,63.137257%);stop-opacity:1;"/>
<stop offset="1" style="stop-color:rgb(48.235294%,100%,69.01961%);stop-opacity:1;"/>
</linearGradient>
<linearGradient id="linear1" gradientUnits="userSpaceOnUse" x1="-9.912" y1="1081.400024" x2="-9.912" y2="1139.800049" gradientTransform="matrix(0.265668,0,0,0.265668,13.08119,-281.608428)">
<stop offset="0" style="stop-color:rgb(20.784314%,98.823529%,52.156866%);stop-opacity:1;"/>
<stop offset="0.5" style="stop-color:rgb(38.039216%,100%,63.921571%);stop-opacity:1;"/>
<stop offset="1" style="stop-color:rgb(30.19608%,96.470588%,53.333336%);stop-opacity:1;"/>
</linearGradient>
<filter id="alpha" filterUnits="objectBoundingBox" x="0%" y="0%" width="100%" height="100%">
  <feColorMatrix type="matrix" in="SourceGraphic" values="0 0 0 0 1 0 0 0 0 1 0 0 0 0 1 0 0 0 1 0"/>
</filter>
<mask id="mask0">
  <g filter="url(#alpha)">
<rect x="0" y="0" width="24" height="24" style="fill:rgb(0%,0%,0%);fill-opacity:0.08;stroke:none;"/>
  </g>
</mask>
<clipPath id="clip1">
  <rect x="0" y="0" width="24" height="24"/>
</clipPath>
<g id="surface5" clip-path="url(#clip1)">
<path style=" stroke:none;fill-rule:nonzero;fill:rgb(0%,0%,0%);fill-opacity:1;" d="M 0.320312 19.679688 L 0.320312 19.945312 L 23.683594 19.945312 L 23.683594 19.679688 Z M 0.320312 20.265625 L 0.320312 20.40625 C 0.320312 20.449219 0.324219 20.488281 0.328125 20.53125 L 23.675781 20.53125 C 23.679688 20.488281 23.683594 20.449219 23.683594 20.40625 L 23.683594 20.265625 Z M 0.320312 20.265625 "/>
</g>
<mask id="mask1">
  <g filter="url(#alpha)">
<rect x="0" y="0" width="24" height="24" style="fill:rgb(0%,0%,0%);fill-opacity:0.25;stroke:none;"/>
  </g>
</mask>
<linearGradient id="linear2" gradientUnits="userSpaceOnUse" x1="-9.617" y1="1138.400024" x2="-9.617" y2="1140.199951" gradientTransform="matrix(0.265668,0,0,0.265668,13.08119,-281.608428)">
<stop offset="0" style="stop-color:rgb(0%,0%,0%);stop-opacity:0.046784;"/>
<stop offset="1" style="stop-color:rgb(0%,0%,0%);stop-opacity:1;"/>
</linearGradient>
<clipPath id="clip2">
  <rect x="0" y="0" width="24" height="24"/>
</clipPath>
<g id="surface8" clip-path="url(#clip2)">
<path style=" stroke:none;fill-rule:nonzero;fill:url(#linear2);" d="M 0.394531 20.773438 C 0.535156 21.089844 0.847656 21.289062 1.191406 21.289062 L 22.8125 21.289062 C 23.167969 21.289062 23.472656 21.078125 23.609375 20.773438 Z M 0.394531 20.773438 "/>
</g>
<mask id="mask2">
  <g filter="url(#alpha)">
<rect x="0" y="0" width="24" height="24" style="fill:rgb(0%,0%,0%);fill-opacity:0.15;stroke:none;"/>
  </g>
</mask>
<clipPath id="clip3">
  <rect x="0" y="0" width="24" height="24"/>
</clipPath>
<g id="surface11" clip-path="url(#clip3)">
<path style=" stroke:none;fill-rule:nonzero;fill:rgb(0%,0%,0%);fill-opacity:1;" d="M 10.957031 8.828125 C 10.171875 8.828125 8.972656 9.542969 8.972656 10.363281 L 8.972656 11.886719 C 8.828125 11.886719 8.769531 11.953125 8.761719 12.246094 C 8.796875 12.738281 9.375 13.261719 9.421875 13.375 C 9.472656 13.492188 9.488281 13.898438 9.601562 14.257812 C 9.71875 14.617188 9.765625 15.601562 9.765625 15.601562 C 8.582031 15.917969 5.613281 16.808594 5.613281 18.558594 L 18.09375 18.558594 C 18.09375 17.144531 15.691406 16.421875 14.734375 16.167969 C 14.734375 16.167969 14.773438 15.375 14.867188 15.082031 C 14.960938 14.792969 14.972656 14.460938 15.011719 14.367188 C 15.050781 14.277344 15.519531 13.851562 15.546875 13.457031 C 15.539062 13.21875 15.492188 13.164062 15.375 13.164062 L 15.375 11.933594 C 15.375 11.269531 14.410156 10.691406 13.773438 10.691406 C 13.519531 10.691406 13.214844 10.785156 12.9375 10.9375 L 12.9375 10.363281 C 12.9375 9.542969 11.742188 8.828125 10.957031 8.828125 Z M 12.34375 14.128906 C 12.4375 14.242188 12.519531 14.332031 12.535156 14.367188 C 12.574219 14.460938 12.585938 14.792969 12.679688 15.082031 C 12.730469 15.238281 12.761719 15.539062 12.785156 15.785156 C 12.542969 15.710938 12.320312 15.648438 12.144531 15.601562 C 12.144531 15.601562 12.195312 14.617188 12.308594 14.257812 C 12.320312 14.214844 12.335938 14.171875 12.34375 14.128906 Z M 12.34375 14.128906 "/>
</g>
</defs>
<g id="surface1">
<path style=" stroke:none;fill-rule:nonzero;fill:url(#linear0);" d="M 1.1875 2.710938 L 7.070312 2.710938 C 7.941406 2.710938 8.304688 4.589844 9.121094 4.589844 L 22.808594 4.589844 C 23.042969 4.585938 23.261719 4.679688 23.425781 4.84375 C 23.589844 5.007812 23.683594 5.230469 23.683594 5.460938 L 23.683594 18.878906 C 23.683594 19.363281 23.292969 18.34375 22.808594 18.34375 L 1.191406 18.34375 C 0.957031 18.34375 0.734375 18.25 0.574219 18.085938 C 0.410156 17.921875 0.316406 17.703125 0.316406 17.46875 L 0.316406 3.582031 C 0.316406 3.351562 0.410156 3.128906 0.574219 2.964844 C 0.734375 2.800781 0.957031 2.710938 1.191406 2.710938 Z M 1.1875 2.710938 "/>
<path style=" stroke:none;fill-rule:nonzero;fill:url(#linear1);" d="M 1.1875 5.660156 L 22.808594 5.660156 C 23.039062 5.65625 23.261719 5.75 23.425781 5.914062 C 23.589844 6.078125 23.683594 6.300781 23.679688 6.53125 L 23.679688 20.417969 C 23.683594 20.648438 23.589844 20.871094 23.425781 21.035156 C 23.261719 21.199219 23.039062 21.292969 22.808594 21.289062 L 1.1875 21.289062 C 0.957031 21.292969 0.734375 21.199219 0.570312 21.035156 C 0.410156 20.871094 0.316406 20.648438 0.316406 20.417969 L 0.316406 6.53125 C 0.316406 6.300781 0.410156 6.078125 0.570312 5.914062 C 0.734375 5.75 0.957031 5.65625 1.1875 5.660156 Z M 1.1875 5.660156 "/>
<use xlink:href="#surface5" mask="url(#mask0)"/>
<use xlink:href="#surface8" mask="url(#mask1)"/>
<use xlink:href="#surface11" mask="url(#mask2)"/>
</g>
</svg>
