
<svg xmlns="http://www.w3.org/2000/svg" xmlns:xlink="http://www.w3.org/1999/xlink" width="24px" height="24px" viewBox="0 0 24 24" version="1.1">
<defs>
<linearGradient id="linear0" gradientUnits="userSpaceOnUse" x1="32" y1="61.93" x2="32" y2="41.93" gradientTransform="matrix(0.375,0,0,0.375,0,0)">
<stop offset="0" style="stop-color:rgb(86.27451%,87.058824%,88.627451%);stop-opacity:1;"/>
<stop offset="1" style="stop-color:rgb(95.294118%,95.686275%,96.078431%);stop-opacity:1;"/>
</linearGradient>
<linearGradient id="linear1" gradientUnits="userSpaceOnUse" x1="32.33" y1="2.07" x2="32.33" y2="40.1" gradientTransform="matrix(0.375,0,0,0.375,0,0)">
<stop offset="0" style="stop-color:rgb(16.078431%,71.372549%,96.470588%);stop-opacity:1;"/>
<stop offset="0.67" style="stop-color:rgb(39.607843%,45.098039%,82.745098%);stop-opacity:1;"/>
<stop offset="1" style="stop-color:rgb(49.411765%,34.117647%,76.862745%);stop-opacity:1;"/>
</linearGradient>
</defs>
<g id="surface1">
<path style=" stroke:none;fill-rule:nonzero;fill:rgb(77.647059%,78.431373%,80.784314%);fill-opacity:1;" d="M 1.125 22.875 C 0.917969 22.875 0.722656 22.796875 0.578125 22.648438 C 0.433594 22.503906 0.351562 22.308594 0.351562 22.101562 L 0.351562 14.574219 L 4.699219 6.246094 C 4.871094 5.914062 5.214844 5.707031 5.585938 5.707031 L 18.414062 5.707031 C 18.785156 5.707031 19.125 5.914062 19.296875 6.242188 L 23.648438 14.574219 L 23.648438 22.101562 C 23.648438 22.308594 23.566406 22.503906 23.421875 22.648438 C 23.277344 22.796875 23.082031 22.875 22.875 22.875 Z M 1.125 22.875 "/>
<path style=" stroke:none;fill-rule:nonzero;fill:rgb(87.843137%,88.627451%,89.803922%);fill-opacity:1;" d="M 18.414062 6.058594 C 18.652344 6.058594 18.875 6.195312 18.984375 6.410156 L 23.296875 14.660156 L 23.296875 22.101562 C 23.285156 22.328125 23.097656 22.503906 22.875 22.5 L 1.125 22.5 C 0.898438 22.5 0.710938 22.316406 0.707031 22.085938 L 0.707031 14.660156 L 5.015625 6.410156 C 5.128906 6.195312 5.351562 6.058594 5.589844 6.058594 L 18.414062 6.058594 M 18.414062 5.355469 L 5.585938 5.355469 C 5.082031 5.355469 4.621094 5.636719 4.386719 6.082031 L 0.078125 14.332031 L 0 14.484375 L 0 22.101562 C 0 22.722656 0.503906 23.226562 1.125 23.226562 L 22.875 23.226562 C 23.496094 23.226562 24 22.722656 24 22.101562 L 24 14.484375 L 23.921875 14.332031 L 19.613281 6.082031 C 19.378906 5.636719 18.917969 5.355469 18.414062 5.355469 Z M 18.414062 5.355469 "/>
<path style=" stroke:none;fill-rule:nonzero;fill:url(#linear0);" d="M 16.597656 14.660156 C 16.171875 14.65625 15.804688 14.957031 15.71875 15.375 C 15.371094 17.152344 13.8125 18.433594 12 18.433594 C 10.1875 18.433594 8.628906 17.152344 8.28125 15.375 C 8.195312 14.957031 7.828125 14.65625 7.402344 14.660156 L 0.703125 14.660156 L 0.703125 22.101562 C 0.714844 22.328125 0.902344 22.503906 1.125 22.5 L 22.875 22.5 C 23.101562 22.5 23.289062 22.316406 23.292969 22.085938 L 23.292969 14.660156 Z M 16.597656 14.660156 "/>
<path style=" stroke:none;fill-rule:nonzero;fill:url(#linear1);" d="M 18.292969 9.054688 C 18.140625 8.644531 17.746094 8.371094 17.304688 8.375 L 15.976562 8.375 L 15.976562 1.5 C 15.976562 1.085938 15.640625 0.75 15.226562 0.75 L 9 0.75 C 8.59375 0.761719 8.269531 1.09375 8.269531 1.5 L 8.269531 8.363281 L 6.945312 8.363281 C 6.507812 8.363281 6.113281 8.636719 5.960938 9.046875 C 5.804688 9.457031 5.917969 9.921875 6.246094 10.210938 L 11.425781 14.773438 C 11.621094 14.945312 11.871094 15.039062 12.128906 15.039062 C 12.382812 15.039062 12.628906 14.945312 12.820312 14.773438 L 18 10.222656 C 18.332031 9.933594 18.449219 9.46875 18.292969 9.054688 Z M 18.292969 9.054688 "/>
</g>
</svg>
