
<svg xmlns="http://www.w3.org/2000/svg" xmlns:xlink="http://www.w3.org/1999/xlink" width="24px" height="24px" viewBox="0 0 24 24" version="1.1">
<defs>
<linearGradient id="linear0" gradientUnits="userSpaceOnUse" x1="32" y1="64" x2="32" y2="44" gradientTransform="matrix(0.375,0,0,0.375,0,0)">
<stop offset="0" style="stop-color:rgb(86.27451%,87.058824%,88.627451%);stop-opacity:1;"/>
<stop offset="1" style="stop-color:rgb(95.294118%,95.686275%,96.078431%);stop-opacity:1;"/>
</linearGradient>
<linearGradient id="linear1" gradientUnits="userSpaceOnUse" x1="280.33" y1="250.15" x2="280.33" y2="288.17" gradientTransform="matrix(-0.375,0.000000000000000046,-0.000000000000000046,-0.375,117.25125,108.13125)">
<stop offset="0" style="stop-color:rgb(92.54902%,25.098039%,47.843137%);stop-opacity:1;"/>
<stop offset="1" style="stop-color:rgb(49.411765%,34.117647%,76.862745%);stop-opacity:1;"/>
</linearGradient>
</defs>
<g id="surface1">
<path style=" stroke:none;fill-rule:nonzero;fill:rgb(77.647059%,78.431373%,80.784314%);fill-opacity:1;" d="M 1.125 23.648438 C 0.917969 23.648438 0.722656 23.566406 0.578125 23.421875 C 0.433594 23.277344 0.351562 23.082031 0.351562 22.875 L 0.351562 15.347656 L 4.699219 7.023438 C 4.871094 6.691406 5.214844 6.484375 5.585938 6.488281 L 18.414062 6.488281 C 18.785156 6.484375 19.128906 6.691406 19.296875 7.023438 L 23.648438 15.347656 L 23.648438 22.875 C 23.648438 23.082031 23.566406 23.277344 23.421875 23.421875 C 23.277344 23.566406 23.082031 23.648438 22.875 23.648438 Z M 1.125 23.648438 "/>
<path style=" stroke:none;fill-rule:nonzero;fill:rgb(87.843137%,88.627451%,89.803922%);fill-opacity:1;" d="M 18.414062 6.839844 C 18.652344 6.839844 18.875 6.972656 18.984375 7.183594 L 23.296875 15.433594 L 23.296875 22.875 C 23.296875 22.988281 23.253906 23.09375 23.171875 23.171875 C 23.09375 23.253906 22.988281 23.296875 22.875 23.296875 L 1.125 23.296875 C 1.011719 23.296875 0.90625 23.253906 0.828125 23.171875 C 0.746094 23.09375 0.703125 22.988281 0.703125 22.875 L 0.703125 15.433594 L 5.015625 7.183594 C 5.125 6.972656 5.347656 6.839844 5.585938 6.839844 L 18.414062 6.839844 M 18.414062 6.132812 L 5.585938 6.132812 C 5.082031 6.132812 4.621094 6.414062 4.386719 6.859375 L 0.078125 15.109375 L 0 15.261719 L 0 22.875 C 0 23.496094 0.503906 24 1.125 24 L 22.875 24 C 23.496094 24 24 23.496094 24 22.875 L 24 15.261719 L 23.921875 15.109375 L 19.613281 6.859375 C 19.378906 6.414062 18.917969 6.132812 18.414062 6.132812 Z M 18.414062 6.132812 "/>
<path style=" stroke:none;fill-rule:nonzero;fill:url(#linear0);" d="M 16.597656 15.433594 C 16.171875 15.433594 15.804688 15.734375 15.71875 16.152344 C 15.371094 17.929688 13.8125 19.210938 12 19.210938 C 10.1875 19.210938 8.628906 17.929688 8.28125 16.152344 C 8.195312 15.734375 7.828125 15.433594 7.402344 15.433594 L 0.703125 15.433594 L 0.703125 22.875 C 0.703125 22.988281 0.746094 23.09375 0.828125 23.171875 C 0.90625 23.253906 1.011719 23.296875 1.125 23.296875 L 22.875 23.296875 C 22.988281 23.296875 23.09375 23.253906 23.171875 23.171875 C 23.253906 23.09375 23.296875 22.988281 23.296875 22.875 L 23.296875 15.433594 Z M 16.597656 15.433594 "/>
<path style=" stroke:none;fill-rule:nonzero;fill:url(#linear1);" d="M 5.957031 6.046875 C 6.105469 6.46875 6.5 6.75 6.945312 6.75 L 8.277344 6.75 L 8.277344 13.613281 C 8.277344 14.019531 8.601562 14.351562 9.007812 14.363281 L 15.242188 14.363281 C 15.65625 14.363281 15.992188 14.027344 15.992188 13.613281 L 15.992188 6.75 L 17.324219 6.75 C 17.773438 6.75 18.171875 6.472656 18.324219 6.050781 C 18.476562 5.628906 18.347656 5.160156 18 4.875 L 12.824219 0.328125 C 12.632812 0.160156 12.382812 0.0664062 12.125 0.0664062 C 11.867188 0.0664062 11.621094 0.160156 11.429688 0.328125 L 6.246094 4.875 C 5.914062 5.164062 5.796875 5.636719 5.957031 6.046875 Z M 5.957031 6.046875 "/>
</g>
</svg>
