
<svg xmlns="http://www.w3.org/2000/svg" xmlns:xlink="http://www.w3.org/1999/xlink" width="24px" height="24px" viewBox="0 0 24 24" version="1.1">
<defs>
<linearGradient id="linear0" gradientUnits="userSpaceOnUse" x1="10.094" y1="107.360001" x2="122.720001" y2="107.360001" gradientTransform="matrix(0.208625,0,0,0.205155,-1.85715,-0.40089)">
<stop offset="0" style="stop-color:rgb(10.196079%,10.196079%,10.196079%);stop-opacity:1;"/>
<stop offset="0.11054" style="stop-color:rgb(17.254902%,17.254902%,18.039216%);stop-opacity:1;"/>
<stop offset="0.29001" style="stop-color:rgb(16.862746%,16.862746%,17.647059%);stop-opacity:1;"/>
<stop offset="0.51187" style="stop-color:rgb(16.470589%,16.862746%,17.647059%);stop-opacity:1;"/>
<stop offset="0.75173" style="stop-color:rgb(16.862746%,16.862746%,17.647059%);stop-opacity:1;"/>
<stop offset="0.89659" style="stop-color:rgb(19.607843%,19.607843%,19.607843%);stop-opacity:1;"/>
<stop offset="1" style="stop-color:rgb(9.019608%,9.019608%,9.019608%);stop-opacity:1;"/>
</linearGradient>
<linearGradient id="linear1" gradientUnits="userSpaceOnUse" x1="449.429993" y1="540.75" x2="449.549988" y2="518.409973" gradientTransform="matrix(0.8398,0,0,0.8398,-365.825012,-434.734985)">
<stop offset="0" style="stop-color:rgb(71.372551%,72.549021%,74.901962%);stop-opacity:1;"/>
<stop offset="1" style="stop-color:rgb(86.666667%,87.450981%,88.627452%);stop-opacity:1;"/>
</linearGradient>
<linearGradient id="linear2" gradientUnits="userSpaceOnUse" x1="451.019989" y1="544.150024" x2="451.019989" y2="543.090027" gradientTransform="matrix(0.42444,0,0,0.8398,-178.990005,-434.695007)">
<stop offset="0" style="stop-color:rgb(24.313726%,78.431374%,58.823532%);stop-opacity:1;"/>
<stop offset="1" style="stop-color:rgb(40.000001%,85.09804%,68.627453%);stop-opacity:1;"/>
</linearGradient>
<filter id="alpha" filterUnits="objectBoundingBox" x="0%" y="0%" width="100%" height="100%">
  <feColorMatrix type="matrix" in="SourceGraphic" values="0 0 0 0 1 0 0 0 0 1 0 0 0 0 1 0 0 0 1 0"/>
</filter>
<mask id="mask0">
  <g filter="url(#alpha)">
<rect x="0" y="0" width="24" height="24" style="fill:rgb(0%,0%,0%);fill-opacity:0.452;stroke:none;"/>
  </g>
</mask>
<linearGradient id="linear3" gradientUnits="userSpaceOnUse" x1="467.170013" y1="546.849976" x2="467.170013" y2="544.719971" gradientTransform="matrix(0.8398,0,0,0.8398,-371.434998,-436.420013)">
<stop offset="0" style="stop-color:rgb(1.568628%,1.568628%,1.568628%);stop-opacity:1;"/>
<stop offset="1" style="stop-color:rgb(7.058824%,7.058824%,7.058824%);stop-opacity:0.90816;"/>
</linearGradient>
<clipPath id="clip1">
  <rect x="0" y="0" width="24" height="24"/>
</clipPath>
<g id="surface5" clip-path="url(#clip1)">
<path style=" stroke:none;fill-rule:nonzero;fill:url(#linear3);" d="M 21.730469 22.039062 C 21.730469 22.53125 21.332031 22.929688 20.839844 22.929688 C 20.347656 22.929688 19.949219 22.53125 19.949219 22.039062 C 19.949219 21.546875 20.347656 21.148438 20.839844 21.148438 C 21.332031 21.148438 21.730469 21.546875 21.730469 22.039062 Z M 21.730469 22.039062 "/>
</g>
<mask id="mask1">
  <g filter="url(#alpha)">
<rect x="0" y="0" width="24" height="24" style="fill:rgb(0%,0%,0%);fill-opacity:0.15;stroke:none;"/>
  </g>
</mask>
<clipPath id="clip2">
  <rect x="0" y="0" width="24" height="24"/>
</clipPath>
<g id="surface8" clip-path="url(#clip2)">
<path style="fill:none;stroke-width:0.5;stroke-linecap:round;stroke-linejoin:round;stroke:rgb(0%,0%,0%);stroke-opacity:1;stroke-miterlimit:4;" d="M 40.25 20.546875 C 40.25 26.765625 32.96875 31.796875 24 31.796875 C 15.023438 31.796875 7.75 26.765625 7.75 20.546875 C 7.75 14.335938 15.023438 9.296875 24 9.296875 C 32.96875 9.296875 40.25 14.335938 40.25 20.546875 Z M 40.25 20.546875 " transform="matrix(0.5,0,0,0.5,0,0)"/>
</g>
<mask id="mask2">
  <g filter="url(#alpha)">
<rect x="0" y="0" width="24" height="24" style="fill:rgb(0%,0%,0%);fill-opacity:0.668;stroke:none;"/>
  </g>
</mask>
<clipPath id="clip3">
  <rect x="0" y="0" width="24" height="24"/>
</clipPath>
<g id="surface11" clip-path="url(#clip3)">
<path style="fill-rule:nonzero;fill:rgb(89.019608%,90.980393%,91.764706%);fill-opacity:1;stroke-width:0.0022376;stroke-linecap:butt;stroke-linejoin:miter;stroke:rgb(56.470591%,57.254905%,58.823532%);stroke-opacity:1;stroke-miterlimit:4;" d="M 41.679688 44.195312 C 41.71875 44.195312 41.75 44.179688 41.78125 44.15625 C 41.8125 44.125 41.828125 44.085938 41.828125 44.046875 L 41.828125 43.304688 C 41.828125 43.265625 41.8125 43.234375 41.78125 43.203125 C 41.75 43.171875 41.71875 43.15625 41.679688 43.15625 C 41.640625 43.15625 41.601562 43.171875 41.570312 43.203125 C 41.546875 43.226562 41.53125 43.265625 41.53125 43.304688 L 41.53125 44.046875 C 41.53125 44.085938 41.546875 44.125 41.570312 44.15625 C 41.601562 44.179688 41.640625 44.195312 41.679688 44.195312 Z M 41.679688 44.195312 " transform="matrix(0.5,0,0,0.5,0,0)"/>
</g>
<mask id="mask3">
  <g filter="url(#alpha)">
<rect x="0" y="0" width="24" height="24" style="fill:rgb(0%,0%,0%);fill-opacity:0.668;stroke:none;"/>
  </g>
</mask>
<clipPath id="clip4">
  <rect x="0" y="0" width="24" height="24"/>
</clipPath>
<g id="surface14" clip-path="url(#clip4)">
<path style="fill-rule:nonzero;fill:rgb(89.019608%,90.980393%,91.764706%);fill-opacity:1;stroke-width:0.0022376;stroke-linecap:butt;stroke-linejoin:miter;stroke:rgb(56.470591%,57.254905%,58.823532%);stroke-opacity:1;stroke-miterlimit:4;" d="M 42.476562 43.71875 C 42.414062 43.59375 42.320312 43.484375 42.210938 43.40625 C 42.179688 43.375 42.140625 43.367188 42.101562 43.375 C 42.0625 43.375 42.023438 43.398438 42 43.429688 C 41.976562 43.46875 41.96875 43.5 41.976562 43.539062 C 41.976562 43.585938 42 43.617188 42.03125 43.640625 C 42.109375 43.695312 42.164062 43.765625 42.210938 43.851562 C 42.25 43.929688 42.265625 44.023438 42.265625 44.117188 C 42.265625 44.195312 42.25 44.273438 42.21875 44.34375 C 42.1875 44.421875 42.148438 44.484375 42.09375 44.53125 C 42.039062 44.585938 41.976562 44.632812 41.90625 44.664062 C 41.835938 44.695312 41.757812 44.710938 41.671875 44.710938 C 41.59375 44.710938 41.515625 44.695312 41.445312 44.664062 C 41.375 44.632812 41.304688 44.585938 41.257812 44.53125 C 41.203125 44.484375 41.15625 44.421875 41.125 44.34375 C 41.09375 44.273438 41.078125 44.195312 41.078125 44.117188 C 41.078125 44.023438 41.101562 43.929688 41.140625 43.851562 C 41.1875 43.765625 41.242188 43.695312 41.320312 43.640625 C 41.351562 43.617188 41.367188 43.585938 41.375 43.539062 C 41.382812 43.5 41.375 43.46875 41.351562 43.429688 C 41.320312 43.398438 41.289062 43.382812 41.25 43.375 C 41.210938 43.375 41.171875 43.375 41.140625 43.40625 C 41.023438 43.484375 40.9375 43.59375 40.875 43.71875 C 40.8125 43.84375 40.78125 43.976562 40.78125 44.117188 C 40.78125 44.234375 40.804688 44.351562 40.851562 44.460938 C 40.898438 44.570312 40.96875 44.664062 41.046875 44.742188 C 41.125 44.828125 41.21875 44.890625 41.328125 44.9375 C 41.4375 44.984375 41.554688 45.007812 41.671875 45.007812 C 41.796875 45.007812 41.914062 44.984375 42.023438 44.9375 C 42.132812 44.890625 42.226562 44.828125 42.304688 44.742188 C 42.382812 44.664062 42.445312 44.570312 42.492188 44.460938 C 42.539062 44.351562 42.5625 44.234375 42.5625 44.117188 C 42.5625 43.976562 42.539062 43.84375 42.476562 43.71875 Z M 42.476562 43.71875 " transform="matrix(0.5,0,0,0.5,0,0)"/>
</g>
<mask id="mask4">
  <g filter="url(#alpha)">
<rect x="0" y="0" width="24" height="24" style="fill:rgb(0%,0%,0%);fill-opacity:0.15;stroke:none;"/>
  </g>
</mask>
<clipPath id="clip5">
  <rect x="0" y="0" width="24" height="24"/>
</clipPath>
<g id="surface17" clip-path="url(#clip5)">
<path style=" stroke:none;fill-rule:nonzero;fill:rgb(0%,0%,0%);fill-opacity:1;" d="M 12.003906 4.773438 C 11.765625 4.777344 11.527344 4.785156 11.289062 4.800781 C 11.523438 4.789062 11.761719 4.777344 12 4.777344 Z M 12.734375 4.796875 C 12.761719 4.820312 12.777344 4.863281 12.800781 4.886719 C 12.855469 4.933594 12.917969 4.933594 12.925781 4.984375 C 12.945312 5.109375 12.765625 5.117188 12.78125 5.253906 C 12.742188 5.304688 12.652344 5.300781 12.660156 5.371094 C 12.671875 5.480469 12.902344 5.398438 12.96875 5.484375 C 13 5.53125 12.960938 5.566406 12.9375 5.632812 C 13.015625 5.699219 13.015625 5.800781 12.875 5.800781 C 12.789062 5.800781 12.765625 5.742188 12.675781 5.726562 C 12.628906 5.71875 12.566406 5.71875 12.503906 5.710938 C 12.449219 5.707031 12.386719 5.699219 12.335938 5.691406 C 12.210938 5.679688 12.074219 5.707031 12 5.65625 C 12.121094 5.542969 12.285156 5.433594 12.441406 5.339844 C 12.488281 5.308594 12.589844 5.292969 12.566406 5.234375 C 12.476562 5.179688 12.371094 5.238281 12.285156 5.269531 C 12.199219 5.300781 12.097656 5.351562 12 5.359375 C 11.828125 5.375 11.601562 5.324219 11.464844 5.386719 C 11.445312 5.441406 11.621094 5.421875 11.597656 5.5 C 11.527344 5.507812 11.464844 5.511719 11.410156 5.480469 C 11.363281 5.449219 11.390625 5.40625 11.359375 5.386719 C 11.308594 5.355469 11.109375 5.347656 11.019531 5.359375 C 10.910156 5.371094 10.816406 5.417969 10.804688 5.480469 C 10.933594 5.519531 11.148438 5.4375 11.195312 5.542969 C 11.125 5.628906 10.957031 5.679688 10.976562 5.796875 C 10.988281 5.84375 11.066406 5.902344 11.121094 5.910156 C 11.179688 5.917969 11.210938 5.875 11.265625 5.882812 C 11.324219 5.886719 11.3125 5.933594 11.378906 5.925781 C 11.480469 5.894531 11.535156 5.796875 11.648438 5.804688 C 11.785156 5.917969 11.523438 5.972656 11.378906 6.007812 C 11.214844 6.050781 11 6.074219 10.875 6.109375 C 10.808594 6.128906 10.558594 6.292969 10.523438 6.164062 C 10.5 6.070312 10.648438 6.097656 10.679688 6.023438 C 10.519531 6.003906 10.371094 6.070312 10.226562 6.109375 C 10.019531 6.160156 9.667969 6.195312 9.617188 6.355469 C 9.609375 6.386719 9.636719 6.445312 9.609375 6.46875 C 9.582031 6.484375 9.433594 6.488281 9.371094 6.503906 C 9.269531 6.527344 9.183594 6.574219 9.125 6.585938 C 9.078125 6.597656 9.007812 6.59375 8.980469 6.601562 C 8.898438 6.625 8.867188 6.699219 8.773438 6.75 C 8.734375 6.769531 8.648438 6.789062 8.617188 6.808594 C 8.566406 6.84375 8.558594 6.933594 8.464844 6.949219 C 8.402344 6.953125 8.355469 6.917969 8.296875 6.941406 C 8.292969 7.03125 8.34375 7.152344 8.289062 7.242188 C 8.167969 7.3125 8.03125 7.359375 7.875 7.417969 C 7.789062 7.453125 7.710938 7.460938 7.609375 7.496094 C 7.535156 7.523438 7.46875 7.582031 7.382812 7.617188 C 7.183594 7.699219 6.945312 7.789062 6.949219 7.992188 C 6.949219 8.035156 6.980469 8.082031 6.988281 8.132812 C 6.996094 8.160156 6.988281 8.191406 6.988281 8.222656 C 7 8.296875 7.078125 8.390625 6.988281 8.441406 C 6.851562 8.402344 6.675781 8.390625 6.578125 8.320312 C 6.550781 8.253906 6.632812 8.195312 6.617188 8.132812 C 6.609375 8.082031 6.503906 7.992188 6.441406 7.984375 C 6.378906 7.976562 6.324219 8.023438 6.257812 8.019531 C 6.179688 8.015625 6.109375 7.941406 6.011719 7.933594 C 5.867188 7.921875 5.761719 7.957031 5.597656 7.941406 C 5.445312 8 5.398438 8.101562 5.207031 8.089844 C 5.140625 8.085938 5.078125 8.050781 5 8.039062 C 4.917969 8.03125 4.800781 8.015625 4.714844 8.011719 C 4.402344 8.488281 4.191406 8.992188 4.085938 9.507812 C 4.101562 9.511719 4.113281 9.515625 4.125 9.515625 C 4.199219 9.515625 4.289062 9.488281 4.363281 9.480469 C 4.445312 9.46875 4.554688 9.46875 4.628906 9.449219 C 4.851562 9.402344 4.808594 9.195312 5.03125 9.125 C 5.128906 9.097656 5.242188 9.089844 5.414062 9.085938 C 5.46875 9.117188 5.492188 9.171875 5.488281 9.21875 C 5.480469 9.253906 5.433594 9.289062 5.40625 9.339844 C 5.382812 9.382812 5.375 9.4375 5.351562 9.472656 C 5.320312 9.519531 5.253906 9.554688 5.226562 9.597656 C 5.214844 9.628906 5.222656 9.664062 5.207031 9.691406 C 5.183594 9.738281 5.09375 9.769531 5.136719 9.816406 C 5.355469 9.878906 5.625 9.800781 5.816406 9.824219 C 5.898438 9.835938 6.066406 9.902344 6.0625 9.988281 C 6.0625 10.050781 5.992188 10.09375 5.980469 10.164062 C 5.96875 10.253906 5.910156 10.359375 5.910156 10.429688 C 5.898438 10.546875 6.160156 10.757812 6.339844 10.75 C 6.539062 10.75 6.652344 10.617188 6.886719 10.683594 C 6.964844 10.707031 7.046875 10.796875 7.136719 10.789062 C 7.207031 10.789062 7.3125 10.703125 7.359375 10.640625 C 7.417969 10.570312 7.425781 10.511719 7.527344 10.472656 C 7.636719 10.433594 7.726562 10.453125 7.867188 10.417969 C 7.929688 10.402344 7.984375 10.375 8.039062 10.347656 C 8.089844 10.324219 8.144531 10.261719 8.207031 10.304688 C 8.289062 10.359375 8.105469 10.390625 8.175781 10.453125 C 8.316406 10.503906 8.390625 10.359375 8.496094 10.351562 C 8.527344 10.351562 8.640625 10.398438 8.703125 10.421875 C 8.78125 10.460938 8.808594 10.511719 8.898438 10.523438 C 8.953125 10.53125 9.042969 10.507812 9.125 10.515625 C 9.226562 10.523438 9.289062 10.59375 9.371094 10.585938 C 9.46875 10.585938 9.511719 10.511719 9.597656 10.5 C 9.777344 10.480469 9.84375 10.515625 9.925781 10.59375 C 10.015625 10.605469 10.019531 10.519531 10.101562 10.550781 C 10.054688 10.609375 10.117188 10.640625 10.152344 10.691406 C 10.175781 10.722656 10.171875 10.746094 10.195312 10.761719 C 10.242188 10.792969 10.339844 10.792969 10.410156 10.824219 C 10.484375 10.859375 10.527344 10.917969 10.617188 10.988281 C 10.707031 11.058594 10.855469 11.128906 10.976562 11.132812 C 11.089844 11.140625 11.183594 11.113281 11.277344 11.121094 C 11.488281 11.136719 11.621094 11.210938 11.769531 11.289062 C 11.851562 11.332031 11.929688 11.363281 11.957031 11.417969 C 11.976562 11.453125 11.964844 11.503906 11.988281 11.542969 C 12.03125 11.632812 12.21875 11.675781 12.152344 11.824219 C 12.183594 11.871094 12.253906 11.886719 12.328125 11.917969 C 12.386719 11.941406 12.4375 11.992188 12.503906 12 C 12.542969 12.003906 12.589844 11.992188 12.625 11.992188 C 12.742188 12 12.824219 12.03125 12.925781 12.054688 C 12.988281 12.074219 13.070312 12.082031 13.109375 12.101562 C 13.164062 12.125 13.167969 12.203125 13.234375 12.226562 C 13.277344 12.242188 13.367188 12.21875 13.4375 12.226562 C 13.550781 12.234375 13.699219 12.277344 13.800781 12.285156 C 13.859375 12.285156 13.910156 12.261719 13.964844 12.269531 C 14.21875 12.28125 14.359375 12.488281 14.601562 12.550781 C 14.679688 12.570312 14.796875 12.554688 14.851562 12.570312 C 14.941406 12.597656 15.019531 12.789062 15.027344 12.875 C 15.046875 13.132812 14.757812 13.210938 14.59375 13.382812 C 14.558594 13.417969 14.539062 13.472656 14.488281 13.523438 C 14.390625 13.621094 14.28125 13.644531 14.292969 13.824219 C 14.296875 13.875 14.335938 13.925781 14.335938 13.980469 C 14.335938 14.050781 14.324219 14.136719 14.304688 14.199219 C 14.285156 14.246094 14.230469 14.285156 14.222656 14.324219 C 14.210938 14.371094 14.238281 14.402344 14.230469 14.4375 C 14.222656 14.480469 14.164062 14.539062 14.121094 14.59375 C 14.023438 14.714844 14.003906 14.855469 13.8125 14.902344 C 13.699219 14.933594 13.542969 14.917969 13.417969 14.945312 C 13.367188 14.957031 13.304688 14.988281 13.242188 15.007812 C 13.0625 15.066406 12.808594 15.144531 12.757812 15.269531 C 12.714844 15.382812 12.820312 15.472656 12.789062 15.601562 C 12.757812 15.640625 12.714844 15.679688 12.667969 15.722656 C 12.65625 15.734375 12.648438 15.742188 12.636719 15.753906 C 12.429688 15.765625 12.222656 15.773438 12.007812 15.773438 C 12.011719 15.773438 12.015625 15.773438 12.015625 15.773438 C 15.976562 15.769531 19.339844 13.785156 19.933594 11.101562 C 19.8125 11.125 19.699219 11.15625 19.609375 11.179688 C 19.492188 11.21875 19.375 11.265625 19.269531 11.273438 C 19.171875 11.277344 19.078125 11.238281 18.980469 11.230469 C 18.859375 11.222656 18.699219 11.230469 18.578125 11.246094 C 18.460938 11.257812 18.355469 11.316406 18.25 11.324219 C 18.050781 11.332031 17.859375 11.199219 17.734375 11.132812 C 17.660156 11.089844 17.578125 11.058594 17.507812 11.019531 C 17.429688 10.976562 17.332031 10.953125 17.269531 10.914062 C 17.191406 10.859375 17.191406 10.765625 17.148438 10.695312 C 17.097656 10.609375 16.945312 10.550781 16.828125 10.46875 C 16.742188 10.410156 16.542969 10.320312 16.519531 10.246094 C 16.507812 10.207031 16.539062 10.160156 16.539062 10.117188 C 16.535156 10.054688 16.464844 10.019531 16.46875 9.976562 C 16.46875 9.914062 16.574219 9.867188 16.601562 9.8125 C 16.613281 9.789062 16.609375 9.75 16.621094 9.714844 C 16.652344 9.644531 16.71875 9.601562 16.703125 9.496094 C 16.695312 9.457031 16.644531 9.417969 16.640625 9.363281 C 16.640625 9.324219 16.675781 9.304688 16.671875 9.269531 C 16.664062 9.210938 16.550781 9.199219 16.539062 9.128906 C 16.527344 9.058594 16.636719 9 16.703125 8.917969 C 16.730469 8.882812 16.75 8.828125 16.777344 8.800781 C 16.835938 8.738281 16.925781 8.710938 16.972656 8.652344 C 17.003906 8.609375 17.015625 8.542969 17.042969 8.511719 C 17.082031 8.46875 17.15625 8.445312 17.230469 8.390625 C 17.289062 8.34375 17.3125 8.292969 17.351562 8.269531 C 17.40625 8.246094 17.480469 8.238281 17.539062 8.222656 C 17.730469 8.164062 17.867188 8.085938 17.960938 7.960938 C 17.933594 7.847656 17.976562 7.800781 18.042969 7.722656 C 18.105469 7.648438 18.152344 7.578125 18.261719 7.539062 C 18.386719 7.488281 18.511719 7.484375 18.601562 7.390625 C 18.636719 7.351562 18.683594 7.289062 18.699219 7.242188 C 18.636719 7.175781 18.566406 7.109375 18.496094 7.046875 C 18.40625 7.042969 18.277344 7.089844 18.230469 7.023438 C 18.210938 7 18.234375 6.949219 18.230469 6.925781 C 18.21875 6.878906 18.164062 6.84375 18.15625 6.8125 C 18.15625 6.792969 18.164062 6.777344 18.171875 6.757812 C 16.8125 5.636719 14.855469 4.929688 12.734375 4.796875 Z M 11.089844 4.816406 C 10.914062 4.832031 10.734375 4.847656 10.558594 4.867188 C 10.734375 4.847656 10.910156 4.832031 11.089844 4.816406 Z M 10.289062 4.910156 C 10.128906 4.933594 9.972656 4.960938 9.8125 4.988281 C 9.96875 4.957031 10.128906 4.933594 10.289062 4.910156 Z M 9.125 5.144531 C 9.054688 5.167969 8.984375 5.1875 8.910156 5.210938 C 8.914062 5.210938 8.914062 5.210938 8.914062 5.210938 C 8.980469 5.214844 9.0625 5.183594 9.125 5.144531 Z M 7.640625 5.667969 C 7.53125 5.71875 7.421875 5.773438 7.316406 5.828125 C 7.410156 5.824219 7.582031 5.816406 7.597656 5.808594 C 7.699219 5.78125 7.683594 5.722656 7.640625 5.667969 Z M 7.855469 5.886719 C 7.773438 5.882812 7.6875 5.910156 7.660156 5.9375 C 7.65625 5.976562 7.707031 5.984375 7.699219 6.027344 C 7.601562 6.078125 7.652344 6.242188 7.753906 6.246094 C 7.859375 6.253906 7.910156 6.066406 8.050781 6.050781 C 8.101562 6.042969 8.128906 6.070312 8.195312 6.0625 C 8.277344 6.019531 8.242188 5.929688 8.152344 5.914062 C 8.121094 5.910156 8.074219 5.929688 8.019531 5.929688 C 7.960938 5.925781 7.902344 5.894531 7.855469 5.886719 Z M 7.390625 5.910156 C 7.304688 5.90625 7.164062 5.9375 7.113281 5.957031 C 7.066406 5.980469 7.039062 6.035156 6.992188 6.070312 C 6.941406 6.113281 6.886719 6.140625 6.84375 6.175781 C 6.808594 6.207031 6.597656 6.414062 6.761719 6.4375 C 6.832031 6.449219 6.976562 6.347656 6.992188 6.308594 C 7.035156 6.179688 7.121094 6.089844 7.269531 6.027344 C 7.351562 5.996094 7.4375 6 7.453125 5.921875 C 7.441406 5.914062 7.417969 5.910156 7.390625 5.910156 Z M 8.609375 6.160156 C 8.558594 6.160156 8.5 6.167969 8.453125 6.167969 C 8.382812 6.171875 8.304688 6.183594 8.296875 6.21875 C 8.402344 6.253906 8.699219 6.277344 8.730469 6.183594 C 8.710938 6.167969 8.664062 6.164062 8.609375 6.164062 Z M 7.945312 6.335938 C 7.839844 6.339844 7.738281 6.375 7.648438 6.382812 C 7.578125 6.386719 7.445312 6.371094 7.464844 6.445312 C 7.476562 6.503906 7.613281 6.484375 7.691406 6.464844 C 7.851562 6.429688 7.957031 6.402344 8.050781 6.347656 C 8.015625 6.339844 7.976562 6.335938 7.945312 6.335938 Z M 18.226562 6.800781 C 18.300781 6.863281 18.367188 6.921875 18.433594 6.984375 C 18.367188 6.921875 18.300781 6.863281 18.226562 6.800781 Z M 18.730469 7.269531 C 18.765625 7.308594 18.796875 7.347656 18.832031 7.382812 C 18.800781 7.347656 18.765625 7.308594 18.730469 7.269531 Z M 19.105469 7.710938 C 19.136719 7.75 19.167969 7.789062 19.199219 7.832031 C 19.167969 7.789062 19.136719 7.75 19.105469 7.710938 Z M 19.726562 8.765625 C 19.738281 8.796875 19.75 8.828125 19.761719 8.859375 C 19.75 8.828125 19.738281 8.796875 19.726562 8.765625 Z M 19.894531 9.265625 C 19.90625 9.304688 19.917969 9.339844 19.925781 9.378906 C 19.917969 9.339844 19.90625 9.304688 19.894531 9.265625 Z M 4.03125 9.800781 C 4.011719 9.957031 4 10.117188 4 10.273438 C 4.003906 12.421875 5.832031 14.375 8.679688 15.269531 C 8.679688 15.242188 8.699219 15.222656 8.699219 15.199219 C 8.699219 15.125 8.664062 15.054688 8.660156 14.980469 C 8.648438 14.847656 8.679688 14.75 8.648438 14.628906 C 8.625 14.535156 8.59375 14.390625 8.542969 14.332031 C 8.488281 14.265625 8.273438 14.152344 8.164062 14.113281 C 8.09375 14.085938 8.003906 14.074219 7.925781 14.050781 C 7.757812 13.992188 7.433594 13.875 7.359375 13.761719 C 7.339844 13.726562 7.34375 13.683594 7.320312 13.648438 C 7.273438 13.574219 7.179688 13.511719 7.113281 13.441406 C 6.984375 13.308594 6.882812 13.144531 6.753906 13.003906 C 6.6875 12.9375 6.628906 12.855469 6.554688 12.800781 C 6.515625 12.769531 6.378906 12.738281 6.363281 12.6875 C 6.339844 12.625 6.265625 12.535156 6.277344 12.484375 C 6.292969 12.417969 6.484375 12.363281 6.484375 12.300781 C 6.484375 12.25 6.382812 12.21875 6.363281 12.175781 C 6.308594 12.066406 6.390625 12.003906 6.453125 11.914062 C 6.476562 11.882812 6.496094 11.835938 6.515625 11.816406 C 6.554688 11.777344 6.628906 11.765625 6.679688 11.722656 C 6.707031 11.699219 6.726562 11.652344 6.761719 11.617188 C 6.839844 11.546875 6.96875 11.519531 7 11.453125 C 7.027344 11.402344 7.042969 11.140625 7.011719 11.054688 C 6.992188 11.003906 6.925781 10.960938 6.898438 10.914062 C 6.851562 10.828125 6.839844 10.730469 6.710938 10.738281 C 6.632812 10.738281 6.578125 10.796875 6.527344 10.835938 C 6.515625 10.886719 6.519531 10.941406 6.445312 10.953125 C 6.328125 10.980469 6.28125 10.871094 6.144531 10.84375 C 6.089844 10.832031 6.003906 10.832031 5.972656 10.820312 C 5.871094 10.792969 5.839844 10.691406 5.734375 10.652344 C 5.648438 10.621094 5.570312 10.628906 5.515625 10.582031 C 5.492188 10.546875 5.511719 10.484375 5.507812 10.441406 C 5.394531 10.394531 5.296875 10.226562 5.167969 10.1875 C 5.078125 10.160156 4.945312 10.164062 4.835938 10.136719 C 4.785156 10.125 4.746094 10.109375 4.691406 10.101562 C 4.625 10.09375 4.558594 10.09375 4.507812 10.074219 C 4.332031 10.015625 4.222656 9.84375 4.03125 9.800781 Z M 8.167969 10.574219 C 8.15625 10.574219 8.144531 10.574219 8.132812 10.582031 C 8.058594 10.605469 8.097656 10.695312 8.171875 10.6875 C 8.246094 10.679688 8.238281 10.582031 8.167969 10.578125 Z M 20 10.777344 C 19.992188 10.820312 19.984375 10.859375 19.980469 10.898438 C 19.988281 10.859375 19.992188 10.820312 20 10.777344 Z M 9.605469 15.519531 C 9.679688 15.535156 9.753906 15.546875 9.828125 15.558594 C 9.753906 15.546875 9.679688 15.535156 9.605469 15.519531 Z M 10.378906 15.65625 C 10.492188 15.671875 10.609375 15.683594 10.726562 15.695312 C 10.609375 15.683594 10.492188 15.671875 10.378906 15.65625 Z M 11.183594 15.742188 C 11.402344 15.757812 11.625 15.765625 11.847656 15.769531 C 11.625 15.765625 11.402344 15.757812 11.183594 15.742188 Z M 11.183594 15.742188 "/>
</g>
</defs>
<g id="surface1">
<path style=" stroke:none;fill-rule:nonzero;fill:url(#linear0);" d="M 0.25 19.699219 L 0.457031 22.988281 C 0.457031 23.328125 0.738281 23.601562 1.082031 23.601562 L 22.910156 23.601562 C 23.257812 23.601562 23.535156 23.328125 23.535156 22.988281 L 23.746094 19.699219 Z M 0.25 19.699219 "/>
<path style=" stroke:none;fill-rule:nonzero;fill:url(#linear1);" d="M 2.128906 0.378906 L 21.660156 0.378906 C 22.007812 0.378906 22.289062 0.652344 22.289062 0.996094 L 23.746094 19.554688 C 23.746094 19.894531 23.46875 20.171875 23.121094 20.171875 L 0.875 20.171875 C 0.527344 20.171875 0.25 19.894531 0.25 19.554688 L 1.5 0.996094 C 1.5 0.652344 1.78125 0.378906 2.125 0.378906 Z M 2.128906 0.378906 "/>
<path style=" stroke:none;fill-rule:nonzero;fill:url(#linear2);" d="M 7.542969 21.679688 L 16.527344 21.679688 C 16.703125 21.679688 16.847656 21.824219 16.847656 22 C 16.847656 22.179688 16.703125 22.324219 16.527344 22.324219 L 7.542969 22.324219 C 7.367188 22.324219 7.222656 22.179688 7.222656 22 C 7.222656 21.824219 7.367188 21.679688 7.542969 21.679688 Z M 7.542969 21.679688 "/>
<use xlink:href="#surface5" mask="url(#mask0)"/>
<use xlink:href="#surface8" mask="url(#mask1)"/>
<use xlink:href="#surface11" mask="url(#mask2)"/>
<use xlink:href="#surface14" mask="url(#mask3)"/>
<use xlink:href="#surface17" mask="url(#mask4)"/>
</g>
</svg>
