
<svg xmlns="http://www.w3.org/2000/svg" xmlns:xlink="http://www.w3.org/1999/xlink" width="24px" height="24px" viewBox="0 0 24 24" version="1.1">
<defs>
<linearGradient id="linear0" gradientUnits="userSpaceOnUse" x1="-4.071" y1="1070.199951" x2="-4.071" y2="1131.599976" gradientTransform="matrix(0.265668,0,0,0.265668,13.14,-281.387988)">
<stop offset="0" style="stop-color:rgb(99.215686%,47.058824%,77.64706%);stop-opacity:1;"/>
<stop offset="1" style="stop-color:rgb(100%,48.235294%,78.823531%);stop-opacity:1;"/>
</linearGradient>
<linearGradient id="linear1" gradientUnits="userSpaceOnUse" x1="-4.1916" y1="1096.699951" x2="-4.1916" y2="1140.099976" gradientTransform="matrix(0.265668,0,0,0.265668,13.14,-281.387988)">
<stop offset="0" style="stop-color:rgb(98.823529%,23.529412%,73.725492%);stop-opacity:1;"/>
<stop offset="0.5" style="stop-color:rgb(100%,34.901962%,78.431374%);stop-opacity:1;"/>
<stop offset="1" style="stop-color:rgb(96.470588%,30.19608%,74.509805%);stop-opacity:1;"/>
</linearGradient>
<filter id="alpha" filterUnits="objectBoundingBox" x="0%" y="0%" width="100%" height="100%">
  <feColorMatrix type="matrix" in="SourceGraphic" values="0 0 0 0 1 0 0 0 0 1 0 0 0 0 1 0 0 0 1 0"/>
</filter>
<mask id="mask0">
  <g filter="url(#alpha)">
<rect x="0" y="0" width="24" height="24" style="fill:rgb(0%,0%,0%);fill-opacity:0.1;stroke:none;"/>
  </g>
</mask>
<clipPath id="clip1">
  <rect x="0" y="0" width="24" height="24"/>
</clipPath>
<g id="surface5" clip-path="url(#clip1)">
<path style=" stroke:none;fill-rule:nonzero;fill:rgb(0%,0%,0%);fill-opacity:1;" d="M 0.378906 19.902344 L 0.378906 20.167969 L 23.742188 20.167969 L 23.742188 19.902344 Z M 0.378906 20.484375 L 0.378906 20.625 C 0.378906 20.671875 0.382812 20.710938 0.386719 20.75 L 23.734375 20.75 C 23.738281 20.710938 23.742188 20.671875 23.742188 20.625 L 23.742188 20.484375 Z M 0.378906 20.484375 "/>
</g>
<mask id="mask1">
  <g filter="url(#alpha)">
<rect x="0" y="0" width="24" height="24" style="fill:rgb(0%,0%,0%);fill-opacity:0.25;stroke:none;"/>
  </g>
</mask>
<linearGradient id="linear2" gradientUnits="userSpaceOnUse" x1="-4.0625" y1="1138.199951" x2="-4.0625" y2="1140.099976" gradientTransform="matrix(0.265668,0,0,0.265668,13.14,-281.387988)">
<stop offset="0" style="stop-color:rgb(0%,0%,0%);stop-opacity:0.046784;"/>
<stop offset="1" style="stop-color:rgb(0%,0%,0%);stop-opacity:1;"/>
</linearGradient>
<clipPath id="clip2">
  <rect x="0" y="0" width="24" height="24"/>
</clipPath>
<g id="surface8" clip-path="url(#clip2)">
<path style=" stroke:none;fill-rule:nonzero;fill:url(#linear2);" d="M 0.453125 20.996094 C 0.59375 21.308594 0.90625 21.511719 1.25 21.511719 L 22.871094 21.511719 C 23.226562 21.511719 23.53125 21.300781 23.667969 20.996094 Z M 0.453125 20.996094 "/>
</g>
</defs>
<g id="surface1">
<path style=" stroke:none;fill-rule:nonzero;fill:url(#linear0);" d="M 1.25 2.929688 L 7.128906 2.929688 C 8 2.929688 8.363281 4.808594 9.179688 4.808594 L 22.867188 4.808594 C 23.101562 4.808594 23.320312 4.898438 23.484375 5.0625 C 23.648438 5.226562 23.742188 5.449219 23.742188 5.679688 L 23.742188 19.097656 C 23.742188 19.582031 23.351562 18.5625 22.867188 18.5625 L 1.25 18.5625 C 1.015625 18.5625 0.792969 18.472656 0.632812 18.308594 C 0.46875 18.144531 0.375 17.921875 0.375 17.691406 L 0.375 3.800781 C 0.375 3.570312 0.46875 3.347656 0.632812 3.183594 C 0.792969 3.019531 1.015625 2.929688 1.25 2.929688 Z M 1.25 2.929688 "/>
<path style=" stroke:none;fill-rule:nonzero;fill:url(#linear1);" d="M 0.957031 9.96875 L 23.09375 9.96875 C 23.578125 9.96875 23.976562 10.257812 23.96875 10.613281 L 23.742188 20.859375 C 23.734375 21.214844 23.351562 21.5 22.867188 21.5 L 1.25 21.5 C 0.765625 21.5 0.386719 21.214844 0.375 20.859375 L 0.0859375 10.613281 C 0.0742188 10.257812 0.472656 9.96875 0.957031 9.96875 Z M 0.957031 9.96875 "/>
<use xlink:href="#surface5" mask="url(#mask0)"/>
<use xlink:href="#surface8" mask="url(#mask1)"/>
</g>
</svg>
