
<svg xmlns="http://www.w3.org/2000/svg" xmlns:xlink="http://www.w3.org/1999/xlink" width="24px" height="24px" viewBox="0 0 24 24" version="1.1">
<defs>
<linearGradient id="linear0" gradientUnits="userSpaceOnUse" x1="21.91" y1="9.34" x2="44.220001" y2="59.459999" gradientTransform="matrix(0.375,0,0,0.375,0,0)">
<stop offset="0" style="stop-color:rgb(25.490198%,74.509805%,83.529413%);stop-opacity:1;"/>
<stop offset="1" style="stop-color:rgb(51.372552%,32.549021%,84.313726%);stop-opacity:1;"/>
</linearGradient>
</defs>
<g id="surface1">
<path style=" stroke:none;fill-rule:nonzero;fill:rgb(26.666668%,53.725493%,75.686276%);fill-opacity:1;" d="M 0.558594 10.394531 C -0.3125 11.472656 -0.183594 13.042969 0.851562 13.960938 C 1.886719 14.882812 3.460938 14.824219 4.429688 13.835938 L 8.453125 9.808594 C 5.980469 8.25 2.777344 8.488281 0.558594 10.394531 Z M 0.558594 10.394531 "/>
<path style=" stroke:none;fill-rule:nonzero;fill:rgb(39.215687%,27.450982%,75.686276%);fill-opacity:1;" d="M 23.25 10.167969 C 22.238281 9.15625 20.59375 9.15625 19.582031 10.167969 L 15.472656 14.25 C 17.96875 15.828125 21.207031 15.570312 23.421875 13.621094 C 24.25 12.59375 24.179688 11.105469 23.25 10.167969 Z M 23.25 10.167969 "/>
<path style=" stroke:none;fill-rule:nonzero;fill:url(#linear0);" d="M 15 14.753906 C 14.585938 14.488281 14.199219 14.179688 13.851562 13.835938 C 11.257812 11.234375 11.257812 7.027344 13.851562 4.429688 C 14.867188 3.410156 14.867188 1.761719 13.847656 0.746094 C 12.832031 -0.269531 11.183594 -0.269531 10.167969 0.75 L 5.464844 5.464844 L 0.75 10.167969 C 3.347656 7.566406 7.558594 7.5625 10.160156 10.160156 C 12.761719 12.757812 12.761719 16.972656 10.167969 19.570312 C 9.148438 20.585938 9.148438 22.226562 10.160156 23.242188 C 11.171875 24.261719 12.816406 24.261719 13.835938 23.25 L 18.535156 18.535156 L 23.25 13.835938 C 21.050781 16.027344 17.628906 16.410156 15 14.753906 Z M 15 14.753906 "/>
</g>
</svg>
