
<svg xmlns="http://www.w3.org/2000/svg" xmlns:xlink="http://www.w3.org/1999/xlink" width="24px" height="24px" viewBox="0 0 24 24" version="1.1">
<defs>
<linearGradient id="linear0" gradientUnits="userSpaceOnUse" x1="5.67" y1="32.07" x2="58.330002" y2="32.07" gradientTransform="matrix(0.375,0,0,0.375,0,0)">
<stop offset="0" style="stop-color:rgb(83.92157%,85.09804%,86.666667%);stop-opacity:1;"/>
<stop offset="0.27" style="stop-color:rgb(82.352942%,83.92157%,85.490197%);stop-opacity:1;"/>
<stop offset="0.5" style="stop-color:rgb(78.431374%,79.607844%,81.960785%);stop-opacity:1;"/>
<stop offset="0.73" style="stop-color:rgb(71.372551%,72.941178%,76.078433%);stop-opacity:1;"/>
<stop offset="0.92" style="stop-color:rgb(62.352943%,64.705884%,69.01961%);stop-opacity:1;"/>
</linearGradient>
</defs>
<g id="surface1">
<path style=" stroke:none;fill-rule:nonzero;fill:url(#linear0);" d="M 4.308594 20.6875 L 2.125 4.269531 C 2.125 2.007812 6.546875 0.175781 12 0.175781 C 17.453125 0.175781 21.875 2.007812 21.875 4.269531 L 19.691406 20.6875 C 19.691406 22.445312 16.25 23.875 12 23.875 C 7.75 23.875 4.308594 22.445312 4.308594 20.6875 Z M 4.308594 20.6875 "/>
<path style=" stroke:none;fill-rule:nonzero;fill:rgb(36.078432%,49.019608%,84.705883%);fill-opacity:1;" d="M 12 7.984375 C 6.320312 7.984375 2.5 6.0625 2.5 4.269531 C 2.5 2.472656 6.320312 0.550781 12 0.550781 C 17.679688 0.550781 21.5 2.476562 21.5 4.269531 C 21.5 6.058594 17.679688 7.984375 12 7.984375 Z M 12 7.984375 "/>
<path style=" stroke:none;fill-rule:nonzero;fill:rgb(100%,100%,100%);fill-opacity:1;" d="M 12 0.925781 C 17.222656 0.925781 21.125 2.691406 21.125 4.269531 C 21.125 5.84375 17.222656 7.609375 12 7.609375 C 6.777344 7.609375 2.875 5.847656 2.875 4.269531 C 2.875 2.6875 6.777344 0.925781 12 0.925781 M 12 0.175781 C 6.546875 0.175781 2.125 2.007812 2.125 4.269531 C 2.125 6.523438 6.546875 8.359375 12 8.359375 C 17.453125 8.359375 21.875 6.527344 21.875 4.269531 C 21.875 2.007812 17.453125 0.175781 12 0.175781 Z M 12 0.175781 "/>
<path style=" stroke:none;fill-rule:nonzero;fill:rgb(29.411766%,42.352942%,71.764708%);fill-opacity:1;" d="M 12.3125 12.75 C 12.285156 12.320312 12.585938 11.9375 13.011719 11.867188 C 13.457031 11.761719 13.921875 11.941406 14.171875 12.324219 L 15.179688 13.929688 C 15.214844 13.980469 15.203125 14.003906 15.148438 14.027344 L 13.535156 14.902344 C 13.476562 14.9375 13.457031 14.929688 13.421875 14.871094 L 12.429688 13.234375 C 12.351562 13.082031 12.3125 12.917969 12.3125 12.75 Z M 12.3125 12.75 "/>
<path style=" stroke:none;fill-rule:nonzero;fill:rgb(29.411766%,42.352942%,71.764708%);fill-opacity:1;" d="M 14.625 17.5625 C 14.949219 17.570312 15.257812 17.722656 15.460938 17.976562 C 15.597656 18.171875 15.648438 18.414062 15.601562 18.648438 C 15.558594 18.878906 15.421875 19.085938 15.222656 19.214844 C 15.03125 19.34375 14.804688 19.414062 14.574219 19.414062 L 12.617188 19.414062 C 12.539062 19.414062 12.507812 19.414062 12.507812 19.316406 C 12.507812 18.746094 12.507812 18.191406 12.507812 17.628906 C 12.507812 17.558594 12.507812 17.539062 12.601562 17.539062 Z M 14.625 17.5625 "/>
<path style=" stroke:none;fill-rule:nonzero;fill:rgb(29.411766%,42.352942%,71.764708%);fill-opacity:1;" d="M 8.726562 17.625 C 8.378906 17.644531 8.046875 17.472656 7.859375 17.179688 C 7.671875 16.882812 7.660156 16.507812 7.832031 16.203125 C 8.15625 15.65625 8.496094 15.113281 8.828125 14.570312 C 8.855469 14.515625 8.882812 14.519531 8.933594 14.542969 C 9.476562 14.847656 10.019531 15.136719 10.554688 15.414062 C 10.621094 15.449219 10.617188 15.472656 10.582031 15.523438 C 10.246094 16.054688 9.914062 16.589844 9.570312 17.113281 C 9.382812 17.402344 9.070312 17.589844 8.726562 17.625 Z M 8.726562 17.625 "/>
<path style=" stroke:none;fill-rule:nonzero;fill:rgb(36.078432%,49.019608%,84.705883%);fill-opacity:1;" d="M 13.542969 16.785156 L 14.742188 15.054688 C 14.757812 15.03125 14.789062 15.015625 14.820312 15.015625 L 16.421875 14.929688 L 17.0625 14.894531 C 17.0625 14.933594 17.023438 14.933594 17.003906 14.945312 L 16.238281 15.375 C 16.179688 15.40625 16.175781 15.425781 16.207031 15.476562 C 16.394531 15.769531 16.582031 16.0625 16.757812 16.355469 C 16.851562 16.527344 16.875 16.726562 16.824219 16.914062 C 16.769531 17.164062 16.675781 17.40625 16.539062 17.625 C 16.234375 18.125 15.867188 18.589844 15.449219 19 C 15.492188 18.835938 15.523438 18.671875 15.546875 18.503906 C 15.574219 18.328125 15.542969 18.152344 15.453125 18 C 15.132812 17.449219 14.78125 16.917969 14.441406 16.382812 C 14.40625 16.335938 14.382812 16.347656 14.34375 16.382812 L 13.5625 16.800781 Z M 13.542969 16.785156 "/>
<path style=" stroke:none;fill-rule:nonzero;fill:rgb(36.078432%,49.019608%,84.705883%);fill-opacity:1;" d="M 7.796875 17.082031 C 7.832031 17.082031 7.84375 17.105469 7.867188 17.125 C 7.890625 17.144531 8.007812 17.25 8.082031 17.308594 C 8.265625 17.472656 8.503906 17.558594 8.75 17.546875 C 9.386719 17.546875 10.023438 17.546875 10.65625 17.546875 C 10.738281 17.546875 10.757812 17.527344 10.753906 17.449219 C 10.753906 17.171875 10.753906 16.894531 10.753906 16.613281 C 10.789062 16.613281 10.789062 16.644531 10.800781 16.660156 L 11.761719 18.4375 C 11.792969 18.476562 11.792969 18.527344 11.761719 18.566406 L 10.789062 20.367188 C 10.789062 20.367188 10.769531 20.398438 10.753906 20.429688 C 10.753906 20.386719 10.753906 20.363281 10.753906 20.339844 C 10.753906 20.070312 10.753906 19.800781 10.753906 19.53125 C 10.753906 19.464844 10.753906 19.441406 10.675781 19.445312 C 10.300781 19.445312 9.953125 19.445312 9.59375 19.445312 C 9.472656 19.445312 9.355469 19.410156 9.25 19.347656 C 8.984375 19.191406 8.761719 18.976562 8.59375 18.71875 C 8.257812 18.214844 7.988281 17.667969 7.792969 17.09375 C 7.792969 17.09375 7.792969 17.089844 7.796875 17.082031 Z M 7.796875 17.082031 "/>
<path style=" stroke:none;fill-rule:nonzero;fill:rgb(36.078432%,49.019608%,84.705883%);fill-opacity:1;" d="M 8.8125 12.578125 L 9.632812 13.015625 C 9.683594 13.042969 9.710938 13.050781 9.742188 12.992188 C 9.914062 12.695312 10.089844 12.410156 10.269531 12.121094 C 10.328125 12.035156 10.410156 11.96875 10.507812 11.929688 C 10.726562 11.835938 10.957031 11.777344 11.195312 11.761719 C 11.847656 11.703125 12.503906 11.722656 13.152344 11.808594 L 13.394531 11.808594 C 13.394531 11.832031 13.351562 11.832031 13.332031 11.839844 C 13.191406 11.875 13.054688 11.917969 12.921875 11.96875 C 12.730469 12.035156 12.566406 12.167969 12.460938 12.34375 C 12.152344 12.863281 11.832031 13.375 11.511719 13.886719 C 11.480469 13.941406 11.476562 13.96875 11.542969 14.003906 C 11.78125 14.125 12.019531 14.257812 12.253906 14.378906 C 12.28125 14.386719 12.308594 14.40625 12.320312 14.433594 L 11.703125 14.40625 C 11.238281 14.382812 10.773438 14.355469 10.304688 14.34375 C 10.140625 14.355469 9.984375 14.269531 9.902344 14.125 C 9.5625 13.617188 9.199219 13.121094 8.847656 12.625 L 8.800781 12.550781 Z M 8.8125 12.578125 "/>
</g>
</svg>
