
<svg xmlns="http://www.w3.org/2000/svg" xmlns:xlink="http://www.w3.org/1999/xlink" width="24px" height="24px" viewBox="0 0 24 24" version="1.1">
<defs>
<linearGradient id="linear0" gradientUnits="userSpaceOnUse" x1="32" y1="3.8" x2="32" y2="23.49" gradientTransform="matrix(0.375,0,0,0.375,0,0)">
<stop offset="0" style="stop-color:rgb(16.078432%,71.372551%,96.470588%);stop-opacity:1;"/>
<stop offset="0.67" style="stop-color:rgb(39.607844%,45.09804%,82.745099%);stop-opacity:1;"/>
<stop offset="1" style="stop-color:rgb(49.411765%,34.117648%,76.862746%);stop-opacity:1;"/>
</linearGradient>
<linearGradient id="linear1" gradientUnits="userSpaceOnUse" x1="32" y1="60.900002" x2="32" y2="18.719999" gradientTransform="matrix(0.375,0,0,0.375,0,0)">
<stop offset="0" style="stop-color:rgb(86.274511%,87.058824%,88.627452%);stop-opacity:1;"/>
<stop offset="0.57" style="stop-color:rgb(87.058824%,87.843138%,89.411765%);stop-opacity:1;"/>
<stop offset="0.81" style="stop-color:rgb(89.803922%,90.588236%,91.764706%);stop-opacity:1;"/>
<stop offset="0.99" style="stop-color:rgb(94.901961%,95.294118%,95.686275%);stop-opacity:1;"/>
<stop offset="1" style="stop-color:rgb(95.294118%,95.686275%,96.078432%);stop-opacity:1;"/>
</linearGradient>
<linearGradient id="linear2" gradientUnits="userSpaceOnUse" x1="32" y1="51.330002" x2="32" y2="29.83" gradientTransform="matrix(0.375,0,0,0.375,0,0)">
<stop offset="0" style="stop-color:rgb(75.294119%,75.294119%,75.294119%);stop-opacity:1;"/>
<stop offset="1" style="stop-color:rgb(55.686277%,55.686277%,55.686277%);stop-opacity:1;"/>
</linearGradient>
</defs>
<g id="surface1">
<path style=" stroke:none;fill-rule:nonzero;fill:url(#linear0);" d="M 24 7.992188 C 23.996094 6.929688 23.136719 6.070312 22.074219 6.070312 L 15.542969 6.070312 C 14.207031 6.070312 13.117188 5.003906 13.089844 3.667969 C 13.113281 2.308594 12.027344 1.1875 10.667969 1.164062 L 1.269531 1.164062 C 0.566406 1.164062 0 1.730469 0 2.429688 L 0 8.78125 L 24 8.78125 Z M 24 7.992188 "/>
<path style=" stroke:none;fill-rule:nonzero;fill:url(#linear1);" d="M 22.074219 7.019531 L 1.925781 7.019531 C 0.859375 7.019531 0 7.882812 0 8.945312 L 0 20.917969 C 0.00390625 21.976562 0.863281 22.835938 1.925781 22.835938 L 22.074219 22.835938 C 23.136719 22.835938 23.996094 21.976562 24 20.917969 L 24 8.945312 C 24 7.882812 23.140625 7.019531 22.074219 7.019531 Z M 22.074219 7.019531 "/>
<path style=" stroke:none;fill-rule:nonzero;fill:url(#linear2);" d="M 15.519531 16.390625 L 15.519531 16.230469 C 15.519531 15.773438 15.316406 15.339844 14.960938 15.054688 L 13.902344 14.183594 C 14.527344 13.230469 14.355469 11.964844 13.496094 11.214844 C 12.640625 10.46875 11.359375 10.46875 10.503906 11.214844 C 9.644531 11.964844 9.472656 13.230469 10.097656 14.183594 L 9.039062 15.054688 C 8.683594 15.339844 8.480469 15.773438 8.480469 16.230469 L 8.480469 16.390625 C 7.863281 16.515625 7.441406 17.09375 7.503906 17.71875 C 7.566406 18.347656 8.097656 18.828125 8.726562 18.828125 C 9.359375 18.828125 9.886719 18.347656 9.953125 17.71875 C 10.015625 17.09375 9.59375 16.515625 8.972656 16.390625 L 8.972656 16.230469 C 8.972656 15.921875 9.109375 15.625 9.347656 15.429688 L 10.414062 14.5625 C 10.777344 14.917969 11.25 15.140625 11.757812 15.195312 L 11.757812 16.746094 C 11.140625 16.871094 10.71875 17.445312 10.78125 18.070312 C 10.84375 18.699219 11.371094 19.175781 12 19.175781 C 12.628906 19.175781 13.15625 18.699219 13.21875 18.070312 C 13.28125 17.445312 12.859375 16.871094 12.242188 16.746094 L 12.242188 15.195312 C 12.75 15.140625 13.222656 14.917969 13.585938 14.5625 L 14.652344 15.429688 C 14.890625 15.625 15.027344 15.921875 15.027344 16.230469 L 15.027344 16.390625 C 14.40625 16.515625 13.984375 17.09375 14.046875 17.71875 C 14.113281 18.347656 14.640625 18.828125 15.273438 18.828125 C 15.902344 18.828125 16.433594 18.347656 16.496094 17.71875 C 16.558594 17.09375 16.136719 16.515625 15.519531 16.390625 Z M 9.332031 17.59375 C 9.332031 17.929688 9.058594 18.199219 8.726562 18.199219 C 8.394531 18.199219 8.121094 17.929688 8.121094 17.59375 C 8.121094 17.261719 8.394531 16.992188 8.726562 16.992188 C 9.058594 16.992188 9.332031 17.261719 9.332031 17.59375 Z M 12.601562 17.949219 C 12.601562 18.285156 12.332031 18.554688 12 18.554688 C 11.667969 18.554688 11.398438 18.285156 11.398438 17.949219 C 11.398438 17.617188 11.667969 17.347656 12 17.347656 C 12.332031 17.347656 12.601562 17.617188 12.601562 17.949219 Z M 12 14.40625 C 11.183594 14.410156 10.519531 13.75 10.519531 12.933594 C 10.519531 12.117188 11.179688 11.453125 11.996094 11.453125 C 12.8125 11.453125 13.472656 12.113281 13.472656 12.929688 C 13.472656 13.746094 12.8125 14.40625 12 14.40625 Z M 15.273438 18.199219 C 14.941406 18.199219 14.667969 17.929688 14.667969 17.59375 C 14.667969 17.261719 14.941406 16.992188 15.273438 16.992188 C 15.605469 16.992188 15.878906 17.261719 15.878906 17.59375 C 15.878906 17.929688 15.605469 18.199219 15.273438 18.199219 Z M 15.273438 18.199219 "/>
</g>
</svg>
