
<svg xmlns="http://www.w3.org/2000/svg" xmlns:xlink="http://www.w3.org/1999/xlink" width="24px" height="24px" viewBox="0 0 24 24" version="1.1">
<defs>
<linearGradient id="linear0" gradientUnits="userSpaceOnUse" x1="32" y1="3.8" x2="32" y2="23.49" gradientTransform="matrix(0.375,0,0,0.375,0,0)">
<stop offset="0" style="stop-color:rgb(16.078432%,71.372551%,96.470588%);stop-opacity:1;"/>
<stop offset="0.67" style="stop-color:rgb(39.607844%,45.09804%,82.745099%);stop-opacity:1;"/>
<stop offset="1" style="stop-color:rgb(49.411765%,34.117648%,76.862746%);stop-opacity:1;"/>
</linearGradient>
<linearGradient id="linear1" gradientUnits="userSpaceOnUse" x1="32" y1="60.900002" x2="32" y2="18.719999" gradientTransform="matrix(0.375,0,0,0.375,0,0)">
<stop offset="0" style="stop-color:rgb(86.274511%,87.058824%,88.627452%);stop-opacity:1;"/>
<stop offset="0.57" style="stop-color:rgb(87.058824%,87.843138%,89.411765%);stop-opacity:1;"/>
<stop offset="0.81" style="stop-color:rgb(89.803922%,90.588236%,91.764706%);stop-opacity:1;"/>
<stop offset="0.99" style="stop-color:rgb(94.901961%,95.294118%,95.686275%);stop-opacity:1;"/>
<stop offset="1" style="stop-color:rgb(95.294118%,95.686275%,96.078432%);stop-opacity:1;"/>
</linearGradient>
<linearGradient id="linear2" gradientUnits="userSpaceOnUse" x1="32" y1="50.630001" x2="32" y2="28.33" gradientTransform="matrix(0.375,0,0,0.375,0,0)">
<stop offset="0" style="stop-color:rgb(75.294119%,75.294119%,75.294119%);stop-opacity:1;"/>
<stop offset="1" style="stop-color:rgb(55.686277%,55.686277%,55.686277%);stop-opacity:1;"/>
</linearGradient>
<linearGradient id="linear3" gradientUnits="userSpaceOnUse" x1="32" y1="50.630001" x2="32" y2="28.33" gradientTransform="matrix(0.375,0,0,0.375,0,0)">
<stop offset="0" style="stop-color:rgb(75.294119%,75.294119%,75.294119%);stop-opacity:1;"/>
<stop offset="1" style="stop-color:rgb(55.686277%,55.686277%,55.686277%);stop-opacity:1;"/>
</linearGradient>
</defs>
<g id="surface1">
<path style=" stroke:none;fill-rule:nonzero;fill:url(#linear0);" d="M 24 7.992188 C 23.996094 6.929688 23.136719 6.070312 22.074219 6.070312 L 15.542969 6.070312 C 14.207031 6.070312 13.117188 5.003906 13.089844 3.667969 C 13.113281 2.308594 12.027344 1.1875 10.667969 1.164062 L 1.269531 1.164062 C 0.566406 1.164062 0 1.730469 0 2.429688 L 0 8.78125 L 24 8.78125 Z M 24 7.992188 "/>
<path style=" stroke:none;fill-rule:nonzero;fill:url(#linear1);" d="M 22.074219 7.019531 L 1.925781 7.019531 C 0.859375 7.019531 0 7.882812 0 8.945312 L 0 20.917969 C 0.00390625 21.976562 0.863281 22.835938 1.925781 22.835938 L 22.074219 22.835938 C 23.136719 22.835938 23.996094 21.976562 24 20.917969 L 24 8.945312 C 24 7.882812 23.140625 7.019531 22.074219 7.019531 Z M 22.074219 7.019531 "/>
<path style=" stroke:none;fill-rule:nonzero;fill:url(#linear2);" d="M 12 11.769531 C 12.570312 11.769531 13.035156 12.230469 13.035156 12.804688 C 13.035156 13.375 12.570312 13.835938 12 13.835938 C 11.726562 13.839844 11.460938 13.730469 11.269531 13.535156 C 10.972656 13.238281 10.886719 12.792969 11.046875 12.40625 C 11.203125 12.019531 11.582031 11.769531 12 11.769531 M 12 10.929688 C 10.964844 10.929688 10.125 11.765625 10.125 12.804688 C 10.125 13.839844 10.964844 14.679688 12 14.679688 C 13.035156 14.679688 13.875 13.839844 13.875 12.804688 C 13.875 11.765625 13.035156 10.929688 12 10.929688 Z M 12 10.929688 "/>
<path style=" stroke:none;fill-rule:nonzero;fill:url(#linear3);" d="M 12 15.929688 C 13.527344 15.929688 14.863281 16.949219 15.261719 18.425781 C 15.269531 18.4375 15.269531 18.453125 15.261719 18.464844 C 15.253906 18.46875 15.246094 18.46875 15.242188 18.464844 L 8.761719 18.464844 C 8.757812 18.46875 8.75 18.46875 8.742188 18.464844 C 8.734375 18.453125 8.734375 18.4375 8.742188 18.425781 C 9.140625 16.953125 10.476562 15.929688 12 15.929688 M 12 15.09375 C 10.097656 15.09375 8.429688 16.367188 7.929688 18.203125 C 7.847656 18.46875 7.898438 18.753906 8.0625 18.976562 C 8.226562 19.195312 8.488281 19.328125 8.761719 19.328125 L 15.238281 19.328125 C 15.511719 19.328125 15.773438 19.195312 15.9375 18.976562 C 16.101562 18.753906 16.152344 18.46875 16.070312 18.203125 C 15.570312 16.367188 13.902344 15.09375 12 15.09375 Z M 12 15.09375 "/>
</g>
</svg>
