
<svg xmlns="http://www.w3.org/2000/svg" xmlns:xlink="http://www.w3.org/1999/xlink" width="24px" height="24px" viewBox="0 0 24 24" version="1.1">
<defs>
<linearGradient id="linear0" gradientUnits="userSpaceOnUse" x1="32" y1="3.8" x2="32" y2="23.49" gradientTransform="matrix(0.375,0,0,0.375,0,0)">
<stop offset="0" style="stop-color:rgb(16.078432%,71.372551%,96.470588%);stop-opacity:1;"/>
<stop offset="0.67" style="stop-color:rgb(39.607844%,45.09804%,82.745099%);stop-opacity:1;"/>
<stop offset="1" style="stop-color:rgb(49.411765%,34.117648%,76.862746%);stop-opacity:1;"/>
</linearGradient>
<linearGradient id="linear1" gradientUnits="userSpaceOnUse" x1="32" y1="60.900002" x2="32" y2="18.719999" gradientTransform="matrix(0.375,0,0,0.375,0,0)">
<stop offset="0" style="stop-color:rgb(86.274511%,87.058824%,88.627452%);stop-opacity:1;"/>
<stop offset="0.57" style="stop-color:rgb(87.058824%,87.843138%,89.411765%);stop-opacity:1;"/>
<stop offset="0.81" style="stop-color:rgb(89.803922%,90.588236%,91.764706%);stop-opacity:1;"/>
<stop offset="0.99" style="stop-color:rgb(94.901961%,95.294118%,95.686275%);stop-opacity:1;"/>
<stop offset="1" style="stop-color:rgb(95.294118%,95.686275%,96.078432%);stop-opacity:1;"/>
</linearGradient>
<linearGradient id="linear2" gradientUnits="userSpaceOnUse" x1="32" y1="29.75" x2="32" y2="48.32" gradientTransform="matrix(0.375,0,0,0.375,0,0)">
<stop offset="0" style="stop-color:rgb(55.686277%,55.686277%,55.686277%);stop-opacity:1;"/>
<stop offset="1" style="stop-color:rgb(75.294119%,75.294119%,75.294119%);stop-opacity:1;"/>
</linearGradient>
</defs>
<g id="surface1">
<path style=" stroke:none;fill-rule:nonzero;fill:url(#linear0);" d="M 24 7.992188 C 23.996094 6.929688 23.136719 6.070312 22.074219 6.070312 L 15.542969 6.070312 C 14.207031 6.070312 13.117188 5.003906 13.089844 3.667969 C 13.113281 2.308594 12.027344 1.1875 10.667969 1.164062 L 1.269531 1.164062 C 0.566406 1.164062 0 1.730469 0 2.429688 L 0 8.78125 L 24 8.78125 Z M 24 7.992188 "/>
<path style=" stroke:none;fill-rule:nonzero;fill:url(#linear1);" d="M 22.074219 7.019531 L 1.925781 7.019531 C 0.859375 7.019531 0 7.882812 0 8.945312 L 0 20.917969 C 0.00390625 21.976562 0.863281 22.835938 1.925781 22.835938 L 22.074219 22.835938 C 23.136719 22.835938 23.996094 21.976562 24 20.917969 L 24 8.945312 C 24 7.882812 23.140625 7.019531 22.074219 7.019531 Z M 22.074219 7.019531 "/>
<path style=" stroke:none;fill-rule:nonzero;fill:url(#linear2);" d="M 16.5 12.558594 L 14.441406 11.871094 C 14.289062 11.820312 14.1875 11.679688 14.1875 11.515625 C 14.1875 11.308594 14.019531 11.140625 13.8125 11.140625 L 7.625 11.140625 C 7.417969 11.140625 7.25 11.308594 7.25 11.515625 L 7.25 18.164062 C 7.25 18.371094 7.417969 18.539062 7.625 18.539062 L 13.804688 18.539062 C 14.011719 18.539062 14.179688 18.371094 14.179688 18.164062 C 14.171875 18.042969 14.226562 17.921875 14.324219 17.847656 C 14.421875 17.773438 14.550781 17.75 14.667969 17.789062 L 14.734375 17.808594 C 14.828125 17.839844 14.933594 17.832031 15.019531 17.789062 C 15.109375 17.746094 15.179688 17.667969 15.210938 17.570312 L 16.710938 13.023438 C 16.773438 12.835938 16.679688 12.636719 16.5 12.558594 Z M 12.964844 16.953125 L 8.464844 16.953125 C 8.257812 16.953125 8.089844 16.785156 8.089844 16.578125 L 8.089844 12.351562 C 8.089844 12.144531 8.257812 11.976562 8.464844 11.976562 L 12.964844 11.976562 C 13.171875 11.976562 13.339844 12.144531 13.339844 12.351562 L 13.339844 16.578125 C 13.339844 16.785156 13.171875 16.953125 12.964844 16.953125 Z M 14.179688 16.125 L 14.179688 12.96875 C 14.179688 12.847656 14.234375 12.734375 14.332031 12.664062 C 14.429688 12.59375 14.554688 12.574219 14.667969 12.613281 L 15.695312 12.957031 C 15.792969 12.988281 15.871094 13.054688 15.914062 13.144531 C 15.957031 13.234375 15.964844 13.339844 15.933594 13.433594 L 15 16.257812 C 14.9375 16.453125 14.722656 16.558594 14.527344 16.496094 L 14.445312 16.464844 C 14.292969 16.421875 14.1875 16.285156 14.179688 16.125 Z M 14.179688 16.125 "/>
</g>
</svg>
