
<svg xmlns="http://www.w3.org/2000/svg" xmlns:xlink="http://www.w3.org/1999/xlink" width="24px" height="24px" viewBox="0 0 24 24" version="1.1">
<defs>
<linearGradient id="linear0" gradientUnits="userSpaceOnUse" x1="32" y1="27.200001" x2="32" y2="3.35" gradientTransform="matrix(0.375,0,0,0.375,0,0)">
<stop offset="0" style="stop-color:rgb(63.137257%,65.098041%,67.843139%);stop-opacity:1;"/>
<stop offset="0.33" style="stop-color:rgb(69.411767%,70.980394%,73.333335%);stop-opacity:1;"/>
<stop offset="0.98" style="stop-color:rgb(85.09804%,86.666667%,87.843138%);stop-opacity:1;"/>
<stop offset="1" style="stop-color:rgb(85.882354%,87.058824%,88.235295%);stop-opacity:1;"/>
</linearGradient>
<linearGradient id="linear1" gradientUnits="userSpaceOnUse" x1="22.870001" y1="25.049999" x2="53.080002" y2="55.27" gradientTransform="matrix(0.375,0,0,0.375,0,0)">
<stop offset="0" style="stop-color:rgb(16.078432%,71.372551%,96.470588%);stop-opacity:1;"/>
<stop offset="1" style="stop-color:rgb(36.862746%,47.843137%,84.313726%);stop-opacity:1;"/>
</linearGradient>
<linearGradient id="linear2" gradientUnits="userSpaceOnUse" x1="18.9" y1="29.02" x2="49.110001" y2="59.23" gradientTransform="matrix(0.375,0,0,0.375,0,0)">
<stop offset="0" style="stop-color:rgb(16.078432%,71.372551%,96.470588%);stop-opacity:1;"/>
<stop offset="1" style="stop-color:rgb(36.862746%,47.843137%,84.313726%);stop-opacity:1;"/>
</linearGradient>
</defs>
<g id="surface1">
<path style=" stroke:none;fill-rule:nonzero;fill:url(#linear0);" d="M 16.074219 4.074219 C 16.074219 1.824219 14.25 0 12 0 C 9.75 0 7.925781 1.824219 7.925781 4.074219 L 7.925781 10.875 L 16.074219 10.875 Z M 16.074219 4.074219 "/>
<path style=" stroke:none;fill-rule:nonzero;fill:url(#linear1);" d="M 7.925781 10.875 L 7.925781 13.085938 C 7.925781 15.335938 9.75 17.160156 12 17.160156 C 14.25 17.160156 16.074219 15.335938 16.074219 13.085938 L 16.074219 10.875 Z M 7.925781 10.875 "/>
<path style=" stroke:none;fill-rule:nonzero;fill:rgb(50.588238%,52.156866%,52.549022%);fill-opacity:1;" d="M 7.925781 4.289062 L 10.5 4.289062 C 10.644531 4.289062 10.78125 4.34375 10.882812 4.445312 C 10.984375 4.546875 11.039062 4.6875 11.039062 4.828125 C 11.039062 5.128906 10.796875 5.371094 10.5 5.371094 L 7.925781 5.371094 Z M 7.925781 4.289062 "/>
<path style=" stroke:none;fill-rule:nonzero;fill:rgb(50.588238%,52.156866%,52.549022%);fill-opacity:1;" d="M 16.074219 5.371094 L 13.5 5.371094 C 13.203125 5.371094 12.960938 5.128906 12.960938 4.828125 C 12.960938 4.6875 13.015625 4.546875 13.117188 4.445312 C 13.21875 4.34375 13.355469 4.289062 13.5 4.289062 L 16.078125 4.289062 Z M 16.074219 5.371094 "/>
<path style=" stroke:none;fill-rule:nonzero;fill:rgb(50.588238%,52.156866%,52.549022%);fill-opacity:1;" d="M 7.925781 6.269531 L 10.5 6.269531 C 10.644531 6.269531 10.78125 6.324219 10.882812 6.425781 C 10.984375 6.527344 11.039062 6.667969 11.039062 6.808594 C 11.039062 6.953125 10.984375 7.089844 10.882812 7.191406 C 10.78125 7.292969 10.644531 7.351562 10.5 7.351562 L 7.925781 7.351562 Z M 7.925781 6.269531 "/>
<path style=" stroke:none;fill-rule:nonzero;fill:rgb(50.588238%,52.156866%,52.549022%);fill-opacity:1;" d="M 16.074219 7.351562 L 13.5 7.351562 C 13.355469 7.351562 13.21875 7.292969 13.117188 7.191406 C 13.015625 7.089844 12.960938 6.953125 12.960938 6.808594 C 12.960938 6.667969 13.015625 6.527344 13.117188 6.425781 C 13.21875 6.324219 13.355469 6.269531 13.5 6.269531 L 16.078125 6.269531 Z M 16.074219 7.351562 "/>
<path style=" stroke:none;fill-rule:nonzero;fill:rgb(50.588238%,52.156866%,52.549022%);fill-opacity:1;" d="M 7.925781 8.25 L 10.5 8.25 C 10.796875 8.25 11.039062 8.492188 11.039062 8.789062 C 11.039062 8.933594 10.984375 9.070312 10.882812 9.171875 C 10.78125 9.273438 10.644531 9.332031 10.5 9.328125 L 7.925781 9.328125 Z M 7.925781 8.25 "/>
<path style=" stroke:none;fill-rule:nonzero;fill:rgb(50.588238%,52.156866%,52.549022%);fill-opacity:1;" d="M 16.074219 9.328125 L 13.5 9.328125 C 13.355469 9.332031 13.21875 9.273438 13.117188 9.171875 C 13.015625 9.070312 12.960938 8.933594 12.960938 8.789062 C 12.960938 8.492188 13.203125 8.25 13.5 8.25 L 16.078125 8.25 Z M 16.074219 9.328125 "/>
<path style=" stroke:none;fill-rule:nonzero;fill:rgb(33.725491%,51.372552%,85.882354%);fill-opacity:1;" d="M 18.605469 10.554688 L 16.566406 10.554688 L 16.566406 10.097656 L 7.433594 10.097656 L 7.433594 10.554688 L 5.394531 10.554688 L 5.394531 11.191406 L 7.433594 11.191406 L 7.433594 11.675781 L 16.566406 11.675781 L 16.566406 11.191406 L 18.605469 11.191406 Z M 18.605469 10.554688 "/>
<path style=" stroke:none;fill-rule:nonzero;fill:url(#linear2);" d="M 18.605469 10.242188 C 18.253906 10.242188 17.96875 10.523438 17.96875 10.875 L 17.96875 12.496094 C 17.96875 15.792969 15.296875 18.464844 12 18.464844 C 8.703125 18.464844 6.03125 15.792969 6.03125 12.496094 L 6.03125 10.875 C 6.046875 10.636719 5.933594 10.410156 5.730469 10.285156 C 5.527344 10.160156 5.269531 10.160156 5.066406 10.285156 C 4.863281 10.410156 4.746094 10.636719 4.765625 10.875 L 4.765625 12.496094 C 4.78125 16.039062 7.355469 19.054688 10.851562 19.621094 L 10.851562 22.71875 L 8.046875 22.71875 C 7.808594 22.699219 7.582031 22.816406 7.457031 23.019531 C 7.332031 23.222656 7.332031 23.476562 7.457031 23.679688 C 7.582031 23.882812 7.808594 24 8.046875 23.980469 L 15.875 23.980469 C 16.109375 24 16.339844 23.882812 16.464844 23.679688 C 16.585938 23.476562 16.585938 23.222656 16.464844 23.019531 C 16.339844 22.816406 16.109375 22.699219 15.875 22.71875 L 13.070312 22.71875 L 13.070312 19.648438 C 16.609375 19.117188 19.230469 16.074219 19.234375 12.496094 L 19.234375 10.875 C 19.234375 10.707031 19.167969 10.546875 19.050781 10.425781 C 18.933594 10.308594 18.773438 10.242188 18.605469 10.242188 Z M 18.605469 10.242188 "/>
</g>
</svg>
