
<svg xmlns="http://www.w3.org/2000/svg" xmlns:xlink="http://www.w3.org/1999/xlink" width="24px" height="24px" viewBox="0 0 24 24" version="1.1">
<defs>
<linearGradient id="linear0" gradientUnits="userSpaceOnUse" x1="32" y1="3.56" x2="32" y2="60.439999" gradientTransform="matrix(0.375,0,0,0.375,0,0)">
<stop offset="0" style="stop-color:rgb(85.882354%,87.058824%,88.235295%);stop-opacity:1;"/>
<stop offset="1" style="stop-color:rgb(63.137257%,65.098041%,67.843139%);stop-opacity:1;"/>
</linearGradient>
<linearGradient id="linear1" gradientUnits="userSpaceOnUse" x1="32" y1="17.75" x2="32" y2="51.560001" gradientTransform="matrix(0.375,0,0,0.375,0,0)">
<stop offset="0" style="stop-color:rgb(100%,100%,100%);stop-opacity:1;"/>
<stop offset="0.22" style="stop-color:rgb(90.980393%,91.37255%,92.156863%);stop-opacity:1;"/>
<stop offset="0.49" style="stop-color:rgb(82.745099%,83.529413%,85.09804%);stop-opacity:1;"/>
<stop offset="0.75" style="stop-color:rgb(77.64706%,78.823531%,80.784315%);stop-opacity:1;"/>
<stop offset="1" style="stop-color:rgb(76.078433%,77.254903%,79.215688%);stop-opacity:1;"/>
</linearGradient>
<linearGradient id="linear2" gradientUnits="userSpaceOnUse" x1="24.139999" y1="45.529999" x2="39.860001" y2="29.82" gradientTransform="matrix(0.375,-0.000000000000000125,0.000000000000000125,0.375,-0.000920308,0.000644303)">
<stop offset="0.18" style="stop-color:rgb(16.078432%,71.372551%,96.470588%);stop-opacity:1;"/>
<stop offset="0.82" style="stop-color:rgb(49.411765%,34.117648%,76.862746%);stop-opacity:1;"/>
</linearGradient>
</defs>
<g id="surface1">
<path style=" stroke:none;fill-rule:nonzero;fill:url(#linear0);" d="M 21.375 4.710938 L 18.527344 4.710938 C 18.425781 4.710938 18.328125 4.667969 18.257812 4.59375 C 18.1875 4.519531 18.148438 4.417969 18.152344 4.316406 C 18.144531 2.667969 16.804688 1.335938 15.152344 1.335938 L 8.851562 1.335938 C 7.191406 1.335938 5.851562 2.679688 5.851562 4.335938 C 5.855469 4.441406 5.816406 4.542969 5.742188 4.621094 C 5.664062 4.695312 5.5625 4.734375 5.457031 4.730469 L 2.625 4.730469 C 1.175781 4.730469 0 5.902344 0 7.355469 L 0 20.054688 C 0 21.503906 1.175781 22.679688 2.625 22.679688 L 21.375 22.679688 C 22.824219 22.679688 24 21.503906 24 20.054688 L 24 7.324219 C 23.992188 5.878906 22.820312 4.710938 21.375 4.710938 Z M 21.375 4.710938 "/>
<path style=" stroke:none;fill-rule:nonzero;fill:rgb(63.137257%,65.098041%,67.843139%);fill-opacity:1;" d="M 18.734375 15.597656 C 18.734375 19.316406 15.71875 22.332031 12 22.332031 C 8.28125 22.332031 5.265625 19.316406 5.265625 15.597656 C 5.265625 11.875 8.28125 8.859375 12 8.859375 C 15.71875 8.859375 18.734375 11.875 18.734375 15.597656 Z M 18.734375 15.597656 "/>
<path style=" stroke:none;fill-rule:nonzero;fill:rgb(100%,100%,100%);fill-opacity:1;" d="M 21.144531 8.648438 C 21.144531 9.203125 20.695312 9.65625 20.136719 9.65625 C 19.582031 9.65625 19.128906 9.203125 19.128906 8.648438 C 19.128906 8.089844 19.582031 7.640625 20.136719 7.640625 C 20.695312 7.640625 21.144531 8.089844 21.144531 8.648438 Z M 21.144531 8.648438 "/>
<path style=" stroke:none;fill-rule:nonzero;fill:url(#linear1);" d="M 18.734375 14.125 C 18.734375 17.847656 15.71875 20.859375 12 20.859375 C 8.28125 20.859375 5.265625 17.847656 5.265625 14.125 C 5.265625 10.40625 8.28125 7.390625 12 7.390625 C 15.71875 7.390625 18.734375 10.40625 18.734375 14.125 Z M 18.734375 14.125 "/>
<path style=" stroke:none;fill-rule:nonzero;fill:rgb(71.764708%,73.725492%,76.862746%);fill-opacity:1;" d="M 12 21.050781 C 8.175781 21.054688 5.070312 17.953125 5.070312 14.128906 C 5.070312 10.304688 8.167969 7.199219 11.996094 7.199219 C 15.820312 7.199219 18.921875 10.300781 18.921875 14.125 C 18.917969 17.949219 15.820312 21.046875 12 21.050781 Z M 12 7.578125 C 8.382812 7.578125 5.445312 10.507812 5.445312 14.128906 C 5.445312 17.746094 8.378906 20.683594 11.996094 20.679688 C 15.617188 20.679688 18.550781 17.746094 18.546875 14.125 C 18.542969 10.511719 15.613281 7.582031 12 7.578125 Z M 12 7.578125 "/>
<path style=" stroke:none;fill-rule:nonzero;fill:url(#linear2);" d="M 14.945312 11.179688 C 16.570312 12.808594 16.570312 15.445312 14.945312 17.070312 C 13.316406 18.699219 10.679688 18.699219 9.050781 17.070312 C 7.425781 15.445312 7.425781 12.808594 9.050781 11.179688 C 10.679688 9.554688 13.316406 9.554688 14.945312 11.179688 Z M 14.945312 11.179688 "/>
<path style=" stroke:none;fill-rule:nonzero;fill:rgb(100%,100%,100%);fill-opacity:1;" d="M 12.402344 12.617188 C 12.402344 13.402344 11.765625 14.035156 10.984375 14.035156 C 10.199219 14.035156 9.566406 13.402344 9.566406 12.617188 C 9.566406 11.835938 10.199219 11.203125 10.984375 11.203125 C 11.765625 11.203125 12.402344 11.835938 12.402344 12.617188 Z M 12.402344 12.617188 "/>
</g>
</svg>
