
<svg xmlns="http://www.w3.org/2000/svg" xmlns:xlink="http://www.w3.org/1999/xlink" width="24px" height="24px" viewBox="0 0 24 24" version="1.1">
<defs>
<linearGradient id="linear0" gradientUnits="userSpaceOnUse" x1="32.07" y1="43.529999" x2="33.099998" y2="13.73" gradientTransform="matrix(0.375,0,0,0.375,0,0)">
<stop offset="0" style="stop-color:rgb(83.137256%,83.137256%,83.137256%);stop-opacity:1;"/>
<stop offset="0.55" style="stop-color:rgb(83.92157%,83.92157%,83.92157%);stop-opacity:1;"/>
<stop offset="0.78" style="stop-color:rgb(86.666667%,86.666667%,86.666667%);stop-opacity:1;"/>
<stop offset="0.96" style="stop-color:rgb(91.764706%,91.764706%,91.764706%);stop-opacity:1;"/>
<stop offset="1" style="stop-color:rgb(93.333334%,93.333334%,93.333334%);stop-opacity:1;"/>
</linearGradient>
<linearGradient id="linear1" gradientUnits="userSpaceOnUse" x1="0.79" y1="47.360001" x2="63.23" y2="47.360001" gradientTransform="matrix(0.375,0,0,0.375,0,0)">
<stop offset="0" style="stop-color:rgb(16.078432%,71.372551%,96.470588%);stop-opacity:1;"/>
<stop offset="1" style="stop-color:rgb(49.411765%,34.117648%,76.862746%);stop-opacity:1;"/>
</linearGradient>
</defs>
<g id="surface1">
<path style=" stroke:none;fill-rule:nonzero;fill:url(#linear0);" d="M 23.964844 15.539062 L 23.964844 15.460938 C 23.945312 15.367188 23.917969 15.28125 23.890625 15.195312 L 20.835938 4.210938 L 20.835938 4.421875 C 20.824219 3.617188 20.167969 2.957031 19.359375 2.945312 L 4.617188 2.945312 C 3.945312 2.945312 3.351562 3.410156 3.1875 4.070312 L 0.109375 15.195312 C 0.0820312 15.28125 0.0585938 15.367188 0.0351562 15.460938 L 0.015625 15.539062 C 0 15.632812 0 15.726562 0 15.828125 L 0 18.40625 C 0 19.507812 0.898438 20.402344 2 20.40625 L 21.996094 20.40625 C 23.097656 20.40625 24 19.511719 24 18.40625 L 24 15.828125 C 23.992188 15.726562 23.984375 15.632812 23.964844 15.539062 Z M 23.964844 15.539062 "/>
<path style=" stroke:none;fill-rule:nonzero;fill:url(#linear1);" d="M 2.003906 14.765625 L 22 14.765625 C 22.945312 14.765625 23.710938 15.527344 23.710938 16.476562 L 23.710938 19.054688 C 23.710938 20 22.945312 20.765625 22 20.765625 L 2.003906 20.765625 C 1.0625 20.765625 0.296875 20 0.296875 19.054688 L 0.296875 16.476562 C 0.296875 15.527344 1.0625 14.765625 2.003906 14.765625 Z M 2.003906 14.765625 "/>
<path style=" stroke:none;fill-rule:nonzero;fill:rgb(94.901961%,94.901961%,94.901961%);fill-opacity:1;" d="M 22 15.054688 C 22.78125 15.054688 23.414062 15.6875 23.421875 16.46875 L 23.421875 19.046875 C 23.421875 19.835938 22.789062 20.46875 22 20.472656 L 2.003906 20.472656 C 1.21875 20.472656 0.585938 19.835938 0.585938 19.046875 L 0.585938 16.46875 C 0.585938 15.6875 1.226562 15.054688 2.003906 15.054688 L 22 15.054688 M 22 14.472656 L 2.003906 14.472656 C 0.902344 14.472656 0.0078125 15.363281 0 16.46875 L 0 19.046875 C 0 20.15625 0.898438 21.054688 2.003906 21.054688 L 22 21.054688 C 23.101562 21.046875 24 20.15625 24 19.046875 L 24 16.46875 C 23.992188 15.367188 23.101562 14.472656 22 14.472656 Z M 22 14.472656 "/>
<path style=" stroke:none;fill-rule:nonzero;fill:rgb(100%,100%,100%);fill-opacity:1;" d="M 21.773438 17.859375 C 21.773438 18.28125 21.429688 18.632812 21 18.632812 C 20.570312 18.632812 20.226562 18.28125 20.226562 17.859375 C 20.226562 17.429688 20.570312 17.085938 21 17.085938 C 21.429688 17.085938 21.773438 17.429688 21.773438 17.859375 Z M 21.773438 17.859375 "/>
</g>
</svg>
