
<svg xmlns="http://www.w3.org/2000/svg" xmlns:xlink="http://www.w3.org/1999/xlink" width="24px" height="24px" viewBox="0 0 24 24" version="1.1">
<defs>
<linearGradient id="linear0" gradientUnits="userSpaceOnUse" x1="16.09" y1="59.560001" x2="47.290001" y2="5.51" gradientTransform="matrix(0.375,0,0,0.375,0,0)">
<stop offset="0" style="stop-color:rgb(83.137256%,83.137256%,83.137256%);stop-opacity:1;"/>
<stop offset="0.34" style="stop-color:rgb(45.882353%,75.294119%,96.470588%);stop-opacity:1;"/>
<stop offset="0.46" style="stop-color:rgb(47.843137%,53.725493%,86.274511%);stop-opacity:1;"/>
<stop offset="0.57" style="stop-color:rgb(49.411765%,34.117648%,76.862746%);stop-opacity:1;"/>
<stop offset="0.65" style="stop-color:rgb(47.450981%,36.078432%,78.039217%);stop-opacity:1;"/>
<stop offset="0.74" style="stop-color:rgb(42.352942%,41.960785%,81.176472%);stop-opacity:1;"/>
<stop offset="0.84" style="stop-color:rgb(33.725491%,51.372552%,85.882354%);stop-opacity:1;"/>
<stop offset="0.95" style="stop-color:rgb(21.960784%,64.705884%,92.941177%);stop-opacity:1;"/>
<stop offset="1" style="stop-color:rgb(16.078432%,71.372551%,96.470588%);stop-opacity:1;"/>
</linearGradient>
</defs>
<g id="surface1">
<path style="fill-rule:nonzero;fill:rgb(92.156863%,92.54902%,93.333334%);fill-opacity:1;stroke-width:1;stroke-linecap:butt;stroke-linejoin:miter;stroke:rgb(82.352942%,83.529413%,85.490197%);stroke-opacity:1;stroke-miterlimit:10;" d="M 32 12.916667 C 21.46875 12.927083 12.927083 21.46875 12.927083 32.010417 C 12.9375 42.541667 21.479167 51.083333 32.010417 51.083333 C 42.552083 51.083333 51.09375 42.53125 51.09375 32 C 51.072917 21.46875 42.53125 12.927083 32 12.916667 Z M 32 38.625 C 28.333333 38.625 25.375 35.666667 25.375 32 C 25.375 28.333333 28.333333 25.375 32 25.375 C 35.666667 25.375 38.625 28.333333 38.625 32 C 38.625 35.65625 35.65625 38.625 32 38.625 Z M 32 38.625 " transform="matrix(0.375,0,0,0.375,0,0)"/>
<path style=" stroke:none;fill-rule:nonzero;fill:url(#linear0);" d="M 12 0 C 5.371094 0 0 5.371094 0 12 C 0 18.628906 5.371094 24 12 24 C 18.628906 24 24 18.628906 24 12 C 24 5.371094 18.628906 0 12 0 Z M 6.296875 12 C 6.296875 8.851562 8.851562 6.296875 12 6.296875 C 15.148438 6.296875 17.703125 8.851562 17.703125 12 C 17.703125 15.148438 15.148438 17.703125 12 17.703125 C 8.851562 17.703125 6.296875 15.148438 6.296875 12 Z M 6.296875 12 "/>
<path style=" stroke:none;fill-rule:nonzero;fill:rgb(100%,100%,100%);fill-opacity:1;" d="M 4.089844 23.289062 C 2.886719 23.289062 1.675781 22.472656 1.675781 20.664062 C 1.675781 18.851562 2.910156 18 4.125 18 C 4.71875 18.003906 5.285156 18.246094 5.695312 18.675781 L 5.816406 18.796875 L 4.988281 19.792969 L 4.839844 19.660156 C 4.664062 19.464844 4.414062 19.347656 4.148438 19.339844 C 3.601562 19.339844 3.21875 19.875 3.21875 20.625 C 3.21875 21.441406 3.5625 21.929688 4.132812 21.929688 C 4.429688 21.917969 4.710938 21.78125 4.902344 21.554688 L 5.042969 21.398438 L 5.882812 22.398438 L 5.777344 22.519531 C 5.359375 23.015625 4.742188 23.296875 4.089844 23.289062 Z M 4.089844 23.289062 "/>
<path style=" stroke:none;fill-rule:nonzero;fill:rgb(60.000002%,60.000002%,60.000002%);fill-opacity:1;" d="M 4.125 18.175781 C 4.667969 18.179688 5.1875 18.402344 5.566406 18.796875 L 4.964844 19.523438 C 4.753906 19.292969 4.457031 19.15625 4.144531 19.148438 C 3.53125 19.148438 3.019531 19.695312 3.019531 20.621094 C 3.019531 21.546875 3.464844 22.125 4.125 22.125 C 4.476562 22.117188 4.804688 21.957031 5.03125 21.691406 L 5.632812 22.402344 C 5.25 22.859375 4.679688 23.117188 4.082031 23.109375 C 2.882812 23.101562 1.875 22.269531 1.875 20.664062 C 1.875 19.054688 2.933594 18.175781 4.125 18.175781 M 4.125 17.800781 C 2.8125 17.800781 1.5 18.785156 1.5 20.664062 C 1.5 22.605469 2.804688 23.476562 4.101562 23.476562 C 4.804688 23.484375 5.476562 23.179688 5.933594 22.640625 L 6.140625 22.398438 L 5.9375 22.15625 L 5.335938 21.441406 L 5.0625 21.117188 L 4.773438 21.425781 C 4.617188 21.628906 4.378906 21.746094 4.125 21.75 C 3.46875 21.75 3.398438 20.964844 3.398438 20.625 C 3.398438 19.96875 3.699219 19.527344 4.148438 19.527344 C 4.367188 19.535156 4.570312 19.636719 4.714844 19.800781 L 5.007812 20.066406 L 5.257812 19.757812 L 5.859375 19.035156 L 6.070312 18.773438 L 5.835938 18.53125 C 5.390625 18.0625 4.777344 17.789062 4.128906 17.78125 Z M 4.125 17.800781 "/>
<path style=" stroke:none;fill-rule:nonzero;fill:rgb(100%,100%,100%);fill-opacity:1;" d="M 5.828125 23.199219 L 5.828125 18.078125 L 7.378906 18.078125 C 9.046875 18.078125 9.972656 18.980469 9.972656 20.613281 C 9.972656 22.25 9.046875 23.199219 7.445312 23.199219 Z M 7.328125 21.902344 C 7.839844 21.902344 8.414062 21.730469 8.414062 20.613281 C 8.414062 19.496094 7.898438 19.363281 7.328125 19.359375 Z M 7.328125 21.902344 "/>
<path style=" stroke:none;fill-rule:nonzero;fill:rgb(60.000002%,60.000002%,60.000002%);fill-opacity:1;" d="M 7.378906 18.265625 C 8.828125 18.265625 9.785156 18.960938 9.785156 20.613281 C 9.785156 22.265625 8.828125 23.011719 7.445312 23.011719 L 6 23.011719 L 6 18.265625 L 7.363281 18.265625 M 7.140625 22.089844 L 7.292969 22.089844 C 8.042969 22.089844 8.601562 21.738281 8.601562 20.613281 C 8.601562 19.488281 8.058594 19.171875 7.292969 19.171875 L 7.140625 19.171875 L 7.140625 22.089844 M 7.363281 17.890625 L 5.625 17.890625 L 5.625 23.386719 L 7.429688 23.386719 C 9.128906 23.386719 10.144531 22.347656 10.144531 20.613281 C 10.144531 18.882812 9.132812 17.890625 7.363281 17.890625 Z M 7.515625 21.703125 L 7.515625 19.554688 C 7.96875 19.605469 8.226562 19.835938 8.226562 20.613281 C 8.226562 21.390625 7.949219 21.648438 7.515625 21.703125 Z M 7.515625 21.703125 "/>
<path style=" stroke:none;fill-rule:nonzero;fill:rgb(100%,100%,100%);fill-opacity:1;" d="M 9.925781 20.578125 L 12.105469 20.578125 L 12.105469 21.75 L 9.925781 21.75 Z M 9.925781 20.578125 "/>
<path style=" stroke:none;fill-rule:nonzero;fill:rgb(60.000002%,60.000002%,60.000002%);fill-opacity:1;" d="M 11.917969 20.765625 L 11.917969 21.5625 L 10.125 21.5625 L 10.125 20.765625 L 11.929688 20.765625 M 12.304688 20.390625 L 9.75 20.390625 L 9.75 21.9375 L 12.304688 21.9375 Z M 12.304688 20.390625 "/>
<path style=" stroke:none;fill-rule:nonzero;fill:rgb(100%,100%,100%);fill-opacity:1;" d="M 15.296875 23.199219 C 15.296875 23.199219 14.828125 20.925781 14.820312 20.894531 C 14.8125 20.863281 14.359375 23.199219 14.359375 23.199219 L 12.640625 23.199219 L 11.707031 18.078125 L 13.261719 18.078125 L 13.582031 20.398438 L 13.632812 20.792969 L 13.710938 20.390625 L 14.226562 18.078125 L 15.484375 18.078125 L 16.011719 20.386719 C 16.039062 20.511719 16.066406 20.640625 16.085938 20.761719 L 16.128906 20.386719 L 16.457031 18.058594 L 17.929688 18.058594 L 17.039062 23.199219 Z M 15.296875 23.199219 "/>
<path style=" stroke:none;fill-rule:nonzero;fill:rgb(60.000002%,60.000002%,60.000002%);fill-opacity:1;" d="M 17.707031 18.265625 L 16.875 23.011719 L 15.449219 23.011719 L 15.023438 20.945312 C 14.949219 20.570312 14.882812 20.195312 14.839844 19.839844 L 14.804688 19.839844 C 14.75 20.214844 14.691406 20.589844 14.621094 20.945312 L 14.203125 23.011719 L 12.796875 23.011719 L 11.933594 18.265625 L 13.097656 18.265625 L 13.394531 20.425781 L 13.585938 21.925781 L 13.613281 21.925781 C 13.703125 21.421875 13.800781 20.914062 13.894531 20.425781 L 14.378906 18.265625 L 15.332031 18.265625 L 15.832031 20.425781 C 15.925781 20.910156 16.007812 21.421875 16.105469 21.925781 L 16.125 21.925781 C 16.183594 21.417969 16.25 20.914062 16.304688 20.425781 L 16.613281 18.265625 L 17.695312 18.265625 M 18.140625 17.890625 L 16.296875 17.890625 L 16.253906 18.214844 L 16.042969 19.675781 L 15.703125 18.175781 L 15.632812 17.882812 L 14.078125 17.882812 L 14.015625 18.175781 L 13.671875 19.675781 L 13.46875 18.175781 L 13.425781 17.855469 L 11.484375 17.855469 L 11.5625 18.296875 L 12.425781 23.039062 L 12.484375 23.347656 L 14.511719 23.347656 L 14.574219 23.042969 L 14.824219 21.796875 L 15.082031 23.046875 L 15.140625 23.347656 L 17.199219 23.347656 L 17.253906 23.035156 L 18.074219 18.328125 L 18.148438 17.890625 Z M 18.140625 17.890625 "/>
<path style=" stroke:none;fill-rule:nonzero;fill:rgb(100%,100%,100%);fill-opacity:1;" d="M 20.480469 23.199219 L 19.609375 21.523438 L 19.359375 21.523438 L 19.359375 23.199219 L 17.84375 23.199219 L 17.84375 18.078125 L 19.769531 18.078125 C 21.460938 18.078125 21.8125 18.988281 21.8125 19.757812 C 21.84375 20.339844 21.554688 20.890625 21.0625 21.203125 L 22.1875 23.199219 Z M 19.683594 20.25 C 20.257812 20.25 20.324219 19.964844 20.324219 19.753906 C 20.324219 19.546875 20.277344 19.351562 19.683594 19.351562 L 19.359375 19.351562 L 19.359375 20.25 Z M 19.683594 20.25 "/>
<path style=" stroke:none;fill-rule:nonzero;fill:rgb(60.000002%,60.000002%,60.000002%);fill-opacity:1;" d="M 19.769531 18.265625 C 20.785156 18.265625 21.644531 18.609375 21.644531 19.765625 C 21.683594 20.347656 21.359375 20.894531 20.828125 21.136719 L 21.890625 23.011719 L 20.613281 23.011719 L 19.722656 21.335938 L 19.171875 21.335938 L 19.171875 23.011719 L 18.03125 23.011719 L 18.03125 18.265625 L 19.769531 18.265625 M 19.171875 20.441406 L 19.683594 20.441406 C 20.222656 20.441406 20.511719 20.203125 20.511719 19.757812 C 20.511719 19.3125 20.222656 19.167969 19.683594 19.167969 L 19.171875 19.167969 L 19.171875 20.441406 M 19.769531 17.890625 L 17.65625 17.890625 L 17.65625 23.386719 L 19.546875 23.386719 L 19.546875 21.816406 L 20.25 23.183594 L 20.355469 23.386719 L 22.5 23.386719 L 22.183594 22.828125 L 21.304688 21.257812 C 21.761719 20.898438 22.015625 20.339844 21.988281 19.757812 C 21.988281 19.0625 21.703125 17.882812 19.738281 17.882812 Z M 19.546875 19.542969 L 19.683594 19.542969 C 20.136719 19.542969 20.136719 19.628906 20.136719 19.757812 C 20.136719 19.890625 20.136719 20.066406 19.683594 20.066406 L 19.546875 20.066406 Z M 19.546875 19.542969 "/>
</g>
</svg>
