
<svg xmlns="http://www.w3.org/2000/svg" xmlns:xlink="http://www.w3.org/1999/xlink" width="24px" height="24px" viewBox="0 0 24 24" version="1.1">
<g id="surface1">
<path style=" stroke:none;fill-rule:nonzero;fill:rgb(30.980393%,32.549021%,33.725491%);fill-opacity:1;" d="M 23.03125 4.902344 C 23.289062 4.898438 23.535156 5 23.71875 5.183594 C 23.898438 5.363281 24 5.613281 24 5.867188 L 24 18.132812 C 24 18.386719 23.898438 18.636719 23.71875 18.816406 C 23.535156 19 23.289062 19.101562 23.03125 19.097656 L 2.695312 19.097656 C 2.441406 19.097656 2.195312 18.996094 2.015625 18.816406 L 0.28125 17.085938 C 0.101562 16.902344 0 16.660156 0 16.402344 L 0 5.867188 C 0 5.613281 0.101562 5.363281 0.28125 5.183594 C 0.464844 5 0.710938 4.898438 0.96875 4.902344 Z M 23.03125 4.902344 "/>
<path style=" stroke:none;fill-rule:nonzero;fill:rgb(96.078432%,96.470588%,96.470588%);fill-opacity:1;" d="M 2.65625 16.546875 L 3.738281 17.632812 L 3.738281 15.464844 Z M 2.65625 16.546875 "/>
<path style=" stroke:none;fill-rule:nonzero;fill:rgb(27.843139%,29.019609%,29.803923%);fill-opacity:1;" d="M 24 17.625 L 8.113281 17.625 C 7.621094 17.625 7.21875 17.222656 7.21875 16.730469 L 7.21875 7.40625 C 7.21875 6.910156 7.621094 6.511719 8.113281 6.511719 L 24 6.511719 L 24 6.90625 L 8.113281 6.90625 C 7.839844 6.910156 7.617188 7.132812 7.617188 7.40625 L 7.617188 16.710938 C 7.617188 16.984375 7.839844 17.207031 8.113281 17.207031 L 24 17.207031 Z M 24 17.625 "/>
<path style=" stroke:none;fill-rule:nonzero;fill:rgb(100%,100%,100%);fill-opacity:1;" d="M 15.820312 8.886719 C 16.679688 8.949219 17.597656 9.011719 18.515625 9.082031 C 18.640625 9.09375 18.765625 9.113281 18.890625 9.144531 C 19.132812 9.195312 19.339844 9.355469 19.453125 9.582031 C 19.6875 10.089844 20.082031 10.507812 20.578125 10.769531 C 20.785156 10.847656 21 10.910156 21.222656 10.953125 C 21.433594 11.007812 21.648438 11.046875 21.859375 11.109375 C 21.90625 11.128906 21.933594 11.222656 21.972656 11.28125 C 21.917969 11.308594 21.871094 11.367188 21.816406 11.367188 C 21.066406 11.386719 20.355469 11.398438 19.628906 11.394531 C 19.382812 11.394531 19.144531 11.363281 18.90625 11.300781 C 18.789062 11.277344 18.6875 11.203125 18.621094 11.105469 C 18.484375 10.855469 18.359375 10.597656 18.246094 10.335938 C 18.1875 10.210938 18.152344 10.074219 18.097656 9.960938 C 18.011719 9.738281 17.800781 9.589844 17.5625 9.585938 C 17.4375 9.582031 17.308594 9.589844 17.1875 9.609375 C 17.078125 9.609375 17.019531 9.703125 17.035156 9.832031 C 17.050781 9.960938 17.070312 10.09375 17.09375 10.207031 C 17.261719 11.097656 17.09375 11.390625 16.308594 11.523438 C 16.03125 11.566406 15.746094 11.539062 15.480469 11.449219 C 15 11.292969 14.890625 10.921875 14.945312 10.5 C 14.96875 10.285156 15.023438 10.078125 15.046875 9.863281 C 15.074219 9.648438 15.011719 9.59375 14.859375 9.578125 C 14.710938 9.558594 14.558594 9.558594 14.410156 9.578125 C 14.210938 9.613281 14.050781 9.757812 13.988281 9.953125 C 13.921875 10.109375 13.871094 10.273438 13.808594 10.4375 C 13.742188 10.597656 13.722656 10.667969 13.667969 10.78125 C 13.5625 11.128906 13.246094 11.367188 12.882812 11.378906 L 10.523438 11.378906 C 10.425781 11.382812 10.328125 11.375 10.230469 11.359375 C 10.183594 11.359375 10.117188 11.304688 10.109375 11.269531 C 10.109375 11.210938 10.136719 11.15625 10.179688 11.121094 C 10.34375 11.046875 10.515625 10.996094 10.691406 10.972656 C 11.5 10.925781 12.214844 10.433594 12.539062 9.691406 C 12.710938 9.324219 13.074219 9.085938 13.476562 9.074219 C 14.25 9 15 8.953125 15.820312 8.886719 Z M 15.820312 8.886719 "/>
<path style=" stroke:none;fill-rule:nonzero;fill:rgb(100%,100%,100%);fill-opacity:1;" d="M 15.6875 12.230469 C 17.289062 12.265625 18.546875 12.257812 19.8125 12.304688 C 20.410156 12.328125 21.015625 12.402344 21.613281 12.453125 C 21.679688 12.457031 21.746094 12.46875 21.804688 12.5 C 21.855469 12.539062 21.902344 12.582031 21.941406 12.632812 C 21.898438 12.679688 21.863281 12.746094 21.8125 12.757812 C 21.675781 12.800781 21.53125 12.828125 21.386719 12.839844 C 20.355469 12.898438 19.328125 12.980469 18.296875 12.996094 C 16.796875 13.023438 15.296875 13.023438 13.796875 12.996094 C 12.761719 12.980469 11.726562 12.898438 10.691406 12.84375 C 10.566406 12.832031 10.441406 12.8125 10.316406 12.785156 C 10.234375 12.75 10.125 12.75 10.125 12.625 C 10.125 12.570312 10.25 12.496094 10.324219 12.480469 C 10.617188 12.425781 10.914062 12.386719 11.210938 12.367188 C 12.808594 12.300781 14.417969 12.273438 15.6875 12.230469 Z M 15.6875 12.230469 "/>
<path style=" stroke:none;fill-rule:nonzero;fill:rgb(100%,100%,100%);fill-opacity:1;" d="M 16.011719 14.203125 C 14.796875 14.160156 13.578125 14.09375 12.363281 14.042969 C 12.152344 14.027344 11.945312 13.992188 11.742188 13.945312 C 11.695312 13.945312 11.660156 13.867188 11.617188 13.824219 C 11.660156 13.785156 11.699219 13.714844 11.75 13.707031 C 12.121094 13.640625 12.496094 13.597656 12.875 13.578125 C 14.449219 13.546875 16.023438 13.519531 17.597656 13.523438 C 18.390625 13.523438 19.175781 13.59375 19.964844 13.640625 C 20.082031 13.648438 20.195312 13.671875 20.304688 13.710938 C 20.359375 13.710938 20.390625 13.789062 20.4375 13.828125 C 20.390625 13.871094 20.351562 13.933594 20.300781 13.945312 C 20.097656 13.992188 19.890625 14.027344 19.683594 14.042969 C 18.457031 14.09375 17.25 14.160156 16.011719 14.203125 Z M 16.011719 14.203125 "/>
<path style=" stroke:none;fill-rule:nonzero;fill:rgb(100%,100%,100%);fill-opacity:1;" d="M 15.902344 15.175781 C 15.109375 15.140625 14.195312 15.078125 13.277344 15.039062 C 13.195312 15.035156 13.113281 15.019531 13.03125 14.992188 C 12.984375 14.992188 12.949219 14.910156 12.90625 14.867188 C 12.949219 14.832031 12.984375 14.769531 13.027344 14.765625 C 13.214844 14.722656 13.40625 14.699219 13.597656 14.6875 C 14.785156 14.667969 15.976562 14.640625 17.167969 14.636719 C 17.703125 14.636719 18.242188 14.683594 18.785156 14.71875 C 18.867188 14.71875 18.949219 14.734375 19.027344 14.765625 C 19.074219 14.78125 19.101562 14.84375 19.140625 14.882812 C 19.101562 14.917969 19.074219 14.976562 19.03125 14.984375 C 18.859375 15.023438 18.683594 15.046875 18.507812 15.058594 C 17.675781 15.09375 16.851562 15.144531 15.902344 15.175781 Z M 15.902344 15.175781 "/>
</g>
</svg>
