
<svg xmlns="http://www.w3.org/2000/svg" xmlns:xlink="http://www.w3.org/1999/xlink" width="24px" height="24px" viewBox="0 0 24 24" version="1.1">
<g id="surface1">
<path style=" stroke:none;fill-rule:nonzero;fill:rgb(30.980393%,32.549021%,33.725491%);fill-opacity:1;" d="M 1.980469 22.636719 C 1.980469 23.390625 2.589844 24 3.34375 24 L 20.65625 24 C 21.410156 24 22.019531 23.390625 22.019531 22.636719 L 22.019531 3.804688 C 22.019531 3.441406 21.875 3.09375 21.617188 2.839844 L 19.179688 0.402344 C 18.925781 0.144531 18.578125 0 18.214844 0 L 3.34375 0 C 2.589844 0 1.980469 0.609375 1.980469 1.363281 Z M 1.980469 22.636719 "/>
<path style=" stroke:none;fill-rule:nonzero;fill:rgb(100%,80.000001%,0%);fill-opacity:1;" d="M 16.371094 7.316406 L 16.371094 2.5 L 15 2.5 L 15 7.257812 C 15.453125 7.320312 15.914062 7.339844 16.371094 7.316406 Z M 16.371094 7.316406 "/>
<path style=" stroke:none;fill-rule:nonzero;fill:rgb(100%,80.000001%,0%);fill-opacity:1;" d="M 6.238281 4.84375 C 6.6875 4.789062 7.140625 4.777344 7.59375 4.808594 L 7.59375 2.5 L 6.238281 2.5 Z M 6.238281 4.84375 "/>
<path style=" stroke:none;fill-rule:nonzero;fill:rgb(100%,80.000001%,0%);fill-opacity:1;" d="M 14.625 2.5 L 13.238281 2.5 L 13.238281 6.820312 C 13.683594 6.988281 14.148438 7.113281 14.617188 7.195312 Z M 14.625 2.5 "/>
<path style=" stroke:none;fill-rule:nonzero;fill:rgb(100%,80.000001%,0%);fill-opacity:1;" d="M 11.777344 7.710938 C 14.179688 9.152344 17.152344 9.265625 19.652344 8.011719 L 19.652344 4.578125 C 19.652344 3.75 19.15625 3 18.394531 2.671875 L 18.394531 7.355469 L 18.257812 7.390625 C 17.535156 7.59375 16.785156 7.699219 16.03125 7.699219 C 14.46875 7.683594 12.941406 7.261719 11.589844 6.476562 C 9.675781 5.390625 7.820312 4.976562 6.074219 5.242188 L 5.859375 5.277344 L 5.859375 2.578125 C 4.964844 2.832031 4.34375 3.648438 4.339844 4.578125 L 4.339844 6.929688 C 5.808594 6.296875 8.398438 5.800781 11.777344 7.710938 Z M 11.777344 7.710938 "/>
<path style=" stroke:none;fill-rule:nonzero;fill:rgb(100%,80.000001%,0%);fill-opacity:1;" d="M 12.863281 6.667969 L 12.863281 2.5 L 11.480469 2.5 L 11.480469 6 C 11.578125 6.050781 11.679688 6.101562 11.777344 6.15625 C 12.128906 6.347656 12.492188 6.519531 12.863281 6.667969 Z M 12.863281 6.667969 "/>
<path style=" stroke:none;fill-rule:nonzero;fill:rgb(100%,80.000001%,0%);fill-opacity:1;" d="M 16.746094 7.285156 C 17.175781 7.246094 17.605469 7.175781 18.023438 7.070312 L 18.023438 2.550781 C 17.878906 2.515625 17.730469 2.5 17.578125 2.5 L 16.746094 2.5 Z M 16.746094 7.285156 "/>
<path style=" stroke:none;fill-rule:nonzero;fill:rgb(100%,80.000001%,0%);fill-opacity:1;" d="M 11.105469 2.5 L 9.722656 2.5 L 9.722656 5.25 C 10.195312 5.40625 10.65625 5.59375 11.105469 5.8125 Z M 11.105469 2.5 "/>
<path style=" stroke:none;fill-rule:nonzero;fill:rgb(100%,80.000001%,0%);fill-opacity:1;" d="M 9.347656 2.5 L 7.96875 2.5 L 7.96875 4.84375 C 8.433594 4.898438 8.898438 4.992188 9.347656 5.117188 Z M 9.347656 2.5 "/>
<path style=" stroke:none;fill-rule:nonzero;fill:rgb(100%,80.000001%,0%);fill-opacity:1;" d="M 7.875 13 L 9.253906 13 L 9.253906 8.570312 C 8.804688 8.4375 8.34375 8.34375 7.875 8.292969 Z M 7.875 13 "/>
<path style=" stroke:none;fill-rule:nonzero;fill:rgb(100%,80.000001%,0%);fill-opacity:1;" d="M 18.023438 10.527344 C 17.578125 10.636719 17.128906 10.710938 16.671875 10.75 L 16.671875 13 L 17.578125 13 C 17.730469 13 17.878906 12.984375 18.023438 12.949219 Z M 18.023438 10.527344 "/>
<path style=" stroke:none;fill-rule:nonzero;fill:rgb(100%,80.000001%,0%);fill-opacity:1;" d="M 15.996094 9.253906 C 14.449219 9.242188 12.929688 8.824219 11.59375 8.039062 C 8.1875 6.113281 5.679688 6.6875 4.34375 7.320312 L 4.34375 10.921875 C 4.347656 12.070312 5.277344 12.996094 6.421875 13 L 7.5 13 L 7.5 8.25 C 7.074219 8.226562 6.648438 8.238281 6.226562 8.292969 L 6.226562 11.1875 L 5.851562 11.1875 L 5.851562 8.355469 L 5.820312 8.003906 C 7.320312 7.734375 9.328125 7.863281 11.765625 9.234375 C 13.757812 10.425781 16.160156 10.71875 18.382812 10.046875 L 18.382812 12.828125 C 19.144531 12.5 19.640625 11.753906 19.640625 10.921875 L 19.640625 8.421875 C 18.503906 8.960938 17.257812 9.246094 15.996094 9.253906 Z M 15.996094 9.253906 "/>
<path style=" stroke:none;fill-rule:nonzero;fill:rgb(100%,80.000001%,0%);fill-opacity:1;" d="M 11.402344 9.460938 L 11.402344 13 L 12.785156 13 L 12.785156 10.125 C 12.375 9.957031 11.976562 9.765625 11.59375 9.546875 Z M 11.402344 9.460938 "/>
<path style=" stroke:none;fill-rule:nonzero;fill:rgb(100%,80.000001%,0%);fill-opacity:1;" d="M 13.160156 13 L 14.539062 13 L 14.539062 10.644531 C 14.070312 10.558594 13.605469 10.433594 13.160156 10.269531 Z M 13.160156 13 "/>
<path style=" stroke:none;fill-rule:nonzero;fill:rgb(100%,80.000001%,0%);fill-opacity:1;" d="M 9.644531 13 L 11.027344 13 L 11.027344 9.25 C 10.582031 9.027344 10.117188 8.835938 9.644531 8.671875 Z M 9.644531 13 "/>
<path style=" stroke:none;fill-rule:nonzero;fill:rgb(100%,80.000001%,0%);fill-opacity:1;" d="M 14.914062 10.707031 L 14.914062 13 L 16.296875 13 L 16.296875 10.75 C 16.195312 10.75 16.097656 10.75 15.996094 10.75 C 15.636719 10.757812 15.273438 10.746094 14.914062 10.707031 Z M 14.914062 10.707031 "/>
<path style=" stroke:none;fill-rule:nonzero;fill:rgb(100%,100%,100%);fill-opacity:1;" d="M 18.609375 16.371094 L 5.644531 16.371094 C 5.082031 16.371094 4.625 16.828125 4.625 17.390625 L 4.625 18.605469 L 19.625 18.605469 L 19.625 17.390625 C 19.625 17.121094 19.519531 16.863281 19.328125 16.671875 C 19.136719 16.480469 18.878906 16.371094 18.609375 16.371094 Z M 18.609375 16.371094 "/>
<path style=" stroke:none;fill-rule:nonzero;fill:rgb(32.156864%,52.941179%,87.058824%);fill-opacity:1;" d="M 4.625 18.605469 L 19.625 18.605469 L 19.625 23.183594 L 4.625 23.183594 Z M 4.625 18.605469 "/>
</g>
</svg>
