
<svg xmlns="http://www.w3.org/2000/svg" xmlns:xlink="http://www.w3.org/1999/xlink" width="24px" height="24px" viewBox="0 0 24 24" version="1.1">
<defs>
<linearGradient id="linear0" gradientUnits="userSpaceOnUse" x1="20.120001" y1="63" x2="20.120001" y2="0.86" gradientTransform="matrix(0.375,0,0,0.375,0,0)">
<stop offset="0" style="stop-color:rgb(63.137257%,65.098041%,67.843139%);stop-opacity:1;"/>
<stop offset="0.08" style="stop-color:rgb(68.627453%,70.19608%,72.549021%);stop-opacity:1;"/>
<stop offset="0.23" style="stop-color:rgb(76.078433%,77.64706%,79.607844%);stop-opacity:1;"/>
<stop offset="0.41" style="stop-color:rgb(81.568629%,83.137256%,84.313726%);stop-opacity:1;"/>
<stop offset="0.62" style="stop-color:rgb(85.09804%,86.274511%,87.450981%);stop-opacity:1;"/>
<stop offset="1" style="stop-color:rgb(85.882354%,87.058824%,88.235295%);stop-opacity:1;"/>
</linearGradient>
<linearGradient id="linear1" gradientUnits="userSpaceOnUse" x1="7.15" y1="3.99" x2="33.09" y2="29.93" gradientTransform="matrix(0.375,0,0,0.375,0,0)">
<stop offset="0" style="stop-color:rgb(16.078432%,71.372551%,96.470588%);stop-opacity:1;"/>
<stop offset="1" style="stop-color:rgb(36.862746%,47.843137%,84.313726%);stop-opacity:1;"/>
</linearGradient>
<linearGradient id="linear2" gradientUnits="userSpaceOnUse" x1="47.150002" y1="22.059999" x2="47.150002" y2="3.91" gradientTransform="matrix(0.375,0,0,0.375,0,0)">
<stop offset="0" style="stop-color:rgb(63.137257%,65.098041%,67.843139%);stop-opacity:1;"/>
<stop offset="0.33" style="stop-color:rgb(69.411767%,70.980394%,73.333335%);stop-opacity:1;"/>
<stop offset="0.98" style="stop-color:rgb(85.09804%,86.666667%,87.843138%);stop-opacity:1;"/>
<stop offset="1" style="stop-color:rgb(85.882354%,87.058824%,88.235295%);stop-opacity:1;"/>
</linearGradient>
<linearGradient id="linear3" gradientUnits="userSpaceOnUse" x1="59.360001" y1="22.059999" x2="59.360001" y2="3.91" gradientTransform="matrix(0.375,0,0,0.375,0,0)">
<stop offset="0" style="stop-color:rgb(63.137257%,65.098041%,67.843139%);stop-opacity:1;"/>
<stop offset="0.33" style="stop-color:rgb(69.411767%,70.980394%,73.333335%);stop-opacity:1;"/>
<stop offset="0.98" style="stop-color:rgb(85.09804%,86.666667%,87.843138%);stop-opacity:1;"/>
<stop offset="1" style="stop-color:rgb(85.882354%,87.058824%,88.235295%);stop-opacity:1;"/>
</linearGradient>
</defs>
<g id="surface1">
<path style=" stroke:none;fill-rule:nonzero;fill:rgb(71.764708%,72.549021%,73.725492%);fill-opacity:1;" d="M 20.148438 23.675781 L 18.375 23.675781 C 17.21875 23.675781 16.28125 22.738281 16.277344 21.582031 L 16.277344 11.863281 C 16.277344 11.363281 15.875 10.953125 15.375 10.9375 L 14.378906 10.9375 L 14.378906 10.285156 L 15.375 10.285156 C 16.246094 10.289062 16.953125 10.992188 16.953125 11.863281 L 16.953125 21.582031 C 16.957031 22.367188 17.589844 23.007812 18.375 23.019531 L 20.144531 23.019531 Z M 20.148438 23.675781 "/>
<path style=" stroke:none;fill-rule:nonzero;fill:rgb(71.764708%,72.549021%,73.725492%);fill-opacity:1;" d="M 19.984375 23.660156 C 19.113281 23.65625 18.40625 22.949219 18.40625 22.078125 L 18.40625 8.925781 L 19.058594 8.925781 L 19.058594 22.078125 C 19.058594 22.589844 19.472656 23.007812 19.984375 23.007812 C 20.496094 23.007812 20.910156 22.589844 20.910156 22.078125 L 20.910156 8.925781 L 21.5625 8.925781 L 21.5625 22.078125 C 21.558594 22.949219 20.855469 23.65625 19.984375 23.660156 Z M 19.984375 23.660156 "/>
<path style=" stroke:none;fill-rule:nonzero;fill:url(#linear0);" d="M 1.4375 0.324219 L 13.65625 0.324219 C 14.449219 0.324219 15.09375 0.964844 15.09375 1.757812 L 15.09375 22.1875 C 15.09375 22.980469 14.449219 23.625 13.65625 23.625 L 1.4375 23.625 C 0.644531 23.625 0 22.980469 0 22.1875 L 0 1.757812 C 0 0.964844 0.644531 0.324219 1.4375 0.324219 Z M 1.4375 0.324219 "/>
<path style=" stroke:none;fill-rule:nonzero;fill:url(#linear1);" d="M 2.382812 2.132812 L 12.710938 2.132812 C 13.160156 2.132812 13.523438 2.496094 13.523438 2.945312 L 13.523438 9.777344 C 13.523438 10.222656 13.160156 10.585938 12.710938 10.585938 L 2.382812 10.585938 C 1.933594 10.585938 1.570312 10.222656 1.570312 9.777344 L 1.570312 2.945312 C 1.570312 2.496094 1.933594 2.132812 2.382812 2.132812 Z M 2.382812 2.132812 "/>
<path style=" stroke:none;fill-rule:nonzero;fill:rgb(100%,100%,100%);fill-opacity:1;" d="M 7.605469 14.488281 C 8.566406 14.480469 9.441406 15.054688 9.816406 15.941406 C 10.191406 16.828125 9.996094 17.851562 9.320312 18.539062 C 8.644531 19.222656 7.621094 19.433594 6.726562 19.066406 C 5.835938 18.703125 5.253906 17.839844 5.25 16.875 C 5.253906 15.566406 6.3125 14.503906 7.625 14.5 M 7.625 12.527344 C 5.863281 12.519531 4.269531 13.574219 3.589844 15.199219 C 2.910156 16.824219 3.277344 18.699219 4.519531 19.949219 C 5.761719 21.195312 7.636719 21.570312 9.261719 20.898438 C 10.890625 20.226562 11.953125 18.636719 11.953125 16.875 C 11.953125 15.71875 11.496094 14.613281 10.683594 13.792969 C 9.867188 12.976562 8.757812 12.515625 7.605469 12.515625 Z M 7.625 12.527344 "/>
<path style=" stroke:none;fill-rule:nonzero;fill:url(#linear2);" d="M 19.421875 2.859375 C 19.398438 1.703125 18.433594 0.71875 17.09375 0.355469 C 16.820312 0.28125 16.527344 0.339844 16.300781 0.507812 C 16.078125 0.679688 15.945312 0.945312 15.945312 1.230469 L 15.945312 4.558594 C 15.945312 4.839844 16.074219 5.101562 16.292969 5.269531 C 16.515625 5.441406 16.800781 5.5 17.070312 5.433594 C 17.410156 5.34375 17.734375 5.207031 18.039062 5.027344 L 18.039062 8.566406 C 18.019531 8.820312 18.144531 9.066406 18.363281 9.203125 C 18.582031 9.335938 18.859375 9.335938 19.078125 9.203125 C 19.300781 9.066406 19.425781 8.820312 19.40625 8.566406 L 19.40625 2.859375 Z M 19.421875 2.859375 "/>
<path style=" stroke:none;fill-rule:nonzero;fill:url(#linear3);" d="M 20.523438 2.859375 C 20.542969 1.703125 21.507812 0.71875 22.847656 0.355469 C 23.121094 0.28125 23.414062 0.339844 23.640625 0.507812 C 23.863281 0.679688 24 0.945312 24 1.230469 L 24 4.558594 C 24 4.839844 23.871094 5.101562 23.652344 5.269531 C 23.429688 5.441406 23.144531 5.5 22.875 5.433594 C 22.535156 5.34375 22.207031 5.207031 21.902344 5.027344 L 21.902344 8.566406 C 21.921875 8.820312 21.796875 9.066406 21.578125 9.203125 C 21.359375 9.335938 21.082031 9.335938 20.863281 9.203125 C 20.640625 9.066406 20.515625 8.820312 20.535156 8.566406 L 20.535156 2.882812 C 20.535156 2.882812 20.523438 2.863281 20.523438 2.859375 Z M 20.523438 2.859375 "/>
</g>
</svg>
