
<svg xmlns="http://www.w3.org/2000/svg" xmlns:xlink="http://www.w3.org/1999/xlink" width="24px" height="24px" viewBox="0 0 24 24" version="1.1">
<defs>
<linearGradient id="linear0" gradientUnits="userSpaceOnUse" x1="32" y1="64" x2="32" y2="0" gradientTransform="matrix(0.375,0,0,0.375,0,0)">
<stop offset="0" style="stop-color:rgb(63.137257%,65.098041%,67.843139%);stop-opacity:1;"/>
<stop offset="0.09" style="stop-color:rgb(71.372551%,72.941178%,75.294119%);stop-opacity:1;"/>
<stop offset="0.19" style="stop-color:rgb(78.039217%,79.215688%,81.176472%);stop-opacity:1;"/>
<stop offset="0.32" style="stop-color:rgb(82.352942%,83.92157%,85.09804%);stop-opacity:1;"/>
<stop offset="0.5" style="stop-color:rgb(85.09804%,86.274511%,87.450981%);stop-opacity:1;"/>
<stop offset="1" style="stop-color:rgb(85.882354%,87.058824%,88.235295%);stop-opacity:1;"/>
</linearGradient>
<linearGradient id="linear1" gradientUnits="userSpaceOnUse" x1="12.05" y1="6.67" x2="51.950001" y2="46.560001" gradientTransform="matrix(0.375,0,0,0.375,0,0)">
<stop offset="0.18" style="stop-color:rgb(16.078432%,71.372551%,96.470588%);stop-opacity:1;"/>
<stop offset="0.82" style="stop-color:rgb(49.411765%,34.117648%,76.862746%);stop-opacity:1;"/>
</linearGradient>
</defs>
<g id="surface1">
<path style=" stroke:none;fill-rule:nonzero;fill:url(#linear0);" d="M 4.101562 20.789062 C 4.105469 21.511719 4.511719 22.171875 5.15625 22.5 C 7.285156 23.535156 9.632812 24.046875 12 24 C 14.367188 24.046875 16.714844 23.535156 18.84375 22.5 C 19.488281 22.171875 19.894531 21.511719 19.898438 20.789062 L 19.898438 1.914062 C 19.898438 0.863281 19.050781 0.0078125 18 0 L 6 0 C 4.945312 0 4.085938 0.855469 4.085938 1.914062 Z M 4.101562 20.789062 "/>
<path style=" stroke:none;fill-rule:nonzero;fill:url(#linear1);" d="M 6.128906 1.246094 L 17.875 1.246094 C 18.347656 1.246094 18.730469 1.628906 18.730469 2.101562 L 18.730469 17.859375 C 18.730469 18.328125 18.347656 18.710938 17.875 18.710938 L 6.128906 18.710938 C 5.65625 18.710938 5.273438 18.328125 5.273438 17.859375 L 5.273438 2.101562 C 5.273438 1.628906 5.65625 1.246094 6.128906 1.246094 Z M 6.128906 1.246094 "/>
<path style=" stroke:none;fill-rule:nonzero;fill:rgb(100%,100%,100%);fill-opacity:1;" d="M 13.367188 21.425781 C 13.367188 22.183594 12.757812 22.796875 12 22.796875 C 11.242188 22.796875 10.632812 22.183594 10.632812 21.425781 C 10.632812 20.671875 11.242188 20.058594 12 20.058594 C 12.757812 20.058594 13.367188 20.671875 13.367188 21.425781 Z M 13.367188 21.425781 "/>
<path style=" stroke:none;fill-rule:nonzero;fill:rgb(71.764708%,72.549021%,73.725492%);fill-opacity:1;" d="M 12 20.25 C 12.652344 20.25 13.179688 20.777344 13.179688 21.429688 C 13.179688 22.082031 12.652344 22.613281 12 22.613281 C 11.347656 22.613281 10.820312 22.082031 10.820312 21.429688 C 10.820312 20.777344 11.347656 20.25 12 20.25 M 12 19.875 C 11.140625 19.875 10.445312 20.570312 10.445312 21.429688 C 10.445312 22.289062 11.140625 22.988281 12 22.988281 C 12.859375 22.988281 13.554688 22.289062 13.554688 21.429688 C 13.554688 20.570312 12.859375 19.875 12 19.875 Z M 12 19.875 "/>
<path style=" stroke:none;fill-rule:nonzero;fill:rgb(100%,100%,100%);fill-opacity:1;" d="M 9.890625 22.007812 L 9.8125 22.007812 L 8.746094 21.816406 C 8.527344 21.777344 8.371094 21.585938 8.371094 21.367188 L 8.371094 20.625 C 8.371094 20.375 8.578125 20.171875 8.828125 20.171875 L 9.890625 20.171875 C 10.144531 20.171875 10.347656 20.375 10.351562 20.625 L 10.351562 21.566406 C 10.351562 21.6875 10.304688 21.804688 10.21875 21.890625 C 10.132812 21.976562 10.015625 22.023438 9.890625 22.023438 Z M 9.890625 22.007812 "/>
<path style=" stroke:none;fill-rule:nonzero;fill:rgb(71.764708%,72.549021%,73.725492%);fill-opacity:1;" d="M 9.890625 20.34375 C 9.964844 20.34375 10.03125 20.371094 10.082031 20.421875 C 10.132812 20.46875 10.164062 20.539062 10.164062 20.609375 L 10.164062 21.550781 C 10.164062 21.699219 10.042969 21.820312 9.890625 21.820312 L 9.847656 21.820312 L 8.777344 21.628906 C 8.652344 21.605469 8.558594 21.492188 8.558594 21.363281 L 8.558594 20.625 C 8.558594 20.554688 8.585938 20.484375 8.636719 20.433594 C 8.6875 20.386719 8.757812 20.359375 8.828125 20.359375 L 9.890625 20.359375 M 9.890625 19.984375 L 8.828125 19.984375 C 8.472656 19.984375 8.183594 20.269531 8.183594 20.625 L 8.183594 21.375 C 8.183594 21.6875 8.40625 21.953125 8.714844 22.007812 L 9.78125 22.199219 C 9.816406 22.203125 9.855469 22.203125 9.890625 22.199219 C 10.25 22.199219 10.539062 21.910156 10.539062 21.554688 L 10.539062 20.625 C 10.535156 20.269531 10.246094 19.984375 9.890625 19.984375 Z M 9.890625 19.984375 "/>
<path style=" stroke:none;fill-rule:nonzero;fill:rgb(100%,100%,100%);fill-opacity:1;" d="M 7.851562 21.640625 L 7.773438 21.640625 L 6.707031 21.449219 C 6.492188 21.410156 6.335938 21.21875 6.332031 21 L 6.332031 20.625 C 6.335938 20.375 6.539062 20.171875 6.792969 20.171875 L 7.855469 20.171875 C 8.105469 20.171875 8.308594 20.375 8.308594 20.625 L 8.308594 21.199219 C 8.3125 21.320312 8.261719 21.4375 8.175781 21.523438 C 8.089844 21.609375 7.972656 21.65625 7.851562 21.65625 Z M 7.851562 21.640625 "/>
<path style=" stroke:none;fill-rule:nonzero;fill:rgb(71.764708%,72.549021%,73.725492%);fill-opacity:1;" d="M 7.851562 20.34375 C 7.921875 20.34375 7.992188 20.371094 8.042969 20.421875 C 8.09375 20.46875 8.121094 20.539062 8.121094 20.609375 L 8.121094 21.183594 C 8.121094 21.332031 8 21.453125 7.851562 21.453125 L 7.808594 21.453125 L 6.75 21.257812 C 6.621094 21.234375 6.527344 21.125 6.527344 20.992188 L 6.527344 20.625 C 6.53125 20.476562 6.652344 20.359375 6.796875 20.359375 L 7.863281 20.359375 M 7.863281 19.984375 L 6.789062 19.984375 C 6.433594 19.984375 6.144531 20.269531 6.140625 20.625 L 6.140625 21 C 6.144531 21.3125 6.367188 21.578125 6.675781 21.632812 L 7.738281 21.824219 C 7.777344 21.828125 7.816406 21.828125 7.851562 21.824219 C 8.207031 21.824219 8.496094 21.535156 8.496094 21.179688 L 8.496094 20.625 C 8.496094 20.269531 8.207031 19.984375 7.851562 19.984375 Z M 7.863281 19.984375 "/>
<path style=" stroke:none;fill-rule:nonzero;fill:rgb(100%,100%,100%);fill-opacity:1;" d="M 14.109375 22.007812 C 13.855469 22.007812 13.648438 21.804688 13.648438 21.550781 L 13.648438 20.625 C 13.652344 20.375 13.855469 20.171875 14.109375 20.171875 L 15.171875 20.171875 C 15.421875 20.171875 15.628906 20.375 15.628906 20.625 L 15.628906 21.375 C 15.628906 21.59375 15.472656 21.785156 15.253906 21.824219 L 14.191406 22.015625 Z M 14.109375 22.007812 "/>
<path style=" stroke:none;fill-rule:nonzero;fill:rgb(71.764708%,72.549021%,73.725492%);fill-opacity:1;" d="M 15.171875 20.34375 C 15.242188 20.34375 15.3125 20.371094 15.363281 20.421875 C 15.414062 20.46875 15.441406 20.539062 15.441406 20.609375 L 15.441406 21.359375 C 15.441406 21.488281 15.347656 21.601562 15.222656 21.625 L 14.152344 21.816406 L 14.109375 21.816406 C 13.957031 21.816406 13.835938 21.695312 13.835938 21.546875 L 13.835938 20.625 C 13.835938 20.554688 13.867188 20.484375 13.917969 20.433594 C 13.96875 20.386719 14.035156 20.359375 14.109375 20.359375 L 15.171875 20.359375 M 15.171875 19.984375 L 14.109375 19.984375 C 13.753906 19.984375 13.464844 20.269531 13.460938 20.625 L 13.460938 21.566406 C 13.460938 21.921875 13.75 22.210938 14.109375 22.210938 C 14.144531 22.214844 14.183594 22.214844 14.21875 22.210938 L 15.285156 22.019531 C 15.597656 21.964844 15.824219 21.691406 15.816406 21.375 L 15.816406 20.625 C 15.816406 20.269531 15.527344 19.984375 15.171875 19.984375 Z M 15.171875 19.984375 "/>
<path style=" stroke:none;fill-rule:nonzero;fill:rgb(100%,100%,100%);fill-opacity:1;" d="M 16.148438 21.640625 C 15.894531 21.640625 15.691406 21.4375 15.691406 21.183594 L 15.691406 20.625 C 15.691406 20.375 15.894531 20.171875 16.148438 20.171875 L 17.210938 20.171875 C 17.464844 20.171875 17.667969 20.375 17.671875 20.625 L 17.671875 21 C 17.667969 21.21875 17.511719 21.410156 17.296875 21.449219 L 16.226562 21.640625 Z M 16.148438 21.640625 "/>
<path style=" stroke:none;fill-rule:nonzero;fill:rgb(71.764708%,72.549021%,73.725492%);fill-opacity:1;" d="M 17.210938 20.34375 C 17.359375 20.34375 17.480469 20.460938 17.484375 20.609375 L 17.484375 20.984375 C 17.484375 21.117188 17.390625 21.226562 17.261719 21.25 L 16.191406 21.441406 L 16.148438 21.441406 C 16 21.441406 15.878906 21.320312 15.878906 21.171875 L 15.878906 20.625 C 15.878906 20.554688 15.90625 20.484375 15.957031 20.433594 C 16.007812 20.386719 16.078125 20.359375 16.148438 20.359375 L 17.210938 20.359375 M 17.210938 19.984375 L 16.148438 19.984375 C 15.792969 19.984375 15.503906 20.269531 15.503906 20.625 L 15.503906 21.199219 C 15.503906 21.554688 15.792969 21.84375 16.148438 21.84375 C 16.183594 21.847656 16.222656 21.847656 16.261719 21.84375 L 17.324219 21.652344 C 17.640625 21.597656 17.867188 21.320312 17.859375 21 L 17.859375 20.625 C 17.855469 20.269531 17.566406 19.984375 17.210938 19.984375 Z M 17.210938 19.984375 "/>
</g>
</svg>
