
<svg xmlns="http://www.w3.org/2000/svg" xmlns:xlink="http://www.w3.org/1999/xlink" width="24px" height="24px" viewBox="0 0 24 24" version="1.1">
<defs>
<filter id="alpha" filterUnits="objectBoundingBox" x="0%" y="0%" width="100%" height="100%">
  <feColorMatrix type="matrix" in="SourceGraphic" values="0 0 0 0 1 0 0 0 0 1 0 0 0 0 1 0 0 0 1 0"/>
</filter>
<mask id="mask0">
  <g filter="url(#alpha)">
<rect x="0" y="0" width="24" height="24" style="fill:rgb(0%,0%,0%);fill-opacity:0.99;stroke:none;"/>
  </g>
</mask>
<radialGradient id="radial0" gradientUnits="userSpaceOnUse" cx="64" cy="1044.862183" fx="64" fy="1044.862183" r="42.5" gradientTransform="matrix(0.156861,0,0,0.0330882,1.960884,-11.978897)">
<stop offset="0" style="stop-color:rgb(0%,0%,0%);stop-opacity:1;"/>
<stop offset="1" style="stop-color:rgb(0%,0%,0%);stop-opacity:0;"/>
</radialGradient>
<clipPath id="clip1">
  <rect x="0" y="0" width="24" height="24"/>
</clipPath>
<g id="surface5" clip-path="url(#clip1)">
<path style=" stroke:none;fill-rule:nonzero;fill:url(#radial0);" d="M 18.667969 22.59375 C 18.667969 23.371094 15.683594 24 12 24 C 8.316406 24 5.332031 23.371094 5.332031 22.59375 C 5.332031 21.816406 8.316406 21.1875 12 21.1875 C 15.683594 21.1875 18.667969 21.816406 18.667969 22.59375 Z M 18.667969 22.59375 "/>
</g>
<mask id="mask1">
  <g filter="url(#alpha)">
<rect x="0" y="0" width="24" height="24" style="fill:rgb(0%,0%,0%);fill-opacity:0.99;stroke:none;"/>
  </g>
</mask>
<clipPath id="clip2">
  <rect x="0" y="0" width="24" height="24"/>
</clipPath>
<g id="surface8" clip-path="url(#clip2)">
<path style=" stroke:none;fill-rule:nonzero;fill:rgb(40.000001%,40.000001%,40.000001%);fill-opacity:1;" d="M 8.175781 0 L 15.824219 0 C 16.820312 0 17.625 0.804688 17.625 1.800781 L 17.625 21.261719 C 17.625 22.257812 16.820312 23.0625 15.824219 23.0625 L 8.175781 23.0625 C 7.179688 23.0625 6.375 22.257812 6.375 21.261719 L 6.375 1.800781 C 6.375 0.804688 7.179688 0 8.175781 0 Z M 8.175781 0 "/>
</g>
<mask id="mask2">
  <g filter="url(#alpha)">
<rect x="0" y="0" width="24" height="24" style="fill:rgb(0%,0%,0%);fill-opacity:0.99;stroke:none;"/>
  </g>
</mask>
<clipPath id="clip3">
  <rect x="0" y="0" width="24" height="24"/>
</clipPath>
<g id="surface11" clip-path="url(#clip3)">
<path style=" stroke:none;fill-rule:nonzero;fill:rgb(100%,100%,100%);fill-opacity:1;" d="M 8.300781 0.1875 L 15.699219 0.1875 C 16.660156 0.1875 17.4375 0.980469 17.4375 1.957031 L 17.4375 21.105469 C 17.4375 22.082031 16.660156 22.875 15.699219 22.875 L 8.300781 22.875 C 7.339844 22.875 6.5625 22.082031 6.5625 21.105469 L 6.5625 1.957031 C 6.5625 0.980469 7.339844 0.1875 8.300781 0.1875 Z M 8.300781 0.1875 "/>
</g>
<mask id="mask3">
  <g filter="url(#alpha)">
<rect x="0" y="0" width="24" height="24" style="fill:rgb(0%,0%,0%);fill-opacity:0.99;stroke:none;"/>
  </g>
</mask>
<clipPath id="clip4">
  <rect x="0" y="0" width="24" height="24"/>
</clipPath>
<g id="surface14" clip-path="url(#clip4)">
<path style=" stroke:none;fill-rule:nonzero;fill:rgb(10.196079%,10.196079%,10.196079%);fill-opacity:1;" d="M 6.9375 2.8125 L 17.0625 2.8125 L 17.0625 20.25 L 6.9375 20.25 Z M 6.9375 2.8125 "/>
</g>
<mask id="mask4">
  <g filter="url(#alpha)">
<rect x="0" y="0" width="24" height="24" style="fill:rgb(0%,0%,0%);fill-opacity:0.121;stroke:none;"/>
  </g>
</mask>
<linearGradient id="linear0" gradientUnits="userSpaceOnUse" x1="140" y1="73" x2="35" y2="13" gradientTransform="matrix(0.1875,0,0,0.1875,0,0)">
<stop offset="0" style="stop-color:rgb(100%,100%,100%);stop-opacity:1;"/>
<stop offset="1" style="stop-color:rgb(100%,100%,100%);stop-opacity:0;"/>
</linearGradient>
<clipPath id="clip5">
  <rect x="0" y="0" width="24" height="24"/>
</clipPath>
<g id="surface17" clip-path="url(#clip5)">
<path style=" stroke:none;fill-rule:nonzero;fill:url(#linear0);" d="M 8.175781 0 C 7.175781 0 6.375 0.800781 6.375 1.800781 L 6.375 17.789062 C 10.191406 12.953125 12.453125 6.648438 12.757812 0 Z M 8.175781 0 "/>
</g>
<mask id="mask5">
  <g filter="url(#alpha)">
<rect x="0" y="0" width="24" height="24" style="fill:rgb(0%,0%,0%);fill-opacity:0.99;stroke:none;"/>
  </g>
</mask>
<clipPath id="clip6">
  <rect x="0" y="0" width="24" height="24"/>
</clipPath>
<g id="surface20" clip-path="url(#clip6)">
<path style=" stroke:none;fill-rule:nonzero;fill:rgb(20%,20%,20%);fill-opacity:1;" d="M 12.1875 0.75 C 12.1875 0.855469 12.105469 0.9375 12 0.9375 C 11.894531 0.9375 11.8125 0.855469 11.8125 0.75 C 11.8125 0.644531 11.894531 0.5625 12 0.5625 C 12.105469 0.5625 12.1875 0.644531 12.1875 0.75 Z M 12.1875 0.75 "/>
</g>
<mask id="mask6">
  <g filter="url(#alpha)">
<rect x="0" y="0" width="24" height="24" style="fill:rgb(0%,0%,0%);fill-opacity:0.99;stroke:none;"/>
  </g>
</mask>
<clipPath id="clip7">
  <rect x="0" y="0" width="24" height="24"/>
</clipPath>
<g id="surface23" clip-path="url(#clip7)">
<path style=" stroke:none;fill-rule:nonzero;fill:rgb(20%,20%,20%);fill-opacity:1;" d="M 10.3125 1.5 C 10.3125 1.605469 10.230469 1.6875 10.125 1.6875 C 10.019531 1.6875 9.9375 1.605469 9.9375 1.5 C 9.9375 1.394531 10.019531 1.3125 10.125 1.3125 C 10.230469 1.3125 10.3125 1.394531 10.3125 1.5 Z M 10.3125 1.5 "/>
</g>
<mask id="mask7">
  <g filter="url(#alpha)">
<rect x="0" y="0" width="24" height="24" style="fill:rgb(0%,0%,0%);fill-opacity:0.99;stroke:none;"/>
  </g>
</mask>
<clipPath id="clip8">
  <rect x="0" y="0" width="24" height="24"/>
</clipPath>
<g id="surface26" clip-path="url(#clip8)">
<path style=" stroke:none;fill-rule:nonzero;fill:rgb(20%,20%,20%);fill-opacity:1;" d="M 11.15625 1.3125 L 12.84375 1.3125 C 12.894531 1.3125 12.9375 1.355469 12.9375 1.40625 C 12.9375 1.457031 12.894531 1.5 12.84375 1.5 L 11.15625 1.5 C 11.105469 1.5 11.0625 1.457031 11.0625 1.40625 C 11.0625 1.355469 11.105469 1.3125 11.15625 1.3125 Z M 11.15625 1.3125 "/>
</g>
<mask id="mask8">
  <g filter="url(#alpha)">
<rect x="0" y="0" width="24" height="24" style="fill:rgb(0%,0%,0%);fill-opacity:0.99;stroke:none;"/>
  </g>
</mask>
<clipPath id="clip9">
  <rect x="0" y="0" width="24" height="24"/>
</clipPath>
<g id="surface29" clip-path="url(#clip9)">
<path style=" stroke:none;fill-rule:nonzero;fill:rgb(40.000001%,40.000001%,40.000001%);fill-opacity:1;" d="M 12.9375 21.5625 C 12.9375 22.082031 12.519531 22.5 12 22.5 C 11.480469 22.5 11.0625 22.082031 11.0625 21.5625 C 11.0625 21.042969 11.480469 20.625 12 20.625 C 12.519531 20.625 12.9375 21.042969 12.9375 21.5625 Z M 12.9375 21.5625 "/>
</g>
<mask id="mask9">
  <g filter="url(#alpha)">
<rect x="0" y="0" width="24" height="24" style="fill:rgb(0%,0%,0%);fill-opacity:0.99;stroke:none;"/>
  </g>
</mask>
<clipPath id="clip10">
  <rect x="0" y="0" width="24" height="24"/>
</clipPath>
<g id="surface32" clip-path="url(#clip10)">
<path style=" stroke:none;fill-rule:nonzero;fill:rgb(100%,100%,100%);fill-opacity:1;" d="M 12.75 21.5625 C 12.75 21.976562 12.414062 22.3125 12 22.3125 C 11.585938 22.3125 11.25 21.976562 11.25 21.5625 C 11.25 21.148438 11.585938 20.8125 12 20.8125 C 12.414062 20.8125 12.75 21.148438 12.75 21.5625 Z M 12.75 21.5625 "/>
</g>
</defs>
<g id="surface1">
<use xlink:href="#surface5" mask="url(#mask0)"/>
<path style=" stroke:none;fill-rule:nonzero;fill:rgb(60.000002%,60.000002%,60.000002%);fill-opacity:1;" d="M 17.53125 4.875 L 17.71875 4.875 C 17.769531 4.875 17.8125 4.917969 17.8125 4.96875 L 17.8125 6.46875 C 17.8125 6.519531 17.769531 6.5625 17.71875 6.5625 L 17.53125 6.5625 C 17.480469 6.5625 17.4375 6.519531 17.4375 6.46875 L 17.4375 4.96875 C 17.4375 4.917969 17.480469 4.875 17.53125 4.875 Z M 17.53125 4.875 "/>
<path style=" stroke:none;fill-rule:nonzero;fill:rgb(60.000002%,60.000002%,60.000002%);fill-opacity:1;" d="M 6.28125 3 L 6.46875 3 C 6.519531 3 6.5625 3.023438 6.5625 3.050781 L 6.5625 3.886719 C 6.5625 3.914062 6.519531 3.9375 6.46875 3.9375 L 6.28125 3.9375 C 6.230469 3.9375 6.1875 3.914062 6.1875 3.886719 L 6.1875 3.050781 C 6.1875 3.023438 6.230469 3 6.28125 3 Z M 6.28125 3 "/>
<path style=" stroke:none;fill-rule:nonzero;fill:rgb(60.000002%,60.000002%,60.000002%);fill-opacity:1;" d="M 6.28125 4.875 L 6.46875 4.875 C 6.519531 4.875 6.5625 4.917969 6.5625 4.96875 L 6.5625 6.46875 C 6.5625 6.519531 6.519531 6.5625 6.46875 6.5625 L 6.28125 6.5625 C 6.230469 6.5625 6.1875 6.519531 6.1875 6.46875 L 6.1875 4.96875 C 6.1875 4.917969 6.230469 4.875 6.28125 4.875 Z M 6.28125 4.875 "/>
<path style=" stroke:none;fill-rule:nonzero;fill:rgb(60.000002%,60.000002%,60.000002%);fill-opacity:1;" d="M 6.28125 6.9375 L 6.46875 6.9375 C 6.519531 6.9375 6.5625 6.980469 6.5625 7.03125 L 6.5625 8.53125 C 6.5625 8.582031 6.519531 8.625 6.46875 8.625 L 6.28125 8.625 C 6.230469 8.625 6.1875 8.582031 6.1875 8.53125 L 6.1875 7.03125 C 6.1875 6.980469 6.230469 6.9375 6.28125 6.9375 Z M 6.28125 6.9375 "/>
<use xlink:href="#surface8" mask="url(#mask1)"/>
<use xlink:href="#surface11" mask="url(#mask2)"/>
<use xlink:href="#surface14" mask="url(#mask3)"/>
<use xlink:href="#surface17" mask="url(#mask4)"/>
<use xlink:href="#surface20" mask="url(#mask5)"/>
<use xlink:href="#surface23" mask="url(#mask6)"/>
<use xlink:href="#surface26" mask="url(#mask7)"/>
<use xlink:href="#surface29" mask="url(#mask8)"/>
<use xlink:href="#surface32" mask="url(#mask9)"/>
</g>
</svg>
