
<svg xmlns="http://www.w3.org/2000/svg" xmlns:xlink="http://www.w3.org/1999/xlink" width="24px" height="24px" viewBox="0 0 24 24" version="1.1">
<defs>
<linearGradient id="linear0" gradientUnits="userSpaceOnUse" x1="-23.584999" y1="124.839996" x2="28.500999" y2="170.240005" gradientTransform="matrix(0.187998,0,0,0.188152,9.015538,-21.053917)">
<stop offset="0" style="stop-color:rgb(20%,20%,20%);stop-opacity:1;"/>
<stop offset="1" style="stop-color:rgb(10.196079%,10.196079%,10.196079%);stop-opacity:1;"/>
</linearGradient>
<radialGradient id="radial0" gradientUnits="userSpaceOnUse" cx="-74.103996" cy="276.040009" fx="-74.103996" fy="276.040009" r="5.6027" gradientTransform="matrix(0.105649,-0.109029,0.115855,0.11245,-12.110633,-15.668526)">
<stop offset="0" style="stop-color:rgb(41.568628%,41.568628%,41.568628%);stop-opacity:1;"/>
<stop offset="1" style="stop-color:rgb(5.098039%,5.098039%,5.098039%);stop-opacity:1;"/>
</radialGradient>
</defs>
<g id="surface1">
<path style=" stroke:none;fill-rule:nonzero;fill:rgb(14.901961%,14.901961%,14.901961%);fill-opacity:0.99653;" d="M 18.980469 -0.0078125 L 20.007812 -0.0078125 L 20.007812 0.144531 L 18.980469 0.144531 Z M 18.980469 -0.0078125 "/>
<path style=" stroke:none;fill-rule:nonzero;fill:rgb(14.901961%,14.901961%,14.901961%);fill-opacity:1;" d="M 21.136719 3.230469 L 21.460938 3.230469 L 21.460938 3.566406 L 21.136719 3.566406 Z M 21.136719 3.230469 "/>
<path style=" stroke:none;fill-rule:nonzero;fill:rgb(14.901961%,14.901961%,14.901961%);fill-opacity:1;" d="M 21.214844 4.359375 L 21.382812 4.359375 C 21.425781 4.359375 21.460938 4.394531 21.460938 4.4375 L 21.460938 5.039062 C 21.460938 5.082031 21.425781 5.113281 21.382812 5.113281 L 21.214844 5.113281 C 21.171875 5.113281 21.136719 5.082031 21.136719 5.039062 L 21.136719 4.4375 C 21.136719 4.394531 21.171875 4.359375 21.214844 4.359375 Z M 21.214844 4.359375 "/>
<path style=" stroke:none;fill-rule:nonzero;fill:rgb(14.901961%,14.901961%,14.901961%);fill-opacity:1;" d="M 21.214844 5.582031 L 21.382812 5.582031 C 21.425781 5.582031 21.460938 5.617188 21.460938 5.660156 L 21.460938 6.261719 C 21.460938 6.304688 21.425781 6.339844 21.382812 6.339844 L 21.214844 6.339844 C 21.171875 6.339844 21.136719 6.304688 21.136719 6.261719 L 21.136719 5.660156 C 21.136719 5.617188 21.171875 5.582031 21.214844 5.582031 Z M 21.214844 5.582031 "/>
<path style="fill-rule:nonzero;fill:rgb(69.803923%,69.803923%,69.803923%);fill-opacity:0.98333;stroke-width:0.1005;stroke-linecap:round;stroke-linejoin:round;stroke:rgb(50.196081%,50.196081%,50.196081%);stroke-opacity:1;stroke-miterlimit:4;" d="M 5.898024 263.680877 L 27.96987 263.680877 C 28.765818 263.680877 29.409908 264.324441 29.409908 265.119739 L 29.409908 293.949299 C 29.409908 294.744597 28.765818 295.38816 27.96987 295.38816 L 5.898024 295.38816 C 5.102077 295.38816 4.457987 294.744597 4.457987 293.949299 L 4.457987 265.119739 C 4.457987 264.324441 5.102077 263.680877 5.898024 263.680877 Z M 5.898024 263.680877 " transform="matrix(0.745966,0,0,0.746575,-0.638006,-196.685761)"/>
<path style=" stroke:none;fill-rule:nonzero;fill:rgb(0%,0%,0%);fill-opacity:1;" d="M 3.925781 0.410156 L 20.058594 0.410156 C 20.640625 0.410156 21.109375 0.882812 21.109375 1.460938 L 21.109375 22.554688 C 21.109375 23.136719 20.640625 23.605469 20.058594 23.605469 L 3.925781 23.605469 C 3.347656 23.605469 2.875 23.136719 2.875 22.554688 L 2.875 1.460938 C 2.875 0.882812 3.347656 0.410156 3.925781 0.410156 Z M 3.925781 0.410156 "/>
<path style=" stroke:none;fill-rule:nonzero;fill:url(#linear0);" d="M 4.582031 2.433594 L 19.40625 2.433594 L 19.40625 21.582031 L 4.582031 21.582031 Z M 4.582031 2.433594 "/>
<path style=" stroke:none;fill-rule:nonzero;fill:url(#radial0);" d="M 12.542969 22.695312 C 12.542969 23 12.296875 23.246094 11.992188 23.246094 C 11.6875 23.246094 11.441406 23 11.441406 22.695312 C 11.441406 22.390625 11.6875 22.144531 11.992188 22.144531 C 12.296875 22.144531 12.542969 22.390625 12.542969 22.695312 Z M 12.542969 22.695312 "/>
<path style="fill-rule:nonzero;fill:rgb(10.196079%,10.196079%,10.196079%);fill-opacity:0.98333;stroke-width:0.98113;stroke-linecap:round;stroke-linejoin:round;stroke:rgb(70.588237%,70.588237%,70.980394%);stroke-opacity:1;stroke-miterlimit:4;" d="M 369.749297 196.849934 L 371.928944 196.849934 C 372.422449 196.849934 372.792578 197.219761 372.792578 197.712863 L 372.792578 199.520904 C 372.792578 199.972914 372.422449 200.383833 371.928944 200.383833 L 369.749297 200.383833 C 369.255792 200.383833 368.885663 199.972914 368.885663 199.520904 L 368.885663 197.712863 C 368.885663 197.219761 369.255792 196.849934 369.749297 196.849934 Z M 369.749297 196.849934 " transform="matrix(0.0949838,0,0,0.0950614,-23.229583,3.814506)"/>
</g>
</svg>
