
<svg xmlns="http://www.w3.org/2000/svg" xmlns:xlink="http://www.w3.org/1999/xlink" width="24" height="24" viewBox="0 0 24 24" version="1.1">
<defs>
<filter id="alpha" filterUnits="objectBoundingBox" x="0%" y="0%" width="100%" height="100%">
  <feColorMatrix type="matrix" in="SourceGraphic" values="0 0 0 0 1 0 0 0 0 1 0 0 0 0 1 0 0 0 1 0"/>
</filter>
<mask id="mask0">
  <g filter="url(#alpha)">
<rect x="0" y="0" width="24" height="24" style="fill:rgb(0%,0%,0%);fill-opacity:0.7;stroke:none;"/>
  </g>
</mask>
<mask id="mask1">
  <g filter="url(#alpha)">
<rect x="0" y="0" width="24" height="24" style="fill:rgb(0%,0%,0%);fill-opacity:0.3;stroke:none;"/>
  </g>
</mask>
<clipPath id="clip2">
  <rect x="0" y="0" width="24" height="24"/>
</clipPath>
<g id="surface6" clip-path="url(#clip2)">
<path style="fill:none;stroke-width:1;stroke-linecap:round;stroke-linejoin:round;stroke:rgb(100%,100%,100%);stroke-opacity:1;stroke-miterlimit:4;" d="M 32.984978 17.500012 L 42.015576 17.500012 C 42.282104 17.500012 42.501598 17.719506 42.501598 17.986034 L 42.501598 27.011406 C 42.501598 27.28316 42.282104 27.497428 42.015576 27.497428 L 32.984978 27.497428 C 32.71845 27.497428 32.498956 27.28316 32.498956 27.011406 L 32.498956 17.986034 C 32.498956 17.719506 32.71845 17.500012 32.984978 17.500012 Z M 32.984978 17.500012 " transform="matrix(0.747459,0,0,0.747459,-9.94788,1.41165)"/>
</g>
<clipPath id="clip1">
  <rect x="0" y="0" width="24" height="24"/>
</clipPath>
<g id="surface8" clip-path="url(#clip1)">
<path style="fill-rule:nonzero;fill:rgb(93.725491%,16.078432%,16.078432%);fill-opacity:1;stroke-width:0.99649;stroke-linecap:round;stroke-linejoin:round;stroke:rgb(80.000001%,0%,0%);stroke-opacity:1;stroke-miterlimit:4;" d="M 32.984978 16.496612 L 42.015576 16.496612 C 42.836065 16.496612 43.499772 17.165545 43.499772 17.986034 L 43.499772 27.016632 C 43.499772 27.83712 42.836065 28.500828 42.015576 28.500828 L 32.984978 28.500828 C 32.16449 28.500828 31.500783 27.83712 31.500783 27.016632 L 31.500783 17.986034 C 31.500783 17.165545 32.16449 16.496612 32.984978 16.496612 Z M 32.984978 16.496612 " transform="matrix(0.747459,0,0,0.747459,-9.94788,1.41165)"/>
<use xlink:href="#surface6" mask="url(#mask1)"/>
<path style="fill:none;stroke-width:1.5;stroke-linecap:round;stroke-linejoin:miter;stroke:rgb(100%,100%,100%);stroke-opacity:1;stroke-miterlimit:4;" d="M 35.00223 19.998059 L 39.998325 24.99938 " transform="matrix(0.747459,0,0,0.747459,-9.94788,1.41165)"/>
<path style="fill:none;stroke-width:1.5;stroke-linecap:round;stroke-linejoin:miter;stroke:rgb(100%,100%,100%);stroke-opacity:1;stroke-miterlimit:4;" d="M 39.998325 19.998059 L 35.00223 24.99938 " transform="matrix(0.747459,0,0,0.747459,-9.94788,1.41165)"/>
</g>
</defs>
<g id="surface1">
<use xlink:href="#surface8" mask="url(#mask0)"/>
</g>
</svg>
