
<svg xmlns="http://www.w3.org/2000/svg" xmlns:xlink="http://www.w3.org/1999/xlink" width="24" height="24" viewBox="0 0 24 24" version="1.1">
<defs>
<filter id="alpha" filterUnits="objectBoundingBox" x="0%" y="0%" width="100%" height="100%">
  <feColorMatrix type="matrix" in="SourceGraphic" values="0 0 0 0 1 0 0 0 0 1 0 0 0 0 1 0 0 0 1 0"/>
</filter>
<mask id="mask0">
  <g filter="url(#alpha)">
<rect x="0" y="0" width="24" height="24" style="fill:rgb(0%,0%,0%);fill-opacity:0.162896;stroke:none;"/>
  </g>
</mask>
<radialGradient id="radial0" gradientUnits="userSpaceOnUse" cx="20" cy="46" fx="20" fy="46" r="8" gradientTransform="matrix(0.59375,0,0,0.21875,4.875,11.4375)">
<stop offset="0" style="stop-color:rgb(0%,0%,0%);stop-opacity:1;"/>
<stop offset="1" style="stop-color:rgb(0%,0%,0%);stop-opacity:0;"/>
</radialGradient>
<clipPath id="clip1">
  <rect x="0" y="0" width="24" height="24"/>
</clipPath>
<g id="surface5" clip-path="url(#clip1)">
<path style=" stroke:none;fill-rule:evenodd;fill:url(#radial0);" d="M 21.5 21.5 C 21.5 22.464844 19.375 23.25 16.75 23.25 C 14.125 23.25 12 22.464844 12 21.5 C 12 20.535156 14.125 19.75 16.75 19.75 C 19.375 19.75 21.5 20.535156 21.5 21.5 Z M 21.5 21.5 "/>
</g>
<mask id="mask1">
  <g filter="url(#alpha)">
<rect x="0" y="0" width="24" height="24" style="fill:rgb(0%,0%,0%);fill-opacity:0.162896;stroke:none;"/>
  </g>
</mask>
<radialGradient id="radial1" gradientUnits="userSpaceOnUse" cx="20" cy="46" fx="20" fy="46" r="8" gradientTransform="matrix(0.625,0,0,0.21875,-4,11.4375)">
<stop offset="0" style="stop-color:rgb(0%,0%,0%);stop-opacity:1;"/>
<stop offset="1" style="stop-color:rgb(0%,0%,0%);stop-opacity:0;"/>
</radialGradient>
<clipPath id="clip2">
  <rect x="0" y="0" width="24" height="24"/>
</clipPath>
<g id="surface8" clip-path="url(#clip2)">
<path style=" stroke:none;fill-rule:evenodd;fill:url(#radial1);" d="M 13.5 21.5 C 13.5 22.464844 11.261719 23.25 8.5 23.25 C 5.738281 23.25 3.5 22.464844 3.5 21.5 C 3.5 20.535156 5.738281 19.75 8.5 19.75 C 11.261719 19.75 13.5 20.535156 13.5 21.5 Z M 13.5 21.5 "/>
</g>
<radialGradient id="radial2" gradientUnits="userSpaceOnUse" cx="17.812502" cy="14.729167" fx="17.812502" fy="14.729167" r="9.500001" gradientTransform="matrix(1,0,0,0.631579,0,2.947369)">
<stop offset="0" style="stop-color:rgb(93.333334%,93.333334%,92.54902%);stop-opacity:1;"/>
<stop offset="1" style="stop-color:rgb(93.333334%,93.333334%,92.54902%);stop-opacity:1;"/>
</radialGradient>
<radialGradient id="radial3" gradientUnits="userSpaceOnUse" cx="11.15625" cy="2.0625" fx="11.15625" fy="2.0625" r="0.90625" gradientTransform="matrix(0.551724,0,0,0.551724,1.318401,4.20003)">
<stop offset="0" style="stop-color:rgb(100%,100%,100%);stop-opacity:1;"/>
<stop offset="1" style="stop-color:rgb(100%,100%,100%);stop-opacity:0;"/>
</radialGradient>
<linearGradient id="linear0" gradientUnits="userSpaceOnUse" x1="13.819278" y1="30.029789" x2="36.227631" y2="45.194965" gradientTransform="matrix(0.000000000000000028,0.673693,-0.676136,0.000000000000000028,37.102268,14.81577)">
<stop offset="0" style="stop-color:rgb(72.941178%,74.117649%,71.372551%);stop-opacity:1;"/>
<stop offset="1" style="stop-color:rgb(93.333334%,93.333334%,92.54902%);stop-opacity:1;"/>
</linearGradient>
<mask id="mask2">
  <g filter="url(#alpha)">
<rect x="0" y="0" width="24" height="24" style="fill:rgb(0%,0%,0%);fill-opacity:0.3;stroke:none;"/>
  </g>
</mask>
<linearGradient id="linear1" gradientUnits="userSpaceOnUse" x1="17" y1="45.248375" x2="17" y2="30.759407" gradientTransform="matrix(-0.102362,0.382018,-0.413274,-0.110737,27.629439,7.522679)">
<stop offset="0" style="stop-color:rgb(0%,0%,0%);stop-opacity:1;"/>
<stop offset="1" style="stop-color:rgb(53.333336%,54.11765%,52.156866%);stop-opacity:0;"/>
</linearGradient>
<clipPath id="clip3">
  <rect x="0" y="0" width="24" height="24"/>
</clipPath>
<g id="surface11" clip-path="url(#clip3)">
<path style=" stroke:none;fill-rule:evenodd;fill:url(#linear1);" d="M 15.140625 9.5 L 8.527344 7.726562 C 8.074219 9.414062 9.191406 11.179688 11.015625 11.667969 C 12.839844 12.160156 14.6875 11.1875 15.140625 9.5 Z M 15.140625 9.5 "/>
</g>
<mask id="mask3">
  <g filter="url(#alpha)">
<rect x="0" y="0" width="24" height="24" style="fill:rgb(0%,0%,0%);fill-opacity:0.6;stroke:none;"/>
  </g>
</mask>
<linearGradient id="linear2" gradientUnits="userSpaceOnUse" x1="15.406166" y1="37.34367" x2="16.864777" y2="24.249567" gradientTransform="matrix(-0.110336,0.411781,-0.413274,-0.110737,27.802918,6.875246)">
<stop offset="0" style="stop-color:rgb(100%,100%,100%);stop-opacity:1;"/>
<stop offset="1" style="stop-color:rgb(100%,100%,100%);stop-opacity:0;"/>
</linearGradient>
<clipPath id="clip4">
  <rect x="0" y="0" width="24" height="24"/>
</clipPath>
<g id="surface14" clip-path="url(#clip4)">
<path style=" stroke:none;fill-rule:evenodd;fill:url(#linear2);" d="M 12.859375 4.710938 C 12.726562 4.679688 12.566406 4.65625 12.429688 4.636719 C 11.839844 4.558594 11.269531 4.628906 10.726562 4.796875 C 10.730469 5.210938 10.796875 5.574219 10.902344 5.90625 C 11.195312 5.121094 12.042969 4.675781 12.871094 4.898438 C 13.75 5.132812 14.265625 6.03125 14.03125 6.910156 C 13.796875 7.785156 12.898438 8.304688 12.019531 8.070312 C 11.972656 8.058594 11.933594 8.03125 11.890625 8.015625 C 12.332031 8.964844 12.644531 10.144531 12.289062 12.113281 C 13.824219 11.929688 15.136719 10.960938 15.574219 9.328125 C 15.945312 7.722656 15.386719 6.257812 14.050781 5.234375 C 13.671875 4.984375 13.269531 4.8125 12.859375 4.710938 Z M 11.269531 15.464844 C 10.671875 16.996094 9.804688 18.832031 8.574219 21.085938 L 9.28125 21.277344 L 9.894531 20.582031 Z M 11.269531 15.464844 "/>
</g>
<mask id="mask4">
  <g filter="url(#alpha)">
<rect x="0" y="0" width="24" height="24" style="fill:rgb(0%,0%,0%);fill-opacity:0.615385;stroke:none;"/>
  </g>
</mask>
<linearGradient id="linear3" gradientUnits="userSpaceOnUse" x1="33.120464" y1="20.5" x2="22.328388" y2="20.5" gradientTransform="matrix(-0.119112,0.444531,-0.611229,-0.163778,26.838941,4.950969)">
<stop offset="0" style="stop-color:rgb(53.333336%,54.11765%,52.156866%);stop-opacity:1;"/>
<stop offset="1" style="stop-color:rgb(53.333336%,54.11765%,52.156866%);stop-opacity:0;"/>
</linearGradient>
<clipPath id="clip5">
  <rect x="0" y="0" width="24" height="24"/>
</clipPath>
<g id="surface17" clip-path="url(#clip5)">
<path style=" stroke:none;fill-rule:evenodd;fill:url(#linear3);" d="M 11.875 11.898438 L 9.203125 21.871094 L 8.601562 21.710938 L 11.273438 11.738281 Z M 11.875 11.898438 "/>
</g>
<mask id="mask5">
  <g filter="url(#alpha)">
<rect x="0" y="0" width="24" height="24" style="fill:rgb(0%,0%,0%);fill-opacity:0.15;stroke:none;"/>
  </g>
</mask>
<clipPath id="clip6">
  <rect x="0" y="0" width="24" height="24"/>
</clipPath>
<g id="surface20" clip-path="url(#clip6)">
<path style="fill-rule:evenodd;fill:rgb(0%,0%,0%);fill-opacity:1;stroke-width:1;stroke-linecap:round;stroke-linejoin:miter;stroke:rgb(0%,0%,0%);stroke-opacity:1;stroke-miterlimit:4;" d="M 25.6875 8.875 C 25.101562 8.914062 24.507812 8.992188 23.90625 9.15625 C 19.117188 10.4375 16.25 15.351562 17.53125 20.125 C 18.453125 23.570312 21.234375 26.085938 24.53125 26.6875 L 24.71875 27.4375 L 25.25 25.5 C 28.523438 24.875 31.367188 22.296875 32.28125 18.875 C 33.296875 15.078125 31.835938 11.289062 28.78125 9.25 C 27.804688 8.945312 26.765625 8.804688 25.6875 8.875 Z M 24.84375 10.375 C 25.007812 10.382812 25.171875 10.421875 25.34375 10.46875 C 26.421875 10.757812 27.148438 11.695312 27.21875 12.75 C 27.351562 12.960938 27.460938 13.1875 27.53125 13.4375 C 27.890625 14.789062 27.101562 16.171875 25.75 16.53125 C 24.398438 16.890625 23.015625 16.101562 22.65625 14.75 C 22.617188 14.59375 22.570312 14.4375 22.5625 14.28125 C 22.554688 14.273438 22.570312 14.257812 22.5625 14.25 C 22.203125 13.671875 22.0625 12.953125 22.25 12.25 C 22.570312 11.070312 23.671875 10.304688 24.84375 10.375 Z M 24.84375 10.375 " transform="matrix(0.5,0,0,0.5,0,0)"/>
</g>
<linearGradient id="linear4" gradientUnits="userSpaceOnUse" x1="6.718858" y1="22.936218" x2="44.344444" y2="42.604996" gradientTransform="matrix(-0.000000000000000028,0.673693,-0.676136,-0.000000000000000028,37.102268,14.81577)">
<stop offset="0" style="stop-color:rgb(72.941178%,74.117649%,71.372551%);stop-opacity:1;"/>
<stop offset="0.487345" style="stop-color:rgb(100%,100%,100%);stop-opacity:1;"/>
<stop offset="1" style="stop-color:rgb(82.745099%,84.313726%,81.176472%);stop-opacity:1;"/>
</linearGradient>
<mask id="mask6">
  <g filter="url(#alpha)">
<rect x="0" y="0" width="24" height="24" style="fill:rgb(0%,0%,0%);fill-opacity:0.3;stroke:none;"/>
  </g>
</mask>
<linearGradient id="linear5" gradientUnits="userSpaceOnUse" x1="17" y1="45.248375" x2="17" y2="30.759407" gradientTransform="matrix(0.102362,0.382018,-0.413274,0.110737,26.310383,-0.17536)">
<stop offset="0" style="stop-color:rgb(0%,0%,0%);stop-opacity:1;"/>
<stop offset="1" style="stop-color:rgb(53.333336%,54.11765%,52.156866%);stop-opacity:0;"/>
</linearGradient>
<clipPath id="clip7">
  <rect x="0" y="0" width="24" height="24"/>
</clipPath>
<g id="surface23" clip-path="url(#clip7)">
<path style=" stroke:none;fill-rule:evenodd;fill:url(#linear5);" d="M 16.484375 7.78125 L 9.871094 9.550781 C 10.324219 11.238281 12.171875 12.210938 13.996094 11.722656 C 15.820312 11.234375 16.933594 9.46875 16.484375 7.78125 Z M 16.484375 7.78125 "/>
</g>
<mask id="mask7">
  <g filter="url(#alpha)">
<rect x="0" y="0" width="24" height="24" style="fill:rgb(0%,0%,0%);fill-opacity:0.6;stroke:none;"/>
  </g>
</mask>
<linearGradient id="linear6" gradientUnits="userSpaceOnUse" x1="15.406166" y1="37.34367" x2="16.864777" y2="24.249567" gradientTransform="matrix(0.110336,0.411781,-0.413274,0.110737,26.136904,-0.822792)">
<stop offset="0" style="stop-color:rgb(100%,100%,100%);stop-opacity:1;"/>
<stop offset="1" style="stop-color:rgb(100%,100%,100%);stop-opacity:0;"/>
</linearGradient>
<clipPath id="clip8">
  <rect x="0" y="0" width="24" height="24"/>
</clipPath>
<g id="surface26" clip-path="url(#clip8)">
<path style=" stroke:none;fill-rule:evenodd;fill:url(#linear6);" d="M 12.113281 4.773438 C 11.980469 4.8125 11.832031 4.871094 11.703125 4.925781 C 11.152344 5.152344 10.691406 5.5 10.308594 5.914062 C 10.519531 6.273438 10.757812 6.550781 11.015625 6.789062 C 10.875 5.960938 11.390625 5.152344 12.214844 4.933594 C 13.09375 4.695312 13.992188 5.214844 14.226562 6.09375 C 14.460938 6.96875 13.945312 7.867188 13.066406 8.101562 C 13.019531 8.113281 12.972656 8.113281 12.925781 8.121094 C 13.78125 8.722656 14.644531 9.585938 15.320312 11.46875 C 16.554688 10.542969 17.210938 9.046875 16.773438 7.417969 C 16.292969 5.839844 15.074219 4.851562 13.40625 4.632812 C 12.953125 4.605469 12.519531 4.65625 12.113281 4.773438 Z M 16.109375 14.882812 C 16.363281 16.507812 16.527344 18.53125 16.589844 21.101562 L 17.296875 20.910156 L 17.484375 20 Z M 16.109375 14.882812 "/>
</g>
<mask id="mask8">
  <g filter="url(#alpha)">
<rect x="0" y="0" width="24" height="24" style="fill:rgb(0%,0%,0%);fill-opacity:0.615385;stroke:none;"/>
  </g>
</mask>
<linearGradient id="linear7" gradientUnits="userSpaceOnUse" x1="33.120464" y1="20.5" x2="22.328388" y2="20.5" gradientTransform="matrix(0.119112,0.444531,-0.611229,0.163778,24.339935,-2.007277)">
<stop offset="0" style="stop-color:rgb(53.333336%,54.11765%,52.156866%);stop-opacity:1;"/>
<stop offset="1" style="stop-color:rgb(53.333336%,54.11765%,52.156866%);stop-opacity:0;"/>
</linearGradient>
<clipPath id="clip9">
  <rect x="0" y="0" width="24" height="24"/>
</clipPath>
<g id="surface29" clip-path="url(#clip9)">
<path style=" stroke:none;fill-rule:evenodd;fill:url(#linear7);" d="M 14.855469 11.492188 L 17.527344 21.460938 L 16.925781 21.625 L 14.253906 11.652344 Z M 14.855469 11.492188 "/>
</g>
<radialGradient id="radial4" gradientUnits="userSpaceOnUse" cx="23.681061" cy="5.341475" fx="23.681061" fy="5.341475" r="5.055244" gradientTransform="matrix(-1.592283,-0.190782,-1.180287,-1.434565,57.810345,15.557175)">
<stop offset="0" style="stop-color:rgb(93.333334%,93.333334%,92.54902%);stop-opacity:1;"/>
<stop offset="1" style="stop-color:rgb(72.941178%,74.117649%,71.372551%);stop-opacity:1;"/>
</radialGradient>
<radialGradient id="radial5" gradientUnits="userSpaceOnUse" cx="11.15625" cy="2.0625" fx="11.15625" fy="2.0625" r="0.90625" gradientTransform="matrix(0.795554,0,0,0.795554,-3.114352,-0.291393)">
<stop offset="0" style="stop-color:rgb(100%,100%,100%);stop-opacity:1;"/>
<stop offset="1" style="stop-color:rgb(100%,100%,100%);stop-opacity:0;"/>
</radialGradient>
<radialGradient id="radial6" gradientUnits="userSpaceOnUse" cx="24.090876" cy="5.052979" fx="24.090876" fy="5.052979" r="4.492152" gradientTransform="matrix(1.637213,-0.362993,2.15251,1.85009,-36.530182,2.08716)">
<stop offset="0" style="stop-color:rgb(100%,100%,100%);stop-opacity:1;"/>
<stop offset="1" style="stop-color:rgb(93.333334%,93.333334%,92.54902%);stop-opacity:1;"/>
</radialGradient>
<mask id="mask9">
  <g filter="url(#alpha)">
<rect x="0" y="0" width="24" height="24" style="fill:rgb(0%,0%,0%);fill-opacity:0.104072;stroke:none;"/>
  </g>
</mask>
<linearGradient id="linear8" gradientUnits="userSpaceOnUse" x1="20.722668" y1="16.830494" x2="22.697027" y2="15.894469" gradientTransform="matrix(1.130426,-0.235981,0.915432,0.637364,-15.020125,7.538008)">
<stop offset="0" style="stop-color:rgb(0%,0%,0%);stop-opacity:1;"/>
<stop offset="1" style="stop-color:rgb(0%,0%,0%);stop-opacity:0;"/>
</linearGradient>
<clipPath id="clip10">
  <rect x="0" y="0" width="24" height="24"/>
</clipPath>
<g id="surface32" clip-path="url(#clip10)">
<path style="fill:none;stroke-width:1;stroke-linecap:round;stroke-linejoin:miter;stroke:url(#linear8);stroke-miterlimit:4;" d="M 22.1875 7.914062 C 25.976562 10.90625 26.609375 13.375 23.609375 13.492188 " transform="matrix(0.5,0,0,0.5,0,0)"/>
</g>
</defs>
<g id="surface1">
<use xlink:href="#surface5" mask="url(#mask0)"/>
<use xlink:href="#surface8" mask="url(#mask1)"/>
<path style="fill:none;stroke-width:3;stroke-linecap:round;stroke-linejoin:miter;stroke:rgb(72.941178%,74.117649%,71.372551%);stroke-opacity:1;stroke-miterlimit:4;" d="M 24.28125 13.414062 C 21.789062 13.9375 16.273438 11.9375 11.976562 8.945312 C 7.679688 5.953125 6.226562 3.101562 8.71875 2.585938 " transform="matrix(0.5,0,0,0.5,0,0)"/>
<path style="fill:none;stroke-width:1;stroke-linecap:round;stroke-linejoin:miter;stroke:url(#radial2);stroke-miterlimit:4;" d="M 21.023438 7.054688 C 25.320312 10.046875 26.773438 12.898438 24.28125 13.414062 C 21.789062 13.9375 16.273438 11.9375 11.976562 8.945312 C 7.679688 5.953125 6.226562 3.101562 8.71875 2.585938 C 11.210938 2.0625 16.726562 4.0625 21.023438 7.054688 Z M 21.023438 7.054688 " transform="matrix(0.5,0,0,0.5,0,0)"/>
<path style=" stroke:none;fill-rule:evenodd;fill:url(#radial3);" d="M 7.972656 5.339844 C 7.972656 5.613281 7.75 5.839844 7.472656 5.839844 C 7.199219 5.839844 6.972656 5.613281 6.972656 5.339844 C 6.972656 5.0625 7.199219 4.839844 7.472656 4.839844 C 7.75 4.839844 7.972656 5.0625 7.972656 5.339844 Z M 7.972656 5.339844 "/>
<path style="fill-rule:evenodd;fill:url(#linear0);stroke-width:0.79015;stroke-linecap:round;stroke-linejoin:miter;stroke:rgb(53.333336%,54.11765%,52.156866%);stroke-opacity:1;stroke-miterlimit:4;" d="M 13.436896 16.497586 C 9.519735 16.499094 6.345964 19.656584 6.344277 23.56182 C 6.345264 26.379902 7.950334 28.864033 10.344299 29.999216 L 10.344109 31.501107 L 11.844211 32.997226 L 10.34213 34.498926 L 10.342536 35.502174 L 12.341877 36.500246 L 12.342283 37.503494 L 10.340557 38.499993 L 10.346926 39.501643 L 11.841066 40.99936 L 10.344947 42.499462 L 10.345353 43.50271 L 12.842145 45.498664 L 15.341321 45.500046 L 16.344759 43.99775 L 16.3459 30.001576 C 18.716457 28.855122 20.346117 26.303099 20.342362 23.49854 C 20.344049 19.593305 17.355655 16.502041 13.436896 16.497586 Z M 13.340278 18.498234 C 14.446918 18.502079 15.34387 19.392914 15.345988 20.497956 C 15.342143 21.604596 14.451308 22.501548 13.344668 22.497703 C 12.239626 22.499821 11.341076 21.603023 11.346519 20.502346 C 11.344401 19.397304 12.241199 18.498754 13.340278 18.498234 Z M 13.340278 18.498234 " transform="matrix(0.611229,0.163778,-0.163778,0.611229,7.551422,-8.257141)"/>
<use xlink:href="#surface11" mask="url(#mask2)"/>
<path style="fill:none;stroke-width:0.79015;stroke-linecap:round;stroke-linejoin:miter;stroke:rgb(100%,100%,100%);stroke-opacity:1;stroke-miterlimit:4;" d="M 13.436644 17.283723 C 9.93422 17.282746 7.124258 20.080731 7.124451 23.56367 C 7.123496 26.088294 8.566801 28.302621 10.684655 29.313673 C 10.948841 29.441 11.122532 29.707609 11.124473 30.001066 L 11.127448 31.157005 L 12.403819 32.438267 C 12.557481 32.582427 12.644812 32.789096 12.649834 32.998647 C 12.648894 33.209796 12.558085 33.419461 12.404767 33.562796 L 11.125102 34.845129 L 11.123734 35.030829 L 12.688195 35.813105 C 12.952382 35.940432 13.12011 36.208639 13.128014 36.500498 L 13.126822 37.497783 C 13.122801 37.792838 12.952138 38.062245 12.68627 38.191001 L 11.124072 38.967476 L 11.124302 39.159139 L 12.406636 40.438804 C 12.560298 40.582964 12.647628 40.789632 12.646688 41.000781 C 12.645748 41.21193 12.559304 41.414035 12.407584 41.563332 L 11.127919 42.845666 L 11.126666 43.127197 L 13.125526 44.719743 L 14.908948 44.721187 L 15.561902 43.747378 L 15.559763 30.001324 C 15.563784 29.706269 15.736045 29.442824 16.001913 29.314068 C 18.088714 28.301164 19.562403 26.00183 19.563785 23.502653 C 19.563165 19.994266 16.945031 17.283102 13.436644 17.283723 Z M 13.342128 17.71806 C 14.869467 17.717822 16.125924 18.972467 16.126162 20.499806 C 16.124802 22.021183 14.870158 23.27764 13.344416 23.28384 C 11.823039 23.28248 10.564984 22.021873 10.560382 20.502094 C 10.560144 18.974755 11.820751 17.7167 13.342128 17.71806 Z M 13.342128 17.71806 " transform="matrix(0.611229,0.163778,-0.163778,0.611229,7.551422,-8.257141)"/>
<use xlink:href="#surface14" mask="url(#mask3)"/>
<use xlink:href="#surface17" mask="url(#mask4)"/>
<use xlink:href="#surface20" mask="url(#mask5)"/>
<path style="fill-rule:evenodd;fill:url(#linear4);stroke-width:0.79015;stroke-linecap:round;stroke-linejoin:miter;stroke:rgb(53.333336%,54.11765%,52.156866%);stroke-opacity:1;stroke-miterlimit:4;" d="M 13.439313 16.499821 C 9.522152 16.498313 6.342408 19.65973 6.344095 23.564966 C 6.343108 26.383047 7.947006 28.86426 10.346207 29.999216 L 10.346397 31.501107 L 11.842516 33.001209 L 10.342413 34.497328 L 10.342007 35.500576 L 12.343733 36.497075 L 12.343327 37.500323 L 10.343986 38.498395 L 10.34358 39.501643 L 11.845662 41.003343 L 10.345559 42.499462 L 10.345153 43.50271 L 12.845116 45.501861 L 15.344292 45.500479 L 16.341387 43.997396 L 16.340247 30.001221 C 18.717922 28.855282 20.342164 26.299599 20.344321 23.501003 C 20.342633 19.595767 17.356474 16.501328 13.439313 16.499821 Z M 13.344268 18.500239 C 14.44931 18.502357 15.341743 19.393347 15.345588 20.499986 C 15.34347 21.605029 14.44492 22.501827 13.345841 22.501306 C 12.240799 22.499188 11.342403 21.606602 11.344521 20.501559 C 11.346639 19.396517 12.239226 18.498121 13.344268 18.500239 Z M 13.344268 18.500239 " transform="matrix(0.611229,-0.163778,0.163778,0.611229,1.0324,-3.802076)"/>
<use xlink:href="#surface23" mask="url(#mask6)"/>
<path style="fill:none;stroke-width:0.79015;stroke-linecap:round;stroke-linejoin:miter;stroke:rgb(100%,100%,100%);stroke-opacity:1;stroke-miterlimit:4;" d="M 13.4352 17.278397 C 9.938738 17.280972 7.124462 20.080178 7.124269 23.563116 C 7.125224 26.087741 8.562823 28.307106 10.690194 29.311708 C 10.950099 29.438867 11.120762 29.708274 11.126381 29.997366 L 11.123407 31.153306 L 12.409034 32.437237 C 12.560754 32.586534 12.647198 32.788639 12.648138 32.999788 C 12.649078 33.210936 12.561748 33.417605 12.408086 33.561765 L 11.125752 34.84143 L 11.125522 35.033093 L 12.68772 35.809568 C 12.953588 35.938324 13.118288 36.206134 13.122309 36.501188 L 13.123501 37.498473 C 13.12156 37.79193 12.953832 38.060137 12.689646 38.187464 L 11.125184 38.96974 L 11.126552 39.15544 L 12.406217 40.437773 C 12.559535 40.581108 12.644381 40.789176 12.645321 41.000324 C 12.646262 41.211473 12.558931 41.418142 12.405269 41.562301 L 11.122935 42.841966 L 11.124188 43.123498 L 13.124798 44.720433 L 14.90822 44.718989 L 15.563896 43.750723 L 15.56167 29.997108 C 15.569575 29.705249 15.735705 29.443005 16.001489 29.309716 C 18.092297 28.304198 19.559567 26.000431 19.564147 23.502853 C 19.564768 19.994466 16.949549 17.280615 13.4352 17.278397 Z M 13.342418 17.720065 C 14.869758 17.720303 16.124402 18.97676 16.125762 20.498137 C 16.125524 22.025476 14.869067 23.28012 13.341728 23.279883 C 11.820351 23.281243 10.559744 22.023188 10.564347 20.503409 C 10.564584 18.97607 11.821042 17.721425 13.342418 17.720065 Z M 13.342418 17.720065 " transform="matrix(0.611229,-0.163778,0.163778,0.611229,1.0324,-3.802076)"/>
<use xlink:href="#surface26" mask="url(#mask7)"/>
<use xlink:href="#surface29" mask="url(#mask8)"/>
<path style="fill:none;stroke-width:3;stroke-linecap:round;stroke-linejoin:miter;stroke:url(#radial4);stroke-miterlimit:4;" d="M 7.976562 5.140625 C 6.382812 2.546875 8.914062 1.726562 13.617188 3.296875 C 18.328125 4.875 23.4375 8.265625 25.023438 10.859375 C 25.8125 12.140625 25.671875 12.96875 24.585938 13.335938 " transform="matrix(0.5,0,0,0.5,0,0)"/>
<path style=" stroke:none;fill-rule:evenodd;fill:url(#radial5);" d="M 6.480469 1.347656 C 6.480469 1.746094 6.160156 2.070312 5.761719 2.070312 C 5.363281 2.070312 5.039062 1.746094 5.039062 1.347656 C 5.039062 0.953125 5.363281 0.628906 5.761719 0.628906 C 6.160156 0.628906 6.480469 0.953125 6.480469 1.347656 Z M 6.480469 1.347656 "/>
<path style="fill:none;stroke-width:1;stroke-linecap:round;stroke-linejoin:miter;stroke:url(#radial6);stroke-miterlimit:4;" d="M 10.8125 8.085938 C 6.960938 5.046875 6.382812 2.546875 9.523438 2.5 C 12.664062 2.453125 18.335938 4.882812 22.1875 7.914062 C 25.976562 10.90625 26.609375 13.375 23.609375 13.492188 " transform="matrix(0.5,0,0,0.5,0,0)"/>
<use xlink:href="#surface32" mask="url(#mask9)"/>
<path style=" stroke:none;fill-rule:evenodd;fill:rgb(100%,100%,100%);fill-opacity:1;" d="M 6.304688 1.359375 C 6.304688 1.636719 6.082031 1.859375 5.804688 1.859375 C 5.527344 1.859375 5.304688 1.636719 5.304688 1.359375 C 5.304688 1.085938 5.527344 0.859375 5.804688 0.859375 C 6.082031 0.859375 6.304688 1.085938 6.304688 1.359375 Z M 6.304688 1.359375 "/>
</g>
</svg>
