
<svg xmlns="http://www.w3.org/2000/svg" xmlns:xlink="http://www.w3.org/1999/xlink" width="24px" height="24px" viewBox="0 0 24 24" version="1.1">
<defs>
<linearGradient id="linear0" gradientUnits="userSpaceOnUse" x1="24" y1="22" x2="24" y2="13" gradientTransform="matrix(0.375,0,0,0.375,-0.375,0.75)">
<stop offset="0" style="stop-color:rgb(58.039218%,63.529414%,66.274512%);stop-opacity:1;"/>
<stop offset="1" style="stop-color:rgb(74.509805%,78.431374%,80.000001%);stop-opacity:1;"/>
</linearGradient>
<linearGradient id="linear1" gradientUnits="userSpaceOnUse" x1="54" y1="49" x2="54" y2="25" gradientTransform="matrix(0.375,0,0,0.375,0.000000196163,0.00000657225)">
<stop offset="0" style="stop-color:rgb(58.039218%,63.529414%,66.274512%);stop-opacity:1;"/>
<stop offset="1" style="stop-color:rgb(74.509805%,78.431374%,80.000001%);stop-opacity:1;"/>
</linearGradient>
<linearGradient id="linear2" gradientUnits="userSpaceOnUse" x1="399.070007" y1="592.659973" x2="399.070007" y2="500.799988" gradientTransform="matrix(0.291821,0,0,0.106136,-108.956245,-44.152499)">
<stop offset="0" style="stop-color:rgb(58.039218%,63.529414%,66.274512%);stop-opacity:1;"/>
<stop offset="1" style="stop-color:rgb(74.509805%,78.431374%,80.000001%);stop-opacity:1;"/>
</linearGradient>
<filter id="alpha" filterUnits="objectBoundingBox" x="0%" y="0%" width="100%" height="100%">
  <feColorMatrix type="matrix" in="SourceGraphic" values="0 0 0 0 1 0 0 0 0 1 0 0 0 0 1 0 0 0 1 0"/>
</filter>
<mask id="mask0">
  <g filter="url(#alpha)">
<rect x="0" y="0" width="24" height="24" style="fill:rgb(0%,0%,0%);fill-opacity:0.2;stroke:none;"/>
  </g>
</mask>
<linearGradient id="linear3" gradientUnits="userSpaceOnUse" x1="28" y1="30" x2="38" y2="40" gradientTransform="matrix(0.375,0,0,0.375,0,0)">
<stop offset="0" style="stop-color:rgb(16.078432%,17.254902%,18.431373%);stop-opacity:1;"/>
<stop offset="1" style="stop-color:rgb(16.078432%,17.254902%,18.431373%);stop-opacity:0.26531;"/>
</linearGradient>
<clipPath id="clip1">
  <rect x="0" y="0" width="24" height="24"/>
</clipPath>
<g id="surface5" clip-path="url(#clip1)">
<path style=" stroke:none;fill-rule:nonzero;fill:url(#linear3);" d="M 10.390625 10.984375 L 2.734375 16.765625 L 4.34375 18.375 L 14.25 18.375 C 14.875 18.375 15.375 17.875 15.375 17.25 L 15.375 15.21875 L 11.890625 11.734375 L 11.515625 12.109375 Z M 10.390625 10.984375 "/>
</g>
<linearGradient id="linear4" gradientUnits="userSpaceOnUse" x1="50.5" y1="23" x2="50.5" y2="41" gradientTransform="matrix(-0.15,0,0,-0.291667,24.074999,23.208375)">
<stop offset="0" style="stop-color:rgb(18.431373%,22.352941%,26.274511%);stop-opacity:1;"/>
<stop offset="1" style="stop-color:rgb(30.19608%,33.725491%,38.431373%);stop-opacity:1;"/>
</linearGradient>
<linearGradient id="linear5" gradientUnits="userSpaceOnUse" x1="0" y1="557.799988" x2="0" y2="505.799988" gradientTransform="matrix(0.174251,0,0,0.181035,-65.872501,-84.48)">
<stop offset="0" style="stop-color:rgb(9.803922%,48.627451%,94.509804%);stop-opacity:1;"/>
<stop offset="1" style="stop-color:rgb(12.54902%,73.725492%,98.039216%);stop-opacity:1;"/>
</linearGradient>
<linearGradient id="linear6" gradientUnits="userSpaceOnUse" x1="44" y1="19" x2="44" y2="11" gradientTransform="matrix(0.375,0,0,0.375,0.75,0.75)">
<stop offset="0" style="stop-color:rgb(18.431373%,22.352941%,26.274511%);stop-opacity:1;"/>
<stop offset="1" style="stop-color:rgb(32.549021%,36.470589%,41.568628%);stop-opacity:1;"/>
</linearGradient>
<mask id="mask1">
  <g filter="url(#alpha)">
<rect x="0" y="0" width="24" height="24" style="fill:rgb(0%,0%,0%);fill-opacity:0.4;stroke:none;"/>
  </g>
</mask>
<clipPath id="clip2">
  <rect x="0" y="0" width="24" height="24"/>
</clipPath>
<g id="surface8" clip-path="url(#clip2)">
<path style=" stroke:none;fill-rule:nonzero;fill:rgb(16.078432%,17.254902%,18.431373%);fill-opacity:1;" d="M 1.125 17.25 L 1.125 17.625 C 1.125 18.25 1.625 18.75 2.25 18.75 L 14.25 18.75 C 14.875 18.75 15.375 18.25 15.375 17.625 L 15.375 17.25 C 15.375 17.875 14.875 18.375 14.25 18.375 L 2.25 18.375 C 1.625 18.375 1.125 17.875 1.125 17.25 Z M 1.125 17.25 "/>
</g>
</defs>
<g id="surface1">
<path style=" stroke:none;fill-rule:nonzero;fill:url(#linear0);" d="M 6.375 5.625 L 3 9 L 5.25 9 L 7.125 7.125 L 10.875 7.125 L 12 9 L 13.875 9 L 12.75 7.125 L 13.5 7.125 L 13.5 5.625 Z M 6.375 5.625 "/>
<path style=" stroke:none;fill-rule:nonzero;fill:url(#linear1);" d="M 21.75 9.375 L 16.5 11.242188 L 16.5 16.492188 L 21.75 18.375 L 22.875 18.367188 L 22.875 9.367188 Z M 21.75 9.375 "/>
<path style=" stroke:none;fill-rule:nonzero;fill:rgb(100%,0%,0%);fill-opacity:0.96684;" d="M 12 12 C 12 12.207031 11.832031 12.375 11.625 12.375 C 11.417969 12.375 11.25 12.207031 11.25 12 C 11.25 11.792969 11.417969 11.625 11.625 11.625 C 11.832031 11.625 12 11.792969 12 12 Z M 12 12 "/>
<path style=" stroke:none;fill-rule:nonzero;fill:url(#linear2);" d="M 2.25 9 C 1.625 9 1.125 9.5 1.125 10.125 L 1.125 17.625 C 1.125 18.25 1.625 18.75 2.25 18.75 L 14.25 18.75 C 14.875 18.75 15.375 18.25 15.375 17.625 L 15.375 10.125 C 15.375 9.5 14.875 9 14.25 9 Z M 2.25 9 "/>
<use xlink:href="#surface5" mask="url(#mask0)"/>
<path style=" stroke:none;fill-rule:nonzero;fill:url(#linear4);" d="M 16.5 16.5 L 16.5 11.25 L 15.375 11.25 L 15.375 16.5 Z M 16.5 16.5 "/>
<path style=" stroke:none;fill-rule:nonzero;fill:url(#linear5);" d="M 3 11.25 L 3 16.5 L 10.125 16.5 L 10.125 11.25 Z M 3 11.25 "/>
<path style=" stroke:none;fill-rule:nonzero;fill:url(#linear6);" d="M 13.5 7.125 C 13.5 8.25 20.25 7.824219 21.375 7.125 C 21.75 6.875 21.75 6.585938 21.75 6.375 C 21.75 6.164062 21.75 5.875 21.375 5.625 C 20.25 4.875 13.5 4.5 13.5 5.625 Z M 13.5 7.125 "/>
<path style=" stroke:none;fill-rule:nonzero;fill:rgb(19.215687%,21.176471%,23.137255%);fill-opacity:1;" d="M 3 10.875 C 2.792969 10.875 2.625 11.042969 2.625 11.25 L 2.625 16.5 C 2.625 16.707031 2.792969 16.875 3 16.875 L 10.125 16.875 C 10.332031 16.875 10.5 16.707031 10.5 16.5 L 10.5 11.25 C 10.5 11.042969 10.332031 10.875 10.125 10.875 Z M 3 11.25 L 10.125 11.25 L 10.125 14.25 L 8.625 13.5 L 6.75 15 L 6 14.25 L 3 16.5 Z M 4.6875 11.820312 C 4.167969 11.820312 3.75 12.242188 3.75 12.757812 C 3.75 13.277344 4.167969 13.695312 4.6875 13.695312 C 5.207031 13.695312 5.625 13.277344 5.625 12.757812 C 5.625 12.242188 5.207031 11.820312 4.6875 11.820312 Z M 4.6875 11.820312 "/>
<path style=" stroke:none;fill-rule:nonzero;fill:rgb(85.490197%,26.666668%,32.549021%);fill-opacity:0.96684;" d="M 11.890625 11.734375 C 11.742188 11.589844 11.507812 11.589844 11.359375 11.734375 C 11.214844 11.882812 11.214844 12.117188 11.359375 12.265625 C 11.507812 12.410156 11.742188 12.410156 11.890625 12.265625 C 12.035156 12.117188 12.035156 11.882812 11.890625 11.734375 Z M 11.890625 11.734375 "/>
<path style=" stroke:none;fill-rule:nonzero;fill:rgb(19.215687%,21.176471%,23.137255%);fill-opacity:0.96684;" d="M 11.625 13.125 C 11.417969 13.125 11.25 13.292969 11.25 13.5 C 11.25 13.707031 11.417969 13.875 11.625 13.875 C 11.832031 13.875 12 13.707031 12 13.5 C 12 13.292969 11.832031 13.125 11.625 13.125 Z M 11.625 13.125 "/>
<path style=" stroke:none;fill-rule:nonzero;fill:rgb(19.215687%,21.176471%,23.137255%);fill-opacity:0.96684;" d="M 11.625 14.625 C 11.417969 14.625 11.25 14.792969 11.25 15 C 11.25 15.207031 11.417969 15.375 11.625 15.375 C 11.832031 15.375 12 15.207031 12 15 C 12 14.792969 11.832031 14.625 11.625 14.625 Z M 11.625 14.625 "/>
<use xlink:href="#surface8" mask="url(#mask1)"/>
</g>
</svg>
