
<svg xmlns="http://www.w3.org/2000/svg" xmlns:xlink="http://www.w3.org/1999/xlink" width="24px" height="24px" viewBox="0 0 24 24" version="1.1">
<defs>
<linearGradient id="linear0" gradientUnits="userSpaceOnUse" x1="32" y1="17.33" x2="32" y2="59.709999" gradientTransform="matrix(0.375,0,0,0.375,0,0)">
<stop offset="0.18" style="stop-color:rgb(16.078432%,71.372551%,96.470588%);stop-opacity:1;"/>
<stop offset="0.82" style="stop-color:rgb(49.411765%,34.117648%,76.862746%);stop-opacity:1;"/>
</linearGradient>
<linearGradient id="linear1" gradientUnits="userSpaceOnUse" x1="32" y1="17.33" x2="32" y2="59.709999" gradientTransform="matrix(0.375,0,0,0.375,0,0)">
<stop offset="0.18" style="stop-color:rgb(16.078432%,71.372551%,96.470588%);stop-opacity:1;"/>
<stop offset="0.82" style="stop-color:rgb(49.411765%,34.117648%,76.862746%);stop-opacity:1;"/>
</linearGradient>
</defs>
<g id="surface1">
<path style=" stroke:none;fill-rule:nonzero;fill:rgb(87.843138%,88.627452%,89.803922%);fill-opacity:1;" d="M 24 8.019531 L 0 8.019531 L 3.691406 3.625 C 3.867188 3.417969 4.125 3.300781 4.394531 3.300781 L 19.605469 3.300781 C 19.875 3.300781 20.132812 3.417969 20.308594 3.625 Z M 24 8.019531 "/>
<path style=" stroke:none;fill-rule:nonzero;fill:rgb(82.352942%,83.529413%,85.490197%);fill-opacity:1;" d="M 0 8.019531 L 24 8.019531 L 24 17.726562 C 24 18.234375 23.589844 18.644531 23.082031 18.644531 L 0.917969 18.644531 C 0.410156 18.644531 0 18.234375 0 17.726562 Z M 0 8.019531 "/>
<path style=" stroke:none;fill-rule:nonzero;fill:url(#linear0);" d="M 21.320312 23.410156 L 2.683594 23.410156 C 2.425781 23.410156 2.1875 23.28125 2.039062 23.070312 C 1.886719 22.859375 1.851562 22.589844 1.933594 22.347656 L 4.597656 14.710938 L 19.410156 14.710938 L 22.074219 22.347656 C 22.160156 22.589844 22.121094 22.863281 21.972656 23.074219 C 21.820312 23.285156 21.578125 23.410156 21.320312 23.410156 Z M 21.320312 23.410156 "/>
<path style=" stroke:none;fill-rule:nonzero;fill:url(#linear1);" d="M 4.589844 3.300781 L 19.410156 3.300781 L 19.410156 9.773438 L 4.589844 9.773438 Z M 4.589844 3.300781 "/>
<path style=" stroke:none;fill-rule:nonzero;fill:rgb(100%,100%,100%);fill-opacity:1;" d="M 19.851562 21.488281 L 4.148438 21.488281 L 5.640625 15.800781 L 18.359375 15.800781 Z M 19.851562 21.488281 "/>
<path style=" stroke:none;fill-rule:nonzero;fill:rgb(79.607844%,79.607844%,79.607844%);fill-opacity:1;" d="M 20.097656 21.675781 L 3.902344 21.675781 L 5.492188 15.613281 L 18.507812 15.613281 Z M 4.390625 21.300781 L 19.609375 21.300781 L 18.21875 15.988281 L 5.78125 15.988281 Z M 4.390625 21.300781 "/>
<path style=" stroke:none;fill-rule:nonzero;fill:rgb(69.411767%,70.980394%,72.941178%);fill-opacity:1;" d="M 0 12.171875 L 24 12.171875 L 24 12.796875 L 0 12.796875 Z M 0 12.171875 "/>
<path style=" stroke:none;fill-rule:nonzero;fill:rgb(46.666667%,37.254903%,78.431374%);fill-opacity:1;" d="M 7.003906 17.351562 L 13.644531 17.351562 C 13.875 17.351562 14.0625 17.535156 14.0625 17.765625 C 14.0625 17.996094 13.875 18.179688 13.644531 18.179688 L 7.003906 18.179688 C 6.773438 18.179688 6.589844 17.996094 6.589844 17.765625 C 6.589844 17.535156 6.773438 17.351562 7.003906 17.351562 Z M 7.003906 17.351562 "/>
<path style=" stroke:none;fill-rule:nonzero;fill:rgb(46.666667%,37.254903%,78.431374%);fill-opacity:1;" d="M 6.703125 19.039062 L 17.085938 19.039062 C 17.316406 19.039062 17.5 19.222656 17.5 19.453125 C 17.5 19.683594 17.316406 19.867188 17.085938 19.867188 L 6.703125 19.867188 C 6.472656 19.867188 6.285156 19.683594 6.285156 19.453125 C 6.285156 19.222656 6.472656 19.039062 6.703125 19.039062 Z M 6.703125 19.039062 "/>
<path style=" stroke:none;fill-rule:nonzero;fill:rgb(49.411765%,34.117648%,76.862746%);fill-opacity:1;" d="M 22.445312 10.171875 C 22.445312 10.621094 22.082031 10.984375 21.632812 10.984375 C 21.1875 10.984375 20.824219 10.621094 20.824219 10.171875 C 20.824219 9.726562 21.1875 9.363281 21.632812 9.363281 C 22.082031 9.363281 22.445312 9.726562 22.445312 10.171875 Z M 22.445312 10.171875 "/>
<path style=" stroke:none;fill-rule:nonzero;fill:rgb(100%,100%,100%);fill-opacity:1;" d="M 5.828125 6.105469 L 5.828125 0.777344 L 15.640625 0.777344 L 18.171875 3.109375 L 18.171875 6.105469 Z M 5.828125 6.105469 "/>
<path style=" stroke:none;fill-rule:nonzero;fill:rgb(79.607844%,79.607844%,79.607844%);fill-opacity:1;" d="M 15.566406 0.964844 L 18 3.191406 L 18 5.917969 L 6 5.917969 L 6 0.964844 L 15.566406 0.964844 M 15.710938 0.589844 L 5.625 0.589844 L 5.625 6.292969 L 18.375 6.292969 L 18.375 3.027344 Z M 15.710938 0.589844 "/>
<path style=" stroke:none;fill-rule:nonzero;fill:rgb(79.607844%,79.607844%,79.607844%);fill-opacity:1;" d="M 15.710938 3.027344 L 18.359375 3.027344 L 15.710938 0.589844 Z M 15.710938 3.027344 "/>
</g>
</svg>
