
<svg xmlns="http://www.w3.org/2000/svg" xmlns:xlink="http://www.w3.org/1999/xlink" width="24px" height="24px" viewBox="0 0 24 24" version="1.1">
<defs>
<linearGradient id="linear0" gradientUnits="userSpaceOnUse" x1="32.900002" y1="55.459999" x2="32.900002" y2="57.439999" gradientTransform="matrix(0.375,0,0,0.375,0,0)">
<stop offset="0" style="stop-color:rgb(80.392158%,81.568629%,83.92157%);stop-opacity:1;"/>
<stop offset="0.56" style="stop-color:rgb(81.176472%,82.352942%,84.313726%);stop-opacity:1;"/>
<stop offset="0.79" style="stop-color:rgb(83.92157%,84.705883%,86.274511%);stop-opacity:1;"/>
<stop offset="0.97" style="stop-color:rgb(89.019608%,89.019608%,89.411765%);stop-opacity:1;"/>
<stop offset="1" style="stop-color:rgb(90.196079%,90.196079%,90.196079%);stop-opacity:1;"/>
</linearGradient>
<linearGradient id="linear1" gradientUnits="userSpaceOnUse" x1="10.4" y1="2.59" x2="55.09" y2="50.599998" gradientTransform="matrix(0.375,0,0,0.375,0,0)">
<stop offset="0" style="stop-color:rgb(16.078432%,71.372551%,96.470588%);stop-opacity:1;"/>
<stop offset="0.67" style="stop-color:rgb(39.607844%,45.09804%,82.745099%);stop-opacity:1;"/>
<stop offset="1" style="stop-color:rgb(49.411765%,34.117648%,76.862746%);stop-opacity:1;"/>
</linearGradient>
</defs>
<g id="surface1">
<path style=" stroke:none;fill-rule:nonzero;fill:url(#linear0);" d="M 17.46875 21.414062 L 16.578125 21.414062 C 16.207031 21.414062 15.902344 21.117188 15.902344 20.742188 L 15.902344 17.625 L 8.777344 17.625 L 8.777344 20.734375 C 8.777344 21.109375 8.472656 21.410156 8.097656 21.410156 L 7.207031 21.410156 C 6.839844 21.410156 6.539062 21.710938 6.539062 22.078125 C 6.539062 22.445312 6.839844 22.746094 7.207031 22.746094 L 17.46875 22.746094 C 17.835938 22.746094 18.132812 22.445312 18.132812 22.078125 C 18.132812 21.714844 17.835938 21.414062 17.46875 21.414062 Z M 17.46875 21.414062 "/>
<path style=" stroke:none;fill-rule:nonzero;fill:url(#linear1);" d="M 1.484375 1.546875 L 22.515625 1.546875 C 23.167969 1.546875 23.695312 2.078125 23.695312 2.730469 L 23.695312 16.617188 C 23.695312 17.265625 23.167969 17.796875 22.515625 17.796875 L 1.484375 17.796875 C 0.832031 17.796875 0.304688 17.265625 0.304688 16.617188 L 0.304688 2.730469 C 0.304688 2.078125 0.832031 1.546875 1.484375 1.546875 Z M 1.484375 1.546875 "/>
<path style=" stroke:none;fill-rule:nonzero;fill:rgb(90.196079%,90.196079%,90.196079%);fill-opacity:1;" d="M 22.515625 1.851562 C 22.75 1.851562 22.976562 1.945312 23.140625 2.109375 C 23.304688 2.273438 23.390625 2.496094 23.390625 2.730469 L 23.390625 16.605469 C 23.390625 16.839844 23.304688 17.0625 23.140625 17.226562 C 22.976562 17.390625 22.75 17.484375 22.515625 17.484375 L 1.5 17.484375 C 1.265625 17.484375 1.042969 17.390625 0.878906 17.226562 C 0.714844 17.0625 0.621094 16.839844 0.621094 16.605469 L 0.621094 2.730469 C 0.621094 2.242188 1.015625 1.851562 1.5 1.851562 L 22.515625 1.851562 M 22.515625 1.25 L 1.5 1.25 C 0.671875 1.25 0 1.921875 0 2.75 L 0 16.625 C 0 17.453125 0.671875 18.125 1.5 18.125 L 22.515625 18.125 C 23.351562 18.125 24.015625 17.453125 24.015625 16.625 L 24.015625 2.75 C 24.007812 1.925781 23.335938 1.265625 22.515625 1.265625 Z M 22.515625 1.25 "/>
<path style=" stroke:none;fill-rule:nonzero;fill:rgb(90.196079%,90.196079%,90.196079%);fill-opacity:1;" d="M 22.628906 17.71875 L 1.328125 17.71875 C 1.0625 17.71875 0.804688 17.613281 0.617188 17.421875 C 0.421875 17.234375 0.316406 16.976562 0.316406 16.703125 L 0.316406 15.691406 L 23.640625 15.691406 L 23.640625 16.703125 C 23.640625 17.265625 23.191406 17.71875 22.628906 17.71875 Z M 22.628906 17.71875 "/>
</g>
</svg>
