
<svg xmlns="http://www.w3.org/2000/svg" xmlns:xlink="http://www.w3.org/1999/xlink" width="24px" height="24px" viewBox="0 0 24 24" version="1.1">
<defs>
<linearGradient id="linear0" gradientUnits="userSpaceOnUse" x1="16.09" y1="59.560001" x2="47.290001" y2="5.51" gradientTransform="matrix(0.375,0,0,0.375,0,0)">
<stop offset="0" style="stop-color:rgb(83.137256%,83.137256%,83.137256%);stop-opacity:1;"/>
<stop offset="0.34" style="stop-color:rgb(45.882353%,75.294119%,96.470588%);stop-opacity:1;"/>
<stop offset="0.46" style="stop-color:rgb(47.843137%,53.725493%,86.274511%);stop-opacity:1;"/>
<stop offset="0.57" style="stop-color:rgb(49.411765%,34.117648%,76.862746%);stop-opacity:1;"/>
<stop offset="0.65" style="stop-color:rgb(47.450981%,36.078432%,78.039217%);stop-opacity:1;"/>
<stop offset="0.74" style="stop-color:rgb(42.352942%,41.960785%,81.176472%);stop-opacity:1;"/>
<stop offset="0.84" style="stop-color:rgb(33.725491%,51.372552%,85.882354%);stop-opacity:1;"/>
<stop offset="0.95" style="stop-color:rgb(21.960784%,64.705884%,92.941177%);stop-opacity:1;"/>
<stop offset="1" style="stop-color:rgb(16.078432%,71.372551%,96.470588%);stop-opacity:1;"/>
</linearGradient>
</defs>
<g id="surface1">
<path style="fill-rule:nonzero;fill:rgb(92.156863%,92.54902%,93.333334%);fill-opacity:1;stroke-width:1;stroke-linecap:butt;stroke-linejoin:miter;stroke:rgb(82.352942%,83.529413%,85.490197%);stroke-opacity:1;stroke-miterlimit:10;" d="M 32 12.916667 C 21.46875 12.927083 12.927083 21.46875 12.927083 32.010417 C 12.9375 42.541667 21.479167 51.083333 32.010417 51.083333 C 42.552083 51.083333 51.09375 42.53125 51.09375 32 C 51.072917 21.46875 42.53125 12.927083 32 12.916667 Z M 32 38.625 C 28.333333 38.625 25.375 35.666667 25.375 32 C 25.375 28.333333 28.333333 25.375 32 25.375 C 35.666667 25.375 38.625 28.333333 38.625 32 C 38.625 35.65625 35.65625 38.625 32 38.625 Z M 32 38.625 " transform="matrix(0.375,0,0,0.375,0,0)"/>
<path style=" stroke:none;fill-rule:nonzero;fill:url(#linear0);" d="M 12 0 C 5.371094 0 0 5.371094 0 12 C 0 18.628906 5.371094 24 12 24 C 18.628906 24 24 18.628906 24 12 C 24 5.371094 18.628906 0 12 0 Z M 6.296875 12 C 6.296875 8.851562 8.851562 6.296875 12 6.296875 C 15.148438 6.296875 17.703125 8.851562 17.703125 12 C 17.703125 15.148438 15.148438 17.703125 12 17.703125 C 8.851562 17.703125 6.296875 15.148438 6.296875 12 Z M 6.296875 12 "/>
</g>
</svg>
