
<svg xmlns="http://www.w3.org/2000/svg" xmlns:xlink="http://www.w3.org/1999/xlink" width="24px" height="24px" viewBox="0 0 24 24" version="1.1">
<defs>
<linearGradient id="linear0" gradientUnits="userSpaceOnUse" x1="16.09" y1="59.560001" x2="47.290001" y2="5.51" gradientTransform="matrix(0.375,0,0,0.375,0,0)">
<stop offset="0" style="stop-color:rgb(83.137256%,83.137256%,83.137256%);stop-opacity:1;"/>
<stop offset="0.34" style="stop-color:rgb(45.882353%,75.294119%,96.470588%);stop-opacity:1;"/>
<stop offset="0.46" style="stop-color:rgb(47.843137%,53.725493%,86.274511%);stop-opacity:1;"/>
<stop offset="0.57" style="stop-color:rgb(49.411765%,34.117648%,76.862746%);stop-opacity:1;"/>
<stop offset="0.65" style="stop-color:rgb(47.450981%,36.078432%,78.039217%);stop-opacity:1;"/>
<stop offset="0.74" style="stop-color:rgb(42.352942%,41.960785%,81.176472%);stop-opacity:1;"/>
<stop offset="0.84" style="stop-color:rgb(33.725491%,51.372552%,85.882354%);stop-opacity:1;"/>
<stop offset="0.95" style="stop-color:rgb(21.960784%,64.705884%,92.941177%);stop-opacity:1;"/>
<stop offset="1" style="stop-color:rgb(16.078432%,71.372551%,96.470588%);stop-opacity:1;"/>
</linearGradient>
</defs>
<g id="surface1">
<path style="fill-rule:nonzero;fill:rgb(92.156863%,92.54902%,93.333334%);fill-opacity:1;stroke-width:1;stroke-linecap:butt;stroke-linejoin:miter;stroke:rgb(82.352942%,83.529413%,85.490197%);stroke-opacity:1;stroke-miterlimit:10;" d="M 32 12.916667 C 21.46875 12.927083 12.927083 21.46875 12.927083 32.010417 C 12.9375 42.541667 21.479167 51.083333 32.010417 51.083333 C 42.552083 51.083333 51.09375 42.53125 51.09375 32 C 51.072917 21.46875 42.53125 12.927083 32 12.916667 Z M 32 38.625 C 28.333333 38.625 25.375 35.666667 25.375 32 C 25.375 28.333333 28.333333 25.375 32 25.375 C 35.666667 25.375 38.625 28.333333 38.625 32 C 38.625 35.65625 35.65625 38.625 32 38.625 Z M 32 38.625 " transform="matrix(0.375,0,0,0.375,0,0)"/>
<path style=" stroke:none;fill-rule:nonzero;fill:url(#linear0);" d="M 12 0 C 5.371094 0 0 5.371094 0 12 C 0 18.628906 5.371094 24 12 24 C 18.628906 24 24 18.628906 24 12 C 24 5.371094 18.628906 0 12 0 Z M 6.296875 12 C 6.296875 8.851562 8.851562 6.296875 12 6.296875 C 15.148438 6.296875 17.703125 8.851562 17.703125 12 C 17.703125 15.148438 15.148438 17.703125 12 17.703125 C 8.851562 17.703125 6.296875 15.148438 6.296875 12 Z M 6.296875 12 "/>
<path style=" stroke:none;fill-rule:nonzero;fill:rgb(100%,100%,100%);fill-opacity:1;" d="M 6.875 23.289062 C 5.671875 23.289062 4.457031 22.472656 4.457031 20.664062 C 4.457031 18.851562 5.691406 18 6.910156 18 C 7.503906 18.003906 8.074219 18.246094 8.484375 18.675781 L 8.601562 18.796875 L 7.769531 19.804688 L 7.625 19.671875 C 7.445312 19.476562 7.195312 19.359375 6.929688 19.351562 C 6.375 19.339844 6 19.875 6 20.625 C 6 21.441406 6.34375 21.929688 6.914062 21.929688 C 7.207031 21.914062 7.476562 21.777344 7.664062 21.554688 L 7.8125 21.398438 L 8.648438 22.398438 L 8.546875 22.519531 C 8.128906 23.011719 7.515625 23.292969 6.875 23.289062 Z M 6.875 23.289062 "/>
<path style=" stroke:none;fill-rule:nonzero;fill:rgb(60.000002%,60.000002%,60.000002%);fill-opacity:1;" d="M 6.910156 18.175781 C 7.453125 18.179688 7.972656 18.402344 8.351562 18.796875 L 7.75 19.523438 C 7.539062 19.292969 7.242188 19.15625 6.929688 19.148438 C 6.320312 19.148438 5.804688 19.695312 5.804688 20.621094 C 5.804688 21.546875 6.238281 22.121094 6.90625 22.121094 C 7.257812 22.113281 7.589844 21.953125 7.816406 21.6875 L 8.414062 22.398438 C 8.03125 22.855469 7.460938 23.117188 6.867188 23.105469 C 5.660156 23.105469 4.640625 22.273438 4.640625 20.667969 C 4.640625 19.058594 5.699219 18.179688 6.890625 18.179688 M 6.890625 17.804688 C 5.578125 17.804688 4.265625 18.789062 4.265625 20.667969 C 4.265625 22.609375 5.570312 23.480469 6.867188 23.480469 C 7.570312 23.488281 8.242188 23.183594 8.695312 22.644531 L 8.90625 22.402344 L 8.699219 22.160156 L 8.101562 21.445312 L 7.828125 21.121094 L 7.539062 21.429688 C 7.382812 21.625 7.152344 21.738281 6.90625 21.746094 C 6.25 21.746094 6.179688 20.960938 6.179688 20.621094 C 6.179688 19.964844 6.480469 19.523438 6.929688 19.523438 C 7.148438 19.53125 7.355469 19.632812 7.5 19.800781 L 7.792969 20.066406 L 8.042969 19.757812 L 8.625 19.035156 L 8.839844 18.773438 L 8.625 18.53125 C 8.179688 18.0625 7.566406 17.789062 6.917969 17.78125 Z M 6.890625 17.804688 "/>
<path style=" stroke:none;fill-rule:nonzero;fill:rgb(100%,100%,100%);fill-opacity:1;" d="M 8.625 23.199219 L 8.625 18.078125 L 10.164062 18.078125 C 11.832031 18.078125 12.753906 18.980469 12.753906 20.613281 C 12.753906 22.25 11.832031 23.199219 10.226562 23.199219 Z M 10.125 21.902344 C 10.640625 21.902344 11.210938 21.730469 11.210938 20.613281 C 11.210938 19.496094 10.695312 19.363281 10.125 19.359375 Z M 10.125 21.902344 "/>
<path style=" stroke:none;fill-rule:nonzero;fill:rgb(60.000002%,60.000002%,60.000002%);fill-opacity:1;" d="M 10.164062 18.265625 C 11.609375 18.265625 12.566406 18.960938 12.566406 20.613281 C 12.566406 22.265625 11.625 23.011719 10.226562 23.011719 L 8.796875 23.011719 L 8.796875 18.265625 L 10.164062 18.265625 M 9.9375 22.089844 L 10.089844 22.089844 C 10.839844 22.089844 11.398438 21.738281 11.398438 20.613281 C 11.398438 19.488281 10.875 19.171875 10.089844 19.171875 L 9.9375 19.171875 L 9.9375 22.089844 M 10.164062 17.890625 L 8.421875 17.890625 L 8.421875 23.386719 L 10.226562 23.386719 C 11.925781 23.386719 12.941406 22.347656 12.941406 20.613281 C 12.941406 18.882812 11.929688 17.890625 10.164062 17.890625 Z M 10.3125 21.703125 L 10.3125 19.554688 C 10.765625 19.605469 11.023438 19.835938 11.023438 20.613281 C 11.023438 21.390625 10.746094 21.648438 10.3125 21.703125 Z M 10.3125 21.703125 "/>
<path style=" stroke:none;fill-rule:nonzero;fill:rgb(100%,100%,100%);fill-opacity:1;" d="M 12.707031 20.578125 L 14.886719 20.578125 L 14.886719 21.75 L 12.707031 21.75 Z M 12.707031 20.578125 "/>
<path style=" stroke:none;fill-rule:nonzero;fill:rgb(60.000002%,60.000002%,60.000002%);fill-opacity:1;" d="M 14.699219 20.765625 L 14.699219 21.5625 L 12.894531 21.5625 L 12.894531 20.765625 L 14.699219 20.765625 M 15.074219 20.390625 L 12.519531 20.390625 L 12.519531 21.9375 L 15.074219 21.9375 Z M 15.074219 20.390625 "/>
<path style=" stroke:none;fill-rule:nonzero;fill:rgb(100%,100%,100%);fill-opacity:1;" d="M 17.695312 23.199219 L 16.828125 21.523438 L 16.578125 21.523438 L 16.578125 23.199219 L 15.058594 23.199219 L 15.058594 18.078125 L 16.988281 18.078125 C 18.679688 18.078125 19.03125 18.988281 19.03125 19.757812 C 19.0625 20.339844 18.773438 20.890625 18.28125 21.203125 L 19.40625 23.199219 Z M 16.902344 20.25 C 17.476562 20.25 17.542969 19.964844 17.542969 19.753906 C 17.542969 19.546875 17.492188 19.351562 16.902344 19.351562 L 16.578125 19.351562 L 16.578125 20.25 Z M 16.902344 20.25 "/>
<path style=" stroke:none;fill-rule:nonzero;fill:rgb(60.000002%,60.000002%,60.000002%);fill-opacity:1;" d="M 16.988281 18.265625 C 18.003906 18.265625 18.863281 18.609375 18.863281 19.765625 C 18.902344 20.347656 18.574219 20.894531 18.046875 21.136719 L 19.105469 23.011719 L 17.8125 23.011719 L 16.9375 21.335938 L 16.390625 21.335938 L 16.390625 23.011719 L 15.246094 23.011719 L 15.246094 18.265625 L 16.988281 18.265625 M 16.390625 20.441406 L 16.902344 20.441406 C 17.441406 20.441406 17.730469 20.203125 17.730469 19.757812 C 17.730469 19.3125 17.441406 19.167969 16.902344 19.167969 L 16.390625 19.167969 L 16.390625 20.441406 M 16.988281 17.890625 L 14.871094 17.890625 L 14.871094 23.386719 L 16.765625 23.386719 L 16.765625 21.816406 L 17.480469 23.183594 L 17.582031 23.386719 L 19.730469 23.386719 L 19.414062 22.828125 L 18.53125 21.257812 C 18.992188 20.898438 19.246094 20.339844 19.21875 19.757812 C 19.21875 19.0625 18.929688 17.882812 16.96875 17.882812 Z M 16.765625 19.542969 L 16.902344 19.542969 C 17.355469 19.542969 17.355469 19.628906 17.355469 19.757812 C 17.355469 19.890625 17.355469 20.066406 16.902344 20.066406 L 16.765625 20.066406 Z M 16.765625 19.542969 "/>
</g>
</svg>
