
<svg xmlns="http://www.w3.org/2000/svg" xmlns:xlink="http://www.w3.org/1999/xlink" width="24px" height="24px" viewBox="0 0 24 24" version="1.1">
<defs>
<linearGradient id="linear0" gradientUnits="userSpaceOnUse" x1="24.1" y1="9.75" x2="53.459999" y2="9.75" gradientTransform="matrix(0.375,0,0,0.375,0,0)">
<stop offset="0" style="stop-color:rgb(82.352942%,83.529413%,85.490197%);stop-opacity:1;"/>
<stop offset="0.58" style="stop-color:rgb(83.137256%,84.313726%,86.274511%);stop-opacity:1;"/>
<stop offset="0.82" style="stop-color:rgb(85.882354%,87.058824%,88.235295%);stop-opacity:1;"/>
<stop offset="1" style="stop-color:rgb(90.588236%,91.37255%,92.156863%);stop-opacity:1;"/>
</linearGradient>
</defs>
<g id="surface1">
<path style=" stroke:none;fill-rule:nonzero;fill:rgb(30.980393%,32.549021%,33.725491%);fill-opacity:1;" d="M 0.0742188 22.960938 C 0.0742188 23.238281 0.1875 23.503906 0.382812 23.699219 C 0.582031 23.894531 0.847656 24.003906 1.125 24 L 22.875 24 C 23.445312 23.996094 23.910156 23.535156 23.910156 22.960938 L 23.910156 3.671875 C 23.914062 3.390625 23.804688 3.121094 23.605469 2.921875 L 20.980469 0.296875 C 20.785156 0.105469 20.523438 0 20.25 0 L 1.125 0 C 0.847656 -0.00390625 0.582031 0.105469 0.382812 0.300781 C 0.1875 0.496094 0.0742188 0.761719 0.0742188 1.039062 Z M 0.0742188 22.960938 "/>
<path style=" stroke:none;fill-rule:nonzero;fill:rgb(26.274511%,27.450982%,27.843139%);fill-opacity:1;" d="M 18.605469 7.367188 L 5.125 7.367188 C 4.476562 7.367188 3.953125 6.839844 3.953125 6.191406 L 3.953125 0 L 4.601562 0 L 4.601562 6.191406 C 4.601562 6.480469 4.835938 6.71875 5.125 6.71875 L 18.605469 6.71875 Z M 18.605469 7.367188 "/>
<path style=" stroke:none;fill-rule:nonzero;fill:url(#linear0);" d="M 9.039062 0 L 20.046875 0 L 20.046875 6.429688 C 20.046875 6.664062 19.953125 6.890625 19.789062 7.054688 C 19.621094 7.222656 19.398438 7.3125 19.164062 7.3125 L 9.917969 7.3125 C 9.433594 7.3125 9.039062 6.917969 9.039062 6.429688 Z M 9.039062 0 "/>
<path style=" stroke:none;fill-rule:nonzero;fill:rgb(30.980393%,32.549021%,33.725491%);fill-opacity:1;" d="M 17.355469 1.609375 L 17.359375 1.609375 C 17.960938 1.609375 18.449219 2.097656 18.449219 2.699219 L 18.449219 4.722656 C 18.449219 5.324219 17.960938 5.8125 17.359375 5.8125 L 17.355469 5.8125 C 16.753906 5.8125 16.265625 5.324219 16.265625 4.722656 L 16.265625 2.699219 C 16.265625 2.097656 16.753906 1.609375 17.355469 1.609375 Z M 17.355469 1.609375 "/>
<path style=" stroke:none;fill-rule:nonzero;fill:rgb(100%,100%,100%);fill-opacity:1;" d="M 3.921875 10.195312 L 20.074219 10.195312 C 20.417969 10.195312 20.695312 10.476562 20.695312 10.820312 L 20.695312 22.011719 C 20.695312 22.355469 20.417969 22.636719 20.074219 22.636719 L 3.921875 22.636719 C 3.578125 22.636719 3.300781 22.355469 3.300781 22.011719 L 3.300781 10.820312 C 3.300781 10.476562 3.578125 10.195312 3.921875 10.195312 Z M 3.921875 10.195312 "/>
<path style=" stroke:none;fill-rule:nonzero;fill:rgb(90.196079%,90.196079%,90.196079%);fill-opacity:1;" d="M 4.6875 14.167969 L 19.3125 14.167969 L 19.3125 14.746094 L 4.6875 14.746094 Z M 4.6875 14.167969 "/>
<path style=" stroke:none;fill-rule:nonzero;fill:rgb(90.196079%,90.196079%,90.196079%);fill-opacity:1;" d="M 4.6875 18.203125 L 19.3125 18.203125 L 19.3125 18.78125 L 4.6875 18.78125 Z M 4.6875 18.203125 "/>
</g>
</svg>
