
<svg xmlns="http://www.w3.org/2000/svg" xmlns:xlink="http://www.w3.org/1999/xlink" width="24px" height="24px" viewBox="0 0 24 24" version="1.1">
<defs>
<linearGradient id="linear0" gradientUnits="userSpaceOnUse" x1="16.09" y1="59.560001" x2="47.290001" y2="5.51" gradientTransform="matrix(0.375,0,0,0.375,0,0)">
<stop offset="0" style="stop-color:rgb(83.137256%,83.137256%,83.137256%);stop-opacity:1;"/>
<stop offset="0.34" style="stop-color:rgb(45.882353%,75.294119%,96.470588%);stop-opacity:1;"/>
<stop offset="0.46" style="stop-color:rgb(47.843137%,53.725493%,86.274511%);stop-opacity:1;"/>
<stop offset="0.57" style="stop-color:rgb(49.411765%,34.117648%,76.862746%);stop-opacity:1;"/>
<stop offset="0.65" style="stop-color:rgb(47.450981%,36.078432%,78.039217%);stop-opacity:1;"/>
<stop offset="0.74" style="stop-color:rgb(42.352942%,41.960785%,81.176472%);stop-opacity:1;"/>
<stop offset="0.84" style="stop-color:rgb(33.725491%,51.372552%,85.882354%);stop-opacity:1;"/>
<stop offset="0.95" style="stop-color:rgb(21.960784%,64.705884%,92.941177%);stop-opacity:1;"/>
<stop offset="1" style="stop-color:rgb(16.078432%,71.372551%,96.470588%);stop-opacity:1;"/>
</linearGradient>
</defs>
<g id="surface1">
<path style="fill-rule:nonzero;fill:rgb(92.156863%,92.54902%,93.333334%);fill-opacity:1;stroke-width:1;stroke-linecap:butt;stroke-linejoin:miter;stroke:rgb(82.352942%,83.529413%,85.490197%);stroke-opacity:1;stroke-miterlimit:10;" d="M 32 12.916667 C 21.46875 12.927083 12.927083 21.46875 12.927083 32.010417 C 12.9375 42.541667 21.479167 51.083333 32.010417 51.083333 C 42.552083 51.083333 51.09375 42.53125 51.09375 32 C 51.072917 21.46875 42.53125 12.927083 32 12.916667 Z M 32 38.625 C 28.333333 38.625 25.375 35.666667 25.375 32 C 25.375 28.333333 28.333333 25.375 32 25.375 C 35.666667 25.375 38.625 28.333333 38.625 32 C 38.625 35.65625 35.65625 38.625 32 38.625 Z M 32 38.625 " transform="matrix(0.375,0,0,0.375,0,0)"/>
<path style=" stroke:none;fill-rule:nonzero;fill:url(#linear0);" d="M 12 0 C 5.371094 0 0 5.371094 0 12 C 0 18.628906 5.371094 24 12 24 C 18.628906 24 24 18.628906 24 12 C 24 5.371094 18.628906 0 12 0 Z M 6.296875 12 C 6.296875 8.851562 8.851562 6.296875 12 6.296875 C 15.148438 6.296875 17.703125 8.851562 17.703125 12 C 17.703125 15.148438 15.148438 17.703125 12 17.703125 C 8.851562 17.703125 6.296875 15.148438 6.296875 12 Z M 6.296875 12 "/>
<path style=" stroke:none;fill-rule:nonzero;fill:rgb(49.411765%,34.117648%,76.862746%);fill-opacity:1;" d="M 21.835938 23.8125 C 20.746094 23.8125 19.855469 23.0625 19.855469 22.132812 C 19.855469 21.203125 20.746094 20.453125 21.835938 20.453125 C 22.03125 20.453125 22.222656 20.476562 22.410156 20.527344 L 22.410156 15.140625 C 22.410156 14.726562 22.074219 14.390625 21.660156 14.390625 L 17.144531 14.390625 C 16.730469 14.390625 16.394531 14.726562 16.394531 15.140625 L 16.394531 20.476562 C 16.324219 21.347656 15.464844 22.039062 14.421875 22.039062 C 13.378906 22.039062 12.441406 21.289062 12.441406 20.359375 C 12.441406 19.429688 13.332031 18.679688 14.421875 18.679688 C 14.625 18.679688 14.828125 18.707031 15.023438 18.761719 L 15.023438 14.25 C 15.023438 12.902344 16.117188 11.8125 17.464844 11.808594 L 21.351562 11.808594 C 22.699219 11.8125 23.792969 12.902344 23.792969 14.25 L 23.792969 21.988281 C 23.792969 22.03125 23.792969 22.074219 23.792969 22.113281 C 23.8125 23.058594 22.921875 23.8125 21.835938 23.8125 Z M 21.835938 23.8125 "/>
<path style=" stroke:none;fill-rule:nonzero;fill:rgb(100%,100%,100%);fill-opacity:1;" d="M 21.351562 12 C 22.59375 12 23.601562 13.007812 23.601562 14.25 L 23.601562 21.988281 C 23.613281 22.035156 23.621094 22.078125 23.625 22.125 C 23.625 22.949219 22.824219 23.625 21.835938 23.625 C 20.851562 23.625 20.042969 22.957031 20.042969 22.125 C 20.042969 21.292969 20.847656 20.625 21.835938 20.625 C 22.09375 20.628906 22.347656 20.675781 22.585938 20.769531 L 22.585938 15.144531 C 22.585938 14.636719 22.171875 14.226562 21.664062 14.226562 L 17.144531 14.226562 C 16.636719 14.226562 16.222656 14.636719 16.222656 15.144531 L 16.222656 20.289062 C 16.222656 20.3125 16.222656 20.332031 16.222656 20.359375 C 16.222656 21.183594 15.421875 21.859375 14.433594 21.859375 C 13.449219 21.859375 12.640625 21.191406 12.640625 20.359375 C 12.640625 19.527344 13.445312 18.859375 14.433594 18.859375 C 14.703125 18.859375 14.972656 18.914062 15.222656 19.015625 L 15.222656 14.25 C 15.222656 13.007812 16.230469 12 17.472656 12 L 21.351562 12 M 21.351562 11.625 L 17.46875 11.625 C 16.019531 11.625 14.84375 12.800781 14.84375 14.25 L 14.84375 18.527344 C 14.707031 18.503906 14.570312 18.492188 14.429688 18.492188 C 13.234375 18.492188 12.261719 19.328125 12.261719 20.367188 C 12.261719 21.40625 13.234375 22.242188 14.429688 22.242188 C 15.421875 22.289062 16.3125 21.636719 16.5625 20.675781 L 16.585938 20.675781 L 16.585938 15.140625 C 16.589844 14.839844 16.832031 14.597656 17.132812 14.597656 L 21.675781 14.597656 C 21.976562 14.597656 22.21875 14.839844 22.222656 15.140625 L 22.222656 20.296875 C 22.097656 20.277344 21.972656 20.265625 21.847656 20.265625 C 21.300781 20.261719 20.773438 20.445312 20.347656 20.789062 C 19.933594 21.109375 19.683594 21.601562 19.667969 22.125 C 19.667969 23.15625 20.640625 24 21.835938 24 C 23.03125 24 24 23.164062 24 22.125 C 24.003906 22.074219 24.003906 22.023438 24 21.972656 L 24 14.25 C 24 12.800781 22.824219 11.625 21.375 11.625 Z M 21.351562 11.625 "/>
</g>
</svg>
