
<svg xmlns="http://www.w3.org/2000/svg" xmlns:xlink="http://www.w3.org/1999/xlink" width="24px" height="24px" viewBox="0 0 24 24" version="1.1">
<defs>
<filter id="alpha" filterUnits="objectBoundingBox" x="0%" y="0%" width="100%" height="100%">
  <feColorMatrix type="matrix" in="SourceGraphic" values="0 0 0 0 1 0 0 0 0 1 0 0 0 0 1 0 0 0 1 0"/>
</filter>
<mask id="mask0">
  <g filter="url(#alpha)">
<rect x="0" y="0" width="24" height="24" style="fill:rgb(0%,0%,0%);fill-opacity:0.99;stroke:none;"/>
  </g>
</mask>
<clipPath id="clip1">
  <rect x="0" y="0" width="24" height="24"/>
</clipPath>
<g id="surface5" clip-path="url(#clip1)">
<path style=" stroke:none;fill-rule:nonzero;fill:rgb(60.000002%,60.000002%,60.000002%);fill-opacity:1;" d="M 17.765625 8.4375 L 17.859375 8.4375 C 17.9375 8.4375 18 8.5 18 8.578125 L 18 11.109375 C 18 11.1875 17.9375 11.25 17.859375 11.25 L 17.765625 11.25 C 17.6875 11.25 17.625 11.1875 17.625 11.109375 L 17.625 8.578125 C 17.625 8.5 17.6875 8.4375 17.765625 8.4375 Z M 17.765625 8.4375 "/>
</g>
<radialGradient id="radial0" gradientUnits="userSpaceOnUse" cx="23.823223" cy="1048.980957" fx="23.823223" fy="1048.980957" r="13" gradientTransform="matrix(0.488236,0,0,0.121407,0.368655,-104.931702)">
<stop offset="0" style="stop-color:rgb(0%,0%,0%);stop-opacity:1;"/>
<stop offset="1" style="stop-color:rgb(0%,0%,0%);stop-opacity:0;"/>
</radialGradient>
<mask id="mask1">
  <g filter="url(#alpha)">
<rect x="0" y="0" width="24" height="24" style="fill:rgb(0%,0%,0%);fill-opacity:0.189;stroke:none;"/>
  </g>
</mask>
<radialGradient id="radial1" gradientUnits="userSpaceOnUse" cx="17.971973" cy="1005.458191" fx="17.971973" fy="1005.458191" r="11" gradientTransform="matrix(1.216651,0.0811097,-0.14348,2.15221,138.699314,-2150.683937)">
<stop offset="0" style="stop-color:rgb(100%,100%,100%);stop-opacity:1;"/>
<stop offset="1" style="stop-color:rgb(0%,0%,0%);stop-opacity:0;"/>
</radialGradient>
<clipPath id="clip2">
  <rect x="0" y="0" width="24" height="24"/>
</clipPath>
<g id="surface8" clip-path="url(#clip2)">
<path style=" stroke:none;fill-rule:nonzero;fill:url(#radial1);" d="M 12.09375 0 C 6.304688 0 6.304688 0 6.304688 3.699219 L 6.304688 18.972656 C 9.773438 16.15625 12.34375 10.402344 12.878906 4.242188 C 13.003906 2.800781 13.015625 1.375 12.90625 0.00390625 C 12.628906 0.00390625 12.402344 0 12.09375 0 Z M 12.09375 0 "/>
</g>
</defs>
<g id="surface1">
<path style=" stroke:none;fill-rule:nonzero;fill:rgb(60.000002%,60.000002%,60.000002%);fill-opacity:1;" d="M 17.765625 5.625 L 17.859375 5.625 C 17.9375 5.625 18 5.6875 18 5.765625 L 18 6.984375 C 18 7.0625 17.9375 7.125 17.859375 7.125 L 17.765625 7.125 C 17.6875 7.125 17.625 7.0625 17.625 6.984375 L 17.625 5.765625 C 17.625 5.6875 17.6875 5.625 17.765625 5.625 Z M 17.765625 5.625 "/>
<use xlink:href="#surface5" mask="url(#mask0)"/>
<path style=" stroke:none;fill-rule:nonzero;fill:url(#radial0);" d="M 18.347656 22.421875 C 18.347656 23.292969 15.503906 24 12 24 C 8.496094 24 5.652344 23.292969 5.652344 22.421875 C 5.652344 21.550781 8.496094 20.84375 12 20.84375 C 15.503906 20.84375 18.347656 21.550781 18.347656 22.421875 Z M 18.347656 22.421875 "/>
<path style=" stroke:none;fill-rule:nonzero;fill:rgb(50.196081%,50.196081%,50.196081%);fill-opacity:1;" d="M 17.8125 19.378906 L 17.8125 11.53125 L 12.09375 11.53125 L 12.09375 23.0625 C 17.8125 23.0625 17.8125 23.0625 17.8125 19.378906 Z M 6.375 19.378906 L 6.375 11.53125 L 12.09375 11.53125 L 12.09375 23.0625 C 6.375 23.0625 6.375 23.0625 6.375 19.378906 Z M 17.8125 3.683594 L 17.8125 11.53125 L 12.09375 11.53125 L 12.09375 0 C 17.8125 0 17.8125 0 17.8125 3.683594 Z M 6.375 3.683594 L 6.375 11.53125 L 12.09375 11.53125 L 12.09375 0 C 6.375 0 6.375 0 6.375 3.683594 Z M 6.375 3.683594 "/>
<path style=" stroke:none;fill-rule:nonzero;fill:rgb(100%,100%,100%);fill-opacity:1;" d="M 17.625 19.25 L 17.625 11.53125 L 12.09375 11.53125 L 12.09375 22.875 C 17.625 22.875 17.625 22.875 17.625 19.25 Z M 6.5625 19.25 L 6.5625 11.53125 L 12.09375 11.53125 L 12.09375 22.875 C 6.5625 22.875 6.5625 22.875 6.5625 19.25 Z M 17.625 3.8125 L 17.625 11.53125 L 12.09375 11.53125 L 12.09375 0.1875 C 17.625 0.1875 17.625 0.1875 17.625 3.8125 Z M 6.5625 3.8125 L 6.5625 11.53125 L 12.09375 11.53125 L 12.09375 0.1875 C 6.5625 0.1875 6.5625 0.1875 6.5625 3.8125 Z M 6.5625 3.8125 "/>
<path style=" stroke:none;fill-rule:nonzero;fill:rgb(10.196079%,10.196079%,10.196079%);fill-opacity:1;" d="M 6.9375 2.25 L 17.25 2.25 L 17.25 20.625 L 6.9375 20.625 Z M 6.9375 2.25 "/>
<use xlink:href="#surface8" mask="url(#mask1)"/>
<path style=" stroke:none;fill-rule:nonzero;fill:rgb(20%,20%,20%);fill-opacity:1;" d="M 15.9375 0.9375 C 15.9375 1.042969 15.855469 1.125 15.75 1.125 C 15.644531 1.125 15.5625 1.042969 15.5625 0.9375 C 15.5625 0.832031 15.644531 0.75 15.75 0.75 C 15.855469 0.75 15.9375 0.832031 15.9375 0.9375 Z M 15.9375 0.9375 "/>
<path style=" stroke:none;fill-rule:nonzero;fill:rgb(40.000001%,40.000001%,40.000001%);fill-opacity:1;" d="M 15.835938 0.929688 C 15.835938 0.988281 15.789062 1.039062 15.730469 1.039062 C 15.671875 1.039062 15.625 0.988281 15.625 0.929688 C 15.625 0.867188 15.671875 0.820312 15.730469 0.820312 C 15.789062 0.820312 15.835938 0.867188 15.835938 0.929688 Z M 15.835938 0.929688 "/>
<path style=" stroke:none;fill-rule:nonzero;fill:rgb(10.196079%,10.196079%,10.196079%);fill-opacity:1;" d="M 15.859375 0.9375 C 15.859375 1 15.8125 1.046875 15.75 1.046875 C 15.6875 1.046875 15.640625 1 15.640625 0.9375 C 15.640625 0.875 15.6875 0.828125 15.75 0.828125 C 15.8125 0.828125 15.859375 0.875 15.859375 0.9375 Z M 15.859375 0.9375 "/>
<path style=" stroke:none;fill-rule:nonzero;fill:rgb(0%,0%,0%);fill-opacity:1;" d="M 15.816406 0.9375 C 15.816406 0.972656 15.785156 1.003906 15.75 1.003906 C 15.714844 1.003906 15.683594 0.972656 15.683594 0.9375 C 15.683594 0.902344 15.714844 0.871094 15.75 0.871094 C 15.785156 0.871094 15.816406 0.902344 15.816406 0.9375 Z M 15.816406 0.9375 "/>
<path style=" stroke:none;fill-rule:nonzero;fill:rgb(60.000002%,60.000002%,60.000002%);fill-opacity:1;" d="M 9.929688 21.5625 L 14.445312 21.5625 C 14.648438 21.5625 14.8125 21.726562 14.8125 21.929688 L 14.8125 21.945312 C 14.8125 22.148438 14.648438 22.3125 14.445312 22.3125 L 9.929688 22.3125 C 9.726562 22.3125 9.5625 22.148438 9.5625 21.945312 L 9.5625 21.929688 C 9.5625 21.726562 9.726562 21.5625 9.929688 21.5625 Z M 9.929688 21.5625 "/>
<path style=" stroke:none;fill-rule:nonzero;fill:rgb(80.000001%,80.000001%,80.000001%);fill-opacity:1;" d="M 9.921875 21.75 L 14.453125 21.75 C 14.546875 21.75 14.625 21.828125 14.625 21.921875 L 14.625 21.953125 C 14.625 22.046875 14.546875 22.125 14.453125 22.125 L 9.921875 22.125 C 9.828125 22.125 9.75 22.046875 9.75 21.953125 L 9.75 21.921875 C 9.75 21.828125 9.828125 21.75 9.921875 21.75 Z M 9.921875 21.75 "/>
<path style=" stroke:none;fill-rule:nonzero;fill:rgb(60.000002%,60.000002%,60.000002%);fill-opacity:1;" d="M 9.929688 0.75 L 14.445312 0.75 C 14.648438 0.75 14.8125 0.914062 14.8125 1.117188 L 14.8125 1.132812 C 14.8125 1.335938 14.648438 1.5 14.445312 1.5 L 9.929688 1.5 C 9.726562 1.5 9.5625 1.335938 9.5625 1.132812 L 9.5625 1.117188 C 9.5625 0.914062 9.726562 0.75 9.929688 0.75 Z M 9.929688 0.75 "/>
<path style=" stroke:none;fill-rule:nonzero;fill:rgb(80.000001%,80.000001%,80.000001%);fill-opacity:1;" d="M 9.921875 0.9375 L 14.453125 0.9375 C 14.546875 0.9375 14.625 1.015625 14.625 1.109375 L 14.625 1.140625 C 14.625 1.234375 14.546875 1.3125 14.453125 1.3125 L 9.921875 1.3125 C 9.828125 1.3125 9.75 1.234375 9.75 1.140625 L 9.75 1.109375 C 9.75 1.015625 9.828125 0.9375 9.921875 0.9375 Z M 9.921875 0.9375 "/>
</g>
</svg>
