
<svg xmlns="http://www.w3.org/2000/svg" xmlns:xlink="http://www.w3.org/1999/xlink" width="24px" height="24px" viewBox="0 0 24 24" version="1.1">
<defs>
<filter id="alpha" filterUnits="objectBoundingBox" x="0%" y="0%" width="100%" height="100%">
  <feColorMatrix type="matrix" in="SourceGraphic" values="0 0 0 0 1 0 0 0 0 1 0 0 0 0 1 0 0 0 1 0"/>
</filter>
<mask id="mask0">
  <g filter="url(#alpha)">
<rect x="0" y="0" width="24" height="24" style="fill:rgb(0%,0%,0%);fill-opacity:0.427;stroke:none;"/>
  </g>
</mask>
<radialGradient id="radial0" gradientUnits="userSpaceOnUse" cx="65" cy="118" fx="65" fy="118" r="45" gradientTransform="matrix(0.146675,0,0,0.0416667,2.466152,17.208333)">
<stop offset="0" style="stop-color:rgb(0%,0%,0%);stop-opacity:1;"/>
<stop offset="1" style="stop-color:rgb(0%,0%,0%);stop-opacity:0;"/>
</radialGradient>
<clipPath id="clip1">
  <rect x="0" y="0" width="24" height="24"/>
</clipPath>
<g id="surface5" clip-path="url(#clip1)">
<path style=" stroke:none;fill-rule:nonzero;fill:url(#radial0);" d="M 18.601562 22.125 C 18.601562 23.160156 15.644531 24 12 24 C 8.355469 24 5.398438 23.160156 5.398438 22.125 C 5.398438 21.089844 8.355469 20.25 12 20.25 C 15.644531 20.25 18.601562 21.089844 18.601562 22.125 Z M 18.601562 22.125 "/>
</g>
<mask id="mask1">
  <g filter="url(#alpha)">
<rect x="0" y="0" width="24" height="24" style="fill:rgb(0%,0%,0%);fill-opacity:0.98;stroke:none;"/>
  </g>
</mask>
<clipPath id="clip2">
  <rect x="0" y="0" width="24" height="24"/>
</clipPath>
<g id="surface8" clip-path="url(#clip2)">
<path style=" stroke:none;fill-rule:nonzero;fill:rgb(60.000002%,60.000002%,60.000002%);fill-opacity:1;" d="M 11.15625 0.5625 L 13.03125 0.5625 C 13.1875 0.5625 13.3125 0.6875 13.3125 0.84375 C 13.3125 1 13.1875 1.125 13.03125 1.125 L 11.15625 1.125 C 11 1.125 10.875 1 10.875 0.84375 C 10.875 0.6875 11 0.5625 11.15625 0.5625 Z M 11.15625 0.5625 "/>
</g>
<mask id="mask2">
  <g filter="url(#alpha)">
<rect x="0" y="0" width="24" height="24" style="fill:rgb(0%,0%,0%);fill-opacity:0.98;stroke:none;"/>
  </g>
</mask>
<clipPath id="clip3">
  <rect x="0" y="0" width="24" height="24"/>
</clipPath>
<g id="surface11" clip-path="url(#clip3)">
<path style=" stroke:none;fill-rule:nonzero;fill:rgb(10.196079%,10.196079%,10.196079%);fill-opacity:1;" d="M 15.75 0.75 C 15.75 0.855469 15.667969 0.9375 15.5625 0.9375 C 15.457031 0.9375 15.375 0.855469 15.375 0.75 C 15.375 0.644531 15.457031 0.5625 15.5625 0.5625 C 15.667969 0.5625 15.75 0.644531 15.75 0.75 Z M 15.75 0.75 "/>
</g>
<mask id="mask3">
  <g filter="url(#alpha)">
<rect x="0" y="0" width="24" height="24" style="fill:rgb(0%,0%,0%);fill-opacity:0.98;stroke:none;"/>
  </g>
</mask>
<clipPath id="clip4">
  <rect x="0" y="0" width="24" height="24"/>
</clipPath>
<g id="surface14" clip-path="url(#clip4)">
<path style=" stroke:none;fill-rule:nonzero;fill:rgb(10.196079%,10.196079%,10.196079%);fill-opacity:1;" d="M 14.4375 0.5625 C 14.4375 0.667969 14.355469 0.75 14.25 0.75 C 14.144531 0.75 14.0625 0.667969 14.0625 0.5625 C 14.0625 0.457031 14.144531 0.375 14.25 0.375 C 14.355469 0.375 14.4375 0.457031 14.4375 0.5625 Z M 14.4375 0.5625 "/>
</g>
<mask id="mask4">
  <g filter="url(#alpha)">
<rect x="0" y="0" width="24" height="24" style="fill:rgb(0%,0%,0%);fill-opacity:0.98;stroke:none;"/>
  </g>
</mask>
<clipPath id="clip5">
  <rect x="0" y="0" width="24" height="24"/>
</clipPath>
<g id="surface17" clip-path="url(#clip5)">
<path style=" stroke:none;fill-rule:nonzero;fill:rgb(10.196079%,10.196079%,10.196079%);fill-opacity:1;" d="M 13.875 0.5625 C 13.875 0.667969 13.792969 0.75 13.6875 0.75 C 13.582031 0.75 13.5 0.667969 13.5 0.5625 C 13.5 0.457031 13.582031 0.375 13.6875 0.375 C 13.792969 0.375 13.875 0.457031 13.875 0.5625 Z M 13.875 0.5625 "/>
</g>
<mask id="mask5">
  <g filter="url(#alpha)">
<rect x="0" y="0" width="24" height="24" style="fill:rgb(0%,0%,0%);fill-opacity:0.98;stroke:none;"/>
  </g>
</mask>
<clipPath id="clip6">
  <rect x="0" y="0" width="24" height="24"/>
</clipPath>
<g id="surface20" clip-path="url(#clip6)">
<path style=" stroke:none;fill-rule:nonzero;fill:rgb(10.196079%,10.196079%,10.196079%);fill-opacity:1;" d="M 10.3125 0.5625 C 10.3125 0.667969 10.230469 0.75 10.125 0.75 C 10.019531 0.75 9.9375 0.667969 9.9375 0.5625 C 9.9375 0.457031 10.019531 0.375 10.125 0.375 C 10.230469 0.375 10.3125 0.457031 10.3125 0.5625 Z M 10.3125 0.5625 "/>
</g>
<mask id="mask6">
  <g filter="url(#alpha)">
<rect x="0" y="0" width="24" height="24" style="fill:rgb(0%,0%,0%);fill-opacity:0.98;stroke:none;"/>
  </g>
</mask>
<clipPath id="clip7">
  <rect x="0" y="0" width="24" height="24"/>
</clipPath>
<g id="surface23" clip-path="url(#clip7)">
<path style=" stroke:none;fill-rule:nonzero;fill:rgb(10.196079%,10.196079%,10.196079%);fill-opacity:1;" d="M 7.125 2.0625 L 16.875 2.0625 C 16.980469 2.0625 17.0625 2.144531 17.0625 2.25 L 17.0625 19.875 C 17.0625 19.980469 16.980469 20.0625 16.875 20.0625 L 7.125 20.0625 C 7.019531 20.0625 6.9375 19.980469 6.9375 19.875 L 6.9375 2.25 C 6.9375 2.144531 7.019531 2.0625 7.125 2.0625 Z M 7.125 2.0625 "/>
</g>
<linearGradient id="linear0" gradientUnits="userSpaceOnUse" x1="506.450348" y1="1024.094482" x2="-334.104065" y2="535.196533" gradientTransform="matrix(0.1875,0,0,0.1875,0.000000377084,-0.000000358437)">
<stop offset="0" style="stop-color:rgb(100%,100%,100%);stop-opacity:1;"/>
<stop offset="1" style="stop-color:rgb(100%,100%,100%);stop-opacity:0;"/>
</linearGradient>
</defs>
<g id="surface1">
<path style=" stroke:none;fill-rule:nonzero;fill:rgb(60.000002%,60.000002%,60.000002%);fill-opacity:1;" d="M 17.625 5.0625 C 17.730469 5.0625 17.8125 5.144531 17.8125 5.25 L 17.8125 6.9375 C 17.8125 7.042969 17.730469 7.125 17.625 7.125 C 17.519531 7.125 17.4375 7.042969 17.4375 6.9375 L 17.4375 5.25 C 17.4375 5.144531 17.519531 5.0625 17.625 5.0625 Z M 17.625 5.0625 "/>
<path style=" stroke:none;fill-rule:nonzero;fill:rgb(60.000002%,60.000002%,60.000002%);fill-opacity:1;" d="M 6.375 3.375 C 6.480469 3.375 6.5625 3.457031 6.5625 3.5625 L 6.5625 6.9375 C 6.5625 7.042969 6.480469 7.125 6.375 7.125 C 6.269531 7.125 6.1875 7.042969 6.1875 6.9375 L 6.1875 3.5625 C 6.1875 3.457031 6.269531 3.375 6.375 3.375 Z M 6.375 3.375 "/>
<use xlink:href="#surface5" mask="url(#mask0)"/>
<path style="fill-rule:nonzero;fill:rgb(90.196079%,90.196079%,90.196079%);fill-opacity:1;stroke-width:13.961003;stroke-linecap:round;stroke-linejoin:round;stroke:rgb(45.09804%,45.09804%,45.09804%);stroke-opacity:1;stroke-miterlimit:4;" d="M 305.94311 360.590178 L 305.651251 360.881189 C 181.611101 360.881189 9.122327 350.695816 9.122327 502.312368 L 9.122327 1853.183836 C 9.122327 2004.800388 181.611101 1994.906026 305.651251 1994.615015 L 305.94311 1994.906026 L 538.846733 1994.906026 L 539.138593 1994.615015 C 663.178743 1994.615015 835.667516 2004.800388 835.667516 1853.183836 L 835.667516 502.021358 C 835.667516 350.695816 663.178743 360.881189 539.138593 360.881189 L 538.846733 360.590178 Z M 305.94311 360.590178 " transform="matrix(0.013384,0,0,0.013423,6.346657,-4.746469)"/>
<path style=" stroke:none;fill-rule:nonzero;fill:rgb(50.196081%,50.196081%,50.196081%);fill-opacity:1;" d="M 10.484375 1.53125 L 10.601562 1.53125 C 10.597656 1.570312 10.601562 1.601562 10.628906 1.609375 C 10.636719 1.613281 10.644531 1.609375 10.65625 1.609375 C 10.664062 1.605469 10.671875 1.601562 10.675781 1.59375 C 10.683594 1.589844 10.683594 1.582031 10.6875 1.574219 C 10.691406 1.554688 10.683594 1.542969 10.664062 1.53125 C 10.597656 1.46875 10.484375 1.464844 10.488281 1.347656 C 10.488281 1.269531 10.542969 1.234375 10.636719 1.230469 C 10.773438 1.230469 10.792969 1.292969 10.785156 1.367188 L 10.675781 1.367188 C 10.675781 1.335938 10.675781 1.304688 10.636719 1.304688 C 10.613281 1.304688 10.609375 1.316406 10.601562 1.332031 C 10.597656 1.363281 10.613281 1.371094 10.625 1.382812 C 10.691406 1.433594 10.808594 1.453125 10.796875 1.5625 C 10.800781 1.648438 10.746094 1.6875 10.648438 1.691406 C 10.570312 1.691406 10.542969 1.675781 10.519531 1.65625 C 10.492188 1.628906 10.480469 1.601562 10.484375 1.53125 Z M 10.484375 1.53125 "/>
<path style=" stroke:none;fill-rule:nonzero;fill:rgb(50.196081%,50.196081%,50.196081%);fill-opacity:1;" d="M 10.984375 1.675781 L 10.867188 1.675781 L 10.945312 1.242188 L 11.136719 1.242188 L 11.21875 1.675781 L 11.097656 1.675781 L 11.042969 1.285156 Z M 10.984375 1.675781 "/>
<path style=" stroke:none;fill-rule:nonzero;fill:rgb(50.196081%,50.196081%,50.196081%);fill-opacity:1;" d="M 11.300781 1.675781 L 11.3125 1.242188 L 11.484375 1.242188 L 11.539062 1.574219 L 11.59375 1.242188 L 11.769531 1.242188 L 11.78125 1.675781 L 11.671875 1.675781 L 11.667969 1.289062 L 11.597656 1.675781 L 11.484375 1.675781 L 11.414062 1.292969 L 11.40625 1.675781 Z M 11.300781 1.675781 "/>
<path style=" stroke:none;fill-rule:nonzero;fill:rgb(50.196081%,50.196081%,50.196081%);fill-opacity:1;" d="M 11.882812 1.535156 L 11.996094 1.535156 C 11.996094 1.570312 12 1.605469 12.023438 1.613281 C 12.035156 1.613281 12.042969 1.613281 12.050781 1.609375 C 12.0625 1.609375 12.070312 1.605469 12.074219 1.597656 C 12.078125 1.589844 12.082031 1.582031 12.082031 1.578125 C 12.085938 1.558594 12.078125 1.542969 12.0625 1.53125 C 11.996094 1.472656 11.882812 1.46875 11.882812 1.347656 C 11.886719 1.273438 11.9375 1.238281 12.035156 1.230469 C 12.171875 1.230469 12.191406 1.292969 12.183594 1.371094 L 12.074219 1.371094 C 12.074219 1.335938 12.070312 1.304688 12.035156 1.304688 C 12.007812 1.304688 12.003906 1.320312 12 1.332031 C 11.992188 1.367188 12.007812 1.371094 12.019531 1.382812 C 12.089844 1.4375 12.207031 1.457031 12.195312 1.5625 C 12.195312 1.648438 12.144531 1.691406 12.042969 1.691406 C 11.96875 1.691406 11.9375 1.675781 11.914062 1.65625 C 11.890625 1.628906 11.878906 1.605469 11.882812 1.535156 Z M 11.882812 1.535156 "/>
<path style=" stroke:none;fill-rule:nonzero;fill:rgb(50.196081%,50.196081%,50.196081%);fill-opacity:1;" d="M 12.398438 1.242188 L 12.289062 1.242188 L 12.289062 1.570312 C 12.296875 1.65625 12.347656 1.691406 12.421875 1.691406 C 12.441406 1.6875 12.457031 1.6875 12.46875 1.6875 C 12.546875 1.6875 12.589844 1.636719 12.59375 1.5625 L 12.59375 1.242188 L 12.480469 1.242188 L 12.480469 1.546875 C 12.480469 1.558594 12.480469 1.570312 12.480469 1.578125 C 12.480469 1.59375 12.472656 1.601562 12.460938 1.609375 C 12.449219 1.613281 12.4375 1.613281 12.425781 1.609375 C 12.410156 1.605469 12.40625 1.597656 12.402344 1.589844 C 12.398438 1.574219 12.398438 1.554688 12.398438 1.53125 Z M 12.398438 1.242188 "/>
<path style=" stroke:none;fill-rule:nonzero;fill:rgb(50.196081%,50.196081%,50.196081%);fill-opacity:1;" d="M 12.710938 1.675781 L 12.710938 1.242188 L 12.871094 1.242188 L 12.972656 1.582031 L 12.972656 1.242188 L 13.074219 1.242188 L 13.074219 1.675781 L 12.921875 1.675781 L 12.8125 1.324219 L 12.8125 1.675781 Z M 12.710938 1.675781 "/>
<path style=" stroke:none;fill-rule:nonzero;fill:rgb(50.196081%,50.196081%,50.196081%);fill-opacity:1;" d="M 13.378906 1.382812 L 13.484375 1.382812 C 13.488281 1.296875 13.460938 1.226562 13.339844 1.230469 C 13.222656 1.226562 13.179688 1.285156 13.183594 1.390625 L 13.183594 1.558594 C 13.183594 1.652344 13.25 1.679688 13.335938 1.679688 C 13.433594 1.683594 13.484375 1.644531 13.488281 1.5625 L 13.488281 1.433594 L 13.335938 1.433594 L 13.335938 1.496094 L 13.375 1.496094 L 13.375 1.5625 C 13.375 1.597656 13.359375 1.605469 13.339844 1.605469 C 13.304688 1.609375 13.296875 1.589844 13.289062 1.570312 L 13.289062 1.355469 C 13.292969 1.324219 13.304688 1.304688 13.339844 1.308594 C 13.355469 1.308594 13.375 1.3125 13.378906 1.347656 Z M 13.378906 1.382812 "/>
<use xlink:href="#surface8" mask="url(#mask1)"/>
<path style=" stroke:none;fill-rule:nonzero;fill:rgb(30.19608%,30.19608%,30.19608%);fill-opacity:1;" d="M 11.25 0.84375 C 11.25 0.878906 11.230469 0.90625 11.203125 0.925781 C 11.175781 0.941406 11.136719 0.941406 11.109375 0.925781 C 11.082031 0.90625 11.0625 0.878906 11.0625 0.84375 C 11.0625 0.808594 11.082031 0.78125 11.109375 0.761719 C 11.136719 0.746094 11.175781 0.746094 11.203125 0.761719 C 11.230469 0.78125 11.25 0.808594 11.25 0.84375 Z M 11.25 0.84375 "/>
<path style=" stroke:none;fill-rule:nonzero;fill:rgb(30.19608%,30.19608%,30.19608%);fill-opacity:1;" d="M 11.625 0.84375 C 11.625 0.878906 11.605469 0.90625 11.578125 0.925781 C 11.550781 0.941406 11.511719 0.941406 11.484375 0.925781 C 11.457031 0.90625 11.4375 0.878906 11.4375 0.84375 C 11.4375 0.808594 11.457031 0.78125 11.484375 0.761719 C 11.511719 0.746094 11.550781 0.746094 11.578125 0.761719 C 11.605469 0.78125 11.625 0.808594 11.625 0.84375 Z M 11.625 0.84375 "/>
<path style=" stroke:none;fill-rule:nonzero;fill:rgb(30.19608%,30.19608%,30.19608%);fill-opacity:1;" d="M 12 0.84375 C 12 0.878906 11.980469 0.90625 11.953125 0.925781 C 11.925781 0.941406 11.886719 0.941406 11.859375 0.925781 C 11.832031 0.90625 11.8125 0.878906 11.8125 0.84375 C 11.8125 0.808594 11.832031 0.78125 11.859375 0.761719 C 11.886719 0.746094 11.925781 0.746094 11.953125 0.761719 C 11.980469 0.78125 12 0.808594 12 0.84375 Z M 12 0.84375 "/>
<path style=" stroke:none;fill-rule:nonzero;fill:rgb(30.19608%,30.19608%,30.19608%);fill-opacity:1;" d="M 12.375 0.84375 C 12.375 0.878906 12.355469 0.90625 12.328125 0.925781 C 12.300781 0.941406 12.261719 0.941406 12.234375 0.925781 C 12.207031 0.90625 12.1875 0.878906 12.1875 0.84375 C 12.1875 0.808594 12.207031 0.78125 12.234375 0.761719 C 12.261719 0.746094 12.300781 0.746094 12.328125 0.761719 C 12.355469 0.78125 12.375 0.808594 12.375 0.84375 Z M 12.375 0.84375 "/>
<path style=" stroke:none;fill-rule:nonzero;fill:rgb(30.19608%,30.19608%,30.19608%);fill-opacity:1;" d="M 12.75 0.84375 C 12.75 0.878906 12.730469 0.90625 12.703125 0.925781 C 12.675781 0.941406 12.636719 0.941406 12.609375 0.925781 C 12.582031 0.90625 12.5625 0.878906 12.5625 0.84375 C 12.5625 0.808594 12.582031 0.78125 12.609375 0.761719 C 12.636719 0.746094 12.675781 0.746094 12.703125 0.761719 C 12.730469 0.78125 12.75 0.808594 12.75 0.84375 Z M 12.75 0.84375 "/>
<path style=" stroke:none;fill-rule:nonzero;fill:rgb(30.19608%,30.19608%,30.19608%);fill-opacity:1;" d="M 13.125 0.84375 C 13.125 0.878906 13.105469 0.90625 13.078125 0.925781 C 13.050781 0.941406 13.011719 0.941406 12.984375 0.925781 C 12.957031 0.90625 12.9375 0.878906 12.9375 0.84375 C 12.9375 0.808594 12.957031 0.78125 12.984375 0.761719 C 13.011719 0.746094 13.050781 0.746094 13.078125 0.761719 C 13.105469 0.78125 13.125 0.808594 13.125 0.84375 Z M 13.125 0.84375 "/>
<use xlink:href="#surface11" mask="url(#mask2)"/>
<use xlink:href="#surface14" mask="url(#mask3)"/>
<use xlink:href="#surface17" mask="url(#mask4)"/>
<use xlink:href="#surface20" mask="url(#mask5)"/>
<use xlink:href="#surface23" mask="url(#mask6)"/>
<path style="fill-rule:nonzero;fill:rgb(90.196079%,90.196079%,90.196079%);fill-opacity:1;stroke-width:1;stroke-linecap:round;stroke-linejoin:round;stroke:rgb(63.529414%,63.529414%,63.529414%);stroke-opacity:1;stroke-miterlimit:4;" d="M 58.854167 110.583333 L 70.145833 110.583333 C 70.854167 110.583333 71.416667 111.145833 71.416667 111.854167 L 71.416667 113.145833 C 71.416667 113.854167 70.854167 114.416667 70.145833 114.416667 L 58.854167 114.416667 C 58.145833 114.416667 57.583333 113.854167 57.583333 113.145833 L 57.583333 111.854167 C 57.583333 111.145833 58.145833 110.583333 58.854167 110.583333 Z M 58.854167 110.583333 " transform="matrix(0.1875,0,0,0.1875,0,0)"/>
<path style=" stroke:none;fill-rule:nonzero;fill:url(#linear0);" d="M 10.441406 0.09375 L 10.4375 0.0976562 C 8.777344 0.09375 6.46875 -0.0390625 6.46875 1.996094 L 6.46875 17.175781 C 9.59375 14.132812 11.71875 7.585938 12.011719 0.09375 C 11.480469 0.09375 10.910156 0.09375 10.441406 0.09375 Z M 10.441406 0.09375 "/>
</g>
</svg>
