
<svg xmlns="http://www.w3.org/2000/svg" xmlns:xlink="http://www.w3.org/1999/xlink" width="24px" height="24px" viewBox="0 0 24 24" version="1.1">
<defs>
<filter id="alpha" filterUnits="objectBoundingBox" x="0%" y="0%" width="100%" height="100%">
  <feColorMatrix type="matrix" in="SourceGraphic" values="0 0 0 0 1 0 0 0 0 1 0 0 0 0 1 0 0 0 1 0"/>
</filter>
<mask id="mask0">
  <g filter="url(#alpha)">
<rect x="0" y="0" width="24" height="24" style="fill:rgb(0%,0%,0%);fill-opacity:0.402062;stroke:none;"/>
  </g>
</mask>
<linearGradient id="linear0" gradientUnits="userSpaceOnUse" x1="302.857147" y1="366.647888" x2="302.857147" y2="609.505066" gradientTransform="matrix(0.0198539,0,0,0.0123698,4.824247,16.436556)">
<stop offset="0" style="stop-color:rgb(0%,0%,0%);stop-opacity:0;"/>
<stop offset="0.5" style="stop-color:rgb(0%,0%,0%);stop-opacity:1;"/>
<stop offset="1" style="stop-color:rgb(0%,0%,0%);stop-opacity:0;"/>
</linearGradient>
<clipPath id="clip1">
  <rect x="0" y="0" width="24" height="24"/>
</clipPath>
<g id="surface5" clip-path="url(#clip1)">
<path style=" stroke:none;fill-rule:nonzero;fill:url(#linear0);" d="M 7.207031 20.972656 L 16.792969 20.972656 L 16.792969 23.976562 L 7.207031 23.976562 Z M 7.207031 20.972656 "/>
</g>
<mask id="mask1">
  <g filter="url(#alpha)">
<rect x="0" y="0" width="24" height="24" style="fill:rgb(0%,0%,0%);fill-opacity:0.402062;stroke:none;"/>
  </g>
</mask>
<radialGradient id="radial0" gradientUnits="userSpaceOnUse" cx="605.714294" cy="486.647888" fx="605.714294" fy="486.647888" r="117.14286" gradientTransform="matrix(0.0198539,0,0,0.0123698,4.828154,16.436556)">
<stop offset="0" style="stop-color:rgb(0%,0%,0%);stop-opacity:1;"/>
<stop offset="1" style="stop-color:rgb(0%,0%,0%);stop-opacity:0;"/>
</radialGradient>
<clipPath id="clip2">
  <rect x="0" y="0" width="24" height="24"/>
</clipPath>
<g id="surface8" clip-path="url(#clip2)">
<path style=" stroke:none;fill-rule:nonzero;fill:url(#radial0);" d="M 16.792969 20.972656 C 16.792969 20.972656 16.792969 23.976562 16.792969 23.976562 C 17.816406 23.980469 19.265625 23.304688 19.265625 22.472656 C 19.265625 21.644531 18.125 20.972656 16.792969 20.972656 Z M 16.792969 20.972656 "/>
</g>
<mask id="mask2">
  <g filter="url(#alpha)">
<rect x="0" y="0" width="24" height="24" style="fill:rgb(0%,0%,0%);fill-opacity:0.402062;stroke:none;"/>
  </g>
</mask>
<radialGradient id="radial1" gradientUnits="userSpaceOnUse" cx="605.714294" cy="486.647888" fx="605.714294" fy="486.647888" r="117.14286" gradientTransform="matrix(-0.0198539,0,0,0.0123698,19.171848,16.436556)">
<stop offset="0" style="stop-color:rgb(0%,0%,0%);stop-opacity:1;"/>
<stop offset="1" style="stop-color:rgb(0%,0%,0%);stop-opacity:0;"/>
</radialGradient>
<clipPath id="clip3">
  <rect x="0" y="0" width="24" height="24"/>
</clipPath>
<g id="surface11" clip-path="url(#clip3)">
<path style=" stroke:none;fill-rule:nonzero;fill:url(#radial1);" d="M 7.207031 20.972656 C 7.207031 20.972656 7.207031 23.976562 7.207031 23.976562 C 6.183594 23.980469 4.734375 23.304688 4.734375 22.472656 C 4.734375 21.644531 5.875 20.972656 7.207031 20.972656 Z M 7.207031 20.972656 "/>
</g>
<linearGradient id="linear1" gradientUnits="userSpaceOnUse" x1="-301.943359" y1="152.961334" x2="-245.238678" y2="134.961334" gradientTransform="matrix(0.0600028,0,0,0.0616393,30.5267,6.806197)">
<stop offset="0" style="stop-color:rgb(37.254903%,37.254903%,37.254903%);stop-opacity:1;"/>
<stop offset="1" style="stop-color:rgb(14.509805%,14.509805%,14.509805%);stop-opacity:1;"/>
</linearGradient>
<linearGradient id="linear2" gradientUnits="userSpaceOnUse" x1="-393.433197" y1="67.439331" x2="-221.40564" y2="68.025116" gradientTransform="matrix(0.985476,0,0,1,-5.787069,0)">
<stop offset="0" style="stop-color:rgb(24.705882%,24.705882%,24.705882%);stop-opacity:1;"/>
<stop offset="0.360932" style="stop-color:rgb(23.529412%,23.529412%,23.529412%);stop-opacity:1;"/>
<stop offset="0.660323" style="stop-color:rgb(18.039216%,18.039216%,18.039216%);stop-opacity:1;"/>
<stop offset="1" style="stop-color:rgb(12.54902%,12.54902%,12.54902%);stop-opacity:1;"/>
</linearGradient>
<linearGradient id="linear3" gradientUnits="userSpaceOnUse" x1="-397.0625" y1="72.4375" x2="-212.125" y2="72.4375" gradientTransform="matrix(1,0,0,1,0,0)">
<stop offset="0" style="stop-color:rgb(67.843139%,67.843139%,67.843139%);stop-opacity:1;"/>
<stop offset="1" style="stop-color:rgb(26.274511%,26.274511%,26.274511%);stop-opacity:1;"/>
</linearGradient>
<radialGradient id="radial2" gradientUnits="userSpaceOnUse" cx="-398" cy="257.924438" fx="-398" fy="257.924438" r="2.3125" gradientTransform="matrix(0.352176,0,0,0.401263,206.284637,9.005733)">
<stop offset="0" style="stop-color:rgb(35.686275%,35.686275%,35.686275%);stop-opacity:1;"/>
<stop offset="1" style="stop-color:rgb(0%,0%,0%);stop-opacity:1;"/>
</radialGradient>
<linearGradient id="linear4" gradientUnits="userSpaceOnUse" x1="-396.625" y1="260.445831" x2="-399.5625" y2="258.258331" gradientTransform="matrix(0.501174,0,0,0.283786,265.585663,39.264446)">
<stop offset="0" style="stop-color:rgb(100%,100%,100%);stop-opacity:1;"/>
<stop offset="1" style="stop-color:rgb(5.098039%,5.098039%,5.098039%);stop-opacity:1;"/>
</linearGradient>
<linearGradient id="linear5" gradientUnits="userSpaceOnUse" x1="-307.512421" y1="224.499695" x2="-307.326416" y2="-102.18364" gradientTransform="matrix(0.0646478,0,0,0.0616692,31.691136,6.811399)">
<stop offset="0" style="stop-color:rgb(1.176471%,1.176471%,1.176471%);stop-opacity:1;"/>
<stop offset="1" style="stop-color:rgb(21.960784%,21.960784%,21.960784%);stop-opacity:0;"/>
</linearGradient>
<linearGradient id="linear6" gradientUnits="userSpaceOnUse" x1="-389.486542" y1="65.211327" x2="-175.064072" y2="61.538403" gradientTransform="matrix(0.350266,0,0,0.31895,170.729767,35.395191)">
<stop offset="0" style="stop-color:rgb(80.392158%,80.392158%,80.392158%);stop-opacity:1;"/>
<stop offset="1" style="stop-color:rgb(18.82353%,18.82353%,18.82353%);stop-opacity:1;"/>
</linearGradient>
<linearGradient id="linear7" gradientUnits="userSpaceOnUse" x1="-400.995178" y1="189.645706" x2="-222.533722" y2="218.645706" gradientTransform="matrix(0.0594461,0,0,0.0821266,29.695719,2.252269)">
<stop offset="0" style="stop-color:rgb(67.058825%,67.058825%,67.058825%);stop-opacity:1;"/>
<stop offset="1" style="stop-color:rgb(86.274511%,86.274511%,86.274511%);stop-opacity:0;"/>
</linearGradient>
<linearGradient id="linear8" gradientUnits="userSpaceOnUse" x1="-314.028534" y1="-83.613548" x2="-314.028534" y2="-75.273575" gradientTransform="matrix(0.293817,0,0,0.379668,153.479797,38.888062)">
<stop offset="0" style="stop-color:rgb(0%,0%,0%);stop-opacity:1;"/>
<stop offset="1" style="stop-color:rgb(11.764706%,11.764706%,11.764706%);stop-opacity:1;"/>
</linearGradient>
<linearGradient id="linear9" gradientUnits="userSpaceOnUse" x1="-305.528534" y1="-78.313988" x2="-305.528534" y2="-85.985588" gradientTransform="matrix(0.293817,0,0,0.379668,153.479797,38.888062)">
<stop offset="0" style="stop-color:rgb(18.431373%,18.431373%,18.431373%);stop-opacity:1;"/>
<stop offset="1" style="stop-color:rgb(0%,0%,0%);stop-opacity:1;"/>
</linearGradient>
<mask id="mask3">
  <g filter="url(#alpha)">
<rect x="0" y="0" width="24" height="24" style="fill:rgb(0%,0%,0%);fill-opacity:0.1;stroke:none;"/>
  </g>
</mask>
<linearGradient id="linear10" gradientUnits="userSpaceOnUse" x1="-282.75" y1="4.70304" x2="-362.78125" y2="11.71875" gradientTransform="matrix(0.0574504,0,0,0.0622407,29.742534,6.869498)">
<stop offset="0" style="stop-color:rgb(100%,100%,100%);stop-opacity:1;"/>
<stop offset="1" style="stop-color:rgb(100%,100%,100%);stop-opacity:0;"/>
</linearGradient>
<clipPath id="clip4">
  <rect x="0" y="0" width="24" height="24"/>
</clipPath>
<g id="surface14" clip-path="url(#clip4)">
<path style=" stroke:none;fill-rule:nonzero;fill:url(#linear10);" d="M 7.683594 0.851562 C 7.53125 0.851562 7.410156 1.023438 7.410156 1.242188 L 7.410156 20.304688 C 7.410156 20.519531 7.53125 20.695312 7.683594 20.695312 L 10.105469 20.695312 C 11.019531 14.082031 11.667969 7.464844 12.058594 0.851562 Z M 7.683594 0.851562 "/>
</g>
</defs>
<g id="surface1">
<use xlink:href="#surface5" mask="url(#mask0)"/>
<use xlink:href="#surface8" mask="url(#mask1)"/>
<use xlink:href="#surface11" mask="url(#mask2)"/>
<path style=" stroke:none;fill-rule:nonzero;fill:url(#linear1);" d="M 7.394531 0.316406 L 17.105469 0.316406 C 17.535156 0.316406 17.882812 0.664062 17.882812 1.09375 L 17.882812 21.699219 C 17.882812 22.125 17.535156 22.472656 17.105469 22.472656 L 7.394531 22.472656 C 6.964844 22.472656 6.617188 22.125 6.617188 21.699219 L 6.617188 1.09375 C 6.617188 0.664062 6.964844 0.316406 7.394531 0.316406 Z M 7.394531 0.316406 "/>
<path style="fill-rule:nonzero;fill:url(#linear2);stroke-width:1.493298;stroke-linecap:butt;stroke-linejoin:miter;stroke:rgb(0%,0%,0%);stroke-opacity:1;stroke-miterlimit:4;" d="M -385.689612 -110.047758 L -226.218875 -110.047758 C -219.209172 -110.047758 -213.484581 -104.311765 -213.484581 -97.237372 L -213.484581 242.142263 C -213.484581 249.216655 -219.209172 254.888916 -226.218875 254.888916 L -385.689612 254.888916 C -392.699315 254.888916 -398.423905 249.216655 -398.423905 242.142263 L -398.423905 -97.237372 C -398.423905 -104.311765 -392.699315 -110.047758 -385.689612 -110.047758 Z M -385.689612 -110.047758 " transform="matrix(0.0668716,0,0,0.0612906,32.514336,6.815206)"/>
<path style="fill:none;stroke-width:0.0365266;stroke-linecap:butt;stroke-linejoin:miter;stroke:url(#linear3);stroke-miterlimit:4;" d="M -385.631198 -108.32696 C -391.823102 -108.32696 -396.729894 -103.419499 -396.729894 -97.237372 L -396.729894 242.142263 C -396.729894 248.260656 -391.823102 253.168118 -385.631198 253.168118 L -223.473408 253.168118 C -217.339918 253.168118 -212.49154 248.260656 -212.49154 242.142263 L -212.49154 -97.237372 C -212.49154 -103.419499 -217.339918 -108.32696 -223.473408 -108.32696 Z M -385.631198 -108.32696 " transform="matrix(0.0668716,0,0,0.0612906,32.514336,6.815206)"/>
<path style="fill-rule:nonzero;fill:url(#radial2);stroke-width:1;stroke-linecap:round;stroke-linejoin:round;stroke:url(#linear4);stroke-miterlimit:4;" d="M 64.9375 111.541667 L 65.729167 111.541667 C 66.0625 111.541667 66.3125 111.791667 66.3125 112.104167 L 66.3125 112.604167 C 66.3125 112.916667 66.0625 113.1875 65.729167 113.1875 L 64.9375 113.1875 C 64.625 113.1875 64.354167 112.916667 64.354167 112.604167 L 64.354167 112.104167 C 64.354167 111.791667 64.625 111.541667 64.9375 111.541667 Z M 64.9375 111.541667 " transform="matrix(0.1875,0,0,0.1875,0,0)"/>
<path style=" stroke:none;fill-rule:nonzero;fill:url(#linear5);" d="M 6.363281 13.605469 L 6.234375 20.421875 L 6.234375 20.5625 C 6.234375 20.785156 6.378906 20.96875 6.5625 20.96875 L 17.429688 20.96875 C 17.609375 20.96875 17.757812 20.785156 17.757812 20.5625 L 17.605469 13.605469 Z M 6.363281 13.605469 "/>
<path style="fill-rule:nonzero;fill:rgb(1.176471%,1.176471%,1.176471%);fill-opacity:1;stroke-width:1;stroke-linecap:square;stroke-linejoin:miter;stroke:url(#linear6);stroke-miterlimit:4;" d="M 36.25 4.541667 L 91.833333 4.541667 C 92.770833 4.541667 93.520833 5.458333 93.520833 6.583333 L 93.520833 105.791667 C 93.520833 106.9375 92.770833 107.854167 91.833333 107.854167 L 36.25 107.854167 C 35.3125 107.854167 34.5625 106.9375 34.5625 105.791667 L 34.5625 6.583333 C 34.5625 5.458333 35.3125 4.541667 36.25 4.541667 Z M 36.25 4.541667 " transform="matrix(0.1875,0,0,0.1875,0,0)"/>
<path style=" stroke:none;fill-rule:nonzero;fill:rgb(57.647061%,58.039218%,60.000002%);fill-opacity:1;" d="M 13.125 2.449219 C 12.960938 2.445312 12.796875 2.535156 12.757812 2.667969 C 12.722656 2.792969 12.800781 2.894531 12.953125 2.921875 C 13.0625 2.941406 13.199219 2.910156 13.28125 2.851562 C 13.441406 2.738281 13.441406 2.550781 13.285156 2.480469 C 13.234375 2.457031 13.179688 2.449219 13.125 2.449219 Z M 10.585938 2.449219 C 10.476562 2.449219 10.367188 2.484375 10.300781 2.550781 C 10.148438 2.691406 10.210938 2.882812 10.417969 2.921875 C 10.480469 2.933594 10.582031 2.925781 10.648438 2.902344 C 10.875 2.832031 10.945312 2.578125 10.761719 2.488281 C 10.710938 2.460938 10.648438 2.449219 10.585938 2.449219 Z M 11.796875 2.449219 C 11.773438 2.449219 11.75 2.449219 11.730469 2.453125 C 11.558594 2.476562 11.429688 2.589844 11.429688 2.71875 C 11.429688 2.824219 11.507812 2.902344 11.640625 2.921875 C 11.78125 2.945312 11.933594 2.894531 12.019531 2.800781 C 12.066406 2.746094 12.085938 2.691406 12.078125 2.625 C 12.066406 2.519531 11.949219 2.449219 11.796875 2.449219 Z M 14.378906 2.464844 L 14.273438 2.464844 L 14.171875 2.46875 L 14.03125 2.683594 C 13.953125 2.800781 13.886719 2.902344 13.886719 2.90625 C 13.886719 2.910156 13.921875 2.914062 13.960938 2.914062 L 14.035156 2.914062 L 14.0625 2.871094 L 14.085938 2.832031 L 14.285156 2.832031 L 14.292969 2.871094 L 14.296875 2.910156 L 14.386719 2.910156 L 14.476562 2.914062 L 14.472656 2.894531 C 14.46875 2.882812 14.449219 2.78125 14.421875 2.667969 Z M 9.664062 2.464844 C 9.566406 2.464844 9.554688 2.464844 9.550781 2.480469 C 9.546875 2.488281 9.527344 2.558594 9.507812 2.636719 C 9.476562 2.746094 9.46875 2.789062 9.46875 2.84375 L 9.46875 2.914062 L 9.570312 2.914062 L 9.597656 2.820312 C 9.613281 2.769531 9.628906 2.71875 9.632812 2.707031 C 9.636719 2.691406 9.644531 2.710938 9.664062 2.800781 L 9.695312 2.914062 L 9.785156 2.914062 L 9.871094 2.8125 C 9.917969 2.761719 9.957031 2.71875 9.957031 2.71875 C 9.960938 2.722656 9.921875 2.867188 9.910156 2.902344 C 9.90625 2.914062 10 2.917969 10.058594 2.90625 L 10.09375 2.898438 L 10.132812 2.761719 C 10.152344 2.683594 10.179688 2.585938 10.191406 2.542969 L 10.210938 2.464844 L 9.972656 2.464844 L 9.902344 2.554688 L 9.828125 2.644531 L 9.800781 2.554688 L 9.777344 2.464844 Z M 10.929688 2.464844 L 10.921875 2.503906 C 10.914062 2.523438 10.90625 2.550781 10.902344 2.566406 C 10.886719 2.617188 10.886719 2.617188 10.980469 2.617188 C 11.0625 2.617188 11.070312 2.617188 11.066406 2.632812 C 11.0625 2.640625 11.046875 2.699219 11.035156 2.765625 C 11.019531 2.828125 11.003906 2.886719 11.003906 2.898438 C 10.996094 2.914062 11.003906 2.914062 11.085938 2.910156 L 11.175781 2.910156 L 11.203125 2.796875 C 11.21875 2.734375 11.234375 2.667969 11.242188 2.648438 L 11.25 2.617188 L 11.429688 2.617188 L 11.441406 2.550781 C 11.449219 2.515625 11.457031 2.480469 11.457031 2.476562 C 11.457031 2.464844 11.398438 2.464844 11.195312 2.464844 Z M 12.195312 2.464844 L 12.136719 2.679688 C 12.105469 2.796875 12.078125 2.898438 12.078125 2.902344 C 12.078125 2.910156 12.105469 2.914062 12.160156 2.914062 L 12.242188 2.914062 L 12.257812 2.847656 L 12.277344 2.78125 L 12.347656 2.78125 C 12.433594 2.777344 12.449219 2.789062 12.441406 2.84375 C 12.429688 2.898438 12.441406 2.902344 12.546875 2.902344 L 12.636719 2.902344 L 12.640625 2.84375 C 12.644531 2.765625 12.636719 2.746094 12.617188 2.738281 C 12.597656 2.730469 12.59375 2.714844 12.609375 2.714844 C 12.628906 2.714844 12.6875 2.660156 12.699219 2.628906 C 12.714844 2.589844 12.714844 2.539062 12.699219 2.515625 C 12.671875 2.46875 12.632812 2.464844 12.40625 2.464844 Z M 13.628906 2.464844 C 13.617188 2.464844 13.609375 2.464844 13.597656 2.464844 L 13.511719 2.46875 L 13.457031 2.679688 C 13.429688 2.796875 13.40625 2.894531 13.402344 2.902344 C 13.402344 2.910156 13.453125 2.914062 13.621094 2.914062 L 13.835938 2.914062 L 13.84375 2.875 C 13.851562 2.855469 13.859375 2.824219 13.863281 2.808594 L 13.871094 2.777344 L 13.738281 2.777344 C 13.65625 2.777344 13.609375 2.773438 13.609375 2.769531 C 13.609375 2.765625 13.625 2.695312 13.644531 2.617188 C 13.664062 2.539062 13.679688 2.472656 13.679688 2.46875 C 13.679688 2.464844 13.660156 2.464844 13.628906 2.464844 Z M 12.339844 2.570312 L 12.414062 2.570312 C 12.457031 2.570312 12.5 2.574219 12.511719 2.578125 C 12.535156 2.585938 12.535156 2.621094 12.511719 2.636719 C 12.496094 2.648438 12.46875 2.652344 12.40625 2.652344 C 12.359375 2.652344 12.320312 2.648438 12.320312 2.644531 C 12.320312 2.640625 12.328125 2.625 12.332031 2.605469 Z M 10.578125 2.574219 C 10.609375 2.574219 10.636719 2.582031 10.660156 2.601562 C 10.707031 2.644531 10.675781 2.75 10.597656 2.785156 C 10.550781 2.808594 10.519531 2.8125 10.480469 2.804688 C 10.394531 2.785156 10.386719 2.679688 10.464844 2.609375 C 10.496094 2.585938 10.535156 2.570312 10.578125 2.574219 Z M 13.089844 2.574219 C 13.101562 2.570312 13.113281 2.574219 13.128906 2.574219 C 13.183594 2.582031 13.207031 2.605469 13.210938 2.65625 C 13.214844 2.710938 13.1875 2.757812 13.132812 2.785156 C 13.0625 2.820312 13.007812 2.816406 12.964844 2.777344 C 12.925781 2.738281 12.945312 2.660156 13 2.609375 C 13.027344 2.585938 13.054688 2.574219 13.089844 2.574219 Z M 11.789062 2.574219 C 11.8125 2.574219 11.832031 2.578125 11.851562 2.585938 C 11.925781 2.621094 11.902344 2.738281 11.8125 2.785156 C 11.726562 2.832031 11.636719 2.808594 11.625 2.738281 C 11.621094 2.707031 11.636719 2.652344 11.664062 2.621094 C 11.691406 2.589844 11.742188 2.574219 11.789062 2.574219 Z M 14.230469 2.613281 L 14.238281 2.648438 C 14.246094 2.667969 14.25 2.691406 14.25 2.703125 C 14.25 2.722656 14.246094 2.722656 14.207031 2.722656 C 14.183594 2.722656 14.164062 2.722656 14.164062 2.71875 C 14.164062 2.71875 14.179688 2.691406 14.195312 2.664062 Z M 14.230469 2.613281 "/>
<path style="fill:none;stroke-width:2.923881;stroke-linecap:butt;stroke-linejoin:miter;stroke:rgb(0%,0%,0%);stroke-opacity:1;stroke-miterlimit:4;" d="M -385.675441 -108.32696 C -391.788523 -108.32696 -396.737209 -103.419499 -396.737209 -97.237372 L -396.737209 242.142263 C -396.737209 248.260656 -391.788523 253.168118 -385.675441 253.168118 L -223.474984 253.168118 C -217.361901 253.168118 -212.471435 248.260656 -212.471435 242.142263 L -212.471435 -97.237372 C -212.471435 -103.419499 -217.361901 -108.32696 -223.474984 -108.32696 Z M -385.675441 -108.32696 " transform="matrix(0.0670948,0,0,0.0612906,32.529173,6.815206)"/>
<path style=" stroke:none;fill-rule:nonzero;fill:url(#linear7);" d="M 6.332031 20.699219 C 6.332031 20.699219 6.375 20.511719 6.398438 20.378906 C 6.429688 20.164062 6.519531 19.96875 6.519531 19.96875 C 6.65625 20.242188 6.824219 20.277344 7.179688 20.25 L 16.46875 20.191406 L 16.109375 20.359375 L 7.378906 20.359375 C 6.78125 20.4375 6.605469 20.664062 6.640625 20.960938 C 6.457031 21.007812 6.378906 20.882812 6.332031 20.699219 Z M 6.332031 20.699219 "/>
<path style=" stroke:none;fill-rule:nonzero;fill:rgb(17.647059%,17.647059%,17.647059%);fill-opacity:1;" d="M 7.476562 3.355469 L 16.492188 3.355469 L 16.492188 18.007812 L 7.476562 18.007812 Z M 7.476562 3.355469 "/>
<path style="fill-rule:nonzero;fill:url(#linear8);stroke-width:1;stroke-linecap:butt;stroke-linejoin:miter;stroke:url(#linear9);stroke-miterlimit:4;" d="M 54.604167 6.75 L 73.375 6.75 C 74.041667 6.75 74.583333 7.291667 74.583333 7.958333 C 74.583333 8.625 74.041667 9.166667 73.375 9.166667 L 54.604167 9.166667 C 53.9375 9.166667 53.395833 8.625 53.395833 7.958333 C 53.395833 7.291667 53.9375 6.75 54.604167 6.75 Z M 54.604167 6.75 " transform="matrix(0.1875,0,0,0.1875,0,0)"/>
<use xlink:href="#surface14" mask="url(#mask3)"/>
<path style="fill:none;stroke-width:2.197927;stroke-linecap:butt;stroke-linejoin:miter;stroke:rgb(69.803923%,69.803923%,71.372551%);stroke-opacity:1;stroke-miterlimit:4;" d="M -451.84525 213.372684 C -451.84525 215.804684 -453.798273 217.710846 -456.1419 217.710846 C -458.550628 217.710846 -460.503651 215.804684 -460.503651 213.372684 C -460.503651 211.006414 -458.550628 209.100253 -456.1419 209.100253 C -453.798273 209.100253 -451.84525 211.006414 -451.84525 213.372684 Z M -451.84525 213.372684 " transform="matrix(0.0600031,0,0,0.059429,43.303542,6.206199)"/>
<path style="fill:none;stroke-width:1.715368;stroke-linecap:square;stroke-linejoin:miter;stroke:rgb(69.803923%,69.803923%,71.372551%);stroke-opacity:1;stroke-miterlimit:4;" d="M -451.209993 217.446795 L -448.059911 220.832506 " transform="matrix(0.0768829,0,0,0.0761472,50.815338,2.520156)"/>
<path style="fill:none;stroke-width:1.720754;stroke-linecap:butt;stroke-linejoin:miter;stroke:rgb(69.803923%,69.803923%,71.372551%);stroke-opacity:1;stroke-miterlimit:4;" d="M -498.702212 217.596738 L -498.702212 220.801686 L -492.57442 220.801686 L -492.57442 217.596738 " transform="matrix(0.0745834,0,0,0.0780044,50.437071,2.085093)"/>
<path style="fill:none;stroke-width:1.720754;stroke-linecap:butt;stroke-linejoin:miter;stroke:rgb(69.803923%,69.803923%,71.372551%);stroke-opacity:1;stroke-miterlimit:4;" d="M -501.111429 217.396429 L -495.821626 211.938002 L -490.112829 217.646816 " transform="matrix(0.0745834,0,0,0.0780044,50.437071,2.085093)"/>
<path style="fill:none;stroke-width:1.720754;stroke-linecap:square;stroke-linejoin:miter;stroke:rgb(69.803923%,69.803923%,71.372551%);stroke-opacity:1;stroke-miterlimit:4;" d="M -492.522046 214.842486 L -492.522046 212.038157 " transform="matrix(0.0745834,0,0,0.0780044,50.437071,2.085093)"/>
<path style="fill:none;stroke-width:1.896222;stroke-linecap:square;stroke-linejoin:miter;stroke:rgb(69.803923%,69.803923%,71.372551%);stroke-opacity:1;stroke-miterlimit:4;" d="M -545.325611 211.743016 L -533.840335 211.743016 " transform="matrix(0.0676818,0,0,0.0707862,47.033598,3.648243)"/>
<path style="fill:none;stroke-width:1.896222;stroke-linecap:square;stroke-linejoin:miter;stroke:rgb(69.803923%,69.803923%,71.372551%);stroke-opacity:1;stroke-miterlimit:4;" d="M -542.209004 214.722942 L -533.840335 214.722942 " transform="matrix(0.0676818,0,0,0.0707862,47.033598,3.648243)"/>
<path style="fill:none;stroke-width:1.896222;stroke-linecap:square;stroke-linejoin:miter;stroke:rgb(69.803923%,69.803923%,71.372551%);stroke-opacity:1;stroke-miterlimit:4;" d="M -542.209004 217.923603 L -533.840335 217.923603 " transform="matrix(0.0676818,0,0,0.0707862,47.033598,3.648243)"/>
<path style="fill:none;stroke-width:1.896222;stroke-linecap:square;stroke-linejoin:miter;stroke:rgb(69.803923%,69.803923%,71.372551%);stroke-opacity:1;stroke-miterlimit:4;" d="M -542.209004 221.013896 L -533.840335 221.013896 " transform="matrix(0.0676818,0,0,0.0707862,47.033598,3.648243)"/>
<path style="fill:none;stroke-width:1.689512;stroke-linecap:square;stroke-linejoin:miter;stroke:rgb(69.803923%,69.803923%,71.372551%);stroke-opacity:1;stroke-miterlimit:4;" d="M -571.04623 216.729161 L -573.1938 214.602912 L -570.946343 212.375412 " transform="matrix(0.0782134,0,0,0.0771605,52.468151,2.249725)"/>
<path style="fill:none;stroke-width:1.689512;stroke-linecap:square;stroke-linejoin:miter;stroke:rgb(69.803923%,69.803923%,71.372551%);stroke-opacity:1;stroke-miterlimit:4;" d="M -571.345891 221.336036 L -567.849846 221.336036 " transform="matrix(0.0782134,0,0,0.0771605,52.468151,2.249725)"/>
<path style="fill:none;stroke-width:1.689512;stroke-linecap:square;stroke-linejoin:miter;stroke:rgb(69.803923%,69.803923%,71.372551%);stroke-opacity:1;stroke-miterlimit:4;" d="M -571.795382 214.552287 L -568.099564 214.552287 " transform="matrix(0.0782134,0,0,0.0771605,52.468151,2.249725)"/>
<path style="fill:none;stroke-width:1.689512;stroke-linecap:square;stroke-linejoin:miter;stroke:rgb(69.803923%,69.803923%,71.372551%);stroke-opacity:1;stroke-miterlimit:4;" d="M -581.187137 214.059637 C -580.238211 214.059637 -579.389171 214.717762 -578.93968 215.780887 C -578.490188 216.844012 -578.490188 218.109637 -578.989623 219.172762 C -579.439115 220.185262 -580.288154 220.843387 -581.23708 220.792762 " transform="matrix(0.0782134,0,0,0.0771605,53.577712,2.291644)"/>
</g>
</svg>
