
<svg xmlns="http://www.w3.org/2000/svg" xmlns:xlink="http://www.w3.org/1999/xlink" width="24px" height="24px" viewBox="0 0 24 24" version="1.1">
<defs>
<linearGradient id="linear0" gradientUnits="userSpaceOnUse" x1="32" y1="47.27" x2="32" y2="25.620001" gradientTransform="matrix(0.375,0,0,0.375,0,0)">
<stop offset="0" style="stop-color:rgb(82.352942%,83.529413%,85.490197%);stop-opacity:1;"/>
<stop offset="0.58" style="stop-color:rgb(83.137256%,84.313726%,86.274511%);stop-opacity:1;"/>
<stop offset="0.82" style="stop-color:rgb(85.882354%,87.058824%,88.235295%);stop-opacity:1;"/>
<stop offset="1" style="stop-color:rgb(90.588236%,91.37255%,92.156863%);stop-opacity:1;"/>
</linearGradient>
<linearGradient id="linear1" gradientUnits="userSpaceOnUse" x1="33.119999" y1="-1.97" x2="33.119999" y2="17.1" gradientTransform="matrix(0.375,0,0,0.375,0,0)">
<stop offset="0.18" style="stop-color:rgb(16.078432%,71.372551%,96.470588%);stop-opacity:1;"/>
<stop offset="0.82" style="stop-color:rgb(49.411765%,34.117648%,76.862746%);stop-opacity:1;"/>
</linearGradient>
<linearGradient id="linear2" gradientUnits="userSpaceOnUse" x1="32.040001" y1="25.879999" x2="32.040001" y2="36.860001" gradientTransform="matrix(0.375,0,0,0.375,0,0)">
<stop offset="0.18" style="stop-color:rgb(16.078432%,71.372551%,96.470588%);stop-opacity:1;"/>
<stop offset="0.82" style="stop-color:rgb(49.411765%,34.117648%,76.862746%);stop-opacity:1;"/>
</linearGradient>
</defs>
<g id="surface1">
<path style=" stroke:none;fill-rule:nonzero;fill:url(#linear0);" d="M 11.527344 9.332031 L 11.527344 6.332031 L 10.832031 6.332031 C 8.023438 6.34375 5.746094 8.617188 5.730469 11.425781 L 5.730469 17.546875 C 5.730469 21.007812 8.539062 23.816406 12 23.816406 C 15.460938 23.816406 18.269531 21.007812 18.269531 17.546875 L 18.269531 11.425781 C 18.261719 8.609375 15.980469 6.332031 13.167969 6.324219 L 12.472656 6.324219 L 12.472656 9.324219 Z M 11.527344 9.332031 "/>
<path style=" stroke:none;fill-rule:nonzero;fill:url(#linear1);" d="M 12.472656 6.125 L 11.597656 6.125 L 11.597656 5.683594 C 11.601562 4.476562 12.578125 3.5 13.785156 3.5 L 15.375 3.5 C 16.101562 3.5 16.6875 2.910156 16.6875 2.1875 C 16.6875 1.460938 16.101562 0.875 15.375 0.875 L 7.265625 0.875 L 7.265625 0 L 15.375 0 C 16.582031 0 17.5625 0.980469 17.5625 2.1875 C 17.5625 3.394531 16.582031 4.371094 15.375 4.371094 L 13.785156 4.371094 C 13.058594 4.371094 12.472656 4.960938 12.472656 5.683594 Z M 12.472656 6.125 "/>
<path style=" stroke:none;fill-rule:nonzero;fill:url(#linear2);" d="M 12.015625 9.210938 C 12.664062 9.210938 13.1875 9.734375 13.1875 10.382812 L 13.1875 12.402344 C 13.1875 13.050781 12.664062 13.574219 12.015625 13.574219 C 11.367188 13.574219 10.839844 13.050781 10.839844 12.402344 L 10.839844 10.382812 C 10.839844 9.734375 11.367188 9.210938 12.015625 9.210938 Z M 12.015625 9.210938 "/>
<path style=" stroke:none;fill-rule:nonzero;fill:rgb(85.09804%,85.490197%,85.882354%);fill-opacity:1;" d="M 12 24 C 8.4375 23.996094 5.550781 21.109375 5.546875 17.546875 L 5.546875 11.425781 C 5.550781 8.507812 7.914062 6.144531 10.832031 6.140625 L 11.527344 6.140625 L 11.527344 6.515625 L 10.832031 6.515625 C 8.121094 6.519531 5.921875 8.714844 5.917969 11.425781 L 5.917969 17.546875 C 5.917969 20.90625 8.640625 23.628906 12 23.628906 C 15.359375 23.628906 18.082031 20.90625 18.082031 17.546875 L 18.082031 11.425781 C 18.082031 8.710938 15.882812 6.511719 13.167969 6.507812 L 12.472656 6.507812 L 12.472656 6.132812 L 13.167969 6.132812 C 16.085938 6.136719 18.449219 8.5 18.453125 11.417969 L 18.453125 17.546875 C 18.449219 21.109375 15.5625 23.996094 12 24 Z M 12 24 "/>
</g>
</svg>
