
<svg xmlns="http://www.w3.org/2000/svg" xmlns:xlink="http://www.w3.org/1999/xlink" width="24px" height="24px" viewBox="0 0 24 24" version="1.1">
<defs>
<linearGradient id="linear0" gradientUnits="userSpaceOnUse" x1="37.759998" y1="30.639999" x2="40.759998" y2="51.150002" gradientTransform="matrix(0.375,0,0,0.375,0,0)">
<stop offset="0" style="stop-color:rgb(16.078432%,71.372551%,96.470588%);stop-opacity:1;"/>
<stop offset="1" style="stop-color:rgb(36.862746%,47.843137%,84.313726%);stop-opacity:1;"/>
</linearGradient>
<linearGradient id="linear1" gradientUnits="userSpaceOnUse" x1="21.77" y1="32.740002" x2="24.76" y2="53.23" gradientTransform="matrix(0.375,0,0,0.375,0,0)">
<stop offset="0" style="stop-color:rgb(16.078432%,71.372551%,96.470588%);stop-opacity:1;"/>
<stop offset="1" style="stop-color:rgb(36.862746%,47.843137%,84.313726%);stop-opacity:1;"/>
</linearGradient>
<linearGradient id="linear2" gradientUnits="userSpaceOnUse" x1="55.380001" y1="37.099998" x2="20.73" y2="2.45" gradientTransform="matrix(0.375,0,0,0.375,0,0)">
<stop offset="0" style="stop-color:rgb(63.137257%,65.098041%,67.843139%);stop-opacity:1;"/>
<stop offset="0.33" style="stop-color:rgb(69.411767%,70.980394%,73.333335%);stop-opacity:1;"/>
<stop offset="0.98" style="stop-color:rgb(85.09804%,86.666667%,87.843138%);stop-opacity:1;"/>
<stop offset="1" style="stop-color:rgb(85.882354%,87.058824%,88.235295%);stop-opacity:1;"/>
</linearGradient>
</defs>
<g id="surface1">
<path style=" stroke:none;fill-rule:nonzero;fill:rgb(85.882354%,87.058824%,88.235295%);fill-opacity:1;" d="M 10.550781 20.824219 L 0.0546875 15.421875 L 13.449219 10.105469 L 23.945312 15.507812 Z M 10.550781 20.824219 "/>
<path style=" stroke:none;fill-rule:nonzero;fill:rgb(63.137257%,65.098041%,67.843139%);fill-opacity:1;" d="M 23.945312 15.507812 L 10.550781 20.828125 L 0.0546875 15.421875 L 0.0546875 17.625 C 0.0546875 18.414062 0.496094 19.140625 1.199219 19.5 L 9.300781 23.65625 C 10.09375 24.066406 11.03125 24.113281 11.859375 23.78125 L 22.613281 19.5 C 23.417969 19.179688 23.945312 18.402344 23.945312 17.535156 Z M 23.945312 15.507812 "/>
<path style=" stroke:none;fill-rule:nonzero;fill:url(#linear0);" d="M 16.582031 17.625 L 21.285156 15.757812 L 12.601562 11.257812 L 7.898438 13.125 Z M 16.582031 17.625 "/>
<path style=" stroke:none;fill-rule:nonzero;fill:url(#linear1);" d="M 6.972656 13.492188 L 1.972656 15.480469 L 10.660156 19.976562 L 15.65625 17.992188 Z M 6.972656 13.492188 "/>
<path style=" stroke:none;fill-rule:nonzero;fill:url(#linear2);" d="M 16.5 5.019531 L 6.882812 0.0664062 C 6.742188 -0.00390625 6.578125 -0.0195312 6.425781 0.0273438 C 6.246094 0.0820312 6.101562 0.222656 6.039062 0.398438 C 5.976562 0.578125 6.003906 0.777344 6.109375 0.933594 L 12.445312 10.417969 L 22.945312 15.816406 L 23.945312 15.507812 L 17.570312 5.957031 C 17.300781 5.558594 16.929688 5.238281 16.5 5.019531 Z M 16.5 5.019531 "/>
<path style=" stroke:none;fill-rule:nonzero;fill:rgb(100%,100%,100%);fill-opacity:1;" d="M 9.789062 21.921875 C 9.886719 22.296875 9.746094 22.652344 9.480469 22.722656 C 9.210938 22.789062 8.917969 22.542969 8.824219 22.167969 C 8.730469 21.792969 8.867188 21.4375 9.136719 21.371094 C 9.402344 21.300781 9.695312 21.550781 9.789062 21.921875 Z M 9.789062 21.921875 "/>
</g>
</svg>
