
<svg xmlns="http://www.w3.org/2000/svg" xmlns:xlink="http://www.w3.org/1999/xlink" width="24px" height="24px" viewBox="0 0 24 24" version="1.1">
<defs>
<linearGradient id="linear0" gradientUnits="userSpaceOnUse" x1="21.42" y1="32.369999" x2="35.27" y2="32.369999" gradientTransform="matrix(0.375,0,0,0.375,0,0)">
<stop offset="0.18" style="stop-color:rgb(16.078432%,71.372551%,96.470588%);stop-opacity:1;"/>
<stop offset="0.82" style="stop-color:rgb(49.411765%,34.117648%,76.862746%);stop-opacity:1;"/>
</linearGradient>
</defs>
<g id="surface1">
<path style=" stroke:none;fill-rule:nonzero;fill:rgb(23.921569%,60.000002%,51.372552%);fill-opacity:1;" d="M 22.292969 5 L 2.582031 5 L 2.582031 19.6875 L 22.292969 19.6875 C 23.230469 19.6875 23.988281 18.933594 24 18 L 24 6.703125 C 24 5.761719 23.234375 5 22.292969 5 Z M 22.292969 5 "/>
<path style=" stroke:none;fill-rule:nonzero;fill:rgb(82.352942%,83.529413%,85.490197%);fill-opacity:1;" d="M 3.304688 21.976562 L 1.652344 21.976562 L 1.652344 3.484375 L 0 3.484375 L 0 1.832031 L 1.652344 1.832031 C 2.566406 1.832031 3.304688 2.574219 3.304688 3.484375 Z M 3.304688 21.976562 "/>
<path style=" stroke:none;fill-rule:nonzero;fill:rgb(82.352942%,83.529413%,85.490197%);fill-opacity:1;" d="M 5.46875 19.84375 L 13.898438 19.84375 L 13.898438 22.003906 L 5.46875 22.003906 Z M 5.46875 19.84375 "/>
<path style=" stroke:none;fill-rule:nonzero;fill:rgb(39.215687%,73.725492%,56.470591%);fill-opacity:1;" d="M 5.421875 9.648438 L 8.074219 9.648438 L 8.074219 10.445312 L 5.421875 10.445312 Z M 5.421875 9.648438 "/>
<path style=" stroke:none;fill-rule:nonzero;fill:rgb(39.215687%,73.725492%,56.470591%);fill-opacity:1;" d="M 5.421875 11.082031 L 8.074219 11.082031 L 8.074219 11.875 L 5.421875 11.875 Z M 5.421875 11.082031 "/>
<path style=" stroke:none;fill-rule:nonzero;fill:rgb(39.215687%,73.725492%,56.470591%);fill-opacity:1;" d="M 5.421875 12.515625 L 8.074219 12.515625 L 8.074219 13.308594 L 5.421875 13.308594 Z M 5.421875 12.515625 "/>
<path style=" stroke:none;fill-rule:nonzero;fill:rgb(39.215687%,73.725492%,56.470591%);fill-opacity:1;" d="M 5.421875 13.945312 L 8.074219 13.945312 L 8.074219 14.742188 L 5.421875 14.742188 Z M 5.421875 13.945312 "/>
<path style=" stroke:none;fill-rule:nonzero;fill:rgb(39.215687%,73.725492%,56.470591%);fill-opacity:1;" d="M 13.375 9.648438 L 16.027344 9.648438 L 16.027344 10.445312 L 13.375 10.445312 Z M 13.375 9.648438 "/>
<path style=" stroke:none;fill-rule:nonzero;fill:rgb(39.215687%,73.725492%,56.470591%);fill-opacity:1;" d="M 13.375 11.082031 L 16.027344 11.082031 L 16.027344 11.875 L 13.375 11.875 Z M 13.375 11.082031 "/>
<path style=" stroke:none;fill-rule:nonzero;fill:rgb(39.215687%,73.725492%,56.470591%);fill-opacity:1;" d="M 13.375 12.515625 L 16.027344 12.515625 L 16.027344 13.308594 L 13.375 13.308594 Z M 13.375 12.515625 "/>
<path style=" stroke:none;fill-rule:nonzero;fill:rgb(39.215687%,73.725492%,56.470591%);fill-opacity:1;" d="M 13.375 13.945312 L 16.027344 13.945312 L 16.027344 14.742188 L 13.375 14.742188 Z M 13.375 13.945312 "/>
<path style=" stroke:none;fill-rule:nonzero;fill:rgb(39.215687%,73.725492%,56.470591%);fill-opacity:1;" d="M 12.476562 6.890625 L 13.269531 6.890625 L 13.269531 9.542969 L 12.476562 9.542969 Z M 12.476562 6.890625 "/>
<path style=" stroke:none;fill-rule:nonzero;fill:rgb(39.215687%,73.725492%,56.470591%);fill-opacity:1;" d="M 11.042969 6.890625 L 11.839844 6.890625 L 11.839844 9.542969 L 11.042969 9.542969 Z M 11.042969 6.890625 "/>
<path style=" stroke:none;fill-rule:nonzero;fill:rgb(39.215687%,73.725492%,56.470591%);fill-opacity:1;" d="M 9.609375 6.890625 L 10.40625 6.890625 L 10.40625 9.542969 L 9.609375 9.542969 Z M 9.609375 6.890625 "/>
<path style=" stroke:none;fill-rule:nonzero;fill:rgb(39.215687%,73.725492%,56.470591%);fill-opacity:1;" d="M 8.179688 6.890625 L 8.972656 6.890625 L 8.972656 9.542969 L 8.179688 9.542969 Z M 8.179688 6.890625 "/>
<path style=" stroke:none;fill-rule:nonzero;fill:rgb(39.215687%,73.725492%,56.470591%);fill-opacity:1;" d="M 12.476562 14.851562 L 13.269531 14.851562 L 13.269531 17.5 L 12.476562 17.5 Z M 12.476562 14.851562 "/>
<path style=" stroke:none;fill-rule:nonzero;fill:rgb(39.215687%,73.725492%,56.470591%);fill-opacity:1;" d="M 11.042969 14.851562 L 11.839844 14.851562 L 11.839844 17.5 L 11.042969 17.5 Z M 11.042969 14.851562 "/>
<path style=" stroke:none;fill-rule:nonzero;fill:rgb(39.215687%,73.725492%,56.470591%);fill-opacity:1;" d="M 9.609375 14.851562 L 10.40625 14.851562 L 10.40625 17.5 L 9.609375 17.5 Z M 9.609375 14.851562 "/>
<path style=" stroke:none;fill-rule:nonzero;fill:rgb(39.215687%,73.725492%,56.470591%);fill-opacity:1;" d="M 8.179688 14.851562 L 8.972656 14.851562 L 8.972656 17.5 L 8.179688 17.5 Z M 8.179688 14.851562 "/>
<path style=" stroke:none;fill-rule:nonzero;fill:rgb(39.215687%,73.725492%,56.470591%);fill-opacity:1;" d="M 19.359375 10.53125 L 21.382812 10.53125 L 21.382812 11.136719 L 19.359375 11.136719 Z M 19.359375 10.53125 "/>
<path style=" stroke:none;fill-rule:nonzero;fill:rgb(39.215687%,73.725492%,56.470591%);fill-opacity:1;" d="M 19.359375 11.625 L 21.382812 11.625 L 21.382812 12.234375 L 19.359375 12.234375 Z M 19.359375 11.625 "/>
<path style=" stroke:none;fill-rule:nonzero;fill:rgb(39.215687%,73.725492%,56.470591%);fill-opacity:1;" d="M 19.359375 12.714844 L 21.382812 12.714844 L 21.382812 13.324219 L 19.359375 13.324219 Z M 19.359375 12.714844 "/>
<path style=" stroke:none;fill-rule:nonzero;fill:rgb(39.215687%,73.725492%,56.470591%);fill-opacity:1;" d="M 19.359375 13.808594 L 21.382812 13.808594 L 21.382812 14.414062 L 19.359375 14.414062 Z M 19.359375 13.808594 "/>
<path style=" stroke:none;fill-rule:nonzero;fill:rgb(39.215687%,73.725492%,56.470591%);fill-opacity:1;" d="M 20.773438 7.527344 L 21.382812 7.527344 L 21.382812 9.546875 L 20.773438 9.546875 Z M 20.773438 7.527344 "/>
<path style=" stroke:none;fill-rule:nonzero;fill:rgb(39.215687%,73.725492%,56.470591%);fill-opacity:1;" d="M 19.683594 7.527344 L 20.292969 7.527344 L 20.292969 9.546875 L 19.683594 9.546875 Z M 19.683594 7.527344 "/>
<path style=" stroke:none;fill-rule:nonzero;fill:rgb(39.215687%,73.725492%,56.470591%);fill-opacity:1;" d="M 18.59375 7.527344 L 19.199219 7.527344 L 19.199219 9.546875 L 18.59375 9.546875 Z M 18.59375 7.527344 "/>
<path style=" stroke:none;fill-rule:nonzero;fill:rgb(39.215687%,73.725492%,56.470591%);fill-opacity:1;" d="M 17.5 7.527344 L 18.109375 7.527344 L 18.109375 9.546875 L 17.5 9.546875 Z M 17.5 7.527344 "/>
<path style=" stroke:none;fill-rule:nonzero;fill:rgb(39.215687%,73.725492%,56.470591%);fill-opacity:1;" d="M 20.773438 15.398438 L 21.382812 15.398438 L 21.382812 17.417969 L 20.773438 17.417969 Z M 20.773438 15.398438 "/>
<path style=" stroke:none;fill-rule:nonzero;fill:rgb(39.215687%,73.725492%,56.470591%);fill-opacity:1;" d="M 19.683594 15.398438 L 20.292969 15.398438 L 20.292969 17.417969 L 19.683594 17.417969 Z M 19.683594 15.398438 "/>
<path style=" stroke:none;fill-rule:nonzero;fill:rgb(39.215687%,73.725492%,56.470591%);fill-opacity:1;" d="M 18.59375 15.398438 L 19.199219 15.398438 L 19.199219 17.417969 L 18.59375 17.417969 Z M 18.59375 15.398438 "/>
<path style=" stroke:none;fill-rule:nonzero;fill:rgb(39.215687%,73.725492%,56.470591%);fill-opacity:1;" d="M 17.5 15.398438 L 18.109375 15.398438 L 18.109375 17.417969 L 17.5 17.417969 Z M 17.5 15.398438 "/>
<path style=" stroke:none;fill-rule:nonzero;fill:rgb(100%,100%,100%);fill-opacity:1;" d="M 7.804688 7.851562 L 13.648438 7.851562 C 14.457031 7.851562 15.113281 8.507812 15.113281 9.316406 L 15.113281 15.160156 C 15.113281 15.96875 14.457031 16.625 13.648438 16.625 L 7.804688 16.625 C 6.996094 16.625 6.339844 15.96875 6.339844 15.160156 L 6.339844 9.316406 C 6.339844 8.507812 6.996094 7.851562 7.804688 7.851562 Z M 7.804688 7.851562 "/>
<path style=" stroke:none;fill-rule:nonzero;fill:rgb(23.921569%,60.000002%,51.372552%);fill-opacity:1;" d="M 5.207031 19.6875 L 5.207031 22.167969 L 13.945312 22.167969 L 13.945312 19.6875 Z M 9.75 20.007812 L 11.550781 20.007812 L 11.550781 21.847656 L 9.75 21.847656 Z M 9.429688 21.847656 L 7.601562 21.847656 L 7.601562 20.007812 L 9.417969 20.007812 Z M 5.53125 20.007812 L 7.296875 20.007812 L 7.296875 21.847656 L 5.515625 21.847656 Z M 13.652344 21.847656 L 11.871094 21.847656 L 11.871094 20.007812 L 13.640625 20.007812 Z M 13.652344 21.847656 "/>
<path style=" stroke:none;fill-rule:nonzero;fill:url(#linear0);" d="M 13.21875 14.117188 L 13.21875 10.453125 C 13.222656 10.167969 13.109375 9.894531 12.910156 9.691406 C 12.707031 9.488281 12.433594 9.375 12.148438 9.375 L 10.316406 9.375 C 9.726562 9.375 9.25 9.851562 9.25 10.441406 L 9.25 12.691406 C 9.132812 12.640625 9.003906 12.617188 8.875 12.613281 C 8.449219 12.578125 8.070312 12.890625 8.027344 13.320312 C 8.070312 13.746094 8.449219 14.0625 8.875 14.023438 C 9.304688 14.058594 9.679688 13.746094 9.71875 13.320312 C 9.71875 13.320312 9.71875 13.296875 9.71875 13.285156 L 9.71875 10.875 C 9.71875 10.632812 9.914062 10.441406 10.15625 10.441406 L 12.296875 10.441406 C 12.414062 10.433594 12.53125 10.476562 12.617188 10.5625 C 12.703125 10.644531 12.75 10.757812 12.75 10.875 L 12.75 13.542969 C 12.628906 13.503906 12.5 13.488281 12.375 13.5 C 11.949219 13.464844 11.574219 13.777344 11.53125 14.203125 C 11.585938 14.621094 11.957031 14.925781 12.375 14.890625 C 12.800781 14.925781 13.179688 14.613281 13.222656 14.1875 C 13.226562 14.160156 13.21875 14.140625 13.21875 14.117188 Z M 13.21875 14.117188 "/>
</g>
</svg>
