<svg id="레이어_1" data-name="레이어 1" xmlns="http://www.w3.org/2000/svg" xmlns:xlink="http://www.w3.org/1999/xlink" viewBox="0 0 64 64"><defs><style>.cls-1{fill:url(#무제_그라디언트_12);}.cls-2{fill:#c6c9cc;}</style><linearGradient id="무제_그라디언트_12" x1="9.93" y1="13.99" x2="54.07" y2="58.13" gradientUnits="userSpaceOnUse"><stop offset="0" stop-color="#dcdee2"/><stop offset="1" stop-color="#8e8e8e"/></linearGradient></defs><title>bookmark-missing</title><path class="cls-1" d="M46.6,62.34a7.91,7.91,0,0,1-3.67-.91l-9.68-5.09a2.68,2.68,0,0,0-2.5,0l-9.68,5.09a7.88,7.88,0,0,1-11.43-8.3l1.85-10.79A2.67,2.67,0,0,0,10.72,40L2.89,32.33A7.87,7.87,0,0,1,7.25,18.9l10.83-1.57a2.69,2.69,0,0,0,2-1.47l4.85-9.81a7.87,7.87,0,0,1,14.12,0l4.85,9.81a2.69,2.69,0,0,0,2,1.47L56.75,18.9a7.87,7.87,0,0,1,4.36,13.43L53.28,40a2.68,2.68,0,0,0-.77,2.37l1.85,10.79a7.88,7.88,0,0,1-7.76,9.21Z"/><path class="cls-2" d="M32,2.16a7.34,7.34,0,0,1,6.62,4.11l4.84,9.81a3.16,3.16,0,0,0,2.39,1.74l10.83,1.57A7.39,7.39,0,0,1,60.77,32l-7.84,7.63A3.17,3.17,0,0,0,52,42.43l1.85,10.78A7.37,7.37,0,0,1,43.16,61L33.48,55.9a3.14,3.14,0,0,0-3,0L20.84,61a7.45,7.45,0,0,1-3.44.85,7.39,7.39,0,0,1-7.27-8.63L12,42.43a3.17,3.17,0,0,0-.91-2.82L3.23,32A7.39,7.39,0,0,1,7.32,19.39l10.83-1.57a3.16,3.16,0,0,0,2.39-1.74l4.84-9.81A7.34,7.34,0,0,1,32,2.16m0-1a8.32,8.32,0,0,0-7.51,4.67l-4.84,9.81A2.2,2.2,0,0,1,18,16.83L7.18,18.4A8.38,8.38,0,0,0,2.54,32.69l7.83,7.64A2.19,2.19,0,0,1,11,42.26L9.15,53A8.36,8.36,0,0,0,21.3,61.87L31,56.78a2.17,2.17,0,0,1,2,0l9.69,5.09A8.38,8.38,0,0,0,54.85,53L53,42.26a2.19,2.19,0,0,1,.63-1.93l7.83-7.64A8.38,8.38,0,0,0,56.82,18.4L46,16.83a2.2,2.2,0,0,1-1.65-1.19L39.51,5.83A8.32,8.32,0,0,0,32,1.16Z"/></svg>