
<svg xmlns="http://www.w3.org/2000/svg" xmlns:xlink="http://www.w3.org/1999/xlink" width="128px" height="128px" viewBox="0 0 128 128" version="1.1">
<defs>
<linearGradient id="linear0" gradientUnits="userSpaceOnUse" x1="32" y1="3.8" x2="32" y2="23.49" gradientTransform="matrix(2,0,0,2,0,0)">
<stop offset="0" style="stop-color:rgb(16.078431%,71.372549%,96.470588%);stop-opacity:1;"/>
<stop offset="0.67" style="stop-color:rgb(39.607843%,45.098039%,82.745098%);stop-opacity:1;"/>
<stop offset="1" style="stop-color:rgb(49.411765%,34.117647%,76.862745%);stop-opacity:1;"/>
</linearGradient>
<linearGradient id="linear1" gradientUnits="userSpaceOnUse" x1="32" y1="60.9" x2="32" y2="18.72" gradientTransform="matrix(2,0,0,2,0,0)">
<stop offset="0" style="stop-color:rgb(86.27451%,87.058824%,88.627451%);stop-opacity:1;"/>
<stop offset="0.57" style="stop-color:rgb(87.058824%,87.843137%,89.411765%);stop-opacity:1;"/>
<stop offset="0.81" style="stop-color:rgb(89.803922%,90.588235%,91.764706%);stop-opacity:1;"/>
<stop offset="0.99" style="stop-color:rgb(94.901961%,95.294118%,95.686275%);stop-opacity:1;"/>
<stop offset="1" style="stop-color:rgb(95.294118%,95.686275%,96.078431%);stop-opacity:1;"/>
</linearGradient>
<linearGradient id="linear2" gradientUnits="userSpaceOnUse" x1="32.09" y1="34.84" x2="32.09" y2="28.02" gradientTransform="matrix(2,0,0,2,0,0)">
<stop offset="0" style="stop-color:rgb(75.294118%,75.294118%,75.294118%);stop-opacity:1;"/>
<stop offset="1" style="stop-color:rgb(55.686275%,55.686275%,55.686275%);stop-opacity:1;"/>
</linearGradient>
<linearGradient id="linear3" gradientUnits="userSpaceOnUse" x1="32" y1="52.02" x2="32" y2="30.8" gradientTransform="matrix(2,0,0,2,0,0)">
<stop offset="0" style="stop-color:rgb(75.294118%,75.294118%,75.294118%);stop-opacity:1;"/>
<stop offset="1" style="stop-color:rgb(55.686275%,55.686275%,55.686275%);stop-opacity:1;"/>
</linearGradient>
<linearGradient id="linear4" gradientUnits="userSpaceOnUse" x1="32.01" y1="45.76" x2="32.01" y2="44.14" gradientTransform="matrix(2,0,0,2,0,0)">
<stop offset="0" style="stop-color:rgb(75.294118%,75.294118%,75.294118%);stop-opacity:1;"/>
<stop offset="1" style="stop-color:rgb(55.686275%,55.686275%,55.686275%);stop-opacity:1;"/>
</linearGradient>
<linearGradient id="linear5" gradientUnits="userSpaceOnUse" x1="30.36" y1="48.61" x2="30.36" y2="46.98" gradientTransform="matrix(2,0,0,2,0,0)">
<stop offset="0" style="stop-color:rgb(75.294118%,75.294118%,75.294118%);stop-opacity:1;"/>
<stop offset="1" style="stop-color:rgb(55.686275%,55.686275%,55.686275%);stop-opacity:1;"/>
</linearGradient>
</defs>
<g id="surface1">
<path style=" stroke:none;fill-rule:nonzero;fill:url(#linear0);" d="M 128 42.621094 C 127.988281 36.960938 123.398438 32.378906 117.738281 32.378906 L 82.898438 32.378906 C 75.777344 32.382812 69.960938 26.683594 69.820312 19.558594 C 69.929688 12.308594 64.152344 6.332031 56.898438 6.199219 L 6.761719 6.199219 C 3.027344 6.199219 0 9.226562 0 12.960938 L 0 46.839844 L 128 46.839844 Z M 128 42.621094 "/>
<path style=" stroke:none;fill-rule:nonzero;fill:url(#linear1);" d="M 117.738281 37.441406 L 10.261719 37.441406 C 4.59375 37.441406 0 42.035156 0 47.699219 L 0 111.558594 C 0.0117188 117.21875 4.601562 121.800781 10.261719 121.800781 L 117.738281 121.800781 C 123.398438 121.800781 127.988281 117.21875 128 111.558594 L 128 47.699219 C 128 42.035156 123.40625 37.441406 117.738281 37.441406 Z M 117.738281 37.441406 "/>
<path style=" stroke:none;fill-rule:nonzero;fill:url(#linear2);" d="M 66.621094 56 C 66.871094 56.535156 67.058594 57.101562 67.179688 57.679688 C 67.238281 58.738281 67.238281 59.800781 67.179688 60.859375 C 67.179688 61.519531 67.460938 61.761719 68.078125 61.761719 C 68.746094 61.710938 69.414062 61.710938 70.078125 61.761719 C 70.457031 61.753906 70.800781 61.976562 70.949219 62.324219 C 71.09375 62.675781 71.011719 63.078125 70.738281 63.339844 C 68.738281 65.339844 66.738281 67.339844 64.738281 69.339844 C 64.5625 69.546875 64.300781 69.664062 64.03125 69.664062 C 63.757812 69.664062 63.5 69.546875 63.320312 69.339844 C 61.320312 67.339844 59.421875 65.460938 57.519531 63.480469 C 57.269531 63.179688 57.175781 62.78125 57.261719 62.398438 C 57.476562 62.085938 57.820312 61.878906 58.199219 61.839844 C 58.867188 61.789062 59.535156 61.789062 60.199219 61.839844 C 60.820312 61.839844 61.101562 61.578125 61.078125 60.941406 C 61.078125 59.878906 61.078125 58.800781 61.078125 57.761719 C 61.210938 57.183594 61.398438 56.621094 61.640625 56.078125 Z M 66.621094 56 "/>
<path style=" stroke:none;fill-rule:nonzero;fill:url(#linear3);" d="M 78.71875 72.71875 L 83.460938 72.71875 C 84.546875 72.628906 85.617188 73.019531 86.390625 73.789062 C 87.160156 74.5625 87.550781 75.632812 87.460938 76.71875 C 87.460938 81.707031 87.460938 86.671875 87.460938 91.621094 C 87.550781 92.707031 87.160156 93.777344 86.390625 94.550781 C 85.617188 95.320312 84.546875 95.710938 83.460938 95.621094 L 78.71875 95.621094 L 78.71875 98.480469 C 78.84375 99.988281 78.296875 101.476562 77.21875 102.542969 C 76.140625 103.609375 74.648438 104.140625 73.140625 104 L 54.859375 104 C 53.367188 104.109375 51.902344 103.5625 50.851562 102.5 C 49.796875 101.441406 49.257812 99.96875 49.378906 98.480469 L 49.378906 95.578125 L 44.300781 95.578125 C 42.511719 95.589844 40.96875 94.320312 40.640625 92.558594 C 40.609375 92.21875 40.609375 91.878906 40.640625 91.539062 C 40.640625 86.601562 40.640625 81.679688 40.640625 76.738281 C 40.5625 75.65625 40.957031 74.59375 41.726562 73.824219 C 42.492188 73.058594 43.558594 72.660156 44.640625 72.738281 L 49.421875 72.738281 C 49.421875 70.621094 49.421875 68.601562 49.421875 66.578125 C 49.429688 63.988281 51.417969 61.835938 54 61.621094 C 54.980469 61.621094 55.578125 61.960938 55.640625 62.738281 C 55.699219 63.519531 55.199219 63.960938 54.199219 64.101562 C 53 64.207031 52.066406 65.179688 52 66.378906 C 52 68.378906 52 70.5 52 72.640625 L 76.179688 72.640625 C 76.179688 70.5 76.179688 68.398438 76.179688 66.28125 C 76.050781 65.070312 75.054688 64.144531 73.839844 64.101562 C 72.839844 63.960938 72.378906 63.519531 72.460938 62.71875 C 72.539062 61.921875 73.078125 61.558594 74.101562 61.621094 C 76.472656 61.785156 78.382812 63.632812 78.621094 66 C 78.78125 67.78125 78.621094 69.558594 78.621094 71.339844 Z M 52 84.640625 C 51.984375 84.804688 51.984375 84.972656 52 85.140625 C 52 89.71875 52 94.320312 52 98.898438 C 52 100.578125 53.078125 101.5 54.898438 101.5 L 73.339844 101.5 C 74.148438 101.613281 74.964844 101.34375 75.542969 100.765625 C 76.121094 100.1875 76.394531 99.371094 76.28125 98.558594 L 76.28125 85.539062 C 76.28125 85.238281 76.28125 84.941406 76.28125 84.640625 Z M 83.359375 80.359375 C 83.367188 79.839844 83.15625 79.339844 82.773438 78.984375 C 82.390625 78.632812 81.878906 78.453125 81.359375 78.5 C 80.839844 78.492188 80.335938 78.707031 79.980469 79.085938 C 79.621094 79.464844 79.441406 79.980469 79.480469 80.5 C 79.542969 81.558594 80.421875 82.382812 81.480469 82.378906 C 82.003906 82.386719 82.511719 82.171875 82.867188 81.789062 C 83.226562 81.402344 83.40625 80.882812 83.359375 80.359375 Z M 83.359375 80.359375 "/>
<path style=" stroke:none;fill-rule:nonzero;fill:url(#linear4);" d="M 71.679688 88.28125 L 71.679688 91.519531 L 56.378906 91.519531 L 56.378906 88.28125 Z M 71.679688 88.28125 "/>
<path style=" stroke:none;fill-rule:nonzero;fill:url(#linear5);" d="M 56.398438 94 L 65.019531 94 L 65.019531 97.261719 L 56.398438 97.261719 Z M 56.398438 94 "/>
</g>
</svg>
