<svg id="레이어_1" data-name="레이어 1" xmlns="http://www.w3.org/2000/svg" xmlns:xlink="http://www.w3.org/1999/xlink" viewBox="0 0 64 64"><defs><style>.cls-1{fill:url(#무제_그라디언트_35);}.cls-2{fill:#7e57c4;}.cls-3{fill:url(#무제_그라디언트_47);}</style><linearGradient id="무제_그라디언트_35" x1="32" y1="3.8" x2="32" y2="23.49" gradientUnits="userSpaceOnUse"><stop offset="0" stop-color="#29b6f6"/><stop offset="0.67" stop-color="#6573d3"/><stop offset="1" stop-color="#7e57c4"/></linearGradient><linearGradient id="무제_그라디언트_47" x1="32" y1="33.75" x2="32" y2="58.78" gradientUnits="userSpaceOnUse"><stop offset="0" stop-color="#dfe1e4"/><stop offset="0.05" stop-color="#dadce0"/><stop offset="0.22" stop-color="#cdd0d5"/><stop offset="0.45" stop-color="#c6c9d0"/><stop offset="1" stop-color="#c4c7ce"/></linearGradient></defs><title>folder-drag-accept</title><path class="cls-1" d="M64,21.31a5.13,5.13,0,0,0-5.13-5.12H41.45a6.54,6.54,0,0,1-6.54-6.41A6.58,6.58,0,0,0,28.45,3.1H3.38A3.38,3.38,0,0,0,0,6.48V23.42H64Z"/><rect class="cls-2" y="23.17" width="64" height="13.5"/><path class="cls-3" d="M0,55.78A5.13,5.13,0,0,0,5.13,60.9H58.87A5.13,5.13,0,0,0,64,55.78v-22a3.23,3.23,0,0,0-3.23-3.23H3.23A3.23,3.23,0,0,0,0,33.77Z"/></svg>