
<svg xmlns="http://www.w3.org/2000/svg" xmlns:xlink="http://www.w3.org/1999/xlink" width="128px" height="128px" viewBox="0 0 128 128" version="1.1">
<defs>
<linearGradient id="linear0" gradientUnits="userSpaceOnUse" x1="32" y1="3.8" x2="32" y2="23.49" gradientTransform="matrix(2,0,0,2,0,0)">
<stop offset="0" style="stop-color:rgb(16.078431%,71.372549%,96.470588%);stop-opacity:1;"/>
<stop offset="0.67" style="stop-color:rgb(39.607843%,45.098039%,82.745098%);stop-opacity:1;"/>
<stop offset="1" style="stop-color:rgb(49.411765%,34.117647%,76.862745%);stop-opacity:1;"/>
</linearGradient>
<linearGradient id="linear1" gradientUnits="userSpaceOnUse" x1="32" y1="60.9" x2="32" y2="18.72" gradientTransform="matrix(2,0,0,2,0,0)">
<stop offset="0" style="stop-color:rgb(86.27451%,87.058824%,88.627451%);stop-opacity:1;"/>
<stop offset="0.57" style="stop-color:rgb(87.058824%,87.843137%,89.411765%);stop-opacity:1;"/>
<stop offset="0.81" style="stop-color:rgb(89.803922%,90.588235%,91.764706%);stop-opacity:1;"/>
<stop offset="0.99" style="stop-color:rgb(94.901961%,95.294118%,95.686275%);stop-opacity:1;"/>
<stop offset="1" style="stop-color:rgb(95.294118%,95.686275%,96.078431%);stop-opacity:1;"/>
</linearGradient>
<linearGradient id="linear2" gradientUnits="userSpaceOnUse" x1="32" y1="51.33" x2="32" y2="29.83" gradientTransform="matrix(2,0,0,2,0,0)">
<stop offset="0" style="stop-color:rgb(75.294118%,75.294118%,75.294118%);stop-opacity:1;"/>
<stop offset="1" style="stop-color:rgb(55.686275%,55.686275%,55.686275%);stop-opacity:1;"/>
</linearGradient>
</defs>
<g id="surface1">
<path style=" stroke:none;fill-rule:nonzero;fill:url(#linear0);" d="M 128 42.621094 C 127.988281 36.960938 123.398438 32.378906 117.738281 32.378906 L 82.898438 32.378906 C 75.777344 32.382812 69.960938 26.683594 69.820312 19.558594 C 69.929688 12.308594 64.152344 6.332031 56.898438 6.199219 L 6.761719 6.199219 C 3.027344 6.199219 0 9.226562 0 12.960938 L 0 46.839844 L 128 46.839844 Z M 128 42.621094 "/>
<path style=" stroke:none;fill-rule:nonzero;fill:url(#linear1);" d="M 117.738281 37.441406 L 10.261719 37.441406 C 4.59375 37.441406 0 42.035156 0 47.699219 L 0 111.558594 C 0.0117188 117.21875 4.601562 121.800781 10.261719 121.800781 L 117.738281 121.800781 C 123.398438 121.800781 127.988281 117.21875 128 111.558594 L 128 47.699219 C 128 42.035156 123.40625 37.441406 117.738281 37.441406 Z M 117.738281 37.441406 "/>
<path style=" stroke:none;fill-rule:nonzero;fill:url(#linear2);" d="M 82.761719 87.421875 L 82.761719 86.558594 C 82.777344 84.121094 81.679688 81.808594 79.78125 80.28125 L 74.140625 75.640625 C 77.476562 70.570312 76.558594 63.8125 71.984375 59.820312 C 67.410156 55.828125 60.589844 55.828125 56.015625 59.820312 C 51.441406 63.8125 50.523438 70.570312 53.859375 75.640625 L 48.199219 80.28125 C 46.308594 81.8125 45.21875 84.125 45.238281 86.558594 L 45.238281 87.421875 C 41.941406 88.09375 39.683594 91.15625 40.023438 94.507812 C 40.359375 97.855469 43.183594 100.40625 46.550781 100.40625 C 49.917969 100.40625 52.738281 97.855469 53.078125 94.507812 C 53.414062 91.15625 51.160156 88.09375 47.859375 87.421875 L 47.859375 86.558594 C 47.847656 84.910156 48.585938 83.34375 49.859375 82.300781 L 55.539062 77.660156 C 57.476562 79.5625 60 80.753906 62.699219 81.039062 L 62.699219 89.320312 C 59.40625 89.988281 57.15625 93.039062 57.492188 96.382812 C 57.828125 99.726562 60.640625 102.269531 64 102.269531 C 67.359375 102.269531 70.171875 99.726562 70.507812 96.382812 C 70.84375 93.039062 68.59375 89.988281 65.300781 89.320312 L 65.300781 81.039062 C 68 80.753906 70.523438 79.5625 72.460938 77.660156 L 78.140625 82.300781 C 79.414062 83.34375 80.152344 84.910156 80.140625 86.558594 L 80.140625 87.421875 C 76.839844 88.09375 74.585938 91.15625 74.921875 94.507812 C 75.261719 97.855469 78.082031 100.40625 81.449219 100.40625 C 84.816406 100.40625 87.640625 97.855469 87.976562 94.507812 C 88.316406 91.15625 86.058594 88.09375 82.761719 87.421875 Z M 49.761719 93.839844 C 49.761719 95.617188 48.316406 97.058594 46.539062 97.058594 C 44.761719 97.058594 43.320312 95.617188 43.320312 93.839844 C 43.320312 92.0625 44.761719 90.621094 46.539062 90.621094 C 48.316406 90.621094 49.761719 92.0625 49.761719 93.839844 Z M 67.21875 95.738281 C 67.21875 97.519531 65.777344 98.960938 64 98.960938 C 62.222656 98.960938 60.78125 97.519531 60.78125 95.738281 C 60.78125 93.960938 62.222656 92.519531 64 92.519531 C 65.777344 92.519531 67.21875 93.960938 67.21875 95.738281 Z M 64 76.839844 C 59.644531 76.851562 56.105469 73.328125 56.101562 68.972656 C 56.09375 64.617188 59.617188 61.082031 63.972656 61.078125 C 68.328125 61.078125 71.859375 64.605469 71.859375 68.960938 C 71.859375 73.304688 68.34375 76.828125 64 76.839844 Z M 81.460938 97.058594 C 79.683594 97.058594 78.238281 95.617188 78.238281 93.839844 C 78.238281 92.0625 79.683594 90.621094 81.460938 90.621094 C 83.238281 90.621094 84.679688 92.0625 84.679688 93.839844 C 84.679688 95.617188 83.238281 97.058594 81.460938 97.058594 Z M 81.460938 97.058594 "/>
</g>
</svg>
