<svg id="레이어_1" data-name="레이어 1" xmlns="http://www.w3.org/2000/svg" xmlns:xlink="http://www.w3.org/1999/xlink" viewBox="0 0 64 64"><defs><style>.cls-1{fill:url(#무제_그라디언트_25);}.cls-2{fill:url(#무제_그라디언트_4);}</style><linearGradient id="무제_그라디언트_25" x1="32" y1="3.8" x2="32" y2="23.49" gradientUnits="userSpaceOnUse"><stop offset="0" stop-color="#c1c4cb"/><stop offset="1" stop-color="#7f8484"/></linearGradient><linearGradient id="무제_그라디언트_4" x1="32" y1="60.9" x2="32" y2="18.72" gradientUnits="userSpaceOnUse"><stop offset="0" stop-color="#dcdee2"/><stop offset="0.57" stop-color="#dee0e4"/><stop offset="0.81" stop-color="#e5e7ea"/><stop offset="0.99" stop-color="#f2f3f4"/><stop offset="1" stop-color="#f3f4f5"/></linearGradient></defs><title>folder-visiting</title><path class="cls-1" d="M64,21.31a5.13,5.13,0,0,0-5.13-5.12H41.45a6.54,6.54,0,0,1-6.54-6.41A6.58,6.58,0,0,0,28.45,3.1H3.38A3.38,3.38,0,0,0,0,6.48V23.42H64Z"/><path class="cls-2" d="M58.87,18.72H5.13A5.13,5.13,0,0,0,0,23.85V55.78A5.13,5.13,0,0,0,5.13,60.9H58.87A5.13,5.13,0,0,0,64,55.78V23.85A5.13,5.13,0,0,0,58.87,18.72Z"/></svg>