
<svg xmlns="http://www.w3.org/2000/svg" xmlns:xlink="http://www.w3.org/1999/xlink" width="128px" height="128px" viewBox="0 0 128 128" version="1.1">
<defs>
<linearGradient id="linear0" gradientUnits="userSpaceOnUse" x1="32" y1="3.8" x2="32" y2="23.49" gradientTransform="matrix(2,0,0,2,0,0)">
<stop offset="0" style="stop-color:rgb(16.078431%,71.372549%,96.470588%);stop-opacity:1;"/>
<stop offset="0.67" style="stop-color:rgb(39.607843%,45.098039%,82.745098%);stop-opacity:1;"/>
<stop offset="1" style="stop-color:rgb(49.411765%,34.117647%,76.862745%);stop-opacity:1;"/>
</linearGradient>
<linearGradient id="linear1" gradientUnits="userSpaceOnUse" x1="32" y1="60.9" x2="32" y2="18.72" gradientTransform="matrix(2,0,0,2,0,0)">
<stop offset="0" style="stop-color:rgb(86.27451%,87.058824%,88.627451%);stop-opacity:1;"/>
<stop offset="0.57" style="stop-color:rgb(87.058824%,87.843137%,89.411765%);stop-opacity:1;"/>
<stop offset="0.81" style="stop-color:rgb(89.803922%,90.588235%,91.764706%);stop-opacity:1;"/>
<stop offset="0.99" style="stop-color:rgb(94.901961%,95.294118%,95.686275%);stop-opacity:1;"/>
<stop offset="1" style="stop-color:rgb(95.294118%,95.686275%,96.078431%);stop-opacity:1;"/>
</linearGradient>
<linearGradient id="linear2" gradientUnits="userSpaceOnUse" x1="32" y1="51.86" x2="32" y2="31.55" gradientTransform="matrix(2,0,0,2,0,0)">
<stop offset="0" style="stop-color:rgb(75.294118%,75.294118%,75.294118%);stop-opacity:1;"/>
<stop offset="1" style="stop-color:rgb(55.686275%,55.686275%,55.686275%);stop-opacity:1;"/>
</linearGradient>
<linearGradient id="linear3" gradientUnits="userSpaceOnUse" x1="32" y1="51.86" x2="32" y2="31.55" gradientTransform="matrix(2,0,0,2,0,0)">
<stop offset="0" style="stop-color:rgb(75.294118%,75.294118%,75.294118%);stop-opacity:1;"/>
<stop offset="1" style="stop-color:rgb(55.686275%,55.686275%,55.686275%);stop-opacity:1;"/>
</linearGradient>
</defs>
<g id="surface1">
<path style=" stroke:none;fill-rule:nonzero;fill:url(#linear0);" d="M 128 42.621094 C 127.988281 36.960938 123.398438 32.378906 117.738281 32.378906 L 82.898438 32.378906 C 75.777344 32.382812 69.960938 26.683594 69.820312 19.558594 C 69.929688 12.308594 64.152344 6.332031 56.898438 6.199219 L 6.761719 6.199219 C 3.027344 6.199219 0 9.226562 0 12.960938 L 0 46.839844 L 128 46.839844 Z M 128 42.621094 "/>
<path style=" stroke:none;fill-rule:nonzero;fill:url(#linear1);" d="M 117.738281 37.441406 L 10.261719 37.441406 C 4.59375 37.441406 0 42.035156 0 47.699219 L 0 111.558594 C 0.0117188 117.21875 4.601562 121.800781 10.261719 121.800781 L 117.738281 121.800781 C 123.398438 121.800781 127.988281 117.21875 128 111.558594 L 128 47.699219 C 128 42.035156 123.40625 37.441406 117.738281 37.441406 Z M 117.738281 37.441406 "/>
<path style=" stroke:none;fill-rule:nonzero;fill:url(#linear2);" d="M 70.140625 81.300781 C 70.140625 77.910156 67.390625 75.160156 64 75.160156 C 60.609375 75.160156 57.859375 77.910156 57.859375 81.300781 C 57.859375 84.691406 60.609375 87.441406 64 87.441406 C 67.390625 87.441406 70.140625 84.691406 70.140625 81.300781 Z M 60.761719 81.300781 C 60.761719 79.511719 62.210938 78.058594 64 78.058594 C 65.789062 78.058594 67.238281 79.511719 67.238281 81.300781 C 67.238281 83.089844 65.789062 84.539062 64 84.539062 C 63.140625 84.546875 62.3125 84.207031 61.703125 83.597656 C 61.09375 82.988281 60.753906 82.160156 60.761719 81.300781 Z M 60.761719 81.300781 "/>
<path style=" stroke:none;fill-rule:nonzero;fill:url(#linear3);" d="M 64 59.300781 C 51.851562 59.300781 42 69.148438 42 81.300781 C 42 93.449219 51.851562 103.300781 64 103.300781 C 76.148438 103.300781 86 93.449219 86 81.300781 C 86 69.148438 76.148438 59.300781 64 59.300781 Z M 79.199219 81.300781 C 79.1875 89.695312 72.394531 96.496094 64 96.519531 L 64 94.878906 C 71.496094 94.867188 77.570312 88.796875 77.578125 81.300781 Z M 53.539062 81.300781 C 53.539062 75.523438 58.222656 70.839844 64 70.839844 C 69.777344 70.839844 74.460938 75.523438 74.460938 81.300781 C 74.460938 87.078125 69.777344 91.761719 64 91.761719 C 58.226562 91.75 53.550781 87.074219 53.539062 81.300781 Z M 64 100.679688 L 64 99.058594 C 73.804688 99.050781 81.75 91.105469 81.761719 81.300781 L 83.378906 81.300781 C 83.367188 92 74.699219 100.667969 64 100.679688 Z M 64 100.679688 "/>
</g>
</svg>
