
<svg xmlns="http://www.w3.org/2000/svg" xmlns:xlink="http://www.w3.org/1999/xlink" width="128px" height="128px" viewBox="0 0 128 128" version="1.1">
<defs>
<linearGradient id="linear0" gradientUnits="userSpaceOnUse" x1="32" y1="3.8" x2="32" y2="23.49" gradientTransform="matrix(2,0,0,2,0,0)">
<stop offset="0" style="stop-color:rgb(16.078431%,71.372549%,96.470588%);stop-opacity:1;"/>
<stop offset="0.67" style="stop-color:rgb(39.607843%,45.098039%,82.745098%);stop-opacity:1;"/>
<stop offset="1" style="stop-color:rgb(49.411765%,34.117647%,76.862745%);stop-opacity:1;"/>
</linearGradient>
<linearGradient id="linear1" gradientUnits="userSpaceOnUse" x1="32" y1="60.9" x2="32" y2="18.72" gradientTransform="matrix(2,0,0,2,0,0)">
<stop offset="0" style="stop-color:rgb(86.27451%,87.058824%,88.627451%);stop-opacity:1;"/>
<stop offset="0.57" style="stop-color:rgb(87.058824%,87.843137%,89.411765%);stop-opacity:1;"/>
<stop offset="0.81" style="stop-color:rgb(89.803922%,90.588235%,91.764706%);stop-opacity:1;"/>
<stop offset="0.99" style="stop-color:rgb(94.901961%,95.294118%,95.686275%);stop-opacity:1;"/>
<stop offset="1" style="stop-color:rgb(95.294118%,95.686275%,96.078431%);stop-opacity:1;"/>
</linearGradient>
<linearGradient id="linear2" gradientUnits="userSpaceOnUse" x1="22.23" y1="50" x2="22.23" y2="31.89" gradientTransform="matrix(2,0,0,2,0,0)">
<stop offset="0" style="stop-color:rgb(75.294118%,75.294118%,75.294118%);stop-opacity:1;"/>
<stop offset="1" style="stop-color:rgb(55.686275%,55.686275%,55.686275%);stop-opacity:1;"/>
</linearGradient>
<linearGradient id="linear3" gradientUnits="userSpaceOnUse" x1="41.77" y1="50" x2="41.77" y2="31.89" gradientTransform="matrix(2,0,0,2,0,0)">
<stop offset="0" style="stop-color:rgb(75.294118%,75.294118%,75.294118%);stop-opacity:1;"/>
<stop offset="1" style="stop-color:rgb(55.686275%,55.686275%,55.686275%);stop-opacity:1;"/>
</linearGradient>
<linearGradient id="linear4" gradientUnits="userSpaceOnUse" x1="32" y1="50" x2="32" y2="31.89" gradientTransform="matrix(2,0,0,2,0,0)">
<stop offset="0" style="stop-color:rgb(75.294118%,75.294118%,75.294118%);stop-opacity:1;"/>
<stop offset="1" style="stop-color:rgb(55.686275%,55.686275%,55.686275%);stop-opacity:1;"/>
</linearGradient>
</defs>
<g id="surface1">
<path style=" stroke:none;fill-rule:nonzero;fill:url(#linear0);" d="M 128 42.621094 C 127.988281 36.960938 123.398438 32.378906 117.738281 32.378906 L 82.898438 32.378906 C 75.777344 32.382812 69.960938 26.683594 69.820312 19.558594 C 69.929688 12.308594 64.152344 6.332031 56.898438 6.199219 L 6.761719 6.199219 C 3.027344 6.199219 0 9.226562 0 12.960938 L 0 46.839844 L 128 46.839844 Z M 128 42.621094 "/>
<path style=" stroke:none;fill-rule:nonzero;fill:url(#linear1);" d="M 117.738281 37.441406 L 10.261719 37.441406 C 4.59375 37.441406 0 42.035156 0 47.699219 L 0 111.558594 C 0.0117188 117.21875 4.601562 121.800781 10.261719 121.800781 L 117.738281 121.800781 C 123.398438 121.800781 127.988281 117.21875 128 111.558594 L 128 47.699219 C 128 42.035156 123.40625 37.441406 117.738281 37.441406 Z M 117.738281 37.441406 "/>
<path style=" stroke:none;fill-rule:nonzero;fill:url(#linear2);" d="M 51.421875 98.519531 C 50.714844 98.523438 50.042969 98.214844 49.578125 97.679688 L 35.679688 81.839844 C 34.878906 80.914062 34.878906 79.542969 35.679688 78.621094 L 49.679688 62.78125 C 50.195312 61.949219 51.15625 61.503906 52.121094 61.652344 C 53.089844 61.800781 53.875 62.507812 54.117188 63.457031 C 54.363281 64.402344 54.015625 65.40625 53.238281 66 L 40.761719 80.238281 L 53.238281 94.480469 C 53.695312 94.96875 53.933594 95.621094 53.890625 96.289062 C 53.847656 96.953125 53.535156 97.574219 53.019531 98 C 52.5625 98.355469 51.996094 98.539062 51.421875 98.519531 Z M 51.421875 98.519531 "/>
<path style=" stroke:none;fill-rule:nonzero;fill:url(#linear3);" d="M 76.578125 98.519531 C 75.992188 98.519531 75.425781 98.304688 74.980469 97.921875 C 74.492188 97.496094 74.191406 96.894531 74.148438 96.246094 C 74.109375 95.597656 74.328125 94.964844 74.761719 94.480469 L 87.238281 80.238281 L 74.761719 66 C 74.136719 65.351562 73.917969 64.417969 74.191406 63.5625 C 74.464844 62.703125 75.1875 62.070312 76.074219 61.90625 C 76.957031 61.742188 77.859375 62.078125 78.421875 62.78125 L 92.320312 78.621094 C 93.121094 79.542969 93.121094 80.914062 92.320312 81.839844 L 78.421875 97.679688 C 77.957031 98.214844 77.285156 98.523438 76.578125 98.519531 Z M 76.578125 98.519531 "/>
<path style=" stroke:none;fill-rule:nonzero;fill:url(#linear4);" d="M 58.480469 99.078125 C 58.214844 99.082031 57.949219 99.035156 57.699219 98.941406 C 56.425781 98.511719 55.738281 97.136719 56.160156 95.859375 L 67.21875 63.058594 C 67.703125 61.867188 69.03125 61.257812 70.253906 61.664062 C 71.472656 62.070312 72.167969 63.355469 71.839844 64.601562 L 60.78125 97.421875 C 60.453125 98.410156 59.523438 99.082031 58.480469 99.078125 Z M 58.480469 99.078125 "/>
</g>
</svg>
