
<svg xmlns="http://www.w3.org/2000/svg" xmlns:xlink="http://www.w3.org/1999/xlink" width="128px" height="128px" viewBox="0 0 128 128" version="1.1">
<defs>
<linearGradient id="linear0" gradientUnits="userSpaceOnUse" x1="32" y1="3.8" x2="32" y2="23.49" gradientTransform="matrix(2,0,0,2,0,0)">
<stop offset="0" style="stop-color:rgb(16.078431%,71.372549%,96.470588%);stop-opacity:1;"/>
<stop offset="0.67" style="stop-color:rgb(39.607843%,45.098039%,82.745098%);stop-opacity:1;"/>
<stop offset="1" style="stop-color:rgb(49.411765%,34.117647%,76.862745%);stop-opacity:1;"/>
</linearGradient>
<linearGradient id="linear1" gradientUnits="userSpaceOnUse" x1="32" y1="60.9" x2="32" y2="18.72" gradientTransform="matrix(2,0,0,2,0,0)">
<stop offset="0" style="stop-color:rgb(86.27451%,87.058824%,88.627451%);stop-opacity:1;"/>
<stop offset="0.57" style="stop-color:rgb(87.058824%,87.843137%,89.411765%);stop-opacity:1;"/>
<stop offset="0.81" style="stop-color:rgb(89.803922%,90.588235%,91.764706%);stop-opacity:1;"/>
<stop offset="0.99" style="stop-color:rgb(94.901961%,95.294118%,95.686275%);stop-opacity:1;"/>
<stop offset="1" style="stop-color:rgb(95.294118%,95.686275%,96.078431%);stop-opacity:1;"/>
</linearGradient>
<linearGradient id="linear2" gradientUnits="userSpaceOnUse" x1="32" y1="29.75" x2="32" y2="48.32" gradientTransform="matrix(2,0,0,2,0,0)">
<stop offset="0" style="stop-color:rgb(55.686275%,55.686275%,55.686275%);stop-opacity:1;"/>
<stop offset="1" style="stop-color:rgb(75.294118%,75.294118%,75.294118%);stop-opacity:1;"/>
</linearGradient>
</defs>
<g id="surface1">
<path style=" stroke:none;fill-rule:nonzero;fill:url(#linear0);" d="M 128 42.621094 C 127.988281 36.960938 123.398438 32.378906 117.738281 32.378906 L 82.898438 32.378906 C 75.777344 32.382812 69.960938 26.683594 69.820312 19.558594 C 69.929688 12.308594 64.152344 6.332031 56.898438 6.199219 L 6.761719 6.199219 C 3.027344 6.199219 0 9.226562 0 12.960938 L 0 46.839844 L 128 46.839844 Z M 128 42.621094 "/>
<path style=" stroke:none;fill-rule:nonzero;fill:url(#linear1);" d="M 117.738281 37.441406 L 10.261719 37.441406 C 4.59375 37.441406 0 42.035156 0 47.699219 L 0 111.558594 C 0.0117188 117.21875 4.601562 121.800781 10.261719 121.800781 L 117.738281 121.800781 C 123.398438 121.800781 127.988281 117.21875 128 111.558594 L 128 47.699219 C 128 42.035156 123.40625 37.441406 117.738281 37.441406 Z M 117.738281 37.441406 "/>
<path style=" stroke:none;fill-rule:nonzero;fill:url(#linear2);" d="M 88 66.980469 L 77.019531 63.320312 C 76.207031 63.042969 75.65625 62.28125 75.660156 61.421875 C 75.660156 60.316406 74.765625 59.421875 73.660156 59.421875 L 40.660156 59.421875 C 39.554688 59.421875 38.660156 60.316406 38.660156 61.421875 L 38.660156 96.878906 C 38.660156 97.984375 39.554688 98.878906 40.660156 98.878906 L 73.621094 98.878906 C 74.722656 98.878906 75.621094 97.984375 75.621094 96.878906 C 75.585938 96.222656 75.878906 95.589844 76.402344 95.191406 C 76.925781 94.792969 77.613281 94.675781 78.238281 94.878906 L 78.578125 94.980469 C 79.082031 95.152344 79.636719 95.113281 80.113281 94.878906 C 80.589844 94.640625 80.953125 94.226562 81.121094 93.71875 L 89.121094 69.460938 C 89.453125 68.46875 88.964844 67.386719 88 66.980469 Z M 69.140625 90.421875 L 45.140625 90.421875 C 44.035156 90.421875 43.140625 89.523438 43.140625 88.421875 L 43.140625 65.878906 C 43.140625 64.777344 44.035156 63.878906 45.140625 63.878906 L 69.140625 63.878906 C 70.246094 63.878906 71.140625 64.777344 71.140625 65.878906 L 71.140625 88.421875 C 71.140625 89.523438 70.246094 90.421875 69.140625 90.421875 Z M 75.621094 86 L 75.621094 69.160156 C 75.621094 68.519531 75.925781 67.917969 76.445312 67.542969 C 76.964844 67.167969 77.632812 67.0625 78.238281 67.261719 L 83.71875 69.101562 C 84.226562 69.269531 84.640625 69.632812 84.878906 70.109375 C 85.113281 70.585938 85.152344 71.136719 84.980469 71.640625 L 80 86.699219 C 79.65625 87.75 78.527344 88.320312 77.480469 87.980469 L 77.039062 87.820312 C 76.230469 87.574219 75.660156 86.847656 75.621094 86 Z M 75.621094 86 "/>
</g>
</svg>
