
<svg xmlns="http://www.w3.org/2000/svg" xmlns:xlink="http://www.w3.org/1999/xlink" width="128px" height="128px" viewBox="0 0 128 128" version="1.1">
<defs>
<linearGradient id="linear0" gradientUnits="userSpaceOnUse" x1="32" y1="3.8" x2="32" y2="23.49" gradientTransform="matrix(2,0,0,2,0,0)">
<stop offset="0" style="stop-color:rgb(16.078431%,71.372549%,96.470588%);stop-opacity:1;"/>
<stop offset="0.67" style="stop-color:rgb(39.607843%,45.098039%,82.745098%);stop-opacity:1;"/>
<stop offset="1" style="stop-color:rgb(49.411765%,34.117647%,76.862745%);stop-opacity:1;"/>
</linearGradient>
<linearGradient id="linear1" gradientUnits="userSpaceOnUse" x1="32" y1="60.9" x2="32" y2="18.72" gradientTransform="matrix(2,0,0,2,0,0)">
<stop offset="0" style="stop-color:rgb(86.27451%,87.058824%,88.627451%);stop-opacity:1;"/>
<stop offset="0.57" style="stop-color:rgb(87.058824%,87.843137%,89.411765%);stop-opacity:1;"/>
<stop offset="0.81" style="stop-color:rgb(89.803922%,90.588235%,91.764706%);stop-opacity:1;"/>
<stop offset="0.99" style="stop-color:rgb(94.901961%,95.294118%,95.686275%);stop-opacity:1;"/>
<stop offset="1" style="stop-color:rgb(95.294118%,95.686275%,96.078431%);stop-opacity:1;"/>
</linearGradient>
<linearGradient id="linear2" gradientUnits="userSpaceOnUse" x1="32" y1="49.65" x2="32" y2="33.14" gradientTransform="matrix(2,0,0,2,0,0)">
<stop offset="0" style="stop-color:rgb(75.294118%,75.294118%,75.294118%);stop-opacity:1;"/>
<stop offset="1" style="stop-color:rgb(55.686275%,55.686275%,55.686275%);stop-opacity:1;"/>
</linearGradient>
<linearGradient id="linear3" gradientUnits="userSpaceOnUse" x1="25.94" y1="49.65" x2="25.94" y2="33.14" gradientTransform="matrix(2,0,0,2,0,0)">
<stop offset="0" style="stop-color:rgb(75.294118%,75.294118%,75.294118%);stop-opacity:1;"/>
<stop offset="1" style="stop-color:rgb(55.686275%,55.686275%,55.686275%);stop-opacity:1;"/>
</linearGradient>
<linearGradient id="linear4" gradientUnits="userSpaceOnUse" x1="25.94" y1="49.65" x2="25.94" y2="33.14" gradientTransform="matrix(2,0,0,2,0,0)">
<stop offset="0" style="stop-color:rgb(75.294118%,75.294118%,75.294118%);stop-opacity:1;"/>
<stop offset="1" style="stop-color:rgb(55.686275%,55.686275%,55.686275%);stop-opacity:1;"/>
</linearGradient>
<linearGradient id="linear5" gradientUnits="userSpaceOnUse" x1="25.94" y1="49.65" x2="25.94" y2="33.14" gradientTransform="matrix(2,0,0,2,0,0)">
<stop offset="0" style="stop-color:rgb(75.294118%,75.294118%,75.294118%);stop-opacity:1;"/>
<stop offset="1" style="stop-color:rgb(55.686275%,55.686275%,55.686275%);stop-opacity:1;"/>
</linearGradient>
<linearGradient id="linear6" gradientUnits="userSpaceOnUse" x1="25.94" y1="49.65" x2="25.94" y2="33.14" gradientTransform="matrix(2,0,0,2,0,0)">
<stop offset="0" style="stop-color:rgb(75.294118%,75.294118%,75.294118%);stop-opacity:1;"/>
<stop offset="1" style="stop-color:rgb(55.686275%,55.686275%,55.686275%);stop-opacity:1;"/>
</linearGradient>
</defs>
<g id="surface1">
<path style=" stroke:none;fill-rule:nonzero;fill:url(#linear0);" d="M 128 42.621094 C 127.988281 36.960938 123.398438 32.378906 117.738281 32.378906 L 82.898438 32.378906 C 75.777344 32.382812 69.960938 26.683594 69.820312 19.558594 C 69.929688 12.308594 64.152344 6.332031 56.898438 6.199219 L 6.761719 6.199219 C 3.027344 6.199219 0 9.226562 0 12.960938 L 0 46.839844 L 128 46.839844 Z M 128 42.621094 "/>
<path style=" stroke:none;fill-rule:nonzero;fill:url(#linear1);" d="M 117.738281 37.441406 L 10.261719 37.441406 C 4.59375 37.441406 0 42.035156 0 47.699219 L 0 111.558594 C 0.0117188 117.21875 4.601562 121.800781 10.261719 121.800781 L 117.738281 121.800781 C 123.398438 121.800781 127.988281 117.21875 128 111.558594 L 128 47.699219 C 128 42.035156 123.40625 37.441406 117.738281 37.441406 Z M 117.738281 37.441406 "/>
<path style=" stroke:none;fill-rule:nonzero;fill:url(#linear2);" d="M 89.539062 67.359375 C 87.292969 66.4375 84.972656 65.714844 82.601562 65.199219 L 82.601562 55.199219 C 82.59375 54.816406 82.417969 54.453125 82.125 54.207031 C 81.828125 53.960938 81.4375 53.855469 81.058594 53.921875 C 71.71875 55.578125 65.378906 63.921875 63.480469 66.859375 C 48.238281 61.078125 38.640625 67.121094 38.238281 67.378906 C 37.863281 67.617188 37.632812 68.035156 37.640625 68.480469 L 37.640625 99.320312 C 37.652344 99.789062 37.910156 100.21875 38.324219 100.445312 C 38.734375 100.671875 39.238281 100.664062 39.640625 100.421875 C 39.640625 100.421875 48.980469 94.621094 63.480469 100.421875 L 64.398438 100.421875 C 64.398438 100.421875 73.761719 94.621094 88.261719 100.421875 C 88.417969 100.492188 88.585938 100.527344 88.761719 100.519531 C 89.015625 100.515625 89.265625 100.4375 89.480469 100.300781 C 89.839844 100.058594 90.058594 99.652344 90.058594 99.21875 L 90.058594 68.578125 C 90.121094 68.109375 89.921875 67.640625 89.539062 67.359375 Z M 62.699219 97.359375 C 58.855469 95.941406 54.796875 95.199219 50.699219 95.160156 C 47.140625 95.121094 43.609375 95.800781 40.320312 97.160156 L 40.320312 69.339844 C 42.539062 68.21875 50.78125 64.878906 62.761719 69.460938 Z M 87.738281 97.359375 C 83.898438 95.941406 79.835938 95.195312 75.738281 95.160156 C 73.035156 95.136719 70.339844 95.503906 67.738281 96.261719 C 70.519531 92.921875 75.320312 88.359375 81.460938 87.28125 C 82.101562 87.191406 82.585938 86.648438 82.601562 86 L 82.601562 68 C 84.351562 68.386719 86.070312 68.910156 87.738281 69.558594 Z M 87.738281 97.359375 "/>
<path style=" stroke:none;fill-rule:nonzero;fill:url(#linear3);" d="M 43.679688 72.160156 C 43.023438 72.453125 42.726562 73.222656 43.019531 73.878906 C 43.3125 74.539062 44.082031 74.832031 44.738281 74.539062 C 49.421875 72.960938 54.523438 73.195312 59.039062 75.199219 C 59.203125 75.234375 59.375 75.234375 59.539062 75.199219 C 60.078125 75.113281 60.507812 74.699219 60.609375 74.160156 C 60.714844 73.625 60.46875 73.082031 60 72.800781 C 54.847656 70.476562 48.996094 70.246094 43.679688 72.160156 Z M 43.679688 72.160156 "/>
<path style=" stroke:none;fill-rule:nonzero;fill:url(#linear4);" d="M 60 78.660156 C 54.855469 76.324219 49 76.085938 43.679688 78 C 43.359375 78.136719 43.109375 78.394531 42.984375 78.71875 C 42.859375 79.042969 42.871094 79.40625 43.019531 79.71875 C 43.328125 80.363281 44.082031 80.652344 44.738281 80.378906 C 49.417969 78.773438 54.53125 79.011719 59.039062 81.039062 C 59.199219 81.101562 59.367188 81.132812 59.539062 81.140625 C 60.074219 81.148438 60.554688 80.820312 60.738281 80.320312 C 60.984375 79.65625 60.65625 78.921875 60 78.660156 Z M 60 78.660156 "/>
<path style=" stroke:none;fill-rule:nonzero;fill:url(#linear5);" d="M 60 84.539062 C 54.832031 82.261719 48.984375 82.066406 43.679688 84 C 43.023438 84.292969 42.726562 85.0625 43.019531 85.71875 C 43.3125 86.378906 44.082031 86.671875 44.738281 86.378906 C 49.421875 84.800781 54.527344 85.042969 59.039062 87.058594 C 59.199219 87.121094 59.367188 87.152344 59.539062 87.160156 C 60.261719 87.285156 60.953125 86.804688 61.078125 86.078125 C 61.207031 85.355469 60.722656 84.667969 60 84.539062 Z M 60 84.539062 "/>
<path style=" stroke:none;fill-rule:nonzero;fill:url(#linear6);" d="M 60 90.398438 C 54.832031 88.078125 48.96875 87.855469 43.640625 89.78125 C 43.324219 89.921875 43.078125 90.179688 42.953125 90.503906 C 42.828125 90.824219 42.839844 91.183594 42.980469 91.5 C 43.28125 92.148438 44.042969 92.441406 44.699219 92.160156 C 49.378906 90.578125 54.484375 90.816406 59 92.820312 C 59.15625 92.890625 59.328125 92.921875 59.5 92.921875 C 60.027344 92.925781 60.503906 92.609375 60.699219 92.121094 C 60.976562 91.453125 60.664062 90.683594 60 90.398438 Z M 60 90.398438 "/>
</g>
</svg>
