
<svg xmlns="http://www.w3.org/2000/svg" xmlns:xlink="http://www.w3.org/1999/xlink" width="128px" height="128px" viewBox="0 0 128 128" version="1.1">
<defs>
<linearGradient id="linear0" gradientUnits="userSpaceOnUse" x1="32" y1="3.8" x2="32" y2="23.49" gradientTransform="matrix(2,0,0,2,0,0)">
<stop offset="0" style="stop-color:rgb(16.078431%,71.372549%,96.470588%);stop-opacity:1;"/>
<stop offset="0.67" style="stop-color:rgb(39.607843%,45.098039%,82.745098%);stop-opacity:1;"/>
<stop offset="1" style="stop-color:rgb(49.411765%,34.117647%,76.862745%);stop-opacity:1;"/>
</linearGradient>
<linearGradient id="linear1" gradientUnits="userSpaceOnUse" x1="32" y1="60.9" x2="32" y2="18.72" gradientTransform="matrix(2,0,0,2,0,0)">
<stop offset="0" style="stop-color:rgb(86.27451%,87.058824%,88.627451%);stop-opacity:1;"/>
<stop offset="0.57" style="stop-color:rgb(87.058824%,87.843137%,89.411765%);stop-opacity:1;"/>
<stop offset="0.81" style="stop-color:rgb(89.803922%,90.588235%,91.764706%);stop-opacity:1;"/>
<stop offset="0.99" style="stop-color:rgb(94.901961%,95.294118%,95.686275%);stop-opacity:1;"/>
<stop offset="1" style="stop-color:rgb(95.294118%,95.686275%,96.078431%);stop-opacity:1;"/>
</linearGradient>
<linearGradient id="linear2" gradientUnits="userSpaceOnUse" x1="32.02" y1="30.5" x2="32.02" y2="49.51" gradientTransform="matrix(2,0,0,2,0,0)">
<stop offset="0" style="stop-color:rgb(55.686275%,55.686275%,55.686275%);stop-opacity:1;"/>
<stop offset="1" style="stop-color:rgb(75.294118%,75.294118%,75.294118%);stop-opacity:1;"/>
</linearGradient>
<linearGradient id="linear3" gradientUnits="userSpaceOnUse" x1="32.01" y1="30.5" x2="32.01" y2="49.51" gradientTransform="matrix(2,0,0,2,0,0)">
<stop offset="0" style="stop-color:rgb(55.686275%,55.686275%,55.686275%);stop-opacity:1;"/>
<stop offset="1" style="stop-color:rgb(75.294118%,75.294118%,75.294118%);stop-opacity:1;"/>
</linearGradient>
<linearGradient id="linear4" gradientUnits="userSpaceOnUse" x1="32" y1="30.5" x2="32" y2="49.51" gradientTransform="matrix(2,0,0,2,0,0)">
<stop offset="0" style="stop-color:rgb(55.686275%,55.686275%,55.686275%);stop-opacity:1;"/>
<stop offset="1" style="stop-color:rgb(75.294118%,75.294118%,75.294118%);stop-opacity:1;"/>
</linearGradient>
<linearGradient id="linear5" gradientUnits="userSpaceOnUse" x1="32.09" y1="30.5" x2="32.09" y2="49.51" gradientTransform="matrix(2,0,0,2,-0.00721115,-0.00784262)">
<stop offset="0" style="stop-color:rgb(55.686275%,55.686275%,55.686275%);stop-opacity:1;"/>
<stop offset="1" style="stop-color:rgb(75.294118%,75.294118%,75.294118%);stop-opacity:1;"/>
</linearGradient>
</defs>
<g id="surface1">
<path style=" stroke:none;fill-rule:nonzero;fill:url(#linear0);" d="M 128 42.621094 C 127.988281 36.960938 123.398438 32.378906 117.738281 32.378906 L 82.898438 32.378906 C 75.777344 32.382812 69.960938 26.683594 69.820312 19.558594 C 69.929688 12.308594 64.152344 6.332031 56.898438 6.199219 L 6.761719 6.199219 C 3.027344 6.199219 0 9.226562 0 12.960938 L 0 46.839844 L 128 46.839844 Z M 128 42.621094 "/>
<path style=" stroke:none;fill-rule:nonzero;fill:url(#linear1);" d="M 117.738281 37.441406 L 10.261719 37.441406 C 4.59375 37.441406 0 42.035156 0 47.699219 L 0 111.558594 C 0.0117188 117.21875 4.601562 121.800781 10.261719 121.800781 L 117.738281 121.800781 C 123.398438 121.800781 127.988281 117.21875 128 111.558594 L 128 47.699219 C 128 42.035156 123.40625 37.441406 117.738281 37.441406 Z M 117.738281 37.441406 "/>
<path style=" stroke:none;fill-rule:nonzero;fill:url(#linear2);" d="M 77.121094 88 C 76.65625 88.46875 76.019531 88.734375 75.359375 88.734375 C 74.699219 88.734375 74.066406 88.46875 73.601562 88 C 68.3125 82.742188 59.769531 82.742188 54.480469 88 C 53.507812 88.972656 51.933594 88.972656 50.960938 88 C 49.988281 87.027344 49.988281 85.453125 50.960938 84.480469 C 58.183594 77.269531 69.878906 77.269531 77.101562 84.480469 C 78.070312 85.449219 78.082031 87.019531 77.121094 88 Z M 77.121094 88 "/>
<path style=" stroke:none;fill-rule:nonzero;fill:url(#linear3);" d="M 82.660156 82.179688 C 82.195312 82.648438 81.5625 82.914062 80.898438 82.914062 C 80.238281 82.914062 79.605469 82.648438 79.140625 82.179688 C 70.785156 73.839844 57.253906 73.839844 48.898438 82.179688 C 47.914062 83.066406 46.40625 83.027344 45.464844 82.09375 C 44.523438 81.160156 44.480469 79.652344 45.359375 78.660156 C 55.664062 68.375 72.355469 68.375 82.660156 78.660156 C 83.625 79.632812 83.625 81.207031 82.660156 82.179688 Z M 82.660156 82.179688 "/>
<path style=" stroke:none;fill-rule:nonzero;fill:url(#linear4);" d="M 88.28125 76.21875 C 87.300781 77.175781 85.738281 77.175781 84.761719 76.21875 C 73.300781 64.757812 54.71875 64.757812 43.261719 76.21875 C 42.273438 77.105469 40.765625 77.070312 39.824219 76.132812 C 38.886719 75.199219 38.839844 73.691406 39.71875 72.699219 C 53.128906 59.304688 74.851562 59.304688 88.261719 72.699219 C 89.230469 73.667969 89.242188 75.238281 88.28125 76.21875 Z M 88.28125 76.21875 "/>
<path style=" stroke:none;fill-rule:nonzero;fill:url(#linear5);" d="M 68.445312 89.886719 C 66.730469 87.527344 63.4375 86.996094 61.085938 88.703125 C 58.734375 90.410156 58.21875 93.707031 59.933594 96.066406 C 61.644531 98.425781 64.941406 98.957031 67.292969 97.25 C 69.640625 95.542969 70.15625 92.246094 68.445312 89.886719 Z M 68.445312 89.886719 "/>
</g>
</svg>
