
<svg xmlns="http://www.w3.org/2000/svg" xmlns:xlink="http://www.w3.org/1999/xlink" width="128px" height="128px" viewBox="0 0 128 128" version="1.1">
<defs>
<linearGradient id="linear0" gradientUnits="userSpaceOnUse" x1="32" y1="3.8" x2="32" y2="23.49" gradientTransform="matrix(2,0,0,2,0,0)">
<stop offset="0" style="stop-color:rgb(16.078431%,71.372549%,96.470588%);stop-opacity:1;"/>
<stop offset="0.67" style="stop-color:rgb(39.607843%,45.098039%,82.745098%);stop-opacity:1;"/>
<stop offset="1" style="stop-color:rgb(49.411765%,34.117647%,76.862745%);stop-opacity:1;"/>
</linearGradient>
<linearGradient id="linear1" gradientUnits="userSpaceOnUse" x1="32" y1="60.9" x2="32" y2="18.72" gradientTransform="matrix(2,0,0,2,0,0)">
<stop offset="0" style="stop-color:rgb(86.27451%,87.058824%,88.627451%);stop-opacity:1;"/>
<stop offset="0.57" style="stop-color:rgb(87.058824%,87.843137%,89.411765%);stop-opacity:1;"/>
<stop offset="0.81" style="stop-color:rgb(89.803922%,90.588235%,91.764706%);stop-opacity:1;"/>
<stop offset="0.99" style="stop-color:rgb(94.901961%,95.294118%,95.686275%);stop-opacity:1;"/>
<stop offset="1" style="stop-color:rgb(95.294118%,95.686275%,96.078431%);stop-opacity:1;"/>
</linearGradient>
<linearGradient id="linear2" gradientUnits="userSpaceOnUse" x1="32" y1="52.32" x2="32" y2="28.32" gradientTransform="matrix(2,0,0,2,0,0)">
<stop offset="0" style="stop-color:rgb(75.294118%,75.294118%,75.294118%);stop-opacity:1;"/>
<stop offset="1" style="stop-color:rgb(55.686275%,55.686275%,55.686275%);stop-opacity:1;"/>
</linearGradient>
<linearGradient id="linear3" gradientUnits="userSpaceOnUse" x1="32" y1="44.29" x2="32" y2="36.33" gradientTransform="matrix(2,0,0,2,0,0)">
<stop offset="0" style="stop-color:rgb(75.294118%,75.294118%,75.294118%);stop-opacity:1;"/>
<stop offset="1" style="stop-color:rgb(55.686275%,55.686275%,55.686275%);stop-opacity:1;"/>
</linearGradient>
</defs>
<g id="surface1">
<path style=" stroke:none;fill-rule:nonzero;fill:url(#linear0);" d="M 128 42.621094 C 127.988281 36.960938 123.398438 32.378906 117.738281 32.378906 L 82.898438 32.378906 C 75.777344 32.382812 69.960938 26.683594 69.820312 19.558594 C 69.929688 12.308594 64.152344 6.332031 56.898438 6.199219 L 6.761719 6.199219 C 3.027344 6.199219 0 9.226562 0 12.960938 L 0 46.839844 L 128 46.839844 Z M 128 42.621094 "/>
<path style=" stroke:none;fill-rule:nonzero;fill:url(#linear1);" d="M 117.738281 37.441406 L 10.261719 37.441406 C 4.59375 37.441406 0 42.035156 0 47.699219 L 0 111.558594 C 0.0117188 117.21875 4.601562 121.800781 10.261719 121.800781 L 117.738281 121.800781 C 123.398438 121.800781 127.988281 117.21875 128 111.558594 L 128 47.699219 C 128 42.035156 123.40625 37.441406 117.738281 37.441406 Z M 117.738281 37.441406 "/>
<path style=" stroke:none;fill-rule:nonzero;fill:url(#linear2);" d="M 65.21875 104.640625 L 63.21875 104.640625 C 60.355469 104.203125 58.183594 101.832031 58 98.941406 C 58 98.160156 57.761719 97.539062 56.960938 97.238281 C 56.238281 97 55.441406 97.230469 54.960938 97.820312 C 52.507812 99.929688 48.855469 99.835938 46.519531 97.601562 C 44.25 95.359375 44.1875 91.714844 46.378906 89.398438 C 46.859375 88.859375 47.28125 88.339844 46.941406 87.601562 C 46.601562 86.859375 45.898438 86.71875 45.121094 86.699219 C 42.582031 86.691406 40.324219 85.089844 39.480469 82.699219 C 39.378906 82.398438 39.261719 82.121094 39.140625 81.820312 L 39.140625 79.820312 C 39.710938 76.945312 42.210938 74.855469 45.140625 74.800781 C 45.84375 74.894531 46.527344 74.511719 46.804688 73.855469 C 47.085938 73.203125 46.894531 72.445312 46.339844 72 C 45.253906 70.890625 44.660156 69.390625 44.691406 67.835938 C 44.722656 66.285156 45.375 64.808594 46.5 63.738281 C 48.910156 61.527344 52.609375 61.527344 55.019531 63.738281 C 55.523438 64.304688 56.332031 64.472656 57.019531 64.160156 C 57.820312 63.839844 57.898438 63.21875 57.921875 62.519531 C 58.007812 59.761719 59.960938 57.417969 62.660156 56.839844 C 62.785156 56.804688 62.90625 56.75 63.019531 56.679688 L 65.019531 56.679688 C 65.105469 56.738281 65.191406 56.792969 65.28125 56.839844 C 68.035156 57.359375 70.058594 59.71875 70.160156 62.519531 C 70.222656 63.128906 70.5625 63.671875 71.078125 64 C 71.699219 64.109375 72.335938 63.941406 72.820312 63.539062 C 75.285156 61.382812 78.984375 61.441406 81.378906 63.679688 C 83.664062 65.96875 83.664062 69.671875 81.378906 71.960938 C 80.769531 72.433594 80.585938 73.273438 80.941406 73.960938 C 81.261719 74.738281 81.898438 74.839844 82.640625 74.839844 C 84.136719 74.730469 85.605469 75.292969 86.640625 76.378906 C 87.433594 77.460938 88.136719 78.605469 88.738281 79.800781 L 88.738281 81.800781 C 88.082031 84.777344 85.410156 86.871094 82.359375 86.800781 C 81.839844 86.878906 81.390625 87.207031 81.160156 87.679688 C 81.097656 88.28125 81.269531 88.882812 81.640625 89.359375 C 83.824219 91.71875 83.761719 95.378906 81.5 97.660156 C 79.09375 99.882812 75.398438 99.941406 72.921875 97.800781 C 72.453125 97.390625 71.828125 97.222656 71.21875 97.339844 C 70.695312 97.714844 70.359375 98.296875 70.300781 98.941406 C 70.296875 100.386719 69.710938 101.769531 68.679688 102.78125 C 67.578125 103.492188 66.421875 104.113281 65.21875 104.640625 Z M 64.101562 100.761719 C 64.691406 100.820312 65.28125 100.617188 65.707031 100.199219 C 66.132812 99.78125 66.351562 99.195312 66.300781 98.601562 C 66.191406 96.40625 67.496094 94.382812 69.539062 93.578125 C 71.574219 92.671875 73.957031 93.109375 75.539062 94.679688 C 76.394531 95.503906 77.746094 95.503906 78.601562 94.679688 C 79.042969 94.300781 79.300781 93.746094 79.300781 93.160156 C 79.300781 92.574219 79.042969 92.019531 78.601562 91.640625 C 77.003906 90.15625 76.550781 87.8125 77.480469 85.839844 C 78.324219 83.886719 80.253906 82.625 82.378906 82.640625 C 83.878906 82.539062 84.78125 81.71875 84.738281 80.519531 C 84.699219 79.320312 83.820312 78.519531 82.28125 78.519531 C 80.148438 78.578125 78.195312 77.335938 77.339844 75.378906 C 76.332031 73.371094 76.746094 70.941406 78.359375 69.378906 C 78.851562 69.023438 79.152344 68.460938 79.179688 67.855469 C 79.207031 67.246094 78.957031 66.660156 78.5 66.261719 C 78.066406 65.863281 77.488281 65.652344 76.902344 65.679688 C 76.3125 65.703125 75.757812 65.964844 75.359375 66.398438 C 73.78125 67.902344 71.460938 68.320312 69.460938 67.460938 C 67.4375 66.710938 66.101562 64.777344 66.121094 62.621094 C 66.109375 61.453125 65.167969 60.511719 64 60.5 C 63.417969 60.492188 62.859375 60.730469 62.457031 61.148438 C 62.054688 61.570312 61.847656 62.140625 61.878906 62.71875 C 61.957031 64.882812 60.667969 66.859375 58.660156 67.660156 C 56.582031 68.636719 54.117188 68.234375 52.460938 66.640625 C 52.058594 66.207031 51.503906 65.953125 50.914062 65.929688 C 50.324219 65.90625 49.753906 66.117188 49.320312 66.519531 C 48.875 66.898438 48.621094 67.457031 48.621094 68.039062 C 48.621094 68.625 48.875 69.179688 49.320312 69.558594 C 50.898438 71.0625 51.339844 73.40625 50.421875 75.378906 C 49.625 77.398438 47.667969 78.71875 45.5 78.699219 C 45.097656 78.703125 44.703125 78.792969 44.339844 78.960938 C 43.488281 79.335938 43.007812 80.246094 43.179688 81.160156 C 43.386719 82.203125 44.339844 82.929688 45.398438 82.859375 C 47.636719 82.695312 49.734375 83.949219 50.640625 86 C 51.6875 88.019531 51.226562 90.492188 49.519531 92 C 49.261719 92.25 49.070312 92.558594 48.960938 92.898438 C 48.660156 93.777344 48.996094 94.742188 49.78125 95.238281 C 50.636719 95.8125 51.777344 95.695312 52.5 94.960938 C 53.878906 93.601562 55.863281 93.0625 57.738281 93.539062 C 60.097656 93.992188 61.851562 95.984375 62 98.378906 C 62.121094 99.878906 62.878906 100.738281 64.101562 100.761719 Z M 64.101562 100.761719 "/>
<path style=" stroke:none;fill-rule:nonzero;fill:url(#linear3);" d="M 64 88.578125 C 59.605469 88.480469 56.117188 84.855469 56.179688 80.460938 C 56.246094 76.070312 59.84375 72.550781 64.238281 72.582031 C 68.632812 72.613281 72.179688 76.183594 72.179688 80.578125 C 72.101562 85.035156 68.457031 88.601562 64 88.578125 Z M 68.21875 80.578125 C 68.253906 78.855469 67.238281 77.285156 65.652344 76.605469 C 64.070312 75.925781 62.230469 76.269531 61.003906 77.480469 C 59.777344 78.691406 59.402344 80.523438 60.0625 82.117188 C 60.71875 83.710938 62.277344 84.746094 64 84.738281 C 66.292969 84.730469 68.164062 82.910156 68.238281 80.621094 Z M 68.21875 80.578125 "/>
</g>
</svg>
