
<svg xmlns="http://www.w3.org/2000/svg" xmlns:xlink="http://www.w3.org/1999/xlink" width="128px" height="128px" viewBox="0 0 128 128" version="1.1">
<defs>
<linearGradient id="linear0" gradientUnits="userSpaceOnUse" x1="32" y1="3.8" x2="32" y2="23.49" gradientTransform="matrix(2,0,0,2,0,0)">
<stop offset="0" style="stop-color:rgb(16.078431%,71.372549%,96.470588%);stop-opacity:1;"/>
<stop offset="0.67" style="stop-color:rgb(39.607843%,45.098039%,82.745098%);stop-opacity:1;"/>
<stop offset="1" style="stop-color:rgb(49.411765%,34.117647%,76.862745%);stop-opacity:1;"/>
</linearGradient>
<linearGradient id="linear1" gradientUnits="userSpaceOnUse" x1="32" y1="60.9" x2="32" y2="18.72" gradientTransform="matrix(2,0,0,2,0,0)">
<stop offset="0" style="stop-color:rgb(86.27451%,87.058824%,88.627451%);stop-opacity:1;"/>
<stop offset="0.57" style="stop-color:rgb(87.058824%,87.843137%,89.411765%);stop-opacity:1;"/>
<stop offset="0.81" style="stop-color:rgb(89.803922%,90.588235%,91.764706%);stop-opacity:1;"/>
<stop offset="0.99" style="stop-color:rgb(94.901961%,95.294118%,95.686275%);stop-opacity:1;"/>
<stop offset="1" style="stop-color:rgb(95.294118%,95.686275%,96.078431%);stop-opacity:1;"/>
</linearGradient>
<linearGradient id="linear2" gradientUnits="userSpaceOnUse" x1="32" y1="51.89" x2="32" y2="31.52" gradientTransform="matrix(2,0,0,2,0,0)">
<stop offset="0" style="stop-color:rgb(75.294118%,75.294118%,75.294118%);stop-opacity:1;"/>
<stop offset="1" style="stop-color:rgb(55.686275%,55.686275%,55.686275%);stop-opacity:1;"/>
</linearGradient>
<linearGradient id="linear3" gradientUnits="userSpaceOnUse" x1="32.01" y1="51.89" x2="32.01" y2="31.52" gradientTransform="matrix(2,0,0,2,0,0)">
<stop offset="0" style="stop-color:rgb(75.294118%,75.294118%,75.294118%);stop-opacity:1;"/>
<stop offset="1" style="stop-color:rgb(55.686275%,55.686275%,55.686275%);stop-opacity:1;"/>
</linearGradient>
<linearGradient id="linear4" gradientUnits="userSpaceOnUse" x1="32" y1="51.89" x2="32" y2="31.52" gradientTransform="matrix(2,0,0,2,0,0)">
<stop offset="0" style="stop-color:rgb(75.294118%,75.294118%,75.294118%);stop-opacity:1;"/>
<stop offset="1" style="stop-color:rgb(55.686275%,55.686275%,55.686275%);stop-opacity:1;"/>
</linearGradient>
</defs>
<g id="surface1">
<path style=" stroke:none;fill-rule:nonzero;fill:url(#linear0);" d="M 128 42.621094 C 127.988281 36.960938 123.398438 32.378906 117.738281 32.378906 L 82.898438 32.378906 C 75.777344 32.382812 69.960938 26.683594 69.820312 19.558594 C 69.929688 12.308594 64.152344 6.332031 56.898438 6.199219 L 6.761719 6.199219 C 3.027344 6.199219 0 9.226562 0 12.960938 L 0 46.839844 L 128 46.839844 Z M 128 42.621094 "/>
<path style=" stroke:none;fill-rule:nonzero;fill:url(#linear1);" d="M 117.738281 37.441406 L 10.261719 37.441406 C 4.59375 37.441406 0 42.035156 0 47.699219 L 0 111.558594 C 0.0117188 117.21875 4.601562 121.800781 10.261719 121.800781 L 117.738281 121.800781 C 123.398438 121.800781 127.988281 117.21875 128 111.558594 L 128 47.699219 C 128 42.035156 123.40625 37.441406 117.738281 37.441406 Z M 117.738281 37.441406 "/>
<path style=" stroke:none;fill-rule:nonzero;fill:url(#linear2);" d="M 48.441406 64.921875 C 39.851562 73.511719 39.855469 87.441406 48.445312 96.03125 C 57.035156 104.621094 70.964844 104.621094 79.554688 96.03125 C 88.144531 87.441406 88.148438 73.511719 79.558594 64.921875 C 70.96875 56.324219 57.03125 56.324219 48.441406 64.921875 Z M 76.820312 93.28125 C 70.308594 99.722656 60.019531 100.304688 52.820312 94.640625 L 61.21875 86.261719 C 61.679688 85.84375 61.917969 85.234375 61.867188 84.617188 C 61.816406 83.996094 61.480469 83.4375 60.960938 83.101562 C 60.089844 82.523438 58.933594 82.660156 58.21875 83.421875 L 49.921875 91.71875 C 43.867188 84.089844 44.929688 73.039062 52.324219 66.703125 C 59.71875 60.363281 70.800781 61.003906 77.414062 68.152344 C 84.03125 75.300781 83.8125 86.398438 76.921875 93.28125 Z M 76.820312 93.28125 "/>
<path style=" stroke:none;fill-rule:nonzero;fill:url(#linear3);" d="M 63.679688 66.238281 C 62.679688 66.460938 61.976562 67.355469 62 68.378906 L 62 74.160156 C 62 75.296875 62.921875 76.21875 64.058594 76.21875 C 65.199219 76.21875 66.121094 75.296875 66.121094 74.160156 L 66.121094 68.28125 C 66.148438 67.65625 65.882812 67.054688 65.40625 66.65625 C 64.925781 66.257812 64.289062 66.101562 63.679688 66.238281 Z M 63.679688 66.238281 "/>
<path style=" stroke:none;fill-rule:nonzero;fill:url(#linear4);" d="M 61.5 80.5 C 61.492188 81.523438 62.101562 82.449219 63.046875 82.84375 C 63.988281 83.238281 65.078125 83.023438 65.800781 82.300781 C 66.523438 81.578125 66.738281 80.488281 66.34375 79.546875 C 65.949219 78.601562 65.023438 77.992188 64 78 C 62.625 78.011719 61.511719 79.125 61.5 80.5 Z M 61.5 80.5 "/>
</g>
</svg>
