
<svg xmlns="http://www.w3.org/2000/svg" xmlns:xlink="http://www.w3.org/1999/xlink" width="128px" height="128px" viewBox="0 0 128 128" version="1.1">
<defs>
<linearGradient id="linear0" gradientUnits="userSpaceOnUse" x1="32" y1="3.8" x2="32" y2="23.49" gradientTransform="matrix(2,0,0,2,0,0)">
<stop offset="0" style="stop-color:rgb(16.078431%,71.372549%,96.470588%);stop-opacity:1;"/>
<stop offset="0.67" style="stop-color:rgb(39.607843%,45.098039%,82.745098%);stop-opacity:1;"/>
<stop offset="1" style="stop-color:rgb(49.411765%,34.117647%,76.862745%);stop-opacity:1;"/>
</linearGradient>
<linearGradient id="linear1" gradientUnits="userSpaceOnUse" x1="32" y1="60.9" x2="32" y2="18.72" gradientTransform="matrix(2,0,0,2,0,0)">
<stop offset="0" style="stop-color:rgb(86.27451%,87.058824%,88.627451%);stop-opacity:1;"/>
<stop offset="0.57" style="stop-color:rgb(87.058824%,87.843137%,89.411765%);stop-opacity:1;"/>
<stop offset="0.81" style="stop-color:rgb(89.803922%,90.588235%,91.764706%);stop-opacity:1;"/>
<stop offset="0.99" style="stop-color:rgb(94.901961%,95.294118%,95.686275%);stop-opacity:1;"/>
<stop offset="1" style="stop-color:rgb(95.294118%,95.686275%,96.078431%);stop-opacity:1;"/>
</linearGradient>
<linearGradient id="linear2" gradientUnits="userSpaceOnUse" x1="32" y1="50.63" x2="32" y2="28.33" gradientTransform="matrix(2,0,0,2,0,0)">
<stop offset="0" style="stop-color:rgb(75.294118%,75.294118%,75.294118%);stop-opacity:1;"/>
<stop offset="1" style="stop-color:rgb(55.686275%,55.686275%,55.686275%);stop-opacity:1;"/>
</linearGradient>
<linearGradient id="linear3" gradientUnits="userSpaceOnUse" x1="32" y1="50.63" x2="32" y2="28.33" gradientTransform="matrix(2,0,0,2,0,0)">
<stop offset="0" style="stop-color:rgb(75.294118%,75.294118%,75.294118%);stop-opacity:1;"/>
<stop offset="1" style="stop-color:rgb(55.686275%,55.686275%,55.686275%);stop-opacity:1;"/>
</linearGradient>
</defs>
<g id="surface1">
<path style=" stroke:none;fill-rule:nonzero;fill:url(#linear0);" d="M 128 42.621094 C 127.988281 36.960938 123.398438 32.378906 117.738281 32.378906 L 82.898438 32.378906 C 75.777344 32.382812 69.960938 26.683594 69.820312 19.558594 C 69.929688 12.308594 64.152344 6.332031 56.898438 6.199219 L 6.761719 6.199219 C 3.027344 6.199219 0 9.226562 0 12.960938 L 0 46.839844 L 128 46.839844 Z M 128 42.621094 "/>
<path style=" stroke:none;fill-rule:nonzero;fill:url(#linear1);" d="M 117.738281 37.441406 L 10.261719 37.441406 C 4.59375 37.441406 0 42.035156 0 47.699219 L 0 111.558594 C 0.0117188 117.21875 4.601562 121.800781 10.261719 121.800781 L 117.738281 121.800781 C 123.398438 121.800781 127.988281 117.21875 128 111.558594 L 128 47.699219 C 128 42.035156 123.40625 37.441406 117.738281 37.441406 Z M 117.738281 37.441406 "/>
<path style=" stroke:none;fill-rule:nonzero;fill:url(#linear2);" d="M 64 62.761719 C 67.046875 62.761719 69.519531 65.230469 69.519531 68.28125 C 69.519531 71.328125 67.046875 73.800781 64 73.800781 C 62.535156 73.8125 61.125 73.226562 60.101562 72.179688 C 58.523438 70.601562 58.054688 68.230469 58.90625 66.167969 C 59.757812 64.109375 61.769531 62.761719 64 62.761719 M 64 58.28125 C 58.476562 58.28125 54 62.757812 54 68.28125 C 54 73.804688 58.476562 78.28125 64 78.28125 C 69.523438 78.28125 74 73.804688 74 68.28125 C 74 62.757812 69.523438 58.28125 64 58.28125 Z M 64 58.28125 "/>
<path style=" stroke:none;fill-rule:nonzero;fill:url(#linear3);" d="M 64 84.960938 C 72.140625 84.949219 79.273438 90.402344 81.398438 98.261719 C 81.4375 98.328125 81.4375 98.410156 81.398438 98.480469 C 81.363281 98.5 81.316406 98.5 81.28125 98.480469 L 46.738281 98.480469 C 46.703125 98.5 46.65625 98.5 46.621094 98.480469 C 46.582031 98.410156 46.582031 98.328125 46.621094 98.261719 C 48.742188 90.410156 55.867188 84.957031 64 84.960938 M 64 80.5 C 53.851562 80.5 44.957031 87.289062 42.28125 97.078125 C 41.855469 98.492188 42.125 100.019531 43.003906 101.199219 C 43.882812 102.382812 45.265625 103.078125 46.738281 103.078125 L 81.261719 103.078125 C 82.734375 103.078125 84.117188 102.382812 84.996094 101.199219 C 85.875 100.019531 86.144531 98.492188 85.71875 97.078125 C 83.042969 87.289062 74.148438 80.5 64 80.5 Z M 64 80.5 "/>
</g>
</svg>
