
<svg xmlns="http://www.w3.org/2000/svg" xmlns:xlink="http://www.w3.org/1999/xlink" width="128px" height="128px" viewBox="0 0 128 128" version="1.1">
<defs>
<linearGradient id="linear0" gradientUnits="userSpaceOnUse" x1="32" y1="3.8" x2="32" y2="23.49" gradientTransform="matrix(2,0,0,2,0,0)">
<stop offset="0" style="stop-color:rgb(16.078431%,71.372549%,96.470588%);stop-opacity:1;"/>
<stop offset="0.67" style="stop-color:rgb(39.607843%,45.098039%,82.745098%);stop-opacity:1;"/>
<stop offset="1" style="stop-color:rgb(49.411765%,34.117647%,76.862745%);stop-opacity:1;"/>
</linearGradient>
<linearGradient id="linear1" gradientUnits="userSpaceOnUse" x1="32" y1="60.9" x2="32" y2="18.72" gradientTransform="matrix(2,0,0,2,0,0)">
<stop offset="0" style="stop-color:rgb(86.27451%,87.058824%,88.627451%);stop-opacity:1;"/>
<stop offset="0.57" style="stop-color:rgb(87.058824%,87.843137%,89.411765%);stop-opacity:1;"/>
<stop offset="0.81" style="stop-color:rgb(89.803922%,90.588235%,91.764706%);stop-opacity:1;"/>
<stop offset="0.99" style="stop-color:rgb(94.901961%,95.294118%,95.686275%);stop-opacity:1;"/>
<stop offset="1" style="stop-color:rgb(95.294118%,95.686275%,96.078431%);stop-opacity:1;"/>
</linearGradient>
<linearGradient id="linear2" gradientUnits="userSpaceOnUse" x1="29.32" y1="51.64" x2="29.32" y2="28.21" gradientTransform="matrix(2,0,0,2,0,0)">
<stop offset="0" style="stop-color:rgb(75.294118%,75.294118%,75.294118%);stop-opacity:1;"/>
<stop offset="1" style="stop-color:rgb(55.686275%,55.686275%,55.686275%);stop-opacity:1;"/>
</linearGradient>
<linearGradient id="linear3" gradientUnits="userSpaceOnUse" x1="30.58" y1="51.64" x2="30.58" y2="28.21" gradientTransform="matrix(2,0,0,2,0,0)">
<stop offset="0" style="stop-color:rgb(75.294118%,75.294118%,75.294118%);stop-opacity:1;"/>
<stop offset="1" style="stop-color:rgb(55.686275%,55.686275%,55.686275%);stop-opacity:1;"/>
</linearGradient>
<linearGradient id="linear4" gradientUnits="userSpaceOnUse" x1="33.42" y1="51.64" x2="33.42" y2="28.21" gradientTransform="matrix(2,0,0,2,0,0)">
<stop offset="0" style="stop-color:rgb(75.294118%,75.294118%,75.294118%);stop-opacity:1;"/>
<stop offset="1" style="stop-color:rgb(55.686275%,55.686275%,55.686275%);stop-opacity:1;"/>
</linearGradient>
<linearGradient id="linear5" gradientUnits="userSpaceOnUse" x1="30.58" y1="51.64" x2="30.58" y2="28.21" gradientTransform="matrix(2,0,0,2,0,0)">
<stop offset="0" style="stop-color:rgb(75.294118%,75.294118%,75.294118%);stop-opacity:1;"/>
<stop offset="1" style="stop-color:rgb(55.686275%,55.686275%,55.686275%);stop-opacity:1;"/>
</linearGradient>
<linearGradient id="linear6" gradientUnits="userSpaceOnUse" x1="30.58" y1="51.64" x2="30.58" y2="28.21" gradientTransform="matrix(2,0,0,2,0,0)">
<stop offset="0" style="stop-color:rgb(75.294118%,75.294118%,75.294118%);stop-opacity:1;"/>
<stop offset="1" style="stop-color:rgb(55.686275%,55.686275%,55.686275%);stop-opacity:1;"/>
</linearGradient>
<linearGradient id="linear7" gradientUnits="userSpaceOnUse" x1="30.58" y1="51.64" x2="30.58" y2="28.21" gradientTransform="matrix(2,0,0,2,0,0)">
<stop offset="0" style="stop-color:rgb(75.294118%,75.294118%,75.294118%);stop-opacity:1;"/>
<stop offset="1" style="stop-color:rgb(55.686275%,55.686275%,55.686275%);stop-opacity:1;"/>
</linearGradient>
<linearGradient id="linear8" gradientUnits="userSpaceOnUse" x1="29.08" y1="51.64" x2="29.08" y2="28.21" gradientTransform="matrix(2,0,0,2,0,0)">
<stop offset="0" style="stop-color:rgb(75.294118%,75.294118%,75.294118%);stop-opacity:1;"/>
<stop offset="1" style="stop-color:rgb(55.686275%,55.686275%,55.686275%);stop-opacity:1;"/>
</linearGradient>
<linearGradient id="linear9" gradientUnits="userSpaceOnUse" x1="33.59" y1="51.64" x2="33.59" y2="28.21" gradientTransform="matrix(2,0,0,2,0,0)">
<stop offset="0" style="stop-color:rgb(75.294118%,75.294118%,75.294118%);stop-opacity:1;"/>
<stop offset="1" style="stop-color:rgb(55.686275%,55.686275%,55.686275%);stop-opacity:1;"/>
</linearGradient>
<linearGradient id="linear10" gradientUnits="userSpaceOnUse" x1="27.57" y1="51.64" x2="27.57" y2="28.21" gradientTransform="matrix(2,0,0,2,0,0)">
<stop offset="0" style="stop-color:rgb(75.294118%,75.294118%,75.294118%);stop-opacity:1;"/>
<stop offset="1" style="stop-color:rgb(55.686275%,55.686275%,55.686275%);stop-opacity:1;"/>
</linearGradient>
</defs>
<g id="surface1">
<path style=" stroke:none;fill-rule:nonzero;fill:url(#linear0);" d="M 128 42.621094 C 127.988281 36.960938 123.398438 32.378906 117.738281 32.378906 L 82.898438 32.378906 C 75.777344 32.382812 69.960938 26.683594 69.820312 19.558594 C 69.929688 12.308594 64.152344 6.332031 56.898438 6.199219 L 6.761719 6.199219 C 3.027344 6.199219 0 9.226562 0 12.960938 L 0 46.839844 L 128 46.839844 Z M 128 42.621094 "/>
<path style=" stroke:none;fill-rule:nonzero;fill:url(#linear1);" d="M 117.738281 37.441406 L 10.261719 37.441406 C 4.59375 37.441406 0 42.035156 0 47.699219 L 0 111.558594 C 0.0117188 117.21875 4.601562 121.800781 10.261719 121.800781 L 117.738281 121.800781 C 123.398438 121.800781 127.988281 117.21875 128 111.558594 L 128 47.699219 C 128 42.035156 123.40625 37.441406 117.738281 37.441406 Z M 117.738281 37.441406 "/>
<path style=" stroke:none;fill-rule:nonzero;fill:url(#linear2);" d="M 57.71875 57.519531 C 56.957031 57.519531 56.339844 58.136719 56.339844 58.898438 C 56.339844 59.664062 56.957031 60.28125 57.71875 60.28125 L 60.921875 60.28125 C 60.855469 59.824219 60.824219 59.363281 60.820312 58.898438 C 60.820312 58.4375 60.855469 57.976562 60.921875 57.519531 Z M 57.71875 57.519531 "/>
<path style=" stroke:none;fill-rule:nonzero;fill:url(#linear3);" d="M 78.359375 98.441406 L 78.359375 58.898438 C 78.359375 58.136719 77.742188 57.519531 76.980469 57.519531 L 69.761719 57.519531 C 68.996094 57.519531 68.378906 58.136719 68.378906 58.898438 C 68.378906 59.664062 68.996094 60.28125 69.761719 60.28125 L 75.601562 60.28125 L 75.601562 97.078125 L 46.71875 97.078125 L 46.71875 60.28125 L 48.878906 60.28125 C 48.816406 59.824219 48.785156 59.363281 48.78125 58.898438 C 48.78125 58.4375 48.816406 57.976562 48.878906 57.519531 L 45.339844 57.519531 C 44.578125 57.519531 43.960938 58.136719 43.960938 58.898438 L 43.960938 98.441406 C 43.960938 99.203125 44.578125 99.820312 45.339844 99.820312 L 76.980469 99.820312 C 77.742188 99.820312 78.359375 99.203125 78.359375 98.441406 Z M 78.359375 98.441406 "/>
<path style=" stroke:none;fill-rule:nonzero;fill:url(#linear4);" d="M 82.660156 63.199219 C 81.898438 63.199219 81.28125 63.816406 81.28125 64.578125 L 81.28125 102.738281 L 51.019531 102.738281 C 50.257812 102.738281 49.640625 103.359375 49.640625 104.121094 C 49.640625 104.882812 50.257812 105.5 51.019531 105.5 L 82.660156 105.5 C 83.421875 105.5 84.039062 104.882812 84.039062 104.121094 L 84.039062 64.578125 C 84.039062 63.816406 83.421875 63.199219 82.660156 63.199219 Z M 82.660156 63.199219 "/>
<path style=" stroke:none;fill-rule:nonzero;fill:url(#linear5);" d="M 52.558594 72.660156 L 69.761719 72.660156 C 70.523438 72.660156 71.140625 72.042969 71.140625 71.28125 C 71.140625 70.519531 70.523438 69.898438 69.761719 69.898438 L 52.558594 69.898438 C 51.796875 69.898438 51.179688 70.519531 51.179688 71.28125 C 51.179688 72.042969 51.796875 72.660156 52.558594 72.660156 Z M 52.558594 72.660156 "/>
<path style=" stroke:none;fill-rule:nonzero;fill:url(#linear6);" d="M 52.558594 78.839844 L 69.761719 78.839844 C 70.523438 78.839844 71.140625 78.222656 71.140625 77.460938 C 71.140625 77.097656 70.992188 76.746094 70.734375 76.492188 C 70.476562 76.234375 70.125 76.09375 69.761719 76.101562 L 52.558594 76.101562 C 52.195312 76.09375 51.84375 76.234375 51.585938 76.492188 C 51.324219 76.746094 51.179688 77.097656 51.179688 77.460938 C 51.179688 78.222656 51.796875 78.839844 52.558594 78.839844 Z M 52.558594 78.839844 "/>
<path style=" stroke:none;fill-rule:nonzero;fill:url(#linear7);" d="M 52.558594 85.039062 L 69.761719 85.039062 C 70.523438 85.039062 71.140625 84.421875 71.140625 83.660156 C 71.140625 82.898438 70.523438 82.28125 69.761719 82.28125 L 52.558594 82.28125 C 51.796875 82.28125 51.179688 82.898438 51.179688 83.660156 C 51.179688 84.421875 51.796875 85.039062 52.558594 85.039062 Z M 52.558594 85.039062 "/>
<path style=" stroke:none;fill-rule:nonzero;fill:url(#linear8);" d="M 52.558594 91.21875 L 63.78125 91.21875 C 64.144531 91.21875 64.492188 91.074219 64.75 90.816406 C 65.003906 90.554688 65.144531 90.203125 65.140625 89.839844 C 65.144531 89.476562 65.003906 89.128906 64.746094 88.871094 C 64.492188 88.617188 64.140625 88.472656 63.78125 88.480469 L 52.558594 88.480469 C 52.195312 88.476562 51.84375 88.617188 51.585938 88.871094 C 51.324219 89.125 51.179688 89.476562 51.179688 89.839844 C 51.179688 90.601562 51.796875 91.21875 52.558594 91.21875 Z M 52.558594 91.21875 "/>
<path style=" stroke:none;fill-rule:nonzero;fill:url(#linear9);" d="M 69.761719 65.441406 C 70.523438 65.441406 71.140625 64.820312 71.140625 64.058594 C 71.140625 63.296875 70.523438 62.679688 69.761719 62.679688 C 68.207031 62.675781 66.8125 61.722656 66.238281 60.28125 C 66.074219 59.839844 65.984375 59.371094 65.980469 58.898438 C 65.984375 58.429688 66.074219 57.960938 66.238281 57.519531 C 66.8125 56.074219 68.207031 55.125 69.761719 55.121094 C 70.523438 55.121094 71.140625 54.503906 71.140625 53.738281 C 71.140625 52.976562 70.523438 52.359375 69.761719 52.359375 C 66.683594 52.359375 64.023438 54.507812 63.378906 57.519531 C 63.273438 57.972656 63.222656 58.433594 63.21875 58.898438 C 63.253906 62.5 66.160156 65.40625 69.761719 65.441406 Z M 69.761719 65.441406 "/>
<path style=" stroke:none;fill-rule:nonzero;fill:url(#linear10);" d="M 57.71875 65.441406 C 58.480469 65.441406 59.101562 64.820312 59.101562 64.058594 C 59.101562 63.296875 58.480469 62.679688 57.71875 62.679688 C 56.167969 62.675781 54.773438 61.722656 54.199219 60.28125 C 54.03125 59.839844 53.945312 59.371094 53.941406 58.898438 C 53.945312 58.429688 54.03125 57.960938 54.199219 57.519531 C 54.773438 56.074219 56.167969 55.125 57.71875 55.121094 C 58.480469 55.121094 59.101562 54.503906 59.101562 53.738281 C 59.101562 52.976562 58.480469 52.359375 57.71875 52.359375 C 54.648438 52.375 51.996094 54.519531 51.339844 57.519531 C 51.234375 57.972656 51.179688 58.433594 51.179688 58.898438 C 51.210938 62.5 54.121094 65.40625 57.71875 65.441406 Z M 57.71875 65.441406 "/>
</g>
</svg>
