
<svg xmlns="http://www.w3.org/2000/svg" xmlns:xlink="http://www.w3.org/1999/xlink" width="128px" height="128px" viewBox="0 0 128 128" version="1.1">
<defs>
<linearGradient id="linear0" gradientUnits="userSpaceOnUse" x1="32" y1="3.8" x2="32" y2="23.49" gradientTransform="matrix(2,0,0,2,0,0)">
<stop offset="0" style="stop-color:rgb(16.078431%,71.372549%,96.470588%);stop-opacity:1;"/>
<stop offset="0.67" style="stop-color:rgb(39.607843%,45.098039%,82.745098%);stop-opacity:1;"/>
<stop offset="1" style="stop-color:rgb(49.411765%,34.117647%,76.862745%);stop-opacity:1;"/>
</linearGradient>
<linearGradient id="linear1" gradientUnits="userSpaceOnUse" x1="32" y1="60.9" x2="32" y2="18.72" gradientTransform="matrix(2,0,0,2,0,0)">
<stop offset="0" style="stop-color:rgb(86.27451%,87.058824%,88.627451%);stop-opacity:1;"/>
<stop offset="0.57" style="stop-color:rgb(87.058824%,87.843137%,89.411765%);stop-opacity:1;"/>
<stop offset="0.81" style="stop-color:rgb(89.803922%,90.588235%,91.764706%);stop-opacity:1;"/>
<stop offset="0.99" style="stop-color:rgb(94.901961%,95.294118%,95.686275%);stop-opacity:1;"/>
<stop offset="1" style="stop-color:rgb(95.294118%,95.686275%,96.078431%);stop-opacity:1;"/>
</linearGradient>
<linearGradient id="linear2" gradientUnits="userSpaceOnUse" x1="32" y1="47.41" x2="32" y2="31.15" gradientTransform="matrix(2,0,0,2,0,0)">
<stop offset="0" style="stop-color:rgb(75.294118%,75.294118%,75.294118%);stop-opacity:1;"/>
<stop offset="1" style="stop-color:rgb(55.686275%,55.686275%,55.686275%);stop-opacity:1;"/>
</linearGradient>
</defs>
<g id="surface1">
<path style=" stroke:none;fill-rule:nonzero;fill:url(#linear0);" d="M 128 42.621094 C 127.988281 36.960938 123.398438 32.378906 117.738281 32.378906 L 82.898438 32.378906 C 75.777344 32.382812 69.960938 26.683594 69.820312 19.558594 C 69.929688 12.308594 64.152344 6.332031 56.898438 6.199219 L 6.761719 6.199219 C 3.027344 6.199219 0 9.226562 0 12.960938 L 0 46.839844 L 128 46.839844 Z M 128 42.621094 "/>
<path style=" stroke:none;fill-rule:nonzero;fill:url(#linear1);" d="M 117.738281 37.441406 L 10.261719 37.441406 C 4.59375 37.441406 0 42.035156 0 47.699219 L 0 111.558594 C 0.0117188 117.21875 4.601562 121.800781 10.261719 121.800781 L 117.738281 121.800781 C 123.398438 121.800781 127.988281 117.21875 128 111.558594 L 128 47.699219 C 128 42.035156 123.40625 37.441406 117.738281 37.441406 Z M 117.738281 37.441406 "/>
<path style=" stroke:none;fill-rule:nonzero;fill:url(#linear2);" d="M 82 61.5 L 46 61.5 C 43.226562 61.5 40.980469 63.746094 40.980469 66.519531 L 40.980469 91.378906 C 40.980469 94.152344 43.226562 96.398438 46 96.398438 L 82 96.398438 C 84.773438 96.398438 87.019531 94.152344 87.019531 91.378906 L 87.019531 66.519531 C 87.019531 63.746094 84.773438 61.5 82 61.5 Z M 82.71875 69.140625 L 67.441406 81.539062 C 65.441406 83.136719 62.601562 83.136719 60.601562 81.539062 L 45.320312 69.140625 C 44.640625 68.585938 44.539062 67.589844 45.089844 66.910156 C 45.640625 66.230469 46.640625 66.128906 47.320312 66.679688 L 62.601562 79.078125 C 63.429688 79.742188 64.609375 79.742188 65.441406 79.078125 L 80.71875 66.679688 C 81.046875 66.410156 81.464844 66.28125 81.886719 66.320312 C 82.308594 66.363281 82.695312 66.570312 82.960938 66.898438 C 83.503906 67.589844 83.386719 68.589844 82.699219 69.140625 Z M 82.71875 69.140625 "/>
</g>
</svg>
