
<svg xmlns="http://www.w3.org/2000/svg" xmlns:xlink="http://www.w3.org/1999/xlink" width="128px" height="128px" viewBox="0 0 128 128" version="1.1">
<defs>
<linearGradient id="linear0" gradientUnits="userSpaceOnUse" x1="32" y1="3.8" x2="32" y2="23.49" gradientTransform="matrix(2,0,0,2,0,0)">
<stop offset="0" style="stop-color:rgb(16.078431%,71.372549%,96.470588%);stop-opacity:1;"/>
<stop offset="0.67" style="stop-color:rgb(39.607843%,45.098039%,82.745098%);stop-opacity:1;"/>
<stop offset="1" style="stop-color:rgb(49.411765%,34.117647%,76.862745%);stop-opacity:1;"/>
</linearGradient>
<linearGradient id="linear1" gradientUnits="userSpaceOnUse" x1="32" y1="60.9" x2="32" y2="18.72" gradientTransform="matrix(2,0,0,2,0,0)">
<stop offset="0" style="stop-color:rgb(86.27451%,87.058824%,88.627451%);stop-opacity:1;"/>
<stop offset="0.57" style="stop-color:rgb(87.058824%,87.843137%,89.411765%);stop-opacity:1;"/>
<stop offset="0.81" style="stop-color:rgb(89.803922%,90.588235%,91.764706%);stop-opacity:1;"/>
<stop offset="0.99" style="stop-color:rgb(94.901961%,95.294118%,95.686275%);stop-opacity:1;"/>
<stop offset="1" style="stop-color:rgb(95.294118%,95.686275%,96.078431%);stop-opacity:1;"/>
</linearGradient>
<linearGradient id="linear2" gradientUnits="userSpaceOnUse" x1="32" y1="46.24" x2="32" y2="39" gradientTransform="matrix(2,0,0,2,0,0)">
<stop offset="0" style="stop-color:rgb(75.294118%,75.294118%,75.294118%);stop-opacity:1;"/>
<stop offset="1" style="stop-color:rgb(55.686275%,55.686275%,55.686275%);stop-opacity:1;"/>
</linearGradient>
<linearGradient id="linear3" gradientUnits="userSpaceOnUse" x1="32" y1="52.62" x2="32" y2="29.91" gradientTransform="matrix(2,0,0,2,0,0)">
<stop offset="0" style="stop-color:rgb(75.294118%,75.294118%,75.294118%);stop-opacity:1;"/>
<stop offset="1" style="stop-color:rgb(55.686275%,55.686275%,55.686275%);stop-opacity:1;"/>
</linearGradient>
</defs>
<g id="surface1">
<path style=" stroke:none;fill-rule:nonzero;fill:url(#linear0);" d="M 128 42.621094 C 127.988281 36.960938 123.398438 32.378906 117.738281 32.378906 L 82.898438 32.378906 C 75.777344 32.382812 69.960938 26.683594 69.820312 19.558594 C 69.929688 12.308594 64.152344 6.332031 56.898438 6.199219 L 6.761719 6.199219 C 3.027344 6.199219 0 9.226562 0 12.960938 L 0 46.839844 L 128 46.839844 Z M 128 42.621094 "/>
<path style=" stroke:none;fill-rule:nonzero;fill:url(#linear1);" d="M 117.738281 37.441406 L 10.261719 37.441406 C 4.59375 37.441406 0 42.035156 0 47.699219 L 0 111.558594 C 0.0117188 117.21875 4.601562 121.800781 10.261719 121.800781 L 117.738281 121.800781 C 123.398438 121.800781 127.988281 117.21875 128 111.558594 L 128 47.699219 C 128 42.035156 123.40625 37.441406 117.738281 37.441406 Z M 117.738281 37.441406 "/>
<path style=" stroke:none;fill-rule:nonzero;fill:url(#linear2);" d="M 70.699219 84.539062 C 70.699219 88.242188 67.699219 91.238281 64 91.238281 C 60.300781 91.238281 57.300781 88.242188 57.300781 84.539062 C 57.300781 80.839844 60.300781 77.839844 64 77.839844 C 67.699219 77.839844 70.699219 80.839844 70.699219 84.539062 Z M 70.699219 84.539062 "/>
<path style=" stroke:none;fill-rule:nonzero;fill:url(#linear3);" d="M 80.800781 66 L 76 66 L 76 63.441406 C 75.949219 61.253906 74.1875 59.492188 72 59.441406 L 56 59.441406 C 53.773438 59.4375 51.953125 61.214844 51.898438 63.441406 L 51.898438 66 L 47.199219 66 C 43.429688 66.011719 40.378906 69.070312 40.378906 72.839844 L 40.378906 94.539062 C 40.390625 98.300781 43.4375 101.347656 47.199219 101.359375 L 80.800781 101.359375 C 84.5625 101.347656 87.609375 98.300781 87.621094 94.539062 L 87.621094 72.839844 C 87.621094 69.070312 84.570312 66.011719 80.800781 66 Z M 64 96.839844 C 57.207031 96.839844 51.699219 91.332031 51.699219 84.539062 C 51.699219 77.746094 57.207031 72.238281 64 72.238281 C 70.792969 72.238281 76.300781 77.746094 76.300781 84.539062 C 76.289062 91.328125 70.789062 96.828125 64 96.839844 Z M 80 76.558594 C 78.453125 76.558594 77.199219 75.304688 77.199219 73.761719 C 77.199219 72.214844 78.453125 70.960938 80 70.960938 C 81.546875 70.960938 82.800781 72.214844 82.800781 73.761719 C 82.800781 75.304688 81.546875 76.558594 80 76.558594 Z M 80 76.558594 "/>
</g>
</svg>
