
<svg xmlns="http://www.w3.org/2000/svg" xmlns:xlink="http://www.w3.org/1999/xlink" width="128px" height="128px" viewBox="0 0 128 128" version="1.1">
<defs>
<linearGradient id="linear0" gradientUnits="userSpaceOnUse" x1="32" y1="3.8" x2="32" y2="23.49" gradientTransform="matrix(2,0,0,2,0,0)">
<stop offset="0" style="stop-color:rgb(16.078431%,71.372549%,96.470588%);stop-opacity:1;"/>
<stop offset="0.67" style="stop-color:rgb(39.607843%,45.098039%,82.745098%);stop-opacity:1;"/>
<stop offset="1" style="stop-color:rgb(49.411765%,34.117647%,76.862745%);stop-opacity:1;"/>
</linearGradient>
<linearGradient id="linear1" gradientUnits="userSpaceOnUse" x1="32" y1="60.9" x2="32" y2="18.72" gradientTransform="matrix(2,0,0,2,0,0)">
<stop offset="0" style="stop-color:rgb(86.27451%,87.058824%,88.627451%);stop-opacity:1;"/>
<stop offset="0.57" style="stop-color:rgb(87.058824%,87.843137%,89.411765%);stop-opacity:1;"/>
<stop offset="0.81" style="stop-color:rgb(89.803922%,90.588235%,91.764706%);stop-opacity:1;"/>
<stop offset="0.99" style="stop-color:rgb(94.901961%,95.294118%,95.686275%);stop-opacity:1;"/>
<stop offset="1" style="stop-color:rgb(95.294118%,95.686275%,96.078431%);stop-opacity:1;"/>
</linearGradient>
<linearGradient id="linear2" gradientUnits="userSpaceOnUse" x1="32.26" y1="50.88" x2="32.26" y2="29.56" gradientTransform="matrix(2,0,0,2,0,0)">
<stop offset="0" style="stop-color:rgb(75.294118%,75.294118%,75.294118%);stop-opacity:1;"/>
<stop offset="1" style="stop-color:rgb(55.686275%,55.686275%,55.686275%);stop-opacity:1;"/>
</linearGradient>
</defs>
<g id="surface1">
<path style=" stroke:none;fill-rule:nonzero;fill:url(#linear0);" d="M 128 42.621094 C 127.988281 36.960938 123.398438 32.378906 117.738281 32.378906 L 82.898438 32.378906 C 75.777344 32.382812 69.960938 26.683594 69.820312 19.558594 C 69.929688 12.308594 64.152344 6.332031 56.898438 6.199219 L 6.761719 6.199219 C 3.027344 6.199219 0 9.226562 0 12.960938 L 0 46.839844 L 128 46.839844 Z M 128 42.621094 "/>
<path style=" stroke:none;fill-rule:nonzero;fill:url(#linear1);" d="M 117.738281 37.441406 L 10.261719 37.441406 C 4.59375 37.441406 0 42.035156 0 47.699219 L 0 111.558594 C 0.0117188 117.21875 4.601562 121.800781 10.261719 121.800781 L 117.738281 121.800781 C 123.398438 121.800781 127.988281 117.21875 128 111.558594 L 128 47.699219 C 128 42.035156 123.40625 37.441406 117.738281 37.441406 Z M 117.738281 37.441406 "/>
<path style=" stroke:none;fill-rule:nonzero;fill:url(#linear2);" d="M 78.480469 72.980469 L 66.621094 72.980469 L 66.621094 69.261719 C 66.621094 67.898438 67.71875 66.789062 69.078125 66.78125 L 72.578125 66.78125 C 75.496094 66.78125 77.859375 64.417969 77.859375 61.5 L 77.859375 58.859375 C 77.867188 58.484375 77.71875 58.125 77.457031 57.855469 C 77.195312 57.589844 76.835938 57.441406 76.460938 57.441406 C 75.675781 57.441406 75.039062 58.074219 75.039062 58.859375 L 75.039062 61.5 C 75.050781 62.160156 74.796875 62.796875 74.332031 63.265625 C 73.871094 63.734375 73.238281 64 72.578125 64 L 69.078125 64 C 66.160156 64.011719 63.800781 66.378906 63.800781 69.300781 L 63.800781 73.019531 L 50.578125 73.019531 C 43.554688 73.015625 37.578125 78.132812 36.5 85.070312 C 35.417969 92.011719 39.5625 98.703125 46.253906 100.832031 C 52.949219 102.957031 60.191406 99.890625 63.320312 93.601562 L 65.738281 93.601562 C 68.867188 99.890625 76.113281 102.957031 82.804688 100.832031 C 89.5 98.703125 93.640625 92.011719 92.5625 85.070312 C 91.480469 78.132812 85.503906 73.015625 78.480469 73.019531 Z M 54.21875 88.199219 L 51.699219 88.199219 L 51.699219 90.839844 C 51.6875 91.566406 51.105469 92.148438 50.378906 92.160156 L 50 92.160156 C 49.277344 92.148438 48.699219 91.5625 48.699219 90.839844 L 48.699219 88.199219 L 46 88.199219 C 45.277344 88.1875 44.691406 87.605469 44.679688 86.878906 L 44.679688 86.441406 C 44.691406 85.71875 45.277344 85.140625 46 85.140625 L 48.601562 85.140625 L 48.601562 82.660156 C 48.601562 81.941406 49.183594 81.359375 49.898438 81.359375 L 50.339844 81.359375 C 51.0625 81.359375 51.648438 81.9375 51.660156 82.660156 L 51.660156 85.140625 L 54.179688 85.140625 C 54.898438 85.140625 55.480469 85.722656 55.480469 86.441406 L 55.480469 86.878906 C 55.480469 87.585938 54.925781 88.167969 54.21875 88.199219 Z M 67.460938 85.058594 C 67.449219 85.75 66.886719 86.300781 66.199219 86.300781 L 63.078125 86.300781 C 62.390625 86.300781 61.832031 85.75 61.820312 85.058594 L 61.820312 84.640625 C 61.820312 83.945312 62.382812 83.378906 63.078125 83.378906 L 66.199219 83.378906 C 66.894531 83.378906 67.460938 83.945312 67.460938 84.640625 Z M 76 88.199219 C 75.4375 88.792969 74.566406 88.980469 73.808594 88.675781 C 73.050781 88.371094 72.550781 87.636719 72.550781 86.820312 C 72.550781 86.003906 73.050781 85.265625 73.808594 84.964844 C 74.566406 84.660156 75.4375 84.847656 76 85.441406 C 76.738281 86.210938 76.738281 87.425781 76 88.199219 Z M 77.378906 81.160156 C 77.945312 80.566406 78.8125 80.378906 79.570312 80.683594 C 80.328125 80.988281 80.828125 81.722656 80.828125 82.539062 C 80.828125 83.359375 80.328125 84.09375 79.570312 84.398438 C 78.8125 84.699219 77.945312 84.511719 77.378906 83.921875 C 76.625 83.164062 76.601562 81.949219 77.320312 81.160156 Z M 80.28125 92.339844 C 79.507812 93.078125 78.292969 93.078125 77.519531 92.339844 C 76.929688 91.777344 76.738281 90.910156 77.042969 90.148438 C 77.347656 89.390625 78.082031 88.890625 78.898438 88.890625 C 79.71875 88.890625 80.453125 89.390625 80.757812 90.148438 C 81.0625 90.910156 80.871094 91.777344 80.28125 92.339844 Z M 84.359375 88 C 83.792969 88.585938 82.929688 88.769531 82.171875 88.464844 C 81.417969 88.160156 80.921875 87.425781 80.921875 86.609375 C 80.921875 85.792969 81.417969 85.0625 82.171875 84.753906 C 82.929688 84.449219 83.792969 84.632812 84.359375 85.21875 C 85.109375 85.996094 85.109375 87.226562 84.359375 88 Z M 84.359375 88 "/>
</g>
</svg>
