
<svg xmlns="http://www.w3.org/2000/svg" xmlns:xlink="http://www.w3.org/1999/xlink" width="128px" height="128px" viewBox="0 0 128 128" version="1.1">
<defs>
<linearGradient id="linear0" gradientUnits="userSpaceOnUse" x1="32" y1="3.8" x2="32" y2="23.49" gradientTransform="matrix(2,0,0,2,0,0)">
<stop offset="0" style="stop-color:rgb(16.078431%,71.372549%,96.470588%);stop-opacity:1;"/>
<stop offset="0.67" style="stop-color:rgb(39.607843%,45.098039%,82.745098%);stop-opacity:1;"/>
<stop offset="1" style="stop-color:rgb(49.411765%,34.117647%,76.862745%);stop-opacity:1;"/>
</linearGradient>
<linearGradient id="linear1" gradientUnits="userSpaceOnUse" x1="32" y1="60.9" x2="32" y2="18.72" gradientTransform="matrix(2,0,0,2,0,0)">
<stop offset="0" style="stop-color:rgb(86.27451%,87.058824%,88.627451%);stop-opacity:1;"/>
<stop offset="0.57" style="stop-color:rgb(87.058824%,87.843137%,89.411765%);stop-opacity:1;"/>
<stop offset="0.81" style="stop-color:rgb(89.803922%,90.588235%,91.764706%);stop-opacity:1;"/>
<stop offset="0.99" style="stop-color:rgb(94.901961%,95.294118%,95.686275%);stop-opacity:1;"/>
<stop offset="1" style="stop-color:rgb(95.294118%,95.686275%,96.078431%);stop-opacity:1;"/>
</linearGradient>
<linearGradient id="linear2" gradientUnits="userSpaceOnUse" x1="32" y1="51.31" x2="32" y2="28.79" gradientTransform="matrix(2,0,0,2,0,0)">
<stop offset="0" style="stop-color:rgb(75.294118%,75.294118%,75.294118%);stop-opacity:1;"/>
<stop offset="1" style="stop-color:rgb(55.686275%,55.686275%,55.686275%);stop-opacity:1;"/>
</linearGradient>
</defs>
<g id="surface1">
<path style=" stroke:none;fill-rule:nonzero;fill:url(#linear0);" d="M 128 42.621094 C 127.988281 36.960938 123.398438 32.378906 117.738281 32.378906 L 82.898438 32.378906 C 75.777344 32.382812 69.960938 26.683594 69.820312 19.558594 C 69.929688 12.308594 64.152344 6.332031 56.898438 6.199219 L 6.761719 6.199219 C 3.027344 6.199219 0 9.226562 0 12.960938 L 0 46.839844 L 128 46.839844 Z M 128 42.621094 "/>
<path style=" stroke:none;fill-rule:nonzero;fill:url(#linear1);" d="M 117.738281 37.441406 L 10.261719 37.441406 C 4.59375 37.441406 0 42.035156 0 47.699219 L 0 111.558594 C 0.0117188 117.21875 4.601562 121.800781 10.261719 121.800781 L 117.738281 121.800781 C 123.398438 121.800781 127.988281 117.21875 128 111.558594 L 128 47.699219 C 128 42.035156 123.40625 37.441406 117.738281 37.441406 Z M 117.738281 37.441406 "/>
<path style=" stroke:none;fill-rule:nonzero;fill:url(#linear2);" d="M 73.039062 102.621094 L 55.039062 102.621094 C 50.707031 102.621094 47.191406 99.113281 47.179688 94.78125 L 47.179688 79.621094 C 47.191406 75.285156 50.707031 71.78125 55.039062 71.78125 L 66.5 71.78125 C 67.835938 71.78125 68.921875 72.863281 68.921875 74.199219 C 68.921875 75.535156 67.835938 76.621094 66.5 76.621094 L 54.960938 76.621094 C 53.320312 76.640625 52 77.980469 52 79.621094 L 52 94.78125 C 52 96.449219 53.351562 97.800781 55.019531 97.800781 L 73.019531 97.800781 C 74.671875 97.777344 76 96.433594 76 94.78125 L 76 79.621094 C 76 78.820312 75.679688 78.054688 75.113281 77.492188 C 74.546875 76.929688 73.777344 76.613281 72.980469 76.621094 L 70.578125 76.621094 L 70.578125 66.621094 C 70.578125 64.234375 68.644531 62.300781 66.261719 62.300781 L 63.5 62.300781 C 61.113281 62.300781 59.179688 64.234375 59.179688 66.621094 L 59.179688 67.621094 C 59.179688 68.957031 58.097656 70.039062 56.761719 70.039062 C 55.421875 70.039062 54.339844 68.957031 54.339844 67.621094 L 54.339844 66.621094 C 54.351562 61.570312 58.449219 57.480469 63.5 57.480469 L 66.320312 57.480469 C 71.363281 57.492188 75.449219 61.578125 75.460938 66.621094 L 75.460938 72.058594 C 78.699219 73.101562 80.898438 76.117188 80.898438 79.519531 L 80.898438 94.679688 C 80.921875 96.777344 80.101562 98.796875 78.625 100.289062 C 77.148438 101.78125 75.136719 102.621094 73.039062 102.621094 Z M 73.039062 102.621094 "/>
</g>
</svg>
