
<svg xmlns="http://www.w3.org/2000/svg" xmlns:xlink="http://www.w3.org/1999/xlink" width="128px" height="128px" viewBox="0 0 128 128" version="1.1">
<defs>
<linearGradient id="linear0" gradientUnits="userSpaceOnUse" x1="32" y1="3.8" x2="32" y2="23.49" gradientTransform="matrix(2,0,0,2,0,0)">
<stop offset="0" style="stop-color:rgb(16.078431%,71.372549%,96.470588%);stop-opacity:1;"/>
<stop offset="0.67" style="stop-color:rgb(39.607843%,45.098039%,82.745098%);stop-opacity:1;"/>
<stop offset="1" style="stop-color:rgb(49.411765%,34.117647%,76.862745%);stop-opacity:1;"/>
</linearGradient>
<linearGradient id="linear1" gradientUnits="userSpaceOnUse" x1="32" y1="60.9" x2="32" y2="18.72" gradientTransform="matrix(2,0,0,2,0,0)">
<stop offset="0" style="stop-color:rgb(86.27451%,87.058824%,88.627451%);stop-opacity:1;"/>
<stop offset="0.57" style="stop-color:rgb(87.058824%,87.843137%,89.411765%);stop-opacity:1;"/>
<stop offset="0.81" style="stop-color:rgb(89.803922%,90.588235%,91.764706%);stop-opacity:1;"/>
<stop offset="0.99" style="stop-color:rgb(94.901961%,95.294118%,95.686275%);stop-opacity:1;"/>
<stop offset="1" style="stop-color:rgb(95.294118%,95.686275%,96.078431%);stop-opacity:1;"/>
</linearGradient>
<linearGradient id="linear2" gradientUnits="userSpaceOnUse" x1="32" y1="32.9" x2="32" y2="49.02" gradientTransform="matrix(2,0,0,2,0,0)">
<stop offset="0" style="stop-color:rgb(55.686275%,55.686275%,55.686275%);stop-opacity:1;"/>
<stop offset="1" style="stop-color:rgb(75.294118%,75.294118%,75.294118%);stop-opacity:1;"/>
</linearGradient>
<linearGradient id="linear3" gradientUnits="userSpaceOnUse" x1="32" y1="32.9" x2="32" y2="49.02" gradientTransform="matrix(2,0,0,2,0,0)">
<stop offset="0" style="stop-color:rgb(55.686275%,55.686275%,55.686275%);stop-opacity:1;"/>
<stop offset="1" style="stop-color:rgb(75.294118%,75.294118%,75.294118%);stop-opacity:1;"/>
</linearGradient>
</defs>
<g id="surface1">
<path style=" stroke:none;fill-rule:nonzero;fill:url(#linear0);" d="M 128 42.621094 C 127.988281 36.960938 123.398438 32.378906 117.738281 32.378906 L 82.898438 32.378906 C 75.777344 32.382812 69.960938 26.683594 69.820312 19.558594 C 69.929688 12.308594 64.152344 6.332031 56.898438 6.199219 L 6.761719 6.199219 C 3.027344 6.199219 0 9.226562 0 12.960938 L 0 46.839844 L 128 46.839844 Z M 128 42.621094 "/>
<path style=" stroke:none;fill-rule:nonzero;fill:url(#linear1);" d="M 117.738281 37.441406 L 10.261719 37.441406 C 4.59375 37.441406 0 42.035156 0 47.699219 L 0 111.558594 C 0.0117188 117.21875 4.601562 121.800781 10.261719 121.800781 L 117.738281 121.800781 C 123.398438 121.800781 127.988281 117.21875 128 111.558594 L 128 47.699219 C 128 42.035156 123.40625 37.441406 117.738281 37.441406 Z M 117.738281 37.441406 "/>
<path style=" stroke:none;fill-rule:nonzero;fill:url(#linear2);" d="M 79.058594 99.558594 L 48.941406 99.558594 C 44.605469 99.558594 41.089844 96.054688 41.078125 91.71875 L 41.078125 82.839844 C 41.078125 81.691406 42.011719 80.761719 43.160156 80.761719 C 44.308594 80.761719 45.238281 81.691406 45.238281 82.839844 L 45.238281 91.71875 C 45.238281 93.761719 46.898438 95.421875 48.941406 95.421875 L 79.058594 95.421875 C 81.101562 95.421875 82.761719 93.761719 82.761719 91.71875 L 82.761719 82.839844 C 82.761719 81.691406 83.691406 80.761719 84.839844 80.761719 C 85.988281 80.761719 86.921875 81.691406 86.921875 82.839844 L 86.921875 91.71875 C 86.910156 96.054688 83.394531 99.558594 79.058594 99.558594 Z M 79.058594 99.558594 "/>
<path style=" stroke:none;fill-rule:nonzero;fill:url(#linear3);" d="M 64 91.160156 C 63.265625 91.167969 62.550781 90.90625 62 90.421875 L 47.300781 77.5 C 46.359375 76.671875 46.035156 75.347656 46.480469 74.179688 C 46.894531 72.988281 48.015625 72.1875 49.28125 72.179688 L 53.058594 72.179688 L 53.058594 62.179688 C 53.058594 61.03125 53.992188 60.101562 55.140625 60.101562 C 56.289062 60.101562 57.21875 61.03125 57.21875 62.179688 L 57.21875 73.339844 C 57.210938 74.988281 55.867188 76.320312 54.21875 76.320312 L 52.359375 76.320312 L 64 86.640625 L 75.621094 76.398438 L 73.761719 76.398438 C 72.113281 76.398438 70.78125 75.066406 70.78125 73.421875 L 70.78125 62.261719 C 70.78125 61.117188 71.707031 60.191406 72.851562 60.191406 C 73.992188 60.191406 74.921875 61.117188 74.921875 62.261719 L 74.921875 72.261719 L 78.699219 72.261719 C 79.945312 72.257812 81.0625 73.027344 81.507812 74.191406 C 81.953125 75.355469 81.628906 76.671875 80.699219 77.5 L 66 90.421875 C 65.449219 90.90625 64.734375 91.167969 64 91.160156 Z M 63.238281 87.300781 Z M 63.238281 87.300781 "/>
</g>
</svg>
