
<svg xmlns="http://www.w3.org/2000/svg" xmlns:xlink="http://www.w3.org/1999/xlink" width="128px" height="128px" viewBox="0 0 128 128" version="1.1">
<defs>
<linearGradient id="linear0" gradientUnits="userSpaceOnUse" x1="32" y1="3.8" x2="32" y2="23.49" gradientTransform="matrix(2,0,0,2,0,0)">
<stop offset="0" style="stop-color:rgb(16.078431%,71.372549%,96.470588%);stop-opacity:1;"/>
<stop offset="0.67" style="stop-color:rgb(39.607843%,45.098039%,82.745098%);stop-opacity:1;"/>
<stop offset="1" style="stop-color:rgb(49.411765%,34.117647%,76.862745%);stop-opacity:1;"/>
</linearGradient>
<linearGradient id="linear1" gradientUnits="userSpaceOnUse" x1="32" y1="60.9" x2="32" y2="18.72" gradientTransform="matrix(2,0,0,2,0,0)">
<stop offset="0" style="stop-color:rgb(86.27451%,87.058824%,88.627451%);stop-opacity:1;"/>
<stop offset="0.57" style="stop-color:rgb(87.058824%,87.843137%,89.411765%);stop-opacity:1;"/>
<stop offset="0.81" style="stop-color:rgb(89.803922%,90.588235%,91.764706%);stop-opacity:1;"/>
<stop offset="0.99" style="stop-color:rgb(94.901961%,95.294118%,95.686275%);stop-opacity:1;"/>
<stop offset="1" style="stop-color:rgb(95.294118%,95.686275%,96.078431%);stop-opacity:1;"/>
</linearGradient>
<linearGradient id="linear2" gradientUnits="userSpaceOnUse" x1="31.3" y1="51.94" x2="31.3" y2="35.8" gradientTransform="matrix(2,0,0,2,0,0)">
<stop offset="0" style="stop-color:rgb(75.294118%,75.294118%,75.294118%);stop-opacity:1;"/>
<stop offset="1" style="stop-color:rgb(55.686275%,55.686275%,55.686275%);stop-opacity:1;"/>
</linearGradient>
<linearGradient id="linear3" gradientUnits="userSpaceOnUse" x1="38.52" y1="34.71" x2="38.52" y2="27.38" gradientTransform="matrix(2,0,0,2,0,0)">
<stop offset="0" style="stop-color:rgb(75.294118%,75.294118%,75.294118%);stop-opacity:1;"/>
<stop offset="1" style="stop-color:rgb(55.686275%,55.686275%,55.686275%);stop-opacity:1;"/>
</linearGradient>
<linearGradient id="linear4" gradientUnits="userSpaceOnUse" x1="31.59" y1="33.82" x2="31.59" y2="28.35" gradientTransform="matrix(2,0,0,2,0,0)">
<stop offset="0" style="stop-color:rgb(75.294118%,75.294118%,75.294118%);stop-opacity:1;"/>
<stop offset="1" style="stop-color:rgb(55.686275%,55.686275%,55.686275%);stop-opacity:1;"/>
</linearGradient>
<linearGradient id="linear5" gradientUnits="userSpaceOnUse" x1="26.9" y1="35.08" x2="26.9" y2="30.33" gradientTransform="matrix(2,0,0,2,0,0)">
<stop offset="0" style="stop-color:rgb(75.294118%,75.294118%,75.294118%);stop-opacity:1;"/>
<stop offset="1" style="stop-color:rgb(55.686275%,55.686275%,55.686275%);stop-opacity:1;"/>
</linearGradient>
<linearGradient id="linear6" gradientUnits="userSpaceOnUse" x1="23.44" y1="37.56" x2="23.44" y2="33.39" gradientTransform="matrix(2,0,0,2,0,0)">
<stop offset="0" style="stop-color:rgb(75.294118%,75.294118%,75.294118%);stop-opacity:1;"/>
<stop offset="1" style="stop-color:rgb(55.686275%,55.686275%,55.686275%);stop-opacity:1;"/>
</linearGradient>
</defs>
<g id="surface1">
<path style=" stroke:none;fill-rule:nonzero;fill:url(#linear0);" d="M 128 42.621094 C 127.988281 36.960938 123.398438 32.378906 117.738281 32.378906 L 82.898438 32.378906 C 75.777344 32.382812 69.960938 26.683594 69.820312 19.558594 C 69.929688 12.308594 64.152344 6.332031 56.898438 6.199219 L 6.761719 6.199219 C 3.027344 6.199219 0 9.226562 0 12.960938 L 0 46.839844 L 128 46.839844 Z M 128 42.621094 "/>
<path style=" stroke:none;fill-rule:nonzero;fill:url(#linear1);" d="M 117.738281 37.441406 L 10.261719 37.441406 C 4.59375 37.441406 0 42.035156 0 47.699219 L 0 111.558594 C 0.0117188 117.21875 4.601562 121.800781 10.261719 121.800781 L 117.738281 121.800781 C 123.398438 121.800781 127.988281 117.21875 128 111.558594 L 128 47.699219 C 128 42.035156 123.40625 37.441406 117.738281 37.441406 Z M 117.738281 37.441406 "/>
<path style=" stroke:none;fill-rule:nonzero;fill:url(#linear2);" d="M 65.71875 103.859375 C 61.921875 103.746094 58.28125 102.335938 55.398438 99.859375 C 52.097656 97.332031 49.582031 93.910156 48.160156 90 C 46.113281 84.863281 47.988281 78.992188 52.640625 76 C 55.980469 73.605469 59.90625 72.148438 64 71.78125 C 65.859375 71.589844 67.734375 71.550781 69.601562 71.660156 C 71.277344 71.75 72.914062 72.21875 74.378906 73.039062 C 75.574219 73.664062 76.449219 74.757812 76.792969 76.058594 C 77.140625 77.359375 76.925781 78.746094 76.199219 79.878906 C 74.96875 81.832031 73.304688 83.472656 71.339844 84.679688 C 68.878906 86.320312 66.359375 87.859375 63.898438 89.5 C 63.171875 90.011719 62.5 90.601562 61.898438 91.261719 C 61.160156 91.808594 60.726562 92.671875 60.726562 93.589844 C 60.726562 94.507812 61.160156 95.371094 61.898438 95.921875 C 62.539062 96.582031 63.289062 97.125 64.121094 97.519531 C 65.128906 98.0625 66.359375 97.984375 67.289062 97.316406 C 68.21875 96.648438 68.691406 95.507812 68.5 94.378906 C 68.28125 93.402344 68.785156 92.40625 69.699219 92 C 71.625 90.953125 73.863281 90.640625 76 91.121094 C 76.683594 91.132812 77.3125 91.492188 77.671875 92.078125 C 78.027344 92.660156 78.0625 93.386719 77.761719 94 C 76.398438 99.070312 72.242188 102.90625 67.078125 103.859375 C 66.628906 103.890625 66.171875 103.890625 65.71875 103.859375 Z M 65.71875 103.859375 "/>
<path style=" stroke:none;fill-rule:nonzero;fill:url(#linear3);" d="M 80.199219 54.921875 C 80.601562 54.957031 81.003906 55.019531 81.398438 55.101562 C 82.285156 55.203125 83.074219 55.707031 83.539062 56.46875 C 84.003906 57.230469 84.09375 58.164062 83.78125 59 C 83.003906 61.746094 81.464844 64.214844 79.339844 66.121094 C 78.132812 67.394531 76.667969 68.398438 75.039062 69.058594 C 74.078125 69.613281 72.894531 69.625 71.921875 69.085938 C 70.949219 68.550781 70.328125 67.550781 70.28125 66.441406 C 69.539062 61.773438 72.132812 57.214844 76.519531 55.460938 C 77.726562 55.152344 78.945312 54.921875 80.179688 54.761719 Z M 80.199219 54.921875 "/>
<path style=" stroke:none;fill-rule:nonzero;fill:url(#linear4);" d="M 59.800781 61.480469 C 59.753906 59.933594 60.4375 58.453125 61.640625 57.480469 C 62.425781 56.898438 63.410156 56.648438 64.378906 56.78125 C 65.683594 57.054688 66.597656 58.230469 66.539062 59.558594 C 66.675781 61.824219 66.105469 64.078125 64.898438 66 C 64.421875 66.78125 63.859375 67.621094 62.800781 67.601562 C 61.738281 67.578125 61.199219 66.699219 60.800781 65.859375 C 60.109375 64.503906 59.765625 63 59.800781 61.480469 Z M 59.800781 61.480469 "/>
<path style=" stroke:none;fill-rule:nonzero;fill:url(#linear5);" d="M 50.859375 64.28125 C 50.761719 62.863281 51.5625 61.535156 52.859375 60.960938 C 53.425781 60.613281 54.117188 60.546875 54.738281 60.769531 C 55.359375 60.996094 55.847656 61.492188 56.058594 62.121094 C 56.667969 63.429688 56.890625 64.886719 56.699219 66.320312 C 56.585938 67.253906 56.351562 68.167969 56 69.039062 C 55.460938 70.320312 54.398438 70.480469 53.320312 69.578125 C 52.164062 68.558594 51.371094 67.191406 51.058594 65.679688 C 50.960938 65.21875 50.894531 64.75 50.859375 64.28125 Z M 50.859375 64.28125 "/>
<path style=" stroke:none;fill-rule:nonzero;fill:url(#linear6);" d="M 44 70.398438 C 43.757812 69.074219 44.386719 67.742188 45.558594 67.078125 C 46.277344 66.589844 47.246094 66.710938 47.820312 67.359375 C 48.832031 68.460938 49.4375 69.871094 49.539062 71.359375 C 49.628906 72.082031 49.628906 72.816406 49.539062 73.539062 C 49.398438 74.960938 48.421875 75.539062 47.179688 74.800781 C 45.480469 73.925781 44.296875 72.289062 44 70.398438 Z M 44 70.398438 "/>
</g>
</svg>
