
<svg xmlns="http://www.w3.org/2000/svg" xmlns:xlink="http://www.w3.org/1999/xlink" width="128px" height="128px" viewBox="0 0 128 128" version="1.1">
<defs>
<linearGradient id="linear0" gradientUnits="userSpaceOnUse" x1="32" y1="3.8" x2="32" y2="23.49" gradientTransform="matrix(2,0,0,2,0,0)">
<stop offset="0" style="stop-color:rgb(16.078431%,71.372549%,96.470588%);stop-opacity:1;"/>
<stop offset="0.67" style="stop-color:rgb(39.607843%,45.098039%,82.745098%);stop-opacity:1;"/>
<stop offset="1" style="stop-color:rgb(49.411765%,34.117647%,76.862745%);stop-opacity:1;"/>
</linearGradient>
<linearGradient id="linear1" gradientUnits="userSpaceOnUse" x1="32" y1="60.9" x2="32" y2="18.72" gradientTransform="matrix(2,0,0,2,0,0)">
<stop offset="0" style="stop-color:rgb(86.27451%,87.058824%,88.627451%);stop-opacity:1;"/>
<stop offset="0.57" style="stop-color:rgb(87.058824%,87.843137%,89.411765%);stop-opacity:1;"/>
<stop offset="0.81" style="stop-color:rgb(89.803922%,90.588235%,91.764706%);stop-opacity:1;"/>
<stop offset="0.99" style="stop-color:rgb(94.901961%,95.294118%,95.686275%);stop-opacity:1;"/>
<stop offset="1" style="stop-color:rgb(95.294118%,95.686275%,96.078431%);stop-opacity:1;"/>
</linearGradient>
<linearGradient id="linear2" gradientUnits="userSpaceOnUse" x1="29.32" y1="51.81" x2="29.32" y2="28.38" gradientTransform="matrix(2,0,0,2,0,0)">
<stop offset="0" style="stop-color:rgb(75.294118%,75.294118%,75.294118%);stop-opacity:1;"/>
<stop offset="1" style="stop-color:rgb(55.686275%,55.686275%,55.686275%);stop-opacity:1;"/>
</linearGradient>
<linearGradient id="linear3" gradientUnits="userSpaceOnUse" x1="30.58" y1="51.81" x2="30.58" y2="28.38" gradientTransform="matrix(2,0,0,2,0,0)">
<stop offset="0" style="stop-color:rgb(75.294118%,75.294118%,75.294118%);stop-opacity:1;"/>
<stop offset="1" style="stop-color:rgb(55.686275%,55.686275%,55.686275%);stop-opacity:1;"/>
</linearGradient>
<linearGradient id="linear4" gradientUnits="userSpaceOnUse" x1="33.42" y1="51.81" x2="33.42" y2="28.38" gradientTransform="matrix(2,0,0,2,0,0)">
<stop offset="0" style="stop-color:rgb(75.294118%,75.294118%,75.294118%);stop-opacity:1;"/>
<stop offset="1" style="stop-color:rgb(55.686275%,55.686275%,55.686275%);stop-opacity:1;"/>
</linearGradient>
<linearGradient id="linear5" gradientUnits="userSpaceOnUse" x1="33.59" y1="51.81" x2="33.59" y2="28.38" gradientTransform="matrix(2,0,0,2,0,0)">
<stop offset="0" style="stop-color:rgb(75.294118%,75.294118%,75.294118%);stop-opacity:1;"/>
<stop offset="1" style="stop-color:rgb(55.686275%,55.686275%,55.686275%);stop-opacity:1;"/>
</linearGradient>
<linearGradient id="linear6" gradientUnits="userSpaceOnUse" x1="27.57" y1="51.81" x2="27.57" y2="28.38" gradientTransform="matrix(2,0,0,2,0,0)">
<stop offset="0" style="stop-color:rgb(75.294118%,75.294118%,75.294118%);stop-opacity:1;"/>
<stop offset="1" style="stop-color:rgb(55.686275%,55.686275%,55.686275%);stop-opacity:1;"/>
</linearGradient>
<linearGradient id="linear7" gradientUnits="userSpaceOnUse" x1="26.59" y1="40.56" x2="35.31" y2="40.56" gradientTransform="matrix(2,0,0,2,0,0)">
<stop offset="0" style="stop-color:rgb(75.294118%,75.294118%,75.294118%);stop-opacity:1;"/>
<stop offset="1" style="stop-color:rgb(55.686275%,55.686275%,55.686275%);stop-opacity:1;"/>
</linearGradient>
</defs>
<g id="surface1">
<path style=" stroke:none;fill-rule:nonzero;fill:url(#linear0);" d="M 128 42.621094 C 127.988281 36.960938 123.398438 32.378906 117.738281 32.378906 L 82.898438 32.378906 C 75.777344 32.382812 69.960938 26.683594 69.820312 19.558594 C 69.929688 12.308594 64.152344 6.332031 56.898438 6.199219 L 6.761719 6.199219 C 3.027344 6.199219 0 9.226562 0 12.960938 L 0 46.839844 L 128 46.839844 Z M 128 42.621094 "/>
<path style=" stroke:none;fill-rule:nonzero;fill:url(#linear1);" d="M 117.738281 37.441406 L 10.261719 37.441406 C 4.59375 37.441406 0 42.035156 0 47.699219 L 0 111.558594 C 0.0117188 117.21875 4.601562 121.800781 10.261719 121.800781 L 117.738281 121.800781 C 123.398438 121.800781 127.988281 117.21875 128 111.558594 L 128 47.699219 C 128 42.035156 123.40625 37.441406 117.738281 37.441406 Z M 117.738281 37.441406 "/>
<path style=" stroke:none;fill-rule:nonzero;fill:url(#linear2);" d="M 57.71875 57.859375 C 56.957031 57.859375 56.339844 58.476562 56.339844 59.238281 C 56.339844 60.003906 56.957031 60.621094 57.71875 60.621094 L 60.921875 60.621094 C 60.855469 60.164062 60.824219 59.703125 60.820312 59.238281 C 60.824219 58.777344 60.855469 58.316406 60.921875 57.859375 Z M 57.71875 57.859375 "/>
<path style=" stroke:none;fill-rule:nonzero;fill:url(#linear3);" d="M 78.359375 98.800781 L 78.359375 59.238281 C 78.359375 58.476562 77.742188 57.859375 76.980469 57.859375 L 69.761719 57.859375 C 68.996094 57.859375 68.378906 58.476562 68.378906 59.238281 C 68.378906 60.003906 68.996094 60.621094 69.761719 60.621094 L 75.601562 60.621094 L 75.601562 97.421875 L 46.71875 97.421875 L 46.71875 60.621094 L 48.878906 60.621094 C 48.816406 60.164062 48.78125 59.703125 48.78125 59.238281 C 48.785156 58.777344 48.816406 58.316406 48.878906 57.859375 L 45.339844 57.859375 C 44.578125 57.859375 43.960938 58.476562 43.960938 59.238281 L 43.960938 98.800781 C 43.960938 99.164062 44.105469 99.511719 44.367188 99.769531 C 44.625 100.023438 44.976562 100.164062 45.339844 100.160156 L 76.980469 100.160156 C 77.34375 100.164062 77.695312 100.023438 77.953125 99.769531 C 78.214844 99.511719 78.359375 99.164062 78.359375 98.800781 Z M 78.359375 98.800781 "/>
<path style=" stroke:none;fill-rule:nonzero;fill:url(#linear4);" d="M 82.660156 63.539062 C 81.898438 63.539062 81.28125 64.15625 81.28125 64.921875 L 81.28125 103.101562 L 51.019531 103.101562 C 50.65625 103.09375 50.304688 103.234375 50.046875 103.492188 C 49.785156 103.746094 49.640625 104.097656 49.640625 104.460938 C 49.640625 105.222656 50.257812 105.839844 51.019531 105.839844 L 82.660156 105.839844 C 83.421875 105.839844 84.039062 105.222656 84.039062 104.460938 L 84.039062 64.921875 C 84.039062 64.15625 83.421875 63.539062 82.660156 63.539062 Z M 82.660156 63.539062 "/>
<path style=" stroke:none;fill-rule:nonzero;fill:url(#linear5);" d="M 69.761719 65.78125 C 70.523438 65.78125 71.140625 65.164062 71.140625 64.398438 C 71.140625 63.636719 70.523438 63.019531 69.761719 63.019531 C 68.207031 63.015625 66.8125 62.0625 66.238281 60.621094 C 66.074219 60.179688 65.984375 59.710938 65.980469 59.238281 C 65.984375 58.769531 66.074219 58.300781 66.238281 57.859375 C 66.8125 56.414062 68.207031 55.464844 69.761719 55.460938 C 70.523438 55.460938 71.140625 54.84375 71.140625 54.078125 C 71.140625 53.316406 70.523438 52.699219 69.761719 52.699219 C 66.160156 52.734375 63.253906 55.640625 63.21875 59.238281 C 63.222656 59.703125 63.273438 60.167969 63.378906 60.621094 C 64.023438 63.628906 66.683594 65.78125 69.761719 65.78125 Z M 69.761719 65.78125 "/>
<path style=" stroke:none;fill-rule:nonzero;fill:url(#linear6);" d="M 57.71875 65.78125 C 58.480469 65.78125 59.101562 65.164062 59.101562 64.398438 C 59.101562 63.636719 58.480469 63.019531 57.71875 63.019531 C 56.167969 63.015625 54.773438 62.0625 54.199219 60.621094 C 54.03125 60.179688 53.945312 59.710938 53.941406 59.238281 C 53.945312 58.769531 54.03125 58.300781 54.199219 57.859375 C 54.773438 56.414062 56.167969 55.464844 57.71875 55.460938 C 58.480469 55.460938 59.101562 54.84375 59.101562 54.078125 C 59.101562 53.316406 58.480469 52.699219 57.71875 52.699219 C 54.121094 52.734375 51.210938 55.640625 51.179688 59.238281 C 51.179688 59.703125 51.234375 60.167969 51.339844 60.621094 C 51.996094 63.621094 54.648438 65.765625 57.71875 65.78125 Z M 57.71875 65.78125 "/>
<path style=" stroke:none;fill-rule:nonzero;fill:url(#linear7);" d="M 68.738281 90.421875 C 68.136719 90.433594 67.535156 90.320312 66.980469 90.078125 C 66.523438 89.871094 66.132812 89.546875 65.839844 89.140625 C 65.527344 88.71875 65.308594 88.234375 65.199219 87.71875 C 65.074219 87.121094 65.015625 86.511719 65.019531 85.898438 L 65.019531 82.480469 C 63.828125 82.003906 62.578125 81.703125 61.300781 81.578125 C 60.355469 81.488281 59.40625 81.582031 58.5 81.859375 C 57.800781 82.078125 57.1875 82.503906 56.738281 83.078125 C 56.320312 83.660156 56.109375 84.363281 56.140625 85.078125 C 56.09375 85.957031 56.492188 86.800781 57.199219 87.320312 C 58.046875 87.816406 59.019531 88.054688 60 88 C 60.503906 88.027344 61.011719 87.980469 61.5 87.859375 C 61.941406 87.859375 62.378906 87.621094 62.839844 87.480469 C 63.113281 87.359375 63.425781 87.359375 63.699219 87.480469 C 63.917969 87.566406 64.097656 87.730469 64.199219 87.941406 C 64.289062 88.179688 64.289062 88.441406 64.199219 88.679688 C 64.109375 88.988281 63.921875 89.253906 63.660156 89.441406 C 63.15625 89.820312 62.578125 90.085938 61.960938 90.21875 C 61.160156 90.414062 60.339844 90.507812 59.519531 90.5 C 58.726562 90.496094 57.941406 90.382812 57.179688 90.160156 C 56.460938 89.929688 55.78125 89.578125 55.179688 89.121094 C 54.574219 88.640625 54.085938 88.03125 53.738281 87.339844 C 53.347656 86.546875 53.15625 85.667969 53.179688 84.78125 C 53.152344 83.644531 53.519531 82.535156 54.21875 81.640625 C 54.921875 80.738281 55.855469 80.046875 56.921875 79.640625 C 58.144531 79.203125 59.441406 79.019531 60.738281 79.101562 C 62.226562 79.183594 63.683594 79.566406 65.019531 80.21875 L 65.019531 78 C 65.042969 77.453125 64.925781 76.910156 64.679688 76.421875 C 64.457031 75.984375 64.136719 75.605469 63.738281 75.320312 C 63.328125 75.035156 62.867188 74.824219 62.378906 74.699219 C 61.84375 74.5625 61.292969 74.492188 60.738281 74.5 C 60.058594 74.472656 59.378906 74.582031 58.738281 74.820312 C 58.304688 74.992188 57.894531 75.21875 57.519531 75.5 L 56.640625 76.199219 C 56.324219 76.417969 55.945312 76.53125 55.558594 76.519531 C 55.234375 76.515625 54.921875 76.394531 54.679688 76.179688 C 54.402344 75.933594 54.253906 75.570312 54.28125 75.199219 C 54.296875 74.75 54.46875 74.320312 54.761719 73.980469 C 55.128906 73.515625 55.582031 73.128906 56.101562 72.839844 C 56.726562 72.46875 57.398438 72.1875 58.101562 72 C 58.949219 71.773438 59.824219 71.667969 60.699219 71.679688 C 61.664062 71.671875 62.621094 71.816406 63.539062 72.101562 C 64.375 72.347656 65.15625 72.757812 65.839844 73.300781 C 66.480469 73.804688 67.003906 74.4375 67.378906 75.160156 C 67.773438 75.90625 67.984375 76.734375 68 77.578125 L 68 85.578125 C 67.988281 86.132812 68.039062 86.683594 68.160156 87.21875 C 68.28125 87.621094 68.441406 87.820312 68.679688 87.820312 L 69.078125 87.820312 C 69.492188 87.800781 69.898438 87.9375 70.21875 88.199219 C 70.503906 88.429688 70.667969 88.777344 70.660156 89.140625 C 70.660156 89.511719 70.480469 89.863281 70.179688 90.078125 C 69.75 90.351562 69.246094 90.46875 68.738281 90.421875 Z M 68.738281 90.421875 "/>
</g>
</svg>
