
<svg xmlns="http://www.w3.org/2000/svg" xmlns:xlink="http://www.w3.org/1999/xlink" width="128px" height="128px" viewBox="0 0 128 128" version="1.1">
<defs>
<linearGradient id="linear0" gradientUnits="userSpaceOnUse" x1="32" y1="3.8" x2="32" y2="23.49" gradientTransform="matrix(2,0,0,2,0,0)">
<stop offset="0" style="stop-color:rgb(16.078431%,71.372549%,96.470588%);stop-opacity:1;"/>
<stop offset="0.67" style="stop-color:rgb(39.607843%,45.098039%,82.745098%);stop-opacity:1;"/>
<stop offset="1" style="stop-color:rgb(49.411765%,34.117647%,76.862745%);stop-opacity:1;"/>
</linearGradient>
<linearGradient id="linear1" gradientUnits="userSpaceOnUse" x1="32" y1="60.9" x2="32" y2="18.72" gradientTransform="matrix(2,0,0,2,0,0)">
<stop offset="0" style="stop-color:rgb(86.27451%,87.058824%,88.627451%);stop-opacity:1;"/>
<stop offset="0.57" style="stop-color:rgb(87.058824%,87.843137%,89.411765%);stop-opacity:1;"/>
<stop offset="0.81" style="stop-color:rgb(89.803922%,90.588235%,91.764706%);stop-opacity:1;"/>
<stop offset="0.99" style="stop-color:rgb(94.901961%,95.294118%,95.686275%);stop-opacity:1;"/>
<stop offset="1" style="stop-color:rgb(95.294118%,95.686275%,96.078431%);stop-opacity:1;"/>
</linearGradient>
<linearGradient id="linear2" gradientUnits="userSpaceOnUse" x1="32" y1="52.36" x2="32" y2="27.36" gradientTransform="matrix(2,0,0,2,0,0)">
<stop offset="0" style="stop-color:rgb(75.294118%,75.294118%,75.294118%);stop-opacity:1;"/>
<stop offset="1" style="stop-color:rgb(55.686275%,55.686275%,55.686275%);stop-opacity:1;"/>
</linearGradient>
</defs>
<g id="surface1">
<path style=" stroke:none;fill-rule:nonzero;fill:url(#linear0);" d="M 128 42.621094 C 127.988281 36.960938 123.398438 32.378906 117.738281 32.378906 L 82.898438 32.378906 C 75.777344 32.382812 69.960938 26.683594 69.820312 19.558594 C 69.929688 12.308594 64.152344 6.332031 56.898438 6.199219 L 6.761719 6.199219 C 3.027344 6.199219 0 9.226562 0 12.960938 L 0 46.839844 L 128 46.839844 Z M 128 42.621094 "/>
<path style=" stroke:none;fill-rule:nonzero;fill:url(#linear1);" d="M 117.738281 37.441406 L 10.261719 37.441406 C 4.59375 37.441406 0 42.035156 0 47.699219 L 0 111.558594 C 0.0117188 117.21875 4.601562 121.800781 10.261719 121.800781 L 117.738281 121.800781 C 123.398438 121.800781 127.988281 117.21875 128 111.558594 L 128 47.699219 C 128 42.035156 123.40625 37.441406 117.738281 37.441406 Z M 117.738281 37.441406 "/>
<path style=" stroke:none;fill-rule:nonzero;fill:url(#linear2);" d="M 64.71875 104.71875 L 63.421875 104.71875 C 62.414062 104.621094 61.492188 104.132812 60.839844 103.359375 C 54.054688 96.546875 47.253906 89.746094 40.441406 82.960938 C 39.6875 82.359375 39.175781 81.507812 39 80.558594 L 39 78.859375 C 39.144531 77.917969 39.621094 77.0625 40.339844 76.441406 C 44.738281 72.09375 49.113281 67.726562 53.460938 63.339844 L 54.199219 62.601562 C 54.859375 61.960938 55 61.960938 55.640625 62.601562 L 60.398438 67.359375 C 60.765625 67.675781 60.917969 68.171875 60.800781 68.640625 C 60.328125 70.21875 61.0625 71.910156 62.539062 72.640625 C 62.855469 72.84375 63.019531 73.210938 62.960938 73.578125 L 62.960938 79.199219 C 62.960938 81.539062 62.960938 83.898438 62.960938 86.238281 C 63.023438 86.761719 62.75 87.265625 62.28125 87.5 C 61.023438 88.261719 60.40625 89.753906 60.761719 91.179688 C 61.097656 92.648438 62.355469 93.726562 63.859375 93.835938 C 65.363281 93.949219 66.761719 93.066406 67.3125 91.664062 C 67.863281 90.261719 67.4375 88.660156 66.261719 87.71875 C 65.671875 87.339844 65.34375 86.65625 65.421875 85.960938 C 65.421875 82.078125 65.421875 78.179688 65.421875 74.28125 C 65.421875 73.898438 65.238281 73.398438 65.679688 73.199219 C 66.121094 73 66.378906 73.519531 66.660156 73.800781 C 67.980469 75.078125 69.261719 76.421875 70.660156 77.800781 C 71.15625 78.195312 71.359375 78.851562 71.179688 79.460938 C 70.855469 81.113281 71.792969 82.757812 73.378906 83.320312 C 74.929688 83.875 76.660156 83.257812 77.5 81.839844 C 78.359375 80.425781 78.074219 78.601562 76.820312 77.519531 C 76.070312 76.820312 75.027344 76.523438 74.019531 76.71875 C 73.46875 76.855469 72.886719 76.652344 72.539062 76.199219 L 67.921875 71.578125 C 67.585938 71.277344 67.429688 70.824219 67.5 70.378906 C 67.722656 69.265625 67.375 68.113281 66.570312 67.308594 C 65.765625 66.507812 64.613281 66.15625 63.5 66.378906 C 63.054688 66.449219 62.605469 66.292969 62.300781 65.960938 L 57.398438 61.058594 C 56.800781 60.441406 56.800781 60.300781 57.398438 59.660156 C 58.539062 58.519531 59.71875 57.421875 60.800781 56.238281 C 61.402344 55.484375 62.28125 55.003906 63.238281 54.898438 L 64.800781 54.898438 C 65.738281 55.019531 66.597656 55.492188 67.199219 56.21875 C 74.011719 63.085938 80.851562 69.921875 87.71875 76.71875 C 88.480469 77.378906 88.96875 78.300781 89.078125 79.300781 L 89.078125 80.601562 C 88.96875 81.671875 88.425781 82.652344 87.578125 83.320312 C 80.914062 89.988281 74.246094 96.652344 67.578125 103.320312 C 66.84375 104.140625 65.820312 104.640625 64.71875 104.71875 Z M 64.71875 104.71875 "/>
</g>
</svg>
