<svg id="레이어_1" data-name="레이어 1" xmlns="http://www.w3.org/2000/svg" xmlns:xlink="http://www.w3.org/1999/xlink" viewBox="0 0 64 64"><defs><style>.cls-1{fill:url(#무제_그라디언트_38);}.cls-2{fill:url(#무제_그라디언트_4);}.cls-3{fill:url(#무제_그라디언트_38-2);}</style><linearGradient id="무제_그라디언트_38" x1="32" y1="3.8" x2="32" y2="23.49" gradientUnits="userSpaceOnUse"><stop offset="0" stop-color="#29b6f6"/><stop offset="0.67" stop-color="#6573d3"/><stop offset="1" stop-color="#7e57c4"/></linearGradient><linearGradient id="무제_그라디언트_4" x1="32" y1="60.9" x2="32" y2="18.72" gradientUnits="userSpaceOnUse"><stop offset="0" stop-color="#dcdee2"/><stop offset="0.57" stop-color="#dee0e4"/><stop offset="0.81" stop-color="#e5e7ea"/><stop offset="0.99" stop-color="#f2f3f4"/><stop offset="1" stop-color="#f3f4f5"/></linearGradient><linearGradient id="무제_그라디언트_38-2" x1="32" y1="48.87" x2="32" y2="29.99" xlink:href="#무제_그라디언트_38"/></defs><title>folder-video</title><path class="cls-1" d="M64,21.31a5.13,5.13,0,0,0-5.13-5.12H41.45a6.54,6.54,0,0,1-6.54-6.41A6.58,6.58,0,0,0,28.45,3.1H3.38A3.38,3.38,0,0,0,0,6.48V23.42H64Z"/><path class="cls-2" d="M58.87,18.72H5.13A5.13,5.13,0,0,0,0,23.85V55.78A5.13,5.13,0,0,0,5.13,60.9H58.87A5.13,5.13,0,0,0,64,55.78V23.85A5.13,5.13,0,0,0,58.87,18.72Z"/><path class="cls-3" d="M43.44,28.69H42.13a.61.61,0,0,0-.61.61v1.16a.6.6,0,0,1-.6.6H40a.6.6,0,0,1-.61-.6V29.3a.61.61,0,0,0-.61-.61H25.19a.61.61,0,0,0-.61.61v1.16a.6.6,0,0,1-.61.6h-.89a.6.6,0,0,1-.6-.6V29.3a.61.61,0,0,0-.61-.61H20.56a.6.6,0,0,0-.6.61V49.16a.6.6,0,0,0,.6.61h1.31a.61.61,0,0,0,.61-.61V48a.6.6,0,0,1,.6-.6H24a.6.6,0,0,1,.61.6v1.16a.61.61,0,0,0,.61.61H38.81a.61.61,0,0,0,.61-.61V48a.6.6,0,0,1,.61-.6h.89a.6.6,0,0,1,.6.6v1.16a.61.61,0,0,0,.61.61h1.31a.6.6,0,0,0,.6-.61V29.3A.6.6,0,0,0,43.44,28.69ZM24.58,43.13a.61.61,0,0,1-.61.61h-.89a.6.6,0,0,1-.6-.61V41.67a.6.6,0,0,1,.6-.61H24a.61.61,0,0,1,.61.61Zm0-6.34a.61.61,0,0,1-.61.61h-.89a.6.6,0,0,1-.6-.61V35.33a.61.61,0,0,1,.6-.61H24a.61.61,0,0,1,.61.61Zm16.94,6.34a.6.6,0,0,1-.6.61H40a.61.61,0,0,1-.61-.61V41.67a.61.61,0,0,1,.61-.61h.89a.6.6,0,0,1,.6.61Zm0-6.34a.6.6,0,0,1-.6.61H40a.61.61,0,0,1-.61-.61V35.33a.61.61,0,0,1,.61-.61h.89a.61.61,0,0,1,.6.61Zm-4.39,1.56H26.63V31h10.5Zm0,9.15H26.63V40.15h10.5Z"/></svg>