<svg id="레이어_1" data-name="레이어 1" xmlns="http://www.w3.org/2000/svg" xmlns:xlink="http://www.w3.org/1999/xlink" viewBox="0 0 64 64"><defs><style>.cls-1{fill:#c6c8ce;}.cls-2{fill:#e0e2e5;}.cls-3{fill:url(#무제_그라디언트_49);}.cls-4{fill:url(#무제_그라디언트_35);}</style><linearGradient id="무제_그라디언트_49" x1="32" y1="61.93" x2="32" y2="41.93" gradientUnits="userSpaceOnUse"><stop offset="0" stop-color="#dcdee2"/><stop offset="1" stop-color="#f3f4f5"/></linearGradient><linearGradient id="무제_그라디언트_35" x1="32.33" y1="2.07" x2="32.33" y2="40.1" gradientUnits="userSpaceOnUse"><stop offset="0" stop-color="#29b6f6"/><stop offset="0.67" stop-color="#6573d3"/><stop offset="1" stop-color="#7e57c4"/></linearGradient></defs><title>mail-inbox</title><path class="cls-1" d="M3,61A2.05,2.05,0,0,1,.94,58.94V38.86l11.59-22.2a2.67,2.67,0,0,1,2.37-1.44H49.1a2.65,2.65,0,0,1,2.36,1.43l11.6,22.21V58.94A2.05,2.05,0,0,1,61,61Z"/><path class="cls-2" d="M49.1,16.16a1.73,1.73,0,0,1,1.53.93l11.49,22V58.94A1.11,1.11,0,0,1,61,60H3a1.11,1.11,0,0,1-1.11-1.1V39.09l11.49-22a1.73,1.73,0,0,1,1.53-.93H49.1m0-1.88H14.9a3.6,3.6,0,0,0-3.2,1.94L.21,38.22,0,38.63V58.94a3,3,0,0,0,3,3H61a3,3,0,0,0,3-3V38.63l-.21-.41-11.49-22a3.6,3.6,0,0,0-3.2-1.94Z"/><path class="cls-3" d="M44.26,39.09A2.37,2.37,0,0,0,41.92,41a10.11,10.11,0,0,1-19.84,0,2.37,2.37,0,0,0-2.34-1.91H1.88V58.94A1.11,1.11,0,0,0,3,60H61a1.11,1.11,0,0,0,1.11-1.1V39.09Z"/><path class="cls-4" d="M48.78,24.15a2.8,2.8,0,0,0-2.63-1.82H42.6V4a2,2,0,0,0-2-2H24a2,2,0,0,0-1.95,2v18.3H18.52a2.82,2.82,0,0,0-1.86,4.93L30.47,39.4a2.83,2.83,0,0,0,1.87.7,2.78,2.78,0,0,0,1.85-.7L48,27.26A2.79,2.79,0,0,0,48.78,24.15Z"/></svg>