<svg id="레이어_1" data-name="레이어 1" xmlns="http://www.w3.org/2000/svg" xmlns:xlink="http://www.w3.org/1999/xlink" viewBox="0 0 64 64"><defs><style>.cls-1{fill:#c6c8ce;}.cls-2{fill:#e0e2e5;}.cls-3{fill:url(#무제_그라디언트_49);}.cls-4{fill:url(#무제_그라디언트_34);}</style><linearGradient id="무제_그라디언트_49" x1="32" y1="64" x2="32" y2="44" gradientUnits="userSpaceOnUse"><stop offset="0" stop-color="#dcdee2"/><stop offset="1" stop-color="#f3f4f5"/></linearGradient><linearGradient id="무제_그라디언트_34" x1="280.33" y1="250.15" x2="280.33" y2="288.17" gradientTransform="translate(312.67 288.35) rotate(180)" gradientUnits="userSpaceOnUse"><stop offset="0" stop-color="#ec407a"/><stop offset="1" stop-color="#7e57c4"/></linearGradient></defs><title>mail-outbox</title><path class="cls-1" d="M3,63.06A2.05,2.05,0,0,1,.94,61V40.93l11.59-22.2A2.66,2.66,0,0,1,14.9,17.3H49.1a2.63,2.63,0,0,1,2.36,1.43l11.6,22.2V61A2.05,2.05,0,0,1,61,63.06Z"/><path class="cls-2" d="M49.1,18.24a1.73,1.73,0,0,1,1.53.92l11.49,22V61A1.11,1.11,0,0,1,61,62.12H3A1.11,1.11,0,0,1,1.88,61V41.16l11.49-22a1.73,1.73,0,0,1,1.53-.92H49.1m0-1.89H14.9a3.62,3.62,0,0,0-3.2,1.94L.21,40.29,0,40.7V61a3,3,0,0,0,3,3H61a3,3,0,0,0,3-3V40.7l-.21-.41-11.49-22a3.62,3.62,0,0,0-3.2-1.94Z"/><path class="cls-3" d="M44.26,41.16a2.37,2.37,0,0,0-2.34,1.91,10.11,10.11,0,0,1-19.84,0,2.37,2.37,0,0,0-2.34-1.91H1.88V61A1.11,1.11,0,0,0,3,62.12H61A1.11,1.11,0,0,0,62.12,61V41.16Z"/><path class="cls-4" d="M15.89,16.13A2.8,2.8,0,0,0,18.52,18h3.55v18.3a2,2,0,0,0,1.95,2H40.65a2,2,0,0,0,2-2V18h3.55A2.82,2.82,0,0,0,48,13L34.2.88a2.83,2.83,0,0,0-1.87-.7,2.78,2.78,0,0,0-1.85.7L16.66,13A2.79,2.79,0,0,0,15.89,16.13Z"/></svg>