<svg id="레이어_1" data-name="레이어 1" xmlns="http://www.w3.org/2000/svg" xmlns:xlink="http://www.w3.org/1999/xlink" viewBox="0 0 64 64"><defs><style>.cls-1{fill:#ebecee;stroke:#d2d5da;stroke-miterlimit:10;}.cls-2{fill:url(#무제_그라디언트_108);}.cls-3{fill:url(#무제_그라디언트_108-2);}.cls-4{fill:url(#무제_그라디언트_108-3);}</style><linearGradient id="무제_그라디언트_108" x1="38.13" y1="32.12" x2="54.87" y2="3.12" gradientUnits="userSpaceOnUse"><stop offset="0" stop-color="#d4d4d4"/><stop offset="0.34" stop-color="#75c0f6"/><stop offset="0.46" stop-color="#7a89dc"/><stop offset="0.57" stop-color="#7e57c4"/><stop offset="0.65" stop-color="#795cc7"/><stop offset="0.74" stop-color="#6c6bcf"/><stop offset="0.84" stop-color="#5683db"/><stop offset="0.95" stop-color="#38a5ed"/><stop offset="1" stop-color="#29b6f6"/></linearGradient><linearGradient id="무제_그라디언트_108-2" x1="23.46" y1="46.79" x2="40.2" y2="17.79" xlink:href="#무제_그라디언트_108"/><linearGradient id="무제_그라디언트_108-3" x1="8.8" y1="61.45" x2="25.54" y2="32.46" xlink:href="#무제_그라디언트_108"/></defs><title>stock_music-library</title><path class="cls-1" d="M46.67,7.1A10.24,10.24,0,1,0,56.91,17.33,10.24,10.24,0,0,0,46.67,7.1Zm0,13.79a3.56,3.56,0,1,1,3.55-3.56A3.57,3.57,0,0,1,46.67,20.89Z"/><path class="cls-2" d="M46.67.17A17.17,17.17,0,1,0,63.83,17.33,17.16,17.16,0,0,0,46.67.17ZM38.5,17.33a8.17,8.17,0,1,1,8.17,8.16A8.18,8.18,0,0,1,38.5,17.33Z"/><path class="cls-1" d="M32,21.76A10.24,10.24,0,1,0,42.24,32,10.25,10.25,0,0,0,32,21.76Zm0,13.79A3.55,3.55,0,1,1,35.55,32,3.55,3.55,0,0,1,32,35.55Z"/><path class="cls-3" d="M32,14.83A17.17,17.17,0,1,0,49.17,32,17.17,17.17,0,0,0,32,14.83ZM23.84,32A8.16,8.16,0,1,1,32,40.16,8.17,8.17,0,0,1,23.84,32Z"/><path class="cls-1" d="M17.33,36.43A10.24,10.24,0,1,0,27.57,46.67,10.25,10.25,0,0,0,17.33,36.43Zm0,13.79a3.56,3.56,0,1,1,3.56-3.55A3.55,3.55,0,0,1,17.33,50.22Z"/><path class="cls-4" d="M17.33,29.5A17.17,17.17,0,1,0,34.5,46.67,17.16,17.16,0,0,0,17.33,29.5ZM9.17,46.67a8.16,8.16,0,1,1,8.16,8.16A8.17,8.17,0,0,1,9.17,46.67Z"/></svg>