
<svg xmlns="http://www.w3.org/2000/svg" xmlns:xlink="http://www.w3.org/1999/xlink" width="128px" height="128px" viewBox="0 0 128 128" version="1.1">
<defs>
<linearGradient id="linear0" gradientUnits="userSpaceOnUse" x1="19.93" y1="14.26" x2="48.63" y2="56.46" gradientTransform="matrix(2,0,0,2,0,0)">
<stop offset="0" style="stop-color:rgb(16.078431%,71.372549%,96.470588%);stop-opacity:1;"/>
<stop offset="0.67" style="stop-color:rgb(39.607843%,45.098039%,82.745098%);stop-opacity:1;"/>
<stop offset="1" style="stop-color:rgb(49.411765%,34.117647%,76.862745%);stop-opacity:1;"/>
</linearGradient>
<filter id="alpha" filterUnits="objectBoundingBox" x="0%" y="0%" width="100%" height="100%">
  <feColorMatrix type="matrix" in="SourceGraphic" values="0 0 0 0 1 0 0 0 0 1 0 0 0 0 1 0 0 0 1 0"/>
</filter>
<mask id="mask0">
  <g filter="url(#alpha)">
<rect x="0" y="0" width="128" height="128" style="fill:rgb(0%,0%,0%);fill-opacity:0.501961;stroke:none;"/>
  </g>
</mask>
<clipPath id="clip1">
  <rect x="0" y="0" width="128" height="128"/>
</clipPath>
<g id="surface5" clip-path="url(#clip1)">
<path style=" stroke:none;fill-rule:nonzero;fill:rgb(88.627451%,89.019608%,90.588235%);fill-opacity:1;" d="M 123.960938 104.71875 L 3.679688 104.71875 L 4.101562 88.898438 L 124.398438 88.898438 Z M 123.960938 104.71875 "/>
</g>
</defs>
<g id="surface1">
<path style=" stroke:none;fill-rule:nonzero;fill:url(#linear0);" d="M 6.960938 10.078125 L 121.039062 10.078125 C 123.667969 10.078125 125.800781 12.210938 125.800781 14.839844 L 125.800781 113.179688 C 125.800781 115.808594 123.667969 117.941406 121.039062 117.941406 L 6.960938 117.941406 C 4.332031 117.941406 2.199219 115.808594 2.199219 113.179688 L 2.199219 14.839844 C 2.199219 12.210938 4.332031 10.078125 6.960938 10.078125 Z M 6.960938 10.078125 "/>
<path style=" stroke:none;fill-rule:nonzero;fill:rgb(88.627451%,89.019608%,90.588235%);fill-opacity:1;" d="M 121.039062 120.121094 L 7.039062 120.121094 C 5.183594 120.140625 3.394531 119.421875 2.074219 118.117188 C 0.75 116.8125 0.00390625 115.035156 0 113.179688 L 0 14.820312 C 0.0117188 10.984375 3.125 7.878906 6.960938 7.878906 L 121.058594 7.878906 C 124.886719 7.890625 127.988281 10.992188 128 14.820312 L 128 113.179688 C 127.988281 117.015625 124.875 120.121094 121.039062 120.121094 Z M 6.960938 12.261719 C 5.546875 12.261719 4.398438 13.40625 4.398438 14.820312 L 4.398438 113.179688 C 4.410156 114.589844 5.550781 115.730469 6.960938 115.738281 L 121.039062 115.738281 C 122.453125 115.738281 123.601562 114.59375 123.601562 113.179688 L 123.601562 14.820312 C 123.589844 13.410156 122.449219 12.269531 121.039062 12.261719 Z M 6.960938 12.261719 "/>
<path style=" stroke:none;fill-rule:nonzero;fill:rgb(88.627451%,89.019608%,90.588235%);fill-opacity:1;" d="M 0.621094 103.5 L 127.160156 103.5 L 127.160156 113.660156 C 127.160156 116.6875 124.707031 119.140625 121.679688 119.140625 L 6.121094 119.140625 C 4.664062 119.144531 3.265625 118.570312 2.230469 117.542969 C 1.199219 116.515625 0.621094 115.117188 0.621094 113.660156 Z M 0.621094 103.5 "/>
<path style=" stroke:none;fill-rule:nonzero;fill:rgb(100%,100%,100%);fill-opacity:1;" d="M 24.820312 27.398438 L 24.820312 33.558594 C 24.820312 34.71875 23.878906 35.660156 22.71875 35.660156 L 16.558594 35.660156 C 15.398438 35.660156 14.460938 34.71875 14.460938 33.558594 L 14.460938 27.398438 C 14.460938 26.238281 15.398438 25.300781 16.558594 25.300781 L 22.71875 25.300781 C 23.878906 25.300781 24.820312 26.238281 24.820312 27.398438 Z M 24.820312 27.398438 "/>
<path style=" stroke:none;fill-rule:nonzero;fill:rgb(100%,100%,100%);fill-opacity:1;" d="M 24.820312 40.660156 L 24.820312 46.820312 C 24.820312 47.980469 23.878906 48.921875 22.71875 48.921875 L 16.558594 48.921875 C 15.398438 48.921875 14.460938 47.980469 14.460938 46.820312 L 14.460938 40.660156 C 14.460938 39.5 15.398438 38.558594 16.558594 38.558594 L 22.71875 38.558594 C 23.878906 38.558594 24.820312 39.5 24.820312 40.660156 Z M 24.820312 40.660156 "/>
<path style=" stroke:none;fill-rule:nonzero;fill:rgb(100%,100%,100%);fill-opacity:1;" d="M 24.820312 53.941406 L 24.820312 60.101562 C 24.820312 61.261719 23.878906 62.199219 22.71875 62.199219 L 16.558594 62.199219 C 15.398438 62.199219 14.460938 61.261719 14.460938 60.101562 L 14.460938 53.941406 C 14.460938 52.78125 15.398438 51.839844 16.558594 51.839844 L 22.71875 51.839844 C 23.878906 51.839844 24.820312 52.78125 24.820312 53.941406 Z M 24.820312 53.941406 "/>
<path style=" stroke:none;fill-rule:nonzero;fill:rgb(100%,100%,100%);fill-opacity:1;" d="M 24.839844 67.21875 L 24.839844 73.378906 C 24.839844 74.539062 23.898438 75.480469 22.738281 75.480469 L 16.578125 75.480469 C 15.421875 75.480469 14.480469 74.539062 14.480469 73.378906 L 14.480469 67.21875 C 14.480469 66.058594 15.421875 65.121094 16.578125 65.121094 L 22.738281 65.121094 C 23.898438 65.121094 24.839844 66.058594 24.839844 67.21875 Z M 24.839844 67.21875 "/>
<use xlink:href="#surface5" mask="url(#mask0)"/>
</g>
</svg>
