
<svg xmlns="http://www.w3.org/2000/svg" xmlns:xlink="http://www.w3.org/1999/xlink" width="128px" height="128px" viewBox="0 0 128 128" version="1.1">
<defs>
<linearGradient id="linear0" gradientUnits="userSpaceOnUse" x1="5.67" y1="32.07" x2="58.33" y2="32.07" gradientTransform="matrix(2,0,0,2,0,0)">
<stop offset="0" style="stop-color:rgb(83.921569%,85.098039%,86.666667%);stop-opacity:1;"/>
<stop offset="0.27" style="stop-color:rgb(82.352941%,83.921569%,85.490196%);stop-opacity:1;"/>
<stop offset="0.5" style="stop-color:rgb(78.431373%,79.607843%,81.960784%);stop-opacity:1;"/>
<stop offset="0.73" style="stop-color:rgb(71.372549%,72.941176%,76.078431%);stop-opacity:1;"/>
<stop offset="0.92" style="stop-color:rgb(62.352941%,64.705882%,69.019608%);stop-opacity:1;"/>
</linearGradient>
</defs>
<g id="surface1">
<path style=" stroke:none;fill-rule:nonzero;fill:url(#linear0);" d="M 22.980469 110.339844 L 11.339844 22.761719 C 11.339844 10.71875 34.921875 0.941406 64 0.941406 C 93.078125 0.941406 116.660156 10.71875 116.660156 22.761719 L 105.019531 110.339844 C 105.019531 119.71875 86.660156 127.339844 64 127.339844 C 41.339844 127.339844 22.980469 119.71875 22.980469 110.339844 Z M 22.980469 110.339844 "/>
<path style=" stroke:none;fill-rule:nonzero;fill:rgb(49.411765%,34.117647%,76.862745%);fill-opacity:1;" d="M 64 42.578125 C 33.699219 42.578125 13.339844 32.339844 13.339844 22.761719 C 13.339844 13.179688 33.699219 2.941406 64 2.941406 C 94.300781 2.941406 114.660156 13.199219 114.660156 22.761719 C 114.660156 32.320312 94.300781 42.578125 64 42.578125 Z M 64 42.578125 "/>
<path style=" stroke:none;fill-rule:nonzero;fill:rgb(100%,100%,100%);fill-opacity:1;" d="M 64 4.941406 C 91.859375 4.941406 112.660156 14.359375 112.660156 22.761719 C 112.660156 31.160156 91.859375 40.578125 64 40.578125 C 36.140625 40.578125 15.339844 31.179688 15.339844 22.761719 C 15.339844 14.339844 36.140625 4.941406 64 4.941406 M 64 0.941406 C 34.921875 0.941406 11.339844 10.71875 11.339844 22.761719 C 11.339844 34.800781 34.921875 44.578125 64 44.578125 C 93.078125 44.578125 116.660156 34.820312 116.660156 22.761719 C 116.660156 10.699219 93.078125 0.941406 64 0.941406 Z M 64 0.941406 "/>
<path style=" stroke:none;fill-rule:nonzero;fill:rgb(38.039216%,26.666667%,62.745098%);fill-opacity:1;" d="M 65.660156 68 C 65.515625 65.707031 67.132812 63.675781 69.398438 63.300781 C 71.769531 62.71875 74.246094 63.695312 75.578125 65.738281 L 80.960938 74.28125 C 81.140625 74.558594 81.078125 74.679688 80.800781 74.820312 L 72.179688 79.480469 C 71.878906 79.660156 71.761719 79.621094 71.578125 79.320312 L 66.28125 70.578125 C 65.882812 69.777344 65.671875 68.894531 65.660156 68 Z M 65.660156 68 "/>
<path style=" stroke:none;fill-rule:nonzero;fill:rgb(38.039216%,26.666667%,62.745098%);fill-opacity:1;" d="M 78 93.679688 C 79.734375 93.734375 81.363281 94.535156 82.460938 95.878906 C 83.1875 96.917969 83.460938 98.207031 83.21875 99.449219 C 82.976562 100.695312 82.242188 101.789062 81.179688 102.480469 C 80.164062 103.171875 78.96875 103.539062 77.738281 103.539062 L 67.28125 103.539062 C 66.878906 103.539062 66.71875 103.539062 66.71875 103.019531 C 66.71875 99.980469 66.71875 97.019531 66.71875 94.019531 C 66.71875 93.640625 66.71875 93.539062 67.199219 93.539062 Z M 78 93.679688 "/>
<path style=" stroke:none;fill-rule:nonzero;fill:rgb(38.039216%,26.666667%,62.745098%);fill-opacity:1;" d="M 46.539062 94 C 44.679688 94.105469 42.910156 93.195312 41.914062 91.621094 C 40.921875 90.042969 40.863281 88.050781 41.761719 86.421875 C 43.5 83.5 45.320312 80.601562 47.078125 77.699219 C 47.238281 77.421875 47.378906 77.441406 47.640625 77.558594 C 50.546875 79.1875 53.433594 80.738281 56.300781 82.21875 C 56.640625 82.398438 56.621094 82.519531 56.441406 82.800781 C 54.640625 85.621094 52.878906 88.480469 51.039062 91.261719 C 50.03125 92.804688 48.375 93.8125 46.539062 94 Z M 46.539062 94 "/>
<path style=" stroke:none;fill-rule:nonzero;fill:rgb(49.411765%,34.117647%,76.862745%);fill-opacity:1;" d="M 72.238281 89.519531 L 78.621094 80.300781 C 78.71875 80.164062 78.875 80.085938 79.039062 80.078125 L 87.578125 79.621094 L 91 79.441406 C 91 79.640625 90.78125 79.640625 90.679688 79.699219 L 86.601562 82 C 86.300781 82.160156 86.261719 82.261719 86.441406 82.539062 C 87.441406 84.101562 88.441406 85.660156 89.378906 87.238281 C 89.878906 88.144531 90.007812 89.203125 89.738281 90.199219 C 89.445312 91.542969 88.933594 92.824219 88.21875 94 C 86.582031 96.671875 84.628906 99.136719 82.398438 101.339844 C 82.625 100.464844 82.796875 99.574219 82.921875 98.679688 C 83.0625 97.753906 82.886719 96.808594 82.421875 96 C 80.71875 93.058594 78.839844 90.238281 77.019531 87.378906 C 76.839844 87.121094 76.71875 87.179688 76.5 87.378906 L 72.339844 89.601562 Z M 72.238281 89.519531 "/>
<path style=" stroke:none;fill-rule:nonzero;fill:rgb(49.411765%,34.117647%,76.862745%);fill-opacity:1;" d="M 41.578125 91.101562 C 41.761719 91.101562 41.839844 91.238281 41.960938 91.339844 C 42.078125 91.441406 42.699219 92 43.101562 92.320312 C 44.078125 93.183594 45.355469 93.636719 46.660156 93.578125 C 50.058594 93.578125 53.460938 93.578125 56.839844 93.578125 C 57.261719 93.578125 57.378906 93.480469 57.359375 93.058594 C 57.359375 91.578125 57.359375 90.101562 57.359375 88.601562 C 57.539062 88.601562 57.539062 88.761719 57.601562 88.859375 L 62.738281 98.339844 C 62.894531 98.539062 62.894531 98.820312 62.738281 99.019531 L 57.539062 108.621094 C 57.539062 108.621094 57.441406 108.78125 57.359375 108.960938 C 57.359375 108.738281 57.359375 108.601562 57.359375 108.480469 C 57.359375 107.039062 57.359375 105.601562 57.359375 104.160156 C 57.359375 103.820312 57.359375 103.679688 56.941406 103.699219 C 54.941406 103.699219 53.078125 103.699219 51.160156 103.699219 C 50.515625 103.699219 49.886719 103.519531 49.339844 103.179688 C 47.925781 102.359375 46.726562 101.214844 45.839844 99.839844 C 44.039062 97.148438 42.597656 94.230469 41.558594 91.160156 C 41.558594 91.160156 41.558594 91.140625 41.578125 91.101562 Z M 41.578125 91.101562 "/>
<path style=" stroke:none;fill-rule:nonzero;fill:rgb(49.411765%,34.117647%,76.862745%);fill-opacity:1;" d="M 47 67.078125 L 51.378906 69.421875 C 51.640625 69.558594 51.78125 69.601562 51.960938 69.300781 C 52.878906 67.71875 53.820312 66.179688 54.761719 64.640625 C 55.074219 64.179688 55.519531 63.824219 56.039062 63.621094 C 57.203125 63.121094 58.4375 62.816406 59.699219 62.71875 C 63.179688 62.425781 66.679688 62.515625 70.140625 62.980469 L 71.441406 62.980469 C 71.441406 63.121094 71.21875 63.101562 71.101562 63.140625 C 70.359375 63.324219 69.628906 63.558594 68.921875 63.839844 C 67.886719 64.191406 67.015625 64.902344 66.460938 65.839844 C 64.820312 68.601562 63.101562 71.339844 61.398438 74.058594 C 61.21875 74.359375 61.199219 74.5 61.558594 74.679688 C 62.839844 75.339844 64.101562 76.039062 65.359375 76.679688 C 65.507812 76.738281 65.636719 76.84375 65.71875 76.980469 L 62.421875 76.839844 C 59.941406 76.71875 57.460938 76.558594 54.960938 76.5 C 54.082031 76.554688 53.253906 76.101562 52.820312 75.339844 C 51 72.621094 49.058594 69.980469 47.179688 67.339844 L 46.941406 66.941406 Z M 47 67.078125 "/>
<path style=" stroke:none;fill-rule:nonzero;fill:rgb(95.294118%,96.470588%,96.862745%);fill-opacity:1;" d="M 46.601562 22.339844 L 46.359375 22.339844 C 45.359375 28.339844 38.078125 29.878906 33.359375 34.21875 C 32.839844 34.691406 32.417969 35.261719 32.121094 35.898438 C 37.75 37.789062 43.5625 39.074219 49.460938 39.738281 C 50.792969 39.300781 52.09375 38.898438 53.359375 38.539062 C 54.09375 32.328125 51.53125 26.1875 46.601562 22.339844 Z M 46.601562 22.339844 "/>
<path style=" stroke:none;fill-rule:nonzero;fill:rgb(69.803922%,73.333333%,73.72549%);fill-opacity:1;" d="M 49.460938 39.800781 C 50.660156 39.960938 51.878906 40.078125 53.121094 40.199219 C 53.121094 39.660156 53.300781 39.140625 53.359375 38.601562 C 52.039062 38.960938 50.738281 39.359375 49.460938 39.800781 Z M 49.460938 39.800781 "/>
<path style=" stroke:none;fill-rule:nonzero;fill:rgb(82.745098%,83.921569%,84.313725%);fill-opacity:1;" d="M 53.359375 38.601562 C 58.542969 37.25 63.882812 36.578125 69.238281 36.601562 C 69.324219 36.03125 69.324219 35.449219 69.238281 34.878906 C 60.738281 31.101562 59.480469 27.738281 59.480469 27.738281 C 56.140625 20.898438 48.078125 22.019531 46.578125 22.300781 C 51.550781 26.160156 54.125 32.351562 53.359375 38.601562 Z M 53.359375 38.601562 "/>
<path style=" stroke:none;fill-rule:nonzero;fill:rgb(55.686275%,55.686275%,55.686275%);fill-opacity:1;" d="M 68.78125 38 C 68.78125 37.859375 68.78125 37.71875 68.960938 37.558594 C 69.101562 37.261719 69.199219 36.945312 69.238281 36.621094 C 63.882812 36.597656 58.542969 37.269531 53.359375 38.621094 C 53.359375 39.160156 53.199219 39.679688 53.121094 40.21875 C 56.601562 40.519531 60.21875 40.699219 63.941406 40.699219 L 65 40.699219 C 66.171875 39.683594 67.4375 38.777344 68.78125 38 Z M 68.78125 38 "/>
<path style=" stroke:none;fill-rule:nonzero;fill:rgb(63.137255%,65.098039%,65.490196%);fill-opacity:1;" d="M 97.320312 34 C 91.515625 35.0625 85.550781 34.84375 79.839844 33.359375 C 77.390625 35.101562 75.4375 37.453125 74.179688 40.179688 C 82.324219 39.652344 90.347656 37.941406 98 35.101562 L 98.378906 34.28125 Z M 97.320312 34 "/>
<path style=" stroke:none;fill-rule:nonzero;fill:rgb(69.803922%,73.333333%,73.72549%);fill-opacity:1;" d="M 97.320312 34 C 93.703125 33.195312 90.363281 31.449219 87.640625 28.941406 C 84.871094 30.097656 82.253906 31.582031 79.839844 33.359375 C 85.550781 34.84375 91.515625 35.0625 97.320312 34 Z M 97.320312 34 "/>
<path style=" stroke:none;fill-rule:nonzero;fill:rgb(82.745098%,83.921569%,84.313725%);fill-opacity:1;" d="M 67.261719 28.199219 L 66.378906 28.199219 C 67.878906 30.207031 68.867188 32.546875 69.261719 35.019531 C 69.34375 35.589844 69.34375 36.167969 69.261719 36.738281 C 69.21875 37.066406 69.121094 37.382812 68.980469 37.679688 C 68.980469 37.839844 68.859375 37.980469 68.800781 38.121094 C 68.476562 38.933594 68.359375 39.8125 68.460938 40.679688 C 70.460938 40.679688 72.339844 40.5 74.199219 40.339844 C 75.460938 37.613281 77.410156 35.261719 79.859375 33.519531 C 75.40625 32.417969 71.15625 30.621094 67.261719 28.199219 Z M 67.261719 28.199219 "/>
<path style=" stroke:none;fill-rule:nonzero;fill:rgb(95.294118%,96.470588%,96.862745%);fill-opacity:1;" d="M 87.640625 29 C 86.167969 27.667969 84.9375 26.089844 84 24.339844 C 78 28.941406 70 28.5 67.300781 28.199219 C 71.195312 30.585938 75.441406 32.347656 79.878906 33.421875 C 82.28125 31.644531 84.886719 30.160156 87.640625 29 Z M 87.640625 29 "/>
</g>
</svg>
