<svg id="레이어_1" data-name="레이어 1" xmlns="http://www.w3.org/2000/svg" xmlns:xlink="http://www.w3.org/1999/xlink" viewBox="0 0 64 64"><defs><style>.cls-1{fill:#3d9983;}.cls-2{fill:#d2d5da;}.cls-3{fill:#64bc90;}.cls-4{fill:#fff;}.cls-5{fill:url(#무제_그라디언트_60);}</style><linearGradient id="무제_그라디언트_60" x1="21.42" y1="32.37" x2="35.27" y2="32.37" gradientUnits="userSpaceOnUse"><stop offset="0.18" stop-color="#29b6f6"/><stop offset="0.82" stop-color="#7e57c4"/></linearGradient></defs><title>audio-card</title><path class="cls-1" d="M59.45,13.33H6.89V52.5H59.45A4.55,4.55,0,0,0,64,48V17.88A4.55,4.55,0,0,0,59.45,13.33Z"/><path class="cls-2" d="M8.81,58.6H4.41V9.29H0V4.89H4.41a4.4,4.4,0,0,1,4.4,4.4Z"/><rect class="cls-2" x="14.58" y="52.92" width="22.48" height="5.76"/><rect class="cls-3" x="14.46" y="25.73" width="7.07" height="2.12"/><rect class="cls-3" x="14.46" y="29.55" width="7.07" height="2.12"/><rect class="cls-3" x="14.46" y="33.37" width="7.07" height="2.12"/><rect class="cls-3" x="14.46" y="37.19" width="7.07" height="2.12"/><rect class="cls-3" x="35.67" y="25.73" width="7.07" height="2.12"/><rect class="cls-3" x="35.67" y="29.55" width="7.07" height="2.12"/><rect class="cls-3" x="35.67" y="33.37" width="7.07" height="2.12"/><rect class="cls-3" x="35.67" y="37.19" width="7.07" height="2.12"/><rect class="cls-3" x="33.27" y="18.38" width="2.12" height="7.07"/><rect class="cls-3" x="29.45" y="18.38" width="2.12" height="7.07"/><rect class="cls-3" x="25.63" y="18.38" width="2.12" height="7.07"/><rect class="cls-3" x="21.81" y="18.38" width="2.12" height="7.07"/><rect class="cls-3" x="33.27" y="39.6" width="2.12" height="7.07"/><rect class="cls-3" x="29.45" y="39.6" width="2.12" height="7.07"/><rect class="cls-3" x="25.63" y="39.6" width="2.12" height="7.07"/><rect class="cls-3" x="21.81" y="39.6" width="2.12" height="7.07"/><rect class="cls-3" x="51.63" y="28.08" width="5.39" height="1.62"/><rect class="cls-3" x="51.63" y="31" width="5.39" height="1.62"/><rect class="cls-3" x="51.63" y="33.91" width="5.39" height="1.62"/><rect class="cls-3" x="51.63" y="36.82" width="5.39" height="1.62"/><rect class="cls-3" x="55.4" y="20.07" width="1.62" height="5.39"/><rect class="cls-3" x="52.49" y="20.07" width="1.62" height="5.39"/><rect class="cls-3" x="49.58" y="20.07" width="1.62" height="5.39"/><rect class="cls-3" x="46.67" y="20.07" width="1.62" height="5.39"/><rect class="cls-3" x="55.4" y="41.06" width="1.62" height="5.39"/><rect class="cls-3" x="52.49" y="41.06" width="1.62" height="5.39"/><rect class="cls-3" x="49.58" y="41.06" width="1.62" height="5.39"/><rect class="cls-3" x="46.67" y="41.06" width="1.62" height="5.39"/><rect class="cls-4" x="16.91" y="20.94" width="23.39" height="23.39" rx="3.9" ry="3.9"/><path class="cls-1" d="M13.89,52.5v6.61h23.3V52.5ZM26,53.35H30.8v4.91H26Zm-.85,4.91H20.27V53.35h4.84Zm-10.4-4.91h4.71v4.91H14.71Zm21.66,4.91H31.66V53.35h4.71Z"/><path class="cls-5" d="M35.25,37.65V27.88A2.85,2.85,0,0,0,32.4,25H27.51a2.84,2.84,0,0,0-2.84,2.84v6a2.69,2.69,0,0,0-1-.2,2.09,2.09,0,0,0-2.26,1.88,2.09,2.09,0,0,0,2.26,1.88,2.09,2.09,0,0,0,2.25-1.88s0-.06,0-.09h0V29a1.16,1.16,0,0,1,1.16-1.16h5.71A1.16,1.16,0,0,1,34,29v7.11A2.69,2.69,0,0,0,33,36a2.09,2.09,0,0,0-2.25,1.88A2.1,2.1,0,0,0,33,39.71a2.1,2.1,0,0,0,2.26-1.88C35.27,37.76,35.25,37.71,35.25,37.65Z"/></svg>