<svg id="레이어_1" data-name="레이어 1" xmlns="http://www.w3.org/2000/svg" xmlns:xlink="http://www.w3.org/1999/xlink" viewBox="0 0 64 64"><defs><style>.cls-1{fill:url(#무제_그라디언트_72);}.cls-2{fill:url(#무제_그라디언트_78);}.cls-3{fill:#818586;}.cls-4{fill:#5683db;}.cls-5{fill:url(#무제_그라디언트_78-2);}</style><linearGradient id="무제_그라디언트_72" x1="32" y1="27.2" x2="32" y2="3.35" gradientUnits="userSpaceOnUse"><stop offset="0" stop-color="#a1a6ad"/><stop offset="0.33" stop-color="#b1b5bb"/><stop offset="0.98" stop-color="#d9dde0"/><stop offset="1" stop-color="#dbdee1"/></linearGradient><linearGradient id="무제_그라디언트_78" x1="22.87" y1="25.05" x2="53.08" y2="55.27" gradientUnits="userSpaceOnUse"><stop offset="0" stop-color="#29b6f6"/><stop offset="1" stop-color="#5e7ad7"/></linearGradient><linearGradient id="무제_그라디언트_78-2" x1="18.9" y1="29.02" x2="49.11" y2="59.23" xlink:href="#무제_그라디언트_78"/></defs><title>audio-input-microphone</title><path class="cls-1" d="M42.86,10.86a10.86,10.86,0,0,0-21.72,0V29H42.86Z"/><path class="cls-2" d="M21.14,29v5.9a10.86,10.86,0,1,0,21.72,0V29Z"/><path class="cls-3" d="M21.14,11.44H28a1.43,1.43,0,0,1,1.44,1.44h0A1.44,1.44,0,0,1,28,14.32H21.14Z"/><path class="cls-3" d="M42.86,14.32H36a1.44,1.44,0,0,1-1.44-1.44h0A1.43,1.43,0,0,1,36,11.44h6.87Z"/><path class="cls-3" d="M21.14,16.72H28a1.43,1.43,0,0,1,1.44,1.44h0A1.43,1.43,0,0,1,28,19.6H21.14Z"/><path class="cls-3" d="M42.86,19.6H36a1.43,1.43,0,0,1-1.44-1.44h0A1.43,1.43,0,0,1,36,16.72h6.87Z"/><path class="cls-3" d="M21.14,22H28a1.44,1.44,0,0,1,1.44,1.44h0A1.43,1.43,0,0,1,28,24.88H21.14Z"/><path class="cls-3" d="M42.86,24.88H36a1.43,1.43,0,0,1-1.44-1.44h0A1.44,1.44,0,0,1,36,22h6.87Z"/><polygon class="cls-4" points="49.61 28.15 44.18 28.15 44.18 26.93 19.82 26.93 19.82 28.15 14.39 28.15 14.39 29.84 19.82 29.84 19.82 31.14 44.18 31.14 44.18 29.84 49.61 29.84 49.61 28.15"/><path class="cls-5" d="M49.61,27.31A1.69,1.69,0,0,0,47.92,29v4.32a15.92,15.92,0,0,1-31.84,0V29a1.69,1.69,0,1,0-3.37,0v4.32a19.32,19.32,0,0,0,16.23,19v8.26H21.46a1.69,1.69,0,1,0,0,3.37H42.33a1.69,1.69,0,1,0,0-3.37H34.85V52.4A19.32,19.32,0,0,0,51.29,33.32V29A1.68,1.68,0,0,0,49.61,27.31Z"/></svg>