<svg id="레이어_1" data-name="레이어 1" xmlns="http://www.w3.org/2000/svg" xmlns:xlink="http://www.w3.org/1999/xlink" viewBox="0 0 64 64"><defs><style>.cls-1{fill:#d2d5da;}.cls-2{fill:url(#무제_그라디언트_65);}.cls-3{fill:#eaeaea;}.cls-4{fill:#bdc2c9;}.cls-5{fill:url(#무제_그라디언트_20);}.cls-6{fill:#75c0f6;}.cls-7{fill:url(#무제_그라디언트_20-2);}</style><linearGradient id="무제_그라디언트_65" x1="-259.45" y1="-2859.69" x2="-259.45" y2="-2836.97" gradientTransform="matrix(1, 0, 0, 1, 284.63, 2874.44)" gradientUnits="userSpaceOnUse"><stop offset="0" stop-color="#fff" stop-opacity="0"/><stop offset="1" stop-color="#fff"/></linearGradient><linearGradient id="무제_그라디언트_20" x1="33.58" y1="33.57" x2="54.18" y2="54.17" gradientUnits="userSpaceOnUse"><stop offset="0" stop-color="#29b6f6"/><stop offset="1" stop-color="#7e57c4"/></linearGradient><linearGradient id="무제_그라디언트_20-2" x1="29.7" y1="29.69" x2="42.36" y2="42.35" xlink:href="#무제_그라디언트_20"/></defs><title>battery</title><path class="cls-1" d="M38.82,63.21A4.54,4.54,0,0,1,35.47,62L2,28.54c-3.16-3.17.18-11.48,7.62-18.91C15,4.26,21.1.79,25.19.79A4.52,4.52,0,0,1,28.54,2L62,35.46c3.16,3.17-.18,11.48-7.62,18.91C49,59.74,42.91,63.21,38.82,63.21Z"/><path class="cls-1" d="M25.19,1.59a3.81,3.81,0,0,1,2.79,1h0L52.79,27.38,61.44,36c2.8,2.81-.61,10.78-7.62,17.79-5.35,5.35-11.25,8.6-15,8.6a3.81,3.81,0,0,1-2.79-1l-2.22-2.22h0L2.57,28c-2.8-2.81.61-10.78,7.62-17.79,5.35-5.35,11.25-8.6,15-8.6m0-1.59C20.9,0,14.58,3.56,9.07,9.07c-6.7,6.7-11.65,16-7.62,20L32.69,60.33l2.22,2.22A5.37,5.37,0,0,0,38.82,64c4.29,0,10.61-3.56,16.12-9.07a37,37,0,0,0,7.83-11c1.71-4,1.64-7.22-.21-9.07l-8.64-8.64L29.1,1.45A5.36,5.36,0,0,0,25.19,0Z"/><rect class="cls-2" x="7.18" y="11.19" width="35.93" height="27.9" transform="translate(-10.41 25.14) rotate(-45)"/><ellipse class="cls-3" cx="15.28" cy="15.27" rx="17.96" ry="7.19" transform="translate(-6.32 15.28) rotate(-45)"/><path class="cls-1" d="M5.39,30a4.84,4.84,0,0,1-3.56-1.3C-1.5,25.4,1.78,17.11,9.44,9.44S25.4-1.5,28.73,1.82h0c1.68,1.69,1.72,4.7.1,8.48a36.42,36.42,0,0,1-7.72,10.81C15.47,26.76,9.48,30,5.39,30ZM25.18,2.65a10.86,10.86,0,0,0-4.1,1,34.09,34.09,0,0,0-10.14,7.26c-7,7.05-9.67,14.25-7.62,16.3,1,1,3.31.87,6.16-.35a34.32,34.32,0,0,0,10.14-7.27A34.32,34.32,0,0,0,26.89,9.47c1.22-2.85,1.35-5.15.34-6.15h0A2.8,2.8,0,0,0,25.18,2.65Z"/><path class="cls-4" d="M20,4C18.05,2.09,13,4.09,8.57,8.56A21.78,21.78,0,0,0,4,15C3,17.22,3,19,4,20a2.77,2.77,0,0,0,2,.73c2.43,0,6.05-2,9.37-5.29C19.88,10.93,21.88,5.92,20,4Z"/><ellipse class="cls-3" cx="9.39" cy="9.54" rx="10.75" ry="4.31" transform="translate(-4 9.43) rotate(-45)"/><path class="cls-5" d="M27.39,52.79,36,61.43c2.81,2.81,10.77-.6,17.79-7.62s10.42-15,7.62-17.79L52.8,27.38Z"/><ellipse class="cls-6" cx="40.09" cy="40.09" rx="17.96" ry="7.19" transform="translate(-16.6 40.09) rotate(-45)"/><path class="cls-7" d="M16.47,41.87l8.64,8.64c2.81,2.81,10.77-.6,17.79-7.62s10.42-15,7.61-17.79l-8.64-8.64Z"/><ellipse class="cls-6" cx="29.17" cy="29.17" rx="17.96" ry="7.19" transform="translate(-12.08 29.17) rotate(-45)"/></svg>