<svg id="레이어_1" data-name="레이어 1" xmlns="http://www.w3.org/2000/svg" xmlns:xlink="http://www.w3.org/1999/xlink" viewBox="0 0 64 64"><defs><style>.cls-1{fill:url(#무제_그라디언트_58);}.cls-2{fill:#a1a6ad;}.cls-3{fill:#fff;}.cls-4{fill:url(#무제_그라디언트_30);}.cls-5{fill:#b7bcc4;}.cls-6{fill:url(#무제_그라디언트_60);}</style><linearGradient id="무제_그라디언트_58" x1="32" y1="3.56" x2="32" y2="60.44" gradientUnits="userSpaceOnUse"><stop offset="0" stop-color="#dbdee1"/><stop offset="1" stop-color="#a1a6ad"/></linearGradient><linearGradient id="무제_그라디언트_30" x1="32" y1="17.75" x2="32" y2="51.56" gradientUnits="userSpaceOnUse"><stop offset="0" stop-color="#fff"/><stop offset="0.22" stop-color="#e8e9eb"/><stop offset="0.49" stop-color="#d3d5d9"/><stop offset="0.75" stop-color="#c6c9ce"/><stop offset="1" stop-color="#c2c5ca"/></linearGradient><linearGradient id="무제_그라디언트_60" x1="24.14" y1="45.53" x2="39.86" y2="29.82" gradientTransform="translate(36.01 -11.59) rotate(45)" gradientUnits="userSpaceOnUse"><stop offset="0.18" stop-color="#29b6f6"/><stop offset="0.82" stop-color="#7e57c4"/></linearGradient></defs><title>camera-photo</title><path class="cls-1" d="M57,12.56H49.41a1,1,0,0,1-1-1.05h0a8,8,0,0,0-8-7.95H23.6a8,8,0,0,0-8,8h0a1,1,0,0,1-1.05,1.05H7a7,7,0,0,0-7,7V53.48a7,7,0,0,0,7,7H57a7,7,0,0,0,7-7V19.53A7,7,0,0,0,57,12.56Z"/><circle class="cls-2" cx="32" cy="41.59" r="17.96"/><circle class="cls-3" cx="53.7" cy="23.06" r="2.69"/><circle class="cls-4" cx="32" cy="37.67" r="17.96"/><path class="cls-5" d="M32,56.14A18.47,18.47,0,1,1,50.46,37.67,18.49,18.49,0,0,1,32,56.14Zm0-35.93A17.47,17.47,0,1,0,49.46,37.67,17.48,17.48,0,0,0,32,20.21Z"/><circle class="cls-6" cx="32" cy="37.67" r="11.11" transform="translate(-17.27 33.66) rotate(-45)"/><circle class="cls-3" cx="29.29" cy="33.65" r="3.78"/></svg>