
<svg xmlns="http://www.w3.org/2000/svg" xmlns:xlink="http://www.w3.org/1999/xlink" width="128px" height="128px" viewBox="0 0 128 128" version="1.1">
<defs>
<linearGradient id="linear0" gradientUnits="userSpaceOnUse" x1="32.9" y1="55.46" x2="32.9" y2="57.44" gradientTransform="matrix(2,0,0,2,0,0)">
<stop offset="0" style="stop-color:rgb(80.392157%,81.568627%,83.921569%);stop-opacity:1;"/>
<stop offset="0.56" style="stop-color:rgb(81.176471%,82.352941%,84.313725%);stop-opacity:1;"/>
<stop offset="0.79" style="stop-color:rgb(83.921569%,84.705882%,86.27451%);stop-opacity:1;"/>
<stop offset="0.97" style="stop-color:rgb(89.019608%,89.019608%,89.411765%);stop-opacity:1;"/>
<stop offset="1" style="stop-color:rgb(90.196078%,90.196078%,90.196078%);stop-opacity:1;"/>
</linearGradient>
<linearGradient id="linear1" gradientUnits="userSpaceOnUse" x1="10.4" y1="2.59" x2="55.09" y2="50.6" gradientTransform="matrix(2,0,0,2,0,0)">
<stop offset="0" style="stop-color:rgb(16.078431%,71.372549%,96.470588%);stop-opacity:1;"/>
<stop offset="0.67" style="stop-color:rgb(39.607843%,45.098039%,82.745098%);stop-opacity:1;"/>
<stop offset="1" style="stop-color:rgb(49.411765%,34.117647%,76.862745%);stop-opacity:1;"/>
</linearGradient>
</defs>
<g id="surface1">
<path style=" stroke:none;fill-rule:nonzero;fill:url(#linear0);" d="M 93.15625 114.21875 L 88.40625 114.21875 C 86.4375 114.21875 84.8125 112.625 84.8125 110.625 L 84.8125 94 L 46.8125 94 L 46.8125 110.59375 C 46.8125 112.59375 45.1875 114.1875 43.1875 114.1875 L 38.4375 114.1875 C 36.46875 114.1875 34.875 115.78125 34.875 117.75 C 34.875 119.71875 36.46875 121.3125 38.4375 121.3125 L 93.15625 121.3125 C 95.125 121.3125 96.71875 119.71875 96.71875 117.75 C 96.71875 115.8125 95.125 114.21875 93.15625 114.21875 Z M 93.15625 114.21875 "/>
<path style=" stroke:none;fill-rule:nonzero;fill:url(#linear1);" d="M 7.90625 8.25 L 120.09375 8.25 C 123.5625 8.25 126.375 11.09375 126.375 14.5625 L 126.375 88.625 C 126.375 92.09375 123.5625 94.90625 120.09375 94.90625 L 7.90625 94.90625 C 4.4375 94.90625 1.625 92.09375 1.625 88.625 L 1.625 14.5625 C 1.625 11.09375 4.4375 8.25 7.90625 8.25 Z M 7.90625 8.25 "/>
<path style=" stroke:none;fill-rule:nonzero;fill:rgb(90.196078%,90.196078%,90.196078%);fill-opacity:1;" d="M 120.09375 9.875 C 121.34375 9.875 122.53125 10.375 123.40625 11.25 C 124.28125 12.125 124.75 13.3125 124.75 14.5625 L 124.75 88.5625 C 124.75 89.8125 124.28125 91 123.40625 91.875 C 122.53125 92.75 121.34375 93.25 120.09375 93.25 L 8 93.25 C 6.75 93.25 5.5625 92.75 4.6875 91.875 C 3.8125 91 3.3125 89.8125 3.3125 88.5625 L 3.3125 14.5625 C 3.3125 11.96875 5.40625 9.875 8 9.875 L 120.09375 9.875 M 120.09375 6.65625 L 8 6.65625 C 3.59375 6.65625 0 10.25 0 14.65625 L 0 88.65625 C 0 93.09375 3.59375 96.65625 8 96.65625 L 120.09375 96.65625 C 124.53125 96.65625 128.09375 93.09375 128.09375 88.65625 L 128.09375 14.65625 C 128.03125 10.28125 124.46875 6.75 120.09375 6.75 Z M 120.09375 6.65625 "/>
<path style=" stroke:none;fill-rule:nonzero;fill:rgb(90.196078%,90.196078%,90.196078%);fill-opacity:1;" d="M 120.6875 94.5 L 7.09375 94.5 C 5.65625 94.5 4.28125 93.9375 3.28125 92.90625 C 2.25 91.90625 1.6875 90.53125 1.6875 89.09375 L 1.6875 83.6875 L 126.09375 83.6875 L 126.09375 89.09375 C 126.09375 92.09375 123.6875 94.5 120.6875 94.5 Z M 120.6875 94.5 "/>
</g>
</svg>
