
<svg xmlns="http://www.w3.org/2000/svg" xmlns:xlink="http://www.w3.org/1999/xlink" width="128px" height="128px" viewBox="0 0 128 128" version="1.1">
<defs>
<linearGradient id="linear0" gradientUnits="userSpaceOnUse" x1="32.07" y1="43.53" x2="33.1" y2="13.73" gradientTransform="matrix(2,0,0,2,0,0)">
<stop offset="0" style="stop-color:rgb(83.137255%,83.137255%,83.137255%);stop-opacity:1;"/>
<stop offset="0.55" style="stop-color:rgb(83.921569%,83.921569%,83.921569%);stop-opacity:1;"/>
<stop offset="0.78" style="stop-color:rgb(86.666667%,86.666667%,86.666667%);stop-opacity:1;"/>
<stop offset="0.96" style="stop-color:rgb(91.764706%,91.764706%,91.764706%);stop-opacity:1;"/>
<stop offset="1" style="stop-color:rgb(93.333333%,93.333333%,93.333333%);stop-opacity:1;"/>
</linearGradient>
<linearGradient id="linear1" gradientUnits="userSpaceOnUse" x1="0.79" y1="47.36" x2="63.23" y2="47.36" gradientTransform="matrix(2,0,0,2,0,0)">
<stop offset="0" style="stop-color:rgb(16.078431%,71.372549%,96.470588%);stop-opacity:1;"/>
<stop offset="1" style="stop-color:rgb(49.411765%,34.117647%,76.862745%);stop-opacity:1;"/>
</linearGradient>
</defs>
<g id="surface1">
<path style=" stroke:none;fill-rule:nonzero;fill:url(#linear0);" d="M 127.8125 82.875 L 127.8125 82.46875 C 127.71875 81.96875 127.5625 81.5 127.40625 81.03125 L 111.125 22.46875 L 111.125 23.59375 C 111.0625 19.28125 107.5625 15.78125 103.25 15.71875 L 24.625 15.71875 C 21.03125 15.71875 17.875 18.1875 17 21.71875 L 0.59375 81.03125 C 0.4375 81.5 0.3125 81.96875 0.1875 82.46875 L 0.09375 82.875 C 0 83.375 0 83.875 0 84.40625 L 0 98.15625 C 0 104.03125 4.78125 108.8125 10.65625 108.84375 L 117.3125 108.84375 C 123.1875 108.84375 128 104.0625 128 98.15625 L 128 84.40625 C 127.96875 83.875 127.90625 83.375 127.8125 82.875 Z M 127.8125 82.875 "/>
<path style=" stroke:none;fill-rule:nonzero;fill:url(#linear1);" d="M 10.6875 78.75 L 117.34375 78.75 C 122.375 78.75 126.46875 82.8125 126.46875 87.875 L 126.46875 101.625 C 126.46875 106.65625 122.375 110.75 117.34375 110.75 L 10.6875 110.75 C 5.65625 110.75 1.59375 106.65625 1.59375 101.625 L 1.59375 87.875 C 1.59375 82.8125 5.65625 78.75 10.6875 78.75 Z M 10.6875 78.75 "/>
<path style=" stroke:none;fill-rule:nonzero;fill:rgb(94.901961%,94.901961%,94.901961%);fill-opacity:1;" d="M 117.34375 80.28125 C 121.5 80.28125 124.875 83.65625 124.90625 87.84375 L 124.90625 101.59375 C 124.90625 105.78125 121.53125 109.15625 117.34375 109.1875 L 10.6875 109.1875 C 6.5 109.1875 3.125 105.78125 3.125 101.59375 L 3.125 87.84375 C 3.125 83.65625 6.53125 80.28125 10.6875 80.28125 L 117.34375 80.28125 M 117.34375 77.1875 L 10.6875 77.1875 C 4.8125 77.1875 0.03125 81.9375 0 87.84375 L 0 101.59375 C 0 107.5 4.78125 112.28125 10.6875 112.28125 L 117.34375 112.28125 C 123.21875 112.25 128 107.5 128 101.59375 L 128 87.84375 C 127.96875 81.96875 123.21875 77.1875 117.34375 77.1875 Z M 117.34375 77.1875 "/>
<path style=" stroke:none;fill-rule:nonzero;fill:rgb(100%,100%,100%);fill-opacity:1;" d="M 116.125 95.25 C 116.125 97.5 114.28125 99.375 112 99.375 C 109.71875 99.375 107.875 97.5 107.875 95.25 C 107.875 92.96875 109.71875 91.125 112 91.125 C 114.28125 91.125 116.125 92.96875 116.125 95.25 Z M 116.125 95.25 "/>
</g>
</svg>
