<svg id="레이어_1" data-name="레이어 1" xmlns="http://www.w3.org/2000/svg" xmlns:xlink="http://www.w3.org/1999/xlink" viewBox="0 0 64 64"><defs><style>.cls-1{fill:url(#무제_그라디언트_29);}.cls-2{fill:url(#무제_그라디언트_20);}.cls-3{fill:#f2f2f2;}.cls-4{fill:#fff;}</style><linearGradient id="무제_그라디언트_29" x1="32.07" y1="43.53" x2="33.1" y2="13.73" gradientUnits="userSpaceOnUse"><stop offset="0" stop-color="#d4d4d4"/><stop offset="0.55" stop-color="#d6d6d6"/><stop offset="0.78" stop-color="#ddd"/><stop offset="0.96" stop-color="#eaeaea"/><stop offset="1" stop-color="#eee"/></linearGradient><linearGradient id="무제_그라디언트_20" x1="0.79" y1="47.36" x2="63.23" y2="47.36" gradientUnits="userSpaceOnUse"><stop offset="0" stop-color="#29b6f6"/><stop offset="1" stop-color="#7e57c4"/></linearGradient></defs><title>drive-removable-media</title><path class="cls-1" d="M63.91,41.43h0l0-.2a5.94,5.94,0,0,0-.21-.72L55.56,11.24l0,.56a4,4,0,0,0-3.94-3.94H12.32a3.94,3.94,0,0,0-3.82,3v0L.3,40.51a5.9,5.9,0,0,0-.2.72l-.06.2h0A4.9,4.9,0,0,0,0,42.2v6.88a5.35,5.35,0,0,0,5.33,5.34H58.65A5.35,5.35,0,0,0,64,49.08V42.2A6.48,6.48,0,0,0,63.91,41.43Z"/><rect class="cls-2" x="0.79" y="39.37" width="62.44" height="16" rx="4.56" ry="4.56"/><path class="cls-3" d="M58.67,40.14a3.79,3.79,0,0,1,3.78,3.78V50.8a3.79,3.79,0,0,1-3.78,3.79H5.35A3.79,3.79,0,0,1,1.56,50.8V43.92a3.79,3.79,0,0,1,3.79-3.78H58.67m0-1.55H5.35A5.35,5.35,0,0,0,0,43.92V50.8a5.35,5.35,0,0,0,5.34,5.34H58.67A5.35,5.35,0,0,0,64,50.8V43.92a5.35,5.35,0,0,0-5.33-5.33Z"/><circle class="cls-4" cx="56" cy="47.62" r="2.06"/></svg>