<svg id="레이어_1" data-name="레이어 1" xmlns="http://www.w3.org/2000/svg" xmlns:xlink="http://www.w3.org/1999/xlink" viewBox="0 0 64 64"><defs><style>.cls-1{fill:url(#무제_그라디언트_66);}.cls-2{fill:url(#무제_그라디언트_60);}.cls-3{fill:url(#무제_그라디언트_60-2);}.cls-4{fill:#d9dadb;}</style><linearGradient id="무제_그라디언트_66" x1="32" y1="47.27" x2="32" y2="25.62" gradientUnits="userSpaceOnUse"><stop offset="0" stop-color="#d2d5da"/><stop offset="0.58" stop-color="#d4d7dc"/><stop offset="0.82" stop-color="#dbdee1"/><stop offset="1" stop-color="#e7e9eb"/></linearGradient><linearGradient id="무제_그라디언트_60" x1="33.12" y1="-1.97" x2="33.12" y2="17.1" gradientUnits="userSpaceOnUse"><stop offset="0.18" stop-color="#29b6f6"/><stop offset="0.82" stop-color="#7e57c4"/></linearGradient><linearGradient id="무제_그라디언트_60-2" x1="32.04" y1="25.88" x2="32.04" y2="36.86" xlink:href="#무제_그라디언트_60"/></defs><title>input-mouse</title><path class="cls-1" d="M30.74,24.89v-8H28.89A13.65,13.65,0,0,0,15.28,30.47V46.79a16.72,16.72,0,0,0,33.44,0V30.47A13.65,13.65,0,0,0,35.11,16.86H33.26v8Z"/><path class="cls-2" d="M33.26,16.33H30.93V15.16a5.84,5.84,0,0,1,5.83-5.83H41a3.5,3.5,0,0,0,0-7H19.38V0H41a5.83,5.83,0,0,1,0,11.66H36.76a3.5,3.5,0,0,0-3.5,3.5Z"/><rect class="cls-3" x="28.91" y="24.56" width="6.26" height="11.64" rx="3.13" ry="3.13"/><path class="cls-4" d="M32,64A17.23,17.23,0,0,1,14.79,46.79V30.47a14.12,14.12,0,0,1,14.1-14.1h1.85v1H28.89A13.13,13.13,0,0,0,15.78,30.47V46.79a16.22,16.22,0,1,0,32.44,0V30.47A13.13,13.13,0,0,0,35.11,17.35H33.26v-1h1.85a14.12,14.12,0,0,1,14.1,14.1V46.79A17.23,17.23,0,0,1,32,64Z"/></svg>