<svg id="레이어_1" data-name="레이어 1" xmlns="http://www.w3.org/2000/svg" xmlns:xlink="http://www.w3.org/1999/xlink" viewBox="0 0 64 64"><defs><style>.cls-1{fill:#ebecee;stroke:#d2d5da;stroke-miterlimit:10;}.cls-2{fill:url(#무제_그라디언트_108);}.cls-3{fill:#fff;}.cls-4{fill:#999;}</style><linearGradient id="무제_그라디언트_108" x1="16.09" y1="59.56" x2="47.29" y2="5.51" gradientUnits="userSpaceOnUse"><stop offset="0" stop-color="#d4d4d4"/><stop offset="0.34" stop-color="#75c0f6"/><stop offset="0.46" stop-color="#7a89dc"/><stop offset="0.57" stop-color="#7e57c4"/><stop offset="0.65" stop-color="#795cc7"/><stop offset="0.74" stop-color="#6c6bcf"/><stop offset="0.84" stop-color="#5683db"/><stop offset="0.95" stop-color="#38a5ed"/><stop offset="1" stop-color="#29b6f6"/></linearGradient></defs><title>media-cdrw</title><path class="cls-1" d="M32,12.92A19.08,19.08,0,1,0,51.09,32,19.11,19.11,0,0,0,32,12.92Zm0,25.71A6.63,6.63,0,1,1,38.63,32,6.64,6.64,0,0,1,32,38.63Z"/><path class="cls-2" d="M32,0A32,32,0,1,0,64,32,32,32,0,0,0,32,0ZM16.79,32A15.21,15.21,0,1,1,32,47.21,15.22,15.22,0,0,1,16.79,32Z"/><path class="cls-3" d="M10.91,62.1c-3.21,0-6.44-2.17-6.44-7S7.76,48,11,48a5.87,5.87,0,0,1,4.19,1.8l.32.32L13.3,52.78l-.39-.35a2.61,2.61,0,0,0-1.85-.86C9.6,51.57,8.58,53,8.58,55c0,2.18.92,3.48,2.44,3.48a2.81,2.81,0,0,0,2.05-1l.38-.42,2.24,2.67-.28.32A5.77,5.77,0,0,1,10.91,62.1Z"/><path class="cls-4" d="M11,48.47a5.4,5.4,0,0,1,3.84,1.65l-1.6,1.94a3.13,3.13,0,0,0-2.19-1c-1.63,0-3,1.46-3,3.93S9.24,59,11,59a3.29,3.29,0,0,0,2.42-1.16l1.6,1.9a5.27,5.27,0,0,1-4.13,1.88C7.69,61.6,5,59.39,5,55.1s2.82-6.63,6-6.63m0-1c-3.5,0-7,2.62-7,7.63,0,5.18,3.48,7.5,6.94,7.5a6.27,6.27,0,0,0,4.88-2.22l.56-.65-.55-.65-1.6-1.9-.73-.87-.77.83A2.25,2.25,0,0,1,11,58c-1.75,0-1.94-2.09-1.94-3,0-1.75.8-2.93,2-2.93a2.14,2.14,0,0,1,1.51.73l.78.71.67-.82,1.6-1.93.57-.7-.63-.64a6.36,6.36,0,0,0-4.55-2Z"/><path class="cls-3" d="M15.54,61.86V48.21h4.14c4.45,0,6.91,2.4,6.91,6.76s-2.46,6.89-6.74,6.89Zm4-3.45c1.37,0,2.9-.46,2.9-3.44s-1.38-3.33-2.9-3.35Z"/><path class="cls-4" d="M19.68,48.71c3.86,0,6.41,1.85,6.41,6.26s-2.55,6.39-6.24,6.39H16V48.71h3.64m-.6,10.2h.41c2,0,3.49-.94,3.49-3.94s-1.45-3.85-3.49-3.85h-.41v7.79m.6-11.2H15V62.36h4.81c4.53,0,7.24-2.77,7.24-7.39s-2.7-7.26-7.41-7.26Zm.4,10.17V52.15c1.21.13,1.9.75,1.9,2.82s-.74,2.76-1.9,2.91Z"/><rect class="cls-3" x="26.47" y="54.87" width="5.81" height="3.13"/><path class="cls-4" d="M31.78,55.37V57.5H27V55.37h4.81m1-1H26V58.5h6.81V54.37Z"/><path class="cls-3" d="M40.79,61.86s-1.25-6.06-1.27-6.14-1.23,6.14-1.23,6.14H33.71L31.22,48.21h4.14l.86,6.19.13,1.05.21-1.07,1.38-6.17h3.35l1.41,6.15c.07.34.14.68.2,1l.11-1,.88-6.2h3.92L45.44,61.86Z"/><path class="cls-4" d="M47.22,48.71,45,61.36H41.2l-1.14-5.51c-.2-1-.37-2-.49-2.94h-.09c-.15,1-.3,2-.49,2.94l-1.11,5.51H34.13L31.82,48.71h3.11l.79,5.76.51,4h.07c.24-1.34.5-2.7.75-4l1.29-5.76h2.55l1.33,5.76c.25,1.29.47,2.65.73,4H43c.16-1.36.33-2.7.48-4l.82-5.76h2.89m1.18-1H43.46l-.12.86-.56,3.9-.91-4-.18-.78H37.54l-.17.78-.91,4-.54-4-.12-.86H30.62l.21,1.18,2.31,12.65.15.82H38.7l.16-.81.67-3.32.69,3.33.16.8h5.48l.15-.83L48.2,48.88l.2-1.17Z"/><path class="cls-3" d="M54.61,61.86,52.29,57.4h-.66v4.46H47.58V48.21h5.14c4.51,0,5.45,2.43,5.45,4.48a4.29,4.29,0,0,1-2,3.85l3,5.32ZM52.49,54c1.53,0,1.71-.76,1.71-1.32s-.13-1.08-1.71-1.08h-.86V54Z"/><path class="cls-4" d="M52.72,48.71c2.71,0,5,.92,5,4a3.74,3.74,0,0,1-2.18,3.65l2.83,5h-3.4L52.59,56.9H51.13v4.46H48.08V48.71h4.64m-1.59,5.8h1.36c1.44,0,2.21-.63,2.21-1.82s-.77-1.58-2.21-1.58H51.13v3.4m1.59-6.8H47.08V62.36h5.05V58.18L54,61.82l.28.54H60l-.84-1.49-2.35-4.18a4.8,4.8,0,0,0,1.83-4c0-1.86-.77-5-6-5Zm-.59,4.4h.36c1.21,0,1.21.23,1.21.58s0,.82-1.21.82h-.36v-1.4Z"/></svg>