<svg id="레이어_1" data-name="레이어 1" xmlns="http://www.w3.org/2000/svg" xmlns:xlink="http://www.w3.org/1999/xlink" viewBox="0 0 64 64"><defs><style>.cls-1{fill:#4f5356;}.cls-2{fill:#434647;}.cls-3{fill:url(#무제_그라디언트_66);}.cls-4{fill:#fff;}.cls-5{fill:#e6e6e6;}</style><linearGradient id="무제_그라디언트_66" x1="24.1" y1="9.75" x2="53.46" y2="9.75" gradientUnits="userSpaceOnUse"><stop offset="0" stop-color="#d2d5da"/><stop offset="0.58" stop-color="#d4d7dc"/><stop offset="0.82" stop-color="#dbdee1"/><stop offset="1" stop-color="#e7e9eb"/></linearGradient></defs><title>media-floppy</title><path class="cls-1" d="M.2,61.23A2.77,2.77,0,0,0,3,64H61a2.77,2.77,0,0,0,2.76-2.77V9.79a2.76,2.76,0,0,0-.81-2l-7-7A2.76,2.76,0,0,0,54,0H3A2.77,2.77,0,0,0,.2,2.77Z"/><path class="cls-2" d="M49.61,19.65H13.67a3.14,3.14,0,0,1-3.13-3.14V0h1.73V16.51a1.41,1.41,0,0,0,1.4,1.41H49.61Z"/><path class="cls-3" d="M24.1,0H53.46a0,0,0,0,1,0,0V17.15A2.35,2.35,0,0,1,51.1,19.5H26.45a2.35,2.35,0,0,1-2.35-2.35V0A0,0,0,0,1,24.1,0Z"/><rect class="cls-1" x="43.37" y="4.29" width="5.83" height="11.21" rx="2.91" ry="2.91"/><rect class="cls-4" x="8.8" y="27.19" width="46.39" height="33.17" rx="1.66" ry="1.66"/><rect class="cls-5" x="12.5" y="37.78" width="39" height="1.54"/><rect class="cls-5" x="12.5" y="48.54" width="39" height="1.54"/></svg>