<svg id="레이어_1" data-name="레이어 1" xmlns="http://www.w3.org/2000/svg" xmlns:xlink="http://www.w3.org/1999/xlink" viewBox="0 0 64 64"><defs><style>.cls-1{fill:#ebecee;stroke:#d2d5da;stroke-miterlimit:10;}.cls-2{fill:url(#무제_그라디언트_108);}.cls-3{fill:#fff;}.cls-4{fill:#999;}</style><linearGradient id="무제_그라디언트_108" x1="16.09" y1="59.56" x2="47.29" y2="5.51" gradientUnits="userSpaceOnUse"><stop offset="0" stop-color="#d4d4d4"/><stop offset="0.34" stop-color="#75c0f6"/><stop offset="0.46" stop-color="#7a89dc"/><stop offset="0.57" stop-color="#7e57c4"/><stop offset="0.65" stop-color="#795cc7"/><stop offset="0.74" stop-color="#6c6bcf"/><stop offset="0.84" stop-color="#5683db"/><stop offset="0.95" stop-color="#38a5ed"/><stop offset="1" stop-color="#29b6f6"/></linearGradient></defs><title>media-dvd</title><path class="cls-1" d="M32,12.92A19.08,19.08,0,1,0,51.09,32,19.11,19.11,0,0,0,32,12.92Zm0,25.71A6.63,6.63,0,1,1,38.63,32,6.64,6.64,0,0,1,32,38.63Z"/><path class="cls-2" d="M32,0A32,32,0,1,0,64,32,32,32,0,0,0,32,0ZM16.79,32A15.21,15.21,0,1,1,32,47.21,15.22,15.22,0,0,1,16.79,32Z"/><path class="cls-3" d="M28.79,62.59l-4-11c0,.06,0,.11,0,.17a6.33,6.33,0,0,1-2.94,4.38,18.24,18.24,0,0,1-6.89,2.61,43.45,43.45,0,0,1-6.38.62l-.38,0c-.72,0-1.44,0-2.16,0H1.89l.21-.94c0-.26.1-.5.16-.74l.6-2.56c.51-2.13,1-4.27,1.52-6.4a.93.93,0,0,1,1-.81h6.19L9.79,55h.3a11.36,11.36,0,0,0,2.51-.23A7.35,7.35,0,0,0,16.4,53a3,3,0,0,0,1-2.87A2.39,2.39,0,0,0,16,48.42a5.44,5.44,0,0,0-2.48-.61H4.62s.62-2.65.76-3.23c.28-1.15.48-1.31,1.67-1.31H27.87A1.06,1.06,0,0,1,29,44.1c.74,2.45,1.49,4.89,2.25,7.34l.35,1.13L34,49.65c1.59-2,3.17-3.93,4.75-5.89a1.24,1.24,0,0,1,1-.51h6.87c1.64,0,3.27,0,4.9,0a14,14,0,0,1,6.31,1.36,6.89,6.89,0,0,1,4.06,5,5.67,5.67,0,0,1-.6,3.63,9.65,9.65,0,0,1-5,4.56,19,19,0,0,1-7.78,1.59H39.13s.29-1.35.34-1.55l2-8.43L32.92,59,30,62.3l-.36.43-.39.47Zm20.12-7.78a7,7,0,0,0,4.54-1.62,3.24,3.24,0,0,0,1.37-2.55,2.39,2.39,0,0,0-1.25-2.1,5,5,0,0,0-2.85-.83H43.25a.48.48,0,0,0-.44.19h5.13l.23,0,.54.08,0,.55-1.48,6.27Z"/><path class="cls-4" d="M46.62,43.74c1.64,0,3.27,0,4.91,0a13.83,13.83,0,0,1,6.09,1.3,6.47,6.47,0,0,1,3.79,4.61A5.33,5.33,0,0,1,60.85,53a9.14,9.14,0,0,1-4.77,4.31,18.46,18.46,0,0,1-7.57,1.55H39.75c.07-.34.14-.64.21-.93q1.09-4.64,2.18-9.25c.06-.22.13-.32.37-.32h5.43l.24,0c-.54,2.29-1.08,4.56-1.62,6.89h2.35a7.47,7.47,0,0,0,4.86-1.74,3.76,3.76,0,0,0,1.55-2.92,2.88,2.88,0,0,0-1.47-2.52,5.51,5.51,0,0,0-3.12-.92H43.24a1,1,0,0,0-.82.37Q36,54.77,29.65,62l-.36.44-.06-.07-5-13.59a20.11,20.11,0,0,1,0,2.91,5.83,5.83,0,0,1-2.72,4,17.57,17.57,0,0,1-6.7,2.54,45.61,45.61,0,0,1-6.69.63c-.72,0-1.43,0-2.15,0l-3.46,0c.08-.38.15-.72.23-1.06.71-3,1.43-6,2.13-9,.07-.33.2-.42.52-.42h5.55c-.6,2.39-1.19,4.72-1.79,7.09l.94,0a12.71,12.71,0,0,0,2.62-.24,7.94,7.94,0,0,0,4-2A3.51,3.51,0,0,0,17.89,50a2.89,2.89,0,0,0-1.64-2,6.1,6.1,0,0,0-2.71-.67H5.25c.21-.9.41-1.76.62-2.61s.22-.93,1.18-.93H27.88a.57.57,0,0,1,.66.5c.91,3,1.85,6,2.78,9l.11.3,2-2.5,5.66-7a.74.74,0,0,1,.64-.32h6.86m0-1H39.77a1.76,1.76,0,0,0-1.43.69q-2.3,2.87-4.6,5.71l-1.06,1.31-.86,1.07-.14-.45C31,48.71,30.21,46.33,29.5,44a1.55,1.55,0,0,0-1.62-1.21H7.05c-1.42,0-1.82.31-2.16,1.7l-.42,1.78-.2.83L4,48.3H4a3,3,0,0,0-.1.32c-.5,2.16-1,4.3-1.52,6.45l-.6,2.52c-.06.23-.11.47-.16.72l-.07.35-.27,1.22H6c.85,0,1.54,0,2.19,0l.38,0A43.45,43.45,0,0,0,15,59.21a18.8,18.8,0,0,0,7.07-2.69,7.28,7.28,0,0,0,2.77-3.27l.24.65,3.21,8.78.05.15.1.12.06.08.76,1,.79-1,.17-.21a2.59,2.59,0,0,0,.18-.21l2.67-3,7.45-8.4c-.32,1.37-.65,2.75-1,4.13L39,57.72c0,.2-.09.41-.14.62l-.07.32-.27,1.22h1.68l.1-1v1h8.24a19.32,19.32,0,0,0,8-1.64,10.05,10.05,0,0,0,5.25-4.79,6.22,6.22,0,0,0,.64-3.95,7.39,7.39,0,0,0-4.32-5.31,14.56,14.56,0,0,0-6.53-1.41c-1.44,0-2.95,0-4.92,0Zm1.2,11.57.22-.92,1.12-4.74.1-.45h1.46a4.47,4.47,0,0,1,2.57.75,1.89,1.89,0,0,1,1,1.68,2.72,2.72,0,0,1-1.19,2.16,6.53,6.53,0,0,1-4.22,1.51H47.82Zm-37.39.22L11,52.31l.92-3.63.1-.38h1.53a4.91,4.91,0,0,1,2.26.56,1.89,1.89,0,0,1,1.11,1.32,2.51,2.51,0,0,1-.86,2.41,6.89,6.89,0,0,1-3.55,1.72,10.32,10.32,0,0,1-2.07.21Z"/></svg>