<svg id="레이어_1" data-name="레이어 1" xmlns="http://www.w3.org/2000/svg" xmlns:xlink="http://www.w3.org/1999/xlink" viewBox="0 0 64 64"><defs><style>.cls-1{fill:#ebecee;stroke:#d2d5da;stroke-miterlimit:10;}.cls-2{fill:url(#무제_그라디언트_108);}.cls-3{fill:#7e57c4;}.cls-4{fill:#fff;}</style><linearGradient id="무제_그라디언트_108" x1="16.09" y1="59.56" x2="47.29" y2="5.51" gradientUnits="userSpaceOnUse"><stop offset="0" stop-color="#d4d4d4"/><stop offset="0.34" stop-color="#75c0f6"/><stop offset="0.46" stop-color="#7a89dc"/><stop offset="0.57" stop-color="#7e57c4"/><stop offset="0.65" stop-color="#795cc7"/><stop offset="0.74" stop-color="#6c6bcf"/><stop offset="0.84" stop-color="#5683db"/><stop offset="0.95" stop-color="#38a5ed"/><stop offset="1" stop-color="#29b6f6"/></linearGradient></defs><title>media-optical-audio</title><path class="cls-1" d="M32,12.92A19.08,19.08,0,1,0,51.09,32,19.11,19.11,0,0,0,32,12.92Zm0,25.71A6.63,6.63,0,1,1,38.63,32,6.64,6.64,0,0,1,32,38.63Z"/><path class="cls-2" d="M32,0A32,32,0,1,0,64,32,32,32,0,0,0,32,0ZM16.79,32A15.21,15.21,0,1,1,32,47.21,15.22,15.22,0,0,1,16.79,32Z"/><path class="cls-3" d="M58.23,63.5c-2.91,0-5.28-2-5.28-4.48s2.37-4.48,5.28-4.48a6.12,6.12,0,0,1,1.53.2V40.38a2,2,0,0,0-2-2H45.72a2,2,0,0,0-2,2V54.6h0c-.19,2.33-2.48,4.17-5.26,4.17s-5.28-2-5.28-4.48,2.37-4.48,5.28-4.48a5.83,5.83,0,0,1,1.6.22V38a6.52,6.52,0,0,1,6.51-6.51H56.94A6.52,6.52,0,0,1,63.45,38V58.64l0,0c0,.11,0,.22,0,.33C63.5,61.49,61.13,63.5,58.23,63.5Z"/><path class="cls-4" d="M56.94,32a6,6,0,0,1,6,6V58.64A2.47,2.47,0,0,1,63,59c0,2.2-2.14,4-4.77,4s-4.78-1.78-4.78-4,2.14-4,4.78-4a5.6,5.6,0,0,1,2,.39v-15a2.46,2.46,0,0,0-2.46-2.45H45.72a2.46,2.46,0,0,0-2.46,2.45V54.1h0c0,.07,0,.12,0,.19,0,2.2-2.14,4-4.77,4s-4.78-1.78-4.78-4,2.14-4,4.78-4a5.54,5.54,0,0,1,2.1.42V38a6,6,0,0,1,6-6H56.94m0-1H46.58a7,7,0,0,0-7,7V49.41a5.85,5.85,0,0,0-1.1-.1c-3.19,0-5.78,2.23-5.78,5s2.59,5,5.78,5a5.6,5.6,0,0,0,5.69-4.17h.06l0-1V40.38a1.46,1.46,0,0,1,1.46-1.45H57.8a1.46,1.46,0,0,1,1.46,1.45V54.13a6,6,0,0,0-1-.09,6.28,6.28,0,0,0-4,1.4A4.65,4.65,0,0,0,52.45,59c0,2.75,2.59,5,5.78,5S64,61.77,64,59a2.85,2.85,0,0,0,0-.41V38a7,7,0,0,0-7-7Z"/></svg>