<svg id="레이어_1" data-name="레이어 1" xmlns="http://www.w3.org/2000/svg" xmlns:xlink="http://www.w3.org/1999/xlink" viewBox="0 0 64 64"><defs><style>.cls-1{fill:#ebecee;stroke:#d2d5da;stroke-miterlimit:10;}.cls-2{fill:url(#무제_그라디언트_108);}.cls-3{fill:#fff;}.cls-4{fill:#999;}</style><linearGradient id="무제_그라디언트_108" x1="16.09" y1="59.56" x2="47.29" y2="5.51" gradientUnits="userSpaceOnUse"><stop offset="0" stop-color="#d4d4d4"/><stop offset="0.34" stop-color="#75c0f6"/><stop offset="0.46" stop-color="#7a89dc"/><stop offset="0.57" stop-color="#7e57c4"/><stop offset="0.65" stop-color="#795cc7"/><stop offset="0.74" stop-color="#6c6bcf"/><stop offset="0.84" stop-color="#5683db"/><stop offset="0.95" stop-color="#38a5ed"/><stop offset="1" stop-color="#29b6f6"/></linearGradient></defs><title>media-cdr</title><path class="cls-1" d="M32,12.92A19.08,19.08,0,1,0,51.09,32,19.11,19.11,0,0,0,32,12.92Zm0,25.71A6.63,6.63,0,1,1,38.63,32,6.64,6.64,0,0,1,32,38.63Z"/><path class="cls-2" d="M32,0A32,32,0,1,0,64,32,32,32,0,0,0,32,0ZM16.79,32A15.21,15.21,0,1,1,32,47.21,15.22,15.22,0,0,1,16.79,32Z"/><path class="cls-3" d="M18.33,62.1c-3.21,0-6.44-2.17-6.44-7S15.18,48,18.43,48a5.9,5.9,0,0,1,4.2,1.8l.31.32-2.22,2.69-.39-.35a2.59,2.59,0,0,0-1.85-.86C17,51.57,16,53,16,55c0,2.18.92,3.48,2.44,3.48a2.81,2.81,0,0,0,2-1l.39-.42,2.23,2.67-.27.32A5.8,5.8,0,0,1,18.33,62.1Z"/><path class="cls-4" d="M18.43,48.47a5.4,5.4,0,0,1,3.84,1.65l-1.6,1.94a3.13,3.13,0,0,0-2.19-1c-1.63,0-3,1.46-3,3.93s1.16,4,2.94,4a3.29,3.29,0,0,0,2.42-1.16l1.6,1.9a5.25,5.25,0,0,1-4.13,1.88c-3.22,0-5.94-2.21-5.94-6.5s2.83-6.63,6-6.63m0-1c-3.5,0-7,2.62-7,7.63,0,5.18,3.48,7.5,6.94,7.5a6.27,6.27,0,0,0,4.88-2.22l.56-.65-.55-.65-1.6-1.9-.73-.87-.77.83a2.25,2.25,0,0,1-1.68.84c-1.75,0-1.94-2.09-1.94-3,0-1.75.8-2.93,2-2.93A2.14,2.14,0,0,1,20,52.8l.78.71.67-.82L23,50.76l.57-.7L23,49.42a6.36,6.36,0,0,0-4.55-2Z"/><path class="cls-3" d="M23,61.86V48.21H27.1c4.45,0,6.91,2.4,6.91,6.76s-2.46,6.89-6.74,6.89Zm4-3.45c1.37,0,2.9-.46,2.9-3.44s-1.38-3.33-2.9-3.35Z"/><path class="cls-4" d="M27.1,48.71c3.86,0,6.41,1.85,6.41,6.26S31,61.36,27.27,61.36H23.46V48.71H27.1m-.6,10.2h.41c2,0,3.49-.94,3.49-3.94S29,51.12,26.91,51.12H26.5v7.79m.6-11.2H22.46V62.36h4.81c4.53,0,7.24-2.77,7.24-7.39s-2.7-7.26-7.41-7.26Zm.4,10.17V52.15c1.21.13,1.9.75,1.9,2.82s-.74,2.76-1.9,2.91Z"/><rect class="cls-3" x="33.89" y="54.87" width="5.81" height="3.13"/><path class="cls-4" d="M39.2,55.37V57.5H34.39V55.37H39.2m1-1H33.39V58.5H40.2V54.37Z"/><path class="cls-3" d="M47.19,61.86,44.87,57.4h-.66v4.46H40.16V48.21H45.3c4.51,0,5.45,2.43,5.45,4.48a4.29,4.29,0,0,1-2,3.85l3,5.32ZM45.07,54c1.53,0,1.71-.76,1.71-1.32s-.13-1.08-1.71-1.08h-.86V54Z"/><path class="cls-4" d="M45.3,48.71c2.71,0,5,.92,5,4a3.74,3.74,0,0,1-2.18,3.65l2.83,5H47.5L45.17,56.9H43.71v4.46H40.66V48.71H45.3m-1.59,5.8h1.36c1.44,0,2.21-.63,2.21-1.82s-.77-1.58-2.21-1.58H43.71v3.4m1.59-6.8H39.66V62.36h5.05V58.18l1.9,3.64.28.54h5.72l-.84-1.49-2.35-4.18a4.8,4.8,0,0,0,1.83-4c0-1.86-.77-5-6-5Zm-.59,4.4h.36c1.21,0,1.21.23,1.21.58s0,.82-1.21.82h-.36v-1.4Z"/></svg>