<svg id="레이어_1" data-name="레이어 1" xmlns="http://www.w3.org/2000/svg" xmlns:xlink="http://www.w3.org/1999/xlink" viewBox="0 0 64 64"><defs><style>.cls-1{fill:#ebecee;stroke:#d2d5da;stroke-miterlimit:10;}.cls-2{fill:url(#무제_그라디언트_108);}</style><linearGradient id="무제_그라디언트_108" x1="16.09" y1="59.56" x2="47.29" y2="5.51" gradientUnits="userSpaceOnUse"><stop offset="0" stop-color="#d4d4d4"/><stop offset="0.34" stop-color="#75c0f6"/><stop offset="0.46" stop-color="#7a89dc"/><stop offset="0.57" stop-color="#7e57c4"/><stop offset="0.65" stop-color="#795cc7"/><stop offset="0.74" stop-color="#6c6bcf"/><stop offset="0.84" stop-color="#5683db"/><stop offset="0.95" stop-color="#38a5ed"/><stop offset="1" stop-color="#29b6f6"/></linearGradient></defs><title>media-optical</title><path class="cls-1" d="M32,12.92A19.08,19.08,0,1,0,51.09,32,19.11,19.11,0,0,0,32,12.92Zm0,25.71A6.63,6.63,0,1,1,38.63,32,6.64,6.64,0,0,1,32,38.63Z"/><path class="cls-2" d="M32,0A32,32,0,1,0,64,32,32,32,0,0,0,32,0ZM16.79,32A15.21,15.21,0,1,1,32,47.21,15.22,15.22,0,0,1,16.79,32Z"/></svg>