<svg id="레이어_1" data-name="레이어 1" xmlns="http://www.w3.org/2000/svg" xmlns:xlink="http://www.w3.org/1999/xlink" viewBox="0 0 64 64"><defs><style>.cls-1{fill:#b7b9bc;}.cls-2{fill:url(#무제_그라디언트_74);}.cls-3{fill:url(#무제_그라디언트_78);}.cls-4{fill:#fff;}.cls-5{fill:url(#무제_그라디언트_72);}.cls-6{fill:url(#무제_그라디언트_72-2);}</style><linearGradient id="무제_그라디언트_74" x1="20.12" y1="63" x2="20.12" y2="0.86" gradientUnits="userSpaceOnUse"><stop offset="0" stop-color="#a1a6ad"/><stop offset="0.08" stop-color="#afb3b9"/><stop offset="0.23" stop-color="#c2c6cb"/><stop offset="0.41" stop-color="#d0d4d7"/><stop offset="0.62" stop-color="#d9dcdf"/><stop offset="1" stop-color="#dbdee1"/></linearGradient><linearGradient id="무제_그라디언트_78" x1="7.15" y1="3.99" x2="33.09" y2="29.93" gradientUnits="userSpaceOnUse"><stop offset="0" stop-color="#29b6f6"/><stop offset="1" stop-color="#5e7ad7"/></linearGradient><linearGradient id="무제_그라디언트_72" x1="47.15" y1="22.06" x2="47.15" y2="3.91" gradientUnits="userSpaceOnUse"><stop offset="0" stop-color="#a1a6ad"/><stop offset="0.33" stop-color="#b1b5bb"/><stop offset="0.98" stop-color="#d9dde0"/><stop offset="1" stop-color="#dbdee1"/></linearGradient><linearGradient id="무제_그라디언트_72-2" x1="59.36" y1="22.06" x2="59.36" y2="3.91" xlink:href="#무제_그라디언트_72"/></defs><title>multimedia-player</title><path class="cls-1" d="M53.73,63.14H49a5.6,5.6,0,0,1-5.59-5.59V31.64A2.48,2.48,0,0,0,41,29.17H38.34V27.43H41a4.22,4.22,0,0,1,4.21,4.21V57.55A3.85,3.85,0,0,0,49,61.39h4.72Z"/><path class="cls-1" d="M53.29,63.09a4.22,4.22,0,0,1-4.21-4.21V23.8h1.74V58.88a2.47,2.47,0,0,0,4.94,0V23.8H57.5V58.88A4.22,4.22,0,0,1,53.29,63.09Z"/><rect class="cls-2" y="0.86" width="40.25" height="62.14" rx="3.83" ry="3.83"/><rect class="cls-3" x="4.19" y="5.69" width="31.87" height="22.54" rx="2.16" ry="2.16"/><path class="cls-4" d="M20.28,38.64A6.34,6.34,0,1,1,14,45a6.34,6.34,0,0,1,6.33-6.33m0-5.26A11.6,11.6,0,1,0,31.87,45,11.59,11.59,0,0,0,20.28,33.38Z"/><path class="cls-5" d="M51.79,7.62c-.06-3.08-2.63-5.7-6.21-6.67a2.42,2.42,0,0,0-3.06,2.33v8.88a2.41,2.41,0,0,0,3,2.33,10.1,10.1,0,0,0,2.58-1.08v9.43a1.83,1.83,0,1,0,3.65,0V7.62Z"/><path class="cls-6" d="M54.73,7.62c.05-3.08,2.62-5.7,6.2-6.67A2.43,2.43,0,0,1,64,3.28v8.88a2.41,2.41,0,0,1-3,2.33,10.32,10.32,0,0,1-2.59-1.08v9.43a1.83,1.83,0,1,1-3.65,0V7.69S54.73,7.64,54.73,7.62Z"/></svg>