<svg id="레이어_1" data-name="레이어 1" xmlns="http://www.w3.org/2000/svg" xmlns:xlink="http://www.w3.org/1999/xlink" viewBox="0 0 64 64"><defs><style>.cls-1{fill:url(#무제_그라디언트_64);}.cls-2{fill:url(#무제_그라디언트_60);}.cls-3{fill:#fff;}.cls-4{fill:#b7b9bc;}</style><linearGradient id="무제_그라디언트_64" x1="32" y1="64" x2="32" gradientUnits="userSpaceOnUse"><stop offset="0" stop-color="#a1a6ad"/><stop offset="0.09" stop-color="#b6bac0"/><stop offset="0.19" stop-color="#c7cacf"/><stop offset="0.32" stop-color="#d2d6d9"/><stop offset="0.5" stop-color="#d9dcdf"/><stop offset="1" stop-color="#dbdee1"/></linearGradient><linearGradient id="무제_그라디언트_60" x1="12.05" y1="6.67" x2="51.95" y2="46.56" gradientUnits="userSpaceOnUse"><stop offset="0.18" stop-color="#29b6f6"/><stop offset="0.82" stop-color="#7e57c4"/></linearGradient></defs><title>pda</title><path class="cls-1" d="M10.94,55.44A5.14,5.14,0,0,0,13.75,60,40,40,0,0,0,32,64a40,40,0,0,0,18.25-4,5.14,5.14,0,0,0,2.81-4.56V5.1A5.1,5.1,0,0,0,48,0H16a5.1,5.1,0,0,0-5.1,5.1Z"/><rect class="cls-2" x="14.06" y="3.32" width="35.89" height="46.58" rx="2.28" ry="2.28"/><circle class="cls-3" cx="32" cy="57.14" r="3.65"/><path class="cls-4" d="M32,54a3.15,3.15,0,1,1-3.15,3.15A3.15,3.15,0,0,1,32,54m0-1a4.15,4.15,0,1,0,4.15,4.15A4.15,4.15,0,0,0,32,53Z"/><path class="cls-3" d="M26.38,58.69l-.21,0-2.85-.51a1.23,1.23,0,0,1-1-1.2V55a1.22,1.22,0,0,1,1.22-1.21h2.84A1.22,1.22,0,0,1,27.6,55v2.51a1.21,1.21,0,0,1-1.22,1.22Z"/><path class="cls-4" d="M26.38,54.25a.71.71,0,0,1,.72.71v2.51a.72.72,0,0,1-.72.72h-.12l-2.85-.51a.73.73,0,0,1-.59-.71V55a.71.71,0,0,1,.72-.71h2.84m0-1H23.54A1.72,1.72,0,0,0,21.82,55v2a1.72,1.72,0,0,0,1.42,1.69l2.84.51a1.53,1.53,0,0,0,.3,0,1.72,1.72,0,0,0,1.72-1.72V55a1.72,1.72,0,0,0-1.72-1.71Z"/><path class="cls-3" d="M20.94,57.71l-.21,0-2.84-.51a1.23,1.23,0,0,1-1-1.2V55a1.22,1.22,0,0,1,1.22-1.21h2.84A1.22,1.22,0,0,1,22.16,55v1.53a1.21,1.21,0,0,1-1.22,1.22Z"/><path class="cls-4" d="M20.94,54.25a.71.71,0,0,1,.72.71v1.53a.72.72,0,0,1-.72.72h-.12L18,56.69a.72.72,0,0,1-.59-.71V55a.72.72,0,0,1,.72-.71h2.84m0-1H18.1A1.72,1.72,0,0,0,16.38,55v1a1.72,1.72,0,0,0,1.42,1.69l2.84.51a1.53,1.53,0,0,0,.3,0,1.72,1.72,0,0,0,1.72-1.72V55a1.72,1.72,0,0,0-1.72-1.71Z"/><path class="cls-3" d="M37.62,58.69a1.22,1.22,0,0,1-1.22-1.22V55a1.22,1.22,0,0,1,1.22-1.21h2.84A1.22,1.22,0,0,1,41.68,55v2a1.23,1.23,0,0,1-1,1.2l-2.84.51Z"/><path class="cls-4" d="M40.46,54.25a.71.71,0,0,1,.72.71v2a.73.73,0,0,1-.59.71l-2.85.51h-.12a.72.72,0,0,1-.72-.72V55a.71.71,0,0,1,.72-.71h2.84m0-1H37.62A1.72,1.72,0,0,0,35.9,55v2.51a1.72,1.72,0,0,0,1.72,1.72,1.53,1.53,0,0,0,.3,0l2.84-.51A1.72,1.72,0,0,0,42.18,57V55a1.72,1.72,0,0,0-1.72-1.71Z"/><path class="cls-3" d="M43.06,57.71a1.22,1.22,0,0,1-1.22-1.22V55a1.22,1.22,0,0,1,1.22-1.21H45.9A1.22,1.22,0,0,1,47.12,55v1a1.23,1.23,0,0,1-1,1.2l-2.85.51Z"/><path class="cls-4" d="M45.9,54.25a.72.72,0,0,1,.72.71v1a.72.72,0,0,1-.59.71l-2.85.51h-.12a.72.72,0,0,1-.72-.72V55a.71.71,0,0,1,.72-.71H45.9m0-1H43.06A1.72,1.72,0,0,0,41.34,55v1.53a1.72,1.72,0,0,0,1.72,1.72,1.53,1.53,0,0,0,.3,0l2.84-.51A1.72,1.72,0,0,0,47.62,56V55a1.72,1.72,0,0,0-1.72-1.71Z"/></svg>