<svg id="레이어_1" data-name="레이어 1" xmlns="http://www.w3.org/2000/svg" xmlns:xlink="http://www.w3.org/1999/xlink" viewBox="0 0 64 64"><defs><style>.cls-1{fill:#dbdee1;}.cls-2{fill:#a1a6ad;}.cls-3{fill:url(#무제_그라디언트_78);}.cls-4{fill:url(#무제_그라디언트_78-2);}.cls-5{fill:url(#무제_그라디언트_72);}.cls-6{fill:#fff;}</style><linearGradient id="무제_그라디언트_78" x1="37.76" y1="30.64" x2="40.76" y2="51.15" gradientUnits="userSpaceOnUse"><stop offset="0" stop-color="#29b6f6"/><stop offset="1" stop-color="#5e7ad7"/></linearGradient><linearGradient id="무제_그라디언트_78-2" x1="21.77" y1="32.74" x2="24.76" y2="53.23" xlink:href="#무제_그라디언트_78"/><linearGradient id="무제_그라디언트_72" x1="55.38" y1="37.1" x2="20.73" y2="2.45" gradientUnits="userSpaceOnUse"><stop offset="0" stop-color="#a1a6ad"/><stop offset="0.33" stop-color="#b1b5bb"/><stop offset="0.98" stop-color="#d9dde0"/><stop offset="1" stop-color="#dbdee1"/></linearGradient></defs><title>scanner</title><polygon class="cls-1" points="28.14 55.53 0.15 41.13 35.86 26.95 63.85 41.35 28.14 55.53"/><path class="cls-2" d="M63.85,41.35,28.14,55.54.15,41.13V47A5.6,5.6,0,0,0,3.2,52L24.8,63.08a8.23,8.23,0,0,0,6.83.34L60.3,52a5.63,5.63,0,0,0,3.55-5.24Z"/><polygon class="cls-3" points="44.22 47 56.76 42.02 33.6 30.02 21.06 35 44.22 47"/><polygon class="cls-4" points="18.59 35.98 5.26 41.28 28.43 53.27 41.75 47.98 18.59 35.98"/><path class="cls-5" d="M44,13.39,18.35.18A1.59,1.59,0,0,0,17.14.07h0a1.6,1.6,0,0,0-.85,2.42l16.9,25.29,28,14.4,2.66-.83-17-25.46A7.48,7.48,0,0,0,44,13.39Z"/><ellipse class="cls-6" cx="24.82" cy="58.79" rx="1.33" ry="1.86" transform="translate(-13.7 7.91) rotate(-14.24)"/></svg>