
<svg xmlns="http://www.w3.org/2000/svg" xmlns:xlink="http://www.w3.org/1999/xlink" width="16px" height="16px" viewBox="0 0 16 16" version="1.1">
<defs>
<linearGradient id="linear0" gradientUnits="userSpaceOnUse" x1="-26.201" y1="1070.197998" x2="-26.201" y2="1082.581055" gradientTransform="matrix(0.177109,0,0,0.177109,8.7592,-187.59168)">
<stop offset="0" style="stop-color:rgb(47.058824%,85.09804%,99.215686%);stop-opacity:1;"/>
<stop offset="1" style="stop-color:rgb(48.235294%,87.058824%,100%);stop-opacity:1;"/>
</linearGradient>
<linearGradient id="linear1" gradientUnits="userSpaceOnUse" x1="-9.912" y1="1081.404053" x2="-9.912" y2="1139.777954" gradientTransform="matrix(0.177109,0,0,0.177109,8.7592,-187.59168)">
<stop offset="0" style="stop-color:rgb(20.784314%,79.215688%,98.823529%);stop-opacity:1;"/>
<stop offset="0.5" style="stop-color:rgb(31.37255%,83.137256%,100%);stop-opacity:1;"/>
<stop offset="1" style="stop-color:rgb(30.19608%,79.607844%,96.470588%);stop-opacity:1;"/>
</linearGradient>
<filter id="alpha" filterUnits="objectBoundingBox" x="0%" y="0%" width="100%" height="100%">
  <feColorMatrix type="matrix" in="SourceGraphic" values="0 0 0 0 1 0 0 0 0 1 0 0 0 0 1 0 0 0 1 0"/>
</filter>
<mask id="mask0">
  <g filter="url(#alpha)">
<rect x="0" y="0" width="16" height="16" style="fill:rgb(0%,0%,0%);fill-opacity:0.976;stroke:none;"/>
  </g>
</mask>
<clipPath id="clip1">
  <rect x="0" y="0" width="16" height="16"/>
</clipPath>
<g id="surface5" clip-path="url(#clip1)">
<path style=" stroke:none;fill-rule:nonzero;fill:rgb(23.137255%,75.686276%,94.509804%);fill-opacity:1;" d="M 0.253906 13.265625 L 0.253906 13.441406 L 15.828125 13.441406 L 15.828125 13.265625 Z M 0.253906 13.65625 L 0.253906 13.75 C 0.253906 13.78125 0.253906 13.808594 0.257812 13.835938 L 15.820312 13.835938 C 15.824219 13.808594 15.828125 13.78125 15.828125 13.75 L 15.828125 13.65625 Z M 0.253906 13.65625 "/>
</g>
<mask id="mask1">
  <g filter="url(#alpha)">
<rect x="0" y="0" width="16" height="16" style="fill:rgb(0%,0%,0%);fill-opacity:0.976;stroke:none;"/>
  </g>
</mask>
<linearGradient id="linear2" gradientUnits="userSpaceOnUse" x1="-9.617" y1="1138.385986" x2="-9.617" y2="1140.189941" gradientTransform="matrix(0.177109,0,0,0.177109,8.7592,-187.59168)">
<stop offset="0" style="stop-color:rgb(23.137255%,75.686276%,94.509804%);stop-opacity:1;"/>
<stop offset="1" style="stop-color:rgb(5.490196%,58.431375%,77.254903%);stop-opacity:1;"/>
</linearGradient>
<clipPath id="clip2">
  <rect x="0" y="0" width="16" height="16"/>
</clipPath>
<g id="surface8" clip-path="url(#clip2)">
<path style=" stroke:none;fill-rule:nonzero;fill:url(#linear2);" d="M 0.300781 13.988281 C 0.394531 14.199219 0.605469 14.332031 0.832031 14.332031 L 15.246094 14.332031 C 15.484375 14.332031 15.6875 14.191406 15.777344 13.988281 Z M 0.300781 13.988281 "/>
</g>
<linearGradient id="linear3" gradientUnits="userSpaceOnUse" x1="102.357002" y1="921.518982" x2="102.357002" y2="998.947021" gradientTransform="matrix(0.08,0,0,0.08,-0.0156,-67.7168)">
<stop offset="0" style="stop-color:rgb(1.176471%,71.372551%,92.54902%);stop-opacity:1;"/>
<stop offset="1" style="stop-color:rgb(7.450981%,75.294119%,96.862745%);stop-opacity:1;"/>
</linearGradient>
</defs>
<g id="surface1">
<path style=" stroke:none;fill-rule:nonzero;fill:url(#linear0);" d="M 0.832031 1.953125 L 4.75 1.953125 C 5.332031 1.953125 5.574219 3.203125 6.121094 3.203125 L 15.246094 3.203125 C 15.398438 3.203125 15.546875 3.265625 15.65625 3.375 C 15.765625 3.484375 15.828125 3.628906 15.824219 3.785156 L 15.824219 12.730469 C 15.824219 13.050781 15.566406 12.371094 15.246094 12.371094 L 0.832031 12.371094 C 0.675781 12.371094 0.527344 12.3125 0.421875 12.203125 C 0.3125 12.09375 0.25 11.945312 0.25 11.792969 L 0.25 2.53125 C 0.25 2.378906 0.3125 2.230469 0.421875 2.121094 C 0.527344 2.011719 0.675781 1.949219 0.832031 1.953125 Z M 0.832031 1.953125 "/>
<path style=" stroke:none;fill-rule:nonzero;fill:url(#linear1);" d="M 0.832031 3.914062 L 15.246094 3.914062 C 15.398438 3.910156 15.546875 3.972656 15.65625 4.082031 C 15.765625 4.191406 15.828125 4.339844 15.824219 4.492188 L 15.824219 13.753906 C 15.828125 13.90625 15.765625 14.054688 15.65625 14.164062 C 15.546875 14.273438 15.398438 14.332031 15.246094 14.332031 L 0.832031 14.332031 C 0.675781 14.332031 0.527344 14.273438 0.421875 14.164062 C 0.3125 14.054688 0.25 13.90625 0.25 13.753906 L 0.25 4.492188 C 0.25 4.339844 0.3125 4.191406 0.421875 4.082031 C 0.527344 3.972656 0.675781 3.910156 0.832031 3.914062 Z M 0.832031 3.914062 "/>
<use xlink:href="#surface5" mask="url(#mask0)"/>
<use xlink:href="#surface8" mask="url(#mask1)"/>
<path style=" stroke:none;fill-rule:nonzero;fill:url(#linear3);" d="M 5.585938 12.210938 L 8 10 C 8.824219 10.5 9.914062 10.398438 10.628906 9.683594 C 11.464844 8.84375 11.464844 7.484375 10.628906 6.644531 C 9.789062 5.804688 8.433594 5.8125 7.597656 6.652344 C 6.882812 7.363281 6.777344 8.449219 7.273438 9.273438 L 4.859375 11.484375 Z M 10.15625 7.117188 C 10.734375 7.691406 10.734375 8.632812 10.15625 9.210938 C 9.585938 9.78125 8.660156 9.78125 8.082031 9.222656 L 8.066406 9.207031 C 8.0625 9.199219 8.058594 9.195312 8.050781 9.191406 C 7.492188 8.613281 7.496094 7.691406 8.066406 7.121094 C 8.644531 6.542969 9.578125 6.539062 10.15625 7.117188 Z M 10.15625 7.117188 "/>
</g>
</svg>
