
<svg xmlns="http://www.w3.org/2000/svg" xmlns:xlink="http://www.w3.org/1999/xlink" width="16px" height="16px" viewBox="0 0 16 16" version="1.1">
<defs>
<linearGradient id="linear0" gradientUnits="userSpaceOnUse" x1="-4.071" y1="1070.199951" x2="-4.071" y2="1131.599976" gradientTransform="matrix(0.177112,0,0,0.177112,8.76,-187.591992)">
<stop offset="0" style="stop-color:rgb(47.058824%,76.47059%,99.215686%);stop-opacity:1;"/>
<stop offset="1" style="stop-color:rgb(48.235294%,77.64706%,100%);stop-opacity:1;"/>
</linearGradient>
<linearGradient id="linear1" gradientUnits="userSpaceOnUse" x1="-4.1916" y1="1096.699951" x2="-4.1916" y2="1140.099976" gradientTransform="matrix(0.177112,0,0,0.177112,8.76,-187.591992)">
<stop offset="0" style="stop-color:rgb(20.784314%,64.705884%,98.823529%);stop-opacity:1;"/>
<stop offset="0.5" style="stop-color:rgb(27.058825%,75.294119%,100%);stop-opacity:1;"/>
<stop offset="1" style="stop-color:rgb(30.19608%,67.450982%,96.470588%);stop-opacity:1;"/>
</linearGradient>
<filter id="alpha" filterUnits="objectBoundingBox" x="0%" y="0%" width="100%" height="100%">
  <feColorMatrix type="matrix" in="SourceGraphic" values="0 0 0 0 1 0 0 0 0 1 0 0 0 0 1 0 0 0 1 0"/>
</filter>
<mask id="mask0">
  <g filter="url(#alpha)">
<rect x="0" y="0" width="16" height="16" style="fill:rgb(0%,0%,0%);fill-opacity:0.1;stroke:none;"/>
  </g>
</mask>
<clipPath id="clip1">
  <rect x="0" y="0" width="16" height="16"/>
</clipPath>
<g id="surface5" clip-path="url(#clip1)">
<path style=" stroke:none;fill-rule:nonzero;fill:rgb(0%,0%,0%);fill-opacity:1;" d="M 0.253906 13.269531 L 0.253906 13.445312 L 15.828125 13.445312 L 15.828125 13.269531 Z M 0.253906 13.65625 L 0.253906 13.75 C 0.253906 13.78125 0.253906 13.808594 0.257812 13.835938 L 15.820312 13.835938 C 15.824219 13.808594 15.828125 13.78125 15.828125 13.75 L 15.828125 13.65625 Z M 0.253906 13.65625 "/>
</g>
<mask id="mask1">
  <g filter="url(#alpha)">
<rect x="0" y="0" width="16" height="16" style="fill:rgb(0%,0%,0%);fill-opacity:0.25;stroke:none;"/>
  </g>
</mask>
<linearGradient id="linear2" gradientUnits="userSpaceOnUse" x1="-4.0625" y1="1138.199951" x2="-4.0625" y2="1140.099976" gradientTransform="matrix(0.177112,0,0,0.177112,8.76,-187.591992)">
<stop offset="0" style="stop-color:rgb(0%,0%,0%);stop-opacity:0.046784;"/>
<stop offset="1" style="stop-color:rgb(0%,0%,0%);stop-opacity:1;"/>
</linearGradient>
<clipPath id="clip2">
  <rect x="0" y="0" width="16" height="16"/>
</clipPath>
<g id="surface8" clip-path="url(#clip2)">
<path style=" stroke:none;fill-rule:nonzero;fill:url(#linear2);" d="M 0.304688 13.996094 C 0.398438 14.207031 0.605469 14.339844 0.835938 14.339844 L 15.246094 14.339844 C 15.484375 14.339844 15.6875 14.199219 15.777344 13.996094 Z M 0.304688 13.996094 "/>
</g>
</defs>
<g id="surface1">
<path style=" stroke:none;fill-rule:nonzero;fill:url(#linear0);" d="M 0.832031 1.953125 L 4.75 1.953125 C 5.332031 1.953125 5.574219 3.207031 6.121094 3.207031 L 15.246094 3.207031 C 15.398438 3.207031 15.546875 3.265625 15.65625 3.375 C 15.765625 3.484375 15.828125 3.632812 15.828125 3.785156 L 15.828125 12.734375 C 15.828125 13.054688 15.566406 12.375 15.246094 12.375 L 0.832031 12.375 C 0.679688 12.375 0.53125 12.3125 0.421875 12.203125 C 0.3125 12.097656 0.25 11.949219 0.25 11.792969 L 0.25 2.535156 C 0.25 2.378906 0.3125 2.234375 0.421875 2.125 C 0.53125 2.015625 0.679688 1.953125 0.832031 1.953125 Z M 0.832031 1.953125 "/>
<path style=" stroke:none;fill-rule:nonzero;fill:url(#linear1);" d="M 0.636719 6.648438 L 15.398438 6.648438 C 15.71875 6.648438 15.984375 6.839844 15.976562 7.074219 L 15.828125 13.90625 C 15.820312 14.144531 15.566406 14.335938 15.246094 14.335938 L 0.832031 14.335938 C 0.511719 14.335938 0.257812 14.144531 0.25 13.90625 L 0.0585938 7.074219 C 0.0507812 6.839844 0.316406 6.648438 0.636719 6.648438 Z M 0.636719 6.648438 "/>
<use xlink:href="#surface5" mask="url(#mask0)"/>
<use xlink:href="#surface8" mask="url(#mask1)"/>
</g>
</svg>
