
<svg xmlns="http://www.w3.org/2000/svg" xmlns:xlink="http://www.w3.org/1999/xlink" width="16px" height="16px" viewBox="0 0 16 16" version="1.1">
<defs>
<linearGradient id="linear0" gradientUnits="userSpaceOnUse" x1="32" y1="3.8" x2="32" y2="23.49" gradientTransform="matrix(0.25,0,0,0.25,0,0)">
<stop offset="0" style="stop-color:rgb(16.078432%,71.372551%,96.470588%);stop-opacity:1;"/>
<stop offset="0.67" style="stop-color:rgb(39.607844%,45.09804%,82.745099%);stop-opacity:1;"/>
<stop offset="1" style="stop-color:rgb(49.411765%,34.117648%,76.862746%);stop-opacity:1;"/>
</linearGradient>
<linearGradient id="linear1" gradientUnits="userSpaceOnUse" x1="32" y1="60.900002" x2="32" y2="18.719999" gradientTransform="matrix(0.25,0,0,0.25,0,0)">
<stop offset="0" style="stop-color:rgb(86.274511%,87.058824%,88.627452%);stop-opacity:1;"/>
<stop offset="0.57" style="stop-color:rgb(87.058824%,87.843138%,89.411765%);stop-opacity:1;"/>
<stop offset="0.81" style="stop-color:rgb(89.803922%,90.588236%,91.764706%);stop-opacity:1;"/>
<stop offset="0.99" style="stop-color:rgb(94.901961%,95.294118%,95.686275%);stop-opacity:1;"/>
<stop offset="1" style="stop-color:rgb(95.294118%,95.686275%,96.078432%);stop-opacity:1;"/>
</linearGradient>
<linearGradient id="linear2" gradientUnits="userSpaceOnUse" x1="32" y1="49.650002" x2="32" y2="33.139999" gradientTransform="matrix(0.25,0,0,0.25,0,0)">
<stop offset="0" style="stop-color:rgb(75.294119%,75.294119%,75.294119%);stop-opacity:1;"/>
<stop offset="1" style="stop-color:rgb(55.686277%,55.686277%,55.686277%);stop-opacity:1;"/>
</linearGradient>
<linearGradient id="linear3" gradientUnits="userSpaceOnUse" x1="25.940001" y1="49.650002" x2="25.940001" y2="33.139999" gradientTransform="matrix(0.25,0,0,0.25,0,0)">
<stop offset="0" style="stop-color:rgb(75.294119%,75.294119%,75.294119%);stop-opacity:1;"/>
<stop offset="1" style="stop-color:rgb(55.686277%,55.686277%,55.686277%);stop-opacity:1;"/>
</linearGradient>
<linearGradient id="linear4" gradientUnits="userSpaceOnUse" x1="25.940001" y1="49.650002" x2="25.940001" y2="33.139999" gradientTransform="matrix(0.25,0,0,0.25,0,0)">
<stop offset="0" style="stop-color:rgb(75.294119%,75.294119%,75.294119%);stop-opacity:1;"/>
<stop offset="1" style="stop-color:rgb(55.686277%,55.686277%,55.686277%);stop-opacity:1;"/>
</linearGradient>
<linearGradient id="linear5" gradientUnits="userSpaceOnUse" x1="25.940001" y1="49.650002" x2="25.940001" y2="33.139999" gradientTransform="matrix(0.25,0,0,0.25,0,0)">
<stop offset="0" style="stop-color:rgb(75.294119%,75.294119%,75.294119%);stop-opacity:1;"/>
<stop offset="1" style="stop-color:rgb(55.686277%,55.686277%,55.686277%);stop-opacity:1;"/>
</linearGradient>
<linearGradient id="linear6" gradientUnits="userSpaceOnUse" x1="25.940001" y1="49.650002" x2="25.940001" y2="33.139999" gradientTransform="matrix(0.25,0,0,0.25,0,0)">
<stop offset="0" style="stop-color:rgb(75.294119%,75.294119%,75.294119%);stop-opacity:1;"/>
<stop offset="1" style="stop-color:rgb(55.686277%,55.686277%,55.686277%);stop-opacity:1;"/>
</linearGradient>
</defs>
<g id="surface1">
<path style=" stroke:none;fill-rule:nonzero;fill:url(#linear0);" d="M 16 5.328125 C 16 4.621094 15.425781 4.046875 14.71875 4.046875 L 10.363281 4.046875 C 9.472656 4.046875 8.746094 3.335938 8.726562 2.445312 C 8.742188 1.539062 8.019531 0.792969 7.113281 0.773438 L 0.84375 0.773438 C 0.378906 0.773438 0 1.152344 0 1.621094 L 0 5.855469 L 16 5.855469 Z M 16 5.328125 "/>
<path style=" stroke:none;fill-rule:nonzero;fill:url(#linear1);" d="M 14.71875 4.679688 L 1.28125 4.679688 C 0.574219 4.679688 0 5.253906 0 5.960938 L 0 13.945312 C 0 14.652344 0.574219 15.226562 1.28125 15.226562 L 14.71875 15.226562 C 15.425781 15.226562 16 14.652344 16 13.945312 L 16 5.960938 C 16 5.253906 15.425781 4.679688 14.71875 4.679688 Z M 14.71875 4.679688 "/>
<path style=" stroke:none;fill-rule:nonzero;fill:url(#linear2);" d="M 11.191406 8.417969 C 10.910156 8.304688 10.621094 8.214844 10.324219 8.148438 L 10.324219 6.898438 C 10.324219 6.851562 10.300781 6.804688 10.265625 6.777344 C 10.226562 6.746094 10.179688 6.730469 10.132812 6.742188 C 8.964844 6.949219 8.171875 7.992188 7.933594 8.355469 C 6.03125 7.636719 4.828125 8.390625 4.78125 8.421875 C 4.734375 8.453125 4.703125 8.503906 4.703125 8.558594 L 4.703125 12.414062 C 4.707031 12.472656 4.738281 12.527344 4.789062 12.554688 C 4.84375 12.582031 4.90625 12.582031 4.953125 12.554688 C 4.953125 12.554688 6.121094 11.828125 7.933594 12.554688 L 8.050781 12.554688 C 8.050781 12.554688 9.21875 11.828125 11.03125 12.554688 C 11.050781 12.5625 11.074219 12.566406 11.09375 12.566406 C 11.128906 12.566406 11.160156 12.554688 11.183594 12.539062 C 11.230469 12.507812 11.257812 12.457031 11.257812 12.402344 L 11.257812 8.570312 C 11.265625 8.511719 11.242188 8.457031 11.191406 8.417969 Z M 7.835938 12.167969 C 7.355469 11.992188 6.851562 11.898438 6.335938 11.894531 C 5.890625 11.890625 5.453125 11.976562 5.039062 12.144531 L 5.039062 8.667969 C 5.316406 8.527344 6.347656 8.109375 7.84375 8.683594 Z M 10.96875 12.167969 C 10.488281 11.992188 9.980469 11.898438 9.46875 11.894531 C 9.128906 11.890625 8.792969 11.9375 8.46875 12.03125 C 8.816406 11.617188 9.414062 11.042969 10.183594 10.910156 C 10.261719 10.898438 10.324219 10.832031 10.324219 10.75 L 10.324219 8.5 C 10.542969 8.546875 10.757812 8.613281 10.96875 8.695312 Z M 10.96875 12.167969 "/>
<path style=" stroke:none;fill-rule:nonzero;fill:url(#linear3);" d="M 5.460938 9.019531 C 5.378906 9.058594 5.339844 9.152344 5.378906 9.234375 C 5.414062 9.316406 5.511719 9.355469 5.59375 9.316406 C 6.179688 9.121094 6.816406 9.148438 7.378906 9.398438 C 7.402344 9.40625 7.421875 9.40625 7.441406 9.398438 C 7.511719 9.390625 7.5625 9.335938 7.578125 9.269531 C 7.589844 9.203125 7.558594 9.136719 7.5 9.101562 C 6.855469 8.808594 6.125 8.78125 5.460938 9.019531 Z M 5.460938 9.019531 "/>
<path style=" stroke:none;fill-rule:nonzero;fill:url(#linear4);" d="M 7.5 9.832031 C 6.855469 9.539062 6.125 9.511719 5.460938 9.75 C 5.421875 9.765625 5.390625 9.800781 5.375 9.839844 C 5.359375 9.878906 5.359375 9.925781 5.378906 9.964844 C 5.417969 10.046875 5.511719 10.082031 5.59375 10.046875 C 6.175781 9.847656 6.816406 9.875 7.378906 10.128906 C 7.398438 10.136719 7.421875 10.140625 7.441406 10.144531 C 7.507812 10.144531 7.570312 10.101562 7.59375 10.039062 C 7.625 9.957031 7.582031 9.867188 7.5 9.832031 Z M 7.5 9.832031 "/>
<path style=" stroke:none;fill-rule:nonzero;fill:url(#linear5);" d="M 7.5 10.566406 C 6.855469 10.28125 6.125 10.257812 5.460938 10.5 C 5.378906 10.535156 5.339844 10.632812 5.378906 10.714844 C 5.414062 10.796875 5.511719 10.832031 5.59375 10.796875 C 6.179688 10.601562 6.816406 10.628906 7.378906 10.882812 C 7.398438 10.890625 7.421875 10.894531 7.441406 10.894531 C 7.53125 10.910156 7.617188 10.851562 7.636719 10.757812 C 7.652344 10.667969 7.589844 10.582031 7.5 10.566406 Z M 7.5 10.566406 "/>
<path style=" stroke:none;fill-rule:nonzero;fill:url(#linear6);" d="M 7.5 11.300781 C 6.855469 11.007812 6.121094 10.980469 5.453125 11.222656 C 5.414062 11.242188 5.386719 11.273438 5.367188 11.3125 C 5.355469 11.351562 5.355469 11.398438 5.371094 11.4375 C 5.410156 11.519531 5.503906 11.554688 5.585938 11.519531 C 6.171875 11.320312 6.8125 11.351562 7.375 11.601562 C 7.394531 11.613281 7.417969 11.617188 7.4375 11.617188 C 7.503906 11.617188 7.5625 11.574219 7.585938 11.515625 C 7.621094 11.433594 7.582031 11.335938 7.5 11.300781 Z M 7.5 11.300781 "/>
</g>
</svg>
