
<svg xmlns="http://www.w3.org/2000/svg" xmlns:xlink="http://www.w3.org/1999/xlink" width="16px" height="16px" viewBox="0 0 16 16" version="1.1">
<defs>
<linearGradient id="linear0" gradientUnits="userSpaceOnUse" x1="9.93" y1="13.99" x2="54.07" y2="58.13" gradientTransform="matrix(0.25,0,0,0.25,0,0)">
<stop offset="0" style="stop-color:rgb(86.27451%,87.058824%,88.627451%);stop-opacity:1;"/>
<stop offset="1" style="stop-color:rgb(55.686275%,55.686275%,55.686275%);stop-opacity:1;"/>
</linearGradient>
</defs>
<g id="surface1">
<path style=" stroke:none;fill-rule:nonzero;fill:url(#linear0);" d="M 11.648438 15.585938 C 11.332031 15.585938 11.015625 15.507812 10.734375 15.359375 L 8.3125 14.085938 C 8.117188 13.980469 7.882812 13.980469 7.6875 14.085938 L 5.265625 15.359375 C 4.605469 15.707031 3.800781 15.648438 3.195312 15.207031 C 2.589844 14.765625 2.285156 14.019531 2.410156 13.28125 L 2.871094 10.585938 C 2.90625 10.371094 2.835938 10.152344 2.679688 10 L 0.722656 8.082031 C 0.183594 7.558594 -0.0078125 6.777344 0.222656 6.066406 C 0.453125 5.351562 1.070312 4.832031 1.8125 4.726562 L 4.519531 4.332031 C 4.738281 4.296875 4.921875 4.160156 5.019531 3.964844 L 6.234375 1.511719 C 6.5625 0.839844 7.246094 0.414062 7.996094 0.414062 C 8.746094 0.414062 9.429688 0.839844 9.761719 1.511719 L 10.976562 3.964844 C 11.070312 4.160156 11.257812 4.296875 11.476562 4.332031 L 14.1875 4.726562 C 14.929688 4.832031 15.546875 5.351562 15.777344 6.066406 C 16.007812 6.777344 15.816406 7.558594 15.277344 8.082031 L 13.320312 10 C 13.164062 10.152344 13.089844 10.375 13.128906 10.59375 L 13.589844 13.289062 C 13.6875 13.863281 13.527344 14.449219 13.15625 14.890625 C 12.78125 15.335938 12.230469 15.59375 11.648438 15.59375 Z M 11.648438 15.585938 "/>
<path style=" stroke:none;fill-rule:nonzero;fill:rgb(77.647059%,78.823529%,80%);fill-opacity:1;" d="M 8 0.539062 C 8.703125 0.539062 9.34375 0.9375 9.65625 1.566406 L 10.863281 4.019531 C 10.980469 4.253906 11.203125 4.417969 11.460938 4.453125 L 14.171875 4.847656 C 14.867188 4.949219 15.445312 5.4375 15.660156 6.105469 C 15.878906 6.773438 15.695312 7.507812 15.191406 8 L 13.234375 9.90625 C 13.042969 10.089844 12.957031 10.351562 13 10.609375 L 13.460938 13.300781 C 13.582031 13.996094 13.300781 14.695312 12.734375 15.109375 C 12.164062 15.523438 11.410156 15.578125 10.789062 15.25 L 8.371094 13.976562 C 8.136719 13.847656 7.855469 13.847656 7.621094 13.976562 L 5.210938 15.25 C 4.945312 15.390625 4.648438 15.460938 4.351562 15.460938 C 3.804688 15.460938 3.292969 15.222656 2.941406 14.804688 C 2.589844 14.390625 2.441406 13.839844 2.53125 13.304688 L 3 10.609375 C 3.046875 10.347656 2.960938 10.085938 2.773438 9.902344 L 0.808594 8 C 0.304688 7.507812 0.121094 6.773438 0.339844 6.105469 C 0.554688 5.4375 1.132812 4.949219 1.828125 4.847656 L 4.539062 4.453125 C 4.796875 4.417969 5.019531 4.253906 5.136719 4.019531 L 6.34375 1.566406 C 6.65625 0.9375 7.296875 0.539062 8 0.539062 M 8 0.289062 C 7.203125 0.285156 6.472656 0.742188 6.121094 1.457031 L 4.914062 3.910156 C 4.832031 4.070312 4.679688 4.183594 4.5 4.207031 L 1.796875 4.601562 C 1.007812 4.714844 0.351562 5.269531 0.105469 6.027344 C -0.140625 6.785156 0.0664062 7.617188 0.636719 8.171875 L 2.59375 10.082031 C 2.722656 10.207031 2.78125 10.386719 2.75 10.566406 L 2.289062 13.25 C 2.144531 14.039062 2.464844 14.839844 3.113281 15.308594 C 3.757812 15.78125 4.617188 15.84375 5.324219 15.46875 L 7.75 14.195312 C 7.90625 14.113281 8.09375 14.113281 8.25 14.195312 L 10.671875 15.46875 C 11.378906 15.839844 12.238281 15.777344 12.882812 15.308594 C 13.53125 14.835938 13.851562 14.039062 13.710938 13.25 L 13.25 10.566406 C 13.21875 10.386719 13.277344 10.207031 13.40625 10.082031 L 15.363281 8.171875 C 15.933594 7.617188 16.140625 6.785156 15.894531 6.027344 C 15.648438 5.269531 14.992188 4.714844 14.203125 4.601562 L 11.5 4.207031 C 11.320312 4.183594 11.167969 4.070312 11.085938 3.910156 L 9.878906 1.457031 C 9.527344 0.742188 8.796875 0.285156 8 0.289062 Z M 8 0.289062 "/>
</g>
</svg>
