
<svg xmlns="http://www.w3.org/2000/svg" xmlns:xlink="http://www.w3.org/1999/xlink" width="16px" height="16px" viewBox="0 0 16 16" version="1.1">
<defs>
<linearGradient id="linear0" gradientUnits="userSpaceOnUse" x1="32" y1="3.8" x2="32" y2="23.49" gradientTransform="matrix(0.25,0,0,0.25,0,0)">
<stop offset="0" style="stop-color:rgb(16.078432%,71.372551%,96.470588%);stop-opacity:1;"/>
<stop offset="0.67" style="stop-color:rgb(39.607844%,45.09804%,82.745099%);stop-opacity:1;"/>
<stop offset="1" style="stop-color:rgb(49.411765%,34.117648%,76.862746%);stop-opacity:1;"/>
</linearGradient>
<linearGradient id="linear1" gradientUnits="userSpaceOnUse" x1="32" y1="60.900002" x2="32" y2="18.719999" gradientTransform="matrix(0.25,0,0,0.25,0,0)">
<stop offset="0" style="stop-color:rgb(86.274511%,87.058824%,88.627452%);stop-opacity:1;"/>
<stop offset="0.57" style="stop-color:rgb(87.058824%,87.843138%,89.411765%);stop-opacity:1;"/>
<stop offset="0.81" style="stop-color:rgb(89.803922%,90.588236%,91.764706%);stop-opacity:1;"/>
<stop offset="0.99" style="stop-color:rgb(94.901961%,95.294118%,95.686275%);stop-opacity:1;"/>
<stop offset="1" style="stop-color:rgb(95.294118%,95.686275%,96.078432%);stop-opacity:1;"/>
</linearGradient>
<linearGradient id="linear2" gradientUnits="userSpaceOnUse" x1="29.32" y1="51.810001" x2="29.32" y2="28.379999" gradientTransform="matrix(0.25,0,0,0.25,0,0)">
<stop offset="0" style="stop-color:rgb(75.294119%,75.294119%,75.294119%);stop-opacity:1;"/>
<stop offset="1" style="stop-color:rgb(55.686277%,55.686277%,55.686277%);stop-opacity:1;"/>
</linearGradient>
<linearGradient id="linear3" gradientUnits="userSpaceOnUse" x1="30.58" y1="51.810001" x2="30.58" y2="28.379999" gradientTransform="matrix(0.25,0,0,0.25,0,0)">
<stop offset="0" style="stop-color:rgb(75.294119%,75.294119%,75.294119%);stop-opacity:1;"/>
<stop offset="1" style="stop-color:rgb(55.686277%,55.686277%,55.686277%);stop-opacity:1;"/>
</linearGradient>
<linearGradient id="linear4" gradientUnits="userSpaceOnUse" x1="33.419998" y1="51.810001" x2="33.419998" y2="28.379999" gradientTransform="matrix(0.25,0,0,0.25,0,0)">
<stop offset="0" style="stop-color:rgb(75.294119%,75.294119%,75.294119%);stop-opacity:1;"/>
<stop offset="1" style="stop-color:rgb(55.686277%,55.686277%,55.686277%);stop-opacity:1;"/>
</linearGradient>
<linearGradient id="linear5" gradientUnits="userSpaceOnUse" x1="33.59" y1="51.810001" x2="33.59" y2="28.379999" gradientTransform="matrix(0.25,0,0,0.25,0,0)">
<stop offset="0" style="stop-color:rgb(75.294119%,75.294119%,75.294119%);stop-opacity:1;"/>
<stop offset="1" style="stop-color:rgb(55.686277%,55.686277%,55.686277%);stop-opacity:1;"/>
</linearGradient>
<linearGradient id="linear6" gradientUnits="userSpaceOnUse" x1="27.57" y1="51.810001" x2="27.57" y2="28.379999" gradientTransform="matrix(0.25,0,0,0.25,0,0)">
<stop offset="0" style="stop-color:rgb(75.294119%,75.294119%,75.294119%);stop-opacity:1;"/>
<stop offset="1" style="stop-color:rgb(55.686277%,55.686277%,55.686277%);stop-opacity:1;"/>
</linearGradient>
<linearGradient id="linear7" gradientUnits="userSpaceOnUse" x1="26.59" y1="40.560001" x2="35.310001" y2="40.560001" gradientTransform="matrix(0.25,0,0,0.25,0,0)">
<stop offset="0" style="stop-color:rgb(75.294119%,75.294119%,75.294119%);stop-opacity:1;"/>
<stop offset="1" style="stop-color:rgb(55.686277%,55.686277%,55.686277%);stop-opacity:1;"/>
</linearGradient>
</defs>
<g id="surface1">
<path style=" stroke:none;fill-rule:nonzero;fill:url(#linear0);" d="M 16 5.328125 C 16 4.621094 15.425781 4.046875 14.71875 4.046875 L 10.363281 4.046875 C 9.472656 4.046875 8.746094 3.335938 8.726562 2.445312 C 8.742188 1.539062 8.019531 0.792969 7.113281 0.773438 L 0.84375 0.773438 C 0.378906 0.773438 0 1.152344 0 1.621094 L 0 5.855469 L 16 5.855469 Z M 16 5.328125 "/>
<path style=" stroke:none;fill-rule:nonzero;fill:url(#linear1);" d="M 14.71875 4.679688 L 1.28125 4.679688 C 0.574219 4.679688 0 5.253906 0 5.960938 L 0 13.945312 C 0 14.652344 0.574219 15.226562 1.28125 15.226562 L 14.71875 15.226562 C 15.425781 15.226562 16 14.652344 16 13.945312 L 16 5.960938 C 16 5.253906 15.425781 4.679688 14.71875 4.679688 Z M 14.71875 4.679688 "/>
<path style=" stroke:none;fill-rule:nonzero;fill:url(#linear2);" d="M 7.214844 7.234375 C 7.121094 7.234375 7.042969 7.308594 7.042969 7.40625 C 7.042969 7.5 7.121094 7.578125 7.214844 7.578125 L 7.617188 7.578125 C 7.605469 7.519531 7.601562 7.464844 7.601562 7.40625 C 7.601562 7.347656 7.605469 7.289062 7.617188 7.234375 Z M 7.214844 7.234375 "/>
<path style=" stroke:none;fill-rule:nonzero;fill:url(#linear3);" d="M 9.792969 12.351562 L 9.792969 7.40625 C 9.792969 7.308594 9.71875 7.234375 9.621094 7.234375 L 8.71875 7.234375 C 8.625 7.234375 8.546875 7.308594 8.546875 7.40625 C 8.546875 7.5 8.625 7.578125 8.71875 7.578125 L 9.449219 7.578125 L 9.449219 12.179688 L 5.839844 12.179688 L 5.839844 7.578125 L 6.109375 7.578125 C 6.101562 7.519531 6.097656 7.464844 6.097656 7.40625 C 6.097656 7.347656 6.101562 7.289062 6.109375 7.234375 L 5.667969 7.234375 C 5.574219 7.234375 5.496094 7.308594 5.496094 7.40625 L 5.496094 12.351562 C 5.496094 12.394531 5.511719 12.4375 5.546875 12.472656 C 5.578125 12.503906 5.621094 12.519531 5.667969 12.519531 L 9.621094 12.519531 C 9.667969 12.519531 9.710938 12.503906 9.746094 12.472656 C 9.777344 12.4375 9.792969 12.394531 9.792969 12.351562 Z M 9.792969 12.351562 "/>
<path style=" stroke:none;fill-rule:nonzero;fill:url(#linear4);" d="M 10.332031 7.941406 C 10.238281 7.941406 10.160156 8.019531 10.160156 8.117188 L 10.160156 12.886719 L 6.378906 12.886719 C 6.332031 12.886719 6.289062 12.90625 6.257812 12.9375 C 6.222656 12.96875 6.203125 13.011719 6.203125 13.058594 C 6.203125 13.152344 6.28125 13.230469 6.378906 13.230469 L 10.332031 13.230469 C 10.429688 13.230469 10.503906 13.152344 10.503906 13.058594 L 10.503906 8.117188 C 10.503906 8.019531 10.429688 7.941406 10.332031 7.941406 Z M 10.332031 7.941406 "/>
<path style=" stroke:none;fill-rule:nonzero;fill:url(#linear5);" d="M 8.71875 8.222656 C 8.816406 8.222656 8.894531 8.144531 8.894531 8.050781 C 8.894531 7.953125 8.816406 7.878906 8.71875 7.878906 C 8.527344 7.875 8.351562 7.757812 8.28125 7.578125 C 8.257812 7.523438 8.25 7.464844 8.246094 7.40625 C 8.25 7.347656 8.257812 7.289062 8.28125 7.234375 C 8.351562 7.050781 8.527344 6.933594 8.71875 6.933594 C 8.816406 6.933594 8.894531 6.855469 8.894531 6.761719 C 8.894531 6.664062 8.816406 6.585938 8.71875 6.585938 C 8.269531 6.59375 7.90625 6.953125 7.902344 7.40625 C 7.902344 7.464844 7.910156 7.519531 7.921875 7.578125 C 8.003906 7.953125 8.335938 8.222656 8.71875 8.222656 Z M 8.71875 8.222656 "/>
<path style=" stroke:none;fill-rule:nonzero;fill:url(#linear6);" d="M 7.214844 8.222656 C 7.308594 8.222656 7.386719 8.144531 7.386719 8.050781 C 7.386719 7.953125 7.308594 7.878906 7.214844 7.878906 C 7.019531 7.875 6.847656 7.757812 6.773438 7.578125 C 6.753906 7.523438 6.742188 7.464844 6.742188 7.40625 C 6.742188 7.347656 6.753906 7.289062 6.773438 7.234375 C 6.847656 7.050781 7.019531 6.933594 7.214844 6.933594 C 7.308594 6.933594 7.386719 6.855469 7.386719 6.761719 C 7.386719 6.664062 7.308594 6.585938 7.214844 6.585938 C 6.765625 6.59375 6.402344 6.953125 6.398438 7.40625 C 6.398438 7.464844 6.40625 7.519531 6.417969 7.578125 C 6.5 7.953125 6.832031 8.222656 7.214844 8.222656 Z M 7.214844 8.222656 "/>
<path style=" stroke:none;fill-rule:nonzero;fill:url(#linear7);" d="M 8.59375 11.304688 C 8.515625 11.304688 8.441406 11.289062 8.371094 11.257812 C 8.316406 11.234375 8.265625 11.195312 8.230469 11.144531 C 8.191406 11.089844 8.164062 11.03125 8.148438 10.964844 C 8.132812 10.890625 8.128906 10.8125 8.128906 10.738281 L 8.128906 10.308594 C 7.980469 10.25 7.824219 10.214844 7.664062 10.195312 C 7.542969 10.1875 7.425781 10.199219 7.3125 10.230469 C 7.226562 10.257812 7.148438 10.3125 7.09375 10.382812 C 7.039062 10.457031 7.015625 10.546875 7.015625 10.632812 C 7.011719 10.746094 7.0625 10.851562 7.148438 10.914062 C 7.257812 10.976562 7.378906 11.007812 7.5 11 C 7.5625 11.003906 7.625 10.996094 7.6875 10.980469 C 7.742188 10.980469 7.796875 10.953125 7.855469 10.933594 C 7.890625 10.917969 7.929688 10.917969 7.960938 10.933594 C 7.988281 10.945312 8.011719 10.964844 8.023438 10.992188 C 8.035156 11.023438 8.035156 11.054688 8.023438 11.085938 C 8.011719 11.125 7.992188 11.15625 7.957031 11.179688 C 7.894531 11.226562 7.824219 11.261719 7.746094 11.277344 C 7.644531 11.300781 7.542969 11.3125 7.441406 11.3125 C 7.339844 11.3125 7.242188 11.296875 7.148438 11.269531 C 7.058594 11.242188 6.972656 11.195312 6.898438 11.140625 C 6.820312 11.082031 6.761719 11.003906 6.71875 10.917969 C 6.667969 10.820312 6.644531 10.707031 6.648438 10.597656 C 6.644531 10.457031 6.691406 10.316406 6.777344 10.207031 C 6.867188 10.09375 6.980469 10.007812 7.117188 9.957031 C 7.269531 9.902344 7.429688 9.878906 7.59375 9.886719 C 7.777344 9.898438 7.960938 9.945312 8.128906 10.027344 L 8.128906 9.75 C 8.128906 9.683594 8.117188 9.613281 8.085938 9.554688 C 8.058594 9.5 8.015625 9.449219 7.96875 9.414062 C 7.917969 9.378906 7.859375 9.351562 7.796875 9.335938 C 7.730469 9.320312 7.660156 9.3125 7.59375 9.3125 C 7.507812 9.308594 7.421875 9.324219 7.34375 9.351562 C 7.289062 9.375 7.238281 9.402344 7.191406 9.4375 L 7.078125 9.523438 C 7.039062 9.550781 6.992188 9.566406 6.945312 9.566406 C 6.90625 9.566406 6.867188 9.550781 6.835938 9.523438 C 6.800781 9.492188 6.78125 9.445312 6.785156 9.398438 C 6.789062 9.34375 6.808594 9.289062 6.84375 9.246094 C 6.890625 9.191406 6.949219 9.140625 7.011719 9.105469 C 7.089844 9.058594 7.175781 9.023438 7.261719 9 C 7.367188 8.972656 7.476562 8.957031 7.585938 8.960938 C 7.707031 8.957031 7.828125 8.976562 7.941406 9.011719 C 8.046875 9.042969 8.144531 9.09375 8.230469 9.164062 C 8.308594 9.226562 8.375 9.304688 8.421875 9.394531 C 8.472656 9.488281 8.5 9.59375 8.5 9.695312 L 8.5 10.695312 C 8.5 10.765625 8.503906 10.835938 8.519531 10.902344 C 8.535156 10.953125 8.554688 10.976562 8.585938 10.976562 L 8.632812 10.976562 C 8.6875 10.976562 8.738281 10.992188 8.777344 11.023438 C 8.8125 11.054688 8.832031 11.097656 8.832031 11.144531 C 8.832031 11.1875 8.808594 11.234375 8.773438 11.257812 C 8.71875 11.292969 8.65625 11.308594 8.59375 11.304688 Z M 8.59375 11.304688 "/>
</g>
</svg>
