
<svg xmlns="http://www.w3.org/2000/svg" xmlns:xlink="http://www.w3.org/1999/xlink" width="16px" height="16px" viewBox="0 0 16 16" version="1.1">
<defs>
<linearGradient id="linear0" gradientUnits="userSpaceOnUse" x1="32" y1="3.8" x2="32" y2="23.49" gradientTransform="matrix(0.25,0,0,0.25,0,0)">
<stop offset="0" style="stop-color:rgb(16.078432%,71.372551%,96.470588%);stop-opacity:1;"/>
<stop offset="0.67" style="stop-color:rgb(39.607844%,45.09804%,82.745099%);stop-opacity:1;"/>
<stop offset="1" style="stop-color:rgb(49.411765%,34.117648%,76.862746%);stop-opacity:1;"/>
</linearGradient>
<linearGradient id="linear1" gradientUnits="userSpaceOnUse" x1="32" y1="60.900002" x2="32" y2="18.719999" gradientTransform="matrix(0.25,0,0,0.25,0,0)">
<stop offset="0" style="stop-color:rgb(86.274511%,87.058824%,88.627452%);stop-opacity:1;"/>
<stop offset="0.57" style="stop-color:rgb(87.058824%,87.843138%,89.411765%);stop-opacity:1;"/>
<stop offset="0.81" style="stop-color:rgb(89.803922%,90.588236%,91.764706%);stop-opacity:1;"/>
<stop offset="0.99" style="stop-color:rgb(94.901961%,95.294118%,95.686275%);stop-opacity:1;"/>
<stop offset="1" style="stop-color:rgb(95.294118%,95.686275%,96.078432%);stop-opacity:1;"/>
</linearGradient>
<linearGradient id="linear2" gradientUnits="userSpaceOnUse" x1="32" y1="32.900002" x2="32" y2="49.02" gradientTransform="matrix(0.25,0,0,0.25,0,0)">
<stop offset="0" style="stop-color:rgb(55.686277%,55.686277%,55.686277%);stop-opacity:1;"/>
<stop offset="1" style="stop-color:rgb(75.294119%,75.294119%,75.294119%);stop-opacity:1;"/>
</linearGradient>
<linearGradient id="linear3" gradientUnits="userSpaceOnUse" x1="32" y1="32.900002" x2="32" y2="49.02" gradientTransform="matrix(0.25,0,0,0.25,0,0)">
<stop offset="0" style="stop-color:rgb(55.686277%,55.686277%,55.686277%);stop-opacity:1;"/>
<stop offset="1" style="stop-color:rgb(75.294119%,75.294119%,75.294119%);stop-opacity:1;"/>
</linearGradient>
</defs>
<g id="surface1">
<path style=" stroke:none;fill-rule:nonzero;fill:url(#linear0);" d="M 16 5.328125 C 16 4.621094 15.425781 4.046875 14.71875 4.046875 L 10.363281 4.046875 C 9.472656 4.046875 8.746094 3.335938 8.726562 2.445312 C 8.742188 1.539062 8.019531 0.792969 7.113281 0.773438 L 0.84375 0.773438 C 0.378906 0.773438 0 1.152344 0 1.621094 L 0 5.855469 L 16 5.855469 Z M 16 5.328125 "/>
<path style=" stroke:none;fill-rule:nonzero;fill:url(#linear1);" d="M 14.71875 4.679688 L 1.28125 4.679688 C 0.574219 4.679688 0 5.253906 0 5.960938 L 0 13.945312 C 0 14.652344 0.574219 15.226562 1.28125 15.226562 L 14.71875 15.226562 C 15.425781 15.226562 16 14.652344 16 13.945312 L 16 5.960938 C 16 5.253906 15.425781 4.679688 14.71875 4.679688 Z M 14.71875 4.679688 "/>
<path style=" stroke:none;fill-rule:nonzero;fill:url(#linear2);" d="M 9.882812 12.445312 L 6.117188 12.445312 C 5.574219 12.445312 5.136719 12.007812 5.136719 11.464844 L 5.136719 10.355469 C 5.136719 10.210938 5.25 10.09375 5.394531 10.09375 C 5.539062 10.09375 5.65625 10.210938 5.65625 10.355469 L 5.65625 11.464844 C 5.65625 11.71875 5.863281 11.929688 6.117188 11.929688 L 9.882812 11.929688 C 10.136719 11.929688 10.34375 11.71875 10.34375 11.464844 L 10.34375 10.355469 C 10.34375 10.210938 10.460938 10.09375 10.605469 10.09375 C 10.75 10.09375 10.867188 10.210938 10.867188 10.355469 L 10.867188 11.464844 C 10.863281 12.007812 10.425781 12.445312 9.882812 12.445312 Z M 9.882812 12.445312 "/>
<path style=" stroke:none;fill-rule:nonzero;fill:url(#linear3);" d="M 8 11.394531 C 7.910156 11.394531 7.820312 11.363281 7.75 11.304688 L 5.914062 9.6875 C 5.796875 9.582031 5.753906 9.417969 5.808594 9.273438 C 5.863281 9.125 6 9.023438 6.160156 9.023438 L 6.632812 9.023438 L 6.632812 7.773438 C 6.632812 7.628906 6.75 7.511719 6.890625 7.511719 C 7.035156 7.511719 7.152344 7.628906 7.152344 7.773438 L 7.152344 9.167969 C 7.152344 9.375 6.984375 9.539062 6.777344 9.539062 L 6.546875 9.539062 L 8 10.832031 L 9.453125 9.550781 L 9.21875 9.550781 C 9.015625 9.550781 8.847656 9.382812 8.847656 9.179688 L 8.847656 7.78125 C 8.847656 7.640625 8.964844 7.523438 9.105469 7.523438 C 9.25 7.523438 9.367188 7.640625 9.367188 7.78125 L 9.367188 9.03125 L 9.835938 9.03125 C 9.992188 9.03125 10.132812 9.128906 10.1875 9.273438 C 10.246094 9.417969 10.203125 9.582031 10.085938 9.6875 L 8.25 11.304688 C 8.179688 11.363281 8.09375 11.394531 8 11.394531 Z M 7.90625 10.914062 Z M 7.90625 10.914062 "/>
</g>
</svg>
