
<svg xmlns="http://www.w3.org/2000/svg" xmlns:xlink="http://www.w3.org/1999/xlink" width="16px" height="16px" viewBox="0 0 16 16" version="1.1">
<defs>
<linearGradient id="linear0" gradientUnits="userSpaceOnUse" x1="32" y1="3.8" x2="32" y2="23.49" gradientTransform="matrix(0.25,0,0,0.25,0,0)">
<stop offset="0" style="stop-color:rgb(16.078432%,71.372551%,96.470588%);stop-opacity:1;"/>
<stop offset="0.67" style="stop-color:rgb(39.607844%,45.09804%,82.745099%);stop-opacity:1;"/>
<stop offset="1" style="stop-color:rgb(49.411765%,34.117648%,76.862746%);stop-opacity:1;"/>
</linearGradient>
<linearGradient id="linear1" gradientUnits="userSpaceOnUse" x1="32" y1="60.900002" x2="32" y2="18.719999" gradientTransform="matrix(0.25,0,0,0.25,0,0)">
<stop offset="0" style="stop-color:rgb(86.274511%,87.058824%,88.627452%);stop-opacity:1;"/>
<stop offset="0.57" style="stop-color:rgb(87.058824%,87.843138%,89.411765%);stop-opacity:1;"/>
<stop offset="0.81" style="stop-color:rgb(89.803922%,90.588236%,91.764706%);stop-opacity:1;"/>
<stop offset="0.99" style="stop-color:rgb(94.901961%,95.294118%,95.686275%);stop-opacity:1;"/>
<stop offset="1" style="stop-color:rgb(95.294118%,95.686275%,96.078432%);stop-opacity:1;"/>
</linearGradient>
<linearGradient id="linear2" gradientUnits="userSpaceOnUse" x1="32" y1="51.889999" x2="32" y2="31.52" gradientTransform="matrix(0.25,0,0,0.25,0,0)">
<stop offset="0" style="stop-color:rgb(75.294119%,75.294119%,75.294119%);stop-opacity:1;"/>
<stop offset="1" style="stop-color:rgb(55.686277%,55.686277%,55.686277%);stop-opacity:1;"/>
</linearGradient>
<linearGradient id="linear3" gradientUnits="userSpaceOnUse" x1="32.009998" y1="51.889999" x2="32.009998" y2="31.52" gradientTransform="matrix(0.25,0,0,0.25,0,0)">
<stop offset="0" style="stop-color:rgb(75.294119%,75.294119%,75.294119%);stop-opacity:1;"/>
<stop offset="1" style="stop-color:rgb(55.686277%,55.686277%,55.686277%);stop-opacity:1;"/>
</linearGradient>
<linearGradient id="linear4" gradientUnits="userSpaceOnUse" x1="32" y1="51.889999" x2="32" y2="31.52" gradientTransform="matrix(0.25,0,0,0.25,0,0)">
<stop offset="0" style="stop-color:rgb(75.294119%,75.294119%,75.294119%);stop-opacity:1;"/>
<stop offset="1" style="stop-color:rgb(55.686277%,55.686277%,55.686277%);stop-opacity:1;"/>
</linearGradient>
</defs>
<g id="surface1">
<path style=" stroke:none;fill-rule:nonzero;fill:url(#linear0);" d="M 16 5.328125 C 16 4.621094 15.425781 4.046875 14.71875 4.046875 L 10.363281 4.046875 C 9.472656 4.046875 8.746094 3.335938 8.726562 2.445312 C 8.742188 1.539062 8.019531 0.792969 7.113281 0.773438 L 0.84375 0.773438 C 0.378906 0.773438 0 1.152344 0 1.621094 L 0 5.855469 L 16 5.855469 Z M 16 5.328125 "/>
<path style=" stroke:none;fill-rule:nonzero;fill:url(#linear1);" d="M 14.71875 4.679688 L 1.28125 4.679688 C 0.574219 4.679688 0 5.253906 0 5.960938 L 0 13.945312 C 0 14.652344 0.574219 15.226562 1.28125 15.226562 L 14.71875 15.226562 C 15.425781 15.226562 16 14.652344 16 13.945312 L 16 5.960938 C 16 5.253906 15.425781 4.679688 14.71875 4.679688 Z M 14.71875 4.679688 "/>
<path style=" stroke:none;fill-rule:nonzero;fill:url(#linear2);" d="M 6.054688 8.117188 C 4.980469 9.1875 4.980469 10.929688 6.054688 12.003906 C 7.128906 13.078125 8.871094 13.078125 9.945312 12.003906 C 11.019531 10.929688 11.019531 9.1875 9.945312 8.117188 C 8.871094 7.039062 7.128906 7.039062 6.054688 8.117188 Z M 9.601562 11.660156 C 8.789062 12.464844 7.503906 12.539062 6.601562 11.832031 L 7.652344 10.78125 C 7.710938 10.730469 7.738281 10.65625 7.734375 10.578125 C 7.726562 10.5 7.683594 10.429688 7.621094 10.386719 C 7.511719 10.316406 7.367188 10.332031 7.277344 10.429688 L 6.242188 11.464844 C 5.484375 10.511719 5.617188 9.128906 6.539062 8.339844 C 7.464844 7.546875 8.851562 7.625 9.675781 8.519531 C 10.503906 9.414062 10.476562 10.800781 9.617188 11.660156 Z M 9.601562 11.660156 "/>
<path style=" stroke:none;fill-rule:nonzero;fill:url(#linear3);" d="M 7.960938 8.28125 C 7.835938 8.308594 7.746094 8.417969 7.75 8.546875 L 7.75 9.269531 C 7.75 9.414062 7.867188 9.527344 8.007812 9.527344 C 8.148438 9.527344 8.265625 9.414062 8.265625 9.269531 L 8.265625 8.535156 C 8.269531 8.457031 8.234375 8.382812 8.175781 8.332031 C 8.117188 8.28125 8.035156 8.261719 7.960938 8.28125 Z M 7.960938 8.28125 "/>
<path style=" stroke:none;fill-rule:nonzero;fill:url(#linear4);" d="M 7.6875 10.0625 C 7.6875 10.191406 7.761719 10.304688 7.882812 10.355469 C 8 10.40625 8.132812 10.378906 8.226562 10.289062 C 8.316406 10.195312 8.34375 10.0625 8.292969 9.945312 C 8.242188 9.824219 8.128906 9.75 8 9.75 C 7.828125 9.75 7.6875 9.890625 7.6875 10.0625 Z M 7.6875 10.0625 "/>
</g>
</svg>
