
<svg xmlns="http://www.w3.org/2000/svg" xmlns:xlink="http://www.w3.org/1999/xlink" width="16px" height="16px" viewBox="0 0 16 16" version="1.1">
<defs>
<linearGradient id="linear0" gradientUnits="userSpaceOnUse" x1="32" y1="3.8" x2="32" y2="23.49" gradientTransform="matrix(0.25,0,0,0.25,0,0)">
<stop offset="0" style="stop-color:rgb(16.078432%,71.372551%,96.470588%);stop-opacity:1;"/>
<stop offset="0.67" style="stop-color:rgb(39.607844%,45.09804%,82.745099%);stop-opacity:1;"/>
<stop offset="1" style="stop-color:rgb(49.411765%,34.117648%,76.862746%);stop-opacity:1;"/>
</linearGradient>
<linearGradient id="linear1" gradientUnits="userSpaceOnUse" x1="32" y1="60.900002" x2="32" y2="18.719999" gradientTransform="matrix(0.25,0,0,0.25,0,0)">
<stop offset="0" style="stop-color:rgb(86.274511%,87.058824%,88.627452%);stop-opacity:1;"/>
<stop offset="0.57" style="stop-color:rgb(87.058824%,87.843138%,89.411765%);stop-opacity:1;"/>
<stop offset="0.81" style="stop-color:rgb(89.803922%,90.588236%,91.764706%);stop-opacity:1;"/>
<stop offset="0.99" style="stop-color:rgb(94.901961%,95.294118%,95.686275%);stop-opacity:1;"/>
<stop offset="1" style="stop-color:rgb(95.294118%,95.686275%,96.078432%);stop-opacity:1;"/>
</linearGradient>
<linearGradient id="linear2" gradientUnits="userSpaceOnUse" x1="32.02" y1="30.5" x2="32.02" y2="49.509998" gradientTransform="matrix(0.25,0,0,0.25,0,0)">
<stop offset="0" style="stop-color:rgb(55.686277%,55.686277%,55.686277%);stop-opacity:1;"/>
<stop offset="1" style="stop-color:rgb(75.294119%,75.294119%,75.294119%);stop-opacity:1;"/>
</linearGradient>
<linearGradient id="linear3" gradientUnits="userSpaceOnUse" x1="32.009998" y1="30.5" x2="32.009998" y2="49.509998" gradientTransform="matrix(0.25,0,0,0.25,0,0)">
<stop offset="0" style="stop-color:rgb(55.686277%,55.686277%,55.686277%);stop-opacity:1;"/>
<stop offset="1" style="stop-color:rgb(75.294119%,75.294119%,75.294119%);stop-opacity:1;"/>
</linearGradient>
<linearGradient id="linear4" gradientUnits="userSpaceOnUse" x1="32" y1="30.5" x2="32" y2="49.509998" gradientTransform="matrix(0.25,0,0,0.25,0,0)">
<stop offset="0" style="stop-color:rgb(55.686277%,55.686277%,55.686277%);stop-opacity:1;"/>
<stop offset="1" style="stop-color:rgb(75.294119%,75.294119%,75.294119%);stop-opacity:1;"/>
</linearGradient>
<linearGradient id="linear5" gradientUnits="userSpaceOnUse" x1="32.09" y1="30.5" x2="32.09" y2="49.509998" gradientTransform="matrix(0.25,0,0,0.25,-0.000901394,-0.000980327)">
<stop offset="0" style="stop-color:rgb(55.686277%,55.686277%,55.686277%);stop-opacity:1;"/>
<stop offset="1" style="stop-color:rgb(75.294119%,75.294119%,75.294119%);stop-opacity:1;"/>
</linearGradient>
</defs>
<g id="surface1">
<path style=" stroke:none;fill-rule:nonzero;fill:url(#linear0);" d="M 16 5.328125 C 16 4.621094 15.425781 4.046875 14.71875 4.046875 L 10.363281 4.046875 C 9.472656 4.046875 8.746094 3.335938 8.726562 2.445312 C 8.742188 1.539062 8.019531 0.792969 7.113281 0.773438 L 0.84375 0.773438 C 0.378906 0.773438 0 1.152344 0 1.621094 L 0 5.855469 L 16 5.855469 Z M 16 5.328125 "/>
<path style=" stroke:none;fill-rule:nonzero;fill:url(#linear1);" d="M 14.71875 4.679688 L 1.28125 4.679688 C 0.574219 4.679688 0 5.253906 0 5.960938 L 0 13.945312 C 0 14.652344 0.574219 15.226562 1.28125 15.226562 L 14.71875 15.226562 C 15.425781 15.226562 16 14.652344 16 13.945312 L 16 5.960938 C 16 5.253906 15.425781 4.679688 14.71875 4.679688 Z M 14.71875 4.679688 "/>
<path style=" stroke:none;fill-rule:nonzero;fill:url(#linear2);" d="M 9.640625 11 C 9.582031 11.058594 9.503906 11.09375 9.417969 11.09375 C 9.335938 11.09375 9.257812 11.058594 9.199219 11 C 8.539062 10.34375 7.472656 10.34375 6.808594 11 C 6.6875 11.121094 6.492188 11.121094 6.371094 11 C 6.25 10.878906 6.25 10.683594 6.371094 10.558594 C 7.273438 9.660156 8.734375 9.660156 9.636719 10.558594 C 9.757812 10.679688 9.761719 10.878906 9.640625 11 Z M 9.640625 11 "/>
<path style=" stroke:none;fill-rule:nonzero;fill:url(#linear3);" d="M 10.332031 10.273438 C 10.273438 10.332031 10.195312 10.363281 10.113281 10.363281 C 10.03125 10.363281 9.949219 10.332031 9.894531 10.273438 C 8.847656 9.230469 7.15625 9.230469 6.113281 10.273438 C 5.988281 10.382812 5.800781 10.378906 5.683594 10.261719 C 5.566406 10.144531 5.558594 9.957031 5.671875 9.832031 C 6.957031 8.546875 9.042969 8.546875 10.332031 9.832031 C 10.453125 9.953125 10.453125 10.152344 10.332031 10.273438 Z M 10.332031 10.273438 "/>
<path style=" stroke:none;fill-rule:nonzero;fill:url(#linear4);" d="M 11.035156 9.527344 C 10.914062 9.648438 10.71875 9.648438 10.59375 9.527344 C 9.164062 8.09375 6.839844 8.09375 5.40625 9.527344 C 5.285156 9.636719 5.097656 9.632812 4.976562 9.515625 C 4.859375 9.398438 4.855469 9.210938 4.964844 9.085938 C 6.640625 7.414062 9.355469 7.414062 11.03125 9.085938 C 11.152344 9.207031 11.15625 9.40625 11.035156 9.527344 Z M 11.035156 9.527344 "/>
<path style=" stroke:none;fill-rule:nonzero;fill:url(#linear5);" d="M 8.554688 11.234375 C 8.339844 10.941406 7.929688 10.875 7.636719 11.089844 C 7.34375 11.300781 7.277344 11.714844 7.492188 12.007812 C 7.707031 12.304688 8.117188 12.371094 8.410156 12.15625 C 8.707031 11.941406 8.769531 11.53125 8.554688 11.234375 Z M 8.554688 11.234375 "/>
</g>
</svg>
