
<svg xmlns="http://www.w3.org/2000/svg" xmlns:xlink="http://www.w3.org/1999/xlink" width="16px" height="16px" viewBox="0 0 16 16" version="1.1">
<defs>
<linearGradient id="linear0" gradientUnits="userSpaceOnUse" x1="32" y1="3.8" x2="32" y2="23.49" gradientTransform="matrix(0.25,0,0,0.25,0,0)">
<stop offset="0" style="stop-color:rgb(16.078432%,71.372551%,96.470588%);stop-opacity:1;"/>
<stop offset="0.67" style="stop-color:rgb(39.607844%,45.09804%,82.745099%);stop-opacity:1;"/>
<stop offset="1" style="stop-color:rgb(49.411765%,34.117648%,76.862746%);stop-opacity:1;"/>
</linearGradient>
<linearGradient id="linear1" gradientUnits="userSpaceOnUse" x1="32" y1="60.900002" x2="32" y2="18.719999" gradientTransform="matrix(0.25,0,0,0.25,0,0)">
<stop offset="0" style="stop-color:rgb(86.274511%,87.058824%,88.627452%);stop-opacity:1;"/>
<stop offset="0.57" style="stop-color:rgb(87.058824%,87.843138%,89.411765%);stop-opacity:1;"/>
<stop offset="0.81" style="stop-color:rgb(89.803922%,90.588236%,91.764706%);stop-opacity:1;"/>
<stop offset="0.99" style="stop-color:rgb(94.901961%,95.294118%,95.686275%);stop-opacity:1;"/>
<stop offset="1" style="stop-color:rgb(95.294118%,95.686275%,96.078432%);stop-opacity:1;"/>
</linearGradient>
<linearGradient id="linear2" gradientUnits="userSpaceOnUse" x1="32" y1="46.240002" x2="32" y2="39" gradientTransform="matrix(0.25,0,0,0.25,0,0)">
<stop offset="0" style="stop-color:rgb(75.294119%,75.294119%,75.294119%);stop-opacity:1;"/>
<stop offset="1" style="stop-color:rgb(55.686277%,55.686277%,55.686277%);stop-opacity:1;"/>
</linearGradient>
<linearGradient id="linear3" gradientUnits="userSpaceOnUse" x1="32" y1="52.619999" x2="32" y2="29.91" gradientTransform="matrix(0.25,0,0,0.25,0,0)">
<stop offset="0" style="stop-color:rgb(75.294119%,75.294119%,75.294119%);stop-opacity:1;"/>
<stop offset="1" style="stop-color:rgb(55.686277%,55.686277%,55.686277%);stop-opacity:1;"/>
</linearGradient>
</defs>
<g id="surface1">
<path style=" stroke:none;fill-rule:nonzero;fill:url(#linear0);" d="M 16 5.328125 C 16 4.621094 15.425781 4.046875 14.71875 4.046875 L 10.363281 4.046875 C 9.472656 4.046875 8.746094 3.335938 8.726562 2.445312 C 8.742188 1.539062 8.019531 0.792969 7.113281 0.773438 L 0.84375 0.773438 C 0.378906 0.773438 0 1.152344 0 1.621094 L 0 5.855469 L 16 5.855469 Z M 16 5.328125 "/>
<path style=" stroke:none;fill-rule:nonzero;fill:url(#linear1);" d="M 14.71875 4.679688 L 1.28125 4.679688 C 0.574219 4.679688 0 5.253906 0 5.960938 L 0 13.945312 C 0 14.652344 0.574219 15.226562 1.28125 15.226562 L 14.71875 15.226562 C 15.425781 15.226562 16 14.652344 16 13.945312 L 16 5.960938 C 16 5.253906 15.425781 4.679688 14.71875 4.679688 Z M 14.71875 4.679688 "/>
<path style=" stroke:none;fill-rule:nonzero;fill:url(#linear2);" d="M 8.835938 10.566406 C 8.835938 11.03125 8.460938 11.40625 8 11.40625 C 7.539062 11.40625 7.164062 11.03125 7.164062 10.566406 C 7.164062 10.105469 7.539062 9.730469 8 9.730469 C 8.460938 9.730469 8.835938 10.105469 8.835938 10.566406 Z M 8.835938 10.566406 "/>
<path style=" stroke:none;fill-rule:nonzero;fill:url(#linear3);" d="M 10.101562 8.25 L 9.5 8.25 L 9.5 7.929688 C 9.492188 7.65625 9.273438 7.4375 9 7.429688 L 7 7.429688 C 6.722656 7.429688 6.492188 7.652344 6.488281 7.929688 L 6.488281 8.25 L 5.898438 8.25 C 5.429688 8.25 5.046875 8.632812 5.046875 9.105469 L 5.046875 11.816406 C 5.046875 12.289062 5.429688 12.667969 5.898438 12.667969 L 10.101562 12.667969 C 10.570312 12.667969 10.949219 12.289062 10.953125 11.816406 L 10.953125 9.105469 C 10.953125 8.632812 10.570312 8.25 10.101562 8.25 Z M 8 12.105469 C 7.152344 12.105469 6.460938 11.417969 6.460938 10.566406 C 6.460938 9.71875 7.152344 9.03125 8 9.03125 C 8.847656 9.03125 9.539062 9.71875 9.539062 10.566406 C 9.535156 11.414062 8.847656 12.101562 8 12.105469 Z M 10 9.570312 C 9.808594 9.570312 9.648438 9.414062 9.648438 9.21875 C 9.648438 9.027344 9.808594 8.871094 10 8.871094 C 10.195312 8.871094 10.351562 9.027344 10.351562 9.21875 C 10.351562 9.414062 10.195312 9.570312 10 9.570312 Z M 10 9.570312 "/>
</g>
</svg>
