
<svg xmlns="http://www.w3.org/2000/svg" xmlns:xlink="http://www.w3.org/1999/xlink" width="16px" height="16px" viewBox="0 0 16 16" version="1.1">
<defs>
<linearGradient id="linear0" gradientUnits="userSpaceOnUse" x1="-26.201" y1="1070.199951" x2="-26.201" y2="1082.599976" gradientTransform="matrix(0.177112,0,0,0.177112,8.721074,-187.735752)">
<stop offset="0" style="stop-color:rgb(47.058824%,76.47059%,99.215686%);stop-opacity:1;"/>
<stop offset="1" style="stop-color:rgb(48.235294%,77.64706%,100%);stop-opacity:1;"/>
</linearGradient>
<linearGradient id="linear1" gradientUnits="userSpaceOnUse" x1="-9.912" y1="1081.400024" x2="-9.912" y2="1139.800049" gradientTransform="matrix(0.177112,0,0,0.177112,8.721074,-187.735752)">
<stop offset="0" style="stop-color:rgb(20.784314%,64.705884%,98.823529%);stop-opacity:1;"/>
<stop offset="0.5" style="stop-color:rgb(27.058825%,75.294119%,100%);stop-opacity:1;"/>
<stop offset="1" style="stop-color:rgb(30.19608%,67.450982%,96.470588%);stop-opacity:1;"/>
</linearGradient>
<filter id="alpha" filterUnits="objectBoundingBox" x="0%" y="0%" width="100%" height="100%">
  <feColorMatrix type="matrix" in="SourceGraphic" values="0 0 0 0 1 0 0 0 0 1 0 0 0 0 1 0 0 0 1 0"/>
</filter>
<mask id="mask0">
  <g filter="url(#alpha)">
<rect x="0" y="0" width="16" height="16" style="fill:rgb(0%,0%,0%);fill-opacity:0.08;stroke:none;"/>
  </g>
</mask>
<clipPath id="clip1">
  <rect x="0" y="0" width="16" height="16"/>
</clipPath>
<g id="surface5" clip-path="url(#clip1)">
<path style=" stroke:none;fill-rule:nonzero;fill:rgb(0%,0%,0%);fill-opacity:1;" d="M 0.214844 13.125 L 0.214844 13.300781 L 15.789062 13.300781 L 15.789062 13.125 Z M 0.214844 13.511719 L 0.214844 13.605469 C 0.214844 13.636719 0.214844 13.664062 0.21875 13.691406 L 15.785156 13.691406 C 15.789062 13.664062 15.789062 13.636719 15.789062 13.605469 L 15.789062 13.511719 Z M 0.214844 13.511719 "/>
</g>
<mask id="mask1">
  <g filter="url(#alpha)">
<rect x="0" y="0" width="16" height="16" style="fill:rgb(0%,0%,0%);fill-opacity:0.25;stroke:none;"/>
  </g>
</mask>
<linearGradient id="linear2" gradientUnits="userSpaceOnUse" x1="-9.617" y1="1138.400024" x2="-9.617" y2="1140.199951" gradientTransform="matrix(0.177112,0,0,0.177112,8.721074,-187.735752)">
<stop offset="0" style="stop-color:rgb(0%,0%,0%);stop-opacity:0.046784;"/>
<stop offset="1" style="stop-color:rgb(0%,0%,0%);stop-opacity:1;"/>
</linearGradient>
<clipPath id="clip2">
  <rect x="0" y="0" width="16" height="16"/>
</clipPath>
<g id="surface8" clip-path="url(#clip2)">
<path style=" stroke:none;fill-rule:nonzero;fill:url(#linear2);" d="M 0.265625 13.851562 C 0.359375 14.0625 0.566406 14.195312 0.796875 14.195312 L 15.207031 14.195312 C 15.445312 14.195312 15.648438 14.054688 15.738281 13.851562 Z M 0.265625 13.851562 "/>
</g>
<mask id="mask2">
  <g filter="url(#alpha)">
<rect x="0" y="0" width="16" height="16" style="fill:rgb(0%,0%,0%);fill-opacity:0.15;stroke:none;"/>
  </g>
</mask>
<clipPath id="clip3">
  <rect x="0" y="0" width="16" height="16"/>
</clipPath>
<g id="surface11" clip-path="url(#clip3)">
<path style=" stroke:none;fill-rule:nonzero;fill:rgb(0%,0%,0%);fill-opacity:1;" d="M 5.800781 5.847656 C 5.679688 5.847656 5.585938 5.945312 5.585938 6.0625 L 5.585938 11.921875 C 5.585938 12.039062 5.679688 12.136719 5.800781 12.136719 L 10.144531 12.136719 C 10.265625 12.136719 10.363281 12.039062 10.363281 11.921875 L 10.363281 8.136719 L 8.070312 5.847656 Z M 6.015625 6.277344 L 7.589844 6.277344 C 7.835938 6.300781 8 6.40625 8 6.945312 L 8 8 L 9.085938 8 C 9.351562 8 9.828125 7.988281 9.929688 8.285156 L 9.929688 11.703125 L 6.015625 11.703125 Z M 6.015625 6.277344 "/>
</g>
</defs>
<g id="surface1">
<path style=" stroke:none;fill-rule:nonzero;fill:url(#linear0);" d="M 0.792969 1.808594 L 4.710938 1.808594 C 5.296875 1.808594 5.535156 3.0625 6.082031 3.0625 L 15.207031 3.0625 C 15.359375 3.0625 15.507812 3.121094 15.617188 3.230469 C 15.726562 3.339844 15.789062 3.488281 15.789062 3.644531 L 15.789062 12.589844 C 15.789062 12.910156 15.527344 12.230469 15.207031 12.230469 L 0.792969 12.230469 C 0.640625 12.230469 0.492188 12.171875 0.382812 12.0625 C 0.273438 11.953125 0.210938 11.804688 0.210938 11.648438 L 0.210938 2.390625 C 0.210938 2.238281 0.273438 2.089844 0.382812 1.980469 C 0.492188 1.871094 0.640625 1.808594 0.792969 1.808594 Z M 0.792969 1.808594 "/>
<path style=" stroke:none;fill-rule:nonzero;fill:url(#linear1);" d="M 0.792969 3.777344 L 15.207031 3.777344 C 15.359375 3.773438 15.507812 3.835938 15.617188 3.945312 C 15.726562 4.054688 15.789062 4.203125 15.789062 4.355469 L 15.789062 13.617188 C 15.789062 13.769531 15.726562 13.917969 15.617188 14.027344 C 15.507812 14.136719 15.359375 14.195312 15.207031 14.195312 L 0.792969 14.195312 C 0.640625 14.195312 0.492188 14.136719 0.382812 14.027344 C 0.273438 13.917969 0.210938 13.769531 0.210938 13.617188 L 0.210938 4.355469 C 0.210938 4.203125 0.273438 4.054688 0.382812 3.945312 C 0.492188 3.835938 0.640625 3.773438 0.792969 3.777344 Z M 0.792969 3.777344 "/>
<use xlink:href="#surface5" mask="url(#mask0)"/>
<use xlink:href="#surface8" mask="url(#mask1)"/>
<use xlink:href="#surface11" mask="url(#mask2)"/>
</g>
</svg>
