
<svg xmlns="http://www.w3.org/2000/svg" xmlns:xlink="http://www.w3.org/1999/xlink" width="16px" height="16px" viewBox="0 0 16 16" version="1.1">
<defs>
<linearGradient id="linear0" gradientUnits="userSpaceOnUse" x1="32" y1="3.8" x2="32" y2="23.49" gradientTransform="matrix(0.25,0,0,0.25,0,0)">
<stop offset="0" style="stop-color:rgb(16.078432%,71.372551%,96.470588%);stop-opacity:1;"/>
<stop offset="0.67" style="stop-color:rgb(39.607844%,45.09804%,82.745099%);stop-opacity:1;"/>
<stop offset="1" style="stop-color:rgb(49.411765%,34.117648%,76.862746%);stop-opacity:1;"/>
</linearGradient>
<linearGradient id="linear1" gradientUnits="userSpaceOnUse" x1="32" y1="60.900002" x2="32" y2="18.719999" gradientTransform="matrix(0.25,0,0,0.25,0,0)">
<stop offset="0" style="stop-color:rgb(86.274511%,87.058824%,88.627452%);stop-opacity:1;"/>
<stop offset="0.57" style="stop-color:rgb(87.058824%,87.843138%,89.411765%);stop-opacity:1;"/>
<stop offset="0.81" style="stop-color:rgb(89.803922%,90.588236%,91.764706%);stop-opacity:1;"/>
<stop offset="0.99" style="stop-color:rgb(94.901961%,95.294118%,95.686275%);stop-opacity:1;"/>
<stop offset="1" style="stop-color:rgb(95.294118%,95.686275%,96.078432%);stop-opacity:1;"/>
</linearGradient>
<linearGradient id="linear2" gradientUnits="userSpaceOnUse" x1="32" y1="52.32" x2="32" y2="28.32" gradientTransform="matrix(0.25,0,0,0.25,0,0)">
<stop offset="0" style="stop-color:rgb(75.294119%,75.294119%,75.294119%);stop-opacity:1;"/>
<stop offset="1" style="stop-color:rgb(55.686277%,55.686277%,55.686277%);stop-opacity:1;"/>
</linearGradient>
<linearGradient id="linear3" gradientUnits="userSpaceOnUse" x1="32" y1="44.290001" x2="32" y2="36.330002" gradientTransform="matrix(0.25,0,0,0.25,0,0)">
<stop offset="0" style="stop-color:rgb(75.294119%,75.294119%,75.294119%);stop-opacity:1;"/>
<stop offset="1" style="stop-color:rgb(55.686277%,55.686277%,55.686277%);stop-opacity:1;"/>
</linearGradient>
</defs>
<g id="surface1">
<path style=" stroke:none;fill-rule:nonzero;fill:url(#linear0);" d="M 16 5.328125 C 16 4.621094 15.425781 4.046875 14.71875 4.046875 L 10.363281 4.046875 C 9.472656 4.046875 8.746094 3.335938 8.726562 2.445312 C 8.742188 1.539062 8.019531 0.792969 7.113281 0.773438 L 0.84375 0.773438 C 0.378906 0.773438 0 1.152344 0 1.621094 L 0 5.855469 L 16 5.855469 Z M 16 5.328125 "/>
<path style=" stroke:none;fill-rule:nonzero;fill:url(#linear1);" d="M 14.71875 4.679688 L 1.28125 4.679688 C 0.574219 4.679688 0 5.253906 0 5.960938 L 0 13.945312 C 0 14.652344 0.574219 15.226562 1.28125 15.226562 L 14.71875 15.226562 C 15.425781 15.226562 16 14.652344 16 13.945312 L 16 5.960938 C 16 5.253906 15.425781 4.679688 14.71875 4.679688 Z M 14.71875 4.679688 "/>
<path style=" stroke:none;fill-rule:nonzero;fill:url(#linear2);" d="M 8.152344 13.082031 L 7.902344 13.082031 C 7.542969 13.027344 7.273438 12.730469 7.25 12.367188 C 7.25 12.269531 7.21875 12.191406 7.121094 12.15625 C 7.03125 12.125 6.929688 12.152344 6.871094 12.226562 C 6.5625 12.492188 6.105469 12.480469 5.816406 12.199219 C 5.53125 11.917969 5.523438 11.464844 5.796875 11.175781 C 5.859375 11.105469 5.910156 11.042969 5.867188 10.949219 C 5.824219 10.855469 5.738281 10.839844 5.640625 10.835938 C 5.324219 10.835938 5.039062 10.636719 4.933594 10.335938 C 4.921875 10.300781 4.90625 10.265625 4.890625 10.226562 L 4.890625 9.976562 C 4.964844 9.617188 5.277344 9.355469 5.640625 9.351562 C 5.730469 9.363281 5.816406 9.3125 5.851562 9.230469 C 5.886719 9.152344 5.863281 9.054688 5.792969 9 C 5.65625 8.863281 5.582031 8.675781 5.585938 8.480469 C 5.589844 8.285156 5.671875 8.101562 5.8125 7.96875 C 6.113281 7.691406 6.578125 7.691406 6.878906 7.96875 C 6.941406 8.039062 7.042969 8.058594 7.128906 8.019531 C 7.226562 7.980469 7.238281 7.902344 7.242188 7.816406 C 7.25 7.46875 7.496094 7.175781 7.832031 7.105469 C 7.847656 7.101562 7.863281 7.09375 7.878906 7.085938 L 8.128906 7.085938 C 8.136719 7.09375 8.148438 7.097656 8.160156 7.105469 C 8.503906 7.171875 8.757812 7.464844 8.769531 7.816406 C 8.777344 7.890625 8.820312 7.960938 8.882812 8 C 8.960938 8.011719 9.042969 7.992188 9.101562 7.941406 C 9.410156 7.671875 9.875 7.679688 10.171875 7.960938 C 10.457031 8.246094 10.457031 8.707031 10.171875 8.996094 C 10.097656 9.054688 10.074219 9.160156 10.117188 9.246094 C 10.15625 9.34375 10.238281 9.355469 10.332031 9.355469 C 10.515625 9.339844 10.699219 9.410156 10.832031 9.546875 C 10.929688 9.683594 11.015625 9.824219 11.09375 9.976562 L 11.09375 10.226562 C 11.011719 10.597656 10.675781 10.859375 10.292969 10.851562 C 10.230469 10.859375 10.175781 10.902344 10.144531 10.960938 C 10.136719 11.035156 10.160156 11.109375 10.207031 11.167969 C 10.476562 11.464844 10.46875 11.921875 10.1875 12.207031 C 9.886719 12.484375 9.425781 12.492188 9.117188 12.226562 C 9.058594 12.175781 8.976562 12.152344 8.902344 12.167969 C 8.835938 12.214844 8.792969 12.289062 8.789062 12.367188 C 8.789062 12.546875 8.714844 12.722656 8.585938 12.847656 C 8.445312 12.9375 8.304688 13.015625 8.152344 13.082031 Z M 8.011719 12.59375 C 8.085938 12.601562 8.160156 12.578125 8.214844 12.523438 C 8.265625 12.472656 8.292969 12.398438 8.289062 12.324219 C 8.273438 12.050781 8.4375 11.796875 8.691406 11.695312 C 8.945312 11.582031 9.246094 11.636719 9.441406 11.835938 C 9.550781 11.9375 9.71875 11.9375 9.824219 11.835938 C 9.878906 11.789062 9.914062 11.71875 9.914062 11.644531 C 9.914062 11.570312 9.878906 11.503906 9.824219 11.457031 C 9.625 11.269531 9.570312 10.976562 9.683594 10.730469 C 9.789062 10.484375 10.03125 10.328125 10.296875 10.332031 C 10.484375 10.316406 10.597656 10.214844 10.59375 10.066406 C 10.585938 9.914062 10.476562 9.816406 10.285156 9.816406 C 10.019531 9.820312 9.773438 9.667969 9.667969 9.421875 C 9.542969 9.171875 9.59375 8.867188 9.792969 8.671875 C 9.855469 8.628906 9.894531 8.558594 9.898438 8.480469 C 9.902344 8.40625 9.871094 8.332031 9.8125 8.28125 C 9.757812 8.234375 9.6875 8.207031 9.613281 8.210938 C 9.539062 8.214844 9.46875 8.246094 9.417969 8.300781 C 9.222656 8.488281 8.933594 8.539062 8.683594 8.433594 C 8.429688 8.339844 8.261719 8.097656 8.265625 7.828125 C 8.261719 7.679688 8.144531 7.5625 8 7.5625 C 7.925781 7.5625 7.859375 7.589844 7.808594 7.644531 C 7.757812 7.695312 7.730469 7.765625 7.734375 7.839844 C 7.746094 8.109375 7.582031 8.355469 7.332031 8.457031 C 7.074219 8.578125 6.765625 8.53125 6.558594 8.332031 C 6.507812 8.277344 6.4375 8.246094 6.363281 8.242188 C 6.289062 8.238281 6.21875 8.265625 6.164062 8.316406 C 6.109375 8.363281 6.078125 8.433594 6.078125 8.503906 C 6.078125 8.578125 6.109375 8.648438 6.164062 8.695312 C 6.363281 8.882812 6.417969 9.175781 6.304688 9.421875 C 6.203125 9.675781 5.957031 9.839844 5.6875 9.835938 C 5.636719 9.839844 5.589844 9.847656 5.542969 9.871094 C 5.4375 9.917969 5.375 10.03125 5.398438 10.144531 C 5.421875 10.277344 5.542969 10.367188 5.675781 10.355469 C 5.953125 10.335938 6.21875 10.492188 6.328125 10.75 C 6.460938 11.003906 6.402344 11.3125 6.191406 11.5 C 6.15625 11.53125 6.132812 11.570312 6.121094 11.613281 C 6.082031 11.722656 6.125 11.84375 6.222656 11.90625 C 6.328125 11.976562 6.472656 11.960938 6.5625 11.871094 C 6.734375 11.699219 6.984375 11.632812 7.21875 11.691406 C 7.511719 11.75 7.730469 12 7.75 12.296875 C 7.765625 12.484375 7.859375 12.59375 8.011719 12.59375 Z M 8.011719 12.59375 "/>
<path style=" stroke:none;fill-rule:nonzero;fill:url(#linear3);" d="M 8 11.070312 C 7.449219 11.058594 7.015625 10.605469 7.023438 10.058594 C 7.03125 9.507812 7.480469 9.070312 8.03125 9.074219 C 8.578125 9.078125 9.023438 9.523438 9.023438 10.070312 C 9.011719 10.628906 8.558594 11.074219 8 11.070312 Z M 8.527344 10.070312 C 8.53125 9.855469 8.40625 9.660156 8.207031 9.574219 C 8.007812 9.492188 7.777344 9.535156 7.625 9.683594 C 7.472656 9.835938 7.425781 10.066406 7.507812 10.265625 C 7.589844 10.464844 7.785156 10.59375 8 10.59375 C 8.285156 10.589844 8.519531 10.363281 8.53125 10.078125 Z M 8.527344 10.070312 "/>
</g>
</svg>
