
<svg xmlns="http://www.w3.org/2000/svg" xmlns:xlink="http://www.w3.org/1999/xlink" width="16px" height="16px" viewBox="0 0 16 16" version="1.1">
<defs>
<linearGradient id="linear0" gradientUnits="userSpaceOnUse" x1="32" y1="3.8" x2="32" y2="23.49" gradientTransform="matrix(0.25,0,0,0.25,0,0)">
<stop offset="0" style="stop-color:rgb(16.078432%,71.372551%,96.470588%);stop-opacity:1;"/>
<stop offset="0.67" style="stop-color:rgb(39.607844%,45.09804%,82.745099%);stop-opacity:1;"/>
<stop offset="1" style="stop-color:rgb(49.411765%,34.117648%,76.862746%);stop-opacity:1;"/>
</linearGradient>
<linearGradient id="linear1" gradientUnits="userSpaceOnUse" x1="32" y1="60.900002" x2="32" y2="18.719999" gradientTransform="matrix(0.25,0,0,0.25,0,0)">
<stop offset="0" style="stop-color:rgb(86.274511%,87.058824%,88.627452%);stop-opacity:1;"/>
<stop offset="0.57" style="stop-color:rgb(87.058824%,87.843138%,89.411765%);stop-opacity:1;"/>
<stop offset="0.81" style="stop-color:rgb(89.803922%,90.588236%,91.764706%);stop-opacity:1;"/>
<stop offset="0.99" style="stop-color:rgb(94.901961%,95.294118%,95.686275%);stop-opacity:1;"/>
<stop offset="1" style="stop-color:rgb(95.294118%,95.686275%,96.078432%);stop-opacity:1;"/>
</linearGradient>
<linearGradient id="linear2" gradientUnits="userSpaceOnUse" x1="31.299999" y1="51.939999" x2="31.299999" y2="35.799999" gradientTransform="matrix(0.25,0,0,0.25,0,0)">
<stop offset="0" style="stop-color:rgb(75.294119%,75.294119%,75.294119%);stop-opacity:1;"/>
<stop offset="1" style="stop-color:rgb(55.686277%,55.686277%,55.686277%);stop-opacity:1;"/>
</linearGradient>
<linearGradient id="linear3" gradientUnits="userSpaceOnUse" x1="38.52" y1="34.709999" x2="38.52" y2="27.379999" gradientTransform="matrix(0.25,0,0,0.25,0,0)">
<stop offset="0" style="stop-color:rgb(75.294119%,75.294119%,75.294119%);stop-opacity:1;"/>
<stop offset="1" style="stop-color:rgb(55.686277%,55.686277%,55.686277%);stop-opacity:1;"/>
</linearGradient>
<linearGradient id="linear4" gradientUnits="userSpaceOnUse" x1="31.59" y1="33.82" x2="31.59" y2="28.35" gradientTransform="matrix(0.25,0,0,0.25,0,0)">
<stop offset="0" style="stop-color:rgb(75.294119%,75.294119%,75.294119%);stop-opacity:1;"/>
<stop offset="1" style="stop-color:rgb(55.686277%,55.686277%,55.686277%);stop-opacity:1;"/>
</linearGradient>
<linearGradient id="linear5" gradientUnits="userSpaceOnUse" x1="26.9" y1="35.080002" x2="26.9" y2="30.33" gradientTransform="matrix(0.25,0,0,0.25,0,0)">
<stop offset="0" style="stop-color:rgb(75.294119%,75.294119%,75.294119%);stop-opacity:1;"/>
<stop offset="1" style="stop-color:rgb(55.686277%,55.686277%,55.686277%);stop-opacity:1;"/>
</linearGradient>
<linearGradient id="linear6" gradientUnits="userSpaceOnUse" x1="23.440001" y1="37.560001" x2="23.440001" y2="33.389999" gradientTransform="matrix(0.25,0,0,0.25,0,0)">
<stop offset="0" style="stop-color:rgb(75.294119%,75.294119%,75.294119%);stop-opacity:1;"/>
<stop offset="1" style="stop-color:rgb(55.686277%,55.686277%,55.686277%);stop-opacity:1;"/>
</linearGradient>
</defs>
<g id="surface1">
<path style=" stroke:none;fill-rule:nonzero;fill:url(#linear0);" d="M 16 5.328125 C 16 4.621094 15.425781 4.046875 14.71875 4.046875 L 10.363281 4.046875 C 9.472656 4.046875 8.746094 3.335938 8.726562 2.445312 C 8.742188 1.539062 8.019531 0.792969 7.113281 0.773438 L 0.84375 0.773438 C 0.378906 0.773438 0 1.152344 0 1.621094 L 0 5.855469 L 16 5.855469 Z M 16 5.328125 "/>
<path style=" stroke:none;fill-rule:nonzero;fill:url(#linear1);" d="M 14.71875 4.679688 L 1.28125 4.679688 C 0.574219 4.679688 0 5.253906 0 5.960938 L 0 13.945312 C 0 14.652344 0.574219 15.226562 1.28125 15.226562 L 14.71875 15.226562 C 15.425781 15.226562 16 14.652344 16 13.945312 L 16 5.960938 C 16 5.253906 15.425781 4.679688 14.71875 4.679688 Z M 14.71875 4.679688 "/>
<path style=" stroke:none;fill-rule:nonzero;fill:url(#linear2);" d="M 8.214844 12.980469 C 7.742188 12.96875 7.285156 12.792969 6.925781 12.480469 C 6.511719 12.167969 6.199219 11.738281 6.019531 11.25 C 5.765625 10.609375 6 9.875 6.578125 9.5 C 6.996094 9.199219 7.488281 9.019531 8 8.972656 C 8.230469 8.949219 8.46875 8.945312 8.699219 8.957031 C 8.910156 8.96875 9.113281 9.027344 9.296875 9.128906 C 9.445312 9.207031 9.554688 9.34375 9.597656 9.507812 C 9.644531 9.667969 9.617188 9.84375 9.523438 9.984375 C 9.371094 10.230469 9.164062 10.433594 8.917969 10.585938 C 8.609375 10.789062 8.292969 10.980469 7.988281 11.1875 C 7.898438 11.25 7.8125 11.324219 7.738281 11.40625 C 7.644531 11.476562 7.589844 11.582031 7.589844 11.699219 C 7.589844 11.8125 7.644531 11.921875 7.738281 11.992188 C 7.816406 12.074219 7.910156 12.140625 8.015625 12.191406 C 8.140625 12.257812 8.292969 12.25 8.410156 12.164062 C 8.527344 12.082031 8.585938 11.9375 8.5625 11.796875 C 8.535156 11.675781 8.597656 11.550781 8.710938 11.5 C 8.953125 11.371094 9.234375 11.332031 9.5 11.390625 C 9.585938 11.390625 9.664062 11.4375 9.707031 11.507812 C 9.753906 11.582031 9.757812 11.671875 9.71875 11.75 C 9.550781 12.382812 9.03125 12.863281 8.382812 12.980469 C 8.328125 12.988281 8.269531 12.988281 8.214844 12.980469 Z M 8.214844 12.980469 "/>
<path style=" stroke:none;fill-rule:nonzero;fill:url(#linear3);" d="M 10.023438 6.867188 C 10.074219 6.871094 10.125 6.878906 10.175781 6.886719 C 10.285156 6.902344 10.382812 6.964844 10.441406 7.058594 C 10.5 7.152344 10.511719 7.269531 10.472656 7.375 C 10.375 7.71875 10.183594 8.027344 9.917969 8.265625 C 9.765625 8.425781 9.582031 8.550781 9.378906 8.632812 C 9.257812 8.703125 9.113281 8.703125 8.992188 8.636719 C 8.867188 8.570312 8.789062 8.445312 8.785156 8.304688 C 8.691406 7.722656 9.015625 7.152344 9.566406 6.933594 C 9.714844 6.894531 9.867188 6.867188 10.023438 6.84375 Z M 10.023438 6.867188 "/>
<path style=" stroke:none;fill-rule:nonzero;fill:url(#linear4);" d="M 7.476562 7.683594 C 7.46875 7.492188 7.554688 7.304688 7.703125 7.183594 C 7.804688 7.113281 7.925781 7.082031 8.046875 7.097656 C 8.210938 7.132812 8.324219 7.277344 8.316406 7.445312 C 8.335938 7.726562 8.261719 8.007812 8.113281 8.25 C 8.054688 8.347656 7.984375 8.453125 7.851562 8.449219 C 7.71875 8.445312 7.648438 8.335938 7.601562 8.230469 C 7.515625 8.0625 7.472656 7.875 7.476562 7.683594 Z M 7.476562 7.683594 "/>
<path style=" stroke:none;fill-rule:nonzero;fill:url(#linear5);" d="M 6.359375 8.035156 C 6.34375 7.859375 6.445312 7.691406 6.609375 7.621094 C 6.679688 7.578125 6.765625 7.570312 6.84375 7.597656 C 6.921875 7.625 6.980469 7.6875 7.007812 7.765625 C 7.082031 7.929688 7.109375 8.109375 7.085938 8.289062 C 7.074219 8.40625 7.042969 8.519531 7 8.628906 C 6.933594 8.789062 6.800781 8.808594 6.664062 8.695312 C 6.519531 8.570312 6.421875 8.398438 6.382812 8.210938 C 6.371094 8.152344 6.363281 8.09375 6.359375 8.035156 Z M 6.359375 8.035156 "/>
<path style=" stroke:none;fill-rule:nonzero;fill:url(#linear6);" d="M 5.5 8.800781 C 5.46875 8.632812 5.546875 8.46875 5.695312 8.382812 C 5.785156 8.324219 5.90625 8.339844 5.976562 8.417969 C 6.105469 8.558594 6.179688 8.734375 6.191406 8.917969 C 6.203125 9.011719 6.203125 9.101562 6.191406 9.191406 C 6.175781 9.371094 6.054688 9.441406 5.898438 9.351562 C 5.683594 9.242188 5.539062 9.035156 5.5 8.800781 Z M 5.5 8.800781 "/>
</g>
</svg>
