
<svg xmlns="http://www.w3.org/2000/svg" xmlns:xlink="http://www.w3.org/1999/xlink" width="16px" height="16px" viewBox="0 0 16 16" version="1.1">
<defs>
<linearGradient id="linear0" gradientUnits="userSpaceOnUse" x1="32" y1="3.8" x2="32" y2="23.49" gradientTransform="matrix(0.25,0,0,0.25,0,0)">
<stop offset="0" style="stop-color:rgb(16.078432%,71.372551%,96.470588%);stop-opacity:1;"/>
<stop offset="0.67" style="stop-color:rgb(39.607844%,45.09804%,82.745099%);stop-opacity:1;"/>
<stop offset="1" style="stop-color:rgb(49.411765%,34.117648%,76.862746%);stop-opacity:1;"/>
</linearGradient>
<linearGradient id="linear1" gradientUnits="userSpaceOnUse" x1="32" y1="60.900002" x2="32" y2="18.719999" gradientTransform="matrix(0.25,0,0,0.25,0,0)">
<stop offset="0" style="stop-color:rgb(86.274511%,87.058824%,88.627452%);stop-opacity:1;"/>
<stop offset="0.57" style="stop-color:rgb(87.058824%,87.843138%,89.411765%);stop-opacity:1;"/>
<stop offset="0.81" style="stop-color:rgb(89.803922%,90.588236%,91.764706%);stop-opacity:1;"/>
<stop offset="0.99" style="stop-color:rgb(94.901961%,95.294118%,95.686275%);stop-opacity:1;"/>
<stop offset="1" style="stop-color:rgb(95.294118%,95.686275%,96.078432%);stop-opacity:1;"/>
</linearGradient>
<linearGradient id="linear2" gradientUnits="userSpaceOnUse" x1="32.259998" y1="50.880001" x2="32.259998" y2="29.559999" gradientTransform="matrix(0.25,0,0,0.25,0,0)">
<stop offset="0" style="stop-color:rgb(75.294119%,75.294119%,75.294119%);stop-opacity:1;"/>
<stop offset="1" style="stop-color:rgb(55.686277%,55.686277%,55.686277%);stop-opacity:1;"/>
</linearGradient>
</defs>
<g id="surface1">
<path style=" stroke:none;fill-rule:nonzero;fill:url(#linear0);" d="M 16 5.328125 C 16 4.621094 15.425781 4.046875 14.71875 4.046875 L 10.363281 4.046875 C 9.472656 4.046875 8.746094 3.335938 8.726562 2.445312 C 8.742188 1.539062 8.019531 0.792969 7.113281 0.773438 L 0.84375 0.773438 C 0.378906 0.773438 0 1.152344 0 1.621094 L 0 5.855469 L 16 5.855469 Z M 16 5.328125 "/>
<path style=" stroke:none;fill-rule:nonzero;fill:url(#linear1);" d="M 14.71875 4.679688 L 1.28125 4.679688 C 0.574219 4.679688 0 5.253906 0 5.960938 L 0 13.945312 C 0 14.652344 0.574219 15.226562 1.28125 15.226562 L 14.71875 15.226562 C 15.425781 15.226562 16 14.652344 16 13.945312 L 16 5.960938 C 16 5.253906 15.425781 4.679688 14.71875 4.679688 Z M 14.71875 4.679688 "/>
<path style=" stroke:none;fill-rule:nonzero;fill:url(#linear2);" d="M 9.808594 9.121094 L 8.328125 9.121094 L 8.328125 8.65625 C 8.328125 8.488281 8.464844 8.347656 8.632812 8.347656 L 9.070312 8.347656 C 9.4375 8.347656 9.730469 8.050781 9.730469 7.6875 L 9.730469 7.359375 C 9.734375 7.3125 9.714844 7.265625 9.683594 7.230469 C 9.648438 7.199219 9.605469 7.179688 9.558594 7.179688 C 9.460938 7.179688 9.378906 7.257812 9.378906 7.359375 L 9.378906 7.6875 C 9.382812 7.769531 9.351562 7.851562 9.292969 7.910156 C 9.234375 7.96875 9.15625 8 9.070312 8 L 8.632812 8 C 8.269531 8 7.976562 8.296875 7.976562 8.664062 L 7.976562 9.128906 L 6.324219 9.128906 C 5.445312 9.128906 4.699219 9.765625 4.5625 10.632812 C 4.425781 11.5 4.945312 12.339844 5.78125 12.605469 C 6.617188 12.871094 7.523438 12.488281 7.914062 11.699219 L 8.21875 11.699219 C 8.609375 12.488281 9.515625 12.871094 10.351562 12.605469 C 11.1875 12.339844 11.707031 11.5 11.570312 10.632812 C 11.433594 9.765625 10.6875 9.128906 9.808594 9.128906 Z M 6.777344 11.023438 L 6.460938 11.023438 L 6.460938 11.355469 C 6.460938 11.445312 6.386719 11.519531 6.296875 11.519531 L 6.25 11.519531 C 6.160156 11.519531 6.085938 11.445312 6.085938 11.355469 L 6.085938 11.023438 L 5.75 11.023438 C 5.660156 11.023438 5.585938 10.949219 5.585938 10.859375 L 5.585938 10.804688 C 5.585938 10.714844 5.660156 10.644531 5.75 10.644531 L 6.074219 10.644531 L 6.074219 10.332031 C 6.074219 10.242188 6.148438 10.167969 6.238281 10.167969 L 6.292969 10.167969 C 6.382812 10.167969 6.457031 10.242188 6.457031 10.332031 L 6.457031 10.644531 L 6.773438 10.644531 C 6.863281 10.644531 6.933594 10.714844 6.933594 10.804688 L 6.933594 10.859375 C 6.933594 10.949219 6.867188 11.019531 6.777344 11.023438 Z M 8.433594 10.632812 C 8.429688 10.71875 8.359375 10.789062 8.273438 10.789062 L 7.886719 10.789062 C 7.796875 10.789062 7.730469 10.71875 7.726562 10.632812 L 7.726562 10.582031 C 7.726562 10.492188 7.796875 10.421875 7.886719 10.421875 L 8.273438 10.421875 C 8.363281 10.421875 8.433594 10.492188 8.433594 10.582031 Z M 9.5 11.023438 C 9.429688 11.097656 9.320312 11.121094 9.226562 11.085938 C 9.132812 11.046875 9.070312 10.953125 9.070312 10.851562 C 9.070312 10.75 9.132812 10.660156 9.226562 10.621094 C 9.320312 10.582031 9.429688 10.605469 9.5 10.679688 C 9.59375 10.777344 9.59375 10.929688 9.5 11.023438 Z M 9.671875 10.144531 C 9.742188 10.070312 9.851562 10.046875 9.945312 10.085938 C 10.039062 10.125 10.101562 10.214844 10.101562 10.316406 C 10.101562 10.417969 10.039062 10.511719 9.945312 10.550781 C 9.851562 10.585938 9.742188 10.5625 9.671875 10.492188 C 9.578125 10.394531 9.574219 10.242188 9.664062 10.144531 Z M 10.035156 11.542969 C 9.9375 11.632812 9.785156 11.632812 9.691406 11.542969 C 9.617188 11.472656 9.59375 11.363281 9.628906 11.269531 C 9.667969 11.175781 9.761719 11.113281 9.863281 11.113281 C 9.964844 11.113281 10.058594 11.175781 10.09375 11.269531 C 10.132812 11.363281 10.109375 11.472656 10.035156 11.542969 Z M 10.542969 11 C 10.472656 11.074219 10.367188 11.097656 10.269531 11.058594 C 10.175781 11.019531 10.117188 10.929688 10.117188 10.824219 C 10.117188 10.722656 10.175781 10.632812 10.269531 10.59375 C 10.367188 10.554688 10.472656 10.578125 10.542969 10.652344 C 10.636719 10.75 10.636719 10.902344 10.542969 11 Z M 10.542969 11 "/>
</g>
</svg>
