
<svg xmlns="http://www.w3.org/2000/svg" xmlns:xlink="http://www.w3.org/1999/xlink" width="16px" height="16px" viewBox="0 0 16 16" version="1.1">
<defs>
<linearGradient id="linear0" gradientUnits="userSpaceOnUse" x1="32" y1="3.8" x2="32" y2="23.49" gradientTransform="matrix(0.25,0,0,0.25,0,0)">
<stop offset="0" style="stop-color:rgb(16.078432%,71.372551%,96.470588%);stop-opacity:1;"/>
<stop offset="0.67" style="stop-color:rgb(39.607844%,45.09804%,82.745099%);stop-opacity:1;"/>
<stop offset="1" style="stop-color:rgb(49.411765%,34.117648%,76.862746%);stop-opacity:1;"/>
</linearGradient>
<linearGradient id="linear1" gradientUnits="userSpaceOnUse" x1="32" y1="60.900002" x2="32" y2="18.719999" gradientTransform="matrix(0.25,0,0,0.25,0,0)">
<stop offset="0" style="stop-color:rgb(86.274511%,87.058824%,88.627452%);stop-opacity:1;"/>
<stop offset="0.57" style="stop-color:rgb(87.058824%,87.843138%,89.411765%);stop-opacity:1;"/>
<stop offset="0.81" style="stop-color:rgb(89.803922%,90.588236%,91.764706%);stop-opacity:1;"/>
<stop offset="0.99" style="stop-color:rgb(94.901961%,95.294118%,95.686275%);stop-opacity:1;"/>
<stop offset="1" style="stop-color:rgb(95.294118%,95.686275%,96.078432%);stop-opacity:1;"/>
</linearGradient>
<linearGradient id="linear2" gradientUnits="userSpaceOnUse" x1="32" y1="51.860001" x2="32" y2="31.549999" gradientTransform="matrix(0.25,0,0,0.25,0,0)">
<stop offset="0" style="stop-color:rgb(75.294119%,75.294119%,75.294119%);stop-opacity:1;"/>
<stop offset="1" style="stop-color:rgb(55.686277%,55.686277%,55.686277%);stop-opacity:1;"/>
</linearGradient>
<linearGradient id="linear3" gradientUnits="userSpaceOnUse" x1="32" y1="51.860001" x2="32" y2="31.549999" gradientTransform="matrix(0.25,0,0,0.25,0,0)">
<stop offset="0" style="stop-color:rgb(75.294119%,75.294119%,75.294119%);stop-opacity:1;"/>
<stop offset="1" style="stop-color:rgb(55.686277%,55.686277%,55.686277%);stop-opacity:1;"/>
</linearGradient>
</defs>
<g id="surface1">
<path style=" stroke:none;fill-rule:nonzero;fill:url(#linear0);" d="M 16 5.328125 C 16 4.621094 15.425781 4.046875 14.71875 4.046875 L 10.363281 4.046875 C 9.472656 4.046875 8.746094 3.335938 8.726562 2.445312 C 8.742188 1.539062 8.019531 0.792969 7.113281 0.773438 L 0.84375 0.773438 C 0.378906 0.773438 0 1.152344 0 1.621094 L 0 5.855469 L 16 5.855469 Z M 16 5.328125 "/>
<path style=" stroke:none;fill-rule:nonzero;fill:url(#linear1);" d="M 14.71875 4.679688 L 1.28125 4.679688 C 0.574219 4.679688 0 5.253906 0 5.960938 L 0 13.945312 C 0 14.652344 0.574219 15.226562 1.28125 15.226562 L 14.71875 15.226562 C 15.425781 15.226562 16 14.652344 16 13.945312 L 16 5.960938 C 16 5.253906 15.425781 4.679688 14.71875 4.679688 Z M 14.71875 4.679688 "/>
<path style=" stroke:none;fill-rule:nonzero;fill:url(#linear2);" d="M 8.769531 10.164062 C 8.769531 9.738281 8.425781 9.394531 8 9.394531 C 7.578125 9.394531 7.234375 9.738281 7.234375 10.164062 C 7.234375 10.585938 7.578125 10.929688 8 10.929688 C 8.425781 10.929688 8.769531 10.585938 8.769531 10.164062 Z M 7.59375 10.164062 C 7.59375 9.9375 7.777344 9.757812 8 9.757812 C 8.222656 9.757812 8.40625 9.9375 8.40625 10.164062 C 8.40625 10.386719 8.222656 10.566406 8 10.566406 C 7.890625 10.570312 7.789062 10.527344 7.714844 10.449219 C 7.636719 10.375 7.59375 10.269531 7.59375 10.164062 Z M 7.59375 10.164062 "/>
<path style=" stroke:none;fill-rule:nonzero;fill:url(#linear3);" d="M 8 7.414062 C 6.480469 7.414062 5.25 8.644531 5.25 10.164062 C 5.25 11.679688 6.480469 12.914062 8 12.914062 C 9.519531 12.914062 10.75 11.679688 10.75 10.164062 C 10.75 8.644531 9.519531 7.414062 8 7.414062 Z M 9.898438 10.164062 C 9.898438 11.210938 9.050781 12.0625 8 12.066406 L 8 11.859375 C 8.9375 11.859375 9.695312 11.101562 9.695312 10.164062 Z M 6.691406 10.164062 C 6.691406 9.441406 7.277344 8.855469 8 8.855469 C 8.722656 8.855469 9.308594 9.441406 9.308594 10.164062 C 9.308594 10.882812 8.722656 11.46875 8 11.46875 C 7.277344 11.46875 6.695312 10.882812 6.691406 10.164062 Z M 8 12.585938 L 8 12.382812 C 9.226562 12.382812 10.21875 11.386719 10.21875 10.164062 L 10.421875 10.164062 C 10.421875 11.5 9.335938 12.582031 8 12.585938 Z M 8 12.585938 "/>
</g>
</svg>
