
<svg xmlns="http://www.w3.org/2000/svg" xmlns:xlink="http://www.w3.org/1999/xlink" width="16px" height="16px" viewBox="0 0 16 16" version="1.1">
<defs>
<linearGradient id="linear0" gradientUnits="userSpaceOnUse" x1="32" y1="3.8" x2="32" y2="23.49" gradientTransform="matrix(0.25,0,0,0.25,0,0)">
<stop offset="0" style="stop-color:rgb(16.078432%,71.372551%,96.470588%);stop-opacity:1;"/>
<stop offset="0.67" style="stop-color:rgb(39.607844%,45.09804%,82.745099%);stop-opacity:1;"/>
<stop offset="1" style="stop-color:rgb(49.411765%,34.117648%,76.862746%);stop-opacity:1;"/>
</linearGradient>
<linearGradient id="linear1" gradientUnits="userSpaceOnUse" x1="32" y1="60.900002" x2="32" y2="18.719999" gradientTransform="matrix(0.25,0,0,0.25,0,0)">
<stop offset="0" style="stop-color:rgb(86.274511%,87.058824%,88.627452%);stop-opacity:1;"/>
<stop offset="0.57" style="stop-color:rgb(87.058824%,87.843138%,89.411765%);stop-opacity:1;"/>
<stop offset="0.81" style="stop-color:rgb(89.803922%,90.588236%,91.764706%);stop-opacity:1;"/>
<stop offset="0.99" style="stop-color:rgb(94.901961%,95.294118%,95.686275%);stop-opacity:1;"/>
<stop offset="1" style="stop-color:rgb(95.294118%,95.686275%,96.078432%);stop-opacity:1;"/>
</linearGradient>
<linearGradient id="linear2" gradientUnits="userSpaceOnUse" x1="32" y1="51.310001" x2="32" y2="28.790001" gradientTransform="matrix(0.25,0,0,0.25,0,0)">
<stop offset="0" style="stop-color:rgb(75.294119%,75.294119%,75.294119%);stop-opacity:1;"/>
<stop offset="1" style="stop-color:rgb(55.686277%,55.686277%,55.686277%);stop-opacity:1;"/>
</linearGradient>
</defs>
<g id="surface1">
<path style=" stroke:none;fill-rule:nonzero;fill:url(#linear0);" d="M 16 5.328125 C 16 4.621094 15.425781 4.046875 14.71875 4.046875 L 10.363281 4.046875 C 9.472656 4.046875 8.746094 3.335938 8.726562 2.445312 C 8.742188 1.539062 8.019531 0.792969 7.113281 0.773438 L 0.84375 0.773438 C 0.378906 0.773438 0 1.152344 0 1.621094 L 0 5.855469 L 16 5.855469 Z M 16 5.328125 "/>
<path style=" stroke:none;fill-rule:nonzero;fill:url(#linear1);" d="M 14.71875 4.679688 L 1.28125 4.679688 C 0.574219 4.679688 0 5.253906 0 5.960938 L 0 13.945312 C 0 14.652344 0.574219 15.226562 1.28125 15.226562 L 14.71875 15.226562 C 15.425781 15.226562 16 14.652344 16 13.945312 L 16 5.960938 C 16 5.253906 15.425781 4.679688 14.71875 4.679688 Z M 14.71875 4.679688 "/>
<path style=" stroke:none;fill-rule:nonzero;fill:url(#linear2);" d="M 9.128906 12.828125 L 6.878906 12.828125 C 6.339844 12.828125 5.898438 12.390625 5.898438 11.847656 L 5.898438 9.953125 C 5.898438 9.410156 6.339844 8.972656 6.878906 8.972656 L 8.3125 8.972656 C 8.480469 8.972656 8.617188 9.109375 8.617188 9.273438 C 8.617188 9.441406 8.480469 9.578125 8.3125 9.578125 L 6.871094 9.578125 C 6.664062 9.582031 6.5 9.746094 6.5 9.953125 L 6.5 11.847656 C 6.5 12.054688 6.667969 12.226562 6.878906 12.226562 L 9.128906 12.226562 C 9.332031 12.222656 9.5 12.054688 9.5 11.847656 L 9.5 9.953125 C 9.5 9.851562 9.460938 9.757812 9.390625 9.6875 C 9.320312 9.617188 9.222656 9.578125 9.121094 9.578125 L 8.820312 9.578125 L 8.820312 8.328125 C 8.820312 8.03125 8.582031 7.789062 8.28125 7.789062 L 7.9375 7.789062 C 7.640625 7.789062 7.398438 8.03125 7.398438 8.328125 L 7.398438 8.453125 C 7.398438 8.621094 7.261719 8.753906 7.09375 8.753906 C 6.929688 8.753906 6.792969 8.621094 6.792969 8.453125 L 6.792969 8.328125 C 6.792969 7.695312 7.304688 7.183594 7.9375 7.183594 L 8.289062 7.183594 C 8.921875 7.1875 9.429688 7.699219 9.433594 8.328125 L 9.433594 9.007812 C 9.835938 9.136719 10.113281 9.515625 10.113281 9.941406 L 10.113281 11.835938 C 10.117188 12.097656 10.011719 12.351562 9.828125 12.535156 C 9.644531 12.722656 9.390625 12.828125 9.128906 12.828125 Z M 9.128906 12.828125 "/>
</g>
</svg>
