
<svg xmlns="http://www.w3.org/2000/svg" xmlns:xlink="http://www.w3.org/1999/xlink" width="16px" height="16px" viewBox="0 0 16 16" version="1.1">
<defs>
<linearGradient id="linear0" gradientUnits="userSpaceOnUse" x1="-26.201" y1="1070.199951" x2="-26.201" y2="1082.599976" gradientTransform="matrix(0.177112,0,0,0.177112,8.7596,-187.595195)">
<stop offset="0" style="stop-color:rgb(47.058824%,85.09804%,99.215686%);stop-opacity:1;"/>
<stop offset="1" style="stop-color:rgb(48.235294%,87.058824%,100%);stop-opacity:1;"/>
</linearGradient>
<linearGradient id="linear1" gradientUnits="userSpaceOnUse" x1="-9.912" y1="1081.400024" x2="-9.912" y2="1139.800049" gradientTransform="matrix(0.177112,0,0,0.177112,8.7596,-187.595195)">
<stop offset="0" style="stop-color:rgb(20.784314%,79.215688%,98.823529%);stop-opacity:1;"/>
<stop offset="0.5" style="stop-color:rgb(31.37255%,83.137256%,100%);stop-opacity:1;"/>
<stop offset="1" style="stop-color:rgb(30.19608%,79.607844%,96.470588%);stop-opacity:1;"/>
</linearGradient>
<filter id="alpha" filterUnits="objectBoundingBox" x="0%" y="0%" width="100%" height="100%">
  <feColorMatrix type="matrix" in="SourceGraphic" values="0 0 0 0 1 0 0 0 0 1 0 0 0 0 1 0 0 0 1 0"/>
</filter>
<mask id="mask0">
  <g filter="url(#alpha)">
<rect x="0" y="0" width="16" height="16" style="fill:rgb(0%,0%,0%);fill-opacity:0.976;stroke:none;"/>
  </g>
</mask>
<clipPath id="clip1">
  <rect x="0" y="0" width="16" height="16"/>
</clipPath>
<g id="surface5" clip-path="url(#clip1)">
<path style=" stroke:none;fill-rule:nonzero;fill:rgb(23.137255%,75.686276%,94.509804%);fill-opacity:1;" d="M 0.253906 13.269531 L 0.253906 13.445312 L 15.828125 13.445312 L 15.828125 13.269531 Z M 0.253906 13.65625 L 0.253906 13.75 C 0.253906 13.78125 0.253906 13.808594 0.257812 13.835938 L 15.820312 13.835938 C 15.824219 13.808594 15.828125 13.78125 15.828125 13.75 L 15.828125 13.65625 Z M 0.253906 13.65625 "/>
</g>
<mask id="mask1">
  <g filter="url(#alpha)">
<rect x="0" y="0" width="16" height="16" style="fill:rgb(0%,0%,0%);fill-opacity:0.976;stroke:none;"/>
  </g>
</mask>
<linearGradient id="linear2" gradientUnits="userSpaceOnUse" x1="-9.617" y1="1138.400024" x2="-9.617" y2="1140.199951" gradientTransform="matrix(0.177112,0,0,0.177112,8.7596,-187.595195)">
<stop offset="0" style="stop-color:rgb(23.137255%,75.686276%,94.509804%);stop-opacity:1;"/>
<stop offset="1" style="stop-color:rgb(5.490196%,58.431375%,77.254903%);stop-opacity:1;"/>
</linearGradient>
<clipPath id="clip2">
  <rect x="0" y="0" width="16" height="16"/>
</clipPath>
<g id="surface8" clip-path="url(#clip2)">
<path style=" stroke:none;fill-rule:nonzero;fill:url(#linear2);" d="M 0.300781 13.992188 C 0.394531 14.203125 0.605469 14.335938 0.832031 14.335938 L 15.246094 14.335938 C 15.484375 14.335938 15.6875 14.195312 15.777344 13.992188 Z M 0.300781 13.992188 "/>
</g>
<linearGradient id="linear3" gradientUnits="userSpaceOnUse" x1="29.591" y1="1098.199951" x2="29.591" y2="1120.800049" gradientTransform="matrix(0.227217,0,0,0.227217,1.314697,-242.981662)">
<stop offset="0" style="stop-color:rgb(1.176471%,71.372551%,92.54902%);stop-opacity:1;"/>
<stop offset="1" style="stop-color:rgb(7.450981%,75.294119%,96.862745%);stop-opacity:1;"/>
</linearGradient>
</defs>
<g id="surface1">
<path style=" stroke:none;fill-rule:nonzero;fill:url(#linear0);" d="M 0.832031 1.949219 L 4.75 1.949219 C 5.332031 1.949219 5.574219 3.203125 6.121094 3.203125 L 15.246094 3.203125 C 15.398438 3.203125 15.546875 3.261719 15.65625 3.371094 C 15.765625 3.480469 15.828125 3.628906 15.828125 3.785156 L 15.828125 12.730469 C 15.828125 13.050781 15.566406 12.371094 15.246094 12.371094 L 0.832031 12.371094 C 0.675781 12.371094 0.53125 12.3125 0.421875 12.203125 C 0.3125 12.09375 0.25 11.945312 0.25 11.789062 L 0.25 2.53125 C 0.25 2.378906 0.3125 2.230469 0.421875 2.121094 C 0.53125 2.011719 0.675781 1.949219 0.832031 1.949219 Z M 0.832031 1.949219 "/>
<path style=" stroke:none;fill-rule:nonzero;fill:url(#linear1);" d="M 0.832031 3.917969 L 15.246094 3.917969 C 15.398438 3.914062 15.546875 3.976562 15.65625 4.085938 C 15.765625 4.195312 15.828125 4.34375 15.828125 4.496094 L 15.828125 13.757812 C 15.828125 13.910156 15.765625 14.058594 15.65625 14.167969 C 15.546875 14.277344 15.398438 14.335938 15.246094 14.335938 L 0.832031 14.335938 C 0.675781 14.335938 0.53125 14.277344 0.421875 14.167969 C 0.3125 14.058594 0.25 13.910156 0.25 13.757812 L 0.25 4.496094 C 0.25 4.34375 0.3125 4.195312 0.421875 4.085938 C 0.53125 3.976562 0.675781 3.914062 0.832031 3.917969 Z M 0.832031 3.917969 "/>
<use xlink:href="#surface5" mask="url(#mask0)"/>
<use xlink:href="#surface8" mask="url(#mask1)"/>
<path style=" stroke:none;fill-rule:nonzero;fill:url(#linear3);" d="M 8.039062 6.554688 C 6.683594 6.554688 5.402344 7.152344 4.523438 8.199219 C 4.441406 8.296875 4.421875 8.429688 4.476562 8.546875 C 4.53125 8.664062 4.648438 8.738281 4.773438 8.734375 C 4.867188 8.734375 4.960938 8.695312 5.027344 8.621094 C 5.777344 7.722656 6.875 7.210938 8.039062 7.210938 C 9.199219 7.210938 10.296875 7.726562 11.050781 8.621094 C 11.117188 8.695312 11.207031 8.734375 11.300781 8.734375 C 11.429688 8.738281 11.546875 8.664062 11.601562 8.546875 C 11.652344 8.433594 11.636719 8.296875 11.554688 8.199219 C 10.675781 7.152344 9.394531 6.554688 8.039062 6.554688 Z M 8.039062 7.945312 C 7.070312 7.945312 6.152344 8.371094 5.527344 9.117188 C 5.410156 9.257812 5.429688 9.464844 5.566406 9.578125 C 5.707031 9.695312 5.914062 9.679688 6.03125 9.539062 C 6.527344 8.945312 7.261719 8.601562 8.039062 8.601562 C 8.8125 8.601562 9.546875 8.941406 10.046875 9.539062 C 10.113281 9.617188 10.203125 9.65625 10.296875 9.65625 C 10.425781 9.65625 10.542969 9.582031 10.59375 9.46875 C 10.648438 9.351562 10.628906 9.214844 10.546875 9.117188 C 9.921875 8.371094 9.007812 7.945312 8.039062 7.945312 Z M 8.039062 9.386719 C 7.457031 9.386719 6.90625 9.644531 6.53125 10.089844 C 6.476562 10.15625 6.449219 10.242188 6.457031 10.332031 C 6.464844 10.417969 6.503906 10.496094 6.574219 10.554688 C 6.636719 10.609375 6.726562 10.636719 6.8125 10.628906 C 6.898438 10.621094 6.980469 10.582031 7.035156 10.511719 C 7.28125 10.214844 7.652344 10.042969 8.039062 10.042969 C 8.425781 10.042969 8.792969 10.214844 9.042969 10.511719 C 9.097656 10.578125 9.179688 10.621094 9.265625 10.628906 C 9.351562 10.636719 9.4375 10.609375 9.503906 10.554688 C 9.570312 10.496094 9.613281 10.417969 9.621094 10.332031 C 9.628906 10.242188 9.601562 10.15625 9.546875 10.089844 C 9.171875 9.644531 8.621094 9.386719 8.039062 9.386719 Z M 8.011719 10.632812 C 7.753906 10.65625 7.507812 10.847656 7.5 11.136719 C 7.503906 11.429688 7.742188 11.664062 8.039062 11.664062 C 8.332031 11.664062 8.574219 11.429688 8.578125 11.136719 C 8.53125 10.75 8.265625 10.609375 8.011719 10.632812 Z M 8.011719 10.632812 "/>
</g>
</svg>
