
<svg xmlns="http://www.w3.org/2000/svg" xmlns:xlink="http://www.w3.org/1999/xlink" width="16px" height="16px" viewBox="0 0 16 16" version="1.1">
<defs>
<linearGradient id="linear0" gradientUnits="userSpaceOnUse" x1="32" y1="60.27" x2="32" y2="4.37" gradientTransform="matrix(0.25,0,0,0.25,0,0)">
<stop offset="0" style="stop-color:rgb(92.54902%,25.098041%,47.843137%);stop-opacity:1;"/>
<stop offset="1" style="stop-color:rgb(49.411765%,34.117648%,76.862746%);stop-opacity:1;"/>
</linearGradient>
<linearGradient id="linear1" gradientUnits="userSpaceOnUse" x1="26.83" y1="31.6" x2="28.940001" y2="38.82" gradientTransform="matrix(0.25,0,0,0.25,0,0)">
<stop offset="0" style="stop-color:rgb(86.274511%,87.058824%,88.627452%);stop-opacity:1;"/>
<stop offset="0.57" style="stop-color:rgb(87.058824%,87.843138%,89.411765%);stop-opacity:1;"/>
<stop offset="0.81" style="stop-color:rgb(89.803922%,90.588236%,91.764706%);stop-opacity:1;"/>
<stop offset="0.99" style="stop-color:rgb(94.901961%,95.294118%,95.686275%);stop-opacity:1;"/>
<stop offset="1" style="stop-color:rgb(95.294118%,95.686275%,96.078432%);stop-opacity:1;"/>
</linearGradient>
<linearGradient id="linear2" gradientUnits="userSpaceOnUse" x1="35.669998" y1="31.6" x2="37.779999" y2="38.82" gradientTransform="matrix(0.25,0,0,0.25,0,0)">
<stop offset="0" style="stop-color:rgb(86.274511%,87.058824%,88.627452%);stop-opacity:1;"/>
<stop offset="0.57" style="stop-color:rgb(87.058824%,87.843138%,89.411765%);stop-opacity:1;"/>
<stop offset="0.81" style="stop-color:rgb(89.803922%,90.588236%,91.764706%);stop-opacity:1;"/>
<stop offset="0.99" style="stop-color:rgb(94.901961%,95.294118%,95.686275%);stop-opacity:1;"/>
<stop offset="1" style="stop-color:rgb(95.294118%,95.686275%,96.078432%);stop-opacity:1;"/>
</linearGradient>
<linearGradient id="linear3" gradientUnits="userSpaceOnUse" x1="26.83" y1="40.439999" x2="28.940001" y2="47.66" gradientTransform="matrix(0.25,0,0,0.25,0,0)">
<stop offset="0" style="stop-color:rgb(86.274511%,87.058824%,88.627452%);stop-opacity:1;"/>
<stop offset="0.57" style="stop-color:rgb(87.058824%,87.843138%,89.411765%);stop-opacity:1;"/>
<stop offset="0.81" style="stop-color:rgb(89.803922%,90.588236%,91.764706%);stop-opacity:1;"/>
<stop offset="0.99" style="stop-color:rgb(94.901961%,95.294118%,95.686275%);stop-opacity:1;"/>
<stop offset="1" style="stop-color:rgb(95.294118%,95.686275%,96.078432%);stop-opacity:1;"/>
</linearGradient>
<linearGradient id="linear4" gradientUnits="userSpaceOnUse" x1="35.669998" y1="40.439999" x2="37.779999" y2="47.66" gradientTransform="matrix(0.25,0,0,0.25,0,0)">
<stop offset="0" style="stop-color:rgb(86.274511%,87.058824%,88.627452%);stop-opacity:1;"/>
<stop offset="0.57" style="stop-color:rgb(87.058824%,87.843138%,89.411765%);stop-opacity:1;"/>
<stop offset="0.81" style="stop-color:rgb(89.803922%,90.588236%,91.764706%);stop-opacity:1;"/>
<stop offset="0.99" style="stop-color:rgb(94.901961%,95.294118%,95.686275%);stop-opacity:1;"/>
<stop offset="1" style="stop-color:rgb(95.294118%,95.686275%,96.078432%);stop-opacity:1;"/>
</linearGradient>
</defs>
<g id="surface1">
<path style=" stroke:none;fill-rule:nonzero;fill:url(#linear0);" d="M 12.769531 5.398438 L 8.769531 1.398438 C 8.566406 1.195312 8.292969 1.082031 8.003906 1.082031 C 7.71875 1.082031 7.445312 1.195312 7.242188 1.398438 L 3.242188 5.398438 L 1.628906 7 L 1.628906 15.367188 L 14.378906 15.367188 L 14.378906 7 Z M 12.769531 5.398438 "/>
<path style=" stroke:none;fill-rule:nonzero;fill:rgb(80.784315%,80.784315%,80.784315%);fill-opacity:1;" d="M 15.480469 9.117188 C 15.34375 9.113281 15.210938 9.058594 15.113281 8.960938 L 8 1.851562 L 0.886719 8.960938 C 0.679688 9.164062 0.347656 9.164062 0.144531 8.957031 C -0.0585938 8.75 -0.0546875 8.414062 0.152344 8.210938 L 7.402344 0.960938 C 7.738281 0.628906 8.277344 0.628906 8.613281 0.960938 L 15.863281 8.210938 C 16.011719 8.363281 16.054688 8.585938 15.972656 8.78125 C 15.894531 8.972656 15.707031 9.101562 15.496094 9.101562 Z M 15.480469 9.117188 "/>
<path style=" stroke:none;fill-rule:nonzero;fill:url(#linear1);" d="M 6.210938 8.042969 L 7.730469 8.042969 L 7.730469 9.5625 L 6.210938 9.5625 Z M 6.210938 8.042969 "/>
<path style=" stroke:none;fill-rule:nonzero;fill:url(#linear2);" d="M 8.421875 8.042969 L 9.941406 8.042969 L 9.941406 9.5625 L 8.421875 9.5625 Z M 8.421875 8.042969 "/>
<path style=" stroke:none;fill-rule:nonzero;fill:url(#linear3);" d="M 6.210938 10.253906 L 7.730469 10.253906 L 7.730469 11.773438 L 6.210938 11.773438 Z M 6.210938 10.253906 "/>
<path style=" stroke:none;fill-rule:nonzero;fill:url(#linear4);" d="M 8.421875 10.253906 L 9.941406 10.253906 L 9.941406 11.773438 L 8.421875 11.773438 Z M 8.421875 10.253906 "/>
</g>
</svg>
