
<svg xmlns="http://www.w3.org/2000/svg" xmlns:xlink="http://www.w3.org/1999/xlink" width="16px" height="16px" viewBox="0 0 16 16" version="1.1">
<defs>
<linearGradient id="linear0" gradientUnits="userSpaceOnUse" x1="32" y1="3.8" x2="32" y2="23.49" gradientTransform="matrix(0.25,0,0,0.25,0,0)">
<stop offset="0" style="stop-color:rgb(16.078432%,71.372551%,96.470588%);stop-opacity:1;"/>
<stop offset="0.67" style="stop-color:rgb(39.607844%,45.09804%,82.745099%);stop-opacity:1;"/>
<stop offset="1" style="stop-color:rgb(49.411765%,34.117648%,76.862746%);stop-opacity:1;"/>
</linearGradient>
<linearGradient id="linear1" gradientUnits="userSpaceOnUse" x1="32" y1="60.900002" x2="32" y2="18.719999" gradientTransform="matrix(0.25,0,0,0.25,0,0)">
<stop offset="0" style="stop-color:rgb(86.274511%,87.058824%,88.627452%);stop-opacity:1;"/>
<stop offset="0.57" style="stop-color:rgb(87.058824%,87.843138%,89.411765%);stop-opacity:1;"/>
<stop offset="0.81" style="stop-color:rgb(89.803922%,90.588236%,91.764706%);stop-opacity:1;"/>
<stop offset="0.99" style="stop-color:rgb(94.901961%,95.294118%,95.686275%);stop-opacity:1;"/>
<stop offset="1" style="stop-color:rgb(95.294118%,95.686275%,96.078432%);stop-opacity:1;"/>
</linearGradient>
<linearGradient id="linear2" gradientUnits="userSpaceOnUse" x1="32.09" y1="34.84" x2="32.09" y2="28.02" gradientTransform="matrix(0.25,0,0,0.25,0,0)">
<stop offset="0" style="stop-color:rgb(75.294119%,75.294119%,75.294119%);stop-opacity:1;"/>
<stop offset="1" style="stop-color:rgb(55.686277%,55.686277%,55.686277%);stop-opacity:1;"/>
</linearGradient>
<linearGradient id="linear3" gradientUnits="userSpaceOnUse" x1="32" y1="52.02" x2="32" y2="30.799999" gradientTransform="matrix(0.25,0,0,0.25,0,0)">
<stop offset="0" style="stop-color:rgb(75.294119%,75.294119%,75.294119%);stop-opacity:1;"/>
<stop offset="1" style="stop-color:rgb(55.686277%,55.686277%,55.686277%);stop-opacity:1;"/>
</linearGradient>
<linearGradient id="linear4" gradientUnits="userSpaceOnUse" x1="32.009998" y1="45.759998" x2="32.009998" y2="44.139999" gradientTransform="matrix(0.25,0,0,0.25,0,0)">
<stop offset="0" style="stop-color:rgb(75.294119%,75.294119%,75.294119%);stop-opacity:1;"/>
<stop offset="1" style="stop-color:rgb(55.686277%,55.686277%,55.686277%);stop-opacity:1;"/>
</linearGradient>
<linearGradient id="linear5" gradientUnits="userSpaceOnUse" x1="30.360001" y1="48.610001" x2="30.360001" y2="46.98" gradientTransform="matrix(0.25,0,0,0.25,0,0)">
<stop offset="0" style="stop-color:rgb(75.294119%,75.294119%,75.294119%);stop-opacity:1;"/>
<stop offset="1" style="stop-color:rgb(55.686277%,55.686277%,55.686277%);stop-opacity:1;"/>
</linearGradient>
</defs>
<g id="surface1">
<path style=" stroke:none;fill-rule:nonzero;fill:url(#linear0);" d="M 16 5.328125 C 16 4.621094 15.425781 4.046875 14.71875 4.046875 L 10.363281 4.046875 C 9.472656 4.046875 8.746094 3.335938 8.726562 2.445312 C 8.742188 1.539062 8.019531 0.792969 7.113281 0.773438 L 0.84375 0.773438 C 0.378906 0.773438 0 1.152344 0 1.621094 L 0 5.855469 L 16 5.855469 Z M 16 5.328125 "/>
<path style=" stroke:none;fill-rule:nonzero;fill:url(#linear1);" d="M 14.71875 4.679688 L 1.28125 4.679688 C 0.574219 4.679688 0 5.253906 0 5.960938 L 0 13.945312 C 0 14.652344 0.574219 15.226562 1.28125 15.226562 L 14.71875 15.226562 C 15.425781 15.226562 16 14.652344 16 13.945312 L 16 5.960938 C 16 5.253906 15.425781 4.679688 14.71875 4.679688 Z M 14.71875 4.679688 "/>
<path style=" stroke:none;fill-rule:nonzero;fill:url(#linear2);" d="M 8.328125 7 C 8.359375 7.066406 8.382812 7.136719 8.398438 7.210938 C 8.40625 7.34375 8.40625 7.476562 8.398438 7.609375 C 8.398438 7.691406 8.433594 7.71875 8.507812 7.71875 C 8.59375 7.714844 8.675781 7.714844 8.757812 7.71875 C 8.808594 7.71875 8.851562 7.746094 8.867188 7.789062 C 8.886719 7.835938 8.875 7.886719 8.84375 7.917969 C 8.59375 8.167969 8.34375 8.417969 8.09375 8.667969 C 8.070312 8.695312 8.039062 8.707031 8.003906 8.707031 C 7.96875 8.707031 7.9375 8.695312 7.914062 8.667969 C 7.664062 8.417969 7.429688 8.183594 7.191406 7.933594 C 7.160156 7.898438 7.148438 7.847656 7.15625 7.800781 C 7.183594 7.761719 7.226562 7.734375 7.273438 7.730469 C 7.359375 7.722656 7.441406 7.722656 7.523438 7.730469 C 7.601562 7.730469 7.636719 7.699219 7.636719 7.617188 C 7.636719 7.484375 7.636719 7.351562 7.636719 7.21875 C 7.652344 7.148438 7.675781 7.078125 7.703125 7.011719 Z M 8.328125 7 "/>
<path style=" stroke:none;fill-rule:nonzero;fill:url(#linear3);" d="M 9.839844 9.089844 L 10.433594 9.089844 C 10.570312 9.078125 10.703125 9.128906 10.800781 9.222656 C 10.894531 9.320312 10.945312 9.453125 10.933594 9.589844 C 10.933594 10.214844 10.933594 10.832031 10.933594 11.453125 C 10.945312 11.589844 10.894531 11.722656 10.800781 11.820312 C 10.703125 11.914062 10.570312 11.964844 10.433594 11.953125 L 9.839844 11.953125 L 9.839844 12.308594 C 9.855469 12.5 9.789062 12.683594 9.652344 12.816406 C 9.519531 12.949219 9.332031 13.019531 9.144531 13 L 6.859375 13 C 6.671875 13.011719 6.488281 12.945312 6.355469 12.8125 C 6.226562 12.679688 6.15625 12.496094 6.171875 12.308594 L 6.171875 11.945312 L 5.539062 11.945312 C 5.3125 11.949219 5.121094 11.789062 5.078125 11.570312 C 5.078125 11.527344 5.078125 11.484375 5.078125 11.441406 C 5.078125 10.824219 5.078125 10.210938 5.078125 9.59375 C 5.070312 9.457031 5.121094 9.324219 5.214844 9.226562 C 5.3125 9.132812 5.445312 9.082031 5.578125 9.09375 L 6.179688 9.09375 C 6.179688 8.828125 6.179688 8.574219 6.179688 8.320312 C 6.179688 8 6.425781 7.730469 6.75 7.703125 C 6.871094 7.703125 6.949219 7.746094 6.953125 7.84375 C 6.960938 7.941406 6.898438 7.996094 6.773438 8.011719 C 6.625 8.027344 6.507812 8.148438 6.5 8.296875 C 6.5 8.546875 6.5 8.8125 6.5 9.082031 L 9.523438 9.082031 C 9.523438 8.8125 9.523438 8.550781 9.523438 8.285156 C 9.507812 8.132812 9.382812 8.019531 9.230469 8.011719 C 9.105469 7.996094 9.046875 7.941406 9.058594 7.839844 C 9.066406 7.742188 9.132812 7.695312 9.261719 7.703125 C 9.558594 7.722656 9.796875 7.953125 9.828125 8.25 C 9.847656 8.472656 9.828125 8.695312 9.828125 8.917969 Z M 6.5 10.582031 C 6.5 10.601562 6.5 10.621094 6.5 10.644531 C 6.5 11.214844 6.5 11.789062 6.5 12.363281 C 6.5 12.570312 6.636719 12.6875 6.863281 12.6875 L 9.167969 12.6875 C 9.269531 12.703125 9.371094 12.667969 9.441406 12.597656 C 9.515625 12.523438 9.550781 12.421875 9.535156 12.320312 L 9.535156 10.691406 C 9.535156 10.65625 9.535156 10.617188 9.535156 10.582031 Z M 10.417969 10.042969 C 10.421875 9.980469 10.394531 9.917969 10.347656 9.875 C 10.300781 9.828125 10.234375 9.808594 10.167969 9.8125 C 10.105469 9.8125 10.042969 9.839844 9.996094 9.886719 C 9.953125 9.933594 9.929688 9.996094 9.933594 10.0625 C 9.941406 10.195312 10.054688 10.296875 10.183594 10.296875 C 10.25 10.296875 10.3125 10.269531 10.359375 10.222656 C 10.402344 10.175781 10.425781 10.109375 10.417969 10.042969 Z M 10.417969 10.042969 "/>
<path style=" stroke:none;fill-rule:nonzero;fill:url(#linear4);" d="M 8.960938 11.035156 L 8.960938 11.441406 L 7.046875 11.441406 L 7.046875 11.035156 Z M 8.960938 11.035156 "/>
<path style=" stroke:none;fill-rule:nonzero;fill:url(#linear5);" d="M 7.050781 11.75 L 8.128906 11.75 L 8.128906 12.15625 L 7.050781 12.15625 Z M 7.050781 11.75 "/>
</g>
</svg>
