
<svg xmlns="http://www.w3.org/2000/svg" xmlns:xlink="http://www.w3.org/1999/xlink" width="16px" height="16px" viewBox="0 0 16 16" version="1.1">
<defs>
<linearGradient id="linear0" gradientUnits="userSpaceOnUse" x1="32" y1="3.8" x2="32" y2="23.49" gradientTransform="matrix(0.25,0,0,0.25,0,0)">
<stop offset="0" style="stop-color:rgb(16.078432%,71.372551%,96.470588%);stop-opacity:1;"/>
<stop offset="0.67" style="stop-color:rgb(39.607844%,45.09804%,82.745099%);stop-opacity:1;"/>
<stop offset="1" style="stop-color:rgb(49.411765%,34.117648%,76.862746%);stop-opacity:1;"/>
</linearGradient>
<linearGradient id="linear1" gradientUnits="userSpaceOnUse" x1="32" y1="60.900002" x2="32" y2="18.719999" gradientTransform="matrix(0.25,0,0,0.25,0,0)">
<stop offset="0" style="stop-color:rgb(86.274511%,87.058824%,88.627452%);stop-opacity:1;"/>
<stop offset="0.57" style="stop-color:rgb(87.058824%,87.843138%,89.411765%);stop-opacity:1;"/>
<stop offset="0.81" style="stop-color:rgb(89.803922%,90.588236%,91.764706%);stop-opacity:1;"/>
<stop offset="0.99" style="stop-color:rgb(94.901961%,95.294118%,95.686275%);stop-opacity:1;"/>
<stop offset="1" style="stop-color:rgb(95.294118%,95.686275%,96.078432%);stop-opacity:1;"/>
</linearGradient>
<linearGradient id="linear2" gradientUnits="userSpaceOnUse" x1="32" y1="52.360001" x2="32" y2="27.360001" gradientTransform="matrix(0.25,0,0,0.25,0,0)">
<stop offset="0" style="stop-color:rgb(75.294119%,75.294119%,75.294119%);stop-opacity:1;"/>
<stop offset="1" style="stop-color:rgb(55.686277%,55.686277%,55.686277%);stop-opacity:1;"/>
</linearGradient>
</defs>
<g id="surface1">
<path style=" stroke:none;fill-rule:nonzero;fill:url(#linear0);" d="M 16 5.328125 C 16 4.621094 15.425781 4.046875 14.71875 4.046875 L 10.363281 4.046875 C 9.472656 4.046875 8.746094 3.335938 8.726562 2.445312 C 8.742188 1.539062 8.019531 0.792969 7.113281 0.773438 L 0.84375 0.773438 C 0.378906 0.773438 0 1.152344 0 1.621094 L 0 5.855469 L 16 5.855469 Z M 16 5.328125 "/>
<path style=" stroke:none;fill-rule:nonzero;fill:url(#linear1);" d="M 14.71875 4.679688 L 1.28125 4.679688 C 0.574219 4.679688 0 5.253906 0 5.960938 L 0 13.945312 C 0 14.652344 0.574219 15.226562 1.28125 15.226562 L 14.71875 15.226562 C 15.425781 15.226562 16 14.652344 16 13.945312 L 16 5.960938 C 16 5.253906 15.425781 4.679688 14.71875 4.679688 Z M 14.71875 4.679688 "/>
<path style=" stroke:none;fill-rule:nonzero;fill:url(#linear2);" d="M 8.089844 13.089844 L 7.929688 13.089844 C 7.800781 13.078125 7.6875 13.015625 7.605469 12.917969 C 6.757812 12.070312 5.90625 11.21875 5.054688 10.371094 C 4.960938 10.292969 4.898438 10.1875 4.875 10.070312 L 4.875 9.855469 C 4.894531 9.738281 4.953125 9.632812 5.042969 9.554688 C 5.59375 9.011719 6.140625 8.464844 6.683594 7.917969 L 6.773438 7.824219 C 6.859375 7.746094 6.875 7.746094 6.953125 7.824219 L 7.550781 8.417969 C 7.597656 8.460938 7.613281 8.519531 7.601562 8.582031 C 7.542969 8.777344 7.632812 8.988281 7.816406 9.082031 C 7.855469 9.105469 7.878906 9.152344 7.871094 9.195312 L 7.871094 9.898438 C 7.871094 10.191406 7.871094 10.488281 7.871094 10.78125 C 7.878906 10.84375 7.84375 10.910156 7.785156 10.9375 C 7.628906 11.03125 7.550781 11.21875 7.59375 11.398438 C 7.636719 11.582031 7.792969 11.714844 7.984375 11.730469 C 8.171875 11.742188 8.34375 11.632812 8.414062 11.457031 C 8.484375 11.28125 8.429688 11.082031 8.28125 10.964844 C 8.207031 10.917969 8.167969 10.832031 8.179688 10.746094 C 8.179688 10.257812 8.179688 9.773438 8.179688 9.285156 C 8.179688 9.238281 8.15625 9.175781 8.210938 9.148438 C 8.265625 9.125 8.296875 9.191406 8.332031 9.226562 C 8.496094 9.382812 8.65625 9.554688 8.832031 9.726562 C 8.894531 9.773438 8.917969 9.855469 8.898438 9.933594 C 8.855469 10.140625 8.972656 10.34375 9.171875 10.414062 C 9.367188 10.484375 9.582031 10.40625 9.6875 10.230469 C 9.792969 10.054688 9.757812 9.824219 9.601562 9.691406 C 9.507812 9.601562 9.378906 9.566406 9.253906 9.589844 C 9.183594 9.605469 9.109375 9.582031 9.066406 9.523438 L 8.492188 8.945312 C 8.449219 8.910156 8.429688 8.851562 8.4375 8.796875 C 8.464844 8.660156 8.421875 8.515625 8.320312 8.414062 C 8.222656 8.3125 8.078125 8.269531 7.9375 8.296875 C 7.882812 8.304688 7.824219 8.285156 7.789062 8.246094 L 7.175781 7.632812 C 7.101562 7.554688 7.101562 7.539062 7.175781 7.457031 C 7.316406 7.316406 7.464844 7.179688 7.601562 7.03125 C 7.675781 6.9375 7.785156 6.875 7.90625 6.863281 L 8.101562 6.863281 C 8.21875 6.878906 8.324219 6.9375 8.398438 7.027344 C 9.25 7.886719 10.105469 8.742188 10.964844 9.589844 C 11.058594 9.671875 11.121094 9.789062 11.132812 9.914062 L 11.132812 10.074219 C 11.121094 10.207031 11.054688 10.332031 10.945312 10.414062 C 10.113281 11.25 9.28125 12.082031 8.445312 12.914062 C 8.355469 13.019531 8.226562 13.082031 8.089844 13.089844 Z M 8.089844 13.089844 "/>
</g>
</svg>
