
<svg xmlns="http://www.w3.org/2000/svg" xmlns:xlink="http://www.w3.org/1999/xlink" width="16px" height="16px" viewBox="0 0 16 16" version="1.1">
<defs>
<linearGradient id="linear0" gradientUnits="userSpaceOnUse" x1="32" y1="3.8" x2="32" y2="23.49" gradientTransform="matrix(0.25,0,0,0.25,0,0)">
<stop offset="0" style="stop-color:rgb(16.078431%,71.372549%,96.470588%);stop-opacity:1;"/>
<stop offset="0.67" style="stop-color:rgb(39.607843%,45.098039%,82.745098%);stop-opacity:1;"/>
<stop offset="1" style="stop-color:rgb(49.411765%,34.117647%,76.862745%);stop-opacity:1;"/>
</linearGradient>
<linearGradient id="linear1" gradientUnits="userSpaceOnUse" x1="32" y1="60.9" x2="32" y2="18.72" gradientTransform="matrix(0.25,0,0,0.25,0,0)">
<stop offset="0" style="stop-color:rgb(86.27451%,87.058824%,88.627451%);stop-opacity:1;"/>
<stop offset="0.57" style="stop-color:rgb(87.058824%,87.843137%,89.411765%);stop-opacity:1;"/>
<stop offset="0.81" style="stop-color:rgb(89.803922%,90.588235%,91.764706%);stop-opacity:1;"/>
<stop offset="0.99" style="stop-color:rgb(94.901961%,95.294118%,95.686275%);stop-opacity:1;"/>
<stop offset="1" style="stop-color:rgb(95.294118%,95.686275%,96.078431%);stop-opacity:1;"/>
</linearGradient>
<linearGradient id="linear2" gradientUnits="userSpaceOnUse" x1="32" y1="48.87" x2="32" y2="29.99" gradientTransform="matrix(0.25,0,0,0.25,0,0)">
<stop offset="0" style="stop-color:rgb(92.54902%,25.098039%,47.843137%);stop-opacity:1;"/>
<stop offset="1" style="stop-color:rgb(49.411765%,34.117647%,76.862745%);stop-opacity:1;"/>
</linearGradient>
</defs>
<g id="surface1">
<path style=" stroke:none;fill-rule:nonzero;fill:url(#linear0);" d="M 16 5.328125 C 16 4.621094 15.425781 4.046875 14.71875 4.046875 L 10.363281 4.046875 C 9.472656 4.046875 8.746094 3.335938 8.726562 2.445312 C 8.742188 1.539062 8.019531 0.792969 7.113281 0.773438 L 0.84375 0.773438 C 0.378906 0.773438 0 1.152344 0 1.621094 L 0 5.855469 L 16 5.855469 Z M 16 5.328125 "/>
<path style=" stroke:none;fill-rule:nonzero;fill:url(#linear1);" d="M 14.71875 4.679688 L 1.28125 4.679688 C 0.574219 4.679688 0 5.253906 0 5.960938 L 0 13.945312 C 0 14.652344 0.574219 15.226562 1.28125 15.226562 L 14.71875 15.226562 C 15.425781 15.226562 16 14.652344 16 13.945312 L 16 5.960938 C 16 5.253906 15.425781 4.679688 14.71875 4.679688 Z M 14.71875 4.679688 "/>
<path style=" stroke:none;fill-rule:nonzero;fill:url(#linear2);" d="M 10.859375 7.171875 L 10.53125 7.171875 C 10.449219 7.171875 10.378906 7.242188 10.378906 7.324219 L 10.378906 7.613281 C 10.378906 7.699219 10.3125 7.765625 10.230469 7.765625 L 10 7.765625 C 9.960938 7.765625 9.921875 7.75 9.890625 7.722656 C 9.863281 7.695312 9.847656 7.65625 9.847656 7.613281 L 9.847656 7.324219 C 9.847656 7.242188 9.777344 7.171875 9.695312 7.171875 L 6.296875 7.171875 C 6.214844 7.171875 6.144531 7.242188 6.144531 7.324219 L 6.144531 7.613281 C 6.144531 7.65625 6.128906 7.695312 6.101562 7.722656 C 6.070312 7.75 6.03125 7.765625 5.992188 7.765625 L 5.769531 7.765625 C 5.6875 7.765625 5.621094 7.699219 5.621094 7.613281 L 5.621094 7.324219 C 5.621094 7.242188 5.550781 7.171875 5.46875 7.171875 L 5.140625 7.171875 C 5.101562 7.171875 5.0625 7.1875 5.03125 7.21875 C 5.003906 7.246094 4.988281 7.285156 4.988281 7.324219 L 4.988281 12.289062 C 4.988281 12.332031 5.003906 12.367188 5.03125 12.398438 C 5.0625 12.425781 5.101562 12.441406 5.140625 12.441406 L 5.46875 12.441406 C 5.550781 12.441406 5.621094 12.375 5.621094 12.289062 L 5.621094 12 C 5.621094 11.917969 5.6875 11.851562 5.769531 11.851562 L 6 11.851562 C 6.039062 11.847656 6.078125 11.863281 6.109375 11.894531 C 6.136719 11.921875 6.152344 11.960938 6.152344 12 L 6.152344 12.289062 C 6.152344 12.375 6.222656 12.441406 6.304688 12.441406 L 9.703125 12.441406 C 9.785156 12.441406 9.855469 12.375 9.855469 12.289062 L 9.855469 12 C 9.855469 11.960938 9.871094 11.921875 9.898438 11.894531 C 9.929688 11.863281 9.96875 11.847656 10.007812 11.851562 L 10.230469 11.851562 C 10.3125 11.851562 10.378906 11.917969 10.378906 12 L 10.378906 12.289062 C 10.378906 12.375 10.449219 12.441406 10.53125 12.441406 L 10.859375 12.441406 C 10.898438 12.441406 10.9375 12.425781 10.96875 12.398438 C 10.996094 12.367188 11.011719 12.332031 11.011719 12.289062 L 11.011719 7.324219 C 11.011719 7.285156 10.996094 7.246094 10.96875 7.21875 C 10.9375 7.1875 10.898438 7.171875 10.859375 7.171875 Z M 6.144531 10.78125 C 6.144531 10.867188 6.078125 10.933594 5.992188 10.933594 L 5.769531 10.933594 C 5.730469 10.933594 5.691406 10.917969 5.664062 10.890625 C 5.636719 10.863281 5.621094 10.824219 5.621094 10.78125 L 5.621094 10.417969 C 5.621094 10.378906 5.636719 10.339844 5.664062 10.308594 C 5.691406 10.28125 5.730469 10.265625 5.769531 10.265625 L 6 10.265625 C 6.085938 10.265625 6.152344 10.332031 6.152344 10.417969 Z M 6.144531 9.199219 C 6.144531 9.28125 6.078125 9.351562 5.992188 9.351562 L 5.769531 9.351562 C 5.730469 9.351562 5.691406 9.332031 5.664062 9.304688 C 5.636719 9.277344 5.621094 9.238281 5.621094 9.199219 L 5.621094 8.832031 C 5.621094 8.75 5.6875 8.679688 5.769531 8.679688 L 6 8.679688 C 6.085938 8.679688 6.152344 8.75 6.152344 8.832031 Z M 10.378906 10.78125 C 10.378906 10.824219 10.363281 10.863281 10.335938 10.890625 C 10.308594 10.917969 10.269531 10.933594 10.230469 10.933594 L 10 10.933594 C 9.914062 10.933594 9.847656 10.867188 9.847656 10.78125 L 9.847656 10.417969 C 9.847656 10.332031 9.914062 10.265625 10 10.265625 L 10.222656 10.265625 C 10.261719 10.265625 10.300781 10.28125 10.328125 10.308594 C 10.359375 10.339844 10.375 10.378906 10.371094 10.417969 Z M 10.378906 9.199219 C 10.378906 9.238281 10.363281 9.277344 10.335938 9.304688 C 10.308594 9.332031 10.269531 9.351562 10.230469 9.351562 L 10 9.351562 C 9.914062 9.351562 9.847656 9.28125 9.847656 9.199219 L 9.847656 8.832031 C 9.847656 8.75 9.914062 8.679688 10 8.679688 L 10.222656 8.679688 C 10.304688 8.679688 10.371094 8.75 10.371094 8.832031 Z M 9.28125 9.585938 L 6.65625 9.585938 L 6.65625 7.75 L 9.28125 7.75 Z M 9.28125 11.875 L 6.65625 11.875 L 6.65625 10.039062 L 9.28125 10.039062 Z M 9.28125 11.875 "/>
</g>
</svg>
