
<svg xmlns="http://www.w3.org/2000/svg" xmlns:xlink="http://www.w3.org/1999/xlink" width="16px" height="16px" viewBox="0 0 16 16" version="1.1">
<defs>
<linearGradient id="linear0" gradientUnits="userSpaceOnUse" x1="-26.201" y1="1070.199951" x2="-26.201" y2="1082.599976" gradientTransform="matrix(0.177112,0,0,0.177112,8.720794,-187.738952)">
<stop offset="0" style="stop-color:rgb(99.215686%,47.058824%,77.64706%);stop-opacity:1;"/>
<stop offset="1" style="stop-color:rgb(100%,48.235294%,78.823531%);stop-opacity:1;"/>
</linearGradient>
<linearGradient id="linear1" gradientUnits="userSpaceOnUse" x1="-9.912" y1="1081.400024" x2="-9.912" y2="1139.800049" gradientTransform="matrix(0.177112,0,0,0.177112,8.720794,-187.738952)">
<stop offset="0" style="stop-color:rgb(98.823529%,23.529412%,73.725492%);stop-opacity:1;"/>
<stop offset="0.5" style="stop-color:rgb(100%,34.901962%,78.431374%);stop-opacity:1;"/>
<stop offset="1" style="stop-color:rgb(96.470588%,30.19608%,74.509805%);stop-opacity:1;"/>
</linearGradient>
<filter id="alpha" filterUnits="objectBoundingBox" x="0%" y="0%" width="100%" height="100%">
  <feColorMatrix type="matrix" in="SourceGraphic" values="0 0 0 0 1 0 0 0 0 1 0 0 0 0 1 0 0 0 1 0"/>
</filter>
<mask id="mask0">
  <g filter="url(#alpha)">
<rect x="0" y="0" width="16" height="16" style="fill:rgb(0%,0%,0%);fill-opacity:0.08;stroke:none;"/>
  </g>
</mask>
<clipPath id="clip1">
  <rect x="0" y="0" width="16" height="16"/>
</clipPath>
<g id="surface5" clip-path="url(#clip1)">
<path style=" stroke:none;fill-rule:nonzero;fill:rgb(0%,0%,0%);fill-opacity:1;" d="M 0.214844 13.121094 L 0.214844 13.296875 L 15.789062 13.296875 L 15.789062 13.121094 L 0.210938 13.121094 Z M 0.214844 13.511719 L 0.214844 13.605469 C 0.214844 13.632812 0.214844 13.660156 0.21875 13.6875 L 15.78125 13.6875 C 15.785156 13.660156 15.789062 13.632812 15.789062 13.605469 L 15.789062 13.511719 Z M 0.214844 13.511719 "/>
</g>
<mask id="mask1">
  <g filter="url(#alpha)">
<rect x="0" y="0" width="16" height="16" style="fill:rgb(0%,0%,0%);fill-opacity:0.25;stroke:none;"/>
  </g>
</mask>
<linearGradient id="linear2" gradientUnits="userSpaceOnUse" x1="-9.617" y1="1138.400024" x2="-9.617" y2="1140.199951" gradientTransform="matrix(0.177112,0,0,0.177112,8.720794,-187.738952)">
<stop offset="0" style="stop-color:rgb(0%,0%,0%);stop-opacity:0.046784;"/>
<stop offset="1" style="stop-color:rgb(0%,0%,0%);stop-opacity:1;"/>
</linearGradient>
<clipPath id="clip2">
  <rect x="0" y="0" width="16" height="16"/>
</clipPath>
<g id="surface8" clip-path="url(#clip2)">
<path style=" stroke:none;fill-rule:nonzero;fill:url(#linear2);" d="M 0.265625 13.851562 C 0.359375 14.058594 0.566406 14.195312 0.796875 14.191406 L 15.207031 14.191406 C 15.445312 14.191406 15.648438 14.050781 15.738281 13.851562 Z M 0.265625 13.851562 "/>
</g>
<mask id="mask2">
  <g filter="url(#alpha)">
<rect x="0" y="0" width="16" height="16" style="fill:rgb(0%,0%,0%);fill-opacity:0.15;stroke:none;"/>
  </g>
</mask>
<clipPath id="clip3">
  <rect x="0" y="0" width="16" height="16"/>
</clipPath>
<g id="surface11" clip-path="url(#clip3)">
<path style=" stroke:none;fill-rule:nonzero;fill:rgb(0%,0%,0%);fill-opacity:1;" d="M 10.800781 9.199219 L 5.800781 11.953125 C 5.59375 12.070312 5.355469 11.921875 5.355469 11.683594 L 5.355469 6.183594 C 5.355469 5.945312 5.59375 5.828125 5.800781 5.914062 L 10.800781 8.667969 C 10.894531 8.722656 10.957031 8.824219 10.957031 8.933594 C 10.957031 9.042969 10.894531 9.144531 10.800781 9.199219 Z M 10.800781 9.199219 "/>
</g>
</defs>
<g id="surface1">
<path style=" stroke:none;fill-rule:nonzero;fill:url(#linear0);" d="M 0.792969 1.804688 L 4.710938 1.804688 C 5.292969 1.804688 5.535156 3.058594 6.082031 3.058594 L 15.207031 3.058594 C 15.359375 3.058594 15.507812 3.121094 15.617188 3.230469 C 15.726562 3.335938 15.789062 3.484375 15.789062 3.640625 L 15.789062 12.585938 C 15.789062 12.90625 15.527344 12.226562 15.207031 12.226562 L 0.792969 12.226562 C 0.640625 12.226562 0.492188 12.167969 0.382812 12.058594 C 0.273438 11.949219 0.210938 11.800781 0.210938 11.644531 L 0.210938 2.386719 C 0.210938 2.234375 0.273438 2.085938 0.382812 1.976562 C 0.492188 1.867188 0.640625 1.804688 0.792969 1.804688 Z M 0.792969 1.804688 "/>
<path style=" stroke:none;fill-rule:nonzero;fill:url(#linear1);" d="M 0.792969 3.773438 L 15.207031 3.773438 C 15.359375 3.773438 15.507812 3.832031 15.617188 3.941406 C 15.726562 4.050781 15.789062 4.199219 15.789062 4.355469 L 15.789062 13.613281 C 15.789062 13.765625 15.726562 13.914062 15.617188 14.023438 C 15.507812 14.132812 15.359375 14.195312 15.207031 14.195312 L 0.792969 14.195312 C 0.636719 14.195312 0.492188 14.132812 0.382812 14.023438 C 0.273438 13.914062 0.210938 13.765625 0.210938 13.613281 L 0.210938 4.355469 C 0.210938 4.199219 0.273438 4.050781 0.382812 3.941406 C 0.492188 3.832031 0.636719 3.773438 0.792969 3.773438 Z M 0.792969 3.773438 "/>
<use xlink:href="#surface5" mask="url(#mask0)"/>
<use xlink:href="#surface8" mask="url(#mask1)"/>
<use xlink:href="#surface11" mask="url(#mask2)"/>
</g>
</svg>
