
<svg xmlns="http://www.w3.org/2000/svg" xmlns:xlink="http://www.w3.org/1999/xlink" width="16px" height="16px" viewBox="0 0 16 16" version="1.1">
<defs>
<linearGradient id="linear0" gradientUnits="userSpaceOnUse" x1="32" y1="3.8" x2="32" y2="23.49" gradientTransform="matrix(0.25,0,0,0.25,0,0)">
<stop offset="0" style="stop-color:rgb(16.078432%,71.372551%,96.470588%);stop-opacity:1;"/>
<stop offset="0.67" style="stop-color:rgb(39.607844%,45.09804%,82.745099%);stop-opacity:1;"/>
<stop offset="1" style="stop-color:rgb(49.411765%,34.117648%,76.862746%);stop-opacity:1;"/>
</linearGradient>
<linearGradient id="linear1" gradientUnits="userSpaceOnUse" x1="32" y1="60.900002" x2="32" y2="18.719999" gradientTransform="matrix(0.25,0,0,0.25,0,0)">
<stop offset="0" style="stop-color:rgb(86.274511%,87.058824%,88.627452%);stop-opacity:1;"/>
<stop offset="0.57" style="stop-color:rgb(87.058824%,87.843138%,89.411765%);stop-opacity:1;"/>
<stop offset="0.81" style="stop-color:rgb(89.803922%,90.588236%,91.764706%);stop-opacity:1;"/>
<stop offset="0.99" style="stop-color:rgb(94.901961%,95.294118%,95.686275%);stop-opacity:1;"/>
<stop offset="1" style="stop-color:rgb(95.294118%,95.686275%,96.078432%);stop-opacity:1;"/>
</linearGradient>
<linearGradient id="linear2" gradientUnits="userSpaceOnUse" x1="29.32" y1="51.639999" x2="29.32" y2="28.209999" gradientTransform="matrix(0.25,0,0,0.25,0,0)">
<stop offset="0" style="stop-color:rgb(75.294119%,75.294119%,75.294119%);stop-opacity:1;"/>
<stop offset="1" style="stop-color:rgb(55.686277%,55.686277%,55.686277%);stop-opacity:1;"/>
</linearGradient>
<linearGradient id="linear3" gradientUnits="userSpaceOnUse" x1="30.58" y1="51.639999" x2="30.58" y2="28.209999" gradientTransform="matrix(0.25,0,0,0.25,0,0)">
<stop offset="0" style="stop-color:rgb(75.294119%,75.294119%,75.294119%);stop-opacity:1;"/>
<stop offset="1" style="stop-color:rgb(55.686277%,55.686277%,55.686277%);stop-opacity:1;"/>
</linearGradient>
<linearGradient id="linear4" gradientUnits="userSpaceOnUse" x1="33.419998" y1="51.639999" x2="33.419998" y2="28.209999" gradientTransform="matrix(0.25,0,0,0.25,0,0)">
<stop offset="0" style="stop-color:rgb(75.294119%,75.294119%,75.294119%);stop-opacity:1;"/>
<stop offset="1" style="stop-color:rgb(55.686277%,55.686277%,55.686277%);stop-opacity:1;"/>
</linearGradient>
<linearGradient id="linear5" gradientUnits="userSpaceOnUse" x1="30.58" y1="51.639999" x2="30.58" y2="28.209999" gradientTransform="matrix(0.25,0,0,0.25,0,0)">
<stop offset="0" style="stop-color:rgb(75.294119%,75.294119%,75.294119%);stop-opacity:1;"/>
<stop offset="1" style="stop-color:rgb(55.686277%,55.686277%,55.686277%);stop-opacity:1;"/>
</linearGradient>
<linearGradient id="linear6" gradientUnits="userSpaceOnUse" x1="30.58" y1="51.639999" x2="30.58" y2="28.209999" gradientTransform="matrix(0.25,0,0,0.25,0,0)">
<stop offset="0" style="stop-color:rgb(75.294119%,75.294119%,75.294119%);stop-opacity:1;"/>
<stop offset="1" style="stop-color:rgb(55.686277%,55.686277%,55.686277%);stop-opacity:1;"/>
</linearGradient>
<linearGradient id="linear7" gradientUnits="userSpaceOnUse" x1="30.58" y1="51.639999" x2="30.58" y2="28.209999" gradientTransform="matrix(0.25,0,0,0.25,0,0)">
<stop offset="0" style="stop-color:rgb(75.294119%,75.294119%,75.294119%);stop-opacity:1;"/>
<stop offset="1" style="stop-color:rgb(55.686277%,55.686277%,55.686277%);stop-opacity:1;"/>
</linearGradient>
<linearGradient id="linear8" gradientUnits="userSpaceOnUse" x1="29.08" y1="51.639999" x2="29.08" y2="28.209999" gradientTransform="matrix(0.25,0,0,0.25,0,0)">
<stop offset="0" style="stop-color:rgb(75.294119%,75.294119%,75.294119%);stop-opacity:1;"/>
<stop offset="1" style="stop-color:rgb(55.686277%,55.686277%,55.686277%);stop-opacity:1;"/>
</linearGradient>
<linearGradient id="linear9" gradientUnits="userSpaceOnUse" x1="33.59" y1="51.639999" x2="33.59" y2="28.209999" gradientTransform="matrix(0.25,0,0,0.25,0,0)">
<stop offset="0" style="stop-color:rgb(75.294119%,75.294119%,75.294119%);stop-opacity:1;"/>
<stop offset="1" style="stop-color:rgb(55.686277%,55.686277%,55.686277%);stop-opacity:1;"/>
</linearGradient>
<linearGradient id="linear10" gradientUnits="userSpaceOnUse" x1="27.57" y1="51.639999" x2="27.57" y2="28.209999" gradientTransform="matrix(0.25,0,0,0.25,0,0)">
<stop offset="0" style="stop-color:rgb(75.294119%,75.294119%,75.294119%);stop-opacity:1;"/>
<stop offset="1" style="stop-color:rgb(55.686277%,55.686277%,55.686277%);stop-opacity:1;"/>
</linearGradient>
</defs>
<g id="surface1">
<path style=" stroke:none;fill-rule:nonzero;fill:url(#linear0);" d="M 16 5.328125 C 16 4.621094 15.425781 4.046875 14.71875 4.046875 L 10.363281 4.046875 C 9.472656 4.046875 8.746094 3.335938 8.726562 2.445312 C 8.742188 1.539062 8.019531 0.792969 7.113281 0.773438 L 0.84375 0.773438 C 0.378906 0.773438 0 1.152344 0 1.621094 L 0 5.855469 L 16 5.855469 Z M 16 5.328125 "/>
<path style=" stroke:none;fill-rule:nonzero;fill:url(#linear1);" d="M 14.71875 4.679688 L 1.28125 4.679688 C 0.574219 4.679688 0 5.253906 0 5.960938 L 0 13.945312 C 0 14.652344 0.574219 15.226562 1.28125 15.226562 L 14.71875 15.226562 C 15.425781 15.226562 16 14.652344 16 13.945312 L 16 5.960938 C 16 5.253906 15.425781 4.679688 14.71875 4.679688 Z M 14.71875 4.679688 "/>
<path style=" stroke:none;fill-rule:nonzero;fill:url(#linear2);" d="M 7.214844 7.191406 C 7.121094 7.191406 7.042969 7.265625 7.042969 7.363281 C 7.042969 7.457031 7.121094 7.535156 7.214844 7.535156 L 7.617188 7.535156 C 7.605469 7.476562 7.601562 7.421875 7.601562 7.363281 C 7.601562 7.304688 7.605469 7.246094 7.617188 7.191406 Z M 7.214844 7.191406 "/>
<path style=" stroke:none;fill-rule:nonzero;fill:url(#linear3);" d="M 9.792969 12.304688 L 9.792969 7.363281 C 9.792969 7.265625 9.71875 7.191406 9.621094 7.191406 L 8.71875 7.191406 C 8.625 7.191406 8.546875 7.265625 8.546875 7.363281 C 8.546875 7.457031 8.625 7.535156 8.71875 7.535156 L 9.449219 7.535156 L 9.449219 12.132812 L 5.839844 12.132812 L 5.839844 7.535156 L 6.109375 7.535156 C 6.101562 7.476562 6.097656 7.421875 6.097656 7.363281 C 6.097656 7.304688 6.101562 7.246094 6.109375 7.191406 L 5.667969 7.191406 C 5.574219 7.191406 5.496094 7.265625 5.496094 7.363281 L 5.496094 12.304688 C 5.496094 12.402344 5.574219 12.476562 5.667969 12.476562 L 9.621094 12.476562 C 9.71875 12.476562 9.792969 12.402344 9.792969 12.304688 Z M 9.792969 12.304688 "/>
<path style=" stroke:none;fill-rule:nonzero;fill:url(#linear4);" d="M 10.332031 7.898438 C 10.238281 7.898438 10.160156 7.976562 10.160156 8.070312 L 10.160156 12.84375 L 6.378906 12.84375 C 6.28125 12.84375 6.203125 12.917969 6.203125 13.015625 C 6.203125 13.109375 6.28125 13.1875 6.378906 13.1875 L 10.332031 13.1875 C 10.429688 13.1875 10.503906 13.109375 10.503906 13.015625 L 10.503906 8.070312 C 10.503906 7.976562 10.429688 7.898438 10.332031 7.898438 Z M 10.332031 7.898438 "/>
<path style=" stroke:none;fill-rule:nonzero;fill:url(#linear5);" d="M 6.570312 9.082031 L 8.71875 9.082031 C 8.816406 9.082031 8.894531 9.003906 8.894531 8.910156 C 8.894531 8.816406 8.816406 8.738281 8.71875 8.738281 L 6.570312 8.738281 C 6.476562 8.738281 6.398438 8.816406 6.398438 8.910156 C 6.398438 9.003906 6.476562 9.082031 6.570312 9.082031 Z M 6.570312 9.082031 "/>
<path style=" stroke:none;fill-rule:nonzero;fill:url(#linear6);" d="M 6.570312 9.855469 L 8.71875 9.855469 C 8.816406 9.855469 8.894531 9.777344 8.894531 9.683594 C 8.894531 9.636719 8.875 9.59375 8.84375 9.5625 C 8.808594 9.53125 8.765625 9.511719 8.71875 9.511719 L 6.570312 9.511719 C 6.523438 9.511719 6.480469 9.53125 6.449219 9.5625 C 6.414062 9.59375 6.398438 9.636719 6.398438 9.683594 C 6.398438 9.777344 6.476562 9.855469 6.570312 9.855469 Z M 6.570312 9.855469 "/>
<path style=" stroke:none;fill-rule:nonzero;fill:url(#linear7);" d="M 6.570312 10.628906 L 8.71875 10.628906 C 8.816406 10.628906 8.894531 10.554688 8.894531 10.457031 C 8.894531 10.363281 8.816406 10.285156 8.71875 10.285156 L 6.570312 10.285156 C 6.476562 10.285156 6.398438 10.363281 6.398438 10.457031 C 6.398438 10.554688 6.476562 10.628906 6.570312 10.628906 Z M 6.570312 10.628906 "/>
<path style=" stroke:none;fill-rule:nonzero;fill:url(#linear8);" d="M 6.570312 11.402344 L 7.972656 11.402344 C 8.019531 11.402344 8.0625 11.382812 8.09375 11.351562 C 8.125 11.320312 8.144531 11.277344 8.144531 11.230469 C 8.144531 11.183594 8.125 11.140625 8.09375 11.109375 C 8.0625 11.078125 8.019531 11.058594 7.972656 11.058594 L 6.570312 11.058594 C 6.523438 11.058594 6.480469 11.078125 6.449219 11.109375 C 6.414062 11.140625 6.398438 11.183594 6.398438 11.230469 C 6.398438 11.324219 6.476562 11.402344 6.570312 11.402344 Z M 6.570312 11.402344 "/>
<path style=" stroke:none;fill-rule:nonzero;fill:url(#linear9);" d="M 8.71875 8.179688 C 8.816406 8.179688 8.894531 8.101562 8.894531 8.007812 C 8.894531 7.914062 8.816406 7.835938 8.71875 7.835938 C 8.527344 7.835938 8.351562 7.714844 8.28125 7.535156 C 8.257812 7.480469 8.25 7.421875 8.246094 7.363281 C 8.25 7.304688 8.257812 7.246094 8.28125 7.191406 C 8.351562 7.007812 8.527344 6.890625 8.71875 6.890625 C 8.816406 6.890625 8.894531 6.8125 8.894531 6.71875 C 8.894531 6.621094 8.816406 6.546875 8.71875 6.546875 C 8.335938 6.546875 8.003906 6.8125 7.921875 7.191406 C 7.910156 7.246094 7.902344 7.304688 7.902344 7.363281 C 7.90625 7.8125 8.269531 8.175781 8.71875 8.179688 Z M 8.71875 8.179688 "/>
<path style=" stroke:none;fill-rule:nonzero;fill:url(#linear10);" d="M 7.214844 8.179688 C 7.308594 8.179688 7.386719 8.101562 7.386719 8.007812 C 7.386719 7.914062 7.308594 7.835938 7.214844 7.835938 C 7.019531 7.835938 6.847656 7.714844 6.773438 7.535156 C 6.753906 7.480469 6.742188 7.421875 6.742188 7.363281 C 6.742188 7.304688 6.753906 7.246094 6.773438 7.191406 C 6.847656 7.007812 7.019531 6.890625 7.214844 6.890625 C 7.308594 6.890625 7.386719 6.8125 7.386719 6.71875 C 7.386719 6.621094 7.308594 6.546875 7.214844 6.546875 C 6.832031 6.546875 6.5 6.816406 6.417969 7.191406 C 6.40625 7.246094 6.398438 7.304688 6.398438 7.363281 C 6.402344 7.8125 6.765625 8.175781 7.214844 8.179688 Z M 7.214844 8.179688 "/>
</g>
</svg>
