
<svg xmlns="http://www.w3.org/2000/svg" xmlns:xlink="http://www.w3.org/1999/xlink" width="16px" height="16px" viewBox="0 0 16 16" version="1.1">
<defs>
<linearGradient id="linear0" gradientUnits="userSpaceOnUse" x1="-26.201" y1="1070.199951" x2="-26.201" y2="1082.599976" gradientTransform="matrix(0.177112,0,0,0.177112,8.7592,-187.591992)">
<stop offset="0" style="stop-color:rgb(47.058824%,85.09804%,99.215686%);stop-opacity:1;"/>
<stop offset="1" style="stop-color:rgb(48.235294%,87.058824%,100%);stop-opacity:1;"/>
</linearGradient>
<linearGradient id="linear1" gradientUnits="userSpaceOnUse" x1="-9.912" y1="1081.400024" x2="-9.912" y2="1139.800049" gradientTransform="matrix(0.177112,0,0,0.177112,8.7592,-187.591992)">
<stop offset="0" style="stop-color:rgb(20.784314%,79.215688%,98.823529%);stop-opacity:1;"/>
<stop offset="0.5" style="stop-color:rgb(31.37255%,83.137256%,100%);stop-opacity:1;"/>
<stop offset="1" style="stop-color:rgb(30.19608%,79.607844%,96.470588%);stop-opacity:1;"/>
</linearGradient>
<filter id="alpha" filterUnits="objectBoundingBox" x="0%" y="0%" width="100%" height="100%">
  <feColorMatrix type="matrix" in="SourceGraphic" values="0 0 0 0 1 0 0 0 0 1 0 0 0 0 1 0 0 0 1 0"/>
</filter>
<mask id="mask0">
  <g filter="url(#alpha)">
<rect x="0" y="0" width="16" height="16" style="fill:rgb(0%,0%,0%);fill-opacity:0.976;stroke:none;"/>
  </g>
</mask>
<clipPath id="clip1">
  <rect x="0" y="0" width="16" height="16"/>
</clipPath>
<g id="surface5" clip-path="url(#clip1)">
<path style=" stroke:none;fill-rule:nonzero;fill:rgb(23.137255%,75.686276%,94.509804%);fill-opacity:1;" d="M 0.253906 13.265625 L 0.253906 13.441406 L 15.828125 13.441406 L 15.828125 13.265625 Z M 0.253906 13.65625 L 0.253906 13.75 C 0.253906 13.78125 0.253906 13.808594 0.257812 13.835938 L 15.820312 13.835938 C 15.824219 13.808594 15.828125 13.78125 15.828125 13.75 L 15.828125 13.65625 Z M 0.253906 13.65625 "/>
</g>
<mask id="mask1">
  <g filter="url(#alpha)">
<rect x="0" y="0" width="16" height="16" style="fill:rgb(0%,0%,0%);fill-opacity:0.976;stroke:none;"/>
  </g>
</mask>
<linearGradient id="linear2" gradientUnits="userSpaceOnUse" x1="-9.617" y1="1138.400024" x2="-9.617" y2="1140.199951" gradientTransform="matrix(0.177112,0,0,0.177112,8.7592,-187.591992)">
<stop offset="0" style="stop-color:rgb(23.137255%,75.686276%,94.509804%);stop-opacity:1;"/>
<stop offset="1" style="stop-color:rgb(5.490196%,58.431375%,77.254903%);stop-opacity:1;"/>
</linearGradient>
<clipPath id="clip2">
  <rect x="0" y="0" width="16" height="16"/>
</clipPath>
<g id="surface8" clip-path="url(#clip2)">
<path style=" stroke:none;fill-rule:nonzero;fill:url(#linear2);" d="M 0.300781 13.996094 C 0.394531 14.207031 0.605469 14.339844 0.832031 14.339844 L 15.246094 14.339844 C 15.484375 14.339844 15.6875 14.199219 15.777344 13.996094 Z M 0.300781 13.996094 "/>
</g>
<linearGradient id="linear3" gradientUnits="userSpaceOnUse" x1="8" y1="2" x2="8" y2="14" gradientTransform="matrix(0.506664,0,0,0.506664,3.94664,4.82664)">
<stop offset="0" style="stop-color:rgb(1.176471%,71.372551%,92.54902%);stop-opacity:1;"/>
<stop offset="1" style="stop-color:rgb(7.450981%,75.294119%,96.862745%);stop-opacity:1;"/>
</linearGradient>
<linearGradient id="linear4" gradientUnits="userSpaceOnUse" x1="8" y1="2" x2="8" y2="14" gradientTransform="matrix(0.506664,0,0,0.506664,3.94664,4.82664)">
<stop offset="0" style="stop-color:rgb(1.176471%,71.372551%,92.54902%);stop-opacity:1;"/>
<stop offset="1" style="stop-color:rgb(7.450981%,75.294119%,96.862745%);stop-opacity:1;"/>
</linearGradient>
</defs>
<g id="surface1">
<path style=" stroke:none;fill-rule:nonzero;fill:url(#linear0);" d="M 0.832031 1.953125 L 4.75 1.953125 C 5.332031 1.953125 5.574219 3.207031 6.121094 3.207031 L 15.246094 3.207031 C 15.398438 3.207031 15.546875 3.265625 15.65625 3.375 C 15.765625 3.484375 15.828125 3.632812 15.824219 3.785156 L 15.824219 12.734375 C 15.824219 13.054688 15.566406 12.375 15.246094 12.375 L 0.832031 12.375 C 0.675781 12.375 0.527344 12.3125 0.417969 12.203125 C 0.3125 12.097656 0.25 11.949219 0.25 11.792969 L 0.25 2.535156 C 0.25 2.378906 0.3125 2.230469 0.417969 2.125 C 0.527344 2.015625 0.675781 1.953125 0.832031 1.953125 Z M 0.832031 1.953125 "/>
<path style=" stroke:none;fill-rule:nonzero;fill:url(#linear1);" d="M 0.832031 3.917969 L 15.246094 3.917969 C 15.398438 3.917969 15.546875 3.980469 15.65625 4.089844 C 15.765625 4.199219 15.828125 4.347656 15.824219 4.5 L 15.824219 13.757812 C 15.828125 13.914062 15.765625 14.0625 15.65625 14.171875 C 15.546875 14.28125 15.398438 14.339844 15.246094 14.339844 L 0.832031 14.339844 C 0.675781 14.339844 0.527344 14.28125 0.417969 14.171875 C 0.3125 14.0625 0.25 13.914062 0.25 13.757812 L 0.25 4.5 C 0.25 4.347656 0.3125 4.199219 0.417969 4.089844 C 0.527344 3.980469 0.675781 3.917969 0.832031 3.917969 Z M 0.832031 3.917969 "/>
<use xlink:href="#surface5" mask="url(#mask0)"/>
<use xlink:href="#surface8" mask="url(#mask1)"/>
<path style=" stroke:none;fill-rule:nonzero;fill:url(#linear3);" d="M 9.011719 5.839844 L 8 5.839844 L 4.960938 11.921875 L 5.972656 11.921875 Z M 9.011719 5.839844 "/>
<path style=" stroke:none;fill-rule:nonzero;fill:url(#linear4);" d="M 8 11.414062 L 11.039062 11.414062 L 11.039062 11.921875 L 8 11.921875 Z M 8 11.414062 "/>
</g>
</svg>
