
<svg xmlns="http://www.w3.org/2000/svg" xmlns:xlink="http://www.w3.org/1999/xlink" width="16px" height="16px" viewBox="0 0 16 16" version="1.1">
<defs>
<linearGradient id="linear0" gradientUnits="userSpaceOnUse" x1="5.67" y1="32.07" x2="58.330002" y2="32.07" gradientTransform="matrix(0.25,0,0,0.25,0,0)">
<stop offset="0" style="stop-color:rgb(83.92157%,85.09804%,86.666667%);stop-opacity:1;"/>
<stop offset="0.27" style="stop-color:rgb(82.352942%,83.92157%,85.490197%);stop-opacity:1;"/>
<stop offset="0.5" style="stop-color:rgb(78.431374%,79.607844%,81.960785%);stop-opacity:1;"/>
<stop offset="0.73" style="stop-color:rgb(71.372551%,72.941178%,76.078433%);stop-opacity:1;"/>
<stop offset="0.92" style="stop-color:rgb(62.352943%,64.705884%,69.01961%);stop-opacity:1;"/>
</linearGradient>
</defs>
<g id="surface1">
<path style=" stroke:none;fill-rule:nonzero;fill:url(#linear0);" d="M 2.871094 13.792969 L 1.417969 2.84375 C 1.417969 1.339844 4.367188 0.117188 8 0.117188 C 11.632812 0.117188 14.582031 1.339844 14.582031 2.84375 L 13.128906 13.792969 C 13.128906 14.964844 10.832031 15.917969 8 15.917969 C 5.167969 15.917969 2.871094 14.964844 2.871094 13.792969 Z M 2.871094 13.792969 "/>
<path style=" stroke:none;fill-rule:nonzero;fill:rgb(49.411765%,34.117648%,76.862746%);fill-opacity:1;" d="M 8 5.324219 C 4.210938 5.324219 1.667969 4.042969 1.667969 2.84375 C 1.667969 1.648438 4.210938 0.367188 8 0.367188 C 11.789062 0.367188 14.332031 1.648438 14.332031 2.84375 C 14.332031 4.039062 11.789062 5.324219 8 5.324219 Z M 8 5.324219 "/>
<path style=" stroke:none;fill-rule:nonzero;fill:rgb(100%,100%,100%);fill-opacity:1;" d="M 8 0.617188 C 11.480469 0.617188 14.082031 1.796875 14.082031 2.84375 C 14.082031 3.894531 11.480469 5.074219 8 5.074219 C 4.515625 5.074219 1.917969 3.898438 1.917969 2.84375 C 1.917969 1.792969 4.515625 0.617188 8 0.617188 M 8 0.117188 C 4.367188 0.117188 1.417969 1.339844 1.417969 2.84375 C 1.417969 4.351562 4.367188 5.574219 8 5.574219 C 11.632812 5.574219 14.582031 4.351562 14.582031 2.84375 C 14.582031 1.335938 11.632812 0.117188 8 0.117188 Z M 8 0.117188 "/>
<path style=" stroke:none;fill-rule:nonzero;fill:rgb(38.039216%,26.666668%,62.7451%);fill-opacity:1;" d="M 8.207031 8.5 C 8.191406 8.214844 8.390625 7.960938 8.675781 7.914062 C 8.972656 7.839844 9.28125 7.960938 9.445312 8.21875 L 10.121094 9.285156 C 10.144531 9.320312 10.132812 9.335938 10.101562 9.351562 L 9.023438 9.933594 C 8.984375 9.957031 8.96875 9.953125 8.945312 9.914062 L 8.285156 8.820312 C 8.234375 8.722656 8.207031 8.613281 8.207031 8.5 Z M 8.207031 8.5 "/>
<path style=" stroke:none;fill-rule:nonzero;fill:rgb(38.039216%,26.666668%,62.7451%);fill-opacity:1;" d="M 9.75 11.710938 C 9.96875 11.71875 10.171875 11.816406 10.308594 11.984375 C 10.398438 12.113281 10.433594 12.277344 10.402344 12.429688 C 10.371094 12.585938 10.28125 12.722656 10.148438 12.808594 C 10.019531 12.894531 9.871094 12.941406 9.71875 12.941406 L 8.410156 12.941406 C 8.359375 12.941406 8.339844 12.941406 8.339844 12.878906 C 8.339844 12.496094 8.339844 12.128906 8.339844 11.753906 C 8.339844 11.707031 8.339844 11.691406 8.398438 11.691406 Z M 9.75 11.710938 "/>
<path style=" stroke:none;fill-rule:nonzero;fill:rgb(38.039216%,26.666668%,62.7451%);fill-opacity:1;" d="M 5.816406 11.75 C 5.585938 11.761719 5.363281 11.648438 5.238281 11.453125 C 5.117188 11.253906 5.109375 11.007812 5.21875 10.804688 C 5.4375 10.4375 5.664062 10.074219 5.886719 9.710938 C 5.90625 9.679688 5.921875 9.679688 5.953125 9.695312 C 6.320312 9.898438 6.679688 10.09375 7.039062 10.277344 C 7.078125 10.300781 7.078125 10.316406 7.054688 10.351562 C 6.828125 10.703125 6.609375 11.058594 6.378906 11.40625 C 6.253906 11.601562 6.046875 11.726562 5.816406 11.75 Z M 5.816406 11.75 "/>
<path style=" stroke:none;fill-rule:nonzero;fill:rgb(49.411765%,34.117648%,76.862746%);fill-opacity:1;" d="M 9.03125 11.191406 L 9.828125 10.039062 C 9.839844 10.019531 9.859375 10.011719 9.878906 10.007812 L 10.945312 9.953125 L 11.375 9.929688 C 11.375 9.957031 11.347656 9.957031 11.335938 9.960938 L 10.824219 10.25 C 10.789062 10.269531 10.78125 10.28125 10.804688 10.316406 C 10.929688 10.511719 11.054688 10.707031 11.171875 10.90625 C 11.234375 11.019531 11.25 11.152344 11.21875 11.273438 C 11.179688 11.441406 11.117188 11.601562 11.027344 11.75 C 10.824219 12.082031 10.578125 12.390625 10.300781 12.667969 C 10.328125 12.558594 10.351562 12.445312 10.367188 12.335938 C 10.382812 12.21875 10.359375 12.101562 10.304688 12 C 10.089844 11.632812 9.855469 11.28125 9.628906 10.921875 C 9.605469 10.890625 9.589844 10.898438 9.5625 10.921875 L 9.042969 11.199219 Z M 9.03125 11.191406 "/>
<path style=" stroke:none;fill-rule:nonzero;fill:rgb(49.411765%,34.117648%,76.862746%);fill-opacity:1;" d="M 5.199219 11.386719 C 5.21875 11.386719 5.230469 11.40625 5.246094 11.417969 C 5.261719 11.429688 5.335938 11.5 5.386719 11.539062 C 5.511719 11.648438 5.667969 11.703125 5.832031 11.695312 C 6.257812 11.695312 6.683594 11.695312 7.105469 11.695312 C 7.15625 11.695312 7.171875 11.683594 7.171875 11.632812 C 7.171875 11.445312 7.171875 11.261719 7.171875 11.074219 C 7.191406 11.074219 7.191406 11.09375 7.199219 11.105469 L 7.84375 12.292969 C 7.863281 12.316406 7.863281 12.351562 7.84375 12.378906 L 7.191406 13.578125 C 7.191406 13.578125 7.179688 13.597656 7.171875 13.621094 C 7.171875 13.59375 7.171875 13.574219 7.171875 13.558594 C 7.171875 13.378906 7.171875 13.199219 7.171875 13.019531 C 7.171875 12.976562 7.171875 12.960938 7.117188 12.960938 C 6.867188 12.960938 6.636719 12.960938 6.394531 12.960938 C 6.3125 12.960938 6.234375 12.941406 6.167969 12.898438 C 5.992188 12.792969 5.839844 12.652344 5.730469 12.480469 C 5.503906 12.144531 5.324219 11.777344 5.195312 11.394531 C 5.195312 11.394531 5.195312 11.394531 5.199219 11.386719 Z M 5.199219 11.386719 "/>
<path style=" stroke:none;fill-rule:nonzero;fill:rgb(49.411765%,34.117648%,76.862746%);fill-opacity:1;" d="M 5.875 8.382812 L 6.421875 8.679688 C 6.453125 8.695312 6.472656 8.699219 6.496094 8.664062 C 6.609375 8.464844 6.726562 8.273438 6.84375 8.082031 C 6.882812 8.023438 6.941406 7.976562 7.003906 7.953125 C 7.152344 7.890625 7.304688 7.851562 7.460938 7.839844 C 7.898438 7.804688 8.335938 7.8125 8.769531 7.871094 L 8.929688 7.871094 C 8.929688 7.890625 8.902344 7.886719 8.886719 7.890625 C 8.792969 7.914062 8.703125 7.945312 8.617188 7.980469 C 8.484375 8.023438 8.378906 8.113281 8.308594 8.230469 C 8.101562 8.574219 7.886719 8.917969 7.675781 9.257812 C 7.652344 9.292969 7.648438 9.3125 7.695312 9.335938 C 7.855469 9.417969 8.011719 9.503906 8.167969 9.585938 C 8.1875 9.59375 8.203125 9.605469 8.214844 9.621094 L 7.804688 9.605469 C 7.492188 9.589844 7.183594 9.570312 6.871094 9.5625 C 6.761719 9.570312 6.65625 9.511719 6.601562 9.417969 C 6.375 9.078125 6.132812 8.746094 5.898438 8.417969 L 5.867188 8.367188 Z M 5.875 8.382812 "/>
<path style=" stroke:none;fill-rule:nonzero;fill:rgb(95.294118%,96.470588%,96.862745%);fill-opacity:1;" d="M 5.824219 2.792969 L 5.796875 2.792969 C 5.671875 3.542969 4.761719 3.734375 4.171875 4.277344 C 4.105469 4.335938 4.050781 4.40625 4.015625 4.488281 C 4.71875 4.722656 5.445312 4.882812 6.183594 4.96875 C 6.347656 4.914062 6.511719 4.863281 6.671875 4.816406 C 6.761719 4.042969 6.441406 3.273438 5.824219 2.792969 Z M 5.824219 2.792969 "/>
<path style=" stroke:none;fill-rule:nonzero;fill:rgb(69.803923%,73.333335%,73.725492%);fill-opacity:1;" d="M 6.183594 4.976562 C 6.332031 4.996094 6.484375 5.011719 6.640625 5.023438 C 6.640625 4.957031 6.664062 4.890625 6.671875 4.824219 C 6.503906 4.871094 6.34375 4.921875 6.183594 4.976562 Z M 6.183594 4.976562 "/>
<path style=" stroke:none;fill-rule:nonzero;fill:rgb(82.745099%,83.92157%,84.313726%);fill-opacity:1;" d="M 6.671875 4.824219 C 7.316406 4.65625 7.984375 4.574219 8.65625 4.574219 C 8.664062 4.503906 8.664062 4.429688 8.65625 4.359375 C 7.59375 3.886719 7.433594 3.46875 7.433594 3.46875 C 7.015625 2.613281 6.011719 2.753906 5.824219 2.789062 C 6.445312 3.269531 6.765625 4.042969 6.671875 4.824219 Z M 6.671875 4.824219 "/>
<path style=" stroke:none;fill-rule:nonzero;fill:rgb(55.686277%,55.686277%,55.686277%);fill-opacity:1;" d="M 8.597656 4.75 C 8.597656 4.734375 8.597656 4.714844 8.621094 4.695312 C 8.636719 4.65625 8.648438 4.617188 8.65625 4.578125 C 7.984375 4.574219 7.316406 4.660156 6.671875 4.828125 C 6.671875 4.894531 6.648438 4.960938 6.640625 5.027344 C 7.074219 5.066406 7.527344 5.085938 7.992188 5.085938 L 8.125 5.085938 C 8.269531 4.960938 8.429688 4.847656 8.597656 4.75 Z M 8.597656 4.75 "/>
<path style=" stroke:none;fill-rule:nonzero;fill:rgb(63.137257%,65.098041%,65.490198%);fill-opacity:1;" d="M 12.164062 4.25 C 11.441406 4.382812 10.695312 4.355469 9.980469 4.171875 C 9.675781 4.386719 9.429688 4.679688 9.273438 5.023438 C 10.289062 4.957031 11.292969 4.742188 12.25 4.386719 L 12.296875 4.285156 Z M 12.164062 4.25 "/>
<path style=" stroke:none;fill-rule:nonzero;fill:rgb(69.803923%,73.333335%,73.725492%);fill-opacity:1;" d="M 12.164062 4.25 C 11.714844 4.148438 11.296875 3.929688 10.957031 3.617188 C 10.609375 3.761719 10.28125 3.949219 9.980469 4.171875 C 10.695312 4.355469 11.441406 4.382812 12.164062 4.25 Z M 12.164062 4.25 "/>
<path style=" stroke:none;fill-rule:nonzero;fill:rgb(82.745099%,83.92157%,84.313726%);fill-opacity:1;" d="M 8.40625 3.523438 L 8.296875 3.523438 C 8.484375 3.777344 8.609375 4.070312 8.65625 4.378906 C 8.667969 4.449219 8.667969 4.519531 8.65625 4.59375 C 8.652344 4.632812 8.640625 4.671875 8.621094 4.710938 C 8.621094 4.730469 8.605469 4.746094 8.601562 4.765625 C 8.558594 4.867188 8.542969 4.976562 8.558594 5.085938 C 8.808594 5.085938 9.042969 5.0625 9.273438 5.042969 C 9.433594 4.703125 9.675781 4.40625 9.980469 4.191406 C 9.425781 4.050781 8.894531 3.828125 8.40625 3.523438 Z M 8.40625 3.523438 "/>
<path style=" stroke:none;fill-rule:nonzero;fill:rgb(95.294118%,96.470588%,96.862745%);fill-opacity:1;" d="M 10.957031 3.625 C 10.769531 3.457031 10.617188 3.261719 10.5 3.042969 C 9.75 3.617188 8.75 3.5625 8.414062 3.523438 C 8.898438 3.824219 9.429688 4.042969 9.984375 4.179688 C 10.285156 3.957031 10.609375 3.769531 10.957031 3.625 Z M 10.957031 3.625 "/>
</g>
</svg>
