
<svg xmlns="http://www.w3.org/2000/svg" xmlns:xlink="http://www.w3.org/1999/xlink" width="16px" height="16px" viewBox="0 0 16 16" version="1.1">
<defs>
<linearGradient id="linear0" gradientUnits="userSpaceOnUse" x1="32" y1="61.93" x2="32" y2="41.93" gradientTransform="matrix(0.25,0,0,0.25,0,0)">
<stop offset="0" style="stop-color:rgb(86.27451%,87.058824%,88.627451%);stop-opacity:1;"/>
<stop offset="1" style="stop-color:rgb(95.294118%,95.686275%,96.078431%);stop-opacity:1;"/>
</linearGradient>
<linearGradient id="linear1" gradientUnits="userSpaceOnUse" x1="32.33" y1="2.07" x2="32.33" y2="40.1" gradientTransform="matrix(0.25,0,0,0.25,0,0)">
<stop offset="0" style="stop-color:rgb(16.078431%,71.372549%,96.470588%);stop-opacity:1;"/>
<stop offset="0.67" style="stop-color:rgb(39.607843%,45.098039%,82.745098%);stop-opacity:1;"/>
<stop offset="1" style="stop-color:rgb(49.411765%,34.117647%,76.862745%);stop-opacity:1;"/>
</linearGradient>
</defs>
<g id="surface1">
<path style=" stroke:none;fill-rule:nonzero;fill:rgb(77.647059%,78.431373%,80.784314%);fill-opacity:1;" d="M 0.75 15.25 C 0.613281 15.25 0.480469 15.195312 0.386719 15.101562 C 0.289062 15.003906 0.234375 14.871094 0.234375 14.734375 L 0.234375 9.714844 L 3.132812 4.164062 C 3.246094 3.945312 3.476562 3.804688 3.726562 3.804688 L 12.273438 3.804688 C 12.523438 3.804688 12.75 3.941406 12.863281 4.164062 L 15.765625 9.714844 L 15.765625 14.734375 C 15.765625 14.871094 15.710938 15.003906 15.613281 15.101562 C 15.519531 15.195312 15.386719 15.25 15.25 15.25 Z M 0.75 15.25 "/>
<path style=" stroke:none;fill-rule:nonzero;fill:rgb(87.843137%,88.627451%,89.803922%);fill-opacity:1;" d="M 12.273438 4.039062 C 12.4375 4.039062 12.582031 4.128906 12.65625 4.273438 L 15.53125 9.773438 L 15.53125 14.734375 C 15.523438 14.882812 15.398438 15 15.25 15 L 0.75 15 C 0.597656 15 0.472656 14.878906 0.472656 14.726562 L 0.472656 9.773438 L 3.34375 4.273438 C 3.417969 4.128906 3.566406 4.039062 3.726562 4.039062 L 12.273438 4.039062 M 12.273438 3.570312 L 3.726562 3.570312 C 3.386719 3.570312 3.082031 3.757812 2.925781 4.054688 L 0.0507812 9.554688 L 0 9.65625 L 0 14.734375 C 0 15.148438 0.335938 15.484375 0.75 15.484375 L 15.25 15.484375 C 15.664062 15.484375 16 15.148438 16 14.734375 L 16 9.65625 L 15.949219 9.554688 L 13.074219 4.054688 C 12.917969 3.757812 12.613281 3.570312 12.273438 3.570312 Z M 12.273438 3.570312 "/>
<path style=" stroke:none;fill-rule:nonzero;fill:url(#linear0);" d="M 11.066406 9.773438 C 10.78125 9.769531 10.535156 9.972656 10.480469 10.25 C 10.246094 11.433594 9.207031 12.289062 8 12.289062 C 6.792969 12.289062 5.753906 11.433594 5.519531 10.25 C 5.464844 9.972656 5.21875 9.769531 4.933594 9.773438 L 0.46875 9.773438 L 0.46875 14.734375 C 0.476562 14.882812 0.601562 15 0.75 15 L 15.25 15 C 15.402344 15 15.527344 14.878906 15.527344 14.726562 L 15.527344 9.773438 Z M 11.066406 9.773438 "/>
<path style=" stroke:none;fill-rule:nonzero;fill:url(#linear1);" d="M 12.195312 6.039062 C 12.09375 5.761719 11.832031 5.582031 11.539062 5.582031 L 10.648438 5.582031 L 10.648438 1 C 10.648438 0.722656 10.425781 0.5 10.148438 0.5 L 6 0.5 C 5.730469 0.507812 5.511719 0.730469 5.511719 1 L 5.511719 5.574219 L 4.628906 5.574219 C 4.335938 5.574219 4.078125 5.757812 3.972656 6.03125 C 3.871094 6.304688 3.945312 6.613281 4.164062 6.808594 L 7.617188 9.851562 C 7.746094 9.964844 7.914062 10.027344 8.085938 10.023438 C 8.253906 10.023438 8.421875 9.964844 8.546875 9.851562 L 12 6.816406 C 12.222656 6.621094 12.300781 6.3125 12.195312 6.039062 Z M 12.195312 6.039062 "/>
</g>
</svg>
