
<svg xmlns="http://www.w3.org/2000/svg" xmlns:xlink="http://www.w3.org/1999/xlink" width="16px" height="16px" viewBox="0 0 16 16" version="1.1">
<defs>
<linearGradient id="linear0" gradientUnits="userSpaceOnUse" x1="32" y1="64" x2="32" y2="44" gradientTransform="matrix(0.25,0,0,0.25,0,0)">
<stop offset="0" style="stop-color:rgb(86.27451%,87.058824%,88.627451%);stop-opacity:1;"/>
<stop offset="1" style="stop-color:rgb(95.294118%,95.686275%,96.078431%);stop-opacity:1;"/>
</linearGradient>
<linearGradient id="linear1" gradientUnits="userSpaceOnUse" x1="280.33" y1="250.15" x2="280.33" y2="288.17" gradientTransform="matrix(-0.25,0.000000000000000031,-0.000000000000000031,-0.25,78.1675,72.0875)">
<stop offset="0" style="stop-color:rgb(92.54902%,25.098039%,47.843137%);stop-opacity:1;"/>
<stop offset="1" style="stop-color:rgb(49.411765%,34.117647%,76.862745%);stop-opacity:1;"/>
</linearGradient>
</defs>
<g id="surface1">
<path style=" stroke:none;fill-rule:nonzero;fill:rgb(77.647059%,78.431373%,80.784314%);fill-opacity:1;" d="M 0.75 15.765625 C 0.613281 15.765625 0.480469 15.710938 0.386719 15.613281 C 0.289062 15.519531 0.234375 15.386719 0.234375 15.25 L 0.234375 10.234375 L 3.132812 4.683594 C 3.246094 4.460938 3.476562 4.324219 3.726562 4.324219 L 12.273438 4.324219 C 12.523438 4.324219 12.75 4.460938 12.863281 4.683594 L 15.765625 10.234375 L 15.765625 15.25 C 15.765625 15.386719 15.710938 15.519531 15.613281 15.613281 C 15.519531 15.710938 15.386719 15.765625 15.25 15.765625 Z M 0.75 15.765625 "/>
<path style=" stroke:none;fill-rule:nonzero;fill:rgb(87.843137%,88.627451%,89.803922%);fill-opacity:1;" d="M 12.273438 4.558594 C 12.433594 4.558594 12.582031 4.648438 12.65625 4.789062 L 15.53125 10.289062 L 15.53125 15.25 C 15.53125 15.324219 15.5 15.394531 15.449219 15.449219 C 15.394531 15.5 15.324219 15.53125 15.25 15.53125 L 0.75 15.53125 C 0.675781 15.53125 0.605469 15.5 0.550781 15.449219 C 0.5 15.394531 0.46875 15.324219 0.46875 15.25 L 0.46875 10.289062 L 3.34375 4.789062 C 3.417969 4.648438 3.566406 4.558594 3.726562 4.558594 L 12.273438 4.558594 M 12.273438 4.085938 L 3.726562 4.085938 C 3.390625 4.089844 3.082031 4.273438 2.925781 4.574219 L 0.0507812 10.074219 L 0 10.175781 L 0 15.25 C 0 15.664062 0.335938 16 0.75 16 L 15.25 16 C 15.664062 16 16 15.664062 16 15.25 L 16 10.175781 L 15.949219 10.074219 L 13.074219 4.574219 C 12.917969 4.273438 12.609375 4.089844 12.273438 4.085938 Z M 12.273438 4.085938 "/>
<path style=" stroke:none;fill-rule:nonzero;fill:url(#linear0);" d="M 11.066406 10.289062 C 10.78125 10.289062 10.535156 10.488281 10.480469 10.765625 C 10.246094 11.953125 9.207031 12.808594 8 12.808594 C 6.792969 12.808594 5.753906 11.953125 5.519531 10.765625 C 5.464844 10.488281 5.21875 10.289062 4.933594 10.289062 L 0.46875 10.289062 L 0.46875 15.25 C 0.46875 15.324219 0.5 15.394531 0.550781 15.449219 C 0.605469 15.5 0.675781 15.53125 0.75 15.53125 L 15.25 15.53125 C 15.324219 15.53125 15.394531 15.5 15.449219 15.449219 C 15.5 15.394531 15.53125 15.324219 15.53125 15.25 L 15.53125 10.289062 Z M 11.066406 10.289062 "/>
<path style=" stroke:none;fill-rule:nonzero;fill:url(#linear1);" d="M 3.972656 4.03125 C 4.070312 4.3125 4.335938 4.5 4.628906 4.5 L 5.515625 4.5 L 5.515625 9.074219 C 5.515625 9.347656 5.734375 9.566406 6.003906 9.574219 L 10.164062 9.574219 C 10.4375 9.574219 10.664062 9.351562 10.664062 9.074219 L 10.664062 4.5 L 11.550781 4.5 C 11.847656 4.5 12.113281 4.316406 12.214844 4.035156 C 12.316406 3.753906 12.230469 3.4375 12 3.25 L 8.550781 0.21875 C 8.421875 0.105469 8.253906 0.0429688 8.082031 0.046875 C 7.910156 0.0429688 7.746094 0.105469 7.621094 0.21875 L 4.164062 3.25 C 3.941406 3.445312 3.863281 3.757812 3.972656 4.03125 Z M 3.972656 4.03125 "/>
</g>
</svg>
