
<svg xmlns="http://www.w3.org/2000/svg" xmlns:xlink="http://www.w3.org/1999/xlink" width="16px" height="16px" viewBox="0 0 16 16" version="1.1">
<defs>
<linearGradient id="linear0" gradientUnits="userSpaceOnUse" x1="10.094" y1="107.360001" x2="122.720001" y2="107.360001" gradientTransform="matrix(0.139083,0,0,0.13677,-1.2381,-0.26726)">
<stop offset="0" style="stop-color:rgb(10.196079%,10.196079%,10.196079%);stop-opacity:1;"/>
<stop offset="0.11054" style="stop-color:rgb(17.254902%,17.254902%,18.039216%);stop-opacity:1;"/>
<stop offset="0.29001" style="stop-color:rgb(16.862746%,16.862746%,17.647059%);stop-opacity:1;"/>
<stop offset="0.51187" style="stop-color:rgb(16.470589%,16.862746%,17.647059%);stop-opacity:1;"/>
<stop offset="0.75173" style="stop-color:rgb(16.862746%,16.862746%,17.647059%);stop-opacity:1;"/>
<stop offset="0.89659" style="stop-color:rgb(19.607843%,19.607843%,19.607843%);stop-opacity:1;"/>
<stop offset="1" style="stop-color:rgb(9.019608%,9.019608%,9.019608%);stop-opacity:1;"/>
</linearGradient>
<linearGradient id="linear1" gradientUnits="userSpaceOnUse" x1="449.429993" y1="540.75" x2="449.549988" y2="518.409973" gradientTransform="matrix(0.559867,0,0,0.559867,-243.883341,-289.823324)">
<stop offset="0" style="stop-color:rgb(71.372551%,72.549021%,74.901962%);stop-opacity:1;"/>
<stop offset="1" style="stop-color:rgb(86.666667%,87.450981%,88.627452%);stop-opacity:1;"/>
</linearGradient>
<linearGradient id="linear2" gradientUnits="userSpaceOnUse" x1="451.019989" y1="544.150024" x2="451.019989" y2="543.090027" gradientTransform="matrix(0.28296,0,0,0.559867,-119.32667,-289.796672)">
<stop offset="0" style="stop-color:rgb(24.313726%,78.431374%,58.823532%);stop-opacity:1;"/>
<stop offset="1" style="stop-color:rgb(40.000001%,85.09804%,68.627453%);stop-opacity:1;"/>
</linearGradient>
<filter id="alpha" filterUnits="objectBoundingBox" x="0%" y="0%" width="100%" height="100%">
  <feColorMatrix type="matrix" in="SourceGraphic" values="0 0 0 0 1 0 0 0 0 1 0 0 0 0 1 0 0 0 1 0"/>
</filter>
<mask id="mask0">
  <g filter="url(#alpha)">
<rect x="0" y="0" width="16" height="16" style="fill:rgb(0%,0%,0%);fill-opacity:0.452;stroke:none;"/>
  </g>
</mask>
<linearGradient id="linear3" gradientUnits="userSpaceOnUse" x1="467.170013" y1="546.849976" x2="467.170013" y2="544.719971" gradientTransform="matrix(0.559867,0,0,0.559867,-247.623332,-290.946676)">
<stop offset="0" style="stop-color:rgb(1.568628%,1.568628%,1.568628%);stop-opacity:1;"/>
<stop offset="1" style="stop-color:rgb(7.058824%,7.058824%,7.058824%);stop-opacity:0.90816;"/>
</linearGradient>
<clipPath id="clip1">
  <rect x="0" y="0" width="16" height="16"/>
</clipPath>
<g id="surface5" clip-path="url(#clip1)">
<path style=" stroke:none;fill-rule:nonzero;fill:url(#linear3);" d="M 14.488281 14.691406 C 14.488281 15.019531 14.222656 15.285156 13.894531 15.285156 C 13.566406 15.285156 13.300781 15.019531 13.300781 14.691406 C 13.300781 14.363281 13.566406 14.097656 13.894531 14.097656 C 14.222656 14.097656 14.488281 14.363281 14.488281 14.691406 Z M 14.488281 14.691406 "/>
</g>
<mask id="mask1">
  <g filter="url(#alpha)">
<rect x="0" y="0" width="16" height="16" style="fill:rgb(0%,0%,0%);fill-opacity:0.15;stroke:none;"/>
  </g>
</mask>
<clipPath id="clip2">
  <rect x="0" y="0" width="16" height="16"/>
</clipPath>
<g id="surface8" clip-path="url(#clip2)">
<path style="fill:none;stroke-width:0.5;stroke-linecap:round;stroke-linejoin:round;stroke:rgb(0%,0%,0%);stroke-opacity:1;stroke-miterlimit:4;" d="M 40.242188 20.554688 C 40.242188 26.765625 32.976562 31.804688 24 31.804688 C 15.023438 31.804688 7.746094 26.765625 7.746094 20.554688 C 7.746094 14.332031 15.023438 9.304688 24 9.304688 C 32.976562 9.304688 40.242188 14.332031 40.242188 20.554688 Z M 40.242188 20.554688 " transform="matrix(0.333333,0,0,0.333333,0,0)"/>
</g>
<mask id="mask2">
  <g filter="url(#alpha)">
<rect x="0" y="0" width="16" height="16" style="fill:rgb(0%,0%,0%);fill-opacity:0.668;stroke:none;"/>
  </g>
</mask>
<clipPath id="clip3">
  <rect x="0" y="0" width="16" height="16"/>
</clipPath>
<g id="surface11" clip-path="url(#clip3)">
<path style="fill-rule:nonzero;fill:rgb(89.019608%,90.980393%,91.764706%);fill-opacity:1;stroke-width:0.0022376;stroke-linecap:butt;stroke-linejoin:miter;stroke:rgb(56.470591%,57.254905%,58.823532%);stroke-opacity:1;stroke-miterlimit:4;" d="M 41.671875 44.191406 C 41.71875 44.191406 41.753906 44.179688 41.777344 44.15625 C 41.8125 44.121094 41.824219 44.085938 41.824219 44.050781 L 41.824219 43.300781 C 41.824219 43.265625 41.8125 43.230469 41.777344 43.195312 C 41.753906 43.171875 41.71875 43.160156 41.671875 43.160156 C 41.636719 43.160156 41.601562 43.171875 41.578125 43.195312 C 41.542969 43.230469 41.53125 43.265625 41.53125 43.300781 L 41.53125 44.050781 C 41.53125 44.085938 41.542969 44.121094 41.578125 44.15625 C 41.601562 44.179688 41.636719 44.191406 41.671875 44.191406 Z M 41.671875 44.191406 " transform="matrix(0.333333,0,0,0.333333,0,0)"/>
</g>
<mask id="mask3">
  <g filter="url(#alpha)">
<rect x="0" y="0" width="16" height="16" style="fill:rgb(0%,0%,0%);fill-opacity:0.668;stroke:none;"/>
  </g>
</mask>
<clipPath id="clip4">
  <rect x="0" y="0" width="16" height="16"/>
</clipPath>
<g id="surface14" clip-path="url(#clip4)">
<path style="fill-rule:nonzero;fill:rgb(89.019608%,90.980393%,91.764706%);fill-opacity:1;stroke-width:0.0022376;stroke-linecap:butt;stroke-linejoin:miter;stroke:rgb(56.470591%,57.254905%,58.823532%);stroke-opacity:1;stroke-miterlimit:4;" d="M 42.46875 43.722656 C 42.410156 43.59375 42.328125 43.488281 42.210938 43.40625 C 42.175781 43.382812 42.140625 43.371094 42.105469 43.371094 C 42.058594 43.371094 42.023438 43.394531 42 43.429688 C 41.976562 43.464844 41.964844 43.5 41.976562 43.546875 C 41.976562 43.582031 42 43.617188 42.035156 43.640625 C 42.105469 43.699219 42.164062 43.769531 42.210938 43.851562 C 42.246094 43.933594 42.269531 44.015625 42.269531 44.109375 C 42.269531 44.191406 42.257812 44.273438 42.222656 44.34375 C 42.1875 44.414062 42.152344 44.484375 42.09375 44.53125 C 42.046875 44.589844 41.976562 44.636719 41.90625 44.660156 C 41.835938 44.695312 41.753906 44.707031 41.671875 44.707031 C 41.589844 44.707031 41.519531 44.695312 41.449219 44.660156 C 41.367188 44.625 41.308594 44.589844 41.25 44.53125 C 41.203125 44.484375 41.15625 44.414062 41.132812 44.34375 C 41.097656 44.273438 41.085938 44.191406 41.085938 44.109375 C 41.085938 44.015625 41.097656 43.933594 41.144531 43.851562 C 41.179688 43.769531 41.238281 43.699219 41.320312 43.640625 C 41.355469 43.617188 41.367188 43.582031 41.378906 43.546875 C 41.378906 43.5 41.367188 43.464844 41.34375 43.429688 C 41.320312 43.394531 41.296875 43.382812 41.25 43.371094 C 41.214844 43.371094 41.167969 43.371094 41.144531 43.40625 C 41.027344 43.488281 40.945312 43.59375 40.875 43.722656 C 40.816406 43.839844 40.78125 43.96875 40.78125 44.109375 C 40.78125 44.238281 40.804688 44.355469 40.851562 44.460938 C 40.898438 44.566406 40.96875 44.660156 41.050781 44.742188 C 41.121094 44.824219 41.214844 44.882812 41.332031 44.929688 C 41.4375 44.976562 41.554688 45.011719 41.671875 45.011719 C 41.800781 45.011719 41.90625 44.976562 42.023438 44.929688 C 42.128906 44.882812 42.222656 44.824219 42.304688 44.742188 C 42.386719 44.671875 42.445312 44.566406 42.492188 44.460938 C 42.539062 44.355469 42.5625 44.238281 42.5625 44.109375 C 42.5625 43.96875 42.539062 43.839844 42.46875 43.722656 Z M 42.46875 43.722656 " transform="matrix(0.333333,0,0,0.333333,0,0)"/>
</g>
<mask id="mask4">
  <g filter="url(#alpha)">
<rect x="0" y="0" width="16" height="16" style="fill:rgb(0%,0%,0%);fill-opacity:0.15;stroke:none;"/>
  </g>
</mask>
<clipPath id="clip5">
  <rect x="0" y="0" width="16" height="16"/>
</clipPath>
<g id="surface17" clip-path="url(#clip5)">
<path style=" stroke:none;fill-rule:nonzero;fill:rgb(0%,0%,0%);fill-opacity:1;" d="M 8 3.183594 C 7.84375 3.183594 7.683594 3.191406 7.527344 3.199219 C 7.683594 3.191406 7.839844 3.183594 8 3.183594 Z M 8.488281 3.199219 C 8.507812 3.214844 8.515625 3.242188 8.535156 3.257812 C 8.570312 3.289062 8.613281 3.289062 8.617188 3.324219 C 8.628906 3.40625 8.507812 3.410156 8.519531 3.503906 C 8.496094 3.539062 8.433594 3.535156 8.4375 3.582031 C 8.445312 3.652344 8.601562 3.601562 8.644531 3.65625 C 8.667969 3.6875 8.640625 3.710938 8.625 3.753906 C 8.675781 3.800781 8.675781 3.867188 8.582031 3.867188 C 8.523438 3.867188 8.507812 3.828125 8.453125 3.816406 C 8.417969 3.8125 8.375 3.8125 8.335938 3.808594 C 8.300781 3.804688 8.257812 3.796875 8.226562 3.792969 C 8.140625 3.785156 8.050781 3.804688 8 3.769531 C 8.082031 3.695312 8.1875 3.625 8.292969 3.558594 C 8.324219 3.539062 8.390625 3.527344 8.375 3.488281 C 8.316406 3.453125 8.246094 3.492188 8.191406 3.511719 C 8.132812 3.535156 8.066406 3.566406 8 3.574219 C 7.886719 3.585938 7.734375 3.550781 7.640625 3.589844 C 7.628906 3.628906 7.746094 3.613281 7.730469 3.667969 C 7.6875 3.671875 7.644531 3.675781 7.609375 3.652344 C 7.574219 3.632812 7.59375 3.605469 7.574219 3.589844 C 7.539062 3.570312 7.40625 3.566406 7.347656 3.574219 C 7.273438 3.582031 7.210938 3.609375 7.203125 3.652344 C 7.289062 3.679688 7.429688 3.625 7.464844 3.695312 C 7.414062 3.753906 7.304688 3.785156 7.320312 3.863281 C 7.324219 3.894531 7.378906 3.933594 7.414062 3.9375 C 7.453125 3.945312 7.472656 3.917969 7.511719 3.921875 C 7.550781 3.925781 7.542969 3.953125 7.585938 3.949219 C 7.652344 3.929688 7.691406 3.867188 7.765625 3.871094 C 7.855469 3.945312 7.683594 3.984375 7.585938 4.007812 C 7.476562 4.035156 7.332031 4.046875 7.25 4.070312 C 7.207031 4.085938 7.039062 4.195312 7.015625 4.109375 C 7 4.046875 7.097656 4.066406 7.121094 4.015625 C 7.011719 4 6.914062 4.046875 6.816406 4.070312 C 6.679688 4.109375 6.445312 4.128906 6.414062 4.238281 C 6.40625 4.257812 6.425781 4.296875 6.40625 4.3125 C 6.386719 4.324219 6.289062 4.324219 6.246094 4.335938 C 6.179688 4.351562 6.121094 4.382812 6.082031 4.390625 C 6.050781 4.398438 6.003906 4.394531 5.984375 4.402344 C 5.929688 4.417969 5.910156 4.464844 5.847656 4.5 C 5.824219 4.515625 5.765625 4.523438 5.746094 4.539062 C 5.710938 4.5625 5.703125 4.621094 5.640625 4.632812 C 5.601562 4.632812 5.570312 4.613281 5.53125 4.628906 C 5.527344 4.6875 5.5625 4.769531 5.527344 4.828125 C 5.445312 4.875 5.355469 4.90625 5.25 4.945312 C 5.191406 4.96875 5.140625 4.972656 5.070312 4.996094 C 5.023438 5.015625 4.976562 5.054688 4.921875 5.078125 C 4.789062 5.132812 4.632812 5.195312 4.632812 5.328125 C 4.632812 5.355469 4.652344 5.386719 4.660156 5.421875 C 4.664062 5.441406 4.660156 5.460938 4.660156 5.480469 C 4.667969 5.53125 4.71875 5.59375 4.660156 5.628906 C 4.566406 5.601562 4.449219 5.59375 4.386719 5.546875 C 4.367188 5.5 4.421875 5.464844 4.414062 5.421875 C 4.40625 5.386719 4.335938 5.328125 4.296875 5.324219 C 4.253906 5.316406 4.214844 5.351562 4.171875 5.34375 C 4.121094 5.34375 4.074219 5.292969 4.007812 5.289062 C 3.910156 5.28125 3.839844 5.304688 3.734375 5.292969 C 3.628906 5.332031 3.597656 5.398438 3.472656 5.394531 C 3.425781 5.390625 3.386719 5.367188 3.332031 5.359375 C 3.28125 5.351562 3.203125 5.34375 3.144531 5.34375 C 2.9375 5.660156 2.796875 5.992188 2.726562 6.335938 C 2.734375 6.339844 2.742188 6.34375 2.75 6.34375 C 2.800781 6.34375 2.859375 6.324219 2.90625 6.320312 C 2.964844 6.3125 3.035156 6.3125 3.085938 6.300781 C 3.234375 6.269531 3.207031 6.128906 3.355469 6.085938 C 3.417969 6.066406 3.496094 6.0625 3.609375 6.054688 C 3.644531 6.078125 3.664062 6.113281 3.65625 6.144531 C 3.652344 6.167969 3.621094 6.191406 3.601562 6.226562 C 3.585938 6.257812 3.582031 6.292969 3.570312 6.316406 C 3.546875 6.347656 3.5 6.371094 3.484375 6.398438 C 3.476562 6.417969 3.480469 6.441406 3.472656 6.460938 C 3.457031 6.492188 3.394531 6.511719 3.425781 6.542969 C 3.570312 6.585938 3.75 6.535156 3.878906 6.550781 C 3.933594 6.558594 4.042969 6.601562 4.042969 6.65625 C 4.042969 6.699219 3.996094 6.730469 3.988281 6.777344 C 3.980469 6.835938 3.941406 6.90625 3.9375 6.953125 C 3.933594 7.03125 4.105469 7.171875 4.226562 7.167969 C 4.359375 7.164062 4.433594 7.078125 4.589844 7.125 C 4.644531 7.140625 4.699219 7.199219 4.757812 7.195312 C 4.804688 7.191406 4.875 7.132812 4.90625 7.09375 C 4.945312 7.046875 4.949219 7.007812 5.019531 6.980469 C 5.089844 6.957031 5.148438 6.96875 5.246094 6.945312 C 5.285156 6.933594 5.320312 6.914062 5.359375 6.898438 C 5.394531 6.882812 5.429688 6.839844 5.46875 6.867188 C 5.527344 6.90625 5.402344 6.929688 5.449219 6.96875 C 5.546875 7.003906 5.59375 6.90625 5.664062 6.902344 C 5.683594 6.902344 5.761719 6.933594 5.800781 6.949219 C 5.855469 6.972656 5.871094 7.007812 5.929688 7.015625 C 5.96875 7.019531 6.027344 7.003906 6.082031 7.007812 C 6.152344 7.015625 6.195312 7.0625 6.246094 7.058594 C 6.3125 7.054688 6.34375 7.007812 6.398438 7 C 6.519531 6.984375 6.5625 7.011719 6.617188 7.0625 C 6.675781 7.070312 6.679688 7.015625 6.734375 7.03125 C 6.703125 7.074219 6.742188 7.09375 6.769531 7.128906 C 6.785156 7.148438 6.78125 7.164062 6.796875 7.175781 C 6.828125 7.195312 6.890625 7.195312 6.941406 7.214844 C 6.992188 7.238281 7.019531 7.277344 7.078125 7.324219 C 7.136719 7.371094 7.238281 7.417969 7.316406 7.421875 C 7.394531 7.425781 7.453125 7.40625 7.515625 7.414062 C 7.660156 7.425781 7.746094 7.472656 7.847656 7.527344 C 7.902344 7.554688 7.953125 7.574219 7.96875 7.609375 C 7.984375 7.636719 7.976562 7.667969 7.992188 7.695312 C 8.023438 7.753906 8.144531 7.78125 8.101562 7.882812 C 8.121094 7.914062 8.167969 7.925781 8.21875 7.945312 C 8.257812 7.960938 8.292969 7.996094 8.335938 8 C 8.363281 8.003906 8.394531 7.996094 8.417969 7.996094 C 8.496094 8 8.546875 8.019531 8.617188 8.039062 C 8.65625 8.050781 8.710938 8.054688 8.738281 8.066406 C 8.773438 8.082031 8.78125 8.136719 8.820312 8.152344 C 8.851562 8.160156 8.914062 8.148438 8.960938 8.152344 C 9.03125 8.15625 9.132812 8.183594 9.199219 8.1875 C 9.242188 8.191406 9.273438 8.175781 9.308594 8.179688 C 9.476562 8.1875 9.574219 8.324219 9.734375 8.367188 C 9.785156 8.378906 9.867188 8.371094 9.898438 8.378906 C 9.960938 8.398438 10.011719 8.527344 10.015625 8.582031 C 10.03125 8.753906 9.839844 8.808594 9.730469 8.921875 C 9.707031 8.945312 9.691406 8.984375 9.660156 9.015625 C 9.59375 9.082031 9.519531 9.09375 9.53125 9.21875 C 9.53125 9.25 9.558594 9.285156 9.558594 9.320312 C 9.558594 9.367188 9.550781 9.425781 9.535156 9.464844 C 9.523438 9.496094 9.488281 9.523438 9.480469 9.550781 C 9.476562 9.578125 9.492188 9.601562 9.488281 9.625 C 9.480469 9.652344 9.441406 9.691406 9.414062 9.730469 C 9.347656 9.808594 9.335938 9.902344 9.207031 9.9375 C 9.132812 9.953125 9.027344 9.945312 8.945312 9.964844 C 8.910156 9.972656 8.871094 9.992188 8.828125 10.007812 C 8.710938 10.042969 8.539062 10.097656 8.507812 10.179688 C 8.476562 10.257812 8.546875 10.316406 8.527344 10.402344 C 8.503906 10.425781 8.476562 10.453125 8.445312 10.480469 C 8.4375 10.488281 8.429688 10.496094 8.425781 10.503906 C 8.285156 10.511719 8.148438 10.515625 8.007812 10.515625 C 8.007812 10.515625 8.011719 10.515625 8.011719 10.515625 C 10.652344 10.515625 12.890625 9.191406 13.289062 7.402344 C 13.207031 7.417969 13.132812 7.4375 13.074219 7.453125 C 12.996094 7.476562 12.914062 7.511719 12.847656 7.515625 C 12.78125 7.519531 12.71875 7.492188 12.65625 7.488281 C 12.574219 7.480469 12.46875 7.488281 12.386719 7.496094 C 12.308594 7.507812 12.234375 7.542969 12.167969 7.546875 C 12.035156 7.554688 11.90625 7.464844 11.824219 7.421875 C 11.773438 7.394531 11.71875 7.371094 11.671875 7.347656 C 11.621094 7.320312 11.554688 7.300781 11.515625 7.277344 C 11.460938 7.238281 11.460938 7.179688 11.433594 7.128906 C 11.398438 7.074219 11.296875 7.035156 11.21875 6.980469 C 11.160156 6.941406 11.027344 6.882812 11.011719 6.828125 C 11.003906 6.804688 11.027344 6.773438 11.027344 6.746094 C 11.023438 6.703125 10.976562 6.679688 10.976562 6.652344 C 10.980469 6.609375 11.050781 6.578125 11.066406 6.542969 C 11.078125 6.523438 11.074219 6.5 11.082031 6.476562 C 11.101562 6.429688 11.144531 6.402344 11.136719 6.332031 C 11.132812 6.304688 11.09375 6.277344 11.09375 6.242188 C 11.09375 6.21875 11.117188 6.203125 11.117188 6.179688 C 11.109375 6.140625 11.035156 6.132812 11.027344 6.085938 C 11.019531 6.039062 11.09375 6 11.136719 5.945312 C 11.15625 5.921875 11.167969 5.886719 11.183594 5.867188 C 11.222656 5.828125 11.285156 5.808594 11.3125 5.765625 C 11.335938 5.738281 11.34375 5.695312 11.363281 5.671875 C 11.386719 5.644531 11.4375 5.628906 11.488281 5.59375 C 11.527344 5.5625 11.542969 5.527344 11.570312 5.511719 C 11.601562 5.496094 11.65625 5.492188 11.691406 5.480469 C 11.820312 5.441406 11.914062 5.390625 11.972656 5.304688 C 11.953125 5.230469 11.984375 5.199219 12.027344 5.148438 C 12.070312 5.097656 12.101562 5.054688 12.171875 5.023438 C 12.257812 4.992188 12.339844 4.988281 12.398438 4.925781 C 12.425781 4.898438 12.457031 4.859375 12.46875 4.828125 C 12.421875 4.785156 12.378906 4.738281 12.332031 4.695312 C 12.269531 4.695312 12.1875 4.726562 12.152344 4.683594 C 12.140625 4.667969 12.15625 4.632812 12.152344 4.617188 C 12.144531 4.585938 12.109375 4.5625 12.105469 4.539062 C 12.101562 4.53125 12.109375 4.515625 12.117188 4.503906 C 11.207031 3.757812 9.902344 3.285156 8.488281 3.199219 Z M 7.394531 3.210938 C 7.273438 3.222656 7.15625 3.230469 7.039062 3.246094 C 7.15625 3.230469 7.273438 3.222656 7.394531 3.210938 Z M 6.859375 3.273438 C 6.753906 3.289062 6.648438 3.304688 6.542969 3.324219 C 6.644531 3.304688 6.753906 3.289062 6.859375 3.273438 Z M 6.082031 3.429688 C 6.035156 3.445312 5.988281 3.457031 5.941406 3.472656 C 5.941406 3.472656 5.941406 3.472656 5.945312 3.472656 C 5.988281 3.476562 6.039062 3.457031 6.082031 3.429688 Z M 5.09375 3.777344 C 5.019531 3.8125 4.949219 3.847656 4.875 3.886719 C 4.941406 3.882812 5.054688 3.878906 5.066406 3.875 C 5.132812 3.855469 5.125 3.816406 5.09375 3.777344 Z M 5.238281 3.925781 C 5.183594 3.921875 5.125 3.941406 5.105469 3.957031 C 5.105469 3.984375 5.136719 3.992188 5.132812 4.019531 C 5.066406 4.050781 5.101562 4.160156 5.167969 4.164062 C 5.238281 4.167969 5.273438 4.042969 5.367188 4.03125 C 5.402344 4.027344 5.417969 4.046875 5.464844 4.042969 C 5.519531 4.011719 5.492188 3.953125 5.4375 3.945312 C 5.414062 3.941406 5.382812 3.953125 5.347656 3.953125 C 5.308594 3.953125 5.269531 3.929688 5.238281 3.925781 Z M 4.925781 3.941406 C 4.871094 3.9375 4.777344 3.957031 4.742188 3.972656 C 4.710938 3.988281 4.691406 4.023438 4.660156 4.046875 C 4.628906 4.074219 4.589844 4.09375 4.5625 4.117188 C 4.539062 4.136719 4.398438 4.277344 4.507812 4.292969 C 4.554688 4.296875 4.652344 4.230469 4.660156 4.207031 C 4.691406 4.121094 4.746094 4.058594 4.84375 4.019531 C 4.902344 3.996094 4.960938 4 4.96875 3.949219 C 4.960938 3.945312 4.945312 3.941406 4.925781 3.941406 Z M 5.738281 4.109375 C 5.707031 4.105469 5.667969 4.113281 5.632812 4.113281 C 5.589844 4.117188 5.535156 4.121094 5.53125 4.144531 C 5.601562 4.167969 5.796875 4.183594 5.820312 4.121094 C 5.808594 4.113281 5.773438 4.109375 5.738281 4.109375 Z M 5.296875 4.222656 C 5.226562 4.226562 5.160156 4.25 5.097656 4.253906 C 5.050781 4.257812 4.964844 4.246094 4.976562 4.296875 C 4.984375 4.335938 5.074219 4.324219 5.125 4.3125 C 5.234375 4.289062 5.304688 4.265625 5.367188 4.230469 C 5.34375 4.226562 5.320312 4.222656 5.296875 4.222656 Z M 12.152344 4.535156 C 12.199219 4.574219 12.246094 4.617188 12.289062 4.65625 C 12.246094 4.617188 12.199219 4.574219 12.152344 4.535156 Z M 12.484375 4.847656 C 12.511719 4.871094 12.53125 4.898438 12.554688 4.921875 C 12.53125 4.898438 12.511719 4.871094 12.484375 4.847656 Z M 12.738281 5.140625 C 12.757812 5.167969 12.777344 5.195312 12.800781 5.21875 C 12.777344 5.195312 12.757812 5.167969 12.738281 5.140625 Z M 13.152344 5.84375 C 13.160156 5.867188 13.167969 5.886719 13.175781 5.90625 C 13.167969 5.886719 13.160156 5.867188 13.152344 5.84375 Z M 13.261719 6.175781 C 13.269531 6.203125 13.277344 6.226562 13.285156 6.25 C 13.277344 6.226562 13.269531 6.203125 13.261719 6.175781 Z M 2.6875 6.535156 C 2.675781 6.640625 2.667969 6.746094 2.664062 6.847656 C 2.667969 8.28125 3.886719 9.582031 5.785156 10.179688 C 5.789062 10.160156 5.800781 10.148438 5.800781 10.132812 C 5.800781 10.082031 5.777344 10.035156 5.773438 9.988281 C 5.765625 9.898438 5.785156 9.835938 5.765625 9.75 C 5.75 9.691406 5.730469 9.59375 5.695312 9.554688 C 5.660156 9.511719 5.515625 9.4375 5.441406 9.40625 C 5.394531 9.390625 5.335938 9.382812 5.285156 9.367188 C 5.171875 9.328125 4.957031 9.25 4.90625 9.171875 C 4.894531 9.152344 4.894531 9.125 4.878906 9.097656 C 4.847656 9.050781 4.785156 9.007812 4.742188 8.960938 C 4.65625 8.875 4.589844 8.761719 4.503906 8.671875 C 4.457031 8.625 4.417969 8.570312 4.371094 8.535156 C 4.34375 8.511719 4.253906 8.492188 4.242188 8.460938 C 4.226562 8.417969 4.179688 8.355469 4.1875 8.324219 C 4.195312 8.277344 4.324219 8.242188 4.324219 8.199219 C 4.324219 8.164062 4.253906 8.144531 4.242188 8.117188 C 4.207031 8.042969 4.261719 8.003906 4.300781 7.941406 C 4.316406 7.921875 4.332031 7.890625 4.34375 7.875 C 4.371094 7.851562 4.417969 7.84375 4.453125 7.816406 C 4.472656 7.800781 4.484375 7.769531 4.507812 7.746094 C 4.558594 7.699219 4.644531 7.679688 4.667969 7.636719 C 4.683594 7.601562 4.695312 7.425781 4.675781 7.367188 C 4.664062 7.335938 4.617188 7.308594 4.597656 7.273438 C 4.566406 7.21875 4.558594 7.152344 4.476562 7.15625 C 4.421875 7.160156 4.386719 7.199219 4.351562 7.222656 C 4.34375 7.257812 4.347656 7.292969 4.296875 7.304688 C 4.21875 7.320312 4.1875 7.246094 4.097656 7.226562 C 4.0625 7.222656 4.003906 7.222656 3.980469 7.214844 C 3.914062 7.195312 3.894531 7.128906 3.824219 7.101562 C 3.765625 7.082031 3.714844 7.085938 3.679688 7.054688 C 3.664062 7.03125 3.675781 6.992188 3.671875 6.960938 C 3.597656 6.929688 3.53125 6.816406 3.445312 6.789062 C 3.386719 6.773438 3.296875 6.773438 3.222656 6.757812 C 3.191406 6.75 3.164062 6.742188 3.128906 6.734375 C 3.082031 6.730469 3.039062 6.726562 3.003906 6.714844 C 2.886719 6.675781 2.8125 6.5625 2.6875 6.535156 Z M 5.445312 7.050781 C 5.4375 7.050781 5.429688 7.050781 5.421875 7.054688 C 5.371094 7.070312 5.398438 7.128906 5.449219 7.125 C 5.496094 7.121094 5.492188 7.054688 5.445312 7.050781 Z M 13.332031 7.1875 C 13.328125 7.214844 13.324219 7.238281 13.320312 7.265625 C 13.324219 7.238281 13.328125 7.214844 13.332031 7.1875 Z M 6.40625 10.34375 C 6.453125 10.355469 6.503906 10.363281 6.550781 10.375 C 6.503906 10.363281 6.453125 10.355469 6.40625 10.34375 Z M 6.917969 10.4375 C 6.996094 10.449219 7.074219 10.457031 7.152344 10.464844 C 7.074219 10.457031 6.996094 10.449219 6.917969 10.4375 Z M 7.453125 10.496094 C 7.601562 10.503906 7.75 10.511719 7.898438 10.511719 C 7.75 10.511719 7.601562 10.503906 7.453125 10.496094 Z M 7.453125 10.496094 "/>
</g>
</defs>
<g id="surface1">
<path style=" stroke:none;fill-rule:nonzero;fill:url(#linear0);" d="M 0.164062 13.132812 L 0.304688 15.324219 C 0.304688 15.550781 0.492188 15.734375 0.722656 15.734375 L 15.273438 15.734375 C 15.503906 15.734375 15.691406 15.550781 15.691406 15.324219 L 15.832031 13.132812 Z M 0.164062 13.132812 "/>
<path style=" stroke:none;fill-rule:nonzero;fill:url(#linear1);" d="M 1.417969 0.253906 L 14.441406 0.253906 C 14.671875 0.253906 14.859375 0.4375 14.859375 0.664062 L 15.832031 13.035156 C 15.832031 13.265625 15.644531 13.445312 15.414062 13.445312 L 0.582031 13.445312 C 0.351562 13.445312 0.167969 13.261719 0.167969 13.035156 L 1 0.664062 C 1 0.4375 1.1875 0.253906 1.417969 0.253906 Z M 1.417969 0.253906 "/>
<path style=" stroke:none;fill-rule:nonzero;fill:url(#linear2);" d="M 5.03125 14.453125 L 11.015625 14.453125 C 11.136719 14.453125 11.234375 14.546875 11.234375 14.667969 C 11.234375 14.785156 11.136719 14.882812 11.015625 14.882812 L 5.03125 14.882812 C 4.910156 14.882812 4.8125 14.785156 4.8125 14.667969 C 4.8125 14.546875 4.910156 14.453125 5.03125 14.453125 Z M 5.03125 14.453125 "/>
<use xlink:href="#surface5" mask="url(#mask0)"/>
<use xlink:href="#surface8" mask="url(#mask1)"/>
<use xlink:href="#surface11" mask="url(#mask2)"/>
<use xlink:href="#surface14" mask="url(#mask3)"/>
<use xlink:href="#surface17" mask="url(#mask4)"/>
</g>
</svg>
