
<svg xmlns="http://www.w3.org/2000/svg" xmlns:xlink="http://www.w3.org/1999/xlink" width="16" height="16" viewBox="0 0 16 16" version="1.1">
<defs>
<linearGradient id="linear0" gradientUnits="userSpaceOnUse" x1="21.91" y1="9.34" x2="44.220001" y2="59.459999" gradientTransform="matrix(0.25,0,0,0.25,0,0)">
<stop offset="0" style="stop-color:rgb(25.490198%,74.509805%,83.529413%);stop-opacity:1;"/>
<stop offset="1" style="stop-color:rgb(51.372552%,32.549021%,84.313726%);stop-opacity:1;"/>
</linearGradient>
</defs>
<g id="surface1">
<path style=" stroke:none;fill-rule:nonzero;fill:rgb(26.666668%,53.725493%,75.686276%);fill-opacity:1;" d="M 0.371094 6.929688 C -0.207031 7.648438 -0.121094 8.695312 0.566406 9.308594 C 1.257812 9.921875 2.308594 9.882812 2.953125 9.222656 L 5.632812 6.539062 C 3.984375 5.5 1.851562 5.65625 0.371094 6.929688 Z M 0.371094 6.929688 "/>
<path style=" stroke:none;fill-rule:nonzero;fill:rgb(39.215687%,27.450982%,75.686276%);fill-opacity:1;" d="M 15.5 6.777344 C 14.824219 6.101562 13.730469 6.101562 13.054688 6.777344 L 10.316406 9.5 C 11.980469 10.550781 14.136719 10.382812 15.617188 9.078125 C 16.167969 8.394531 16.117188 7.402344 15.5 6.777344 Z M 15.5 6.777344 "/>
<path style=" stroke:none;fill-rule:nonzero;fill:url(#linear0);" d="M 10 9.835938 C 9.722656 9.660156 9.46875 9.453125 9.234375 9.222656 C 7.503906 7.492188 7.503906 4.683594 9.234375 2.953125 C 9.914062 2.273438 9.910156 1.175781 9.234375 0.496094 C 8.554688 -0.179688 7.453125 -0.179688 6.777344 0.5 L 3.640625 3.640625 L 0.5 6.777344 C 2.230469 5.042969 5.039062 5.042969 6.773438 6.773438 C 8.507812 8.503906 8.507812 11.3125 6.777344 13.046875 C 6.101562 13.722656 6.097656 14.820312 6.773438 15.496094 C 7.449219 16.171875 8.546875 16.175781 9.222656 15.5 L 12.359375 12.359375 L 15.5 9.222656 C 14.035156 10.6875 11.75 10.941406 10 9.835938 Z M 10 9.835938 "/>
</g>
</svg>
