
<svg xmlns="http://www.w3.org/2000/svg" xmlns:xlink="http://www.w3.org/1999/xlink" width="16px" height="16px" viewBox="0 0 16 16" version="1.1">
<defs>
<linearGradient id="linear0" gradientUnits="userSpaceOnUse" x1="38.13" y1="32.12" x2="54.87" y2="3.12" gradientTransform="matrix(0.25,0,0,0.25,0,0)">
<stop offset="0" style="stop-color:rgb(83.137255%,83.137255%,83.137255%);stop-opacity:1;"/>
<stop offset="0.34" style="stop-color:rgb(45.882353%,75.294118%,96.470588%);stop-opacity:1;"/>
<stop offset="0.46" style="stop-color:rgb(47.843137%,53.72549%,86.27451%);stop-opacity:1;"/>
<stop offset="0.57" style="stop-color:rgb(49.411765%,34.117647%,76.862745%);stop-opacity:1;"/>
<stop offset="0.65" style="stop-color:rgb(47.45098%,36.078431%,78.039216%);stop-opacity:1;"/>
<stop offset="0.74" style="stop-color:rgb(42.352941%,41.960784%,81.176471%);stop-opacity:1;"/>
<stop offset="0.84" style="stop-color:rgb(33.72549%,51.372549%,85.882353%);stop-opacity:1;"/>
<stop offset="0.95" style="stop-color:rgb(21.960784%,64.705882%,92.941176%);stop-opacity:1;"/>
<stop offset="1" style="stop-color:rgb(16.078431%,71.372549%,96.470588%);stop-opacity:1;"/>
</linearGradient>
<linearGradient id="linear1" gradientUnits="userSpaceOnUse" x1="23.46" y1="46.79" x2="40.2" y2="17.79" gradientTransform="matrix(0.25,0,0,0.25,0,0)">
<stop offset="0" style="stop-color:rgb(83.137255%,83.137255%,83.137255%);stop-opacity:1;"/>
<stop offset="0.34" style="stop-color:rgb(45.882353%,75.294118%,96.470588%);stop-opacity:1;"/>
<stop offset="0.46" style="stop-color:rgb(47.843137%,53.72549%,86.27451%);stop-opacity:1;"/>
<stop offset="0.57" style="stop-color:rgb(49.411765%,34.117647%,76.862745%);stop-opacity:1;"/>
<stop offset="0.65" style="stop-color:rgb(47.45098%,36.078431%,78.039216%);stop-opacity:1;"/>
<stop offset="0.74" style="stop-color:rgb(42.352941%,41.960784%,81.176471%);stop-opacity:1;"/>
<stop offset="0.84" style="stop-color:rgb(33.72549%,51.372549%,85.882353%);stop-opacity:1;"/>
<stop offset="0.95" style="stop-color:rgb(21.960784%,64.705882%,92.941176%);stop-opacity:1;"/>
<stop offset="1" style="stop-color:rgb(16.078431%,71.372549%,96.470588%);stop-opacity:1;"/>
</linearGradient>
<linearGradient id="linear2" gradientUnits="userSpaceOnUse" x1="8.8" y1="61.45" x2="25.54" y2="32.46" gradientTransform="matrix(0.25,0,0,0.25,0,0)">
<stop offset="0" style="stop-color:rgb(83.137255%,83.137255%,83.137255%);stop-opacity:1;"/>
<stop offset="0.34" style="stop-color:rgb(45.882353%,75.294118%,96.470588%);stop-opacity:1;"/>
<stop offset="0.46" style="stop-color:rgb(47.843137%,53.72549%,86.27451%);stop-opacity:1;"/>
<stop offset="0.57" style="stop-color:rgb(49.411765%,34.117647%,76.862745%);stop-opacity:1;"/>
<stop offset="0.65" style="stop-color:rgb(47.45098%,36.078431%,78.039216%);stop-opacity:1;"/>
<stop offset="0.74" style="stop-color:rgb(42.352941%,41.960784%,81.176471%);stop-opacity:1;"/>
<stop offset="0.84" style="stop-color:rgb(33.72549%,51.372549%,85.882353%);stop-opacity:1;"/>
<stop offset="0.95" style="stop-color:rgb(21.960784%,64.705882%,92.941176%);stop-opacity:1;"/>
<stop offset="1" style="stop-color:rgb(16.078431%,71.372549%,96.470588%);stop-opacity:1;"/>
</linearGradient>
</defs>
<g id="surface1">
<path style="fill-rule:nonzero;fill:rgb(92.156863%,92.54902%,93.333333%);fill-opacity:1;stroke-width:1;stroke-linecap:butt;stroke-linejoin:miter;stroke:rgb(82.352941%,83.529412%,85.490196%);stroke-opacity:1;stroke-miterlimit:10;" d="M 46.671875 7.09375 C 41.015625 7.09375 36.421875 11.6875 36.4375 17.34375 C 36.4375 23 41.015625 27.578125 46.671875 27.578125 C 52.328125 27.578125 56.921875 22.984375 56.90625 17.328125 C 56.90625 11.671875 52.328125 7.09375 46.671875 7.09375 Z M 46.671875 20.890625 C 44.703125 20.890625 43.109375 19.296875 43.09375 17.34375 C 43.09375 15.375 44.6875 13.765625 46.65625 13.765625 C 48.625 13.765625 50.21875 15.359375 50.21875 17.328125 C 50.21875 19.296875 48.625 20.875 46.671875 20.890625 Z M 46.671875 20.890625 " transform="matrix(0.25,0,0,0.25,0,0)"/>
<path style=" stroke:none;fill-rule:nonzero;fill:url(#linear0);" d="M 11.667969 0.0429688 C 9.296875 0.0429688 7.371094 1.960938 7.371094 4.335938 C 7.371094 6.707031 9.292969 8.628906 11.664062 8.628906 C 14.039062 8.628906 15.957031 6.703125 15.957031 4.332031 C 15.957031 1.964844 14.035156 0.0429688 11.667969 0.0429688 Z M 9.625 4.332031 C 9.625 3.203125 10.539062 2.289062 11.664062 2.289062 C 12.792969 2.285156 13.710938 3.199219 13.710938 4.328125 C 13.710938 5.457031 12.796875 6.371094 11.667969 6.371094 C 10.539062 6.371094 9.628906 5.460938 9.625 4.332031 Z M 9.625 4.332031 "/>
<path style="fill-rule:nonzero;fill:rgb(92.156863%,92.54902%,93.333333%);fill-opacity:1;stroke-width:1;stroke-linecap:butt;stroke-linejoin:miter;stroke:rgb(82.352941%,83.529412%,85.490196%);stroke-opacity:1;stroke-miterlimit:10;" d="M 32 21.765625 C 26.34375 21.765625 21.765625 26.34375 21.765625 32 C 21.765625 37.65625 26.34375 42.234375 32 42.234375 C 37.65625 42.234375 42.234375 37.65625 42.234375 32 C 42.234375 26.34375 37.65625 21.765625 32 21.765625 Z M 32 35.546875 C 30.046875 35.546875 28.453125 33.953125 28.453125 32 C 28.453125 30.046875 30.046875 28.453125 32 28.453125 C 33.953125 28.453125 35.546875 30.046875 35.546875 32 C 35.546875 33.953125 33.953125 35.546875 32 35.546875 Z M 32 35.546875 " transform="matrix(0.25,0,0,0.25,0,0)"/>
<path style=" stroke:none;fill-rule:nonzero;fill:url(#linear1);" d="M 8 3.707031 C 5.628906 3.707031 3.707031 5.628906 3.707031 8 C 3.707031 10.371094 5.628906 12.292969 8 12.292969 C 10.371094 12.292969 12.292969 10.371094 12.292969 8 C 12.292969 5.628906 10.371094 3.707031 8 3.707031 Z M 5.960938 8 C 5.960938 6.875 6.875 5.960938 8 5.960938 C 9.125 5.960938 10.039062 6.875 10.039062 8 C 10.039062 9.125 9.125 10.039062 8 10.039062 C 6.875 10.039062 5.960938 9.125 5.960938 8 Z M 5.960938 8 "/>
<path style="fill-rule:nonzero;fill:rgb(92.156863%,92.54902%,93.333333%);fill-opacity:1;stroke-width:1;stroke-linecap:butt;stroke-linejoin:miter;stroke:rgb(82.352941%,83.529412%,85.490196%);stroke-opacity:1;stroke-miterlimit:10;" d="M 17.328125 36.4375 C 11.671875 36.4375 7.09375 41.015625 7.09375 46.671875 C 7.09375 52.328125 11.671875 56.90625 17.328125 56.90625 C 22.984375 56.90625 27.5625 52.328125 27.5625 46.671875 C 27.5625 41.015625 22.984375 36.4375 17.328125 36.4375 Z M 17.328125 50.21875 C 15.359375 50.21875 13.765625 48.625 13.765625 46.65625 C 13.765625 44.6875 15.375 43.09375 17.34375 43.09375 C 19.296875 43.109375 20.890625 44.703125 20.890625 46.671875 C 20.890625 47.609375 20.515625 48.515625 19.84375 49.1875 C 19.171875 49.84375 18.265625 50.21875 17.328125 50.21875 Z M 17.328125 50.21875 " transform="matrix(0.25,0,0,0.25,0,0)"/>
<path style=" stroke:none;fill-rule:nonzero;fill:url(#linear2);" d="M 4.332031 7.375 C 1.960938 7.375 0.0390625 9.296875 0.0390625 11.667969 C 0.0390625 14.039062 1.960938 15.960938 4.332031 15.960938 C 6.703125 15.960938 8.625 14.039062 8.625 11.667969 C 8.625 10.527344 8.171875 9.4375 7.367188 8.632812 C 6.5625 7.828125 5.472656 7.375 4.332031 7.375 Z M 2.292969 11.667969 C 2.292969 10.539062 3.207031 9.628906 4.332031 9.628906 C 5.460938 9.628906 6.371094 10.539062 6.371094 11.667969 C 6.371094 12.792969 5.460938 13.707031 4.332031 13.707031 C 3.207031 13.707031 2.292969 12.792969 2.292969 11.667969 Z M 2.292969 11.667969 "/>
</g>
</svg>
