
<svg xmlns="http://www.w3.org/2000/svg" xmlns:xlink="http://www.w3.org/1999/xlink" width="16px" height="16px" viewBox="0 0 16 16" version="1.1">
<defs>
<linearGradient id="linear0" gradientUnits="userSpaceOnUse" x1="32" y1="3.8" x2="32" y2="23.49" gradientTransform="matrix(0.25,0,0,0.25,0,0)">
<stop offset="0" style="stop-color:rgb(16.078432%,71.372551%,96.470588%);stop-opacity:1;"/>
<stop offset="0.67" style="stop-color:rgb(39.607844%,45.09804%,82.745099%);stop-opacity:1;"/>
<stop offset="1" style="stop-color:rgb(49.411765%,34.117648%,76.862746%);stop-opacity:1;"/>
</linearGradient>
<linearGradient id="linear1" gradientUnits="userSpaceOnUse" x1="32" y1="60.900002" x2="32" y2="18.719999" gradientTransform="matrix(0.25,0,0,0.25,0,0)">
<stop offset="0" style="stop-color:rgb(86.274511%,87.058824%,88.627452%);stop-opacity:1;"/>
<stop offset="0.57" style="stop-color:rgb(87.058824%,87.843138%,89.411765%);stop-opacity:1;"/>
<stop offset="0.81" style="stop-color:rgb(89.803922%,90.588236%,91.764706%);stop-opacity:1;"/>
<stop offset="0.99" style="stop-color:rgb(94.901961%,95.294118%,95.686275%);stop-opacity:1;"/>
<stop offset="1" style="stop-color:rgb(95.294118%,95.686275%,96.078432%);stop-opacity:1;"/>
</linearGradient>
<linearGradient id="linear2" gradientUnits="userSpaceOnUse" x1="32" y1="51.330002" x2="32" y2="29.83" gradientTransform="matrix(0.25,0,0,0.25,0,0)">
<stop offset="0" style="stop-color:rgb(75.294119%,75.294119%,75.294119%);stop-opacity:1;"/>
<stop offset="1" style="stop-color:rgb(55.686277%,55.686277%,55.686277%);stop-opacity:1;"/>
</linearGradient>
</defs>
<g id="surface1">
<path style=" stroke:none;fill-rule:nonzero;fill:url(#linear0);" d="M 16 5.328125 C 16 4.621094 15.425781 4.046875 14.71875 4.046875 L 10.363281 4.046875 C 9.472656 4.046875 8.746094 3.335938 8.726562 2.445312 C 8.742188 1.539062 8.019531 0.792969 7.113281 0.773438 L 0.84375 0.773438 C 0.378906 0.773438 0 1.152344 0 1.621094 L 0 5.855469 L 16 5.855469 Z M 16 5.328125 "/>
<path style=" stroke:none;fill-rule:nonzero;fill:url(#linear1);" d="M 14.71875 4.679688 L 1.28125 4.679688 C 0.574219 4.679688 0 5.253906 0 5.960938 L 0 13.945312 C 0 14.652344 0.574219 15.226562 1.28125 15.226562 L 14.71875 15.226562 C 15.425781 15.226562 16 14.652344 16 13.945312 L 16 5.960938 C 16 5.253906 15.425781 4.679688 14.71875 4.679688 Z M 14.71875 4.679688 "/>
<path style=" stroke:none;fill-rule:nonzero;fill:url(#linear2);" d="M 10.34375 10.929688 L 10.34375 10.820312 C 10.347656 10.515625 10.210938 10.226562 9.972656 10.035156 L 9.269531 9.457031 C 9.683594 8.820312 9.570312 7.976562 9 7.476562 C 8.425781 6.980469 7.574219 6.980469 7 7.476562 C 6.429688 7.976562 6.316406 8.820312 6.734375 9.457031 L 6.023438 10.035156 C 5.789062 10.226562 5.652344 10.515625 5.65625 10.820312 L 5.65625 10.929688 C 5.242188 11.011719 4.960938 11.394531 5.003906 11.8125 C 5.046875 12.230469 5.398438 12.550781 5.820312 12.550781 C 6.238281 12.550781 6.59375 12.230469 6.636719 11.8125 C 6.675781 11.394531 6.394531 11.011719 5.984375 10.929688 L 5.984375 10.820312 C 5.980469 10.613281 6.074219 10.417969 6.234375 10.289062 L 6.941406 9.707031 C 7.183594 9.945312 7.5 10.09375 7.835938 10.128906 L 7.835938 11.164062 C 7.425781 11.25 7.144531 11.628906 7.1875 12.046875 C 7.230469 12.464844 7.578125 12.785156 8 12.785156 C 8.417969 12.785156 8.769531 12.464844 8.8125 12.046875 C 8.855469 11.628906 8.574219 11.25 8.164062 11.164062 L 8.164062 10.128906 C 8.5 10.09375 8.816406 9.945312 9.058594 9.707031 L 9.769531 10.289062 C 9.925781 10.417969 10.019531 10.613281 10.019531 10.820312 L 10.019531 10.929688 C 9.605469 11.011719 9.324219 11.394531 9.367188 11.8125 C 9.40625 12.230469 9.761719 12.550781 10.179688 12.550781 C 10.601562 12.550781 10.957031 12.230469 10.996094 11.8125 C 11.039062 11.394531 10.757812 11.011719 10.34375 10.929688 Z M 6.21875 11.730469 C 6.21875 11.953125 6.039062 12.132812 5.816406 12.132812 C 5.59375 12.132812 5.414062 11.953125 5.414062 11.730469 C 5.414062 11.507812 5.59375 11.328125 5.816406 11.328125 C 6.039062 11.328125 6.21875 11.507812 6.21875 11.730469 Z M 8.402344 11.96875 C 8.402344 12.191406 8.222656 12.371094 8 12.371094 C 7.777344 12.371094 7.597656 12.191406 7.597656 11.96875 C 7.597656 11.746094 7.777344 11.566406 8 11.566406 C 8.222656 11.566406 8.402344 11.746094 8.402344 11.96875 Z M 8 9.605469 C 7.457031 9.605469 7.011719 9.164062 7.011719 8.621094 C 7.011719 8.078125 7.453125 7.636719 7.996094 7.636719 C 8.539062 7.636719 8.980469 8.074219 8.980469 8.621094 C 8.980469 9.164062 8.542969 9.601562 8 9.605469 Z M 10.183594 12.132812 C 9.960938 12.132812 9.78125 11.953125 9.78125 11.730469 C 9.78125 11.507812 9.960938 11.328125 10.183594 11.328125 C 10.40625 11.328125 10.585938 11.507812 10.585938 11.730469 C 10.585938 11.953125 10.40625 12.132812 10.183594 12.132812 Z M 10.183594 12.132812 "/>
</g>
</svg>
