
<svg xmlns="http://www.w3.org/2000/svg" xmlns:xlink="http://www.w3.org/1999/xlink" width="16px" height="16px" viewBox="0 0 16 16" version="1.1">
<defs>
<linearGradient id="linear0" gradientUnits="userSpaceOnUse" x1="32" y1="3.8" x2="32" y2="23.49" gradientTransform="matrix(0.25,0,0,0.25,0,0)">
<stop offset="0" style="stop-color:rgb(16.078432%,71.372551%,96.470588%);stop-opacity:1;"/>
<stop offset="0.67" style="stop-color:rgb(39.607844%,45.09804%,82.745099%);stop-opacity:1;"/>
<stop offset="1" style="stop-color:rgb(49.411765%,34.117648%,76.862746%);stop-opacity:1;"/>
</linearGradient>
<linearGradient id="linear1" gradientUnits="userSpaceOnUse" x1="32" y1="60.900002" x2="32" y2="18.719999" gradientTransform="matrix(0.25,0,0,0.25,0,0)">
<stop offset="0" style="stop-color:rgb(86.274511%,87.058824%,88.627452%);stop-opacity:1;"/>
<stop offset="0.57" style="stop-color:rgb(87.058824%,87.843138%,89.411765%);stop-opacity:1;"/>
<stop offset="0.81" style="stop-color:rgb(89.803922%,90.588236%,91.764706%);stop-opacity:1;"/>
<stop offset="0.99" style="stop-color:rgb(94.901961%,95.294118%,95.686275%);stop-opacity:1;"/>
<stop offset="1" style="stop-color:rgb(95.294118%,95.686275%,96.078432%);stop-opacity:1;"/>
</linearGradient>
<linearGradient id="linear2" gradientUnits="userSpaceOnUse" x1="32" y1="29.75" x2="32" y2="48.32" gradientTransform="matrix(0.25,0,0,0.25,0,0)">
<stop offset="0" style="stop-color:rgb(55.686277%,55.686277%,55.686277%);stop-opacity:1;"/>
<stop offset="1" style="stop-color:rgb(75.294119%,75.294119%,75.294119%);stop-opacity:1;"/>
</linearGradient>
</defs>
<g id="surface1">
<path style=" stroke:none;fill-rule:nonzero;fill:url(#linear0);" d="M 16 5.328125 C 16 4.621094 15.425781 4.046875 14.71875 4.046875 L 10.363281 4.046875 C 9.472656 4.046875 8.746094 3.335938 8.726562 2.445312 C 8.742188 1.539062 8.019531 0.792969 7.113281 0.773438 L 0.84375 0.773438 C 0.378906 0.773438 0 1.152344 0 1.621094 L 0 5.855469 L 16 5.855469 Z M 16 5.328125 "/>
<path style=" stroke:none;fill-rule:nonzero;fill:url(#linear1);" d="M 14.71875 4.679688 L 1.28125 4.679688 C 0.574219 4.679688 0 5.253906 0 5.960938 L 0 13.945312 C 0 14.652344 0.574219 15.226562 1.28125 15.226562 L 14.71875 15.226562 C 15.425781 15.226562 16 14.652344 16 13.945312 L 16 5.960938 C 16 5.253906 15.425781 4.679688 14.71875 4.679688 Z M 14.71875 4.679688 "/>
<path style=" stroke:none;fill-rule:nonzero;fill:url(#linear2);" d="M 11 8.371094 L 9.628906 7.914062 C 9.527344 7.878906 9.457031 7.785156 9.457031 7.679688 C 9.457031 7.539062 9.347656 7.429688 9.207031 7.429688 L 5.082031 7.429688 C 4.945312 7.429688 4.832031 7.539062 4.832031 7.679688 L 4.832031 12.109375 C 4.832031 12.25 4.945312 12.359375 5.082031 12.359375 L 9.203125 12.359375 C 9.339844 12.359375 9.453125 12.25 9.453125 12.109375 C 9.449219 12.027344 9.484375 11.949219 9.550781 11.898438 C 9.617188 11.847656 9.703125 11.835938 9.78125 11.859375 L 9.820312 11.871094 C 9.886719 11.894531 9.953125 11.890625 10.015625 11.859375 C 10.074219 11.832031 10.121094 11.777344 10.140625 11.714844 L 11.140625 8.683594 C 11.183594 8.558594 11.121094 8.421875 11 8.371094 Z M 8.644531 11.304688 L 5.640625 11.304688 C 5.503906 11.304688 5.390625 11.191406 5.390625 11.054688 L 5.390625 8.234375 C 5.390625 8.097656 5.503906 7.984375 5.640625 7.984375 L 8.644531 7.984375 C 8.78125 7.984375 8.894531 8.097656 8.894531 8.234375 L 8.894531 11.054688 C 8.894531 11.191406 8.78125 11.304688 8.644531 11.304688 Z M 9.453125 10.75 L 9.453125 8.644531 C 9.453125 8.566406 9.492188 8.488281 9.554688 8.441406 C 9.621094 8.394531 9.703125 8.382812 9.78125 8.40625 L 10.464844 8.636719 C 10.527344 8.660156 10.582031 8.703125 10.609375 8.761719 C 10.640625 8.824219 10.644531 8.890625 10.621094 8.957031 L 10 10.835938 C 9.957031 10.96875 9.816406 11.039062 9.683594 10.996094 L 9.628906 10.976562 C 9.527344 10.945312 9.457031 10.855469 9.453125 10.75 Z M 9.453125 10.75 "/>
</g>
</svg>
