
<svg xmlns="http://www.w3.org/2000/svg" xmlns:xlink="http://www.w3.org/1999/xlink" width="16px" height="16px" viewBox="0 0 16 16" version="1.1">
<defs>
<linearGradient id="linear0" gradientUnits="userSpaceOnUse" x1="-26.201" y1="1070.199951" x2="-26.201" y2="1082.599976" gradientTransform="matrix(0.177112,0,0,0.177112,8.720794,-187.738952)">
<stop offset="0" style="stop-color:rgb(99.215686%,93.725491%,47.058824%);stop-opacity:1;"/>
<stop offset="1" style="stop-color:rgb(100%,94.509804%,48.235294%);stop-opacity:1;"/>
</linearGradient>
<linearGradient id="linear1" gradientUnits="userSpaceOnUse" x1="-9.912" y1="1081.400024" x2="-9.912" y2="1139.800049" gradientTransform="matrix(0.177112,0,0,0.177112,8.720794,-187.738952)">
<stop offset="0" style="stop-color:rgb(99.215686%,90.980393%,23.137255%);stop-opacity:1;"/>
<stop offset="0.5" style="stop-color:rgb(100%,98.823529%,34.901962%);stop-opacity:1;"/>
<stop offset="1" style="stop-color:rgb(96.470588%,95.686275%,30.19608%);stop-opacity:1;"/>
</linearGradient>
<filter id="alpha" filterUnits="objectBoundingBox" x="0%" y="0%" width="100%" height="100%">
  <feColorMatrix type="matrix" in="SourceGraphic" values="0 0 0 0 1 0 0 0 0 1 0 0 0 0 1 0 0 0 1 0"/>
</filter>
<mask id="mask0">
  <g filter="url(#alpha)">
<rect x="0" y="0" width="16" height="16" style="fill:rgb(0%,0%,0%);fill-opacity:0.08;stroke:none;"/>
  </g>
</mask>
<clipPath id="clip1">
  <rect x="0" y="0" width="16" height="16"/>
</clipPath>
<g id="surface5" clip-path="url(#clip1)">
<path style=" stroke:none;fill-rule:nonzero;fill:rgb(0%,0%,0%);fill-opacity:1;" d="M 0.214844 13.121094 L 0.214844 13.296875 L 15.789062 13.296875 L 15.789062 13.121094 L 0.210938 13.121094 Z M 0.214844 13.511719 L 0.214844 13.605469 C 0.214844 13.632812 0.214844 13.660156 0.21875 13.6875 L 15.78125 13.6875 C 15.785156 13.660156 15.789062 13.632812 15.789062 13.605469 L 15.789062 13.511719 Z M 0.214844 13.511719 "/>
</g>
<mask id="mask1">
  <g filter="url(#alpha)">
<rect x="0" y="0" width="16" height="16" style="fill:rgb(0%,0%,0%);fill-opacity:0.25;stroke:none;"/>
  </g>
</mask>
<linearGradient id="linear2" gradientUnits="userSpaceOnUse" x1="-9.617" y1="1138.400024" x2="-9.617" y2="1140.199951" gradientTransform="matrix(0.177112,0,0,0.177112,8.720794,-187.738952)">
<stop offset="0" style="stop-color:rgb(0%,0%,0%);stop-opacity:0.046784;"/>
<stop offset="1" style="stop-color:rgb(0%,0%,0%);stop-opacity:1;"/>
</linearGradient>
<clipPath id="clip2">
  <rect x="0" y="0" width="16" height="16"/>
</clipPath>
<g id="surface8" clip-path="url(#clip2)">
<path style=" stroke:none;fill-rule:nonzero;fill:url(#linear2);" d="M 0.265625 13.851562 C 0.359375 14.058594 0.566406 14.195312 0.796875 14.191406 L 15.207031 14.191406 C 15.445312 14.191406 15.648438 14.050781 15.738281 13.851562 Z M 0.265625 13.851562 "/>
</g>
<mask id="mask2">
  <g filter="url(#alpha)">
<rect x="0" y="0" width="16" height="16" style="fill:rgb(0%,0%,0%);fill-opacity:0.1;stroke:none;"/>
  </g>
</mask>
<clipPath id="clip3">
  <rect x="0" y="0" width="16" height="16"/>
</clipPath>
<g id="surface11" clip-path="url(#clip3)">
<path style=" stroke:none;fill-rule:nonzero;fill:rgb(0%,0%,0%);fill-opacity:1;" d="M 10.398438 6.804688 L 9.457031 6.804688 L 9.195312 6.40625 C 9.121094 6.292969 9.007812 6.238281 8.875 6.238281 L 7.011719 6.238281 C 6.878906 6.238281 6.765625 6.292969 6.691406 6.40625 L 6.445312 6.804688 L 5.503906 6.804688 C 5.089844 6.804688 4.753906 7.140625 4.753906 7.554688 L 4.753906 10.757812 C 4.753906 11.171875 5.089844 11.507812 5.503906 11.507812 L 10.398438 11.507812 C 10.816406 11.507812 11.152344 11.171875 11.152344 10.757812 L 11.152344 7.554688 C 11.152344 7.140625 10.816406 6.804688 10.398438 6.804688 Z M 5.695312 8.121094 C 5.488281 8.121094 5.316406 7.953125 5.316406 7.742188 C 5.316406 7.535156 5.488281 7.367188 5.695312 7.367188 C 5.902344 7.367188 6.070312 7.535156 6.070312 7.742188 C 6.070312 7.953125 5.902344 8.121094 5.695312 8.121094 Z M 7.953125 10.566406 C 7.125 10.566406 6.445312 9.890625 6.445312 9.0625 C 6.445312 8.234375 7.125 7.554688 7.953125 7.554688 C 8.78125 7.554688 9.457031 8.234375 9.457031 9.0625 C 9.457031 9.890625 8.78125 10.566406 7.953125 10.566406 Z M 7.953125 10.566406 "/>
</g>
</defs>
<g id="surface1">
<path style=" stroke:none;fill-rule:nonzero;fill:url(#linear0);" d="M 0.792969 1.804688 L 4.710938 1.804688 C 5.292969 1.804688 5.535156 3.058594 6.082031 3.058594 L 15.207031 3.058594 C 15.359375 3.058594 15.507812 3.121094 15.617188 3.230469 C 15.726562 3.335938 15.789062 3.484375 15.789062 3.640625 L 15.789062 12.585938 C 15.789062 12.90625 15.527344 12.226562 15.207031 12.226562 L 0.792969 12.226562 C 0.640625 12.226562 0.492188 12.167969 0.382812 12.058594 C 0.273438 11.949219 0.210938 11.800781 0.210938 11.644531 L 0.210938 2.386719 C 0.210938 2.234375 0.273438 2.085938 0.382812 1.976562 C 0.492188 1.867188 0.640625 1.804688 0.792969 1.804688 Z M 0.792969 1.804688 "/>
<path style=" stroke:none;fill-rule:nonzero;fill:url(#linear1);" d="M 0.792969 3.773438 L 15.207031 3.773438 C 15.359375 3.773438 15.507812 3.832031 15.617188 3.941406 C 15.726562 4.050781 15.789062 4.199219 15.789062 4.355469 L 15.789062 13.613281 C 15.789062 13.765625 15.726562 13.914062 15.617188 14.023438 C 15.507812 14.132812 15.359375 14.195312 15.207031 14.195312 L 0.792969 14.195312 C 0.636719 14.195312 0.492188 14.132812 0.382812 14.023438 C 0.273438 13.914062 0.210938 13.765625 0.210938 13.613281 L 0.210938 4.355469 C 0.210938 4.199219 0.273438 4.050781 0.382812 3.941406 C 0.492188 3.832031 0.636719 3.773438 0.792969 3.773438 Z M 0.792969 3.773438 "/>
<use xlink:href="#surface5" mask="url(#mask0)"/>
<use xlink:href="#surface8" mask="url(#mask1)"/>
<use xlink:href="#surface11" mask="url(#mask2)"/>
</g>
</svg>
