
<svg xmlns="http://www.w3.org/2000/svg" xmlns:xlink="http://www.w3.org/1999/xlink" width="96px" height="96px" viewBox="0 0 96 96" version="1.1">
<g id="surface1">
<path style=" stroke:none;fill-rule:nonzero;fill:rgb(37.647059%,41.960784%,50.980392%);fill-opacity:1;" d="M 48 96 C 21.503906 96 0 74.496094 0 48 C 0 21.503906 21.503906 0 48 0 C 74.496094 0 96 21.503906 96 48 C 96 74.496094 74.496094 96 48 96 Z M 48 10.078125 C 27.046875 10.078125 10.078125 27.046875 10.078125 48 C 10.078125 68.953125 27.046875 85.921875 48 85.921875 C 68.953125 85.921875 85.921875 68.953125 85.921875 48 C 85.886719 27.058594 68.941406 10.113281 48 10.078125 Z M 48 10.078125 "/>
<path style=" stroke:none;fill-rule:nonzero;fill:rgb(37.647059%,41.960784%,50.980392%);fill-opacity:1;" d="M 46.628906 64.5 C 31.359375 64.605469 16.441406 60.140625 3.738281 51.691406 L 6.738281 47.636719 C 18.609375 55.371094 32.449219 59.484375 46.628906 59.449219 C 61.558594 59.25 76.253906 55.546875 89.496094 48.644531 L 92.015625 53.015625 C 78.011719 60.421875 62.449219 64.359375 46.628906 64.5 Z M 46.628906 64.5 "/>
<path style=" stroke:none;fill-rule:nonzero;fill:rgb(37.647059%,41.960784%,50.980392%);fill-opacity:1;" d="M 89.261719 45.855469 C 77.390625 38.109375 63.550781 33.996094 49.371094 34.019531 C 34.441406 34.230469 19.746094 37.921875 6.503906 44.824219 L 3.984375 40.5 C 17.988281 33.128906 33.550781 29.191406 49.371094 29.050781 C 64.640625 28.933594 79.558594 33.386719 92.261719 41.824219 Z M 89.261719 45.855469 "/>
<path style=" stroke:none;fill-rule:nonzero;fill:rgb(37.647059%,41.960784%,50.980392%);fill-opacity:1;" d="M 39.269531 91.113281 C 38.613281 90.269531 22.875 70.816406 22.875 45.363281 C 22.875 19.921875 40.5 2.859375 41.191406 2.167969 L 44.636719 5.8125 C 44.484375 6 27.925781 21.984375 27.925781 45.363281 C 27.925781 68.753906 43.019531 87.738281 43.183594 87.925781 Z M 39.269531 91.113281 "/>
<path style=" stroke:none;fill-rule:nonzero;fill:rgb(37.647059%,41.960784%,50.980392%);fill-opacity:1;" d="M 54.808594 91.324219 L 51.363281 87.691406 C 51.515625 87.515625 68.074219 71.519531 68.074219 48.128906 C 68.074219 24.738281 52.957031 5.765625 52.816406 5.578125 L 56.730469 2.390625 C 57.386719 3.1875 73.125 22.6875 73.125 48.128906 C 73.125 73.558594 55.558594 90.621094 54.808594 91.324219 Z M 54.808594 91.324219 "/>
<path style=" stroke:none;fill-rule:nonzero;fill:rgb(37.647059%,41.960784%,50.980392%);fill-opacity:1;" d="M 45.480469 4.640625 L 50.519531 4.640625 L 50.519531 94.265625 L 45.480469 94.265625 Z M 45.480469 4.640625 "/>
</g>
</svg>
