
<svg xmlns="http://www.w3.org/2000/svg" xmlns:xlink="http://www.w3.org/1999/xlink" width="96px" height="96px" viewBox="0 0 96 96" version="1.1">
<g id="surface1">
<path style=" stroke:none;fill-rule:nonzero;fill:rgb(37.647059%,41.960784%,50.980392%);fill-opacity:1;" d="M 48.1875 32.144531 C 45.128906 32.109375 42.339844 33.9375 41.144531 36.761719 C 39.949219 39.597656 40.558594 42.878906 42.738281 45.046875 C 44.894531 47.238281 48.152344 47.894531 51 46.722656 C 53.847656 45.5625 55.6875 42.785156 55.6875 39.714844 C 55.675781 35.578125 52.324219 32.214844 48.1875 32.144531 Z M 48.1875 32.144531 "/>
<path style=" stroke:none;fill-rule:nonzero;fill:rgb(37.647059%,41.960784%,50.980392%);fill-opacity:1;" d="M 86.800781 5.917969 L 9.199219 5.917969 C 6.761719 5.917969 4.417969 6.890625 2.683594 8.613281 C 0.972656 10.347656 0 12.691406 0 15.140625 L 0 61.640625 C 0 66.714844 4.125 70.839844 9.199219 70.839844 L 31.5 70.839844 C 34.019531 70.921875 36.011719 72.984375 36 75.515625 L 36 76.183594 C 36 78.714844 33.996094 80.765625 31.5 80.824219 L 23.484375 80.824219 C 21.035156 80.988281 19.125 83.015625 19.125 85.464844 C 19.125 87.925781 21.035156 89.953125 23.484375 90.082031 L 72.515625 90.082031 C 74.964844 89.953125 76.875 87.925781 76.875 85.464844 C 76.875 83.015625 74.964844 80.988281 72.515625 80.824219 L 64.558594 80.824219 C 62.050781 80.800781 60 78.738281 60 76.183594 L 60 75.515625 C 60 72.949219 62.074219 70.886719 64.640625 70.886719 L 86.800781 70.886719 C 91.875 70.886719 96 66.761719 96 61.6875 L 96 15.1875 C 96.011719 12.738281 95.050781 10.359375 93.328125 8.625 C 91.605469 6.890625 89.25 5.917969 86.800781 5.917969 Z M 69.105469 42.152344 C 66.644531 42.222656 64.464844 43.734375 63.550781 45.996094 C 62.613281 48.269531 63.105469 50.871094 64.816406 52.652344 C 65.285156 53.109375 65.578125 53.765625 65.578125 54.433594 C 65.578125 55.113281 65.285156 55.746094 64.816406 56.214844 C 64.324219 56.671875 63.703125 56.917969 63.035156 56.894531 C 62.390625 56.871094 61.769531 56.613281 61.3125 56.121094 C 59.542969 54.246094 56.753906 53.753906 54.410156 54.855469 C 52.066406 55.839844 50.589844 58.183594 50.730469 60.738281 C 50.765625 61.417969 50.496094 62.0625 50.027344 62.566406 C 49.558594 63.035156 48.925781 63.292969 48.234375 63.292969 C 46.839844 63.292969 45.984375 62.238281 45.808594 60.457031 C 45.667969 57.984375 44.074219 55.828125 41.753906 54.9375 C 39.421875 54.046875 36.796875 54.597656 35.027344 56.355469 C 34.207031 57.199219 32.894531 57.339844 31.933594 56.671875 C 31.078125 56.074219 30.714844 54.984375 31.066406 54 C 31.183594 53.613281 31.417969 53.25 31.6875 52.933594 C 33.574219 51.175781 34.113281 48.375 33 46.019531 C 32.027344 43.675781 29.660156 42.1875 27.128906 42.328125 C 25.886719 42.410156 24.808594 41.566406 24.597656 40.347656 C 24.386719 39.292969 24.9375 38.214844 25.921875 37.746094 C 26.332031 37.558594 26.777344 37.464844 27.234375 37.453125 C 29.730469 37.453125 31.957031 35.894531 32.824219 33.5625 C 33.890625 31.230469 33.339844 28.5 31.5 26.753906 C 30.808594 26.121094 30.527344 25.207031 30.75 24.328125 C 30.984375 23.4375 31.675781 22.746094 32.578125 22.535156 C 33.457031 22.324219 34.371094 22.640625 34.980469 23.308594 C 36.855469 25.171875 39.691406 25.652344 42.046875 24.503906 C 44.355469 23.519531 45.796875 21.222656 45.691406 18.714844 C 45.609375 17.8125 46.066406 16.933594 46.839844 16.453125 C 47.625 15.972656 48.597656 15.972656 49.371094 16.453125 C 50.167969 16.933594 50.613281 17.8125 50.542969 18.714844 C 50.566406 21.1875 52.066406 23.425781 54.339844 24.375 C 56.613281 25.347656 59.25 24.855469 61.042969 23.144531 C 62.003906 22.183594 63.5625 22.183594 64.511719 23.167969 C 65.472656 24.128906 65.472656 25.6875 64.5 26.636719 C 62.671875 28.488281 62.214844 31.265625 63.339844 33.597656 L 69 37.300781 C 70.734375 37.371094 71.777344 38.25 71.8125 39.667969 C 71.824219 41.0625 70.816406 42 69.105469 42.152344 Z M 69.105469 42.152344 "/>
</g>
</svg>
