
<svg xmlns="http://www.w3.org/2000/svg" xmlns:xlink="http://www.w3.org/1999/xlink" width="96px" height="96px" viewBox="0 0 96 96" version="1.1">
<defs>
<filter id="alpha" filterUnits="objectBoundingBox" x="0%" y="0%" width="100%" height="100%">
  <feColorMatrix type="matrix" in="SourceGraphic" values="0 0 0 0 1 0 0 0 0 1 0 0 0 0 1 0 0 0 1 0"/>
</filter>
<mask id="mask0">
  <g filter="url(#alpha)">
<rect x="0" y="0" width="96" height="96" style="fill:rgb(0%,0%,0%);fill-opacity:0.521569;stroke:none;"/>
  </g>
</mask>
<linearGradient id="linear0" gradientUnits="userSpaceOnUse" x1="34.59" y1="33.87" x2="41.6" y2="33.87" gradientTransform="matrix(1.5,0,0,1.5,0,0)">
<stop offset="0" style="stop-color:rgb(100%,100%,100%);stop-opacity:0;"/>
<stop offset="1" style="stop-color:rgb(100%,100%,100%);stop-opacity:1;"/>
</linearGradient>
<clipPath id="clip1">
  <rect x="0" y="0" width="96" height="96"/>
</clipPath>
<g id="surface5" clip-path="url(#clip1)">
<path style=" stroke:none;fill-rule:nonzero;fill:url(#linear0);" d="M 62.398438 49.140625 C 65.058594 47.402344 66.664062 44.441406 66.675781 41.265625 L 66.675781 38.265625 C 66.660156 33.054688 62.4375 28.832031 57.226562 28.816406 C 52.011719 28.832031 47.792969 33.054688 47.773438 38.265625 L 47.773438 41.265625 C 47.785156 44.441406 49.390625 47.402344 52.050781 49.140625 L 52.050781 51.359375 C 52.054688 52.511719 51.433594 53.574219 50.429688 54.136719 L 42.179688 58.800781 C 38.679688 60.769531 36.511719 64.472656 36.511719 68.488281 L 36.511719 72.734375 L 78 72.734375 L 78 68.488281 C 77.996094 64.472656 75.828125 60.769531 72.328125 58.800781 L 64.078125 54.136719 C 63.074219 53.574219 62.457031 52.511719 62.460938 51.359375 L 62.460938 49.140625 "/>
</g>
</defs>
<g id="surface1">
<path style=" stroke:none;fill-rule:nonzero;fill:rgb(92.54902%,25.098039%,47.843137%);fill-opacity:1;" d="M 8.085938 0 L 87.914062 0 C 92.378906 0 96 3.621094 96 8.085938 L 96 87.914062 C 96 92.378906 92.378906 96 87.914062 96 L 8.085938 96 C 3.621094 96 0 92.378906 0 87.914062 L 0 8.085938 C 0 3.621094 3.621094 0 8.085938 0 Z M 8.085938 0 "/>
<path style=" stroke:none;fill-rule:nonzero;fill:rgb(100%,100%,100%);fill-opacity:1;" d="M 47.265625 46.125 C 50.261719 44.15625 52.070312 40.816406 52.078125 37.230469 L 52.078125 33.914062 C 52.0625 28.035156 47.296875 23.273438 41.414062 23.265625 C 35.539062 23.28125 30.78125 28.039062 30.765625 33.914062 L 30.765625 37.246094 C 30.773438 40.828125 32.582031 44.164062 35.578125 46.125 L 35.578125 48.628906 C 35.585938 49.929688 34.886719 51.132812 33.75 51.765625 L 24.449219 57 C 20.476562 59.210938 18.007812 63.402344 18 67.949219 L 18 72.734375 L 64.769531 72.734375 L 64.769531 67.949219 C 64.78125 63.414062 62.34375 59.230469 58.394531 57 L 49.078125 51.75 C 47.953125 51.109375 47.261719 49.910156 47.265625 48.613281 L 47.265625 46.125 "/>
<use xlink:href="#surface5" mask="url(#mask0)"/>
</g>
</svg>
