
<svg xmlns="http://www.w3.org/2000/svg" xmlns:xlink="http://www.w3.org/1999/xlink" width="96px" height="96px" viewBox="0 0 96 96" version="1.1">
<g id="surface1">
<path style=" stroke:none;fill-rule:nonzero;fill:rgb(49.411765%,34.117647%,76.862745%);fill-opacity:1;" d="M 8.085938 0 L 87.914062 0 C 92.378906 0 96 3.621094 96 8.085938 L 96 87.914062 C 96 92.378906 92.378906 96 87.914062 96 L 8.085938 96 C 3.621094 96 0 92.378906 0 87.914062 L 0 8.085938 C 0 3.621094 3.621094 0 8.085938 0 Z M 8.085938 0 "/>
<path style=" stroke:none;fill-rule:nonzero;fill:rgb(100%,100%,100%);fill-opacity:1;" d="M 17.625 22.738281 L 25.726562 22.738281 C 27.265625 22.738281 28.515625 23.988281 28.515625 25.53125 L 28.515625 33.628906 C 28.515625 35.171875 27.265625 36.421875 25.726562 36.421875 L 17.625 36.421875 C 16.085938 36.421875 14.835938 35.171875 14.835938 33.628906 L 14.835938 25.53125 C 14.835938 23.988281 16.085938 22.738281 17.625 22.738281 Z M 17.625 22.738281 "/>
<path style=" stroke:none;fill-rule:nonzero;fill:rgb(100%,100%,100%);fill-opacity:1;" d="M 35.175781 22.738281 L 43.273438 22.738281 C 44.816406 22.738281 46.066406 23.988281 46.066406 25.53125 L 46.066406 33.628906 C 46.066406 35.171875 44.816406 36.421875 43.273438 36.421875 L 35.175781 36.421875 C 33.632812 36.421875 32.386719 35.171875 32.386719 33.628906 L 32.386719 25.53125 C 32.386719 23.988281 33.632812 22.738281 35.175781 22.738281 Z M 35.175781 22.738281 "/>
<path style=" stroke:none;fill-rule:nonzero;fill:rgb(100%,100%,100%);fill-opacity:1;" d="M 52.726562 22.738281 L 60.824219 22.738281 C 62.367188 22.738281 63.613281 23.988281 63.613281 25.53125 L 63.613281 33.628906 C 63.613281 35.171875 62.367188 36.421875 60.824219 36.421875 L 52.726562 36.421875 C 51.183594 36.421875 49.933594 35.171875 49.933594 33.628906 L 49.933594 25.53125 C 49.933594 23.988281 51.183594 22.738281 52.726562 22.738281 Z M 52.726562 22.738281 "/>
<path style=" stroke:none;fill-rule:nonzero;fill:rgb(100%,100%,100%);fill-opacity:1;" d="M 70.261719 22.738281 L 78.359375 22.738281 C 79.902344 22.738281 81.148438 23.988281 81.148438 25.53125 L 81.148438 33.628906 C 81.148438 35.171875 79.902344 36.421875 78.359375 36.421875 L 70.261719 36.421875 C 68.71875 36.421875 67.46875 35.171875 67.46875 33.628906 L 67.46875 25.53125 C 67.46875 23.988281 68.71875 22.738281 70.261719 22.738281 Z M 70.261719 22.738281 "/>
<path style=" stroke:none;fill-rule:nonzero;fill:rgb(100%,100%,100%);fill-opacity:1;" d="M 17.625 43.199219 L 25.726562 43.199219 C 27.265625 43.199219 28.515625 44.449219 28.515625 45.988281 L 28.515625 54.089844 C 28.515625 55.632812 27.265625 56.878906 25.726562 56.878906 L 17.625 56.878906 C 16.085938 56.878906 14.835938 55.632812 14.835938 54.089844 L 14.835938 45.988281 C 14.835938 44.449219 16.085938 43.199219 17.625 43.199219 Z M 17.625 43.199219 "/>
<path style=" stroke:none;fill-rule:nonzero;fill:rgb(100%,100%,100%);fill-opacity:1;" d="M 35.175781 43.199219 L 43.273438 43.199219 C 44.816406 43.199219 46.066406 44.449219 46.066406 45.988281 L 46.066406 54.089844 C 46.066406 55.632812 44.816406 56.878906 43.273438 56.878906 L 35.175781 56.878906 C 33.632812 56.878906 32.386719 55.632812 32.386719 54.089844 L 32.386719 45.988281 C 32.386719 44.449219 33.632812 43.199219 35.175781 43.199219 Z M 35.175781 43.199219 "/>
</g>
</svg>
