
<svg xmlns="http://www.w3.org/2000/svg" xmlns:xlink="http://www.w3.org/1999/xlink" width="96px" height="96px" viewBox="0 0 96 96" version="1.1">
<defs>
<filter id="alpha" filterUnits="objectBoundingBox" x="0%" y="0%" width="100%" height="100%">
  <feColorMatrix type="matrix" in="SourceGraphic" values="0 0 0 0 1 0 0 0 0 1 0 0 0 0 1 0 0 0 1 0"/>
</filter>
<mask id="mask0">
  <g filter="url(#alpha)">
<rect x="0" y="0" width="96" height="96" style="fill:rgb(0%,0%,0%);fill-opacity:0.301961;stroke:none;"/>
  </g>
</mask>
<clipPath id="clip1">
  <rect x="0" y="0" width="96" height="96"/>
</clipPath>
<g id="surface5" clip-path="url(#clip1)">
<path style=" stroke:none;fill-rule:nonzero;fill:rgb(100%,100%,100%);fill-opacity:1;" d="M 7.5 73.859375 C 7.5 74.445312 7.734375 75.003906 8.148438 75.414062 C 8.5625 75.824219 9.121094 76.054688 9.703125 76.050781 L 55.003906 76.050781 C 55.589844 76.054688 56.148438 75.824219 56.5625 75.414062 C 56.976562 75.003906 57.210938 74.445312 57.210938 73.859375 L 57.210938 32.011719 L 7.5 32.011719 Z M 7.5 73.859375 "/>
</g>
<mask id="mask1">
  <g filter="url(#alpha)">
<rect x="0" y="0" width="96" height="96" style="fill:rgb(0%,0%,0%);fill-opacity:0.301961;stroke:none;"/>
  </g>
</mask>
<clipPath id="clip2">
  <rect x="0" y="0" width="96" height="96"/>
</clipPath>
<g id="surface8" clip-path="url(#clip2)">
<path style=" stroke:none;fill-rule:nonzero;fill:rgb(100%,100%,100%);fill-opacity:1;" d="M 62.578125 36.855469 L 62.578125 67.066406 C 62.578125 68.28125 63.566406 69.269531 64.785156 69.269531 L 88.066406 69.269531 C 89.28125 69.269531 90.269531 68.28125 90.269531 67.066406 L 90.269531 36.855469 Z M 62.578125 36.855469 "/>
</g>
</defs>
<g id="surface1">
<path style=" stroke:none;fill-rule:nonzero;fill:rgb(49.411765%,34.117647%,76.862745%);fill-opacity:1;" d="M 8.085938 0 L 87.914062 0 C 92.378906 0 96 3.621094 96 8.085938 L 96 87.914062 C 96 92.378906 92.378906 96 87.914062 96 L 8.085938 96 C 3.621094 96 0 92.378906 0 87.914062 L 0 8.085938 C 0 3.621094 3.621094 0 8.085938 0 Z M 8.085938 0 "/>
<use xlink:href="#surface5" mask="url(#mask0)"/>
<path style=" stroke:none;fill-rule:nonzero;fill:rgb(27.058824%,89.019608%,100%);fill-opacity:1;" d="M 55.003906 26.355469 L 9.703125 26.355469 C 8.507812 26.347656 7.523438 27.300781 7.5 28.5 L 7.5 31.964844 L 57.210938 31.964844 L 57.210938 28.5 C 57.183594 27.300781 56.203125 26.347656 55.003906 26.355469 Z M 55.003906 26.355469 "/>
<use xlink:href="#surface8" mask="url(#mask1)"/>
<path style=" stroke:none;fill-rule:nonzero;fill:rgb(100%,100%,100%);fill-opacity:1;" d="M 90.269531 33.40625 C 90.269531 32.1875 89.28125 31.199219 88.066406 31.199219 L 64.785156 31.199219 C 63.566406 31.199219 62.578125 32.1875 62.578125 33.40625 L 62.578125 36.855469 L 90.269531 36.855469 Z M 90.269531 33.40625 "/>
<path style=" stroke:none;fill-rule:nonzero;fill:rgb(100%,100%,100%);fill-opacity:1;" d="M 24.03125 52.050781 L 40.695312 52.050781 C 41.523438 52.050781 42.195312 52.71875 42.195312 53.542969 C 42.195312 54.367188 41.523438 55.035156 40.695312 55.035156 L 24.03125 55.035156 C 23.203125 55.035156 22.53125 54.367188 22.53125 53.542969 C 22.53125 52.71875 23.203125 52.050781 24.03125 52.050781 Z M 24.03125 52.050781 "/>
<path style=" stroke:none;fill-rule:nonzero;fill:rgb(100%,100%,100%);fill-opacity:1;" d="M 33.855469 45.226562 L 33.855469 61.890625 C 33.855469 62.71875 33.1875 63.390625 32.363281 63.390625 C 31.539062 63.390625 30.871094 62.71875 30.871094 61.890625 L 30.871094 45.226562 C 30.871094 44.398438 31.539062 43.726562 32.363281 43.726562 C 33.1875 43.726562 33.855469 44.398438 33.855469 45.226562 Z M 33.855469 45.226562 "/>
</g>
</svg>
