
<svg xmlns="http://www.w3.org/2000/svg" xmlns:xlink="http://www.w3.org/1999/xlink" width="96px" height="96px" viewBox="0 0 96 96" version="1.1">
<defs>
<linearGradient id="linear0" gradientUnits="userSpaceOnUse" x1="32.86" y1="52.99" x2="32.86" y2="54.6" gradientTransform="matrix(1.5,0,0,1.5,-0.195,0.075)">
<stop offset="0" style="stop-color:rgb(86.27451%,87.058824%,88.627451%);stop-opacity:1;"/>
<stop offset="0.57" style="stop-color:rgb(87.058824%,87.843137%,89.411765%);stop-opacity:1;"/>
<stop offset="0.81" style="stop-color:rgb(89.803922%,90.588235%,91.764706%);stop-opacity:1;"/>
<stop offset="0.99" style="stop-color:rgb(94.901961%,95.294118%,95.686275%);stop-opacity:1;"/>
<stop offset="1" style="stop-color:rgb(95.294118%,95.686275%,96.078431%);stop-opacity:1;"/>
</linearGradient>
</defs>
<g id="surface1">
<path style=" stroke:none;fill-rule:nonzero;fill:rgb(36.078431%,41.960784%,75.294118%);fill-opacity:1;" d="M 8.085938 0 L 87.914062 0 C 92.378906 0 96 3.621094 96 8.085938 L 96 87.914062 C 96 92.378906 92.378906 96 87.914062 96 L 8.085938 96 C 3.621094 96 0 92.378906 0 87.914062 L 0 8.085938 C 0 3.621094 3.621094 0 8.085938 0 Z M 8.085938 0 "/>
<path style=" stroke:none;fill-rule:nonzero;fill:url(#linear0);" d="M 65.820312 81.585938 L 63 81.585938 C 61.78125 81.585938 60.796875 80.597656 60.796875 79.378906 L 60.796875 69.226562 L 37.5 69.226562 L 37.5 79.363281 C 37.5 80.582031 36.511719 81.570312 35.296875 81.570312 L 32.371094 81.570312 C 31.167969 81.570312 30.195312 82.542969 30.195312 83.746094 C 30.195312 84.945312 31.167969 85.921875 32.371094 85.921875 L 65.820312 85.921875 C 66.398438 85.925781 66.957031 85.695312 67.367188 85.289062 C 67.777344 84.878906 68.011719 84.324219 68.011719 83.746094 C 68 82.542969 67.019531 81.578125 65.820312 81.585938 Z M 65.820312 81.585938 "/>
<path style=" stroke:none;fill-rule:nonzero;fill:rgb(16.078431%,71.372549%,96.470588%);fill-opacity:1;" d="M 13.710938 17.789062 L 82.289062 17.789062 C 83.871094 17.789062 85.15625 19.074219 85.15625 20.65625 L 85.15625 65.925781 C 85.15625 67.507812 83.871094 68.789062 82.289062 68.789062 L 13.710938 68.789062 C 12.128906 68.789062 10.84375 67.507812 10.84375 65.925781 L 10.84375 20.65625 C 10.84375 19.074219 12.128906 17.789062 13.710938 17.789062 Z M 13.710938 17.789062 "/>
<path style=" stroke:none;fill-rule:nonzero;fill:rgb(100%,100%,100%);fill-opacity:1;" d="M 82.289062 70.109375 L 13.710938 70.109375 C 11.425781 70.109375 9.566406 68.28125 9.523438 66 L 9.523438 20.65625 C 9.542969 18.355469 11.410156 16.5 13.710938 16.5 L 82.289062 16.5 C 84.601562 16.5 86.476562 18.375 86.476562 20.683594 L 86.476562 66 C 86.433594 68.28125 84.574219 70.109375 82.289062 70.109375 Z M 13.710938 19.109375 C 12.882812 19.109375 12.210938 19.78125 12.210938 20.609375 L 12.210938 66 C 12.210938 66.828125 12.882812 67.5 13.710938 67.5 L 82.289062 67.5 C 83.117188 67.5 83.789062 66.828125 83.789062 66 L 83.789062 20.65625 C 83.789062 19.828125 83.117188 19.15625 82.289062 19.15625 Z M 13.710938 19.109375 "/>
<path style=" stroke:none;fill-rule:nonzero;fill:rgb(100%,100%,100%);fill-opacity:1;" d="M 9.898438 63 L 85.964844 63 L 85.964844 66.300781 C 85.964844 68.121094 84.488281 69.601562 82.664062 69.601562 L 13.199219 69.601562 C 11.378906 69.601562 9.898438 68.121094 9.898438 66.300781 Z M 9.898438 63 "/>
<path style=" stroke:none;fill-rule:nonzero;fill:rgb(100%,100%,100%);fill-opacity:1;" d="M 62.054688 38.835938 C 61.722656 38.546875 61.292969 38.40625 60.855469 38.445312 C 59.5625 38.542969 58.351562 37.800781 57.855469 36.601562 C 57.347656 35.429688 57.605469 34.070312 58.5 33.164062 C 59.367188 32.289062 59.367188 30.875 58.5 30 C 58.105469 29.59375 57.566406 29.359375 57 29.355469 C 56.371094 29.367188 55.765625 29.601562 55.289062 30.015625 C 54.664062 30.53125 53.882812 30.820312 53.070312 30.839844 C 52.742188 30.84375 52.414062 30.78125 52.109375 30.660156 C 51.054688 30.148438 50.339844 29.125 50.21875 27.960938 C 50.273438 26.820312 49.457031 25.824219 48.328125 25.648438 L 47.550781 25.648438 C 46.5 25.84375 45.746094 26.773438 45.78125 27.839844 C 45.839844 29.097656 45.109375 30.261719 43.949219 30.75 C 43.554688 30.910156 43.132812 31 42.703125 31.003906 C 41.890625 31.003906 41.101562 30.699219 40.5 30.148438 C 40.054688 29.734375 39.472656 29.5 38.863281 29.488281 C 38.300781 29.492188 37.761719 29.71875 37.363281 30.121094 C 36.5 30.988281 36.5 32.386719 37.363281 33.253906 C 38.246094 34.117188 38.535156 35.417969 38.101562 36.570312 C 37.667969 37.769531 36.523438 38.5625 35.25 38.550781 C 34.144531 38.535156 33.191406 39.320312 33 40.410156 L 33 41.113281 C 33.03125 41.234375 33.070312 41.347656 33.121094 41.460938 C 33.414062 42.34375 34.230469 42.945312 35.160156 42.960938 C 36.460938 42.808594 37.707031 43.519531 38.242188 44.714844 C 38.777344 45.90625 38.476562 47.308594 37.5 48.179688 C 36.6875 49.054688 36.6875 50.410156 37.5 51.285156 C 37.898438 51.683594 38.4375 51.917969 39 51.929688 C 39.550781 51.914062 40.082031 51.707031 40.5 51.34375 C 41.105469 50.746094 41.914062 50.394531 42.765625 50.371094 C 43.132812 50.367188 43.5 50.433594 43.84375 50.566406 C 45.046875 51.03125 45.839844 52.1875 45.839844 53.476562 C 45.84375 54.5625 46.628906 55.492188 47.699219 55.679688 L 48.253906 55.679688 L 48.601562 55.5 C 49.050781 55.277344 49.476562 55.011719 49.875 54.703125 C 50.171875 54.300781 50.324219 53.8125 50.308594 53.308594 C 50.402344 52.183594 51.03125 51.171875 52.003906 50.59375 C 52.355469 50.414062 52.75 50.320312 53.144531 50.324219 C 53.949219 50.347656 54.726562 50.636719 55.351562 51.148438 C 55.828125 51.5625 56.429688 51.792969 57.058594 51.808594 C 57.621094 51.804688 58.15625 51.585938 58.558594 51.195312 C 59.429688 50.289062 59.429688 48.859375 58.558594 47.953125 C 57.929688 47.175781 57.65625 46.167969 57.808594 45.179688 C 58.121094 43.910156 59.21875 42.988281 60.523438 42.898438 C 61.707031 42.992188 62.769531 42.1875 63 41.023438 L 63 40.5 L 62.820312 40.15625 C 62.613281 39.691406 62.355469 39.246094 62.054688 38.835938 Z M 48.015625 46.335938 C 45.730469 46.339844 43.667969 44.96875 42.792969 42.859375 C 41.914062 40.75 42.398438 38.320312 44.011719 36.707031 C 45.625 35.09375 48.054688 34.609375 50.164062 35.488281 C 52.273438 36.363281 53.644531 38.425781 53.640625 40.710938 C 53.582031 43.792969 51.082031 46.265625 48 46.289062 Z M 48.015625 46.335938 "/>
<path style=" stroke:none;fill-rule:nonzero;fill:rgb(100%,100%,100%);fill-opacity:1;" d="M 48 37.753906 C 46.820312 37.742188 45.746094 38.445312 45.289062 39.535156 C 44.828125 40.621094 45.074219 41.878906 45.90625 42.71875 C 46.738281 43.554688 47.996094 43.804688 49.085938 43.351562 C 50.175781 42.898438 50.886719 41.832031 50.878906 40.648438 C 50.828125 39.078125 49.570312 37.816406 48 37.753906 Z M 48 37.753906 "/>
</g>
</svg>
