
<svg xmlns="http://www.w3.org/2000/svg" xmlns:xlink="http://www.w3.org/1999/xlink" width="96px" height="96px" viewBox="0 0 96 96" version="1.1">
<defs>
<linearGradient id="linear0" gradientUnits="userSpaceOnUse" x1="32.85" y1="53" x2="32.85" y2="54.61" gradientTransform="matrix(1.5,0,0,1.5,-0.18,0.075)">
<stop offset="0" style="stop-color:rgb(86.27451%,87.058824%,88.627451%);stop-opacity:1;"/>
<stop offset="0.57" style="stop-color:rgb(87.058824%,87.843137%,89.411765%);stop-opacity:1;"/>
<stop offset="0.81" style="stop-color:rgb(89.803922%,90.588235%,91.764706%);stop-opacity:1;"/>
<stop offset="0.99" style="stop-color:rgb(94.901961%,95.294118%,95.686275%);stop-opacity:1;"/>
<stop offset="1" style="stop-color:rgb(95.294118%,95.686275%,96.078431%);stop-opacity:1;"/>
</linearGradient>
</defs>
<g id="surface1">
<path style=" stroke:none;fill-rule:nonzero;fill:rgb(49.411765%,34.117647%,76.862745%);fill-opacity:1;" d="M 8.085938 0 L 87.914062 0 C 92.378906 0 96 3.621094 96 8.085938 L 96 87.914062 C 96 92.378906 92.378906 96 87.914062 96 L 8.085938 96 C 3.621094 96 0 92.378906 0 87.914062 L 0 8.085938 C 0 3.621094 3.621094 0 8.085938 0 Z M 8.085938 0 "/>
<path style=" stroke:none;fill-rule:nonzero;fill:url(#linear0);" d="M 65.820312 81.585938 L 63 81.585938 C 61.78125 81.585938 60.796875 80.597656 60.796875 79.378906 L 60.796875 69.226562 L 37.5 69.226562 L 37.5 79.363281 C 37.5 80.582031 36.511719 81.570312 35.296875 81.570312 L 32.371094 81.570312 C 31.167969 81.570312 30.195312 82.542969 30.195312 83.746094 C 30.195312 84.945312 31.167969 85.921875 32.371094 85.921875 L 65.820312 85.921875 C 66.398438 85.925781 66.957031 85.695312 67.367188 85.289062 C 67.777344 84.878906 68.011719 84.324219 68.011719 83.746094 C 68 82.542969 67.019531 81.578125 65.820312 81.585938 Z M 65.820312 81.585938 "/>
<path style=" stroke:none;fill-rule:nonzero;fill:rgb(92.54902%,25.098039%,47.843137%);fill-opacity:1;" d="M 13.710938 17.789062 L 82.289062 17.789062 C 83.871094 17.789062 85.15625 19.074219 85.15625 20.65625 L 85.15625 65.925781 C 85.15625 67.507812 83.871094 68.789062 82.289062 68.789062 L 13.710938 68.789062 C 12.128906 68.789062 10.84375 67.507812 10.84375 65.925781 L 10.84375 20.65625 C 10.84375 19.074219 12.128906 17.789062 13.710938 17.789062 Z M 13.710938 17.789062 "/>
<path style=" stroke:none;fill-rule:nonzero;fill:rgb(100%,100%,100%);fill-opacity:1;" d="M 82.289062 70.109375 L 13.710938 70.109375 C 11.425781 70.109375 9.566406 68.28125 9.523438 66 L 9.523438 20.65625 C 9.542969 18.355469 11.410156 16.5 13.710938 16.5 L 82.289062 16.5 C 84.601562 16.5 86.476562 18.375 86.476562 20.683594 L 86.476562 66 C 86.433594 68.28125 84.574219 70.109375 82.289062 70.109375 Z M 13.710938 19.109375 C 12.882812 19.109375 12.210938 19.78125 12.210938 20.609375 L 12.210938 66 C 12.210938 66.828125 12.882812 67.5 13.710938 67.5 L 82.289062 67.5 C 83.117188 67.5 83.789062 66.828125 83.789062 66 L 83.789062 20.65625 C 83.789062 19.828125 83.117188 19.15625 82.289062 19.15625 Z M 13.710938 19.109375 "/>
<path style=" stroke:none;fill-rule:nonzero;fill:rgb(100%,100%,100%);fill-opacity:1;" d="M 9.898438 63 L 85.964844 63 L 85.964844 66.300781 C 85.964844 68.121094 84.488281 69.601562 82.664062 69.601562 L 13.199219 69.601562 C 11.378906 69.601562 9.898438 68.121094 9.898438 66.300781 Z M 9.898438 63 "/>
<path style=" stroke:none;fill-rule:nonzero;fill:rgb(100%,100%,100%);fill-opacity:1;" d="M 34.171875 52.140625 L 37.875 52.140625 C 38.570312 52.140625 39.136719 52.703125 39.136719 53.398438 L 39.136719 57.105469 C 39.136719 57.800781 38.570312 58.363281 37.875 58.363281 L 34.171875 58.363281 C 33.472656 58.363281 32.910156 57.800781 32.910156 57.105469 L 32.910156 53.398438 C 32.910156 52.703125 33.472656 52.140625 34.171875 52.140625 Z M 34.171875 52.140625 "/>
<path style=" stroke:none;fill-rule:nonzero;fill:rgb(100%,100%,100%);fill-opacity:1;" d="M 42.148438 52.140625 L 45.855469 52.140625 C 46.550781 52.140625 47.113281 52.703125 47.113281 53.398438 L 47.113281 57.105469 C 47.113281 57.800781 46.550781 58.363281 45.855469 58.363281 L 42.148438 58.363281 C 41.453125 58.363281 40.890625 57.800781 40.890625 57.105469 L 40.890625 53.398438 C 40.890625 52.703125 41.453125 52.140625 42.148438 52.140625 Z M 42.148438 52.140625 "/>
<path style=" stroke:none;fill-rule:nonzero;fill:rgb(100%,100%,100%);fill-opacity:1;" d="M 50.144531 52.140625 L 53.851562 52.140625 C 54.546875 52.140625 55.109375 52.703125 55.109375 53.398438 L 55.109375 57.105469 C 55.109375 57.800781 54.546875 58.363281 53.851562 58.363281 L 50.144531 58.363281 C 49.449219 58.363281 48.886719 57.800781 48.886719 57.105469 L 48.886719 53.398438 C 48.886719 52.703125 49.449219 52.140625 50.144531 52.140625 Z M 50.144531 52.140625 "/>
<path style=" stroke:none;fill-rule:nonzero;fill:rgb(100%,100%,100%);fill-opacity:1;" d="M 58.125 52.140625 L 61.828125 52.140625 C 62.527344 52.140625 63.089844 52.703125 63.089844 53.398438 L 63.089844 57.105469 C 63.089844 57.800781 62.527344 58.363281 61.828125 58.363281 L 58.125 58.363281 C 57.429688 58.363281 56.863281 57.800781 56.863281 57.105469 L 56.863281 53.398438 C 56.863281 52.703125 57.429688 52.140625 58.125 52.140625 Z M 58.125 52.140625 "/>
</g>
</svg>
