
<svg xmlns="http://www.w3.org/2000/svg" xmlns:xlink="http://www.w3.org/1999/xlink" width="96px" height="96px" viewBox="0 0 96 96" version="1.1">
<g id="surface1">
<path style=" stroke:none;fill-rule:nonzero;fill:rgb(92.54902%,25.098039%,47.843137%);fill-opacity:1;" d="M 8.085938 0 L 87.914062 0 C 92.378906 0 96 3.621094 96 8.085938 L 96 87.914062 C 96 92.378906 92.378906 96 87.914062 96 L 8.085938 96 C 3.621094 96 0 92.378906 0 87.914062 L 0 8.085938 C 0 3.621094 3.621094 0 8.085938 0 Z M 8.085938 0 "/>
<path style=" stroke:none;fill-rule:nonzero;fill:rgb(100%,100%,100%);fill-opacity:1;" d="M 48.179688 24.136719 C 48.125 24.058594 48.074219 23.980469 48.03125 23.894531 L 48.03125 23.761719 L 48.03125 23.835938 L 48.03125 23.761719 L 48.03125 23.894531 C 47.519531 25.035156 40.53125 32.59375 26.160156 34.140625 C 25.945312 38.558594 26.5 42.976562 27.796875 47.203125 L 48.179688 47.203125 Z M 48.179688 24.136719 "/>
<path style=" stroke:none;fill-rule:nonzero;fill:rgb(16.078431%,71.372549%,96.470588%);fill-opacity:1;" d="M 48.179688 72.121094 C 57.902344 66.792969 65.121094 57.835938 68.265625 47.203125 L 48.179688 47.203125 Z M 48.179688 72.121094 "/>
<path style=" stroke:none;fill-rule:nonzero;fill:rgb(100%,100%,100%);fill-opacity:1;" d="M 48 73.753906 C 47.730469 73.75 47.46875 73.679688 47.234375 73.546875 C 47.152344 73.488281 47.070312 73.429688 46.996094 73.363281 C 37.25 67.960938 29.933594 59.046875 26.535156 48.433594 C 25 43.785156 24.34375 38.894531 24.601562 34.003906 C 24.667969 33.292969 25.226562 32.730469 25.933594 32.65625 C 38.746094 31.273438 45.433594 24.976562 46.5 23.414062 C 46.632812 22.832031 47.097656 22.386719 47.683594 22.273438 C 47.886719 22.238281 48.097656 22.238281 48.300781 22.273438 C 48.871094 22.375 49.332031 22.796875 49.484375 23.355469 C 54.96875 28.839844 62.265625 32.132812 70.003906 32.625 C 70.742188 32.675781 71.335938 33.253906 71.398438 33.988281 C 71.65625 38.878906 71 43.769531 69.464844 48.421875 C 66.074219 59.03125 58.769531 67.953125 49.035156 73.363281 C 48.960938 73.4375 48.875 73.5 48.78125 73.546875 C 48.542969 73.683594 48.273438 73.757812 48 73.753906 Z M 27.539062 35.488281 C 27.5625 49.992188 35.375 63.363281 48 70.5 C 56.84375 65.5 63.472656 57.339844 66.554688 47.65625 C 67.8125 43.738281 68.453125 39.648438 68.460938 35.535156 C 60.808594 34.738281 53.625 31.46875 48 26.21875 C 45.300781 29.113281 38.445312 34.003906 27.539062 35.488281 Z M 27.539062 35.488281 "/>
</g>
</svg>
