
<svg xmlns="http://www.w3.org/2000/svg" xmlns:xlink="http://www.w3.org/1999/xlink" width="96px" height="96px" viewBox="0 0 96 96" version="1.1">
<defs>
<linearGradient id="linear0" gradientUnits="userSpaceOnUse" x1="31.18" y1="-3.52" x2="31.18" y2="47.91" gradientTransform="matrix(1.5,0,0,1.5,0,0)">
<stop offset="0" style="stop-color:rgb(16.078431%,71.372549%,96.470588%);stop-opacity:1;"/>
<stop offset="1" style="stop-color:rgb(49.411765%,34.117647%,76.862745%);stop-opacity:1;"/>
</linearGradient>
</defs>
<g id="surface1">
<path style=" stroke:none;fill-rule:nonzero;fill:rgb(91.764706%,92.156863%,93.72549%);fill-opacity:1;" d="M 8.085938 0 L 87.914062 0 C 92.378906 0 96 3.621094 96 8.085938 L 96 87.914062 C 96 92.378906 92.378906 96 87.914062 96 L 8.085938 96 C 3.621094 96 0 92.378906 0 87.914062 L 0 8.085938 C 0 3.621094 3.621094 0 8.085938 0 Z M 8.085938 0 "/>
<path style=" stroke:none;fill-rule:nonzero;fill:url(#linear0);" d="M 73.351562 47.160156 C 71.789062 45.621094 69.339844 44.851562 66 44.851562 C 64.132812 44.84375 62.277344 45.121094 60.496094 45.675781 C 58.765625 46.203125 57.128906 46.984375 55.636719 48 L 55.636719 51.75 C 55.636719 52.035156 55.636719 52.199219 55.84375 52.246094 C 56.054688 52.289062 56.128906 52.246094 56.308594 52.066406 C 57.691406 51.046875 59.207031 50.21875 60.808594 49.605469 C 62.296875 49.046875 63.871094 48.765625 65.460938 48.78125 C 66.332031 48.765625 67.207031 48.859375 68.054688 49.066406 C 68.738281 49.21875 69.363281 49.558594 69.871094 50.039062 C 70.394531 50.574219 70.765625 51.234375 70.949219 51.960938 C 71.210938 52.96875 71.332031 54.007812 71.308594 55.050781 L 71.308594 55.5 L 62.476562 56.773438 C 59.777344 57 57.238281 58.136719 55.273438 60 L 44.191406 27 C 43.324219 24.417969 40.914062 22.667969 38.191406 22.648438 C 35.464844 22.667969 33.054688 24.417969 32.191406 27 L 18 69.253906 C 17.59375 70.46875 17.800781 71.804688 18.546875 72.847656 C 19.296875 73.886719 20.5 74.503906 21.78125 74.503906 C 23.507812 74.503906 25.042969 73.390625 25.574219 71.746094 L 28.679688 62.203125 C 29.054688 61.0625 30.117188 60.289062 31.320312 60.285156 L 45 60.285156 C 46.207031 60.28125 47.277344 61.066406 47.640625 62.21875 L 50.640625 71.730469 C 51.164062 73.382812 52.699219 74.507812 54.433594 74.503906 L 62.101562 74.65625 C 63.875 74.652344 65.625 74.238281 67.214844 73.453125 C 68.015625 73.050781 68.761719 72.546875 69.433594 71.953125 C 70.09375 71.378906 70.65625 70.699219 71.101562 69.945312 L 71.203125 72.433594 C 71.234375 73.644531 72.238281 74.601562 73.449219 74.574219 C 74.65625 74.542969 75.613281 73.539062 75.585938 72.328125 L 75.585938 54.765625 C 75.65625 51.253906 74.910156 48.71875 73.351562 47.160156 Z M 41.503906 53.578125 L 34.84375 53.578125 C 33.960938 53.582031 33.128906 53.164062 32.609375 52.453125 C 32.085938 51.738281 31.9375 50.820312 32.203125 49.980469 L 36.839844 35.21875 C 37 34.613281 37.546875 34.191406 38.175781 34.191406 C 38.800781 34.191406 39.351562 34.613281 39.511719 35.21875 L 44.144531 49.980469 C 44.414062 50.820312 44.265625 51.738281 43.742188 52.453125 C 43.21875 53.164062 42.386719 53.582031 41.503906 53.578125 Z M 71.503906 62.578125 C 71.503906 63.648438 71.273438 64.699219 70.828125 65.671875 C 70.390625 66.675781 69.769531 67.589844 69 68.371094 C 68.226562 69.144531 67.324219 69.78125 66.328125 70.246094 C 65.34375 70.722656 64.261719 70.96875 63.164062 70.964844 C 61.71875 71.023438 60.292969 70.582031 59.128906 69.71875 C 58.625 69.324219 58.230469 68.808594 57.976562 68.21875 L 57.898438 67.996094 C 57.675781 67.410156 57.5625 66.789062 57.570312 66.164062 C 57.460938 64.5 58.125 62.878906 59.371094 61.769531 C 60.714844 60.695312 62.339844 60.023438 64.050781 59.835938 L 70.304688 59.070312 C 70.609375 59.027344 70.914062 59.117188 71.148438 59.320312 C 71.378906 59.519531 71.507812 59.8125 71.503906 60.121094 Z M 71.503906 62.578125 "/>
</g>
</svg>
