
<svg xmlns="http://www.w3.org/2000/svg" xmlns:xlink="http://www.w3.org/1999/xlink" width="96px" height="96px" viewBox="0 0 96 96" version="1.1">
<g id="surface1">
<path style=" stroke:none;fill-rule:nonzero;fill:rgb(49.411765%,34.117647%,76.862745%);fill-opacity:1;" d="M 8.085938 0 L 87.914062 0 C 92.378906 0 96 3.621094 96 8.085938 L 96 87.914062 C 96 92.378906 92.378906 96 87.914062 96 L 8.085938 96 C 3.621094 96 0 92.378906 0 87.914062 L 0 8.085938 C 0 3.621094 3.621094 0 8.085938 0 Z M 8.085938 0 "/>
<path style=" stroke:none;fill-rule:nonzero;fill:rgb(100%,100%,100%);fill-opacity:1;" d="M 77.761719 46.949219 C 77.324219 46.027344 76.796875 45.15625 76.183594 44.339844 C 75.515625 43.769531 74.644531 43.492188 73.769531 43.574219 C 71.175781 43.765625 68.75 42.265625 67.769531 39.855469 C 66.769531 37.515625 67.292969 34.800781 69.089844 33 C 70.816406 31.25 70.816406 28.4375 69.089844 26.683594 C 68.300781 25.875 67.222656 25.414062 66.089844 25.394531 C 64.824219 25.425781 63.613281 25.902344 62.671875 26.746094 C 61.394531 27.773438 59.808594 28.347656 58.171875 28.378906 C 57.507812 28.378906 56.851562 28.257812 56.234375 28.019531 C 54.128906 26.984375 52.714844 24.925781 52.5 22.589844 C 52.570312 20.316406 50.9375 18.347656 48.691406 18 L 48.40625 17.910156 L 47.519531 17.910156 C 47.394531 17.960938 47.261719 18 47.128906 18.03125 C 45.027344 18.425781 43.523438 20.285156 43.574219 22.425781 C 43.671875 24.941406 42.210938 27.257812 39.898438 28.261719 C 37.542969 29.277344 34.800781 28.738281 33 26.910156 C 32.101562 26.097656 30.941406 25.636719 29.730469 25.621094 C 28.605469 25.628906 27.53125 26.074219 26.730469 26.863281 C 25.015625 28.613281 25.015625 31.414062 26.730469 33.164062 C 28.5 34.882812 29.085938 37.484375 28.230469 39.796875 C 27.332031 42.175781 25.058594 43.753906 22.515625 43.769531 C 20.476562 43.90625 18.929688 44.609375 18.015625 47.519531 L 18.015625 48.929688 C 18.105469 49.15625 18.195312 49.394531 18.269531 49.621094 C 18.859375 51.382812 20.492188 52.582031 22.351562 52.621094 C 24.96875 52.304688 27.488281 53.738281 28.554688 56.152344 C 29.621094 58.570312 28.984375 61.394531 26.984375 63.121094 C 25.355469 64.875 25.355469 67.589844 26.984375 69.34375 C 27.808594 70.179688 28.933594 70.648438 30.105469 70.648438 C 31.179688 70.589844 32.203125 70.160156 33 69.433594 C 34.210938 68.257812 35.8125 67.566406 37.5 67.484375 C 40.921875 67.5 43.679688 70.289062 43.664062 73.710938 C 43.816406 75.691406 44.519531 77.203125 47.398438 78.210938 L 48.511719 78.210938 L 49.199219 77.835938 C 50.109375 77.402344 50.96875 76.875 51.765625 76.261719 C 52.371094 75.453125 52.675781 74.460938 52.636719 73.453125 C 52.8125 71.199219 54.078125 69.171875 56.023438 68.023438 C 56.78125 67.605469 57.636719 67.390625 58.5 67.410156 C 60.140625 67.445312 61.726562 68.023438 63 69.058594 C 63.953125 69.882812 65.164062 70.34375 66.421875 70.363281 C 67.546875 70.375 68.628906 69.925781 69.421875 69.121094 C 71.171875 67.320312 71.171875 64.453125 69.421875 62.65625 C 68.167969 61.082031 67.625 59.0625 67.921875 57.074219 C 68.566406 54.550781 70.765625 52.734375 73.363281 52.574219 C 75.714844 52.714844 77.8125 51.113281 78.300781 48.808594 L 78.300781 47.714844 Z M 48 59.308594 C 41.753906 59.308594 36.691406 54.246094 36.691406 48 C 36.691406 41.753906 41.753906 36.691406 48 36.691406 C 54.246094 36.691406 59.308594 41.753906 59.308594 48 C 59.261719 54.226562 54.226562 59.261719 48 59.308594 Z M 48 59.308594 "/>
</g>
</svg>
