
<svg xmlns="http://www.w3.org/2000/svg" xmlns:xlink="http://www.w3.org/1999/xlink" width="96px" height="96px" viewBox="0 0 96 96" version="1.1">
<defs>
<clipPath id="clip1">
  <path d="M 8.085938 0 L 87.914062 0 C 92.378906 0 96 3.621094 96 8.085938 L 96 87.914062 C 96 92.378906 92.378906 96 87.914062 96 L 8.085938 96 C 3.621094 96 0 92.378906 0 87.914062 L 0 8.085938 C 0 3.621094 3.621094 0 8.085938 0 Z M 8.085938 0 "/>
</clipPath>
<filter id="alpha" filterUnits="objectBoundingBox" x="0%" y="0%" width="100%" height="100%">
  <feColorMatrix type="matrix" in="SourceGraphic" values="0 0 0 0 1 0 0 0 0 1 0 0 0 0 1 0 0 0 1 0"/>
</filter>
<mask id="mask0">
  <g filter="url(#alpha)">
<rect x="0" y="0" width="96" height="96" style="fill:rgb(0%,0%,0%);fill-opacity:0.4;stroke:none;"/>
  </g>
</mask>
<clipPath id="clip2">
  <rect x="0" y="0" width="96" height="96"/>
</clipPath>
<g id="surface5" clip-path="url(#clip2)">
<path style=" stroke:none;fill-rule:nonzero;fill:rgb(100%,100%,100%);fill-opacity:1;" d="M 103.75 -17.492188 C 88.648438 -27.214844 68.527344 -22.855469 58.800781 -7.757812 C 49.078125 7.34375 53.4375 27.46875 68.535156 37.191406 C 83.636719 46.914062 103.761719 42.558594 113.484375 27.457031 C 123.207031 12.355469 118.851562 -7.765625 103.75 -17.492188 Z M 103.75 -17.492188 "/>
</g>
<clipPath id="clip3">
  <path d="M 63 0 L 96 0 L 96 33 L 63 33 Z M 63 0 "/>
</clipPath>
<clipPath id="clip4">
  <path d="M 8.085938 0 L 87.914062 0 C 92.378906 0 96 3.621094 96 8.085938 L 96 87.914062 C 96 92.378906 92.378906 96 87.914062 96 L 8.085938 96 C 3.621094 96 0 92.378906 0 87.914062 L 0 8.085938 C 0 3.621094 3.621094 0 8.085938 0 Z M 8.085938 0 "/>
</clipPath>
<clipPath id="clip5">
  <path d="M 8.085938 0 L 87.914062 0 C 92.378906 0 96 3.621094 96 8.085938 L 96 87.914062 C 96 92.378906 92.378906 96 87.914062 96 L 8.085938 96 C 3.621094 96 0 92.378906 0 87.914062 L 0 8.085938 C 0 3.621094 3.621094 0 8.085938 0 Z M 8.085938 0 "/>
</clipPath>
<mask id="mask1">
  <g filter="url(#alpha)">
<rect x="0" y="0" width="96" height="96" style="fill:rgb(0%,0%,0%);fill-opacity:0.4;stroke:none;"/>
  </g>
</mask>
<clipPath id="clip6">
  <rect x="0" y="0" width="96" height="96"/>
</clipPath>
<g id="surface8" clip-path="url(#clip6)">
<path style=" stroke:none;fill-rule:nonzero;fill:rgb(100%,100%,100%);fill-opacity:1;" d="M 27.460938 58.8125 C 12.363281 49.085938 -7.761719 53.445312 -17.484375 68.546875 C -27.210938 83.644531 -22.851562 103.769531 -7.75 113.492188 C 7.347656 123.21875 27.472656 118.859375 37.195312 103.757812 C 46.921875 88.660156 42.5625 68.535156 27.460938 58.8125 Z M 27.460938 58.8125 "/>
</g>
<clipPath id="clip7">
  <path d="M 0 63 L 33 63 L 33 96 L 0 96 Z M 0 63 "/>
</clipPath>
<clipPath id="clip8">
  <path d="M 8.085938 0 L 87.914062 0 C 92.378906 0 96 3.621094 96 8.085938 L 96 87.914062 C 96 92.378906 92.378906 96 87.914062 96 L 8.085938 96 C 3.621094 96 0 92.378906 0 87.914062 L 0 8.085938 C 0 3.621094 3.621094 0 8.085938 0 Z M 8.085938 0 "/>
</clipPath>
</defs>
<g id="surface1">
<path style=" stroke:none;fill-rule:nonzero;fill:rgb(49.411765%,34.117647%,76.862745%);fill-opacity:1;" d="M 8.085938 0 L 87.914062 0 C 92.378906 0 96 3.621094 96 8.085938 L 96 87.914062 C 96 92.378906 92.378906 96 87.914062 96 L 8.085938 96 C 3.621094 96 0 92.378906 0 87.914062 L 0 8.085938 C 0 3.621094 3.621094 0 8.085938 0 Z M 8.085938 0 "/>
<g clip-path="url(#clip1)" clip-rule="nonzero">
<use xlink:href="#surface5" mask="url(#mask0)"/>
</g>
<g clip-path="url(#clip3)" clip-rule="nonzero">
<g clip-path="url(#clip4)" clip-rule="nonzero">
<path style=" stroke:none;fill-rule:nonzero;fill:rgb(91.764706%,92.156863%,93.72549%);fill-opacity:1;" d="M 98.527344 -9.382812 C 109.148438 -2.542969 112.214844 11.613281 105.375 22.234375 C 98.535156 32.855469 84.378906 35.921875 73.757812 29.082031 C 63.136719 22.242188 60.070312 8.085938 66.910156 -2.535156 C 73.75 -13.15625 87.90625 -16.222656 98.527344 -9.382812 Z M 98.527344 -9.382812 "/>
</g>
</g>
<g clip-path="url(#clip5)" clip-rule="nonzero">
<use xlink:href="#surface8" mask="url(#mask1)"/>
</g>
<g clip-path="url(#clip7)" clip-rule="nonzero">
<g clip-path="url(#clip8)" clip-rule="nonzero">
<path style=" stroke:none;fill-rule:nonzero;fill:rgb(91.764706%,92.156863%,93.72549%);fill-opacity:1;" d="M 22.128906 66.824219 C 32.742188 73.644531 35.8125 87.777344 28.992188 98.390625 C 22.167969 109.003906 8.035156 112.074219 -2.578125 105.253906 C -13.1875 98.429688 -16.261719 84.296875 -9.4375 73.6875 C -2.617188 63.074219 11.515625 60 22.128906 66.824219 Z M 22.128906 66.824219 "/>
</g>
</g>
</g>
</svg>
