
<svg xmlns="http://www.w3.org/2000/svg" xmlns:xlink="http://www.w3.org/1999/xlink" width="96px" height="96px" viewBox="0 0 96 96" version="1.1">
<g id="surface1">
<path style=" stroke:none;fill-rule:nonzero;fill:rgb(36.078431%,41.960784%,75.294118%);fill-opacity:1;" d="M 8.085938 0 L 87.914062 0 C 92.378906 0 96 3.621094 96 8.085938 L 96 87.914062 C 96 92.378906 92.378906 96 87.914062 96 L 8.085938 96 C 3.621094 96 0 92.378906 0 87.914062 L 0 8.085938 C 0 3.621094 3.621094 0 8.085938 0 Z M 8.085938 0 "/>
<path style=" stroke:none;fill-rule:nonzero;fill:rgb(100%,100%,100%);fill-opacity:1;" d="M 78.480469 37.890625 L 17.519531 37.890625 L 26.894531 26.730469 C 27.339844 26.207031 27.992188 25.90625 28.679688 25.90625 L 67.320312 25.90625 C 68.007812 25.90625 68.660156 26.207031 69.105469 26.730469 Z M 78.480469 37.890625 "/>
<path style=" stroke:none;fill-rule:nonzero;fill:rgb(89.803922%,89.803922%,89.803922%);fill-opacity:1;" d="M 17.519531 37.890625 L 78.480469 37.890625 L 78.480469 62.550781 C 78.480469 63.835938 77.4375 64.875 76.15625 64.875 L 19.84375 64.875 C 18.5625 64.875 17.519531 63.835938 17.519531 62.550781 Z M 17.519531 37.890625 "/>
<path style=" stroke:none;fill-rule:nonzero;fill:rgb(16.078431%,71.372549%,96.470588%);fill-opacity:1;" d="M 71.671875 76.980469 L 24.328125 76.980469 C 23.671875 76.976562 23.058594 76.65625 22.679688 76.121094 C 22.296875 75.585938 22.199219 74.902344 22.410156 74.28125 L 29.175781 54.886719 L 66.824219 54.886719 L 73.589844 74.28125 C 73.808594 74.902344 73.714844 75.589844 73.332031 76.128906 C 72.949219 76.664062 72.328125 76.984375 71.671875 76.980469 Z M 71.671875 76.980469 "/>
<path style=" stroke:none;fill-rule:nonzero;fill:rgb(16.078431%,71.372549%,96.470588%);fill-opacity:1;" d="M 29.175781 25.90625 L 66.824219 25.90625 L 66.824219 42.34375 L 29.175781 42.34375 Z M 29.175781 25.90625 "/>
<path style=" stroke:none;fill-rule:nonzero;fill:rgb(100%,100%,100%);fill-opacity:1;" d="M 67.949219 72.089844 L 28.050781 72.089844 L 31.84375 57.660156 L 64.15625 57.660156 Z M 67.949219 72.089844 "/>
<path style=" stroke:none;fill-rule:nonzero;fill:rgb(79.607843%,79.607843%,79.607843%);fill-opacity:1;" d="M 17.519531 47.894531 L 78.480469 47.894531 L 78.480469 50.566406 L 17.519531 50.566406 Z M 17.519531 47.894531 "/>
<path style=" stroke:none;fill-rule:nonzero;fill:rgb(92.54902%,25.098039%,47.843137%);fill-opacity:1;" d="M 36.253906 60.121094 L 59.761719 60.121094 C 60.570312 60.121094 61.230469 60.777344 61.230469 61.589844 C 61.230469 62.402344 60.570312 63.058594 59.761719 63.058594 L 36.253906 63.058594 C 35.441406 63.058594 34.785156 62.402344 34.785156 61.589844 C 34.785156 60.777344 35.441406 60.121094 36.253906 60.121094 Z M 36.253906 60.121094 "/>
<path style=" stroke:none;fill-rule:nonzero;fill:rgb(92.54902%,25.098039%,47.843137%);fill-opacity:1;" d="M 34.394531 65.308594 L 61.621094 65.308594 C 62.433594 65.308594 63.089844 65.96875 63.089844 66.78125 C 63.089844 67.59375 62.433594 68.25 61.621094 68.25 L 34.394531 68.25 C 33.582031 68.25 32.925781 67.59375 32.925781 66.78125 C 32.925781 65.96875 33.582031 65.308594 34.394531 65.308594 Z M 34.394531 65.308594 "/>
<path style=" stroke:none;fill-rule:nonzero;fill:rgb(92.54902%,25.098039%,47.843137%);fill-opacity:1;" d="M 74.519531 43.003906 C 74.519531 44.140625 73.601562 45.058594 72.464844 45.058594 C 71.328125 45.058594 70.410156 44.140625 70.410156 43.003906 C 70.410156 41.871094 71.328125 40.949219 72.464844 40.949219 C 73.601562 40.949219 74.519531 41.871094 74.519531 43.003906 Z M 74.519531 43.003906 "/>
<path style=" stroke:none;fill-rule:nonzero;fill:rgb(100%,100%,100%);fill-opacity:1;" d="M 57.433594 19.019531 L 31.84375 19.019531 L 31.84375 33.511719 L 64.15625 33.511719 L 64.15625 25.199219 Z M 57.433594 19.019531 "/>
<path style=" stroke:none;fill-rule:nonzero;fill:rgb(79.607843%,79.607843%,79.607843%);fill-opacity:1;" d="M 57.433594 25.199219 L 64.15625 25.199219 L 57.433594 19.019531 Z M 57.433594 25.199219 "/>
</g>
</svg>
