<svg id="레이어_1" data-name="레이어 1" xmlns="http://www.w3.org/2000/svg" viewBox="0 0 64 64"><defs><style>.cls-1{fill:#7e57c4;}.cls-2,.cls-3{fill:#fff;}.cls-3{opacity:0.3;}</style></defs><title>시작 어플리케이션</title><rect class="cls-1" width="64" height="64" rx="5.39" ry="5.39"/><path class="cls-2" d="M34.7,22.67h0a4.94,4.94,0,0,0,2.23-4.12V17A4.94,4.94,0,0,0,32,12.09h0A4.94,4.94,0,0,0,27.07,17v1.53a4.94,4.94,0,0,0,2.23,4.12h0v1.16a1.66,1.66,0,0,1-.85,1.45l-4.3,2.42a5.81,5.81,0,0,0-3,5.06V35H42.81V32.76a5.81,5.81,0,0,0-3-5.06l-4.3-2.42a1.68,1.68,0,0,1-.85-1.45V22.67"/><rect class="cls-3" x="9.79" y="42.43" width="44.43" height="13.4" rx="6.7" ry="6.7"/><circle class="cls-2" cx="17.53" cy="49.13" r="1.6"/><circle class="cls-2" cx="22.74" cy="49.13" r="1.6"/><circle class="cls-2" cx="27.95" cy="49.13" r="1.6"/><circle class="cls-2" cx="33.17" cy="49.13" r="1.6"/><circle class="cls-2" cx="38.38" cy="49.13" r="1.6"/></svg>