
<svg xmlns="http://www.w3.org/2000/svg" xmlns:xlink="http://www.w3.org/1999/xlink" width="96px" height="96px" viewBox="0 0 96 96" version="1.1">
<defs>
<filter id="alpha" filterUnits="objectBoundingBox" x="0%" y="0%" width="100%" height="100%">
  <feColorMatrix type="matrix" in="SourceGraphic" values="0 0 0 0 1 0 0 0 0 1 0 0 0 0 1 0 0 0 1 0"/>
</filter>
<mask id="mask0">
  <g filter="url(#alpha)">
<rect x="0" y="0" width="96" height="96" style="fill:rgb(0%,0%,0%);fill-opacity:0.580392;stroke:none;"/>
  </g>
</mask>
<clipPath id="clip1">
  <rect x="0" y="0" width="96" height="96"/>
</clipPath>
<g id="surface5" clip-path="url(#clip1)">
<path style=" stroke:none;fill-rule:nonzero;fill:rgb(100%,100%,100%);fill-opacity:1;" d="M 34.109375 20.714844 L 38.203125 20.714844 C 39.140625 20.714844 39.898438 21.472656 39.898438 22.410156 L 39.898438 26.503906 C 39.898438 27.441406 39.140625 28.199219 38.203125 28.199219 L 34.109375 28.199219 C 33.175781 28.199219 32.414062 27.441406 32.414062 26.503906 L 32.414062 22.410156 C 32.414062 21.472656 33.175781 20.714844 34.109375 20.714844 Z M 34.109375 20.714844 "/>
<path style=" stroke:none;fill-rule:nonzero;fill:rgb(100%,100%,100%);fill-opacity:1;" d="M 45.960938 20.714844 L 50.054688 20.714844 C 50.992188 20.714844 51.75 21.472656 51.75 22.410156 L 51.75 26.503906 C 51.75 27.441406 50.992188 28.199219 50.054688 28.199219 L 45.960938 28.199219 C 45.023438 28.199219 44.265625 27.441406 44.265625 26.503906 L 44.265625 22.410156 C 44.265625 21.472656 45.023438 20.714844 45.960938 20.714844 Z M 45.960938 20.714844 "/>
<path style=" stroke:none;fill-rule:nonzero;fill:rgb(100%,100%,100%);fill-opacity:1;" d="M 57.808594 20.714844 L 61.90625 20.714844 C 62.839844 20.714844 63.601562 21.472656 63.601562 22.410156 L 63.601562 26.503906 C 63.601562 27.441406 62.839844 28.199219 61.90625 28.199219 L 57.808594 28.199219 C 56.875 28.199219 56.113281 27.441406 56.113281 26.503906 L 56.113281 22.410156 C 56.113281 21.472656 56.875 20.714844 57.808594 20.714844 Z M 57.808594 20.714844 "/>
<path style=" stroke:none;fill-rule:nonzero;fill:rgb(100%,100%,100%);fill-opacity:1;" d="M 34.109375 32.265625 L 38.203125 32.265625 C 39.140625 32.265625 39.898438 33.023438 39.898438 33.960938 L 39.898438 38.054688 C 39.898438 38.992188 39.140625 39.75 38.203125 39.75 L 34.109375 39.75 C 33.175781 39.75 32.414062 38.992188 32.414062 38.054688 L 32.414062 33.960938 C 32.414062 33.023438 33.175781 32.265625 34.109375 32.265625 Z M 34.109375 32.265625 "/>
<path style=" stroke:none;fill-rule:nonzero;fill:rgb(100%,100%,100%);fill-opacity:1;" d="M 45.960938 32.265625 L 50.054688 32.265625 C 50.992188 32.265625 51.75 33.023438 51.75 33.960938 L 51.75 38.054688 C 51.75 38.992188 50.992188 39.75 50.054688 39.75 L 45.960938 39.75 C 45.023438 39.75 44.265625 38.992188 44.265625 38.054688 L 44.265625 33.960938 C 44.265625 33.023438 45.023438 32.265625 45.960938 32.265625 Z M 45.960938 32.265625 "/>
</g>
</defs>
<g id="surface1">
<path style=" stroke:none;fill-rule:nonzero;fill:rgb(36.078431%,41.960784%,75.294118%);fill-opacity:1;" d="M 8.085938 0 L 87.914062 0 C 92.378906 0 96 3.621094 96 8.085938 L 96 87.914062 C 96 92.378906 92.378906 96 87.914062 96 L 8.085938 96 C 3.621094 96 0 92.378906 0 87.914062 L 0 8.085938 C 0 3.621094 3.621094 0 8.085938 0 Z M 8.085938 0 "/>
<path style=" stroke:none;fill-rule:nonzero;fill:rgb(16.078431%,71.372549%,96.470588%);fill-opacity:1;" d="M 72 16.109375 L 72 79.90625 C 72 81.371094 70.8125 82.558594 69.34375 82.558594 L 27.226562 82.558594 C 25.757812 82.558594 24.570312 81.371094 24.570312 79.90625 L 24.570312 16.109375 C 24.570312 14.644531 25.757812 13.453125 27.226562 13.453125 L 69.34375 13.453125 C 70.8125 13.453125 72 14.644531 72 16.109375 Z M 72 16.109375 "/>
<path style=" stroke:none;fill-rule:nonzero;fill:rgb(100%,100%,100%);fill-opacity:1;" d="M 69.328125 83.761719 L 27.226562 83.761719 C 26.199219 83.765625 25.210938 83.359375 24.484375 82.632812 C 23.757812 81.902344 23.351562 80.917969 23.355469 79.890625 L 23.355469 16.109375 C 23.351562 15.082031 23.757812 14.097656 24.484375 13.367188 C 25.210938 12.640625 26.199219 12.234375 27.226562 12.238281 L 69.328125 12.238281 C 70.359375 12.234375 71.34375 12.640625 72.070312 13.367188 C 72.796875 14.097656 73.203125 15.082031 73.199219 16.109375 L 73.199219 79.890625 C 73.203125 80.917969 72.796875 81.902344 72.070312 82.632812 C 71.34375 83.359375 70.359375 83.765625 69.328125 83.761719 Z M 27.226562 14.65625 C 26.398438 14.65625 25.726562 15.328125 25.726562 16.15625 L 25.726562 79.890625 C 25.726562 80.71875 26.398438 81.390625 27.226562 81.390625 L 69.328125 81.390625 C 70.160156 81.390625 70.828125 80.71875 70.828125 79.890625 L 70.828125 16.109375 C 70.828125 15.28125 70.160156 14.609375 69.328125 14.609375 Z M 27.226562 14.65625 "/>
<path style=" stroke:none;fill-rule:nonzero;fill:rgb(100%,100%,100%);fill-opacity:1;" d="M 24 75 L 72 75 L 72 79.183594 C 72 80.84375 70.65625 82.183594 69 82.183594 L 27 82.183594 C 25.34375 82.183594 24 80.84375 24 79.183594 Z M 24 75 "/>
<path style=" stroke:none;fill-rule:nonzero;fill:rgb(49.411765%,35.294118%,83.921569%);fill-opacity:1;" d="M 50.023438 79.109375 C 50.023438 80.226562 49.117188 81.136719 48 81.136719 C 46.882812 81.136719 45.976562 80.226562 45.976562 79.109375 C 45.976562 77.992188 46.882812 77.085938 48 77.085938 C 49.117188 77.085938 50.023438 77.992188 50.023438 79.109375 Z M 50.023438 79.109375 "/>
<use xlink:href="#surface5" mask="url(#mask0)"/>
</g>
</svg>
