
<svg xmlns="http://www.w3.org/2000/svg" xmlns:xlink="http://www.w3.org/1999/xlink" width="96px" height="96px" viewBox="0 0 96 96" version="1.1">
<g id="surface1">
<path style=" stroke:none;fill-rule:nonzero;fill:rgb(49.411765%,34.117647%,76.862745%);fill-opacity:1;" d="M 8.085938 0 L 87.914062 0 C 92.378906 0 96 3.621094 96 8.085938 L 96 87.914062 C 96 92.378906 92.378906 96 87.914062 96 L 8.085938 96 C 3.621094 96 0 92.378906 0 87.914062 L 0 8.085938 C 0 3.621094 3.621094 0 8.085938 0 Z M 8.085938 0 "/>
<path style=" stroke:none;fill-rule:nonzero;fill:rgb(100%,100%,100%);fill-opacity:1;" d="M 53.835938 46.125 C 56.835938 44.160156 58.648438 40.816406 58.648438 37.230469 L 58.648438 33.914062 C 58.640625 28.035156 53.878906 23.273438 48 23.265625 C 42.121094 23.273438 37.359375 28.035156 37.351562 33.914062 L 37.351562 37.246094 C 37.355469 40.828125 39.167969 44.164062 42.164062 46.125 L 42.164062 48.628906 C 42.164062 49.929688 41.464844 51.125 40.335938 51.765625 L 31.035156 57 C 27.085938 59.226562 24.644531 63.402344 24.644531 67.933594 L 24.644531 72.71875 L 71.355469 72.71875 L 71.355469 67.949219 C 71.359375 63.414062 68.917969 59.226562 64.964844 57 L 55.664062 51.75 C 54.535156 51.109375 53.839844 49.914062 53.835938 48.613281 L 53.835938 46.125 "/>
</g>
</svg>
