
<svg xmlns="http://www.w3.org/2000/svg" xmlns:xlink="http://www.w3.org/1999/xlink" width="96px" height="96px" viewBox="0 0 96 96" version="1.1">
<g id="surface1">
<path style=" stroke:none;fill-rule:nonzero;fill:rgb(49.411765%,34.117647%,76.862745%);fill-opacity:1;" d="M 8.085938 0 L 87.914062 0 C 92.378906 0 96 3.621094 96 8.085938 L 96 87.914062 C 96 92.378906 92.378906 96 87.914062 96 L 8.085938 96 C 3.621094 96 0 92.378906 0 87.914062 L 0 8.085938 C 0 3.621094 3.621094 0 8.085938 0 Z M 8.085938 0 "/>
<path style=" stroke:none;fill-rule:nonzero;fill:rgb(100%,100%,100%);fill-opacity:1;" d="M 53.144531 28.019531 C 53.144531 30.863281 50.839844 33.164062 48 33.164062 C 45.160156 33.164062 42.855469 30.863281 42.855469 28.019531 C 42.855469 25.179688 45.160156 22.875 48 22.875 C 50.839844 22.875 53.144531 25.179688 53.144531 28.019531 Z M 53.144531 28.019531 "/>
<path style=" stroke:none;fill-rule:nonzero;fill:rgb(100%,100%,100%);fill-opacity:1;" d="M 55.09375 41.085938 L 68.476562 35.339844 C 69.148438 35.078125 69.6875 34.550781 69.972656 33.886719 C 70.253906 33.21875 70.253906 32.46875 69.976562 31.800781 C 69.390625 30.429688 67.804688 29.792969 66.433594 30.375 L 55.484375 35.070312 C 53.140625 36.066406 50.621094 36.578125 48.074219 36.570312 C 45.527344 36.578125 43.007812 36.066406 40.664062 35.070312 L 29.714844 30.375 C 28.34375 29.792969 26.757812 30.429688 26.175781 31.800781 C 25.894531 32.46875 25.894531 33.21875 26.179688 33.886719 C 26.460938 34.550781 27 35.078125 27.675781 35.339844 L 40.5 40.921875 C 41.265625 41.25 41.761719 42.003906 41.761719 42.839844 L 41.296875 52.261719 C 41.28125 52.609375 41.183594 52.949219 41.011719 53.25 L 31.769531 69 C 31.441406 69.53125 31.347656 70.171875 31.503906 70.777344 C 31.664062 71.382812 32.0625 71.894531 32.609375 72.195312 L 33.808594 72.855469 C 34.992188 73.460938 36.445312 73.023438 37.09375 71.863281 L 45.71875 56.65625 C 46.132812 55.9375 46.902344 55.496094 47.730469 55.5 C 48.558594 55.488281 49.328125 55.921875 49.738281 56.640625 L 58.351562 71.863281 C 58.996094 73.03125 60.453125 73.46875 61.636719 72.855469 L 62.835938 72.195312 C 63.378906 71.890625 63.773438 71.378906 63.933594 70.777344 C 64.09375 70.171875 64 69.53125 63.675781 69 L 54.570312 53.488281 C 54.386719 53.191406 54.289062 52.847656 54.285156 52.5 L 53.820312 42.988281 C 53.824219 42.15625 54.324219 41.40625 55.09375 41.085938 Z M 55.09375 41.085938 "/>
</g>
</svg>
