
<svg xmlns="http://www.w3.org/2000/svg" xmlns:xlink="http://www.w3.org/1999/xlink" width="96px" height="96px" viewBox="0 0 96 96" version="1.1">
<defs>
<filter id="alpha" filterUnits="objectBoundingBox" x="0%" y="0%" width="100%" height="100%">
  <feColorMatrix type="matrix" in="SourceGraphic" values="0 0 0 0 1 0 0 0 0 1 0 0 0 0 1 0 0 0 1 0"/>
</filter>
<mask id="mask0">
  <g filter="url(#alpha)">
<rect x="0" y="0" width="96" height="96" style="fill:rgb(0%,0%,0%);fill-opacity:0.501961;stroke:none;"/>
  </g>
</mask>
<clipPath id="clip1">
  <rect x="0" y="0" width="96" height="96"/>
</clipPath>
<g id="surface5" clip-path="url(#clip1)">
<path style=" stroke:none;fill-rule:nonzero;fill:rgb(100%,100%,100%);fill-opacity:1;" d="M 48 74.371094 C 33.4375 74.371094 21.628906 62.5625 21.628906 48 C 21.628906 33.4375 33.4375 21.628906 48 21.628906 C 62.5625 21.628906 74.371094 33.4375 74.371094 48 C 74.363281 62.558594 62.558594 74.363281 48 74.371094 Z M 48 25.171875 C 35.390625 25.171875 25.171875 35.390625 25.171875 48 C 25.171875 60.609375 35.390625 70.828125 48 70.828125 C 60.609375 70.828125 70.828125 60.609375 70.828125 48 C 70.8125 35.398438 60.601562 25.1875 48 25.171875 Z M 48 25.171875 "/>
</g>
</defs>
<g id="surface1">
<path style=" stroke:none;fill-rule:nonzero;fill:rgb(36.078431%,41.960784%,75.294118%);fill-opacity:1;" d="M 8.085938 0 L 87.914062 0 C 92.378906 0 96 3.621094 96 8.085938 L 96 87.914062 C 96 92.378906 92.378906 96 87.914062 96 L 8.085938 96 C 3.621094 96 0 92.378906 0 87.914062 L 0 8.085938 C 0 3.621094 3.621094 0 8.085938 0 Z M 8.085938 0 "/>
<path style=" stroke:none;fill-rule:nonzero;fill:rgb(100%,100%,100%);fill-opacity:1;" d="M 48 33.375 C 49.691406 33.375 51.058594 34.746094 51.058594 36.433594 C 51.058594 38.125 49.691406 39.496094 48 39.496094 C 46.308594 39.496094 44.941406 38.125 44.941406 36.433594 C 44.941406 34.746094 46.308594 33.375 48 33.375 Z M 48 33.375 "/>
<path style=" stroke:none;fill-rule:nonzero;fill:rgb(100%,100%,100%);fill-opacity:1;" d="M 48 42.433594 C 49.691406 42.433594 51.058594 43.804688 51.058594 45.496094 L 51.058594 59.566406 C 51.058594 61.253906 49.691406 62.625 48 62.625 C 46.308594 62.625 44.941406 61.253906 44.941406 59.566406 L 44.941406 45.496094 C 44.941406 43.804688 46.308594 42.433594 48 42.433594 Z M 48 42.433594 "/>
<use xlink:href="#surface5" mask="url(#mask0)"/>
</g>
</svg>
