
<svg xmlns="http://www.w3.org/2000/svg" xmlns:xlink="http://www.w3.org/1999/xlink" width="96px" height="96px" viewBox="0 0 96 96" version="1.1">
<g id="surface1">
<path style=" stroke:none;fill-rule:nonzero;fill:rgb(91.764706%,92.156863%,93.72549%);fill-opacity:1;" d="M 8.085938 0 L 87.914062 0 C 92.378906 0 96 3.621094 96 8.085938 L 96 87.914062 C 96 92.378906 92.378906 96 87.914062 96 L 8.085938 96 C 3.621094 96 0 92.378906 0 87.914062 L 0 8.085938 C 0 3.621094 3.621094 0 8.085938 0 Z M 8.085938 0 "/>
<path style=" stroke:none;fill-rule:nonzero;fill:rgb(49.411765%,34.117647%,76.862745%);fill-opacity:1;" d="M 53.355469 33.960938 L 24.226562 33.960938 L 24.226562 29.339844 L 36.121094 29.339844 L 36.121094 23.234375 L 41.519531 23.234375 L 41.519531 29.339844 L 53.355469 29.339844 Z M 38.820312 56.265625 C 37.0625 56.308594 35.3125 56.046875 33.644531 55.5 C 32.304688 55.015625 31.066406 54.28125 30 53.339844 C 29.046875 52.511719 28.285156 51.488281 27.765625 50.339844 C 27.269531 49.261719 27.007812 48.089844 27 46.90625 L 27 45.253906 C 26.996094 44.050781 27.246094 42.859375 27.734375 41.761719 C 28.253906 40.609375 29.015625 39.585938 29.96875 38.761719 C 31.058594 37.84375 32.3125 37.136719 33.660156 36.675781 C 35.328125 36.117188 37.078125 35.847656 38.835938 35.878906 C 40.59375 35.847656 42.34375 36.117188 44.011719 36.675781 C 45.363281 37.140625 46.613281 37.859375 47.699219 38.789062 C 48.648438 39.621094 49.410156 40.644531 49.933594 41.789062 C 50.421875 42.875 50.671875 44.050781 50.671875 45.238281 L 50.671875 46.890625 C 50.671875 48.074219 50.421875 49.246094 49.933594 50.324219 C 49.417969 51.476562 48.65625 52.5 47.699219 53.324219 C 46.617188 54.28125 45.359375 55.019531 43.996094 55.5 C 42.328125 56.046875 40.574219 56.308594 38.820312 56.265625 Z M 38.820312 51.914062 C 39.8125 51.929688 40.800781 51.777344 41.746094 51.464844 C 42.511719 51.21875 43.21875 50.820312 43.828125 50.296875 C 44.363281 49.820312 44.789062 49.238281 45.074219 48.585938 C 45.339844 47.964844 45.480469 47.296875 45.480469 46.621094 L 45.480469 45.523438 C 45.476562 44.855469 45.339844 44.191406 45.074219 43.574219 C 44.789062 42.921875 44.363281 42.339844 43.828125 41.863281 C 43.222656 41.339844 42.519531 40.941406 41.761719 40.679688 C 39.84375 40.101562 37.796875 40.101562 35.878906 40.679688 C 35.121094 40.941406 34.417969 41.339844 33.808594 41.863281 C 33.277344 42.339844 32.851562 42.921875 32.566406 43.574219 C 32.300781 44.191406 32.164062 44.855469 32.160156 45.523438 L 32.160156 46.621094 C 32.160156 47.296875 32.300781 47.964844 32.566406 48.585938 C 32.851562 49.238281 33.277344 49.820312 33.808594 50.296875 C 34.421875 50.824219 35.136719 51.222656 35.910156 51.464844 C 36.847656 51.78125 37.832031 51.933594 38.820312 51.914062 Z M 38.160156 69.195312 L 65.160156 69.195312 L 65.160156 73.933594 L 32.714844 73.933594 L 32.714844 59.894531 L 38.160156 59.894531 Z M 70.921875 43.5 L 63.703125 43.5 L 63.703125 60.554688 L 58.304688 60.554688 L 58.304688 23.730469 L 63.703125 23.730469 L 63.703125 38.804688 L 70.921875 38.804688 Z M 70.921875 43.5 "/>
<path style=" stroke:none;fill-rule:nonzero;fill:rgb(92.54902%,25.098039%,47.843137%);fill-opacity:1;" d="M 62.128906 72.71875 L 57.34375 74.429688 L 56.671875 47.953125 L 72.976562 68.820312 L 67.90625 70.636719 L 70.636719 78.238281 L 64.859375 80.324219 Z M 62.128906 72.71875 "/>
<path style=" stroke:none;fill-rule:nonzero;fill:rgb(100%,100%,100%);fill-opacity:1;" d="M 58.410156 52.816406 L 70.320312 68.054688 L 65.820312 69.660156 L 68.550781 77.265625 L 65.804688 78.253906 L 63.105469 70.648438 L 58.90625 72.148438 L 58.410156 52.816406 M 54.914062 43.109375 L 55.171875 52.890625 L 55.664062 72.238281 L 55.785156 76.738281 L 59.984375 75.238281 L 61.15625 74.820312 L 62.789062 79.320312 L 63.886719 82.320312 L 66.886719 81.226562 L 69.613281 80.234375 L 72.613281 79.140625 L 71.519531 76.140625 L 69.886719 71.640625 L 71.386719 71.113281 L 75.585938 69.613281 L 72.871094 66 L 60.945312 50.820312 L 54.945312 43.109375 Z M 54.914062 43.109375 "/>
</g>
</svg>
