
<svg xmlns="http://www.w3.org/2000/svg" xmlns:xlink="http://www.w3.org/1999/xlink" width="96px" height="96px" viewBox="0 0 96 96" version="1.1">
<defs>
<filter id="alpha" filterUnits="objectBoundingBox" x="0%" y="0%" width="100%" height="100%">
  <feColorMatrix type="matrix" in="SourceGraphic" values="0 0 0 0 1 0 0 0 0 1 0 0 0 0 1 0 0 0 1 0"/>
</filter>
<mask id="mask0">
  <g filter="url(#alpha)">
<rect x="0" y="0" width="96" height="96" style="fill:rgb(0%,0%,0%);fill-opacity:0.501961;stroke:none;"/>
  </g>
</mask>
<clipPath id="clip1">
  <rect x="0" y="0" width="96" height="96"/>
</clipPath>
<g id="surface5" clip-path="url(#clip1)">
<path style=" stroke:none;fill-rule:nonzero;fill:rgb(100%,100%,100%);fill-opacity:1;" d="M 31.84375 58.574219 C 31.421875 58.554688 31.007812 58.710938 30.707031 59.011719 C 30.40625 59.3125 30.25 59.726562 30.269531 60.148438 L 30.269531 63.148438 C 30.269531 64.019531 30.976562 64.726562 31.84375 64.726562 C 32.714844 64.726562 33.421875 64.019531 33.421875 63.148438 L 33.421875 60.148438 C 33.441406 59.726562 33.28125 59.3125 32.984375 59.011719 C 32.683594 58.710938 32.269531 58.554688 31.84375 58.574219 Z M 31.84375 58.574219 "/>
</g>
<mask id="mask1">
  <g filter="url(#alpha)">
<rect x="0" y="0" width="96" height="96" style="fill:rgb(0%,0%,0%);fill-opacity:0.501961;stroke:none;"/>
  </g>
</mask>
<clipPath id="clip2">
  <rect x="0" y="0" width="96" height="96"/>
</clipPath>
<g id="surface8" clip-path="url(#clip2)">
<path style=" stroke:none;fill-rule:nonzero;fill:rgb(100%,100%,100%);fill-opacity:1;" d="M 36.976562 58.574219 C 36.5625 58.574219 36.171875 58.742188 35.886719 59.039062 C 35.601562 59.339844 35.453125 59.738281 35.476562 60.148438 L 35.476562 63.148438 C 35.476562 64.019531 36.179688 64.726562 37.050781 64.726562 C 37.917969 64.726562 38.625 64.019531 38.625 63.148438 L 38.625 60.148438 C 38.648438 59.710938 38.480469 59.285156 38.164062 58.980469 C 37.84375 58.679688 37.410156 58.53125 36.976562 58.574219 Z M 36.976562 58.574219 "/>
</g>
<mask id="mask2">
  <g filter="url(#alpha)">
<rect x="0" y="0" width="96" height="96" style="fill:rgb(0%,0%,0%);fill-opacity:0.501961;stroke:none;"/>
  </g>
</mask>
<clipPath id="clip3">
  <rect x="0" y="0" width="96" height="96"/>
</clipPath>
<g id="surface11" clip-path="url(#clip3)">
<path style=" stroke:none;fill-rule:nonzero;fill:rgb(100%,100%,100%);fill-opacity:1;" d="M 42.105469 58.574219 C 41.675781 58.542969 41.253906 58.699219 40.949219 59 C 40.640625 59.300781 40.476562 59.71875 40.5 60.148438 L 40.5 63.148438 C 40.5 64.019531 41.207031 64.726562 42.074219 64.726562 C 42.945312 64.726562 43.648438 64.019531 43.648438 63.148438 L 43.648438 60.148438 C 43.671875 59.730469 43.515625 59.324219 43.222656 59.023438 C 42.929688 58.726562 42.523438 58.5625 42.105469 58.574219 Z M 42.105469 58.574219 "/>
</g>
<mask id="mask3">
  <g filter="url(#alpha)">
<rect x="0" y="0" width="96" height="96" style="fill:rgb(0%,0%,0%);fill-opacity:0.501961;stroke:none;"/>
  </g>
</mask>
<clipPath id="clip4">
  <rect x="0" y="0" width="96" height="96"/>
</clipPath>
<g id="surface14" clip-path="url(#clip4)">
<path style=" stroke:none;fill-rule:nonzero;fill:rgb(100%,100%,100%);fill-opacity:1;" d="M 56.191406 34.066406 L 55.09375 34.066406 C 54.28125 34.144531 53.660156 34.828125 53.660156 35.648438 C 53.660156 36.464844 54.28125 37.152344 55.09375 37.230469 L 56.191406 37.230469 C 57.003906 37.152344 57.625 36.464844 57.625 35.648438 C 57.625 34.828125 57.003906 34.144531 56.191406 34.066406 Z M 56.191406 34.066406 "/>
</g>
<mask id="mask4">
  <g filter="url(#alpha)">
<rect x="0" y="0" width="96" height="96" style="fill:rgb(0%,0%,0%);fill-opacity:0.501961;stroke:none;"/>
  </g>
</mask>
<clipPath id="clip5">
  <rect x="0" y="0" width="96" height="96"/>
</clipPath>
<g id="surface17" clip-path="url(#clip5)">
<path style=" stroke:none;fill-rule:nonzero;fill:rgb(100%,100%,100%);fill-opacity:1;" d="M 56.191406 39.195312 L 55.09375 39.195312 C 54.28125 39.273438 53.660156 39.960938 53.660156 40.777344 C 53.660156 41.597656 54.28125 42.28125 55.09375 42.359375 L 56.191406 42.359375 C 57.003906 42.28125 57.625 41.597656 57.625 40.777344 C 57.625 39.960938 57.003906 39.273438 56.191406 39.195312 Z M 56.191406 39.195312 "/>
</g>
<mask id="mask5">
  <g filter="url(#alpha)">
<rect x="0" y="0" width="96" height="96" style="fill:rgb(0%,0%,0%);fill-opacity:0.501961;stroke:none;"/>
  </g>
</mask>
<clipPath id="clip6">
  <rect x="0" y="0" width="96" height="96"/>
</clipPath>
<g id="surface20" clip-path="url(#clip6)">
<path style=" stroke:none;fill-rule:nonzero;fill:rgb(100%,100%,100%);fill-opacity:1;" d="M 56.191406 44.324219 L 55.09375 44.324219 C 54.28125 44.40625 53.660156 45.089844 53.660156 45.90625 C 53.660156 46.726562 54.28125 47.410156 55.09375 47.488281 L 56.191406 47.488281 C 57.003906 47.410156 57.625 46.726562 57.625 45.90625 C 57.625 45.089844 57.003906 44.40625 56.191406 44.324219 Z M 56.191406 44.324219 "/>
</g>
<mask id="mask6">
  <g filter="url(#alpha)">
<rect x="0" y="0" width="96" height="96" style="fill:rgb(0%,0%,0%);fill-opacity:0.501961;stroke:none;"/>
  </g>
</mask>
<clipPath id="clip7">
  <rect x="0" y="0" width="96" height="96"/>
</clipPath>
<g id="surface23" clip-path="url(#clip7)">
<path style=" stroke:none;fill-rule:nonzero;fill:rgb(100%,100%,100%);fill-opacity:1;" d="M 50.773438 58.574219 C 50.351562 58.554688 49.9375 58.710938 49.636719 59.011719 C 49.335938 59.3125 49.179688 59.726562 49.199219 60.148438 L 49.199219 63.148438 C 49.199219 64.019531 49.90625 64.726562 50.773438 64.726562 C 51.644531 64.726562 52.351562 64.019531 52.351562 63.148438 L 52.351562 60.148438 C 52.371094 59.726562 52.210938 59.3125 51.914062 59.011719 C 51.613281 58.710938 51.199219 58.554688 50.773438 58.574219 Z M 50.773438 58.574219 "/>
</g>
<mask id="mask7">
  <g filter="url(#alpha)">
<rect x="0" y="0" width="96" height="96" style="fill:rgb(0%,0%,0%);fill-opacity:0.501961;stroke:none;"/>
  </g>
</mask>
<clipPath id="clip8">
  <rect x="0" y="0" width="96" height="96"/>
</clipPath>
<g id="surface26" clip-path="url(#clip8)">
<path style=" stroke:none;fill-rule:nonzero;fill:rgb(100%,100%,100%);fill-opacity:1;" d="M 55.90625 58.574219 C 55.480469 58.554688 55.066406 58.710938 54.765625 59.011719 C 54.46875 59.3125 54.308594 59.726562 54.328125 60.148438 L 54.328125 63.148438 C 54.328125 64.019531 55.035156 64.726562 55.90625 64.726562 C 56.773438 64.726562 57.480469 64.019531 57.480469 63.148438 L 57.480469 60.148438 C 57.5 59.726562 57.34375 59.3125 57.042969 59.011719 C 56.742188 58.710938 56.328125 58.554688 55.90625 58.574219 Z M 55.90625 58.574219 "/>
</g>
</defs>
<g id="surface1">
<path style=" stroke:none;fill-rule:nonzero;fill:rgb(92.54902%,25.098039%,47.843137%);fill-opacity:1;" d="M 8.085938 0 L 87.914062 0 C 92.378906 0 96 3.621094 96 8.085938 L 96 87.914062 C 96 92.378906 92.378906 96 87.914062 96 L 8.085938 96 C 3.621094 96 0 92.378906 0 87.914062 L 0 8.085938 C 0 3.621094 3.621094 0 8.085938 0 Z M 8.085938 0 "/>
<path style=" stroke:none;fill-rule:nonzero;fill:rgb(100%,100%,100%);fill-opacity:1;" d="M 69.570312 30.945312 L 68.460938 30.945312 C 67.347656 30.9375 66.449219 30.03125 66.449219 28.921875 C 66.441406 26.066406 64.128906 23.753906 61.273438 23.746094 L 26.429688 23.746094 C 23.574219 23.753906 21.261719 26.066406 21.253906 28.921875 L 21.253906 67.078125 C 21.261719 69.933594 23.574219 72.246094 26.429688 72.253906 L 61.273438 72.253906 C 64.128906 72.246094 66.441406 69.933594 66.449219 67.078125 C 66.449219 65.96875 67.347656 65.0625 68.460938 65.054688 L 69.570312 65.054688 C 72.421875 65.054688 74.738281 62.746094 74.746094 59.894531 L 74.746094 36.105469 C 74.738281 33.253906 72.421875 30.945312 69.570312 30.945312 Z M 69.570312 61.90625 L 68.460938 61.90625 C 65.605469 61.914062 63.292969 64.226562 63.285156 67.078125 C 63.285156 68.191406 62.386719 69.089844 61.273438 69.089844 L 26.429688 69.089844 C 25.320312 69.089844 24.421875 68.191406 24.421875 67.078125 L 24.421875 28.921875 C 24.421875 27.808594 25.320312 26.910156 26.429688 26.910156 L 61.273438 26.910156 C 62.386719 26.910156 63.285156 27.808594 63.285156 28.921875 C 63.292969 31.773438 65.605469 34.085938 68.460938 34.09375 L 69.570312 34.09375 C 70.679688 34.09375 71.578125 34.996094 71.578125 36.105469 L 71.578125 39.238281 L 65.835938 39.238281 C 64.964844 39.238281 64.261719 39.945312 64.261719 40.816406 C 64.261719 41.683594 64.964844 42.390625 65.835938 42.390625 L 71.578125 42.390625 L 71.578125 45.871094 L 65.835938 45.871094 C 64.964844 45.871094 64.261719 46.574219 64.261719 47.445312 C 64.261719 48.316406 64.964844 49.019531 65.835938 49.019531 L 71.578125 49.019531 L 71.578125 52.5 L 65.835938 52.5 C 65.019531 52.578125 64.398438 53.265625 64.398438 54.082031 C 64.398438 54.902344 65.019531 55.585938 65.835938 55.664062 L 71.578125 55.664062 L 71.578125 59.894531 C 71.578125 61.003906 70.679688 61.90625 69.570312 61.90625 Z M 69.570312 61.90625 "/>
<use xlink:href="#surface5" mask="url(#mask0)"/>
<use xlink:href="#surface8" mask="url(#mask1)"/>
<use xlink:href="#surface11" mask="url(#mask2)"/>
<use xlink:href="#surface14" mask="url(#mask3)"/>
<use xlink:href="#surface17" mask="url(#mask4)"/>
<use xlink:href="#surface20" mask="url(#mask5)"/>
<use xlink:href="#surface23" mask="url(#mask6)"/>
<use xlink:href="#surface26" mask="url(#mask7)"/>
<path style=" stroke:none;fill-rule:nonzero;fill:rgb(16.078431%,71.372549%,96.470588%);fill-opacity:1;" d="M 50.445312 43.859375 C 50.445312 43.449219 50.277344 43.054688 49.980469 42.773438 C 49.683594 42.488281 49.28125 42.339844 48.871094 42.359375 L 47.371094 42.359375 L 47.371094 39.210938 L 48.871094 39.210938 C 49.683594 39.128906 50.304688 38.445312 50.304688 37.628906 C 50.304688 36.808594 49.683594 36.125 48.871094 36.046875 L 47.371094 36.046875 L 47.371094 33.148438 C 47.390625 32.726562 47.234375 32.3125 46.933594 32.011719 C 46.632812 31.710938 46.21875 31.554688 45.796875 31.574219 L 32.863281 31.574219 C 32.441406 31.554688 32.027344 31.710938 31.726562 32.011719 C 31.425781 32.3125 31.269531 32.726562 31.289062 33.148438 L 31.289062 36 L 29.550781 36 C 28.949219 35.941406 28.363281 36.230469 28.046875 36.742188 C 27.726562 37.257812 27.726562 37.90625 28.046875 38.421875 C 28.363281 38.9375 28.949219 39.222656 29.550781 39.164062 L 31.289062 39.164062 L 31.289062 42.316406 L 29.550781 42.316406 C 28.949219 42.257812 28.363281 42.542969 28.046875 43.058594 C 27.726562 43.570312 27.726562 44.222656 28.046875 44.738281 C 28.363281 45.25 28.949219 45.539062 29.550781 45.480469 L 31.289062 45.480469 L 31.289062 48.628906 C 31.269531 49.054688 31.425781 49.46875 31.726562 49.769531 C 32.027344 50.066406 32.441406 50.226562 32.863281 50.203125 L 35.070312 50.203125 L 35.070312 52.183594 C 35.070312 53.054688 35.773438 53.761719 36.644531 53.761719 C 37.515625 53.761719 38.21875 53.054688 38.21875 52.183594 L 38.21875 50.175781 L 40.589844 50.175781 L 40.589844 52.15625 C 40.589844 53.023438 41.296875 53.730469 42.164062 53.730469 C 43.035156 53.730469 43.738281 53.023438 43.738281 52.15625 L 43.738281 50.175781 L 45.71875 50.175781 C 46.144531 50.195312 46.558594 50.039062 46.859375 49.738281 C 47.15625 49.4375 47.316406 49.023438 47.296875 48.601562 L 47.296875 45.449219 L 48.796875 45.449219 C 49.226562 45.46875 49.652344 45.3125 49.964844 45.011719 C 50.273438 44.710938 50.449219 44.292969 50.445312 43.859375 Z M 50.445312 43.859375 "/>
</g>
</svg>
