
<svg xmlns="http://www.w3.org/2000/svg" xmlns:xlink="http://www.w3.org/1999/xlink" width="96px" height="96px" viewBox="0 0 96 96" version="1.1">
<g id="surface1">
<path style=" stroke:none;fill-rule:nonzero;fill:rgb(36.078431%,41.960784%,75.294118%);fill-opacity:1;" d="M 8.085938 0 L 87.914062 0 C 92.378906 0 96 3.621094 96 8.085938 L 96 87.914062 C 96 92.378906 92.378906 96 87.914062 96 L 8.085938 96 C 3.621094 96 0 92.378906 0 87.914062 L 0 8.085938 C 0 3.621094 3.621094 0 8.085938 0 Z M 8.085938 0 "/>
<path style=" stroke:none;fill-rule:nonzero;fill:rgb(100%,100%,100%);fill-opacity:1;" d="M 51.210938 32.324219 L 49.003906 32.324219 L 49.003906 41.773438 C 49.976562 42.175781 50.609375 43.125 50.609375 44.175781 L 50.609375 50.175781 C 50.609375 51.617188 49.441406 52.785156 48 52.785156 C 46.558594 52.785156 45.390625 51.617188 45.390625 50.175781 L 45.390625 44.175781 C 45.390625 43.125 46.023438 42.175781 46.996094 41.773438 L 46.996094 32.324219 L 44.789062 32.324219 C 37.03125 32.351562 30.746094 38.632812 30.71875 46.394531 L 30.71875 63.269531 C 31.257812 72.402344 38.820312 79.53125 47.96875 79.53125 C 57.117188 79.53125 64.679688 72.402344 65.21875 63.269531 L 65.21875 46.394531 C 65.195312 38.65625 58.945312 32.382812 51.210938 32.324219 Z M 51.210938 32.324219 "/>
<path style=" stroke:none;fill-rule:nonzero;fill:rgb(16.078431%,71.372549%,96.470588%);fill-opacity:1;" d="M 49.351562 32.324219 L 46.949219 32.324219 L 46.949219 31.125 C 46.949219 27.8125 49.636719 25.125 52.949219 25.125 L 57.375 25.125 C 59.371094 25.125 60.988281 23.507812 60.988281 21.511719 C 60.988281 19.511719 59.371094 17.894531 57.375 17.894531 L 35.011719 17.894531 L 35.011719 15.449219 L 57.390625 15.449219 C 60.703125 15.449219 63.390625 18.136719 63.390625 21.449219 C 63.390625 24.765625 60.703125 27.449219 57.390625 27.449219 L 52.964844 27.449219 C 50.96875 27.449219 49.351562 29.070312 49.351562 31.066406 Z M 49.351562 32.324219 "/>
</g>
</svg>
