
<svg xmlns="http://www.w3.org/2000/svg" xmlns:xlink="http://www.w3.org/1999/xlink" width="96px" height="96px" viewBox="0 0 96 96" version="1.1">
<g id="surface1">
<path style=" stroke:none;fill-rule:nonzero;fill:rgb(92.54902%,25.098039%,47.843137%);fill-opacity:1;" d="M 8.085938 0 L 87.914062 0 C 92.378906 0 96 3.621094 96 8.085938 L 96 87.914062 C 96 92.378906 92.378906 96 87.914062 96 L 8.085938 96 C 3.621094 96 0 92.378906 0 87.914062 L 0 8.085938 C 0 3.621094 3.621094 0 8.085938 0 Z M 8.085938 0 "/>
<path style=" stroke:none;fill-rule:nonzero;fill:rgb(16.078431%,71.372549%,96.470588%);fill-opacity:1;" d="M 31.5 66.71875 L 35.144531 60.988281 L 36.046875 59.578125 L 54.644531 59.578125 C 55.53125 56.675781 58.207031 54.691406 61.246094 54.691406 L 61.5 54.691406 C 61.273438 54.539062 61.066406 54.375 60.824219 54.238281 L 52.050781 49.289062 C 50.96875 48.679688 50.308594 47.53125 50.324219 46.289062 L 50.324219 43.980469 C 53.136719 42.117188 54.828125 38.96875 54.824219 35.59375 L 54.824219 32.460938 C 54.96875 28.78125 53.085938 25.316406 49.917969 23.433594 C 46.753906 21.550781 42.8125 21.550781 39.644531 23.433594 C 36.480469 25.316406 34.597656 28.78125 34.738281 32.460938 L 34.738281 35.59375 C 34.734375 38.96875 36.425781 42.121094 39.238281 43.980469 L 39.238281 46.335938 C 39.257812 47.574219 38.59375 48.726562 37.515625 49.335938 L 28.753906 54.285156 C 25.042969 56.386719 22.753906 60.324219 22.753906 64.589844 L 22.753906 69.089844 L 30.253906 69.089844 L 30.03125 68.894531 Z M 31.5 66.71875 "/>
<path style=" stroke:none;fill-rule:nonzero;fill:rgb(89.803922%,89.803922%,89.803922%);fill-opacity:1;" d="M 57.464844 65.203125 L 36.058594 65.203125 L 35.851562 65.488281 L 34.921875 66.945312 L 57.464844 66.945312 Z M 57.464844 65.203125 "/>
<path style=" stroke:none;fill-rule:nonzero;fill:rgb(100%,100%,100%);fill-opacity:1;" d="M 72.433594 57.734375 L 61.246094 57.734375 C 59.117188 57.734375 57.390625 59.460938 57.390625 61.589844 L 57.390625 62.625 L 37.679688 62.625 L 35.851562 65.488281 L 36.046875 65.203125 L 57.464844 65.203125 L 57.464844 66.945312 L 34.964844 66.945312 L 34.066406 68.355469 L 34.828125 69.058594 L 37.726562 71.730469 L 57.390625 71.730469 L 57.390625 72.765625 C 57.390625 74.898438 59.113281 76.625 61.246094 76.636719 L 72.433594 76.636719 C 74.566406 76.625 76.289062 74.898438 76.289062 72.765625 L 76.289062 61.589844 C 76.289062 59.460938 74.5625 57.734375 72.433594 57.734375 Z M 72.703125 69.300781 C 72.695312 70.429688 71.777344 71.339844 70.648438 71.339844 C 70.371094 71.339844 70.09375 71.28125 69.839844 71.160156 C 69.097656 70.839844 68.613281 70.109375 68.609375 69.300781 L 68.609375 65.070312 C 68.621094 64.300781 69.058594 63.597656 69.75 63.253906 C 70.027344 63.109375 70.335938 63.027344 70.648438 63.015625 C 71.78125 63.023438 72.695312 63.9375 72.703125 65.070312 Z M 72.703125 69.300781 "/>
<path style=" stroke:none;fill-rule:nonzero;fill:rgb(100%,100%,100%);fill-opacity:1;" d="M 34.84375 66.945312 L 34.921875 66.945312 L 35.851562 65.488281 Z M 34.84375 66.945312 "/>
</g>
</svg>
