<svg id="레이어_1" data-name="레이어 1" xmlns="http://www.w3.org/2000/svg" viewBox="0 0 64 64"><defs><style>.cls-1{fill:#5c6bc0;}.cls-2{fill:#29b6f6;}.cls-3{fill:#fff;}</style></defs><title>디스크</title><rect class="cls-1" width="64" height="64" rx="5.39" ry="5.39"/><path class="cls-2" d="M43.68,48V32.83a2,2,0,0,0-2-2H22.36a2,2,0,0,0-2.05,2V48Z"/><path class="cls-3" d="M48.64,20,44,15.36a2.29,2.29,0,0,0-1.6-.66H18.82a4.13,4.13,0,0,0-4.12,4.12V45.18a4.13,4.13,0,0,0,4.12,4.12H45.18a4.13,4.13,0,0,0,4.12-4.12V21.63A2.29,2.29,0,0,0,48.64,20Zm-9.22-.57v3.22a1.12,1.12,0,1,1-2.24,0V19.46a1.12,1.12,0,0,1,2.24,0Zm-19.11,28H18.82a2.3,2.3,0,0,1-2.3-2.3V18.82a2.3,2.3,0,0,1,2.3-2.3h3.47V24a2,2,0,0,0,2.05,2H39.66a2.05,2.05,0,0,0,2.05-2V16.52h.66a.48.48,0,0,1,.31.13l4.67,4.67a.46.46,0,0,1,.13.31V45.18a2.3,2.3,0,0,1-2.3,2.3H20.31Z"/><rect class="cls-3" x="24.44" y="34.73" width="15.11" height="1.16"/><rect class="cls-3" x="24.44" y="39.16" width="15.11" height="1.16"/><rect class="cls-3" x="24.44" y="43.59" width="15.11" height="1.16"/></svg>