
<svg xmlns="http://www.w3.org/2000/svg" xmlns:xlink="http://www.w3.org/1999/xlink" width="96px" height="96px" viewBox="0 0 96 96" version="1.1">
<g id="surface1">
<path style=" stroke:none;fill-rule:nonzero;fill:rgb(36.078431%,41.960784%,75.294118%);fill-opacity:1;" d="M 8.085938 0 L 87.914062 0 C 92.378906 0 96 3.621094 96 8.085938 L 96 87.914062 C 96 92.378906 92.378906 96 87.914062 96 L 8.085938 96 C 3.621094 96 0 92.378906 0 87.914062 L 0 8.085938 C 0 3.621094 3.621094 0 8.085938 0 Z M 8.085938 0 "/>
<path style=" stroke:none;fill-rule:nonzero;fill:rgb(16.078431%,71.372549%,96.470588%);fill-opacity:1;" d="M 69.988281 39.511719 L 66.136719 39.511719 L 66.136719 33 C 66.09375 31.285156 64.714844 29.90625 63 29.863281 L 36.136719 29.863281 C 32.253906 29.855469 29.109375 26.710938 29.101562 22.828125 L 29.101562 19.5 L 33 19.5 L 33 22.875 C 33 24.632812 34.421875 26.054688 36.179688 26.054688 L 63 26.054688 C 66.890625 26.0625 70.042969 29.214844 70.050781 33.105469 Z M 69.988281 39.511719 "/>
<path style=" stroke:none;fill-rule:nonzero;fill:rgb(100%,100%,100%);fill-opacity:1;" d="M 74.804688 37.199219 L 21.195312 37.199219 C 18.957031 37.199219 17.144531 39.011719 17.144531 41.25 L 17.144531 72.496094 C 17.144531 74.730469 18.957031 76.546875 21.195312 76.546875 L 74.804688 76.546875 C 77.042969 76.546875 78.855469 74.730469 78.855469 72.496094 L 78.855469 41.25 C 78.855469 39.011719 77.042969 37.199219 74.804688 37.199219 Z M 74.804688 37.199219 "/>
<path style=" stroke:none;fill-rule:nonzero;fill:rgb(79.607843%,79.607843%,79.607843%);fill-opacity:1;" d="M 62.714844 62.789062 L 33.253906 62.789062 C 32.742188 62.789062 32.253906 62.996094 31.890625 63.359375 C 31.53125 63.722656 31.332031 64.214844 31.335938 64.726562 L 31.335938 67.125 C 31.359375 68.167969 32.210938 69 33.253906 69 L 62.714844 69 C 63.226562 69.003906 63.71875 68.804688 64.082031 68.441406 C 64.445312 68.082031 64.648438 67.59375 64.648438 67.078125 L 64.648438 64.679688 C 64.648438 63.613281 63.785156 62.746094 62.714844 62.746094 Z M 62.714844 62.789062 "/>
<path style=" stroke:none;fill-rule:nonzero;fill:rgb(92.54902%,25.098039%,47.843137%);fill-opacity:1;" d="M 27.316406 62.789062 L 25.964844 62.789062 C 25.445312 62.78125 24.945312 62.980469 24.578125 63.347656 C 24.207031 63.710938 24 64.207031 24 64.726562 L 24 67.125 C 24.023438 68.183594 24.90625 69.023438 25.964844 69 L 27.316406 69 C 27.828125 69.003906 28.320312 68.804688 28.683594 68.441406 C 29.046875 68.082031 29.25 67.59375 29.25 67.078125 L 29.25 64.679688 C 29.25 63.613281 28.382812 62.746094 27.316406 62.746094 Z M 27.316406 62.789062 "/>
<path style=" stroke:none;fill-rule:nonzero;fill:rgb(79.607843%,79.607843%,79.607843%);fill-opacity:1;" d="M 70.363281 62.789062 L 69 62.789062 C 67.929688 62.789062 67.066406 63.65625 67.066406 64.726562 L 67.066406 67.125 C 67.089844 68.171875 67.949219 69.007812 69 69 L 70.351562 69 C 70.863281 69.003906 71.355469 68.804688 71.71875 68.441406 C 72.082031 68.082031 72.285156 67.59375 72.285156 67.078125 L 72.285156 64.679688 C 72.285156 63.613281 71.417969 62.746094 70.351562 62.746094 Z M 70.363281 62.789062 "/>
<path style=" stroke:none;fill-rule:nonzero;fill:rgb(79.607843%,79.607843%,79.607843%);fill-opacity:1;" d="M 41.128906 53.863281 L 39.765625 53.863281 C 38.703125 53.863281 37.84375 54.726562 37.84375 55.785156 L 37.84375 58.183594 C 37.839844 58.695312 38.042969 59.1875 38.402344 59.550781 C 38.761719 59.914062 39.253906 60.121094 39.765625 60.121094 L 41.128906 60.121094 C 41.640625 60.121094 42.132812 59.914062 42.492188 59.550781 C 42.851562 59.1875 43.054688 58.695312 43.050781 58.183594 L 43.050781 55.785156 C 43.050781 54.726562 42.191406 53.863281 41.128906 53.863281 Z M 41.128906 53.863281 "/>
<path style=" stroke:none;fill-rule:nonzero;fill:rgb(92.54902%,25.098039%,47.843137%);fill-opacity:1;" d="M 34.289062 53.863281 L 25.964844 53.863281 C 25.449219 53.851562 24.949219 54.050781 24.578125 54.410156 C 24.207031 54.773438 24 55.269531 24 55.785156 L 24 58.183594 C 24 59.253906 24.867188 60.121094 25.933594 60.121094 L 34.261719 60.121094 C 35.328125 60.121094 36.195312 59.253906 36.195312 58.183594 L 36.195312 55.785156 C 36.195312 55.273438 35.992188 54.78125 35.628906 54.421875 C 35.265625 54.0625 34.773438 53.859375 34.261719 53.863281 Z M 34.289062 53.863281 "/>
<path style=" stroke:none;fill-rule:nonzero;fill:rgb(79.607843%,79.607843%,79.607843%);fill-opacity:1;" d="M 48.433594 53.863281 L 47.085938 53.863281 C 46.574219 53.859375 46.082031 54.0625 45.71875 54.421875 C 45.355469 54.78125 45.148438 55.273438 45.148438 55.785156 L 45.148438 58.183594 C 45.148438 59.253906 46.015625 60.121094 47.085938 60.121094 L 48.433594 60.121094 C 49.503906 60.121094 50.371094 59.253906 50.371094 58.183594 L 50.371094 55.785156 C 50.371094 55.273438 50.164062 54.78125 49.800781 54.421875 C 49.4375 54.0625 48.945312 53.859375 48.433594 53.863281 Z M 48.433594 53.863281 "/>
<path style=" stroke:none;fill-rule:nonzero;fill:rgb(79.607843%,79.607843%,79.607843%);fill-opacity:1;" d="M 55.753906 53.863281 L 54.390625 53.863281 C 53.339844 53.882812 52.5 54.734375 52.5 55.785156 L 52.5 58.183594 C 52.496094 58.695312 52.695312 59.1875 53.058594 59.550781 C 53.417969 59.914062 53.90625 60.121094 54.421875 60.121094 L 55.785156 60.121094 C 56.296875 60.121094 56.789062 59.914062 57.148438 59.550781 C 57.507812 59.1875 57.710938 58.695312 57.703125 58.183594 L 57.703125 55.785156 C 57.703125 54.726562 56.84375 53.863281 55.785156 53.863281 Z M 55.753906 53.863281 "/>
<path style=" stroke:none;fill-rule:nonzero;fill:rgb(79.607843%,79.607843%,79.607843%);fill-opacity:1;" d="M 63 53.863281 L 61.648438 53.863281 C 61.136719 53.859375 60.644531 54.0625 60.28125 54.421875 C 59.917969 54.78125 59.714844 55.273438 59.714844 55.785156 L 59.714844 58.183594 C 59.714844 59.253906 60.582031 60.121094 61.648438 60.121094 L 63 60.121094 C 64.070312 60.121094 64.933594 59.253906 64.933594 58.183594 L 64.933594 55.785156 C 64.933594 55.273438 64.730469 54.78125 64.367188 54.421875 C 64.003906 54.0625 63.511719 53.859375 63 53.863281 Z M 63 53.863281 "/>
<path style=" stroke:none;fill-rule:nonzero;fill:rgb(79.607843%,79.607843%,79.607843%);fill-opacity:1;" d="M 70.363281 53.863281 L 69 53.863281 C 68.488281 53.859375 67.996094 54.0625 67.632812 54.421875 C 67.269531 54.78125 67.066406 55.273438 67.066406 55.785156 L 67.066406 58.183594 C 67.066406 59.253906 67.929688 60.121094 69 60.121094 L 70.351562 60.121094 C 71.417969 60.121094 72.285156 59.253906 72.285156 58.183594 L 72.285156 55.785156 C 72.285156 55.273438 72.082031 54.78125 71.71875 54.421875 C 71.355469 54.0625 70.863281 53.859375 70.351562 53.863281 Z M 70.363281 53.863281 "/>
<path style=" stroke:none;fill-rule:nonzero;fill:rgb(79.607843%,79.607843%,79.607843%);fill-opacity:1;" d="M 37.066406 45 L 35.714844 45 C 35.203125 44.996094 34.710938 45.195312 34.347656 45.558594 C 33.984375 45.917969 33.78125 46.40625 33.78125 46.921875 L 33.78125 49.320312 C 33.78125 50.386719 34.644531 51.253906 35.714844 51.253906 L 37.066406 51.253906 C 37.589844 51.253906 38.09375 51.042969 38.460938 50.660156 C 38.824219 50.28125 39.019531 49.769531 39 49.246094 L 39 46.84375 C 38.960938 45.808594 38.101562 44.992188 37.066406 45 Z M 37.066406 45 "/>
<path style=" stroke:none;fill-rule:nonzero;fill:rgb(79.607843%,79.607843%,79.607843%);fill-opacity:1;" d="M 44.386719 45 L 43.019531 45 C 42.507812 44.996094 42.015625 45.195312 41.652344 45.558594 C 41.289062 45.917969 41.085938 46.40625 41.085938 46.921875 L 41.085938 49.320312 C 41.085938 50.386719 41.953125 51.253906 43.019531 51.253906 L 44.386719 51.253906 C 44.898438 51.253906 45.386719 51.050781 45.746094 50.6875 C 46.109375 50.324219 46.308594 49.832031 46.304688 49.320312 L 46.304688 46.921875 C 46.304688 45.859375 45.445312 45 44.386719 45 Z M 44.386719 45 "/>
<path style=" stroke:none;fill-rule:nonzero;fill:rgb(79.607843%,79.607843%,79.607843%);fill-opacity:1;" d="M 51.691406 45 L 50.324219 45 C 49.265625 45 48.40625 45.859375 48.40625 46.921875 L 48.40625 49.320312 C 48.402344 49.832031 48.601562 50.324219 48.960938 50.6875 C 49.324219 51.050781 49.8125 51.253906 50.324219 51.253906 L 51.691406 51.253906 C 52.203125 51.253906 52.691406 51.050781 53.054688 50.6875 C 53.414062 50.324219 53.613281 49.832031 53.609375 49.320312 L 53.609375 46.921875 C 53.609375 45.859375 52.75 45 51.691406 45 Z M 51.691406 45 "/>
<path style=" stroke:none;fill-rule:nonzero;fill:rgb(79.607843%,79.607843%,79.607843%);fill-opacity:1;" d="M 58.996094 45 L 57.644531 45 C 57.132812 44.996094 56.640625 45.195312 56.277344 45.558594 C 55.914062 45.917969 55.710938 46.40625 55.710938 46.921875 L 55.710938 49.320312 C 55.710938 50.386719 56.578125 51.253906 57.644531 51.253906 L 58.996094 51.253906 C 60.0625 51.253906 60.929688 50.386719 60.929688 49.320312 L 60.929688 46.921875 C 60.929688 46.40625 60.726562 45.917969 60.363281 45.558594 C 60 45.195312 59.507812 44.996094 58.996094 45 Z M 58.996094 45 "/>
<path style=" stroke:none;fill-rule:nonzero;fill:rgb(79.607843%,79.607843%,79.607843%);fill-opacity:1;" d="M 70.035156 45 L 64.738281 45 C 64.226562 44.996094 63.734375 45.195312 63.371094 45.558594 C 63.007812 45.917969 62.804688 46.40625 62.804688 46.921875 L 62.804688 49.320312 C 62.804688 50.386719 63.671875 51.253906 64.738281 51.253906 L 70.035156 51.253906 C 70.566406 51.269531 71.082031 51.058594 71.453125 50.679688 C 71.828125 50.296875 72.023438 49.777344 72 49.246094 L 72 46.84375 C 71.960938 45.796875 71.085938 44.976562 70.035156 45 Z M 70.035156 45 "/>
<path style=" stroke:none;fill-rule:nonzero;fill:rgb(92.54902%,25.098039%,47.843137%);fill-opacity:1;" d="M 29.414062 45 L 25.738281 45 C 24.679688 45 23.820312 45.859375 23.820312 46.921875 L 23.820312 49.320312 C 23.816406 49.832031 24.015625 50.324219 24.378906 50.6875 C 24.738281 51.050781 25.226562 51.253906 25.738281 51.253906 L 29.414062 51.253906 C 30.484375 51.253906 31.351562 50.386719 31.351562 49.320312 L 31.351562 46.921875 C 31.351562 46.40625 31.144531 45.917969 30.78125 45.558594 C 30.417969 45.195312 29.925781 44.996094 29.414062 45 Z M 29.414062 45 "/>
</g>
</svg>
