
<svg xmlns="http://www.w3.org/2000/svg" xmlns:xlink="http://www.w3.org/1999/xlink" width="96px" height="96px" viewBox="0 0 96 96" version="1.1">
<g id="surface1">
<path style=" stroke:none;fill-rule:nonzero;fill:rgb(49.411765%,34.117647%,76.862745%);fill-opacity:1;" d="M 8.085938 0 L 87.914062 0 C 92.378906 0 96 3.621094 96 8.085938 L 96 87.914062 C 96 92.378906 92.378906 96 87.914062 96 L 8.085938 96 C 3.621094 96 0 92.378906 0 87.914062 L 0 8.085938 C 0 3.621094 3.621094 0 8.085938 0 Z M 8.085938 0 "/>
<path style=" stroke:none;fill-rule:nonzero;fill:rgb(100%,100%,100%);fill-opacity:1;" d="M 80.476562 72.136719 L 15.539062 72.136719 C 14.050781 72.136719 12.839844 70.925781 12.839844 69.433594 L 12.839844 26.550781 C 12.839844 25.058594 14.050781 23.851562 15.539062 23.851562 L 80.476562 23.851562 C 81.964844 23.851562 83.175781 25.058594 83.175781 26.550781 L 83.175781 69.433594 C 83.175781 70.925781 81.964844 72.136719 80.476562 72.136719 Z M 80.476562 72.136719 "/>
<path style=" stroke:none;fill-rule:nonzero;fill:rgb(92.54902%,25.098039%,47.843137%);fill-opacity:1;" d="M 15.539062 22.605469 L 80.460938 22.605469 C 82.648438 22.605469 84.421875 24.378906 84.421875 26.566406 L 84.421875 69.433594 C 84.421875 71.621094 82.648438 73.394531 80.460938 73.394531 L 15.539062 73.394531 C 13.351562 73.394531 11.578125 71.621094 11.578125 69.433594 L 11.578125 26.566406 C 11.578125 24.378906 13.351562 22.605469 15.539062 22.605469 Z M 80.460938 70.890625 C 81.289062 70.890625 81.960938 70.21875 81.960938 69.390625 L 81.960938 26.566406 C 81.960938 25.738281 81.289062 25.066406 80.460938 25.066406 L 15.539062 25.066406 C 14.710938 25.066406 14.039062 25.738281 14.039062 26.566406 L 14.039062 69.433594 C 14.039062 70.261719 14.710938 70.933594 15.539062 70.933594 Z M 80.460938 70.890625 "/>
<path style=" stroke:none;fill-rule:nonzero;fill:rgb(92.54902%,25.098039%,47.843137%);fill-opacity:1;" d="M 84.121094 29.414062 L 12.121094 29.414062 L 12.121094 26.296875 C 12.117188 24.617188 13.445312 23.238281 15.121094 23.175781 L 80.941406 23.175781 C 81.777344 23.160156 82.585938 23.480469 83.183594 24.066406 C 83.785156 24.652344 84.121094 25.457031 84.121094 26.296875 Z M 84.121094 29.414062 "/>
<path style=" stroke:none;fill-rule:nonzero;fill:rgb(100%,100%,100%);fill-opacity:1;" d="M 69.691406 26.386719 C 69.691406 27.429688 68.84375 28.273438 67.800781 28.273438 C 66.757812 28.273438 65.910156 27.429688 65.910156 26.386719 C 65.910156 25.339844 66.757812 24.496094 67.800781 24.496094 C 68.84375 24.496094 69.691406 25.339844 69.691406 26.386719 Z M 69.691406 26.386719 "/>
<path style=" stroke:none;fill-rule:nonzero;fill:rgb(100%,100%,100%);fill-opacity:1;" d="M 76.003906 26.386719 C 76.003906 27.429688 75.160156 28.273438 74.113281 28.273438 C 73.070312 28.273438 72.226562 27.429688 72.226562 26.386719 C 72.226562 25.339844 73.070312 24.496094 74.113281 24.496094 C 75.160156 24.496094 76.003906 25.339844 76.003906 26.386719 Z M 76.003906 26.386719 "/>
<path style=" stroke:none;fill-rule:nonzero;fill:rgb(100%,100%,100%);fill-opacity:1;" d="M 82.320312 26.386719 C 82.320312 27.429688 81.472656 28.273438 80.429688 28.273438 C 79.386719 28.273438 78.539062 27.429688 78.539062 26.386719 C 78.539062 25.339844 79.386719 24.496094 80.429688 24.496094 C 81.472656 24.496094 82.320312 25.339844 82.320312 26.386719 Z M 82.320312 26.386719 "/>
</g>
</svg>
