
<svg xmlns="http://www.w3.org/2000/svg" xmlns:xlink="http://www.w3.org/1999/xlink" width="96px" height="96px" viewBox="0 0 96 96" version="1.1">
<g id="surface1">
<path style=" stroke:none;fill-rule:nonzero;fill:rgb(92.54902%,25.098039%,47.843137%);fill-opacity:1;" d="M 8.085938 0 L 87.914062 0 C 92.378906 0 96 3.621094 96 8.085938 L 96 87.914062 C 96 92.378906 92.378906 96 87.914062 96 L 8.085938 96 C 3.621094 96 0 92.378906 0 87.914062 L 0 8.085938 C 0 3.621094 3.621094 0 8.085938 0 Z M 8.085938 0 "/>
<path style=" stroke:none;fill-rule:nonzero;fill:rgb(100%,100%,100%);fill-opacity:1;" d="M 48.253906 18.058594 L 33.375 26.039062 L 48.253906 34.019531 L 63.136719 26.039062 Z M 48.253906 18.058594 "/>
<path style=" stroke:none;fill-rule:nonzero;fill:rgb(79.607843%,79.607843%,79.607843%);fill-opacity:1;" d="M 48.253906 49.933594 L 33.375 41.953125 L 33.375 26.039062 L 48.253906 34.019531 Z M 48.253906 49.933594 "/>
<path style=" stroke:none;fill-rule:nonzero;fill:rgb(16.078431%,71.372549%,96.470588%);fill-opacity:1;" d="M 48.253906 34.019531 L 63.136719 26.039062 L 63.136719 41.953125 L 48.253906 49.933594 Z M 48.253906 34.019531 "/>
<path style=" stroke:none;fill-rule:nonzero;fill:rgb(100%,100%,100%);fill-opacity:1;" d="M 33.164062 46.066406 L 18.285156 54.046875 L 33.164062 62.023438 L 48.046875 54.046875 Z M 33.164062 46.066406 "/>
<path style=" stroke:none;fill-rule:nonzero;fill:rgb(79.607843%,79.607843%,79.607843%);fill-opacity:1;" d="M 33.164062 77.925781 L 18.285156 69.960938 L 18.285156 54.046875 L 33.164062 62.023438 Z M 33.164062 77.925781 "/>
<path style=" stroke:none;fill-rule:nonzero;fill:rgb(16.078431%,71.372549%,96.470588%);fill-opacity:1;" d="M 33.164062 62.023438 L 48.046875 54.046875 L 48.046875 69.960938 L 33.164062 77.925781 Z M 33.164062 62.023438 "/>
<path style=" stroke:none;fill-rule:nonzero;fill:rgb(100%,100%,100%);fill-opacity:1;" d="M 62.835938 46.066406 L 47.953125 54.046875 L 62.835938 62.023438 L 77.714844 54.046875 Z M 62.835938 46.066406 "/>
<path style=" stroke:none;fill-rule:nonzero;fill:rgb(79.607843%,79.607843%,79.607843%);fill-opacity:1;" d="M 62.835938 77.925781 L 47.953125 69.960938 L 47.953125 54.046875 L 62.835938 62.023438 Z M 62.835938 77.925781 "/>
<path style=" stroke:none;fill-rule:nonzero;fill:rgb(16.078431%,71.372549%,96.470588%);fill-opacity:1;" d="M 62.835938 62.023438 L 77.714844 54.046875 L 77.714844 69.960938 L 62.835938 77.925781 Z M 62.835938 62.023438 "/>
</g>
</svg>
