
<svg xmlns="http://www.w3.org/2000/svg" xmlns:xlink="http://www.w3.org/1999/xlink" width="16px" height="16px" viewBox="0 0 16 16" version="1.1">
<g id="surface1">
<path style=" stroke:none;fill-rule:nonzero;fill:rgb(56.470588%,56.470588%,56.470588%);fill-opacity:1;" d="M 15 13.75 L 15 3.101562 C 15 2.277344 14.671875 1.488281 14.085938 0.90625 C 13.503906 0.324219 12.714844 -0.00390625 11.890625 0 L 7.640625 0 C 5.925781 -0.00390625 4.535156 1.386719 4.53125 3.101562 L 4.53125 9.675781 C 4.1875 9.53125 3.820312 9.457031 3.449219 9.457031 C 2.085938 9.457031 1 10.375 1 11.5 C 1 12.625 2.101562 13.550781 3.460938 13.550781 C 4.820312 13.550781 5.921875 12.636719 5.921875 11.5 C 5.921875 11.46875 5.921875 11.4375 5.910156 11.40625 L 5.933594 11.40625 L 5.933594 4.339844 C 5.9375 3.640625 6.5 3.078125 7.199219 3.074219 L 12.332031 3.074219 C 13.03125 3.074219 13.597656 3.640625 13.601562 4.339844 L 13.601562 12.089844 C 13.265625 11.957031 12.910156 11.886719 12.550781 11.886719 C 11.191406 11.886719 10.089844 12.804688 10.089844 13.9375 C 10.089844 15.070312 11.191406 16 12.550781 16 C 13.914062 16 15.011719 15.082031 15.011719 13.949219 C 15.011719 13.882812 15.007812 13.816406 15 13.75 Z M 15 13.75 "/>
</g>
</svg>
