
<svg xmlns="http://www.w3.org/2000/svg" xmlns:xlink="http://www.w3.org/1999/xlink" width="16px" height="16px" viewBox="0 0 16 16" version="1.1">
<g id="surface1">
<path style=" stroke:none;fill-rule:nonzero;fill:rgb(56.470588%,56.470588%,56.470588%);fill-opacity:1;" d="M 3.875 2.625 L 5.125 3.066406 L 3.695312 7.09375 C 4.75 6.902344 5.84375 7.066406 6.796875 7.554688 L 8.019531 4.089844 L 9.230469 4.515625 C 9.414062 4.582031 9.621094 4.53125 9.753906 4.386719 C 9.886719 4.238281 9.914062 4.027344 9.828125 3.851562 L 8.164062 0.363281 C 8.089844 0.210938 7.960938 0.09375 7.800781 0.0351562 C 7.640625 -0.0195312 7.46875 -0.0117188 7.316406 0.0625 L 3.828125 1.730469 C 3.652344 1.816406 3.542969 1.996094 3.550781 2.195312 C 3.5625 2.390625 3.691406 2.558594 3.875 2.625 Z M 3.875 2.625 "/>
<path style=" stroke:none;fill-rule:nonzero;fill:rgb(56.470588%,56.470588%,56.470588%);fill-opacity:1;" d="M 14.878906 5.148438 L 11.042969 4.679688 C 10.847656 4.65625 10.65625 4.75 10.558594 4.921875 C 10.464844 5.09375 10.480469 5.308594 10.601562 5.460938 L 11.414062 6.5 L 8.414062 8.84375 C 9 9.558594 9.375 10.417969 9.5 11.328125 L 9.78125 11.683594 L 13.316406 8.933594 L 14.105469 9.933594 C 14.234375 10.078125 14.433594 10.132812 14.617188 10.082031 C 14.800781 10.027344 14.9375 9.875 14.96875 9.683594 L 15.441406 5.847656 C 15.476562 5.5 15.226562 5.1875 14.878906 5.148438 Z M 14.878906 5.148438 "/>
<path style=" stroke:none;fill-rule:nonzero;fill:rgb(56.470588%,56.470588%,56.470588%);fill-opacity:1;" d="M 8.429688 11.128906 C 8.917969 13.273438 7.578125 15.410156 5.433594 15.898438 C 3.289062 16.390625 1.152344 15.046875 0.664062 12.902344 C 0.171875 10.757812 1.515625 8.625 3.660156 8.132812 C 5.804688 7.644531 7.9375 8.984375 8.429688 11.128906 Z M 8.429688 11.128906 "/>
</g>
</svg>
