
<svg xmlns="http://www.w3.org/2000/svg" xmlns:xlink="http://www.w3.org/1999/xlink" width="16px" height="16px" viewBox="0 0 16 16" version="1.1">
<g id="surface1">
<path style=" stroke:none;fill-rule:nonzero;fill:rgb(56.470588%,56.470588%,56.470588%);fill-opacity:1;" d="M 7.308594 1.9375 C 7.308594 1.8125 7.316406 1.691406 7.335938 1.566406 L 7.378906 1.28125 L 6.128906 1.28125 C 5.765625 1.28125 5.472656 1.574219 5.472656 1.9375 C 5.472656 2.300781 5.765625 2.59375 6.128906 2.59375 L 7.378906 2.59375 L 7.335938 2.308594 C 7.316406 2.183594 7.308594 2.0625 7.308594 1.9375 Z M 7.308594 1.9375 "/>
<path style=" stroke:none;fill-rule:nonzero;fill:rgb(56.470588%,56.470588%,56.470588%);fill-opacity:1;" d="M 12.5 13.664062 L 12.5 1.9375 C 12.5 1.578125 12.210938 1.285156 11.851562 1.28125 L 9.707031 1.28125 C 9.347656 1.28125 9.050781 1.574219 9.050781 1.9375 C 9.050781 2.300781 9.347656 2.59375 9.707031 2.59375 L 11.207031 2.59375 L 11.207031 13 L 3.121094 13 L 3.121094 2.59375 L 3.808594 2.59375 L 3.761719 2.308594 C 3.746094 2.183594 3.734375 2.0625 3.734375 1.9375 C 3.734375 1.8125 3.746094 1.691406 3.761719 1.566406 L 3.808594 1.28125 L 2.46875 1.28125 C 2.105469 1.285156 1.816406 1.578125 1.816406 1.9375 L 1.816406 13.664062 C 1.8125 13.835938 1.882812 14.003906 2.003906 14.125 C 2.128906 14.25 2.292969 14.316406 2.46875 14.316406 L 11.851562 14.316406 C 12.210938 14.316406 12.5 14.023438 12.5 13.664062 Z M 12.5 13.664062 "/>
<path style=" stroke:none;fill-rule:nonzero;fill:rgb(56.470588%,56.470588%,56.470588%);fill-opacity:1;" d="M 13.53125 2.964844 C 13.171875 2.964844 12.878906 3.257812 12.878906 3.621094 L 12.878906 14.691406 L 4.148438 14.691406 C 3.804688 14.714844 3.535156 15 3.535156 15.347656 C 3.535156 15.691406 3.804688 15.980469 4.148438 16 L 13.53125 16 C 13.707031 16 13.871094 15.929688 13.996094 15.808594 C 14.117188 15.683594 14.1875 15.519531 14.183594 15.34375 L 14.183594 3.621094 C 14.183594 3.257812 13.894531 2.964844 13.53125 2.964844 Z M 13.53125 2.964844 "/>
<path style=" stroke:none;fill-rule:nonzero;fill:rgb(56.470588%,56.470588%,56.470588%);fill-opacity:1;" d="M 4.683594 6.015625 L 9.632812 6.015625 C 9.859375 6.015625 10.039062 5.832031 10.039062 5.609375 C 10.039062 5.382812 9.859375 5.199219 9.632812 5.199219 L 4.683594 5.199219 C 4.460938 5.199219 4.277344 5.382812 4.277344 5.609375 C 4.277344 5.832031 4.460938 6.015625 4.683594 6.015625 Z M 4.683594 6.015625 "/>
<path style=" stroke:none;fill-rule:nonzero;fill:rgb(56.470588%,56.470588%,56.470588%);fill-opacity:1;" d="M 4.683594 7.851562 L 9.632812 7.851562 C 9.785156 7.863281 9.933594 7.789062 10.015625 7.65625 C 10.09375 7.527344 10.09375 7.359375 10.015625 7.230469 C 9.933594 7.097656 9.785156 7.023438 9.632812 7.035156 L 4.683594 7.035156 C 4.53125 7.023438 4.382812 7.097656 4.304688 7.230469 C 4.222656 7.359375 4.222656 7.527344 4.304688 7.65625 C 4.382812 7.789062 4.53125 7.863281 4.683594 7.851562 Z M 4.683594 7.851562 "/>
<path style=" stroke:none;fill-rule:nonzero;fill:rgb(56.470588%,56.470588%,56.470588%);fill-opacity:1;" d="M 4.683594 9.6875 L 9.632812 9.6875 C 9.785156 9.699219 9.933594 9.625 10.015625 9.492188 C 10.09375 9.363281 10.09375 9.195312 10.015625 9.066406 C 9.933594 8.933594 9.785156 8.859375 9.632812 8.871094 L 4.683594 8.871094 C 4.53125 8.859375 4.382812 8.933594 4.304688 9.066406 C 4.222656 9.195312 4.222656 9.363281 4.304688 9.492188 C 4.382812 9.625 4.53125 9.699219 4.683594 9.6875 Z M 4.683594 9.6875 "/>
<path style=" stroke:none;fill-rule:nonzero;fill:rgb(56.470588%,56.470588%,56.470588%);fill-opacity:1;" d="M 4.683594 11.523438 L 7.859375 11.523438 C 8.082031 11.523438 8.265625 11.339844 8.265625 11.113281 C 8.265625 10.890625 8.082031 10.707031 7.859375 10.707031 L 4.683594 10.707031 C 4.460938 10.707031 4.277344 10.890625 4.277344 11.113281 C 4.277344 11.339844 4.460938 11.523438 4.683594 11.523438 Z M 4.683594 11.523438 "/>
<path style=" stroke:none;fill-rule:nonzero;fill:rgb(56.470588%,56.470588%,56.470588%);fill-opacity:1;" d="M 9.707031 3.875 C 9.933594 3.875 10.113281 3.691406 10.113281 3.46875 C 10.113281 3.242188 9.933594 3.058594 9.707031 3.058594 C 9.246094 3.058594 8.832031 2.777344 8.664062 2.34375 C 8.5625 2.082031 8.5625 1.792969 8.664062 1.53125 C 8.832031 1.097656 9.246094 0.816406 9.707031 0.816406 C 9.933594 0.816406 10.113281 0.632812 10.113281 0.40625 C 10.113281 0.183594 9.933594 0 9.707031 0 C 8.796875 0 8.007812 0.636719 7.816406 1.53125 C 7.785156 1.664062 7.769531 1.800781 7.769531 1.9375 C 7.769531 2.074219 7.785156 2.210938 7.816406 2.34375 C 8.007812 3.238281 8.796875 3.875 9.707031 3.875 Z M 9.707031 3.875 "/>
<path style=" stroke:none;fill-rule:nonzero;fill:rgb(56.470588%,56.470588%,56.470588%);fill-opacity:1;" d="M 6.140625 3.875 C 6.363281 3.875 6.546875 3.691406 6.546875 3.46875 C 6.546875 3.242188 6.363281 3.058594 6.140625 3.058594 C 5.679688 3.058594 5.261719 2.773438 5.09375 2.34375 C 4.992188 2.082031 4.992188 1.792969 5.09375 1.53125 C 5.261719 1.101562 5.679688 0.816406 6.140625 0.816406 C 6.363281 0.816406 6.546875 0.632812 6.546875 0.40625 C 6.546875 0.183594 6.363281 0 6.140625 0 C 5.230469 0.00390625 4.441406 0.640625 4.25 1.53125 C 4.191406 1.796875 4.191406 2.078125 4.25 2.34375 C 4.441406 3.234375 5.230469 3.871094 6.140625 3.875 Z M 6.140625 3.875 "/>
</g>
</svg>
