
<svg xmlns="http://www.w3.org/2000/svg" xmlns:xlink="http://www.w3.org/1999/xlink" width="16px" height="16px" viewBox="0 0 16 16" version="1.1">
<g id="surface1">
<path style=" stroke:none;fill-rule:nonzero;fill:rgb(56.470588%,56.470588%,56.470588%);fill-opacity:1;" d="M 15.566406 4.160156 L 12.101562 3 C 11.839844 2.914062 11.667969 2.671875 11.667969 2.398438 C 11.667969 2.050781 11.386719 1.769531 11.039062 1.769531 L 0.632812 1.769531 C 0.464844 1.769531 0.304688 1.835938 0.183594 1.953125 C 0.0664062 2.070312 0 2.234375 0 2.398438 L 0 13.601562 C 0 13.765625 0.0664062 13.929688 0.183594 14.046875 C 0.304688 14.164062 0.464844 14.230469 0.632812 14.230469 L 11.039062 14.230469 C 11.386719 14.230469 11.667969 13.949219 11.667969 13.601562 L 11.667969 13.585938 C 11.671875 13.382812 11.769531 13.195312 11.933594 13.082031 C 12.101562 12.964844 12.308594 12.933594 12.5 13 L 12.605469 13.035156 C 12.9375 13.144531 13.292969 12.964844 13.40625 12.636719 L 15.96875 4.960938 C 16.078125 4.628906 15.898438 4.269531 15.566406 4.160156 Z M 9.625 11.558594 L 2.042969 11.558594 C 1.691406 11.558594 1.410156 11.277344 1.410156 10.925781 L 1.410156 3.8125 C 1.410156 3.464844 1.691406 3.179688 2.042969 3.179688 L 9.625 3.179688 C 9.972656 3.183594 10.25 3.464844 10.25 3.8125 L 10.25 10.925781 C 10.25 11.273438 9.972656 11.554688 9.625 11.558594 Z M 11.667969 10.140625 L 11.667969 4.847656 C 11.667969 4.644531 11.765625 4.453125 11.929688 4.335938 C 12.09375 4.214844 12.308594 4.183594 12.5 4.25 L 14.230469 4.828125 C 14.390625 4.878906 14.519531 4.996094 14.59375 5.144531 C 14.667969 5.296875 14.679688 5.46875 14.628906 5.628906 L 13.035156 10.390625 C 12.925781 10.714844 12.578125 10.890625 12.25 10.789062 L 12.101562 10.75 C 11.839844 10.664062 11.664062 10.417969 11.667969 10.140625 Z M 11.667969 10.140625 "/>
</g>
</svg>
