
<svg xmlns="http://www.w3.org/2000/svg" xmlns:xlink="http://www.w3.org/1999/xlink" width="16px" height="16px" viewBox="0 0 16 16" version="1.1">
<g id="surface1">
<path style=" stroke:none;fill-rule:nonzero;fill:rgb(56.470588%,56.470588%,56.470588%);fill-opacity:1;" d="M 13.25 14.875 L 2.75 14.875 C 1.230469 14.875 0 13.644531 0 12.125 L 0 9.035156 C 0 8.632812 0.324219 8.308594 0.726562 8.308594 C 1.125 8.308594 1.449219 8.632812 1.449219 9.035156 L 1.449219 12.136719 C 1.449219 12.480469 1.589844 12.808594 1.832031 13.050781 C 2.074219 13.292969 2.40625 13.425781 2.75 13.425781 L 13.25 13.425781 C 13.960938 13.421875 14.539062 12.847656 14.539062 12.136719 L 14.539062 9.035156 C 14.539062 8.632812 14.863281 8.308594 15.265625 8.308594 C 15.664062 8.308594 15.988281 8.632812 15.988281 9.035156 L 15.988281 12.136719 C 15.984375 13.644531 14.761719 14.871094 13.25 14.875 Z M 13.25 14.875 "/>
<path style=" stroke:none;fill-rule:nonzero;fill:rgb(56.470588%,56.470588%,56.470588%);fill-opacity:1;" d="M 8 11.941406 C 7.746094 11.945312 7.503906 11.855469 7.308594 11.691406 L 2.175781 7.171875 C 1.847656 6.882812 1.734375 6.421875 1.890625 6.015625 C 2.042969 5.609375 2.433594 5.339844 2.867188 5.335938 L 4.183594 5.335938 L 4.183594 1.851562 C 4.207031 1.464844 4.527344 1.164062 4.910156 1.164062 C 5.296875 1.164062 5.613281 1.464844 5.636719 1.851562 L 5.636719 5.75 C 5.636719 6.328125 5.167969 6.796875 4.589844 6.796875 L 3.941406 6.796875 L 8 10.359375 L 12.058594 6.789062 L 11.410156 6.789062 C 10.835938 6.789062 10.367188 6.324219 10.363281 5.75 L 10.363281 1.851562 C 10.363281 1.449219 10.691406 1.125 11.089844 1.125 C 11.492188 1.125 11.816406 1.449219 11.816406 1.851562 L 11.816406 5.351562 L 13.136719 5.351562 C 13.570312 5.351562 13.957031 5.621094 14.113281 6.027344 C 14.265625 6.433594 14.152344 6.894531 13.824219 7.183594 L 8.691406 11.683594 C 8.5 11.851562 8.253906 11.941406 8 11.941406 Z M 7.734375 10.59375 Z M 7.734375 10.59375 "/>
</g>
</svg>
