
<svg xmlns="http://www.w3.org/2000/svg" xmlns:xlink="http://www.w3.org/1999/xlink" width="16px" height="16px" viewBox="0 0 16 16" version="1.1">
<g id="surface1">
<path style=" stroke:none;fill-rule:nonzero;fill:rgb(56.470588%,56.470588%,56.470588%);fill-opacity:1;" d="M 15.597656 1 L 14.730469 1 C 14.507812 1 14.328125 1.179688 14.324219 1.402344 L 14.324219 2.171875 C 14.324219 2.394531 14.144531 2.574219 13.921875 2.574219 L 13.335938 2.574219 C 13.226562 2.574219 13.125 2.535156 13.046875 2.457031 C 12.972656 2.382812 12.929688 2.28125 12.929688 2.171875 L 12.929688 1.402344 C 12.929688 1.179688 12.75 1 12.527344 1 L 3.472656 1 C 3.25 1 3.070312 1.179688 3.070312 1.402344 L 3.070312 2.171875 C 3.070312 2.28125 3.027344 2.382812 2.953125 2.457031 C 2.875 2.535156 2.773438 2.574219 2.664062 2.574219 L 2.078125 2.574219 C 1.855469 2.574219 1.675781 2.394531 1.675781 2.171875 L 1.675781 1.402344 C 1.675781 1.296875 1.632812 1.191406 1.554688 1.117188 C 1.480469 1.042969 1.378906 1 1.269531 1 L 0.402344 1 C 0.179688 1 0 1.179688 0 1.402344 L 0 14.597656 C 0 14.820312 0.179688 15 0.402344 15 L 1.269531 15 C 1.378906 15 1.480469 14.957031 1.554688 14.882812 C 1.632812 14.808594 1.675781 14.703125 1.675781 14.597656 L 1.675781 13.828125 C 1.675781 13.605469 1.855469 13.425781 2.078125 13.425781 L 2.664062 13.425781 C 2.773438 13.425781 2.875 13.464844 2.953125 13.542969 C 3.027344 13.617188 3.070312 13.71875 3.070312 13.828125 L 3.070312 14.597656 C 3.070312 14.820312 3.25 15 3.472656 15 L 12.527344 15 C 12.75 15 12.929688 14.820312 12.929688 14.597656 L 12.929688 13.828125 C 12.929688 13.71875 12.972656 13.617188 13.046875 13.542969 C 13.125 13.464844 13.226562 13.425781 13.335938 13.425781 L 13.921875 13.425781 C 14.144531 13.425781 14.324219 13.605469 14.324219 13.828125 L 14.324219 14.597656 C 14.328125 14.820312 14.507812 15 14.730469 15 L 15.597656 15 C 15.820312 15 16 14.820312 16 14.597656 L 16 1.402344 C 16 1.179688 15.820312 1 15.597656 1 Z M 3.070312 10.589844 C 3.070312 10.699219 3.027344 10.800781 2.953125 10.878906 C 2.878906 10.957031 2.773438 11 2.664062 11 L 2.078125 11 C 1.96875 11 1.867188 10.957031 1.789062 10.878906 C 1.714844 10.800781 1.671875 10.699219 1.675781 10.589844 L 1.675781 9.621094 C 1.675781 9.398438 1.855469 9.214844 2.078125 9.214844 L 2.664062 9.214844 C 2.890625 9.214844 3.070312 9.394531 3.070312 9.621094 Z M 3.070312 6.378906 C 3.070312 6.605469 2.890625 6.785156 2.664062 6.785156 L 2.078125 6.785156 C 1.855469 6.785156 1.675781 6.601562 1.675781 6.378906 L 1.675781 5.410156 C 1.671875 5.300781 1.714844 5.199219 1.789062 5.121094 C 1.867188 5.042969 1.96875 5 2.078125 5 L 2.664062 5 C 2.890625 5 3.070312 5.179688 3.070312 5.40625 Z M 10.125 8.46875 L 6.484375 10.574219 C 6.292969 10.679688 6.0625 10.679688 5.875 10.570312 C 5.6875 10.460938 5.570312 10.261719 5.570312 10.046875 L 5.570312 5.835938 C 5.570312 5.621094 5.683594 5.417969 5.875 5.308594 C 6.0625 5.199219 6.292969 5.199219 6.484375 5.308594 L 10.125 7.414062 C 10.316406 7.523438 10.429688 7.722656 10.429688 7.941406 C 10.429688 8.160156 10.316406 8.359375 10.125 8.46875 Z M 14.324219 10.589844 C 14.328125 10.699219 14.285156 10.800781 14.210938 10.878906 C 14.132812 10.957031 14.03125 11 13.921875 11 L 13.335938 11 C 13.109375 11 12.929688 10.820312 12.929688 10.59375 L 12.929688 9.621094 C 12.929688 9.394531 13.109375 9.214844 13.335938 9.214844 L 13.921875 9.214844 C 14.144531 9.214844 14.324219 9.398438 14.324219 9.621094 Z M 14.324219 6.378906 C 14.324219 6.601562 14.144531 6.785156 13.921875 6.785156 L 13.335938 6.785156 C 13.109375 6.785156 12.929688 6.605469 12.929688 6.378906 L 12.929688 5.410156 C 12.929688 5.300781 12.972656 5.199219 13.046875 5.121094 C 13.121094 5.042969 13.226562 5 13.335938 5 L 13.921875 5 C 14.144531 5 14.324219 5.183594 14.324219 5.40625 Z M 14.324219 6.378906 "/>
</g>
</svg>
