
<svg xmlns="http://www.w3.org/2000/svg" xmlns:xlink="http://www.w3.org/1999/xlink" width="16px" height="16px" viewBox="0 0 16 16" version="1.1">
<g id="surface1">
<path style=" stroke:none;fill-rule:nonzero;fill:rgb(56.470588%,56.470588%,56.470588%);fill-opacity:1;" d="M 10.066406 13.796875 L 2.066406 8.296875 C 1.871094 8.167969 1.617188 8.15625 1.410156 8.265625 C 1.203125 8.375 1.070312 8.589844 1.066406 8.828125 L 1.066406 14.734375 C 1.066406 14.871094 1.179688 14.984375 1.316406 14.984375 L 9.703125 14.984375 C 9.988281 14.988281 10.246094 14.800781 10.332031 14.527344 C 10.417969 14.253906 10.308594 13.953125 10.066406 13.796875 Z M 5.402344 13.234375 L 3.035156 13.234375 C 2.898438 13.234375 2.785156 13.125 2.785156 12.984375 L 2.785156 11.363281 C 2.789062 11.273438 2.839844 11.195312 2.917969 11.15625 C 2.996094 11.113281 3.089844 11.117188 3.164062 11.164062 L 5.53125 12.792969 C 5.609375 12.855469 5.644531 12.960938 5.613281 13.058594 C 5.585938 13.152344 5.503906 13.222656 5.402344 13.234375 Z M 5.402344 13.234375 "/>
<path style=" stroke:none;fill-rule:nonzero;fill:rgb(56.470588%,56.470588%,56.470588%);fill-opacity:1;" d="M 1.28125 3.976562 L 2.5 3.976562 C 2.636719 3.976562 2.75 3.863281 2.75 3.726562 L 2.75 2.960938 C 2.75 2.824219 2.863281 2.710938 3 2.710938 L 3.75 2.710938 C 3.886719 2.710938 4 2.601562 4 2.460938 L 4 1.265625 C 4 1.128906 3.886719 1.015625 3.75 1.015625 L 1.28125 1.015625 C 1.144531 1.015625 1.03125 1.128906 1.03125 1.265625 L 1.03125 3.734375 C 1.035156 3.867188 1.148438 3.976562 1.28125 3.976562 Z M 1.28125 3.976562 "/>
<path style=" stroke:none;fill-rule:nonzero;fill:rgb(56.470588%,56.470588%,56.470588%);fill-opacity:1;" d="M 14.71875 1.023438 L 12.25 1.023438 C 12.113281 1.023438 12 1.136719 12 1.273438 L 12 2.480469 C 12 2.617188 12.113281 2.730469 12.25 2.730469 L 13.019531 2.730469 C 13.15625 2.730469 13.269531 2.84375 13.269531 2.980469 L 13.269531 3.75 C 13.269531 3.886719 13.382812 4 13.519531 4 L 14.734375 4 C 14.871094 4 14.984375 3.886719 14.984375 3.75 L 14.984375 1.265625 C 14.980469 1.199219 14.953125 1.136719 14.902344 1.089844 C 14.851562 1.042969 14.785156 1.019531 14.71875 1.023438 Z M 14.71875 1.023438 "/>
<path style=" stroke:none;fill-rule:nonzero;fill:rgb(56.470588%,56.470588%,56.470588%);fill-opacity:1;" d="M 14.71875 12 L 13.5 12 C 13.363281 12 13.25 12.113281 13.25 12.25 L 13.25 13 C 13.25 13.136719 13.136719 13.25 13 13.25 L 12.25 13.25 C 12.113281 13.25 12 13.363281 12 13.5 L 12 14.710938 C 12 14.851562 12.113281 14.960938 12.25 14.960938 L 14.714844 14.960938 C 14.851562 14.960938 14.964844 14.851562 14.964844 14.710938 L 14.964844 12.25 C 14.964844 12.113281 14.855469 12 14.71875 12 Z M 14.71875 12 "/>
<path style=" stroke:none;fill-rule:nonzero;fill:rgb(56.470588%,56.470588%,56.470588%);fill-opacity:1;" d="M 13.503906 5.4375 L 14.714844 5.4375 C 14.847656 5.4375 14.957031 5.546875 14.957031 5.679688 L 14.957031 7.042969 C 14.957031 7.175781 14.847656 7.285156 14.714844 7.285156 L 13.503906 7.285156 C 13.371094 7.285156 13.261719 7.175781 13.261719 7.042969 L 13.261719 5.679688 C 13.261719 5.546875 13.371094 5.4375 13.503906 5.4375 Z M 13.503906 5.4375 "/>
<path style=" stroke:none;fill-rule:nonzero;fill:rgb(56.470588%,56.470588%,56.470588%);fill-opacity:1;" d="M 13.503906 8.714844 L 14.714844 8.714844 C 14.847656 8.714844 14.957031 8.824219 14.957031 8.957031 L 14.957031 10.320312 C 14.957031 10.453125 14.847656 10.5625 14.714844 10.5625 L 13.503906 10.5625 C 13.371094 10.5625 13.261719 10.453125 13.261719 10.320312 L 13.261719 8.957031 C 13.261719 8.824219 13.371094 8.714844 13.503906 8.714844 Z M 13.503906 8.714844 "/>
<path style=" stroke:none;fill-rule:nonzero;fill:rgb(56.470588%,56.470588%,56.470588%);fill-opacity:1;" d="M 1.28125 5.4375 L 2.492188 5.4375 C 2.625 5.4375 2.734375 5.546875 2.734375 5.679688 L 2.734375 7.042969 C 2.734375 7.175781 2.625 7.285156 2.492188 7.285156 L 1.28125 7.285156 C 1.148438 7.285156 1.039062 7.175781 1.039062 7.042969 L 1.039062 5.679688 C 1.039062 5.546875 1.148438 5.4375 1.28125 5.4375 Z M 1.28125 5.4375 "/>
<path style=" stroke:none;fill-rule:nonzero;fill:rgb(56.470588%,56.470588%,56.470588%);fill-opacity:1;" d="M 8.957031 1.023438 L 10.320312 1.023438 C 10.453125 1.023438 10.5625 1.132812 10.5625 1.265625 L 10.5625 2.476562 C 10.5625 2.613281 10.453125 2.71875 10.320312 2.71875 L 8.957031 2.71875 C 8.824219 2.71875 8.714844 2.613281 8.714844 2.476562 L 8.714844 1.265625 C 8.714844 1.132812 8.824219 1.023438 8.957031 1.023438 Z M 8.957031 1.023438 "/>
<path style=" stroke:none;fill-rule:nonzero;fill:rgb(56.470588%,56.470588%,56.470588%);fill-opacity:1;" d="M 5.679688 1.023438 L 7.042969 1.023438 C 7.175781 1.023438 7.285156 1.132812 7.285156 1.265625 L 7.285156 2.476562 C 7.285156 2.613281 7.175781 2.71875 7.042969 2.71875 L 5.679688 2.71875 C 5.546875 2.71875 5.4375 2.613281 5.4375 2.476562 L 5.4375 1.265625 C 5.4375 1.132812 5.546875 1.023438 5.679688 1.023438 Z M 5.679688 1.023438 "/>
</g>
</svg>
