
<svg xmlns="http://www.w3.org/2000/svg" xmlns:xlink="http://www.w3.org/1999/xlink" width="16px" height="16px" viewBox="0 0 16 16" version="1.1">
<g id="surface1">
<path style=" stroke:none;fill-rule:nonzero;fill:rgb(56.470588%,56.470588%,56.470588%);fill-opacity:1;" d="M 15.5 13.074219 L 12.59375 10.167969 C 14.308594 7.230469 13.578125 3.480469 10.886719 1.402344 C 8.195312 -0.675781 4.378906 -0.429688 1.972656 1.972656 C -0.429688 4.378906 -0.675781 8.195312 1.402344 10.886719 C 3.480469 13.578125 7.230469 14.308594 10.167969 12.59375 L 13.074219 15.5 C 13.75 16.132812 14.804688 16.113281 15.460938 15.460938 C 16.113281 14.804688 16.132812 13.75 15.5 13.074219 Z M 3.691406 9.824219 C 1.992188 8.125 1.992188 5.378906 3.6875 3.679688 C 5.386719 1.984375 8.136719 1.984375 9.832031 3.679688 C 11.527344 5.378906 11.527344 8.125 9.828125 9.824219 C 8.136719 11.515625 5.390625 11.519531 3.691406 9.828125 Z M 3.691406 9.824219 "/>
</g>
</svg>
