
<svg xmlns="http://www.w3.org/2000/svg" xmlns:xlink="http://www.w3.org/1999/xlink" width="16px" height="16px" viewBox="0 0 16 16" version="1.1">
<g id="surface1">
<path style=" stroke:none;fill-rule:nonzero;fill:rgb(56.470588%,56.470588%,56.470588%);fill-opacity:1;" d="M 13.925781 4.363281 L 10.363281 4.363281 C 9.460938 4.363281 8.726562 3.628906 8.726562 2.726562 C 8.726562 1.824219 7.996094 1.089844 7.089844 1.089844 L 1.636719 1.089844 C 0.734375 1.089844 0 1.824219 0 2.726562 L 0 12.835938 C 0 13.980469 0.929688 14.910156 2.074219 14.910156 L 13.925781 14.910156 C 15.070312 14.910156 16 13.980469 16 12.835938 L 16 6.4375 C 16 5.292969 15.074219 4.363281 13.925781 4.363281 Z M 14.585938 12.363281 C 14.585938 12.914062 14.136719 13.363281 13.585938 13.363281 L 2.425781 13.363281 C 1.871094 13.363281 1.425781 12.914062 1.425781 12.363281 L 1.425781 6.824219 C 1.425781 6.273438 1.871094 5.824219 2.425781 5.824219 L 13.574219 5.824219 C 14.128906 5.824219 14.574219 6.273438 14.574219 6.824219 Z M 14.585938 12.363281 "/>
</g>
</svg>
