
<svg xmlns="http://www.w3.org/2000/svg" xmlns:xlink="http://www.w3.org/1999/xlink" width="16px" height="16px" viewBox="0 0 16 16" version="1.1">
<g id="surface1">
<path style=" stroke:none;fill-rule:nonzero;fill:rgb(56.470588%,56.470588%,56.470588%);fill-opacity:1;" d="M 14.199219 5.453125 L 9.269531 0.523438 C 8.570312 -0.175781 7.433594 -0.175781 6.734375 0.523438 L 1.800781 5.453125 C 1.277344 5.714844 0.945312 6.25 0.945312 6.835938 L 0.945312 14.460938 C 0.945312 15.308594 1.632812 16 2.484375 16 L 13.515625 16 C 14.367188 16 15.054688 15.308594 15.054688 14.460938 L 15.054688 6.835938 C 15.054688 6.25 14.722656 5.714844 14.199219 5.453125 Z M 13.75 7.636719 L 9.046875 11.441406 C 8.433594 11.933594 7.5625 11.933594 6.949219 11.441406 L 2.25 7.636719 C 2.113281 7.453125 2.121094 7.199219 2.265625 7.023438 C 2.410156 6.84375 2.65625 6.789062 2.863281 6.886719 L 6.898438 10.164062 L 6.898438 5.914062 L 5.328125 5.914062 C 5.144531 5.914062 4.972656 5.804688 4.898438 5.632812 C 4.828125 5.460938 4.867188 5.261719 5 5.128906 L 7.578125 2.558594 C 7.8125 2.328125 8.1875 2.328125 8.421875 2.558594 L 11 5.128906 C 11.128906 5.261719 11.167969 5.457031 11.097656 5.628906 C 11.027344 5.796875 10.863281 5.910156 10.675781 5.910156 L 9.125 5.910156 L 9.125 10.125 L 13.125 6.875 C 13.257812 6.753906 13.445312 6.714844 13.617188 6.773438 C 13.785156 6.835938 13.90625 6.984375 13.933594 7.164062 C 13.957031 7.339844 13.882812 7.519531 13.738281 7.625 Z M 13.75 7.636719 "/>
</g>
</svg>
