
<svg xmlns="http://www.w3.org/2000/svg" xmlns:xlink="http://www.w3.org/1999/xlink" width="16px" height="16px" viewBox="0 0 16 16" version="1.1">
<g id="surface1">
<path style=" stroke:none;fill-rule:nonzero;fill:rgb(56.470588%,56.470588%,56.470588%);fill-opacity:1;" d="M 14.25 1.929688 L 1.75 1.929688 C 0.785156 1.929688 0 2.714844 0 3.679688 L 0 12.324219 C 0 13.289062 0.785156 14.074219 1.75 14.074219 L 14.25 14.074219 C 15.214844 14.074219 16 13.289062 16 12.324219 L 16 3.675781 C 16 2.710938 15.214844 1.929688 14.25 1.929688 Z M 14.5 4.585938 L 9.191406 8.898438 C 8.496094 9.460938 7.503906 9.460938 6.808594 8.898438 L 1.5 4.585938 C 1.265625 4.394531 1.226562 4.046875 1.421875 3.808594 C 1.613281 3.574219 1.957031 3.539062 2.195312 3.730469 L 7.5 8.042969 C 7.789062 8.277344 8.199219 8.277344 8.488281 8.042969 L 13.808594 3.726562 C 13.960938 3.582031 14.179688 3.535156 14.378906 3.605469 C 14.574219 3.675781 14.714844 3.847656 14.742188 4.058594 C 14.765625 4.265625 14.675781 4.46875 14.5 4.585938 Z M 14.5 4.585938 "/>
</g>
</svg>
