
<svg xmlns="http://www.w3.org/2000/svg" xmlns:xlink="http://www.w3.org/1999/xlink" width="16px" height="16px" viewBox="0 0 16 16" version="1.1">
<g id="surface1">
<path style=" stroke:none;fill-rule:nonzero;fill:rgb(56.470588%,56.470588%,56.470588%);fill-opacity:1;" d="M 14.480469 7.265625 L 14.480469 2.039062 C 14.480469 1.621094 14.316406 1.21875 14.019531 0.921875 C 13.722656 0.625 13.320312 0.457031 12.898438 0.457031 L 1.578125 0.457031 C 1.160156 0.457031 0.757812 0.625 0.460938 0.921875 C 0.164062 1.21875 0 1.621094 0 2.039062 L 0 9.863281 C 0 10.734375 0.707031 11.441406 1.578125 11.441406 L 6.390625 11.441406 C 6.703125 13.519531 8.324219 15.152344 10.398438 15.480469 C 12.472656 15.808594 14.519531 14.75 15.453125 12.871094 C 16.386719 10.992188 15.992188 8.722656 14.480469 7.265625 Z M 1.351562 2.863281 C 1.203125 2.753906 1.128906 2.570312 1.15625 2.390625 C 1.179688 2.207031 1.304688 2.054688 1.476562 1.992188 C 1.648438 1.929688 1.84375 1.964844 1.980469 2.085938 L 6.792969 6 C 7.054688 6.210938 7.425781 6.210938 7.6875 6 L 12.5 2.085938 C 12.636719 1.960938 12.832031 1.925781 13.003906 1.988281 C 13.179688 2.050781 13.304688 2.203125 13.328125 2.386719 C 13.355469 2.570312 13.277344 2.75 13.128906 2.859375 L 8.316406 6.765625 C 7.6875 7.269531 6.789062 7.269531 6.164062 6.765625 Z M 11.144531 14.792969 C 8.902344 14.792969 7.082031 12.972656 7.082031 10.730469 C 7.082031 8.488281 8.902344 6.667969 11.144531 6.667969 C 13.386719 6.667969 15.207031 8.488281 15.207031 10.730469 C 15.203125 12.972656 13.386719 14.789062 11.144531 14.792969 Z M 12.042969 9.183594 L 12.042969 10.28125 C 12.042969 10.496094 11.867188 10.671875 11.648438 10.671875 L 10.75 10.671875 L 10.75 9.339844 C 10.75 9.207031 10.667969 9.085938 10.546875 9.035156 C 10.421875 8.984375 10.28125 9.015625 10.1875 9.109375 L 8.367188 10.925781 C 8.238281 11.054688 8.238281 11.265625 8.367188 11.390625 L 10.1875 13.210938 C 10.28125 13.304688 10.421875 13.335938 10.546875 13.285156 C 10.667969 13.234375 10.75 13.113281 10.75 12.980469 L 10.75 12.25 L 11.648438 12.25 C 12.734375 12.25 13.609375 11.371094 13.613281 10.289062 L 13.613281 9.183594 Z M 12.042969 9.183594 "/>
</g>
</svg>
