
<svg xmlns="http://www.w3.org/2000/svg" xmlns:xlink="http://www.w3.org/1999/xlink" width="16px" height="16px" viewBox="0 0 16 16" version="1.1">
<g id="surface1">
<path style=" stroke:none;fill-rule:nonzero;fill:rgb(56.470588%,56.470588%,56.470588%);fill-opacity:1;" d="M 14.480469 7.265625 L 14.480469 2.039062 C 14.480469 1.621094 14.316406 1.21875 14.019531 0.921875 C 13.722656 0.625 13.320312 0.457031 12.898438 0.457031 L 1.578125 0.457031 C 1.160156 0.457031 0.757812 0.625 0.460938 0.921875 C 0.164062 1.21875 0 1.621094 0 2.039062 L 0 9.863281 C 0 10.734375 0.707031 11.441406 1.578125 11.441406 L 6.390625 11.441406 C 6.703125 13.519531 8.324219 15.152344 10.398438 15.480469 C 12.472656 15.808594 14.519531 14.75 15.453125 12.871094 C 16.386719 10.992188 15.992188 8.722656 14.480469 7.265625 Z M 1.351562 2.863281 C 1.203125 2.753906 1.128906 2.570312 1.15625 2.390625 C 1.179688 2.207031 1.304688 2.054688 1.476562 1.992188 C 1.648438 1.929688 1.84375 1.964844 1.980469 2.085938 L 6.792969 6 C 7.054688 6.210938 7.425781 6.210938 7.6875 6 L 12.5 2.085938 C 12.636719 1.960938 12.832031 1.925781 13.003906 1.988281 C 13.179688 2.050781 13.304688 2.203125 13.328125 2.386719 C 13.355469 2.570312 13.277344 2.75 13.128906 2.859375 L 8.316406 6.765625 C 7.6875 7.269531 6.789062 7.269531 6.164062 6.765625 Z M 11.144531 14.792969 C 8.902344 14.792969 7.082031 12.972656 7.082031 10.730469 C 7.082031 8.488281 8.902344 6.667969 11.144531 6.667969 C 13.386719 6.667969 15.207031 8.488281 15.207031 10.730469 C 15.203125 12.972656 13.386719 14.789062 11.144531 14.792969 Z M 12.394531 9.511719 L 12.324219 9.511719 L 12.324219 9 C 12.324219 8.308594 11.765625 7.75 11.074219 7.75 C 10.382812 7.75 9.824219 8.308594 9.824219 9 L 9.824219 9.5 L 9.75 9.5 C 9.40625 9.5 9.125 9.78125 9.125 10.125 L 9.125 12.59375 C 9.125 12.941406 9.40625 13.21875 9.75 13.21875 L 12.402344 13.21875 C 12.746094 13.21875 13.027344 12.941406 13.027344 12.59375 L 13.027344 10.136719 C 13.03125 9.96875 12.964844 9.804688 12.847656 9.6875 C 12.730469 9.566406 12.570312 9.5 12.402344 9.5 Z M 10.574219 9 C 10.574219 8.722656 10.800781 8.5 11.074219 8.5 C 11.351562 8.5 11.574219 8.722656 11.574219 9 L 11.574219 9.5 L 10.574219 9.5 Z M 11.300781 11.476562 L 11.300781 12.101562 C 11.300781 12.222656 11.199219 12.324219 11.074219 12.324219 C 10.949219 12.324219 10.851562 12.222656 10.851562 12.101562 L 10.851562 11.480469 C 10.601562 11.375 10.464844 11.109375 10.519531 10.84375 C 10.574219 10.582031 10.804688 10.390625 11.074219 10.390625 C 11.34375 10.390625 11.578125 10.582031 11.628906 10.84375 C 11.683594 11.109375 11.546875 11.375 11.300781 11.480469 Z M 11.300781 11.476562 "/>
</g>
</svg>
