
<svg xmlns="http://www.w3.org/2000/svg" xmlns:xlink="http://www.w3.org/1999/xlink" width="16px" height="16px" viewBox="0 0 16 16" version="1.1">
<g id="surface1">
<path style=" stroke:none;fill-rule:nonzero;fill:rgb(56.470588%,56.470588%,56.470588%);fill-opacity:1;" d="M 4.050781 1.675781 L 0.707031 1.675781 C 0.316406 1.675781 0 1.992188 0 2.382812 L 0 6.269531 C 0 6.660156 0.316406 6.976562 0.707031 6.976562 L 1.78125 6.976562 L 1.78125 13.75 C 1.804688 14.0625 2.0625 14.308594 2.378906 14.308594 C 2.695312 14.308594 2.953125 14.0625 2.976562 13.75 L 2.976562 6.976562 L 4.050781 6.976562 C 4.4375 6.972656 4.75 6.65625 4.75 6.269531 L 4.75 2.382812 C 4.75 1.996094 4.4375 1.679688 4.050781 1.675781 Z M 4 6.210938 L 0.765625 6.210938 L 0.765625 4.359375 L 2 4.359375 L 2 5.25 L 2.765625 5.25 L 2.765625 4.359375 L 4 4.359375 Z M 0.765625 2.441406 L 4 2.441406 L 4 3.59375 L 0.765625 3.59375 Z M 0.765625 2.441406 "/>
<path style=" stroke:none;fill-rule:nonzero;fill:rgb(56.470588%,56.470588%,56.470588%);fill-opacity:1;" d="M 16 2.5 C 15.992188 2.292969 15.910156 2.09375 15.769531 1.941406 C 15.582031 1.742188 15.3125 1.636719 15.039062 1.648438 C 12.898438 1.648438 10.757812 1.648438 8.617188 1.648438 L 5.078125 1.648438 C 5.207031 1.871094 5.273438 2.125 5.273438 2.378906 L 5.273438 3.148438 L 14.410156 3.148438 C 14.582031 3.152344 14.71875 3.289062 14.71875 3.460938 L 14.71875 10.234375 C 14.71875 10.402344 14.582031 10.542969 14.410156 10.542969 L 3.5 10.542969 L 3.5 12 L 6.578125 12 C 6.855469 12 7.078125 12.222656 7.078125 12.5 C 7.078125 12.777344 6.855469 13 6.578125 13 L 5.308594 13 C 5.035156 12.996094 4.792969 13.171875 4.714844 13.433594 C 4.667969 13.613281 4.707031 13.804688 4.820312 13.949219 C 4.933594 14.097656 5.105469 14.183594 5.289062 14.183594 L 11.910156 14.183594 C 12.179688 14.1875 12.421875 14.011719 12.5 13.75 C 12.546875 13.570312 12.507812 13.382812 12.394531 13.234375 C 12.28125 13.089844 12.109375 13 11.925781 13 L 10.640625 13 C 10.363281 13 10.140625 12.777344 10.140625 12.5 C 10.140625 12.222656 10.363281 12 10.640625 12 L 15.046875 12 C 15.167969 12 15.285156 11.988281 15.402344 11.953125 C 15.78125 11.835938 16.027344 11.472656 16 11.074219 L 16 2.574219 C 16 2.546875 16 2.515625 16 2.5 Z M 16 2.5 "/>
</g>
</svg>
