
<svg xmlns="http://www.w3.org/2000/svg" xmlns:xlink="http://www.w3.org/1999/xlink" width="16px" height="16px" viewBox="0 0 16 16" version="1.1">
<g id="surface1">
<path style=" stroke:none;fill-rule:nonzero;fill:rgb(56.470588%,56.470588%,56.470588%);fill-opacity:1;" d="M 9 14 L 9 11.433594 L 12.417969 11.433594 C 13.265625 11.402344 13.9375 10.703125 13.9375 9.855469 C 13.9375 9.003906 13.265625 8.304688 12.417969 8.273438 L 3.582031 8.273438 C 2.734375 8.304688 2.0625 9.003906 2.0625 9.855469 C 2.0625 10.703125 2.734375 11.402344 3.582031 11.433594 L 7 11.433594 L 7 14 L 0 14 L 0 16 L 16 16 L 16 14 Z M 12.375 9.136719 C 12.671875 9.132812 12.9375 9.3125 13.050781 9.582031 C 13.164062 9.855469 13.101562 10.171875 12.894531 10.378906 C 12.6875 10.589844 12.371094 10.652344 12.097656 10.539062 C 11.824219 10.425781 11.648438 10.160156 11.648438 9.863281 C 11.648438 9.460938 11.972656 9.136719 12.375 9.136719 Z M 12.375 9.136719 "/>
<path style=" stroke:none;fill-rule:nonzero;fill:rgb(56.470588%,56.470588%,56.470588%);fill-opacity:1;" d="M 3.582031 3.25 L 12.417969 3.25 C 12.835938 3.25 13.238281 3.085938 13.535156 2.789062 C 13.832031 2.492188 14 2.089844 14 1.671875 C 14 1.25 13.832031 0.847656 13.535156 0.550781 C 13.238281 0.253906 12.835938 0.0898438 12.417969 0.0898438 L 3.582031 0.0898438 C 3.164062 0.0898438 2.761719 0.253906 2.464844 0.550781 C 2.167969 0.847656 2 1.25 2 1.671875 C 2 2.089844 2.167969 2.492188 2.464844 2.789062 C 2.761719 3.085938 3.164062 3.25 3.582031 3.25 Z M 12.375 0.949219 C 12.671875 0.949219 12.9375 1.125 13.050781 1.398438 C 13.164062 1.671875 13.101562 1.984375 12.894531 2.195312 C 12.6875 2.40625 12.371094 2.46875 12.097656 2.355469 C 11.824219 2.242188 11.648438 1.976562 11.648438 1.679688 C 11.648438 1.277344 11.972656 0.953125 12.375 0.949219 Z M 12.375 0.949219 "/>
<path style=" stroke:none;fill-rule:nonzero;fill:rgb(56.470588%,56.470588%,56.470588%);fill-opacity:1;" d="M 3.582031 7.34375 L 12.417969 7.34375 C 12.835938 7.34375 13.238281 7.175781 13.535156 6.878906 C 13.832031 6.585938 14 6.183594 14 5.761719 C 14 4.890625 13.292969 4.179688 12.421875 4.179688 L 3.582031 4.179688 C 2.707031 4.179688 2 4.886719 2 5.761719 C 2 6.183594 2.167969 6.585938 2.464844 6.878906 C 2.761719 7.175781 3.164062 7.34375 3.582031 7.34375 Z M 12.375 5.042969 C 12.671875 5.042969 12.9375 5.21875 13.050781 5.492188 C 13.164062 5.765625 13.101562 6.078125 12.894531 6.289062 C 12.6875 6.496094 12.371094 6.558594 12.097656 6.445312 C 11.824219 6.335938 11.648438 6.066406 11.648438 5.773438 C 11.648438 5.371094 11.972656 5.042969 12.375 5.042969 Z M 12.375 5.042969 "/>
</g>
</svg>
