<!-- Generator: Adobe Illustrator 22.0.1, SVG Export Plug-In . SVG Version: 6.00 Build 0)  -->
<svg xmlns="http://www.w3.org/2000/svg" xmlns:xlink="http://www.w3.org/1999/xlink" width="16px" height="16px" viewBox="0 0 16 16" version="1.1">
<g id="surface1">
<path style=" stroke:none;fill-rule:nonzero;fill:rgb(56.470588%,56.470588%,56.470588%);fill-opacity:1;" d="M 0.375 6.925781 C -0.148438 7.601562 -0.125 8.601562 0.5 9.226562 C 1.175781 9.898438 2.273438 9.898438 2.949219 9.226562 L 5.625 6.550781 C 4 5.5 1.875 5.648438 0.375 6.925781 Z M 0.375 6.925781 "/>
<path style=" stroke:none;fill-rule:nonzero;fill:rgb(56.470588%,56.470588%,56.470588%);fill-opacity:1;" d="M 15.5 6.773438 C 14.824219 6.101562 13.726562 6.101562 13.050781 6.773438 L 10.324219 9.5 C 11.976562 10.523438 14.125 10.398438 15.625 9.074219 C 16.175781 8.398438 16.125 7.398438 15.5 6.773438 Z M 15.5 6.773438 "/>
<path style=" stroke:none;fill-rule:nonzero;fill:rgb(56.470588%,56.470588%,56.470588%);fill-opacity:1;" d="M 10 9.824219 C 9.726562 9.648438 9.476562 9.449219 9.226562 9.226562 C 7.5 7.5 7.5 4.675781 9.226562 2.949219 C 9.898438 2.273438 9.898438 1.175781 9.226562 0.5 C 8.550781 -0.175781 7.449219 -0.175781 6.773438 0.5 L 3.648438 3.648438 L 0.5 6.773438 C 2 5.273438 4.300781 5.074219 6 6.175781 C 6.273438 6.351562 6.523438 6.550781 6.773438 6.773438 C 8.5 8.5 8.5 11.324219 6.773438 13.050781 C 6.101562 13.726562 6.101562 14.824219 6.773438 15.5 C 7.449219 16.175781 8.550781 16.175781 9.226562 15.5 L 15.5 9.226562 C 14 10.726562 11.699219 10.925781 10 9.824219 Z M 10 9.824219 "/>
</g>
</svg>
