
<svg xmlns="http://www.w3.org/2000/svg" xmlns:xlink="http://www.w3.org/1999/xlink" width="16px" height="16px" viewBox="0 0 16 16" version="1.1">
<g id="surface1">
<path style=" stroke:none;fill-rule:nonzero;fill:rgb(56.470588%,56.470588%,56.470588%);fill-opacity:1;" d="M 15.132812 0.984375 L 0.882812 0.984375 C 0.648438 0.980469 0.425781 1.070312 0.261719 1.234375 C 0.09375 1.398438 0 1.621094 0 1.851562 L 0 14.148438 C 0 14.625 0.390625 15.011719 0.867188 15.015625 L 15.128906 15.015625 C 15.609375 15.015625 16 14.628906 16 14.148438 L 16 1.851562 C 16 1.375 15.609375 0.988281 15.132812 0.984375 Z M 15 1.984375 L 15 12.125 L 1 12.125 L 1 1.984375 Z M 15 1.984375 "/>
<path style=" stroke:none;fill-rule:nonzero;fill:rgb(56.470588%,56.470588%,56.470588%);fill-opacity:1;" d="M 2.253906 3.011719 L 3.191406 3.011719 C 3.371094 3.011719 3.515625 3.15625 3.515625 3.335938 L 3.515625 4.273438 C 3.515625 4.449219 3.371094 4.59375 3.191406 4.59375 L 2.253906 4.59375 C 2.078125 4.59375 1.933594 4.449219 1.933594 4.273438 L 1.933594 3.335938 C 1.933594 3.15625 2.078125 3.011719 2.253906 3.011719 Z M 2.253906 3.011719 "/>
<path style=" stroke:none;fill-rule:nonzero;fill:rgb(56.470588%,56.470588%,56.470588%);fill-opacity:1;" d="M 2.253906 5.207031 L 3.191406 5.207031 C 3.371094 5.207031 3.515625 5.351562 3.515625 5.53125 L 3.515625 6.46875 C 3.515625 6.644531 3.371094 6.789062 3.191406 6.789062 L 2.253906 6.789062 C 2.078125 6.789062 1.933594 6.644531 1.933594 6.46875 L 1.933594 5.53125 C 1.933594 5.351562 2.078125 5.207031 2.253906 5.207031 Z M 2.253906 5.207031 "/>
<path style=" stroke:none;fill-rule:nonzero;fill:rgb(56.470588%,56.470588%,56.470588%);fill-opacity:1;" d="M 2.253906 7.402344 L 3.191406 7.402344 C 3.371094 7.402344 3.515625 7.546875 3.515625 7.726562 L 3.515625 8.664062 C 3.515625 8.839844 3.371094 8.984375 3.191406 8.984375 L 2.253906 8.984375 C 2.078125 8.984375 1.933594 8.839844 1.933594 8.664062 L 1.933594 7.726562 C 1.933594 7.546875 2.078125 7.402344 2.253906 7.402344 Z M 2.253906 7.402344 "/>
<path style=" stroke:none;fill-rule:nonzero;fill:rgb(56.470588%,56.470588%,56.470588%);fill-opacity:1;" d="M 2.253906 9.59375 L 3.191406 9.59375 C 3.371094 9.59375 3.515625 9.738281 3.515625 9.917969 L 3.515625 10.855469 C 3.515625 11.03125 3.371094 11.175781 3.191406 11.175781 L 2.253906 11.175781 C 2.078125 11.175781 1.933594 11.03125 1.933594 10.855469 L 1.933594 9.917969 C 1.933594 9.738281 2.078125 9.59375 2.253906 9.59375 Z M 2.253906 9.59375 "/>
</g>
</svg>
