
<svg xmlns="http://www.w3.org/2000/svg" xmlns:xlink="http://www.w3.org/1999/xlink" width="16px" height="16px" viewBox="0 0 16 16" version="1.1">
<g id="surface1">
<path style=" stroke:none;fill-rule:nonzero;fill:rgb(56.470588%,56.470588%,56.470588%);fill-opacity:1;" d="M 15.039062 8.039062 C 14.835938 8.039062 14.640625 7.976562 14.476562 7.859375 L 8.476562 3.539062 C 8.195312 3.335938 7.820312 3.335938 7.539062 3.539062 L 1.539062 7.859375 C 1.300781 8.03125 1 8.089844 0.71875 8.015625 C 0.4375 7.9375 0.203125 7.738281 0.0859375 7.472656 C -0.101562 7.042969 0.0429688 6.539062 0.425781 6.273438 L 7.25 1.367188 C 7.699219 1.042969 8.300781 1.042969 8.75 1.367188 L 15.5625 6.265625 C 15.972656 6.554688 16.109375 7.101562 15.878906 7.546875 C 15.707031 7.851562 15.386719 8.039062 15.039062 8.039062 Z M 15.039062 8.039062 "/>
<path style=" stroke:none;fill-rule:nonzero;fill:rgb(56.470588%,56.470588%,56.470588%);fill-opacity:1;" d="M 12.515625 14.875 L 3.222656 14.875 C 2.96875 14.875 2.722656 14.773438 2.542969 14.59375 C 2.363281 14.414062 2.261719 14.171875 2.261719 13.917969 L 2.261719 8.953125 C 2.257812 8.488281 2.582031 8.078125 3.039062 7.972656 C 3.320312 7.917969 3.613281 7.992188 3.839844 8.171875 C 4.0625 8.355469 4.191406 8.628906 4.191406 8.921875 L 4.191406 12.140625 C 4.191406 12.355469 4.277344 12.5625 4.429688 12.710938 C 4.582031 12.863281 4.785156 12.949219 5 12.949219 L 10.75 12.949219 C 11.195312 12.949219 11.554688 12.585938 11.554688 12.140625 L 11.554688 8.953125 C 11.550781 8.488281 11.871094 8.078125 12.328125 7.972656 C 12.613281 7.914062 12.90625 7.988281 13.128906 8.171875 C 13.355469 8.355469 13.484375 8.628906 13.484375 8.921875 L 13.484375 13.921875 C 13.484375 14.175781 13.382812 14.421875 13.199219 14.601562 C 13.015625 14.777344 12.769531 14.878906 12.515625 14.875 Z M 12.515625 14.875 "/>
</g>
</svg>
