
<svg xmlns="http://www.w3.org/2000/svg" xmlns:xlink="http://www.w3.org/1999/xlink" width="96px" height="96px" viewBox="0 0 96 96" version="1.1">
<g id="surface1">
<path style=" stroke:none;fill-rule:nonzero;fill:rgb(36.078431%,41.960784%,75.294118%);fill-opacity:1;" d="M 8.085938 0 L 87.914062 0 C 92.378906 0 96 3.621094 96 8.085938 L 96 87.914062 C 96 92.378906 92.378906 96 87.914062 96 L 8.085938 96 C 3.621094 96 0 92.378906 0 87.914062 L 0 8.085938 C 0 3.621094 3.621094 0 8.085938 0 Z M 8.085938 0 "/>
<path style=" stroke:none;fill-rule:nonzero;fill:rgb(100%,100%,100%);fill-opacity:1;" d="M 52.695312 48 L 63.824219 36.871094 C 64.722656 35.964844 64.722656 34.507812 63.824219 33.601562 L 50.730469 20.503906 C 50.066406 19.847656 49.070312 19.652344 48.207031 20.007812 C 47.34375 20.367188 46.777344 21.207031 46.769531 22.140625 L 46.769531 42.074219 L 35.578125 30.886719 C 34.675781 29.980469 33.214844 29.980469 32.308594 30.886719 C 31.40625 31.789062 31.40625 33.253906 32.308594 34.15625 L 46.15625 48 L 32.175781 61.964844 C 31.386719 62.886719 31.4375 64.257812 32.292969 65.117188 C 33.148438 65.976562 34.519531 66.035156 35.445312 65.25 L 46.769531 54 L 46.769531 73.859375 C 46.785156 74.8125 47.378906 75.65625 48.269531 75.988281 C 48.550781 76.109375 48.851562 76.167969 49.15625 76.171875 C 49.765625 76.164062 50.351562 75.925781 50.789062 75.496094 L 63.886719 62.398438 C 64.78125 61.492188 64.78125 60.035156 63.886719 59.128906 Z M 51.40625 27.734375 L 58.90625 35.234375 L 51.40625 42.734375 Z M 51.40625 68.234375 L 51.40625 53.234375 L 58.90625 60.734375 Z M 51.40625 68.234375 "/>
</g>
</svg>
