
<svg xmlns="http://www.w3.org/2000/svg" xmlns:xlink="http://www.w3.org/1999/xlink" width="96px" height="96px" viewBox="0 0 96 96" version="1.1">
<defs>
<linearGradient id="linear0" gradientUnits="userSpaceOnUse" x1="17.85" y1="17.85" x2="46.15" y2="46.15" gradientTransform="matrix(1.5,0,0,1.5,0,0)">
<stop offset="0" style="stop-color:rgb(25.490196%,74.117647%,83.137255%);stop-opacity:1;"/>
<stop offset="1" style="stop-color:rgb(50.980392%,32.54902%,83.921569%);stop-opacity:1;"/>
</linearGradient>
<clipPath id="clip1">
  <path d="M 8.085938 0 L 87.914062 0 C 92.378906 0 96 3.621094 96 8.085938 L 96 87.914062 C 96 92.378906 92.378906 96 87.914062 96 L 8.085938 96 C 3.621094 96 0 92.378906 0 87.914062 L 0 8.085938 C 0 3.621094 3.621094 0 8.085938 0 Z M 8.085938 0 "/>
</clipPath>
<filter id="alpha" filterUnits="objectBoundingBox" x="0%" y="0%" width="100%" height="100%">
  <feColorMatrix type="matrix" in="SourceGraphic" values="0 0 0 0 1 0 0 0 0 1 0 0 0 0 1 0 0 0 1 0"/>
</filter>
<mask id="mask0">
  <g filter="url(#alpha)">
<rect x="0" y="0" width="96" height="96" style="fill:rgb(0%,0%,0%);fill-opacity:0.701961;stroke:none;"/>
  </g>
</mask>
<clipPath id="clip2">
  <rect x="0" y="0" width="96" height="96"/>
</clipPath>
<g id="surface5" clip-path="url(#clip2)">
<path style=" stroke:none;fill-rule:nonzero;fill:rgb(92.54902%,25.098039%,47.843137%);fill-opacity:1;" d="M 103.921875 -6.179688 C 103.183594 -6.355469 102.40625 -6.234375 101.761719 -5.835938 C 99.851562 -4.699219 97.425781 -4.921875 95.761719 -6.390625 C 94.085938 -7.8125 93.445312 -10.109375 94.140625 -12.195312 C 94.773438 -14.195312 93.714844 -16.339844 91.738281 -17.054688 C 90.808594 -17.375 89.789062 -17.308594 88.90625 -16.875 C 87.945312 -16.359375 87.191406 -15.527344 86.773438 -14.519531 C 86.210938 -13.234375 85.226562 -12.175781 83.984375 -11.519531 C 83.480469 -11.261719 82.929688 -11.101562 82.363281 -11.054688 C 80.347656 -11.023438 78.460938 -12.046875 77.386719 -13.753906 C 76.574219 -15.546875 74.554688 -16.453125 72.675781 -15.871094 L 72.421875 -15.871094 L 71.746094 -15.523438 L 71.488281 -15.285156 C 69.988281 -14.183594 69.519531 -12.144531 70.394531 -10.5 C 71.433594 -8.601562 71.199219 -6.261719 69.808594 -4.605469 C 69.335938 -4.035156 68.75 -3.570312 68.085938 -3.238281 C 66.808594 -2.625 65.34375 -2.515625 63.988281 -2.941406 C 62.992188 -3.230469 61.925781 -3.136719 60.988281 -2.683594 C 60.121094 -2.261719 59.453125 -1.511719 59.128906 -0.601562 C 58.453125 1.394531 59.511719 3.566406 61.5 4.261719 C 63.496094 4.914062 64.929688 6.671875 65.160156 8.761719 C 65.375 10.9375 64.230469 13.023438 62.28125 14.011719 C 60.566406 14.839844 59.703125 16.789062 60.238281 18.613281 L 60.796875 19.710938 L 61.246094 20.144531 C 62.375 21.296875 64.109375 21.601562 65.566406 20.910156 C 67.449219 19.808594 69.824219 20.007812 71.5 21.402344 C 73.179688 22.796875 73.804688 25.097656 73.066406 27.148438 C 72.496094 29.132812 73.546875 31.214844 75.480469 31.933594 C 76.4375 32.253906 77.484375 32.183594 78.390625 31.738281 C 79.253906 31.289062 79.929688 30.546875 80.296875 29.640625 C 80.785156 28.253906 81.765625 27.09375 83.054688 26.386719 C 85.695312 25.105469 88.871094 26.191406 90.179688 28.816406 C 91.023438 30.453125 92.902344 31.277344 94.679688 30.78125 L 95.535156 30.359375 C 95.65625 30.164062 95.789062 29.984375 95.925781 29.804688 C 96.515625 29.140625 97.042969 28.421875 97.5 27.660156 C 97.648438 26.800781 97.5 25.917969 97.078125 25.15625 C 96.363281 23.351562 96.566406 21.308594 97.621094 19.679688 C 98.007812 19.132812 98.523438 18.691406 99.121094 18.390625 C 100.382812 17.796875 101.808594 17.640625 103.171875 17.941406 C 104.21875 18.207031 105.328125 18.101562 106.304688 17.640625 C 107.179688 17.210938 107.84375 16.449219 108.148438 15.523438 C 108.824219 13.445312 107.710938 11.210938 105.644531 10.5 C 104.070312 9.777344 102.867188 8.4375 102.316406 6.796875 C 101.855469 4.617188 102.839844 2.386719 104.761719 1.261719 C 106.625 0.464844 107.621094 -1.582031 107.101562 -3.539062 L 106.679688 -4.363281 L 106.125 -4.769531 C 105.4375 -5.3125 104.699219 -5.785156 103.921875 -6.179688 Z M 88.003906 16.15625 C 83.222656 18.488281 77.453125 16.585938 75 11.863281 C 73.246094 8.746094 73.347656 4.917969 75.265625 1.898438 C 77.179688 -1.125 80.601562 -2.847656 84.167969 -2.59375 C 87.734375 -2.335938 90.875 -0.144531 92.339844 3.121094 C 94.6875 7.921875 92.757812 13.714844 88.003906 16.15625 Z M 88.003906 16.15625 "/>
<path style=" stroke:none;fill-rule:nonzero;fill:rgb(100%,100%,100%);fill-opacity:1;" d="M 31.738281 73.5 C 31.011719 73.3125 30.234375 73.429688 29.59375 73.828125 C 27.6875 74.96875 25.261719 74.742188 23.59375 73.273438 C 21.910156 71.871094 21.25 69.585938 21.929688 67.5 C 22.539062 65.5 21.46875 63.371094 19.5 62.671875 C 18.570312 62.335938 17.542969 62.402344 16.664062 62.851562 C 15.707031 63.359375 14.960938 64.1875 14.550781 65.191406 C 13.972656 66.472656 12.988281 67.527344 11.746094 68.191406 C 11.238281 68.445312 10.691406 68.601562 10.125 68.65625 C 8.109375 68.679688 6.226562 67.648438 5.160156 65.941406 C 4.359375 64.144531 2.347656 63.222656 0.464844 63.796875 L 0.210938 63.796875 L -0.480469 64.140625 L -0.71875 64.5 C -2.195312 65.601562 -2.640625 67.617188 -1.769531 69.238281 C -0.800781 71.105469 -1.03125 73.367188 -2.355469 75 C -2.832031 75.609375 -3.421875 76.121094 -4.09375 76.5 C -5.371094 77.105469 -6.828125 77.207031 -8.175781 76.785156 C -9.171875 76.5 -10.238281 76.589844 -11.175781 77.039062 C -12.046875 77.460938 -12.71875 78.203125 -13.050781 79.109375 C -13.382812 80.078125 -13.316406 81.136719 -12.867188 82.054688 C -12.417969 82.972656 -11.617188 83.671875 -10.648438 84 C -8.644531 84.640625 -7.210938 86.40625 -6.988281 88.5 C -6.757812 90.675781 -7.898438 92.769531 -9.855469 93.75 C -11.574219 94.582031 -12.4375 96.539062 -11.894531 98.371094 L -11.355469 99.449219 L -10.890625 99.886719 C -9.765625 101.027344 -8.039062 101.339844 -6.585938 100.664062 C -4.683594 99.546875 -2.285156 99.742188 -0.585938 101.144531 C 1.066406 102.558594 1.664062 104.851562 0.914062 106.890625 C 0.347656 108.871094 1.398438 110.957031 3.328125 111.675781 C 4.285156 112.003906 5.335938 111.933594 6.238281 111.480469 C 7.109375 111.039062 7.785156 110.300781 8.144531 109.394531 C 8.632812 108.003906 9.613281 106.839844 10.90625 106.125 C 13.542969 104.847656 16.722656 105.929688 18.03125 108.554688 C 18.875 110.195312 20.753906 111.015625 22.53125 110.519531 L 23.386719 110.101562 L 23.773438 109.546875 C 24.308594 108.867188 24.769531 108.132812 25.140625 107.355469 C 25.304688 106.5 25.160156 105.609375 24.734375 104.851562 C 24.015625 103.046875 24.210938 101.007812 25.261719 99.375 C 25.648438 98.832031 26.164062 98.390625 26.761719 98.085938 C 28.027344 97.5 29.449219 97.347656 30.808594 97.648438 C 31.859375 97.914062 32.96875 97.804688 33.945312 97.335938 C 34.898438 96.960938 35.648438 96.195312 36 95.234375 C 36.636719 93.171875 35.519531 90.976562 33.480469 90.269531 C 31.914062 89.550781 30.710938 88.214844 30.164062 86.578125 C 29.675781 84.394531 30.652344 82.140625 32.578125 81 C 34.441406 80.199219 35.441406 78.160156 34.933594 76.199219 L 34.5 75.34375 L 33.960938 75 C 33.273438 74.425781 32.53125 73.921875 31.738281 73.5 Z M 15.839844 95.863281 C 12.324219 97.632812 8.089844 97.105469 5.117188 94.53125 C 2.140625 91.957031 1.011719 87.84375 2.253906 84.109375 C 3.496094 80.375 6.867188 77.761719 10.792969 77.484375 C 14.714844 77.207031 18.421875 79.324219 20.175781 82.84375 C 22.511719 87.640625 20.585938 93.425781 15.839844 95.863281 Z M 15.839844 95.863281 "/>
</g>
<mask id="mask1">
  <g filter="url(#alpha)">
<rect x="0" y="0" width="96" height="96" style="fill:rgb(0%,0%,0%);fill-opacity:0.25098;stroke:none;"/>
  </g>
</mask>
<clipPath id="clip3">
  <rect x="0" y="0" width="96" height="96"/>
</clipPath>
<g id="surface8" clip-path="url(#clip3)">
<path style=" stroke:none;fill-rule:nonzero;fill:rgb(100%,100%,100%);fill-opacity:1;" d="M 100.589844 71.054688 C 99.988281 70.910156 99.351562 71.007812 98.820312 71.324219 C 97.25 72.28125 95.242188 72.097656 93.871094 70.875 C 92.492188 69.714844 91.964844 67.828125 92.535156 66.121094 C 93.054688 64.476562 92.179688 62.71875 90.554688 62.144531 C 89.792969 61.875 88.957031 61.921875 88.230469 62.28125 C 87.445312 62.707031 86.832031 63.390625 86.488281 64.214844 C 86.023438 65.257812 85.21875 66.109375 84.210938 66.644531 C 83.792969 66.855469 83.339844 66.980469 82.875 67.019531 C 81.21875 67.046875 79.671875 66.203125 78.796875 64.800781 C 78.136719 63.359375 76.519531 62.625 75 63.074219 L 74.789062 63.074219 L 74.21875 63.359375 L 74.023438 63.554688 C 72.738281 64.429688 72.335938 66.144531 73.09375 67.5 C 73.671875 68.539062 73.796875 69.773438 73.4375 70.90625 C 73.082031 72.039062 72.273438 72.980469 71.203125 73.5 C 70.160156 74.011719 68.953125 74.097656 67.84375 73.738281 C 67.027344 73.511719 66.152344 73.585938 65.386719 73.949219 C 64.671875 74.3125 64.132812 74.941406 63.886719 75.703125 C 63.328125 77.34375 64.210938 79.125 65.851562 79.679688 C 67.53125 80.222656 68.71875 81.722656 68.859375 83.484375 C 69 85.246094 68.066406 86.917969 66.496094 87.71875 C 65.078125 88.394531 64.359375 89.996094 64.800781 91.5 L 65.25 92.398438 L 65.625 92.746094 C 66.542969 93.683594 67.957031 93.941406 69.148438 93.390625 C 70.699219 92.449219 72.671875 92.589844 74.070312 93.742188 C 75.472656 94.894531 75.988281 96.804688 75.359375 98.503906 C 74.886719 100.128906 75.753906 101.839844 77.339844 102.421875 C 78.125 102.699219 78.988281 102.636719 79.726562 102.253906 C 80.414062 101.882812 80.945312 101.277344 81.226562 100.546875 C 81.621094 99.367188 82.453125 98.382812 83.550781 97.800781 C 84.019531 97.566406 84.527344 97.425781 85.050781 97.378906 C 86.859375 97.1875 88.597656 98.144531 89.398438 99.78125 C 90.097656 101.152344 91.671875 101.832031 93.148438 101.398438 L 93.839844 101.054688 L 94.171875 100.605469 C 94.59375 100.035156 94.96875 99.433594 95.296875 98.804688 C 95.410156 98.101562 95.289062 97.378906 94.949219 96.75 C 94.355469 95.269531 94.515625 93.589844 95.386719 92.25 C 95.714844 91.804688 96.148438 91.445312 96.644531 91.199219 C 97.683594 90.714844 98.855469 90.585938 99.976562 90.839844 C 100.832031 91.054688 101.742188 90.964844 102.539062 90.585938 C 103.253906 90.238281 103.796875 89.617188 104.039062 88.859375 C 104.570312 87.171875 103.667969 85.371094 102 84.78125 C 100.71875 84.203125 99.734375 83.113281 99.285156 81.78125 C 98.871094 79.972656 99.679688 78.105469 101.28125 77.175781 C 102.800781 76.519531 103.617188 74.847656 103.199219 73.246094 L 102.855469 72.570312 L 102.40625 72.238281 C 101.839844 71.785156 101.234375 71.386719 100.589844 71.054688 Z M 87.539062 89.371094 C 84.652344 90.824219 81.175781 90.394531 78.730469 88.28125 C 76.285156 86.167969 75.359375 82.789062 76.378906 79.722656 C 77.398438 76.65625 80.167969 74.507812 83.390625 74.28125 C 86.613281 74.054688 89.65625 75.796875 91.09375 78.691406 C 93.015625 82.625 91.433594 87.371094 87.539062 89.371094 Z M 87.539062 89.371094 "/>
</g>
</defs>
<g id="surface1">
<path style=" stroke:none;fill-rule:nonzero;fill:rgb(49.411765%,34.117647%,76.862745%);fill-opacity:1;" d="M 8.085938 0 L 87.914062 0 C 92.378906 0 96 3.621094 96 8.085938 L 96 87.914062 C 96 92.378906 92.378906 96 87.914062 96 L 8.085938 96 C 3.621094 96 0 92.378906 0 87.914062 L 0 8.085938 C 0 3.621094 3.621094 0 8.085938 0 Z M 8.085938 0 "/>
<path style=" stroke:none;fill-rule:nonzero;fill:url(#linear0);" d="M 77.761719 46.949219 C 77.324219 46.027344 76.796875 45.15625 76.183594 44.339844 C 75.515625 43.769531 74.644531 43.492188 73.769531 43.574219 C 71.175781 43.765625 68.75 42.265625 67.769531 39.855469 C 66.769531 37.515625 67.292969 34.800781 69.089844 33 C 70.816406 31.25 70.816406 28.4375 69.089844 26.683594 C 68.300781 25.875 67.222656 25.414062 66.089844 25.394531 C 64.824219 25.425781 63.613281 25.902344 62.671875 26.746094 C 61.394531 27.773438 59.808594 28.347656 58.171875 28.378906 C 57.507812 28.378906 56.851562 28.257812 56.234375 28.019531 C 54.128906 26.984375 52.714844 24.925781 52.5 22.589844 C 52.570312 20.316406 50.9375 18.347656 48.691406 18 L 48.40625 17.910156 L 47.519531 17.910156 C 47.394531 17.960938 47.261719 18 47.128906 18.03125 C 45.027344 18.425781 43.523438 20.285156 43.574219 22.425781 C 43.671875 24.941406 42.210938 27.257812 39.898438 28.261719 C 37.542969 29.277344 34.800781 28.738281 33 26.910156 C 32.101562 26.097656 30.941406 25.636719 29.730469 25.621094 C 28.605469 25.628906 27.53125 26.074219 26.730469 26.863281 C 25.015625 28.613281 25.015625 31.414062 26.730469 33.164062 C 28.507812 34.875 29.097656 37.484375 28.230469 39.796875 C 27.335938 42.179688 25.0625 43.761719 22.515625 43.769531 C 20.488281 43.90625 18.945312 44.609375 18.015625 47.519531 L 18.015625 48.929688 C 18.105469 49.15625 18.195312 49.394531 18.269531 49.621094 C 18.859375 51.382812 20.492188 52.582031 22.351562 52.621094 C 24.96875 52.304688 27.488281 53.738281 28.554688 56.152344 C 29.621094 58.570312 28.984375 61.394531 26.984375 63.121094 C 25.355469 64.875 25.355469 67.589844 26.984375 69.34375 C 27.808594 70.179688 28.933594 70.648438 30.105469 70.648438 C 31.179688 70.589844 32.203125 70.160156 33 69.433594 C 34.210938 68.257812 35.8125 67.566406 37.5 67.484375 C 40.921875 67.5 43.679688 70.289062 43.664062 73.710938 C 43.816406 75.691406 44.519531 77.203125 47.398438 78.210938 L 48.511719 78.210938 L 49.199219 77.835938 C 50.109375 77.402344 50.96875 76.875 51.765625 76.261719 C 52.371094 75.453125 52.675781 74.460938 52.636719 73.453125 C 52.8125 71.199219 54.078125 69.171875 56.023438 68.023438 C 56.78125 67.605469 57.636719 67.390625 58.5 67.410156 C 60.140625 67.445312 61.726562 68.023438 63 69.058594 C 63.953125 69.882812 65.164062 70.34375 66.421875 70.363281 C 67.546875 70.375 68.628906 69.925781 69.421875 69.121094 C 71.171875 67.320312 71.171875 64.453125 69.421875 62.65625 C 68.167969 61.082031 67.625 59.0625 67.921875 57.074219 C 68.566406 54.550781 70.765625 52.734375 73.363281 52.574219 C 75.714844 52.714844 77.8125 51.113281 78.300781 48.808594 L 78.300781 47.714844 Z M 48 59.308594 C 41.753906 59.308594 36.691406 54.246094 36.691406 48 C 36.691406 41.753906 41.753906 36.691406 48 36.691406 C 54.246094 36.691406 59.308594 41.753906 59.308594 48 C 59.261719 54.226562 54.226562 59.261719 48 59.308594 Z M 48 59.308594 "/>
<g clip-path="url(#clip1)" clip-rule="nonzero">
<use xlink:href="#surface5" mask="url(#mask0)"/>
<use xlink:href="#surface8" mask="url(#mask1)"/>
</g>
<path style=" stroke:none;fill-rule:nonzero;fill:rgb(100%,100%,100%);fill-opacity:1;" d="M 77.761719 46.949219 C 77.324219 46.027344 76.796875 45.15625 76.183594 44.339844 C 75.515625 43.769531 74.644531 43.492188 73.769531 43.574219 C 71.175781 43.765625 68.75 42.265625 67.769531 39.855469 C 66.769531 37.515625 67.292969 34.800781 69.089844 33 C 70.816406 31.25 70.816406 28.4375 69.089844 26.683594 C 68.300781 25.875 67.222656 25.414062 66.089844 25.394531 C 64.824219 25.425781 63.613281 25.902344 62.671875 26.746094 C 61.394531 27.773438 59.808594 28.347656 58.171875 28.378906 C 57.507812 28.378906 56.851562 28.257812 56.234375 28.019531 C 54.128906 26.984375 52.714844 24.925781 52.5 22.589844 C 52.570312 20.316406 50.9375 18.347656 48.691406 18 L 48.40625 17.910156 L 47.519531 17.910156 C 47.394531 17.960938 47.261719 18 47.128906 18.03125 C 45.027344 18.425781 43.523438 20.285156 43.574219 22.425781 C 43.671875 24.941406 42.210938 27.257812 39.898438 28.261719 C 37.542969 29.277344 34.800781 28.738281 33 26.910156 C 32.101562 26.097656 30.941406 25.636719 29.730469 25.621094 C 28.605469 25.628906 27.53125 26.074219 26.730469 26.863281 C 25.015625 28.613281 25.015625 31.414062 26.730469 33.164062 C 28.507812 34.875 29.097656 37.484375 28.230469 39.796875 C 27.335938 42.179688 25.0625 43.761719 22.515625 43.769531 C 20.488281 43.90625 18.945312 44.609375 18.015625 47.519531 L 18.015625 48.929688 C 18.105469 49.15625 18.195312 49.394531 18.269531 49.621094 C 18.859375 51.382812 20.492188 52.582031 22.351562 52.621094 C 24.96875 52.304688 27.488281 53.738281 28.554688 56.152344 C 29.621094 58.570312 28.984375 61.394531 26.984375 63.121094 C 25.355469 64.875 25.355469 67.589844 26.984375 69.34375 C 27.808594 70.179688 28.933594 70.648438 30.105469 70.648438 C 31.179688 70.589844 32.203125 70.160156 33 69.433594 C 34.210938 68.257812 35.8125 67.566406 37.5 67.484375 C 40.921875 67.5 43.679688 70.289062 43.664062 73.710938 C 43.816406 75.691406 44.519531 77.203125 47.398438 78.210938 L 48.511719 78.210938 L 49.199219 77.835938 C 50.109375 77.402344 50.96875 76.875 51.765625 76.261719 C 52.371094 75.453125 52.675781 74.460938 52.636719 73.453125 C 52.8125 71.199219 54.078125 69.171875 56.023438 68.023438 C 56.78125 67.605469 57.636719 67.390625 58.5 67.410156 C 60.140625 67.445312 61.726562 68.023438 63 69.058594 C 63.953125 69.882812 65.164062 70.34375 66.421875 70.363281 C 67.546875 70.375 68.628906 69.925781 69.421875 69.121094 C 71.171875 67.320312 71.171875 64.453125 69.421875 62.65625 C 68.167969 61.082031 67.625 59.0625 67.921875 57.074219 C 68.566406 54.550781 70.765625 52.734375 73.363281 52.574219 C 75.714844 52.714844 77.8125 51.113281 78.300781 48.808594 L 78.300781 47.714844 Z M 48 59.308594 C 41.753906 59.308594 36.691406 54.246094 36.691406 48 C 36.691406 41.753906 41.753906 36.691406 48 36.691406 C 54.246094 36.691406 59.308594 41.753906 59.308594 48 C 59.261719 54.226562 54.226562 59.261719 48 59.308594 Z M 48 59.308594 "/>
</g>
</svg>
