
<svg xmlns="http://www.w3.org/2000/svg" xmlns:xlink="http://www.w3.org/1999/xlink" width="96px" height="96px" viewBox="0 0 96 96" version="1.1">
<defs>
<clipPath id="clip1">
  <path d="M 46 13 L 49 13 L 49 23 L 46 23 Z M 46 13 "/>
</clipPath>
<clipPath id="clip2">
  <path d="M 82.90625 48 C 82.90625 67.277344 67.277344 82.90625 48 82.90625 C 28.722656 82.90625 13.09375 67.277344 13.09375 48 C 13.09375 28.722656 28.722656 13.09375 48 13.09375 C 67.277344 13.09375 82.90625 28.722656 82.90625 48 Z M 82.90625 48 "/>
</clipPath>
<clipPath id="clip3">
  <path d="M 46 73 L 49 73 L 49 83 L 46 83 Z M 46 73 "/>
</clipPath>
<clipPath id="clip4">
  <path d="M 82.90625 48 C 82.90625 67.277344 67.277344 82.90625 48 82.90625 C 28.722656 82.90625 13.09375 67.277344 13.09375 48 C 13.09375 28.722656 28.722656 13.09375 48 13.09375 C 67.277344 13.09375 82.90625 28.722656 82.90625 48 Z M 82.90625 48 "/>
</clipPath>
<clipPath id="clip5">
  <path d="M 73 47 L 83 47 L 83 50 L 73 50 Z M 73 47 "/>
</clipPath>
<clipPath id="clip6">
  <path d="M 82.90625 48 C 82.90625 67.277344 67.277344 82.90625 48 82.90625 C 28.722656 82.90625 13.09375 67.277344 13.09375 48 C 13.09375 28.722656 28.722656 13.09375 48 13.09375 C 67.277344 13.09375 82.90625 28.722656 82.90625 48 Z M 82.90625 48 "/>
</clipPath>
<clipPath id="clip7">
  <path d="M 13 47 L 22 47 L 22 49 L 13 49 Z M 13 47 "/>
</clipPath>
<clipPath id="clip8">
  <path d="M 82.90625 48 C 82.90625 67.277344 67.277344 82.90625 48 82.90625 C 28.722656 82.90625 13.09375 67.277344 13.09375 48 C 13.09375 28.722656 28.722656 13.09375 48 13.09375 C 67.277344 13.09375 82.90625 28.722656 82.90625 48 Z M 82.90625 48 "/>
</clipPath>
<clipPath id="clip9">
  <path d="M 72 62 L 83 62 L 83 74 L 72 74 Z M 72 62 "/>
</clipPath>
<clipPath id="clip10">
  <path d="M 82.90625 48 C 82.90625 67.277344 67.277344 82.90625 48 82.90625 C 28.722656 82.90625 13.09375 67.277344 13.09375 48 C 13.09375 28.722656 28.722656 13.09375 48 13.09375 C 67.277344 13.09375 82.90625 28.722656 82.90625 48 Z M 82.90625 48 "/>
</clipPath>
<clipPath id="clip11">
  <path d="M 13 22 L 23 22 L 23 34 L 13 34 Z M 13 22 "/>
</clipPath>
<clipPath id="clip12">
  <path d="M 82.90625 48 C 82.90625 67.277344 67.277344 82.90625 48 82.90625 C 28.722656 82.90625 13.09375 67.277344 13.09375 48 C 13.09375 28.722656 28.722656 13.09375 48 13.09375 C 67.277344 13.09375 82.90625 28.722656 82.90625 48 Z M 82.90625 48 "/>
</clipPath>
<clipPath id="clip13">
  <path d="M 60 73 L 71 73 L 71 83 L 60 83 Z M 60 73 "/>
</clipPath>
<clipPath id="clip14">
  <path d="M 82.90625 48 C 82.90625 67.277344 67.277344 82.90625 48 82.90625 C 28.722656 82.90625 13.09375 67.277344 13.09375 48 C 13.09375 28.722656 28.722656 13.09375 48 13.09375 C 67.277344 13.09375 82.90625 28.722656 82.90625 48 Z M 82.90625 48 "/>
</clipPath>
<clipPath id="clip15">
  <path d="M 24 13 L 35 13 L 35 23 L 24 23 Z M 24 13 "/>
</clipPath>
<clipPath id="clip16">
  <path d="M 82.90625 48 C 82.90625 67.277344 67.277344 82.90625 48 82.90625 C 28.722656 82.90625 13.09375 67.277344 13.09375 48 C 13.09375 28.722656 28.722656 13.09375 48 13.09375 C 67.277344 13.09375 82.90625 28.722656 82.90625 48 Z M 82.90625 48 "/>
</clipPath>
<clipPath id="clip17">
  <path d="M 13 62 L 23 62 L 23 74 L 13 74 Z M 13 62 "/>
</clipPath>
<clipPath id="clip18">
  <path d="M 82.90625 48 C 82.90625 67.277344 67.277344 82.90625 48 82.90625 C 28.722656 82.90625 13.09375 67.277344 13.09375 48 C 13.09375 28.722656 28.722656 13.09375 48 13.09375 C 67.277344 13.09375 82.90625 28.722656 82.90625 48 Z M 82.90625 48 "/>
</clipPath>
<clipPath id="clip19">
  <path d="M 72 22 L 83 22 L 83 34 L 72 34 Z M 72 22 "/>
</clipPath>
<clipPath id="clip20">
  <path d="M 82.90625 48 C 82.90625 67.277344 67.277344 82.90625 48 82.90625 C 28.722656 82.90625 13.09375 67.277344 13.09375 48 C 13.09375 28.722656 28.722656 13.09375 48 13.09375 C 67.277344 13.09375 82.90625 28.722656 82.90625 48 Z M 82.90625 48 "/>
</clipPath>
<clipPath id="clip21">
  <path d="M 24 73 L 35 73 L 35 83 L 24 83 Z M 24 73 "/>
</clipPath>
<clipPath id="clip22">
  <path d="M 82.90625 48 C 82.90625 67.277344 67.277344 82.90625 48 82.90625 C 28.722656 82.90625 13.09375 67.277344 13.09375 48 C 13.09375 28.722656 28.722656 13.09375 48 13.09375 C 67.277344 13.09375 82.90625 28.722656 82.90625 48 Z M 82.90625 48 "/>
</clipPath>
<clipPath id="clip23">
  <path d="M 60 13 L 71 13 L 71 23 L 60 23 Z M 60 13 "/>
</clipPath>
<clipPath id="clip24">
  <path d="M 82.90625 48 C 82.90625 67.277344 67.277344 82.90625 48 82.90625 C 28.722656 82.90625 13.09375 67.277344 13.09375 48 C 13.09375 28.722656 28.722656 13.09375 48 13.09375 C 67.277344 13.09375 82.90625 28.722656 82.90625 48 Z M 82.90625 48 "/>
</clipPath>
</defs>
<g id="surface1">
<path style=" stroke:none;fill-rule:nonzero;fill:rgb(91.764706%,92.156863%,93.72549%);fill-opacity:1;" d="M 8.085938 0 L 87.914062 0 C 92.378906 0 96 3.621094 96 8.085938 L 96 87.914062 C 96 92.378906 92.378906 96 87.914062 96 L 8.085938 96 C 3.621094 96 0 92.378906 0 87.914062 L 0 8.085938 C 0 3.621094 3.621094 0 8.085938 0 Z M 8.085938 0 "/>
<path style=" stroke:none;fill-rule:nonzero;fill:rgb(49.411765%,34.117647%,76.862745%);fill-opacity:1;" d="M 82.90625 48 C 82.90625 67.277344 67.277344 82.90625 48 82.90625 C 28.722656 82.90625 13.09375 67.277344 13.09375 48 C 13.09375 28.722656 28.722656 13.09375 48 13.09375 C 67.277344 13.09375 82.90625 28.722656 82.90625 48 Z M 82.90625 48 "/>
<path style=" stroke:none;fill-rule:nonzero;fill:rgb(100%,100%,100%);fill-opacity:1;" d="M 47.65625 27.945312 C 48.277344 27.945312 48.78125 28.449219 48.78125 29.070312 L 48.78125 47.144531 C 48.78125 47.765625 48.277344 48.269531 47.65625 48.269531 C 47.035156 48.269531 46.53125 47.765625 46.53125 47.144531 L 46.53125 29.070312 C 46.53125 28.449219 47.035156 27.945312 47.65625 27.945312 Z M 47.65625 27.945312 "/>
<path style=" stroke:none;fill-rule:nonzero;fill:rgb(100%,40%,84.313725%);fill-opacity:1;" d="M 48.542969 48.144531 L 67.148438 66.746094 C 67.347656 66.945312 67.347656 67.269531 67.148438 67.46875 C 66.949219 67.667969 66.628906 67.667969 66.429688 67.46875 L 47.820312 48.867188 C 47.621094 48.667969 47.621094 48.34375 47.820312 48.144531 C 48.019531 47.945312 48.34375 47.945312 48.542969 48.144531 Z M 48.542969 48.144531 "/>
<path style=" stroke:none;fill-rule:nonzero;fill:rgb(100%,100%,100%);fill-opacity:1;" d="M 49.738281 48 C 49.738281 49.085938 48.859375 49.964844 47.773438 49.964844 C 46.691406 49.964844 45.808594 49.085938 45.808594 48 C 45.808594 46.914062 46.691406 46.035156 47.773438 46.035156 C 48.859375 46.035156 49.738281 46.914062 49.738281 48 Z M 49.738281 48 "/>
<g clip-path="url(#clip1)" clip-rule="nonzero">
<g clip-path="url(#clip2)" clip-rule="nonzero">
<path style=" stroke:none;fill-rule:nonzero;fill:rgb(100%,100%,100%);fill-opacity:1;" d="M 47.65625 4.363281 C 48.203125 4.363281 48.644531 4.808594 48.644531 5.355469 L 48.644531 21.285156 C 48.644531 21.832031 48.203125 22.273438 47.65625 22.273438 C 47.109375 22.273438 46.664062 21.832031 46.664062 21.285156 L 46.664062 5.355469 C 46.664062 4.808594 47.109375 4.363281 47.65625 4.363281 Z M 47.65625 4.363281 "/>
</g>
</g>
<g clip-path="url(#clip3)" clip-rule="nonzero">
<g clip-path="url(#clip4)" clip-rule="nonzero">
<path style=" stroke:none;fill-rule:nonzero;fill:rgb(100%,100%,100%);fill-opacity:1;" d="M 47.65625 73.726562 C 48.203125 73.726562 48.644531 74.167969 48.644531 74.714844 L 48.644531 90.644531 C 48.644531 91.191406 48.203125 91.636719 47.65625 91.636719 C 47.109375 91.636719 46.664062 91.191406 46.664062 90.644531 L 46.664062 74.714844 C 46.664062 74.167969 47.109375 73.726562 47.65625 73.726562 Z M 47.65625 73.726562 "/>
</g>
</g>
<g clip-path="url(#clip5)" clip-rule="nonzero">
<g clip-path="url(#clip6)" clip-rule="nonzero">
<path style=" stroke:none;fill-rule:nonzero;fill:rgb(100%,100%,100%);fill-opacity:1;" d="M 91.289062 48.015625 C 91.289062 48.5625 90.847656 49.003906 90.300781 49.003906 L 74.371094 49.003906 C 73.824219 49.003906 73.378906 48.5625 73.378906 48.015625 C 73.378906 47.46875 73.824219 47.023438 74.371094 47.023438 L 90.300781 47.023438 C 90.847656 47.023438 91.289062 47.46875 91.289062 48.015625 Z M 91.289062 48.015625 "/>
</g>
</g>
<g clip-path="url(#clip7)" clip-rule="nonzero">
<g clip-path="url(#clip8)" clip-rule="nonzero">
<path style=" stroke:none;fill-rule:nonzero;fill:rgb(100%,100%,100%);fill-opacity:1;" d="M 21.929688 48 C 21.929688 48.546875 21.488281 48.988281 20.941406 48.988281 L 5.011719 48.988281 C 4.464844 48.988281 4.019531 48.546875 4.019531 48 C 4.019531 47.453125 4.464844 47.011719 5.011719 47.011719 L 20.941406 47.011719 C 21.488281 47.011719 21.929688 47.453125 21.929688 48 Z M 21.929688 48 "/>
</g>
</g>
<g clip-path="url(#clip9)" clip-rule="nonzero">
<g clip-path="url(#clip10)" clip-rule="nonzero">
<path style=" stroke:none;fill-rule:nonzero;fill:rgb(100%,100%,100%);fill-opacity:1;" d="M 90.4375 72.960938 C 90.335938 73.136719 90.109375 73.195312 89.929688 73.089844 L 73.023438 63.222656 C 72.84375 63.117188 72.785156 62.890625 72.886719 62.71875 C 72.988281 62.542969 73.214844 62.484375 73.394531 62.589844 L 90.300781 72.457031 C 90.480469 72.558594 90.542969 72.789062 90.4375 72.960938 Z M 90.4375 72.960938 "/>
</g>
</g>
<g clip-path="url(#clip11)" clip-rule="nonzero">
<g clip-path="url(#clip12)" clip-rule="nonzero">
<path style=" stroke:none;fill-rule:nonzero;fill:rgb(100%,100%,100%);fill-opacity:1;" d="M 22.429688 33.285156 C 22.328125 33.460938 22.097656 33.519531 21.921875 33.414062 L 5.015625 23.546875 C 4.835938 23.441406 4.773438 23.214844 4.875 23.042969 C 4.976562 22.867188 5.207031 22.808594 5.382812 22.914062 L 22.289062 32.78125 C 22.46875 32.882812 22.53125 33.109375 22.429688 33.285156 Z M 22.429688 33.285156 "/>
</g>
</g>
<g clip-path="url(#clip13)" clip-rule="nonzero">
<g clip-path="url(#clip14)" clip-rule="nonzero">
<path style=" stroke:none;fill-rule:nonzero;fill:rgb(100%,100%,100%);fill-opacity:1;" d="M 70.207031 92.117188 C 70.027344 92.210938 69.800781 92.136719 69.707031 91.949219 L 60.804688 74.515625 C 60.710938 74.332031 60.78125 74.109375 60.964844 74.015625 C 61.144531 73.925781 61.367188 74 61.460938 74.183594 L 70.363281 91.617188 C 70.457031 91.800781 70.386719 92.027344 70.207031 92.117188 Z M 70.207031 92.117188 "/>
</g>
</g>
<g clip-path="url(#clip15)" clip-rule="nonzero">
<g clip-path="url(#clip16)" clip-rule="nonzero">
<path style=" stroke:none;fill-rule:nonzero;fill:rgb(100%,100%,100%);fill-opacity:1;" d="M 34.363281 22.019531 C 34.179688 22.109375 33.957031 22.035156 33.863281 21.851562 L 24.960938 4.417969 C 24.867188 4.234375 24.9375 4.007812 25.117188 3.917969 C 25.300781 3.824219 25.523438 3.898438 25.617188 4.085938 L 34.519531 21.519531 C 34.613281 21.703125 34.542969 21.925781 34.363281 22.019531 Z M 34.363281 22.019531 "/>
</g>
</g>
<g clip-path="url(#clip17)" clip-rule="nonzero">
<g clip-path="url(#clip18)" clip-rule="nonzero">
<path style=" stroke:none;fill-rule:nonzero;fill:rgb(100%,100%,100%);fill-opacity:1;" d="M 22.433594 62.710938 C 22.539062 62.886719 22.476562 63.113281 22.296875 63.214844 L 5.390625 73.082031 C 5.210938 73.1875 4.984375 73.128906 4.882812 72.957031 C 4.777344 72.78125 4.839844 72.554688 5.019531 72.449219 L 21.925781 62.582031 C 22.105469 62.476562 22.332031 62.535156 22.433594 62.710938 Z M 22.433594 62.710938 "/>
</g>
</g>
<g clip-path="url(#clip19)" clip-rule="nonzero">
<g clip-path="url(#clip20)" clip-rule="nonzero">
<path style=" stroke:none;fill-rule:nonzero;fill:rgb(100%,100%,100%);fill-opacity:1;" d="M 90.164062 22.679688 C 90.265625 22.851562 90.203125 23.078125 90.023438 23.183594 L 73.191406 32.96875 C 73.011719 33.074219 72.785156 33.015625 72.683594 32.839844 C 72.582031 32.667969 72.644531 32.441406 72.824219 32.335938 L 89.65625 22.550781 C 89.835938 22.445312 90.0625 22.503906 90.164062 22.679688 Z M 90.164062 22.679688 "/>
</g>
</g>
<g clip-path="url(#clip21)" clip-rule="nonzero">
<g clip-path="url(#clip22)" clip-rule="nonzero">
<path style=" stroke:none;fill-rule:nonzero;fill:rgb(100%,100%,100%);fill-opacity:1;" d="M 34.355469 74.007812 C 34.539062 74.101562 34.609375 74.324219 34.515625 74.511719 L 25.613281 91.945312 C 25.515625 92.128906 25.292969 92.203125 25.113281 92.109375 C 24.933594 92.019531 24.863281 91.792969 24.957031 91.609375 L 33.859375 74.175781 C 33.953125 73.992188 34.175781 73.917969 34.355469 74.007812 Z M 34.355469 74.007812 "/>
</g>
</g>
<g clip-path="url(#clip23)" clip-rule="nonzero">
<g clip-path="url(#clip24)" clip-rule="nonzero">
<path style=" stroke:none;fill-rule:nonzero;fill:rgb(100%,100%,100%);fill-opacity:1;" d="M 70.183594 3.902344 C 70.363281 3.996094 70.433594 4.21875 70.339844 4.40625 L 61.4375 21.839844 C 61.34375 22.023438 61.121094 22.097656 60.9375 22.003906 C 60.757812 21.914062 60.6875 21.6875 60.78125 21.503906 L 69.683594 4.070312 C 69.777344 3.886719 70 3.8125 70.183594 3.902344 Z M 70.183594 3.902344 "/>
</g>
</g>
</g>
</svg>
