
<svg xmlns="http://www.w3.org/2000/svg" xmlns:xlink="http://www.w3.org/1999/xlink" width="96px" height="96px" viewBox="0 0 96 96" version="1.1">
<g id="surface1">
<path style=" stroke:none;fill-rule:nonzero;fill:rgb(79.607843%,79.607843%,79.607843%);fill-opacity:1;" d="M 96 48 L 96 8.085938 C 96 3.621094 92.378906 0 87.914062 0 L 48 0 L 48 48 Z M 96 48 "/>
<path style=" stroke:none;fill-rule:nonzero;fill:rgb(49.411765%,34.117647%,76.862745%);fill-opacity:1;" d="M 62.308594 23.160156 C 61.898438 21.074219 60.3125 19.417969 58.246094 18.917969 C 56.179688 18.417969 54.011719 19.167969 52.695312 20.835938 C 52.214844 21.472656 51.46875 21.855469 50.671875 21.871094 L 49.996094 21.871094 C 48.890625 21.863281 48 20.964844 48 19.859375 L 48 0 L 8.085938 0 C 3.621094 0 0 3.621094 0 8.085938 L 0 48 L 48 48 L 48 28.5 C 48 27.398438 48.894531 26.503906 49.996094 26.503906 L 50.671875 26.503906 C 51.46875 26.519531 52.214844 26.898438 52.695312 27.539062 C 54.257812 29.542969 56.996094 30.199219 59.296875 29.121094 C 61.597656 28.046875 62.847656 25.523438 62.308594 23.039062 Z M 62.308594 23.160156 "/>
<path style=" stroke:none;fill-rule:nonzero;fill:rgb(91.764706%,92.156863%,93.72549%);fill-opacity:1;" d="M 25.679688 46.5 L 25.679688 44.503906 C 25.695312 43.707031 26.078125 42.960938 26.714844 42.480469 C 28.71875 40.917969 29.375 38.179688 28.296875 35.878906 C 27.222656 33.578125 24.695312 32.328125 22.214844 32.863281 C 20.128906 33.273438 18.472656 34.863281 17.972656 36.929688 C 17.472656 38.992188 18.222656 41.164062 19.890625 42.480469 C 20.554688 42.945312 20.96875 43.695312 21 44.503906 L 21 46.289062 C 21.0625 46.722656 20.929688 47.160156 20.640625 47.488281 C 20.355469 47.816406 19.9375 48.003906 19.5 48 L 0 48 L 0 87.914062 C 0 92.378906 3.621094 96 8.085938 96 L 48 96 L 48 48 L 27.136719 48 C 26.324219 47.976562 25.679688 47.3125 25.679688 46.5 Z M 25.679688 46.5 "/>
<path style=" stroke:none;fill-rule:nonzero;fill:rgb(92.54902%,25.098039%,47.843137%);fill-opacity:1;" d="M 74.65625 46.078125 L 74.65625 44.371094 C 74.671875 43.570312 75.0625 42.820312 75.703125 42.34375 C 77.707031 40.78125 78.363281 38.042969 77.289062 35.742188 C 76.210938 33.445312 73.6875 32.195312 71.203125 32.730469 C 69.136719 33.175781 67.515625 34.777344 67.042969 36.835938 C 66.570312 38.894531 67.332031 41.042969 69 42.34375 C 69.640625 42.824219 70.023438 43.570312 70.035156 44.371094 L 70.035156 45.871094 C 70.082031 46.421875 69.894531 46.96875 69.515625 47.371094 C 69.140625 47.777344 68.609375 48.007812 68.054688 48 L 48 48 L 48 67.5 C 48 68.558594 47.140625 69.421875 46.078125 69.421875 L 44.460938 69.421875 C 43.65625 69.398438 42.90625 69.011719 42.421875 68.371094 C 40.929688 66.511719 38.410156 65.839844 36.191406 66.703125 C 33.976562 67.566406 32.578125 69.773438 32.738281 72.144531 C 32.902344 74.519531 34.585938 76.515625 36.898438 77.070312 C 38.964844 77.550781 41.121094 76.796875 42.433594 75.136719 C 42.914062 74.496094 43.660156 74.113281 44.460938 74.101562 L 45.886719 74.101562 C 46.414062 74.0625 46.9375 74.242188 47.335938 74.59375 C 47.734375 74.945312 47.972656 75.445312 48 75.976562 L 48 96 L 87.914062 96 C 92.378906 96 96 92.378906 96 87.914062 L 96 48 L 76.5 48 C 75.46875 47.960938 74.652344 47.113281 74.65625 46.078125 Z M 74.65625 46.078125 "/>
</g>
</svg>
