
<svg xmlns="http://www.w3.org/2000/svg" xmlns:xlink="http://www.w3.org/1999/xlink" width="96px" height="96px" viewBox="0 0 96 96" version="1.1">
<defs>
<clipPath id="clip1">
  <path d="M 45 76 L 79 76 L 79 96 L 45 96 Z M 45 76 "/>
</clipPath>
<clipPath id="clip2">
  <path d="M 8.085938 0 L 87.914062 0 C 92.378906 0 96 3.621094 96 8.085938 L 96 87.914062 C 96 92.378906 92.378906 96 87.914062 96 L 8.085938 96 C 3.621094 96 0 92.378906 0 87.914062 L 0 8.085938 C 0 3.621094 3.621094 0 8.085938 0 Z M 8.085938 0 "/>
</clipPath>
<clipPath id="clip3">
  <path d="M 59 67 L 75 67 L 75 76 L 59 76 Z M 59 67 "/>
</clipPath>
<clipPath id="clip4">
  <path d="M 8.085938 0 L 87.914062 0 C 92.378906 0 96 3.621094 96 8.085938 L 96 87.914062 C 96 92.378906 92.378906 96 87.914062 96 L 8.085938 96 C 3.621094 96 0 92.378906 0 87.914062 L 0 8.085938 C 0 3.621094 3.621094 0 8.085938 0 Z M 8.085938 0 "/>
</clipPath>
<clipPath id="clip5">
  <path d="M 73 71 L 76 71 L 76 73 L 73 73 Z M 73 71 "/>
</clipPath>
<clipPath id="clip6">
  <path d="M 8.085938 0 L 87.914062 0 C 92.378906 0 96 3.621094 96 8.085938 L 96 87.914062 C 96 92.378906 92.378906 96 87.914062 96 L 8.085938 96 C 3.621094 96 0 92.378906 0 87.914062 L 0 8.085938 C 0 3.621094 3.621094 0 8.085938 0 Z M 8.085938 0 "/>
</clipPath>
<clipPath id="clip7">
  <path d="M 39 71 L 48 71 L 48 75 L 39 75 Z M 39 71 "/>
</clipPath>
<clipPath id="clip8">
  <path d="M 8.085938 0 L 87.914062 0 C 92.378906 0 96 3.621094 96 8.085938 L 96 87.914062 C 96 92.378906 92.378906 96 87.914062 96 L 8.085938 96 C 3.621094 96 0 92.378906 0 87.914062 L 0 8.085938 C 0 3.621094 3.621094 0 8.085938 0 Z M 8.085938 0 "/>
</clipPath>
<clipPath id="clip9">
  <path d="M 55 73 L 57 73 L 57 75 L 55 75 Z M 55 73 "/>
</clipPath>
<clipPath id="clip10">
  <path d="M 8.085938 0 L 87.914062 0 C 92.378906 0 96 3.621094 96 8.085938 L 96 87.914062 C 96 92.378906 92.378906 96 87.914062 96 L 8.085938 96 C 3.621094 96 0 92.378906 0 87.914062 L 0 8.085938 C 0 3.621094 3.621094 0 8.085938 0 Z M 8.085938 0 "/>
</clipPath>
<clipPath id="clip11">
  <path d="M 31 62 L 41 62 L 41 72 L 31 72 Z M 31 62 "/>
</clipPath>
<clipPath id="clip12">
  <path d="M 8.085938 0 L 87.914062 0 C 92.378906 0 96 3.621094 96 8.085938 L 96 87.914062 C 96 92.378906 92.378906 96 87.914062 96 L 8.085938 96 C 3.621094 96 0 92.378906 0 87.914062 L 0 8.085938 C 0 3.621094 3.621094 0 8.085938 0 Z M 8.085938 0 "/>
</clipPath>
<clipPath id="clip13">
  <path d="M 0 0 L 89 0 L 89 90 L 0 90 Z M 0 0 "/>
</clipPath>
<clipPath id="clip14">
  <path d="M 8.085938 0 L 87.914062 0 C 92.378906 0 96 3.621094 96 8.085938 L 96 87.914062 C 96 92.378906 92.378906 96 87.914062 96 L 8.085938 96 C 3.621094 96 0 92.378906 0 87.914062 L 0 8.085938 C 0 3.621094 3.621094 0 8.085938 0 Z M 8.085938 0 "/>
</clipPath>
<clipPath id="clip15">
  <path d="M 42 63 L 50 63 L 50 71 L 42 71 Z M 42 63 "/>
</clipPath>
<clipPath id="clip16">
  <path d="M 8.085938 0 L 87.914062 0 C 92.378906 0 96 3.621094 96 8.085938 L 96 87.914062 C 96 92.378906 92.378906 96 87.914062 96 L 8.085938 96 C 3.621094 96 0 92.378906 0 87.914062 L 0 8.085938 C 0 3.621094 3.621094 0 8.085938 0 Z M 8.085938 0 "/>
</clipPath>
<clipPath id="clip17">
  <path d="M 52 65 L 55 65 L 55 68 L 52 68 Z M 52 65 "/>
</clipPath>
<clipPath id="clip18">
  <path d="M 8.085938 0 L 87.914062 0 C 92.378906 0 96 3.621094 96 8.085938 L 96 87.914062 C 96 92.378906 92.378906 96 87.914062 96 L 8.085938 96 C 3.621094 96 0 92.378906 0 87.914062 L 0 8.085938 C 0 3.621094 3.621094 0 8.085938 0 Z M 8.085938 0 "/>
</clipPath>
<clipPath id="clip19">
  <path d="M 56 65 L 58 65 L 58 68 L 56 68 Z M 56 65 "/>
</clipPath>
<clipPath id="clip20">
  <path d="M 8.085938 0 L 87.914062 0 C 92.378906 0 96 3.621094 96 8.085938 L 96 87.914062 C 96 92.378906 92.378906 96 87.914062 96 L 8.085938 96 C 3.621094 96 0 92.378906 0 87.914062 L 0 8.085938 C 0 3.621094 3.621094 0 8.085938 0 Z M 8.085938 0 "/>
</clipPath>
<clipPath id="clip21">
  <path d="M 50 67 L 54 67 L 54 72 L 50 72 Z M 50 67 "/>
</clipPath>
<clipPath id="clip22">
  <path d="M 8.085938 0 L 87.914062 0 C 92.378906 0 96 3.621094 96 8.085938 L 96 87.914062 C 96 92.378906 92.378906 96 87.914062 96 L 8.085938 96 C 3.621094 96 0 92.378906 0 87.914062 L 0 8.085938 C 0 3.621094 3.621094 0 8.085938 0 Z M 8.085938 0 "/>
</clipPath>
<clipPath id="clip23">
  <path d="M 41 41 L 44 41 L 44 44 L 41 44 Z M 41 41 "/>
</clipPath>
<clipPath id="clip24">
  <path d="M 8.085938 0 L 87.914062 0 C 92.378906 0 96 3.621094 96 8.085938 L 96 87.914062 C 96 92.378906 92.378906 96 87.914062 96 L 8.085938 96 C 3.621094 96 0 92.378906 0 87.914062 L 0 8.085938 C 0 3.621094 3.621094 0 8.085938 0 Z M 8.085938 0 "/>
</clipPath>
<clipPath id="clip25">
  <path d="M 34 56 L 41 56 L 41 61 L 34 61 Z M 34 56 "/>
</clipPath>
<clipPath id="clip26">
  <path d="M 8.085938 0 L 87.914062 0 C 92.378906 0 96 3.621094 96 8.085938 L 96 87.914062 C 96 92.378906 92.378906 96 87.914062 96 L 8.085938 96 C 3.621094 96 0 92.378906 0 87.914062 L 0 8.085938 C 0 3.621094 3.621094 0 8.085938 0 Z M 8.085938 0 "/>
</clipPath>
<clipPath id="clip27">
  <path d="M 51 23 L 61 23 L 61 35 L 51 35 Z M 51 23 "/>
</clipPath>
<clipPath id="clip28">
  <path d="M 8.085938 0 L 87.914062 0 C 92.378906 0 96 3.621094 96 8.085938 L 96 87.914062 C 96 92.378906 92.378906 96 87.914062 96 L 8.085938 96 C 3.621094 96 0 92.378906 0 87.914062 L 0 8.085938 C 0 3.621094 3.621094 0 8.085938 0 Z M 8.085938 0 "/>
</clipPath>
<clipPath id="clip29">
  <path d="M 49 33 L 52 33 L 52 37 L 49 37 Z M 49 33 "/>
</clipPath>
<clipPath id="clip30">
  <path d="M 8.085938 0 L 87.914062 0 C 92.378906 0 96 3.621094 96 8.085938 L 96 87.914062 C 96 92.378906 92.378906 96 87.914062 96 L 8.085938 96 C 3.621094 96 0 92.378906 0 87.914062 L 0 8.085938 C 0 3.621094 3.621094 0 8.085938 0 Z M 8.085938 0 "/>
</clipPath>
<clipPath id="clip31">
  <path d="M 43 54 L 47 54 L 47 57 L 43 57 Z M 43 54 "/>
</clipPath>
<clipPath id="clip32">
  <path d="M 8.085938 0 L 87.914062 0 C 92.378906 0 96 3.621094 96 8.085938 L 96 87.914062 C 96 92.378906 92.378906 96 87.914062 96 L 8.085938 96 C 3.621094 96 0 92.378906 0 87.914062 L 0 8.085938 C 0 3.621094 3.621094 0 8.085938 0 Z M 8.085938 0 "/>
</clipPath>
<clipPath id="clip33">
  <path d="M 41 46 L 45 46 L 45 52 L 41 52 Z M 41 46 "/>
</clipPath>
<clipPath id="clip34">
  <path d="M 8.085938 0 L 87.914062 0 C 92.378906 0 96 3.621094 96 8.085938 L 96 87.914062 C 96 92.378906 92.378906 96 87.914062 96 L 8.085938 96 C 3.621094 96 0 92.378906 0 87.914062 L 0 8.085938 C 0 3.621094 3.621094 0 8.085938 0 Z M 8.085938 0 "/>
</clipPath>
<clipPath id="clip35">
  <path d="M 43 53 L 45 53 L 45 55 L 43 55 Z M 43 53 "/>
</clipPath>
<clipPath id="clip36">
  <path d="M 8.085938 0 L 87.914062 0 C 92.378906 0 96 3.621094 96 8.085938 L 96 87.914062 C 96 92.378906 92.378906 96 87.914062 96 L 8.085938 96 C 3.621094 96 0 92.378906 0 87.914062 L 0 8.085938 C 0 3.621094 3.621094 0 8.085938 0 Z M 8.085938 0 "/>
</clipPath>
<clipPath id="clip37">
  <path d="M 10 54 L 12 54 L 12 57 L 10 57 Z M 10 54 "/>
</clipPath>
<clipPath id="clip38">
  <path d="M 8.085938 0 L 87.914062 0 C 92.378906 0 96 3.621094 96 8.085938 L 96 87.914062 C 96 92.378906 92.378906 96 87.914062 96 L 8.085938 96 C 3.621094 96 0 92.378906 0 87.914062 L 0 8.085938 C 0 3.621094 3.621094 0 8.085938 0 Z M 8.085938 0 "/>
</clipPath>
</defs>
<g id="surface1">
<path style=" stroke:none;fill-rule:nonzero;fill:rgb(49.411765%,34.117647%,76.862745%);fill-opacity:1;" d="M 8.085938 0 L 87.914062 0 C 92.378906 0 96 3.621094 96 8.085938 L 96 87.914062 C 96 92.378906 92.378906 96 87.914062 96 L 8.085938 96 C 3.621094 96 0 92.378906 0 87.914062 L 0 8.085938 C 0 3.621094 3.621094 0 8.085938 0 Z M 8.085938 0 "/>
<g clip-path="url(#clip1)" clip-rule="nonzero">
<g clip-path="url(#clip2)" clip-rule="nonzero">
<path style=" stroke:none;fill-rule:nonzero;fill:rgb(27.058824%,89.019608%,100%);fill-opacity:1;" d="M 77.414062 88.5 L 75.074219 85.273438 C 75.015625 84.902344 74.714844 84.613281 74.339844 84.570312 L 74.25 84.570312 C 73.839844 83.578125 73.019531 82.8125 72 82.46875 C 72.023438 82.375 72.023438 82.277344 72 82.183594 C 72.660156 81.210938 72.210938 80.488281 71.460938 79.84375 L 70.980469 79.273438 C 69.238281 79.035156 69.988281 76.785156 68.625 76.171875 C 68.023438 76.921875 68.308594 77.671875 68.339844 78.359375 C 67.484375 81.449219 66.328125 81.675781 63.644531 79.320312 C 63.519531 79.191406 63.328125 79.15625 63.164062 79.230469 C 62.863281 78.449219 63.703125 78.269531 64.003906 77.730469 C 64.304688 76.230469 63.238281 77.054688 62.714844 76.964844 L 61.726562 76.5 C 61.585938 76.574219 61.414062 76.539062 61.320312 76.410156 L 60.796875 76.828125 L 59.476562 76.828125 C 59.375 76.921875 59.304688 77.042969 59.28125 77.175781 C 59.164062 77.160156 59.050781 77.230469 59.011719 77.339844 C 58.273438 77.761719 58.710938 79.273438 57.34375 79.078125 C 55.84375 77.429688 55.003906 78.511719 54.34375 79.921875 C 54.222656 79.972656 54.089844 80.003906 53.953125 80.011719 C 53.804688 80.863281 51.871094 80.476562 52.574219 81.960938 L 50.746094 83.371094 C 49.5 83.941406 47.953125 83.863281 46.996094 85.066406 C 45.285156 85.5 45.644531 86.863281 45.644531 88.066406 C 45.675781 88.8125 45.839844 89.550781 46.125 90.238281 C 46.207031 90.820312 46.550781 91.335938 47.054688 91.636719 C 47.054688 92.746094 47.566406 93.75 47.59375 94.890625 C 47.625 96.03125 48.359375 96.988281 49.816406 96.226562 C 50.566406 95.941406 51 94.964844 52.003906 95.265625 C 52.003906 95.144531 52.15625 95.039062 52.230469 94.90625 L 53.519531 94.90625 C 54.238281 95.039062 54.34375 94.484375 54.523438 94.003906 L 55.378906 93.554688 C 57.488281 92.503906 59.929688 92.34375 62.160156 93.105469 C 62.804688 93.734375 62.503906 95.386719 64.125 94.921875 C 64.703125 95.105469 65.109375 95.621094 65.160156 96.226562 L 65.953125 96.316406 C 66.660156 98.550781 67.964844 99.78125 70.453125 99.089844 C 70.605469 99.089844 70.828125 99.269531 71.023438 99.375 C 73.679688 99.660156 74.566406 97.875 75.238281 95.820312 C 75.824219 95.550781 76.363281 95.234375 76.171875 94.441406 L 76.949219 93.015625 C 76.949219 92.746094 76.949219 92.460938 77.023438 92.191406 L 77.25 92.191406 C 78.226562 91.636719 78.105469 90.691406 78.089844 89.789062 C 78.035156 89.289062 77.796875 88.828125 77.414062 88.5 Z M 71.414062 91.246094 Z M 63.195312 82.5 Z M 63.195312 82.109375 L 63.195312 82.019531 Z M 71.535156 83.386719 Z M 71.535156 83.386719 "/>
</g>
</g>
<g clip-path="url(#clip3)" clip-rule="nonzero">
<g clip-path="url(#clip4)" clip-rule="nonzero">
<path style=" stroke:none;fill-rule:nonzero;fill:rgb(27.058824%,89.019608%,100%);fill-opacity:1;" d="M 71.085938 71.683594 C 71.085938 70.378906 70.09375 70.183594 69.164062 70.019531 C 68.398438 69.824219 67.453125 69.839844 66.914062 69.375 C 65.414062 68.128906 64.363281 68.714844 63.164062 69.613281 C 62.820312 69.613281 62.28125 69.613281 62.203125 69.179688 C 61.890625 67.199219 60.808594 67.363281 59.460938 68.144531 C 59.546875 68.265625 59.601562 68.402344 59.625 68.550781 C 60.765625 69.359375 61.679688 70.515625 63.164062 70.769531 L 64.558594 71.234375 L 65.59375 72.734375 C 65.59375 73.078125 64.921875 73.335938 65.476562 73.753906 C 66.089844 73.351562 66.433594 73.890625 66.855469 74.160156 C 67.277344 74.527344 67.847656 74.675781 68.394531 74.558594 C 68.941406 74.4375 69.398438 74.070312 69.628906 73.558594 L 71.011719 73.558594 C 71.460938 73.710938 71.519531 74.070312 71.503906 74.476562 C 72.226562 74.835938 72.660156 75.734375 73.664062 75.523438 C 74.039062 75.523438 74.578125 75.03125 74.296875 74.941406 C 72.660156 74.386719 73.171875 71.746094 71.085938 71.683594 Z M 71.085938 71.683594 "/>
</g>
</g>
<g clip-path="url(#clip5)" clip-rule="nonzero">
<g clip-path="url(#clip6)" clip-rule="nonzero">
<path style=" stroke:none;fill-rule:nonzero;fill:rgb(27.058824%,89.019608%,100%);fill-opacity:1;" d="M 75.628906 71.21875 C 75 71.59375 74.128906 71.113281 73.5 71.878906 C 73.996094 72.390625 74.609375 72.238281 75.164062 72.285156 C 75 71.820312 76.664062 72.105469 75.628906 71.21875 Z M 75.628906 71.21875 "/>
</g>
</g>
<g clip-path="url(#clip7)" clip-rule="nonzero">
<g clip-path="url(#clip8)" clip-rule="nonzero">
<path style=" stroke:none;fill-rule:nonzero;fill:rgb(27.058824%,89.019608%,100%);fill-opacity:1;" d="M 47.460938 73.726562 L 45.554688 73.289062 C 44.863281 72.898438 44.203125 72.316406 43.320312 72.765625 L 39.886719 71.863281 C 40.066406 73.933594 41.59375 73.515625 42.886719 73.46875 C 43.679688 73.363281 44.175781 74.445312 45.046875 74.039062 L 46.964844 74.175781 Z M 47.460938 73.726562 "/>
</g>
</g>
<g clip-path="url(#clip9)" clip-rule="nonzero">
<g clip-path="url(#clip10)" clip-rule="nonzero">
<path style=" stroke:none;fill-rule:nonzero;fill:rgb(27.058824%,89.019608%,100%);fill-opacity:1;" d="M 55.140625 74.640625 L 56.640625 74.128906 C 55.90625 73.5 55.199219 73.125 55.140625 74.640625 Z M 55.140625 74.640625 "/>
</g>
</g>
<g clip-path="url(#clip11)" clip-rule="nonzero">
<g clip-path="url(#clip12)" clip-rule="nonzero">
<path style=" stroke:none;fill-rule:nonzero;fill:rgb(27.058824%,89.019608%,100%);fill-opacity:1;" d="M 40.183594 69.523438 C 40.589844 69.375 40.53125 69.105469 40.320312 68.851562 C 39.855469 68.308594 39.570312 68.96875 39.179688 69.046875 L 38.746094 68.535156 L 38.308594 68.101562 C 38.085938 67.695312 38.550781 66.988281 37.753906 66.824219 C 37.441406 66.691406 36.988281 66.824219 36.871094 66.285156 C 36.769531 66.308594 36.667969 66.308594 36.570312 66.285156 C 36.5625 66.140625 36.5625 65.996094 36.570312 65.851562 C 35.992188 64.957031 35.296875 64.152344 34.5 63.449219 C 33.75 62.730469 32.910156 62.160156 31.90625 63.121094 C 33.570312 65.429688 35.25 67.726562 36.914062 70.019531 C 37.648438 71.054688 38.414062 72.058594 39.914062 71.835938 L 40.273438 69.539062 Z M 40.183594 69.523438 "/>
</g>
</g>
<g clip-path="url(#clip13)" clip-rule="nonzero">
<g clip-path="url(#clip14)" clip-rule="nonzero">
<path style=" stroke:none;fill-rule:nonzero;fill:rgb(27.058824%,89.019608%,100%);fill-opacity:1;" d="M 88.171875 4.5 L 87.988281 4.050781 C 88.078125 3.238281 86.804688 3 87.179688 2.085938 C 87.539062 2.085938 87.886719 2.085938 88.078125 1.738281 L 88.5 1.738281 L 88.5 0.824219 C 88.621094 0.726562 88.683594 0.574219 88.664062 0.421875 C 88.714844 -0.125 88.660156 -0.675781 88.5 -1.199219 C 88.5 -1.574219 88.5 -1.964844 88.5 -2.355469 C 88.726562 -2.804688 88.726562 -3.332031 88.5 -3.78125 C 86.789062 -4.582031 84.894531 -4.914062 83.011719 -4.738281 C 82.003906 -5.191406 80.953125 -5.835938 81.511719 -3.765625 C 81.765625 -2.863281 81.03125 -3.179688 80.578125 -3.285156 L 79.769531 -3.285156 C 79.335938 -4.484375 78.691406 -4.785156 77.761719 -3.734375 C 77.640625 -3.707031 77.519531 -3.707031 77.398438 -3.734375 C 76.5 -5.054688 75.390625 -4.5 74.25 -4.261719 C 72.554688 -3.808594 73.109375 -6.285156 71.699219 -6.210938 C 70.777344 -6.769531 69.621094 -6.769531 68.699219 -6.210938 L 67.800781 -6 L 64.5 -7.769531 C 63.464844 -8.984375 61.980469 -7.515625 60.886719 -8.386719 C 59.984375 -8.386719 59.296875 -9.554688 58.261719 -8.894531 C 58.09375 -8.355469 57.238281 -8.640625 57.164062 -7.980469 C 57.089844 -7.320312 56.175781 -7.484375 55.816406 -7.019531 L 55.351562 -6.898438 C 53.371094 -7.769531 51.628906 -6.75 49.828125 -6.226562 C 49.273438 -6.226562 49.066406 -6.703125 48.796875 -7.078125 C 48.652344 -7.640625 48.144531 -8.03125 47.566406 -8.023438 L 47.070312 -8.925781 C 47.414062 -9.03125 47.96875 -9.433594 47.863281 -9.464844 C 46.769531 -9.71875 45.496094 -11.21875 44.714844 -10.261719 C 43.695312 -9 42.601562 -9.523438 41.535156 -9.316406 C 40.53125 -9.871094 39.628906 -10.816406 38.308594 -10.289062 C 38.070312 -10.425781 37.90625 -10.289062 37.785156 -10.109375 L 36.703125 -9.886719 C 36.613281 -10.15625 36.511719 -10.410156 36.40625 -10.664062 C 35.789062 -10.214844 35.191406 -10.816406 34.574219 -10.664062 L 34.574219 -10.816406 C 33.914062 -11.085938 33.359375 -10.605469 32.746094 -10.546875 L 32.863281 -10.726562 L 33.164062 -10.726562 C 33.742188 -10.789062 34.253906 -11.125 34.546875 -11.625 C 35.070312 -11.851562 35.570312 -12.128906 36.046875 -12.449219 C 36.945312 -13.15625 37.363281 -13.949219 35.878906 -14.488281 C 34.867188 -15.425781 33.34375 -15.550781 32.191406 -14.789062 L 30 -16.695312 C 28.351562 -16.800781 27 -16.5 27.089844 -14.503906 L 24 -13.921875 L 23.203125 -14.070312 C 20.828125 -14.175781 18.464844 -13.660156 16.351562 -12.570312 C 15.808594 -12.105469 16.351562 -10.980469 15.238281 -10.859375 L 14.371094 -10.859375 C 13.933594 -10.53125 13.394531 -10.738281 12.871094 -10.589844 L 12.734375 -10.5 C 12.339844 -10.679688 11.886719 -10.679688 11.488281 -10.5 C 10.5 -9.734375 10.84375 -9 12.449219 -8.113281 L 12.359375 -8.113281 L 12.359375 -7.996094 C 12.824219 -7.589844 12.765625 -7.050781 12.796875 -6.496094 C 12.644531 -6.839844 12.496094 -7.171875 12.375 -7.53125 C 11.714844 -7.453125 11.050781 -7.613281 10.5 -7.980469 C 10.179688 -8.378906 9.628906 -8.511719 9.164062 -8.296875 L 7.273438 -7.890625 C 6.648438 -8.054688 5.980469 -7.910156 5.476562 -7.5 C 5.308594 -7.050781 5.550781 -6.78125 5.773438 -6.496094 L 5.503906 -6.074219 C 4.753906 -4.574219 5.011719 -3.554688 6.601562 -3.238281 C 6.449219 -3.136719 6.375 -2.894531 6.433594 -2.429688 C 6.433594 -2.144531 6.316406 -1.859375 6.269531 -1.574219 C 5.378906 -0.277344 3.773438 0.320312 2.25 -0.0742188 C 2.371094 -1.019531 4.09375 -0.0742188 3.855469 -1.410156 L 4.261719 -1.816406 C 5.59375 -3.316406 4.140625 -4.996094 4.710938 -6.539062 L 4.109375 -6.988281 C 4.082031 -7.136719 4.082031 -7.292969 4.109375 -7.441406 C 4.816406 -7.875 4.515625 -8.535156 4.484375 -9.136719 C 3.300781 -9.121094 1.769531 -9.585938 1.769531 -7.5 C 1.003906 -7.320312 -0.03125 -7.5 0.359375 -6.089844 C 0.976562 -5.398438 -0.40625 -5.011719 0.0898438 -4.335938 C 0.164062 -4.144531 0.253906 -3.957031 0.359375 -3.78125 C 0.0898438 -3.90625 -0.214844 -3.949219 -0.511719 -3.898438 C -1.363281 -3.554688 -2.011719 -4.410156 -2.820312 -4.335938 C -3.375 -4.933594 -3.914062 -5.070312 -4.410156 -4.335938 C -4.109375 -3.601562 -4.890625 -3.433594 -5.128906 -3 C -5.445312 -2.835938 -5.730469 -3.480469 -6.058594 -3 C -7.292969 -3.382812 -8.632812 -3.21875 -9.734375 -2.550781 C -10.695312 -4.46875 -11.578125 -2.550781 -12.511719 -2.550781 L -14.578125 -1.695312 C -15.179688 -0.195312 -16.171875 -0.914062 -17.085938 -1.246094 C -17.085938 -1.726562 -17.085938 -2.039062 -16.46875 -2.085938 C -15.539062 -2.085938 -15.886719 -2.625 -16.214844 -3.058594 C -16.828125 -3.238281 -17.476562 -3.539062 -17.714844 -2.566406 C -17.910156 -1.933594 -18.210938 -1.273438 -17.550781 -0.71875 C -17.730469 -0.511719 -17.894531 -0.300781 -18.074219 -0.105469 L -19.394531 -0.210938 C -19.769531 0.03125 -20.460938 -0.210938 -20.414062 0.601562 L -20.578125 0.601562 C -21.046875 0.945312 -21.253906 1.539062 -21.105469 2.101562 L -21.359375 2.175781 C -21.898438 2.175781 -22.394531 1.394531 -22.964844 2.085938 C -23.128906 2.296875 -22.964844 2.476562 -22.726562 2.550781 C -22.710938 2.695312 -22.710938 2.839844 -22.726562 2.984375 C -24.226562 2.984375 -25.5 2.640625 -25.425781 0.71875 C -25.574219 0.480469 -25.710938 0.238281 -25.859375 0.015625 C -26.203125 -0.269531 -26.640625 -0.480469 -26.789062 -0.960938 C -26.671875 -0.964844 -26.5625 -1.015625 -26.476562 -1.09375 C -26.320312 -0.683594 -25.941406 -0.394531 -25.5 -0.359375 L -25.261719 -0.359375 C -25.046875 -0.0820312 -24.769531 0.140625 -24.449219 0.285156 C -23.429688 0.585938 -22.394531 1.261719 -21.449219 0.285156 C -21.167969 0.015625 -20.902344 -0.269531 -20.65625 -0.570312 L -20.488281 -0.691406 L -20.296875 -0.988281 C -20.445312 -1.574219 -20.578125 -2.191406 -21.34375 -2.296875 C -22.109375 -2.398438 -22.84375 -3.300781 -23.671875 -3.660156 C -23.863281 -4.078125 -24.195312 -4.003906 -24.539062 -3.898438 C -24.582031 -3.871094 -24.613281 -3.828125 -24.628906 -3.78125 C -25.214844 -3.988281 -25.933594 -3.660156 -26.429688 -4.246094 C -26.574219 -4.222656 -26.722656 -4.222656 -26.863281 -4.246094 C -26.871094 -4.371094 -26.871094 -4.496094 -26.863281 -4.621094 L -27.734375 -4.621094 L -28.273438 -5.175781 C -28.175781 -5.304688 -28.175781 -5.480469 -28.273438 -5.609375 C -29.878906 -6.675781 -31.621094 -5.835938 -33.285156 -5.953125 L -36 -4.351562 L -37.410156 -3.871094 C -39.164062 -3.75 -39.628906 -2.144531 -40.621094 -1.109375 C -42.359375 -0.898438 -42.300781 0.496094 -42.554688 1.679688 L -42.988281 2.101562 L -44.25 2.65625 L -44.339844 3.121094 L -45.390625 3.929688 C -46.394531 3.929688 -46.890625 4.84375 -47.640625 5.234375 C -48.734375 6.855469 -47.761719 8.355469 -47.386719 9.898438 C -46.429688 10.253906 -45.355469 9.875 -44.835938 9 L -43.5 8.714844 C -43.5 9.746094 -43.066406 10.726562 -42.300781 11.414062 C -42.300781 12.074219 -42.601562 12.511719 -43.351562 12.464844 C -43.335938 12.65625 -43.242188 12.835938 -43.089844 12.953125 C -42.941406 13.074219 -42.746094 13.125 -42.554688 13.09375 C -42.332031 13.167969 -42.089844 13.058594 -42 12.839844 C -41.902344 12.929688 -41.785156 13 -41.65625 13.035156 C -38.941406 12.585938 -38.265625 11.683594 -39.046875 9.480469 L -38.894531 9.480469 C -38.203125 9.480469 -37.605469 9.316406 -37.558594 8.445312 C -37.578125 8.367188 -37.601562 8.292969 -37.636719 8.21875 C -37.335938 7.484375 -37.816406 7.363281 -38.25 7.214844 C -38.367188 7.003906 -38.410156 6.761719 -38.371094 6.523438 C -38.394531 6.242188 -38.523438 5.980469 -38.730469 5.789062 L -38.234375 4.546875 L -36.734375 3.601562 L -36 3.601562 C -35.730469 3.398438 -35.558594 3.09375 -35.519531 2.761719 C -35.519531 2.761719 -35.519531 2.65625 -35.519531 2.609375 C -35.265625 2.039062 -35.59375 1.230469 -34.996094 0.808594 L -32.683594 0.734375 C -31.726562 2.070312 -33.703125 2.128906 -33.691406 3.046875 C -34.320312 3.613281 -35.460938 3.71875 -35.414062 4.921875 C -35.339844 5.671875 -35.519531 6.421875 -34.980469 7.140625 L -34.078125 7.800781 C -33.601562 7.921875 -33.105469 7.996094 -32.578125 8.113281 L -32.414062 8.113281 C -32.683594 8.1875 -32.929688 8.332031 -33.121094 8.535156 C -33.523438 8.699219 -33.75 9.074219 -33.523438 9.40625 C -32.023438 11.746094 -33.886719 10.996094 -34.933594 10.996094 C -35.789062 11.414062 -35.625 12.074219 -35.355469 12.765625 C -35.355469 13.679688 -36.523438 13.453125 -36.765625 14.144531 L -37.648438 14.054688 C -38.175781 13.453125 -38.625 13.875 -39.074219 14.191406 C -40.097656 14.722656 -41.320312 14.695312 -42.316406 14.113281 C -42.65625 14.597656 -43.308594 14.734375 -43.816406 14.429688 C -43.925781 14.253906 -44.074219 14.105469 -44.25 13.996094 C -44.355469 13.972656 -44.460938 13.972656 -44.566406 13.996094 C -44.761719 13.207031 -44.453125 12.375 -43.785156 11.910156 L -43.695312 11.414062 C -43.785156 11.101562 -43.605469 10.453125 -44.054688 10.558594 C -44.503906 10.664062 -45.480469 10.949219 -45.449219 11.910156 C -45.75 12.734375 -45.226562 13.410156 -45.03125 14.175781 C -45.03125 14.445312 -45.148438 14.730469 -45.195312 15 C -46.644531 14.792969 -48.082031 15.464844 -48.855469 16.710938 C -49.273438 17.398438 -49.949219 17.414062 -50.59375 17.566406 C -51.394531 15.757812 -52.550781 14.136719 -54 12.796875 C -54.121094 12.601562 -54.375 12.300781 -54.316406 12.210938 C -53.113281 10.351562 -55.035156 10.140625 -55.816406 10.019531 C -56.835938 9.855469 -56.625 11.101562 -56.773438 11.820312 C -55.980469 12.40625 -55.828125 13.605469 -54.914062 14.085938 C -55.171875 14.535156 -55.589844 14.941406 -55.53125 15.585938 L -55.441406 15.75 L -56.296875 16.980469 C -56.246094 17.097656 -56.148438 17.183594 -56.027344 17.210938 C -55.902344 17.242188 -55.773438 17.210938 -55.679688 17.128906 C -55.679688 17.730469 -55.769531 18.316406 -54.929688 18.359375 C -54.730469 18.199219 -54.5 18.082031 -54.253906 18.015625 C -53.734375 18.21875 -53.15625 18.21875 -52.636719 18.015625 L -51.75 17.835938 L -50.773438 17.925781 C -50.773438 18.089844 -50.773438 18.253906 -50.773438 18.421875 C -51.433594 19.53125 -52.90625 18.945312 -53.773438 19.785156 C -54.136719 20.308594 -55.199219 19.664062 -55.273438 20.683594 L -53.773438 22.53125 C -53.445312 23.289062 -53.445312 24.152344 -53.773438 24.914062 C -53.9375 25.011719 -54.027344 25.195312 -54 25.378906 C -55.707031 25.0625 -57.453125 25.023438 -59.175781 25.261719 C -59.96875 26.941406 -59.265625 28.726562 -59.535156 30.433594 C -59.535156 31.933594 -58.304688 30.871094 -57.808594 31.304688 C -57.792969 31.222656 -57.792969 31.132812 -57.808594 31.050781 C -57.375 31.378906 -57.105469 31.980469 -56.429688 31.90625 C -55.890625 31.351562 -55.109375 31.605469 -54.464844 31.394531 C -54.300781 31.425781 -54.140625 31.472656 -53.984375 31.53125 C -53.445312 31.46875 -53.035156 31.019531 -53.023438 30.480469 C -51.363281 29.164062 -50.097656 27.414062 -49.363281 25.425781 C -49.1875 25.511719 -49.015625 25.609375 -48.855469 25.726562 C -47.613281 26.117188 -46.253906 25.773438 -45.34375 24.839844 L -45.210938 24.691406 C -44.953125 24.722656 -44.691406 24.65625 -44.476562 24.511719 C -44.101562 25.691406 -43.179688 26.621094 -42 27 L -40.679688 27.660156 L -39.644531 28.90625 C -39.769531 29.492188 -40.132812 29.996094 -40.648438 30.300781 C -41.160156 30.449219 -41.804688 29.683594 -42.148438 30.464844 C -42.148438 30.554688 -41.460938 31.003906 -41.085938 31.304688 C -40.378906 31.304688 -39.960938 31.050781 -40.351562 30.269531 C -39.390625 30.03125 -38.566406 29.683594 -38.851562 28.441406 L -38.699219 28.441406 C -38.863281 27.300781 -39.375 26.535156 -40.664062 26.640625 C -41.371094 26.414062 -41.28125 25.648438 -41.671875 25.140625 C -41.988281 24.808594 -42.261719 24.433594 -42.480469 24.03125 L -42.316406 23.941406 C -40.890625 23.503906 -40.53125 25.53125 -39.195312 25.289062 L -39.03125 25.214844 L -36.988281 26.519531 C -36.839844 27.089844 -37.246094 27.808594 -36.644531 28.273438 C -36.707031 28.738281 -36.457031 29.191406 -36.03125 29.386719 L -36 29.386719 C -35.863281 29.789062 -35.308594 30.074219 -35.65625 30.613281 C -35.070312 31.246094 -34.664062 31.246094 -34.066406 30.464844 C -33.164062 29.308594 -34.664062 29.085938 -34.726562 28.335938 C -34.019531 27.328125 -32.96875 27.40625 -31.933594 27.375 C -31.53125 27.808594 -31.84375 28.648438 -31.09375 28.875 C -31.09375 29.296875 -31.546875 29.761719 -30.976562 30.121094 C -30.390625 31.363281 -29.476562 31.859375 -28.199219 31.140625 C -28.054688 31.117188 -27.914062 31.074219 -27.78125 31.019531 C -27.046875 31.363281 -26.28125 32.21875 -25.558594 31.019531 C -25.140625 31.5 -24.148438 31.019531 -24.058594 31.921875 C -24.296875 33.597656 -24.976562 35.179688 -26.023438 36.511719 L -26.851562 36.511719 C -27.425781 35.875 -28.359375 35.710938 -29.113281 36.121094 C -30.402344 36.453125 -31.765625 36.363281 -33 35.863281 C -34.230469 35.460938 -35.671875 33.359375 -36.511719 36.285156 C -36.511719 36.433594 -36.585938 36.585938 -36.613281 36.734375 C -38.445312 37.246094 -39.613281 35.804688 -41.113281 35.234375 L -43.800781 34.363281 C -44.324219 34.003906 -44.488281 33.585938 -44.023438 33.058594 C -43.410156 31.816406 -43.828125 31.125 -45.179688 31.109375 C -46.53125 31.09375 -47.445312 31.246094 -48.570312 31.335938 C -50.417969 31.121094 -52.273438 31.660156 -53.714844 32.835938 C -53.761719 32.816406 -53.816406 32.820312 -53.863281 32.839844 C -53.90625 32.863281 -53.941406 32.90625 -53.953125 32.953125 C -54.703125 32.324219 -55.605469 32.714844 -56.429688 32.566406 L -56.429688 32.398438 C -57.40625 32.835938 -57.796875 34.320312 -59.191406 34.019531 C -59.945312 34.882812 -60.277344 36.039062 -60.089844 37.171875 C -60.71875 38.820312 -63.269531 38.671875 -63.421875 40.785156 L -64.273438 41.851562 C -64.402344 41.828125 -64.535156 41.828125 -64.664062 41.851562 C -64.304688 42.945312 -66.164062 43.636719 -65.445312 44.851562 L -65.625 45.285156 C -65.789062 46.648438 -65.355469 48.074219 -66.089844 49.378906 C -66.105469 49.488281 -66.105469 49.601562 -66.089844 49.710938 C -65.308594 50.773438 -65.714844 52.453125 -64.289062 53.191406 C -63.433594 53.640625 -63.089844 54.554688 -62.519531 55.246094 L -61.574219 56.566406 L -61.125 56.566406 C -59.746094 56.925781 -58.726562 58.949219 -56.96875 57.464844 C -55.957031 57.292969 -54.917969 57.445312 -54 57.898438 L -50.308594 56.519531 L -48.464844 56.519531 L -48 57 C -47.878906 58.410156 -46.875 57.855469 -46.109375 57.839844 L -45.660156 57.960938 L -44.773438 58.09375 L -44.339844 58.859375 C -45.03125 61.410156 -45.164062 63.824219 -42.523438 65.460938 C -41.824219 67.328125 -41.484375 69.3125 -41.519531 71.308594 C -42.675781 71.699219 -42.210938 73.003906 -42.855469 73.695312 L -42.855469 74.085938 C -43.230469 76.621094 -41.101562 78.300781 -40.621094 80.535156 C -40.621094 81.046875 -40.800781 81.601562 -40.230469 82.035156 C -40.191406 82.164062 -40.191406 82.296875 -40.230469 82.425781 C -40.890625 83.144531 -40.050781 83.429688 -39.808594 83.925781 C -39 85.425781 -37.859375 86.820312 -37.933594 88.695312 C -37.933594 89.324219 -37.515625 89.640625 -36.945312 89.773438 C -36.988281 89.835938 -36.988281 89.921875 -36.945312 89.984375 L -36.421875 89.984375 L -36.421875 89.789062 C -34.214844 89.101562 -31.425781 90.148438 -29.863281 87.585938 C -28.574219 87.328125 -28.214844 86.175781 -27.585938 85.261719 L -27.210938 85.261719 C -26.527344 84.46875 -26.441406 83.324219 -27 82.441406 C -26.980469 82.347656 -27.03125 82.257812 -27.121094 82.230469 C -26.023438 82.230469 -25.363281 81.375 -24.433594 81.046875 C -24.75 78.75 -25.035156 76.46875 -22.425781 75.195312 C -21.945312 75.25 -21.476562 75.050781 -21.179688 74.671875 L -20.566406 74.203125 C -20.445312 73.589844 -20.339844 72.976562 -20.21875 72.359375 C -19.019531 70.664062 -20.398438 69.164062 -20.578125 67.558594 C -21.226562 66.40625 -20.445312 65.21875 -20.65625 64.050781 C -20.160156 63.238281 -19.15625 62.789062 -18.960938 61.753906 L -18.824219 61.304688 C -17.804688 61.304688 -17.324219 60.316406 -16.558594 59.894531 C -14.816406 58.644531 -13.515625 56.867188 -12.855469 54.824219 C -12.046875 54.179688 -12.511719 53.324219 -12.433594 52.53125 C -14.011719 51.847656 -15.847656 52.175781 -17.085938 53.371094 C -18.136719 52.949219 -18.328125 51.871094 -18.765625 51.015625 L -18.960938 51.015625 C -19.269531 50.503906 -19.722656 50.097656 -20.265625 49.84375 L -21.628906 49.214844 C -21.617188 49.070312 -21.617188 48.925781 -21.628906 48.78125 C -22.375 45.949219 -23.585938 43.261719 -25.214844 40.828125 L -25.726562 39.554688 L -24.75 38.65625 C -24.613281 38.609375 -24.472656 38.582031 -24.328125 38.578125 C -23.734375 40.171875 -22.796875 41.617188 -21.585938 42.808594 C -21.285156 43.558594 -21.585938 44.488281 -20.773438 45.074219 C -20.789062 45.140625 -20.789062 45.207031 -20.773438 45.269531 C -20.746094 46.140625 -20.125 46.875 -19.273438 47.054688 L -19.109375 47.054688 C -18.824219 47.445312 -18.570312 47.863281 -18.359375 48.300781 C -18.457031 48.589844 -18.507812 48.894531 -18.511719 49.199219 C -18.558594 49.523438 -18.445312 49.847656 -18.210938 50.070312 L -17.863281 50.308594 C -17.863281 51.105469 -17.683594 51.71875 -16.710938 51.375 C -15.734375 51.03125 -14.640625 50.535156 -13.621094 50.113281 C -12.136719 49.488281 -10.714844 48.734375 -9.359375 47.863281 L -8.535156 47.863281 L -6.195312 45.105469 C -3.886719 43.246094 -5.878906 42.914062 -7.199219 42.34375 C -7.636719 41.578125 -7.828125 40.09375 -9.03125 41.820312 C -9.570312 42.613281 -10.53125 42.121094 -11.308594 42.390625 C -11.296875 42.519531 -11.296875 42.652344 -11.308594 42.78125 L -11.414062 42.78125 C -11.339844 42.667969 -11.304688 42.539062 -11.308594 42.40625 C -11.308594 41.476562 -11.640625 40.90625 -12.644531 40.90625 C -12.644531 39.511719 -14.023438 38.878906 -14.488281 37.726562 C -14.386719 37.640625 -14.335938 37.511719 -14.355469 37.378906 C -14.238281 37.394531 -14.125 37.335938 -14.070312 37.230469 C -12.808594 36.914062 -12.179688 37.621094 -11.714844 38.640625 C -11.609375 39.074219 -11.265625 39.164062 -10.875 39.195312 C -10.414062 40.039062 -9.371094 40.371094 -8.503906 39.960938 C -8.320312 39.828125 -8.089844 39.777344 -7.867188 39.816406 C -7.644531 39.855469 -7.449219 39.984375 -7.320312 40.171875 C -6.363281 41.257812 -4.882812 41.71875 -3.480469 41.371094 L -0.226562 41.371094 L 0.691406 41.925781 C 0.945312 42.539062 1.453125 43.015625 2.085938 43.230469 C 2.925781 43.621094 1.753906 44.203125 2.234375 44.625 C 2.953125 44.625 3.449219 45.464844 4.246094 45.089844 C 4.417969 44.960938 4.511719 44.75 4.5 44.535156 C 4.621094 44.789062 4.785156 45.015625 4.90625 45.253906 C 4.664062 45.601562 4.816406 46.003906 4.90625 46.394531 C 4.761719 47.59375 5.164062 48.792969 6 49.664062 C 6.210938 51.285156 7.5 52.546875 7.5 54.253906 C 8.101562 54.253906 8.609375 56.21875 9.285156 54.253906 C 10.378906 53.835938 9.886719 52.53125 10.589844 51.886719 C 10.835938 51.644531 10.84375 51.25 10.605469 51 C 10.605469 50.566406 10.605469 50.113281 10.53125 49.664062 C 10.535156 49.605469 10.535156 49.542969 10.53125 49.484375 C 10.683594 49.375 10.816406 49.238281 10.921875 49.078125 C 10.898438 48.972656 10.898438 48.859375 10.921875 48.75 C 11.699219 48.75 12.03125 48.03125 12.628906 47.773438 C 12.703125 47.644531 12.75 47.503906 12.765625 47.355469 C 13.316406 47.25 13.804688 46.945312 14.144531 46.5 C 15.554688 46.15625 15.839844 44.191406 17.476562 44.160156 C 18.34375 44.519531 19.769531 42.554688 20.191406 44.804688 C 20.324219 45.285156 20.730469 45.449219 21.136719 45.628906 C 21.253906 46.214844 21.566406 46.742188 22.019531 47.128906 C 22.019531 47.878906 21.121094 49.214844 23.039062 48.898438 L 23.039062 48.71875 C 24.449219 47.789062 24.75 48.40625 24.539062 49.769531 C 24.105469 50.550781 25.230469 50.910156 25.035156 51.628906 L 25.035156 52.515625 C 25.035156 52.996094 25.035156 53.488281 25.035156 54.015625 C 25.035156 54.539062 24.195312 54.585938 24.929688 55.050781 C 25.746094 55.683594 26.285156 56.609375 26.429688 57.628906 L 26.429688 58.546875 C 27.058594 59.355469 27.71875 60.148438 28.933594 59.910156 C 28.933594 59.011719 29.191406 58.078125 28.589844 57.269531 C 28.460938 56.695312 27.914062 56.316406 27.328125 56.398438 L 27.136719 56.398438 L 25.890625 54.34375 L 25.785156 52.949219 C 25.808594 52.800781 25.8125 52.648438 25.800781 52.5 C 26.324219 50.671875 27.300781 51.136719 27.988281 52.246094 C 28.410156 52.9375 29.148438 53.371094 29.953125 53.398438 C 30.121094 53.925781 29.761719 54.285156 29.519531 54.691406 C 30.855469 54.765625 31.320312 53.488281 32.265625 52.949219 C 33.914062 52.214844 33.539062 50.96875 33.058594 49.710938 C 32.578125 48.449219 30.226562 47.671875 30.871094 45.554688 L 31.800781 44.65625 L 33.148438 44.65625 C 33.222656 44.785156 33.3125 44.90625 33.421875 45.015625 C 33.976562 45.375 32.59375 46.230469 33.765625 46.394531 C 34.933594 46.558594 34.46875 45.765625 34.453125 45.226562 C 34.441406 44.683594 35.234375 44.625 35.488281 44.175781 L 36.855469 43.710938 C 37.078125 43.453125 37.546875 43.5 37.816406 43.289062 C 38.28125 43.441406 38.746094 43.589844 39.148438 43.140625 C 39.15625 43.019531 39.15625 42.898438 39.148438 42.78125 C 41.339844 42.226562 41.445312 39.914062 42.691406 38.566406 C 42.808594 38.128906 43.574219 37.738281 42.78125 37.230469 C 43.238281 36.050781 42.929688 34.710938 42 33.855469 C 41.707031 33.574219 41.539062 33.183594 41.539062 32.773438 C 41.539062 32.367188 41.707031 31.976562 42 31.695312 C 42.390625 31.605469 43.066406 31.695312 42.855469 31.035156 C 42.464844 29.671875 41.59375 31.515625 41.054688 30.824219 C 41.082031 30.695312 41.046875 30.558594 40.964844 30.453125 C 40.878906 30.347656 40.753906 30.285156 40.621094 30.285156 C 40.003906 29.820312 40.199219 29.371094 40.621094 28.949219 C 41.1875 28.867188 41.679688 28.515625 41.941406 28.003906 C 42.359375 27.898438 43.003906 27.285156 43.09375 27.644531 C 43.574219 29.488281 45.988281 28.738281 46.546875 30.34375 C 47.21875 31.140625 46.425781 32.234375 47.085938 33.03125 C 48.808594 33.105469 49.800781 32.625 48.914062 30.675781 L 48.316406 29.878906 C 48.238281 29.386719 47.640625 29.039062 47.925781 28.378906 C 49.199219 28.15625 49.425781 27.046875 49.875 26.101562 L 50.730469 25.679688 L 50.730469 25.558594 L 51.226562 25.558594 C 51.960938 26.070312 52.546875 25.769531 53.070312 25.199219 L 55.199219 23.101562 L 55.5 23.101562 C 56.851562 22.328125 57.8125 21.019531 58.140625 19.5 C 58.117188 18.792969 58.238281 18.089844 58.5 17.429688 C 58.5 17.429688 58.5 17.324219 58.5 17.28125 C 58.539062 17.550781 58.6875 17.792969 58.90625 17.953125 C 58.863281 18.011719 58.863281 18.09375 58.90625 18.148438 L 58.800781 18.148438 C 57.84375 19.289062 57.804688 20.941406 58.710938 22.125 C 58.921875 22.175781 59.144531 22.148438 59.339844 22.050781 C 59.351562 20.867188 59.671875 19.710938 60.269531 18.691406 C 60.3125 18.183594 60.136719 17.679688 59.789062 17.308594 C 59.609375 16.574219 60.300781 15.496094 59.460938 15.105469 C 58.621094 14.714844 59.296875 16.304688 58.441406 16.304688 C 58.214844 15.824219 58.230469 15.226562 57.703125 14.910156 L 57.015625 14.085938 L 56.113281 14.566406 L 55.199219 14.566406 C 54.703125 14.101562 54.058594 13.785156 53.804688 13.066406 L 54.300781 12.660156 L 54.734375 12.195312 L 57.164062 10.5 C 59.039062 8.234375 61.546875 8.398438 64.09375 8.699219 L 64.574219 8.203125 L 65.488281 8.339844 C 65.761719 8.410156 66.019531 8.519531 66.253906 8.671875 C 66.253906 9.238281 66.554688 9.40625 67.304688 9.164062 C 68.054688 8.925781 68.804688 8.835938 68.804688 7.753906 C 69.390625 7.480469 69.84375 6.976562 70.050781 6.359375 L 70.183594 5.910156 L 71.519531 5.714844 C 72.613281 5.488281 72.914062 7.214844 74.128906 6.75 C 75.015625 6.75 75.480469 6.058594 76.125 5.65625 C 75.863281 5.945312 75.792969 6.359375 75.945312 6.71875 C 75.570312 6.570312 75.316406 6.613281 75.210938 6.960938 C 75.03125 6.992188 74.867188 7.070312 74.730469 7.183594 C 74.371094 8.371094 72.886719 8.488281 72.449219 9.601562 C 71.878906 9.734375 71.308594 9.855469 71.085938 10.515625 L 70.621094 11.023438 C 69.121094 11.953125 70.035156 13.410156 69.871094 14.625 C 69.871094 14.789062 69.871094 14.953125 69.765625 15.136719 C 70.230469 15.808594 70.035156 17.175781 71.488281 16.84375 C 72.074219 16.605469 71.953125 16.078125 72 15.613281 L 72.824219 15.539062 C 73.085938 14.9375 73.460938 14.390625 73.933594 13.933594 C 75.121094 13.203125 75.5625 11.695312 74.953125 10.441406 C 74.953125 10.109375 74.070312 9.898438 74.625 9.660156 C 75.539062 9.238281 75.613281 8.339844 76.125 7.726562 C 76.648438 7.726562 77.203125 7.949219 77.625 7.394531 C 77.765625 7.414062 77.902344 7.363281 78 7.261719 C 78.035156 7.179688 78.097656 7.113281 78.179688 7.078125 L 78 7.261719 L 79.394531 7.15625 L 81.238281 7.289062 C 81.804688 7.214844 82.285156 6.84375 82.5 6.316406 C 84 5.96875 85.066406 4.816406 86.65625 4.816406 C 87.210938 4.800781 87.808594 5.101562 88.171875 4.5 Z M -39.511719 50.414062 L -39.839844 50.414062 Z M -35.59375 58.921875 Z M -28.199219 49.214844 Z M -35.578125 49.214844 L -35.699219 49.214844 Z M -40.574219 58.214844 L -40.695312 58.214844 L -40.5 58.214844 Z M -27.71875 58.816406 Z M -60.960938 49.140625 Z M -54 41.371094 Z M -54 49.183594 Z M -53.488281 49.183594 C -53.496094 49.261719 -53.496094 49.335938 -53.488281 49.410156 Z M -54 42.300781 Z M -40.726562 58.5 C -40.621094 58.726562 -40.816406 58.5 -40.726562 58.394531 C -40.730469 58.429688 -40.730469 58.464844 -40.726562 58.5 Z M -27.75 59.25 Z M -44.355469 49.183594 Z M -36.511719 81.945312 Z M 31.066406 -10.351562 C 31.164062 -10.210938 31.28125 -10.085938 31.410156 -9.976562 C 31.144531 -9.839844 30.90625 -9.652344 30.71875 -9.421875 C 30.632812 -9.441406 30.539062 -9.441406 30.449219 -9.421875 C 30.378906 -9.777344 30.535156 -10.140625 30.839844 -10.335938 L 31.066406 -10.335938 Z M -27.734375 -2.023438 Z M -27.734375 -1.546875 Z M 21.644531 -1.679688 L 21.71875 -1.574219 L 21.644531 -1.574219 Z M -2.804688 15.089844 Z M 22.109375 6.300781 Z M 30.390625 24.824219 L 30.480469 24.824219 C 30.449219 24.816406 30.417969 24.816406 30.390625 24.824219 Z M 30.898438 24.734375 Z M 30.898438 6.734375 L 30.898438 6.585938 C 30.882812 6.640625 30.882812 6.695312 30.898438 6.75 Z M 12.898438 15.511719 Z M 30.898438 6.285156 Z M 38.296875 6.285156 Z M -11.566406 6.765625 Z M -2.804688 31.664062 Z M 5.039062 32.128906 L 5.039062 32.011719 L 5.039062 32.203125 Z M 30.898438 32.128906 L 30.976562 32.128906 Z M 54.898438 -1.636719 C 54.898438 -1.636719 54.855469 -1.5 54.855469 -1.589844 Z M 47.488281 -1.5 C 47.488281 -1.5 47.488281 -1.5 47.488281 -1.589844 Z M 38.714844 -1.5 Z M 38.25 -1.5 Z M 5.023438 6.34375 Z M -2.804688 -1.5 L -2.804688 -1.710938 C -2.8125 -1.640625 -2.8125 -1.570312 -2.804688 -1.5 Z M -13.949219 28.921875 C -13.632812 28.652344 -13.4375 28.265625 -13.414062 27.851562 C -13.390625 27.4375 -13.542969 27.03125 -13.828125 26.730469 C -14.417969 26.226562 -14.828125 25.550781 -15 24.796875 C -15 24.328125 -15.164062 23.863281 -15.253906 23.414062 L -14.21875 22.558594 L -11.640625 21.480469 C -10.351562 21.960938 -9.914062 22.53125 -11.460938 23.265625 C -11.925781 23.488281 -12.496094 23.625 -12.195312 24.34375 C -12.34375 25.320312 -10.816406 25.46875 -11.144531 26.519531 C -10.828125 26.863281 -10.605469 26.894531 -10.425781 26.761719 C -10.320312 26.90625 -10.230469 27.0625 -10.15625 27.226562 C -10.363281 27.238281 -10.558594 27.308594 -10.726562 27.433594 C -11.65625 28.679688 -9.71875 28.546875 -9.796875 29.386719 L -9.796875 31.304688 C -9.84375 31.210938 -9.898438 31.121094 -9.960938 31.035156 C -10.660156 30.558594 -11.59375 30.59375 -12.253906 31.125 C -12.382812 31.101562 -12.515625 31.101562 -12.644531 31.125 L -12.886719 31.230469 C -14.011719 30.703125 -13.84375 29.761719 -13.949219 28.921875 Z M 38.25 32.144531 Z M 38.699219 32.144531 Z M 72 -2.039062 C 71.96875 -2.003906 71.945312 -1.964844 71.925781 -1.921875 Z M 71.488281 -5.039062 C 71.308594 -4.949219 71.488281 -5.113281 71.488281 -5.128906 Z M -3.75 32.640625 L -3.75 32.835938 C -3.75 32.761719 -3.75 32.699219 -3.855469 32.640625 Z M -3.75 37.621094 Z M 13.800781 45.511719 Z M 77.023438 5.894531 Z M -30.691406 7.5 L -30.40625 7.5 L -30.511719 7.589844 C -30.71875 7.765625 -30.972656 7.886719 -31.246094 7.933594 C -31.027344 7.835938 -30.835938 7.6875 -30.691406 7.5 Z M -27.496094 27 C -28.207031 26.410156 -29.25 26.453125 -29.910156 27.105469 C -30.074219 25.09375 -28.53125 23.773438 -27.839844 22.109375 C -27.523438 22.738281 -26.851562 22.949219 -26.21875 23.21875 L -26.128906 23.21875 C -26.296875 23.773438 -25.933594 24.03125 -25.335938 24.015625 C -24.992188 23.945312 -24.667969 23.8125 -24.375 23.625 L -25.050781 23.070312 C -24.738281 22.914062 -24.472656 22.675781 -24.285156 22.378906 C -24.230469 22.273438 -24.160156 22.179688 -24.074219 22.09375 C -23.773438 22.0625 -23.480469 21.980469 -23.203125 21.855469 L -22.859375 21.929688 C -22.378906 21.929688 -21.839844 21.929688 -22.394531 22.605469 C -22.417969 22.667969 -22.417969 22.738281 -22.394531 22.800781 C -22.785156 23.160156 -23.550781 23.503906 -22.394531 23.984375 L -22.171875 23.984375 C -22.238281 24.054688 -22.320312 24.109375 -22.410156 24.148438 C -22.363281 24.464844 -22.175781 24.738281 -21.902344 24.898438 C -21.625 25.054688 -21.292969 25.078125 -21 24.960938 C -21.179688 25.859375 -20.609375 26.234375 -19.816406 26.460938 C -19.648438 26.59375 -19.636719 26.25 -19.546875 26.234375 C -19.558594 26.289062 -19.582031 26.34375 -19.621094 26.386719 C -19.671875 26.484375 -19.671875 26.601562 -19.621094 26.699219 C -20.296875 26.566406 -20.535156 27.105469 -20.820312 27.570312 C -21.078125 27.546875 -21.339844 27.546875 -21.601562 27.570312 C -22.484375 27.433594 -23.503906 27.570312 -24.089844 26.730469 C -25.152344 26.078125 -26.507812 26.148438 -27.496094 26.910156 Z M -27.496094 27 "/>
</g>
</g>
<g clip-path="url(#clip15)" clip-rule="nonzero">
<g clip-path="url(#clip16)" clip-rule="nonzero">
<path style=" stroke:none;fill-rule:nonzero;fill:rgb(27.058824%,89.019608%,100%);fill-opacity:1;" d="M 46.09375 66.316406 C 45.03125 65.640625 43.996094 67.289062 42.898438 66.316406 C 42.703125 66.136719 42.316406 66.421875 42.40625 66.808594 C 42.601562 67.828125 43.183594 69.390625 43.753906 69.375 C 45.148438 69.375 46.546875 71.128906 47.925781 69.480469 C 48.316406 67.800781 50.550781 66.480469 49.050781 64.394531 C 48.734375 63.523438 48.148438 63.644531 47.550781 63.988281 C 47.546875 64.84375 47.195312 65.65625 46.574219 66.238281 Z M 46.09375 66.316406 "/>
</g>
</g>
<g clip-path="url(#clip17)" clip-rule="nonzero">
<g clip-path="url(#clip18)" clip-rule="nonzero">
<path style=" stroke:none;fill-rule:nonzero;fill:rgb(27.058824%,89.019608%,100%);fill-opacity:1;" d="M 52.019531 66.75 C 52.875 67.351562 54.015625 67.351562 54.871094 66.75 L 54.871094 65.863281 C 54.074219 66.703125 52.753906 65.804688 52.019531 66.75 Z M 52.019531 66.75 "/>
</g>
</g>
<g clip-path="url(#clip19)" clip-rule="nonzero">
<g clip-path="url(#clip20)" clip-rule="nonzero">
<path style=" stroke:none;fill-rule:nonzero;fill:rgb(27.058824%,89.019608%,100%);fill-opacity:1;" d="M 56.746094 65.910156 C 56.585938 66.570312 56.734375 67.265625 57.148438 67.800781 C 58.289062 66.253906 58.261719 66.105469 56.746094 65.910156 Z M 56.746094 65.910156 "/>
</g>
</g>
<g clip-path="url(#clip21)" clip-rule="nonzero">
<g clip-path="url(#clip22)" clip-rule="nonzero">
<path style=" stroke:none;fill-rule:nonzero;fill:rgb(27.058824%,89.019608%,100%);fill-opacity:1;" d="M 51 71.773438 C 51.523438 71.210938 51.617188 70.367188 51.226562 69.703125 C 51.402344 69.820312 51.613281 69.882812 51.824219 69.886719 C 51.796875 70.09375 51.867188 70.304688 52.019531 70.453125 C 52.351562 70.859375 52.695312 71.023438 53.023438 70.453125 L 52.5 69.523438 C 52.261719 68.941406 52.738281 68.578125 52.964844 68.144531 C 52.378906 67.441406 51.691406 68.59375 51.089844 68.023438 L 51.089844 68.144531 L 51.195312 68.144531 C 49.289062 69.300781 50.609375 70.5 51 71.773438 Z M 51 71.773438 "/>
</g>
</g>
<g clip-path="url(#clip23)" clip-rule="nonzero">
<g clip-path="url(#clip24)" clip-rule="nonzero">
<path style=" stroke:none;fill-rule:nonzero;fill:rgb(27.058824%,89.019608%,100%);fill-opacity:1;" d="M 41.820312 43.320312 C 41.925781 43.535156 42.09375 43.71875 42.300781 43.84375 C 43.050781 43.320312 42.898438 42.34375 43.441406 41.234375 C 42.136719 41.773438 41.566406 42.300781 41.820312 43.320312 Z M 41.820312 43.320312 "/>
</g>
</g>
<g clip-path="url(#clip25)" clip-rule="nonzero">
<g clip-path="url(#clip26)" clip-rule="nonzero">
<path style=" stroke:none;fill-rule:nonzero;fill:rgb(27.058824%,89.019608%,100%);fill-opacity:1;" d="M 37.378906 59.851562 C 38.25 59.851562 38.203125 59.113281 38.28125 58.515625 C 38.984375 57.703125 40.816406 58.980469 40.949219 57.089844 C 40.09375 56.789062 39.328125 55.738281 38.308594 56.773438 L 37.351562 57.988281 C 37.035156 58.320312 36.71875 58.636719 36.421875 58.964844 C 35.671875 59.265625 34.828125 59.429688 34.453125 60.300781 C 35.425781 60.789062 36.601562 60.609375 37.378906 59.851562 Z M 37.378906 59.851562 "/>
</g>
</g>
<g clip-path="url(#clip27)" clip-rule="nonzero">
<g clip-path="url(#clip28)" clip-rule="nonzero">
<path style=" stroke:none;fill-rule:nonzero;fill:rgb(27.058824%,89.019608%,100%);fill-opacity:1;" d="M 56.863281 29.054688 C 56.722656 29.488281 56.542969 29.910156 56.324219 30.316406 L 55.964844 30.839844 C 55.652344 30.6875 55.289062 30.6875 54.976562 30.839844 L 54.285156 32.160156 C 54.164062 32.339844 53.953125 32.429688 53.804688 32.59375 L 51.628906 32.59375 L 51.449219 33 C 50.953125 33.210938 51.046875 33.570312 51.179688 33.960938 C 51.707031 34.320312 52.34375 34.480469 52.980469 34.410156 C 53.335938 34.050781 53.398438 33.492188 53.128906 33.058594 L 53.671875 33.136719 L 53.671875 33.238281 C 53.828125 33.582031 54.140625 33.828125 54.511719 33.898438 C 55.128906 33.414062 55.871094 33.101562 56.65625 33 C 57.226562 32.910156 58.289062 33 58.050781 31.753906 C 58.050781 30.34375 60 29.191406 58.53125 27.613281 C 58.320312 26.773438 58.214844 26.023438 59.488281 26.203125 C 60.765625 26.386719 61.125 25.921875 60.511719 24.703125 L 59.503906 23.488281 C 58.800781 23.488281 58.589844 24.121094 58.363281 24.660156 C 58.351562 24.757812 58.351562 24.859375 58.363281 24.960938 L 58.109375 24.960938 C 57.566406 25.003906 57.085938 25.34375 56.863281 25.84375 C 56.613281 26.472656 56.855469 27.191406 57.433594 27.539062 L 57.585938 27.539062 C 57.234375 27.984375 56.988281 28.5 56.863281 29.054688 Z M 56.863281 29.054688 "/>
</g>
</g>
<g clip-path="url(#clip29)" clip-rule="nonzero">
<g clip-path="url(#clip30)" clip-rule="nonzero">
<path style=" stroke:none;fill-rule:nonzero;fill:rgb(27.058824%,89.019608%,100%);fill-opacity:1;" d="M 49.769531 35.429688 L 50.234375 36.058594 C 50.613281 35.882812 50.890625 35.546875 50.996094 35.144531 C 51.101562 34.742188 51.019531 34.3125 50.773438 33.976562 C 49.621094 33.898438 49.378906 34.5 49.769531 35.429688 Z M 49.769531 35.429688 "/>
</g>
</g>
<g clip-path="url(#clip31)" clip-rule="nonzero">
<g clip-path="url(#clip32)" clip-rule="nonzero">
<path style=" stroke:none;fill-rule:nonzero;fill:rgb(27.058824%,89.019608%,100%);fill-opacity:1;" d="M 46.621094 55.199219 C 46.621094 54.808594 46.621094 54.359375 46.09375 54.226562 L 45.226562 54.886719 C 44.484375 54.609375 43.65625 54.957031 43.335938 55.679688 L 43.785156 55.816406 C 44.25 55.605469 44.640625 55.574219 44.820312 56.175781 C 45 56.773438 45.375 56.488281 45.628906 56.671875 C 45.886719 56.851562 46.15625 56.59375 46.261719 56.296875 C 46.265625 56.246094 46.265625 56.195312 46.261719 56.144531 L 46.5 56.144531 C 46.785156 55.84375 47.265625 55.574219 46.621094 55.199219 Z M 46.621094 55.199219 "/>
</g>
</g>
<g clip-path="url(#clip33)" clip-rule="nonzero">
<g clip-path="url(#clip34)" clip-rule="nonzero">
<path style=" stroke:none;fill-rule:nonzero;fill:rgb(27.058824%,89.019608%,100%);fill-opacity:1;" d="M 42.585938 46.964844 C 42.050781 47.695312 41.839844 48.609375 42 49.5 C 42 49.605469 42.195312 49.695312 42.300781 49.800781 C 42.179688 51.300781 43.425781 51 44.28125 51.179688 C 44.402344 50.753906 44.199219 50.304688 43.800781 50.113281 L 42.929688 49.710938 C 43.066406 49.378906 43.199219 49.035156 43.363281 48.703125 C 43.890625 47.550781 43.214844 46.304688 42.585938 46.964844 Z M 42.585938 46.964844 "/>
</g>
</g>
<g clip-path="url(#clip35)" clip-rule="nonzero">
<g clip-path="url(#clip36)" clip-rule="nonzero">
<path style=" stroke:none;fill-rule:nonzero;fill:rgb(27.058824%,89.019608%,100%);fill-opacity:1;" d="M 44.324219 53.160156 C 43.949219 53.039062 43.816406 53.296875 43.816406 53.625 C 43.863281 53.863281 43.929688 54.101562 44.011719 54.328125 C 44.21875 54.046875 44.398438 53.894531 44.429688 53.714844 C 44.460938 53.535156 44.414062 53.191406 44.324219 53.160156 Z M 44.324219 53.160156 "/>
</g>
</g>
<g clip-path="url(#clip37)" clip-rule="nonzero">
<g clip-path="url(#clip38)" clip-rule="nonzero">
<path style=" stroke:none;fill-rule:nonzero;fill:rgb(27.058824%,89.019608%,100%);fill-opacity:1;" d="M 10.800781 54.210938 C 10.050781 54.058594 10.078125 54.734375 10.078125 55.289062 C 10.039062 55.589844 10.117188 55.898438 10.304688 56.136719 C 10.492188 56.378906 10.769531 56.53125 11.070312 56.566406 C 11.59375 56.566406 11.953125 56.398438 11.894531 55.738281 C 11.566406 55.230469 11.566406 54.34375 10.800781 54.210938 Z M 10.800781 54.210938 "/>
</g>
</g>
</g>
</svg>
