
<svg xmlns="http://www.w3.org/2000/svg" xmlns:xlink="http://www.w3.org/1999/xlink" width="96px" height="96px" viewBox="0 0 96 96" version="1.1">
<defs>
<filter id="alpha" filterUnits="objectBoundingBox" x="0%" y="0%" width="100%" height="100%">
  <feColorMatrix type="matrix" in="SourceGraphic" values="0 0 0 0 1 0 0 0 0 1 0 0 0 0 1 0 0 0 1 0"/>
</filter>
<mask id="mask0">
  <g filter="url(#alpha)">
<rect x="0" y="0" width="96" height="96" style="fill:rgb(0%,0%,0%);fill-opacity:0.788235;stroke:none;"/>
  </g>
</mask>
<linearGradient id="linear0" gradientUnits="userSpaceOnUse" x1="47.45" y1="50.9" x2="26.98" y2="25.86" gradientTransform="matrix(1.5,0,0,1.5,0,0)">
<stop offset="0" style="stop-color:rgb(100%,100%,100%);stop-opacity:0;"/>
<stop offset="1" style="stop-color:rgb(100%,100%,100%);stop-opacity:1;"/>
</linearGradient>
<clipPath id="clip1">
  <rect x="0" y="0" width="96" height="96"/>
</clipPath>
<g id="surface5" clip-path="url(#clip1)">
<path style=" stroke:none;fill-rule:nonzero;fill:url(#linear0);" d="M 44.566406 19.320312 L 51.433594 19.320312 C 51.609375 19.425781 51.792969 19.503906 51.988281 19.558594 C 63.832031 21.164062 73.414062 29.988281 75.988281 41.65625 C 76.214844 42.613281 76.453125 43.589844 76.695312 44.566406 L 76.695312 51.433594 C 76.589844 51.609375 76.507812 51.792969 76.453125 51.988281 C 74.847656 63.832031 66.027344 73.414062 54.359375 75.988281 L 51.449219 76.695312 L 44.566406 76.695312 C 44.390625 76.589844 44.207031 76.507812 44.011719 76.453125 C 32.167969 74.847656 22.585938 66.027344 20.011719 54.359375 C 19.785156 53.398438 19.546875 52.425781 19.304688 51.449219 L 19.304688 44.566406 C 19.410156 44.390625 19.492188 44.207031 19.546875 44.011719 C 21.152344 32.167969 29.972656 22.585938 41.640625 20.011719 Z M 21.808594 46.664062 L 32.878906 46.664062 L 34.378906 34.949219 L 27.074219 32.160156 C 23.792969 36.296875 21.945312 41.386719 21.808594 46.664062 Z M 74.308594 46.664062 C 74.0625 41.386719 72.210938 36.3125 69 32.113281 L 61.621094 34.964844 L 63.121094 46.695312 Z M 32.878906 49.320312 L 21.691406 49.320312 C 21.941406 54.601562 23.792969 59.679688 27 63.886719 L 34.363281 61.035156 Z M 74.308594 49.320312 L 63.121094 49.320312 L 61.621094 61.035156 L 69 63.886719 C 72.199219 59.683594 74.050781 54.609375 74.308594 49.335938 Z M 35.203125 46.769531 C 39.074219 46.769531 42.585938 46.769531 46.09375 46.769531 C 46.414062 46.675781 46.660156 46.429688 46.753906 46.109375 C 46.753906 42.976562 46.753906 39.855469 46.753906 36.734375 L 36.734375 35.609375 Z M 60.796875 49.230469 C 56.953125 49.230469 53.445312 49.230469 49.933594 49.230469 C 49.695312 49.230469 49.261719 49.800781 49.246094 50.113281 C 49.246094 52.019531 49.246094 53.925781 49.246094 55.828125 L 49.246094 59.265625 L 59.28125 60.40625 Z M 59.296875 35.59375 L 49.273438 36.703125 C 49.273438 39.839844 49.273438 43.003906 49.273438 46.171875 C 49.273438 46.378906 49.90625 46.738281 50.25 46.753906 C 52.109375 46.753906 53.984375 46.753906 55.84375 46.753906 L 60.796875 46.753906 Z M 36.796875 60.511719 C 38.699219 60.226562 40.273438 59.96875 41.863281 59.789062 C 43.453125 59.609375 45.121094 59.519531 46.816406 59.386719 C 46.816406 56.144531 46.816406 53.054688 46.816406 49.964844 C 46.816406 49.183594 46.320312 49.214844 45.796875 49.214844 L 35.296875 49.214844 Z M 58.171875 33.328125 C 57.34375 28.921875 52.921875 22.050781 49.171875 22.003906 L 49.171875 34.273438 Z M 37.816406 62.746094 C 38.789062 67.394531 43.261719 74.054688 46.695312 73.964844 L 46.695312 61.828125 C 45.195312 61.933594 43.695312 61.980469 42.300781 62.128906 C 40.90625 62.28125 39.375 62.535156 37.816406 62.746094 Z M 46.695312 21.988281 C 42.691406 22.140625 38.011719 30.269531 37.964844 33.34375 L 46.695312 34.261719 Z M 49.335938 61.738281 L 49.335938 74.054688 C 53.355469 73.648438 57.691406 66.269531 58.09375 62.671875 Z M 55.875 22.921875 L 61.066406 32.578125 L 67.410156 30.179688 C 64.277344 26.777344 60.296875 24.273438 55.875 22.921875 Z M 40.125 73.066406 L 34.933594 63.421875 L 28.589844 65.835938 C 31.722656 69.230469 35.703125 71.726562 40.125 73.066406 Z M 40.125 22.90625 C 35.703125 24.253906 31.730469 26.777344 28.636719 30.210938 L 34.964844 32.550781 Z M 67.5 65.804688 L 61.050781 63.464844 L 55.859375 73.09375 C 60.316406 71.738281 64.335938 69.222656 67.5 65.804688 Z M 67.5 65.804688 "/>
</g>
</defs>
<g id="surface1">
<path style=" stroke:none;fill-rule:nonzero;fill:rgb(36.078431%,41.960784%,75.294118%);fill-opacity:1;" d="M 8.085938 0 L 87.914062 0 C 92.378906 0 96 3.621094 96 8.085938 L 96 87.914062 C 96 92.378906 92.378906 96 87.914062 96 L 8.085938 96 C 3.621094 96 0 92.378906 0 87.914062 L 0 8.085938 C 0 3.621094 3.621094 0 8.085938 0 Z M 8.085938 0 "/>
<use xlink:href="#surface5" mask="url(#mask0)"/>
</g>
</svg>
