
<svg xmlns="http://www.w3.org/2000/svg" xmlns:xlink="http://www.w3.org/1999/xlink" width="96px" height="96px" viewBox="0 0 96 96" version="1.1">
<defs>
<filter id="alpha" filterUnits="objectBoundingBox" x="0%" y="0%" width="100%" height="100%">
  <feColorMatrix type="matrix" in="SourceGraphic" values="0 0 0 0 1 0 0 0 0 1 0 0 0 0 1 0 0 0 1 0"/>
</filter>
<mask id="mask0">
  <g filter="url(#alpha)">
<rect x="0" y="0" width="96" height="96" style="fill:rgb(0%,0%,0%);fill-opacity:0.4;stroke:none;"/>
  </g>
</mask>
<clipPath id="clip1">
  <rect x="0" y="0" width="96" height="96"/>
</clipPath>
<g id="surface5" clip-path="url(#clip1)">
<path style=" stroke:none;fill-rule:nonzero;fill:rgb(100%,100%,100%);fill-opacity:1;" d="M 64.738281 45.359375 C 76.003906 45.359375 85.125 52.664062 85.125 61.664062 C 84.976562 66.402344 82.59375 70.789062 78.703125 73.5 L 78.703125 81.824219 L 70.246094 77.324219 C 68.4375 77.730469 66.59375 77.9375 64.738281 77.941406 C 53.476562 77.941406 44.355469 70.636719 44.355469 61.636719 C 44.355469 52.636719 53.476562 45.359375 64.738281 45.359375 Z M 64.738281 45.359375 "/>
</g>
</defs>
<g id="surface1">
<path style=" stroke:none;fill-rule:nonzero;fill:rgb(49.411765%,34.117647%,76.862745%);fill-opacity:1;" d="M 8.085938 0 L 87.914062 0 C 92.378906 0 96 3.621094 96 8.085938 L 96 87.914062 C 96 92.378906 92.378906 96 87.914062 96 L 8.085938 96 C 3.621094 96 0 92.378906 0 87.914062 L 0 8.085938 C 0 3.621094 3.621094 0 8.085938 0 Z M 8.085938 0 "/>
<use xlink:href="#surface5" mask="url(#mask0)"/>
<path style=" stroke:none;fill-rule:nonzero;fill:rgb(100%,100%,100%);fill-opacity:1;" d="M 82.125 42.660156 C 82.125 26.929688 66.175781 14.175781 46.5 14.175781 C 26.824219 14.175781 10.875 26.929688 10.875 42.660156 C 10.875 58.390625 26.824219 71.144531 46.5 71.144531 C 66.175781 71.144531 82.125 58.390625 82.125 42.660156 Z M 82.125 42.660156 "/>
<path style=" stroke:none;fill-rule:nonzero;fill:rgb(100%,100%,100%);fill-opacity:1;" d="M 22.09375 54.78125 L 22.09375 77.910156 L 43.921875 66.34375 Z M 22.09375 54.78125 "/>
<path style=" stroke:none;fill-rule:nonzero;fill:rgb(63.137255%,38.431373%,96.862745%);fill-opacity:1;" d="M 57.734375 44.863281 L 57.585938 40.363281 C 57.367188 35.300781 53.742188 31.03125 48.78125 30 L 48.78125 26.398438 C 48.78125 25.363281 47.941406 24.523438 46.90625 24.523438 C 45.871094 24.523438 45.03125 25.363281 45.03125 26.398438 L 45.03125 29.804688 C 39.699219 30.507812 35.644531 34.933594 35.414062 40.304688 L 35.265625 44.910156 C 33.351562 45.277344 31.964844 46.949219 31.964844 48.898438 L 31.964844 49.828125 C 31.988281 52.046875 33.785156 53.832031 36 53.851562 L 41.414062 53.851562 C 41.308594 55.9375 42.359375 57.914062 44.152344 58.988281 C 45.941406 60.066406 48.183594 60.066406 49.972656 58.988281 C 51.765625 57.914062 52.816406 55.9375 52.710938 53.851562 L 57 53.851562 C 59.246094 53.851562 61.066406 52.03125 61.066406 49.785156 L 61.066406 48.855469 C 61.0625 46.894531 59.660156 45.21875 57.734375 44.863281 Z M 58.621094 49.785156 C 58.628906 50.6875 57.902344 51.425781 57 51.433594 L 36 51.433594 C 35.089844 51.433594 34.351562 50.695312 34.351562 49.785156 L 34.351562 48.855469 C 34.351562 48.417969 34.523438 48 34.835938 47.695312 C 35.144531 47.386719 35.5625 47.214844 36 47.21875 C 36.878906 47.214844 37.59375 46.519531 37.636719 45.644531 L 37.816406 40.378906 C 38.007812 35.734375 41.828125 32.070312 46.476562 32.070312 C 51.125 32.070312 54.945312 35.734375 55.140625 40.378906 L 55.304688 45.644531 C 55.34375 46.542969 56.101562 47.246094 57 47.21875 C 57.902344 47.21875 58.636719 47.953125 58.636719 48.855469 Z M 58.621094 49.785156 "/>
</g>
</svg>
