
<svg xmlns="http://www.w3.org/2000/svg" xmlns:xlink="http://www.w3.org/1999/xlink" width="96px" height="96px" viewBox="0 0 96 96" version="1.1">
<defs>
<filter id="alpha" filterUnits="objectBoundingBox" x="0%" y="0%" width="100%" height="100%">
  <feColorMatrix type="matrix" in="SourceGraphic" values="0 0 0 0 1 0 0 0 0 1 0 0 0 0 1 0 0 0 1 0"/>
</filter>
<mask id="mask0">
  <g filter="url(#alpha)">
<rect x="0" y="0" width="96" height="96" style="fill:rgb(0%,0%,0%);fill-opacity:0.4;stroke:none;"/>
  </g>
</mask>
<clipPath id="clip1">
  <rect x="0" y="0" width="96" height="96"/>
</clipPath>
<g id="surface5" clip-path="url(#clip1)">
<path style=" stroke:none;fill-rule:nonzero;fill:rgb(100%,100%,100%);fill-opacity:1;" d="M 53.535156 48 C 49.867188 48.039062 46.558594 45.792969 45.246094 42.367188 C 43.933594 38.941406 44.886719 35.058594 47.644531 32.636719 C 50.398438 30.214844 54.371094 29.761719 57.601562 31.5 C 57.894531 27.359375 61.492188 24.238281 65.632812 24.53125 C 69.773438 24.828125 72.894531 28.421875 72.601562 32.566406 C 72.601562 32.699219 72.601562 32.820312 72.601562 32.941406 C 72.902344 32.941406 73.203125 32.960938 73.5 33 C 77.640625 33 81 36.359375 81 40.5 C 81 44.640625 77.640625 48 73.5 48 Z M 53.535156 48 "/>
</g>
</defs>
<g id="surface1">
<path style=" stroke:none;fill-rule:nonzero;fill:rgb(49.411765%,34.117647%,76.862745%);fill-opacity:1;" d="M 8.085938 0 L 87.914062 0 C 92.378906 0 96 3.621094 96 8.085938 L 96 87.914062 C 96 92.378906 92.378906 96 87.914062 96 L 8.085938 96 C 3.621094 96 0 92.378906 0 87.914062 L 0 8.085938 C 0 3.621094 3.621094 0 8.085938 0 Z M 8.085938 0 "/>
<use xlink:href="#surface5" mask="url(#mask0)"/>
<path style=" stroke:none;fill-rule:nonzero;fill:rgb(100%,100%,100%);fill-opacity:1;" d="M 62.863281 70.964844 C 69.210938 70.96875 74.902344 67.046875 77.152344 61.113281 C 79.40625 55.179688 77.753906 48.46875 73 44.261719 C 68.246094 40.054688 61.386719 39.226562 55.769531 42.179688 C 54.835938 35.296875 48.714844 30.324219 41.789062 30.816406 C 34.859375 31.304688 29.503906 37.09375 29.550781 44.039062 C 29.550781 44.25 29.550781 44.460938 29.550781 44.671875 C 29.085938 44.671875 28.605469 44.59375 28.125 44.59375 C 20.84375 44.59375 14.941406 50.5 14.941406 57.78125 C 14.941406 65.0625 20.84375 70.964844 28.125 70.964844 Z M 62.863281 70.964844 "/>
</g>
</svg>
