
<svg xmlns="http://www.w3.org/2000/svg" xmlns:xlink="http://www.w3.org/1999/xlink" width="96px" height="96px" viewBox="0 0 96 96" version="1.1">
<defs>
<filter id="alpha" filterUnits="objectBoundingBox" x="0%" y="0%" width="100%" height="100%">
  <feColorMatrix type="matrix" in="SourceGraphic" values="0 0 0 0 1 0 0 0 0 1 0 0 0 0 1 0 0 0 1 0"/>
</filter>
<mask id="mask0">
  <g filter="url(#alpha)">
<rect x="0" y="0" width="96" height="96" style="fill:rgb(0%,0%,0%);fill-opacity:0.301961;stroke:none;"/>
  </g>
</mask>
<clipPath id="clip1">
  <rect x="0" y="0" width="96" height="96"/>
</clipPath>
<g id="surface5" clip-path="url(#clip1)">
<path style=" stroke:none;fill-rule:nonzero;fill:rgb(100%,100%,100%);fill-opacity:1;" d="M 21.898438 58.035156 L 74.101562 58.035156 C 81.546875 58.035156 87.585938 64.074219 87.585938 71.519531 L 87.585938 73.363281 C 87.585938 80.8125 81.546875 86.851562 74.101562 86.851562 L 21.898438 86.851562 C 14.453125 86.851562 8.414062 80.8125 8.414062 73.363281 L 8.414062 71.519531 C 8.414062 64.074219 14.453125 58.035156 21.898438 58.035156 Z M 21.898438 58.035156 "/>
</g>
</defs>
<g id="surface1">
<path style=" stroke:none;fill-rule:nonzero;fill:rgb(49.411765%,34.117647%,76.862745%);fill-opacity:1;" d="M 8.085938 0 L 87.914062 0 C 92.378906 0 96 3.621094 96 8.085938 L 96 87.914062 C 96 92.378906 92.378906 96 87.914062 96 L 8.085938 96 C 3.621094 96 0 92.378906 0 87.914062 L 0 8.085938 C 0 3.621094 3.621094 0 8.085938 0 Z M 8.085938 0 "/>
<use xlink:href="#surface5" mask="url(#mask0)"/>
<path style=" stroke:none;fill-rule:nonzero;fill:rgb(100%,100%,100%);fill-opacity:1;" d="M 17.625 66.359375 L 25.726562 66.359375 C 27.265625 66.359375 28.515625 67.609375 28.515625 69.148438 L 28.515625 77.25 C 28.515625 78.789062 27.265625 80.039062 25.726562 80.039062 L 17.625 80.039062 C 16.085938 80.039062 14.835938 78.789062 14.835938 77.25 L 14.835938 69.148438 C 14.835938 67.609375 16.085938 66.359375 17.625 66.359375 Z M 17.625 66.359375 "/>
<path style=" stroke:none;fill-rule:nonzero;fill:rgb(100%,100%,100%);fill-opacity:1;" d="M 35.175781 66.359375 L 43.273438 66.359375 C 44.816406 66.359375 46.066406 67.609375 46.066406 69.148438 L 46.066406 77.25 C 46.066406 78.789062 44.816406 80.039062 43.273438 80.039062 L 35.175781 80.039062 C 33.632812 80.039062 32.386719 78.789062 32.386719 77.25 L 32.386719 69.148438 C 32.386719 67.609375 33.632812 66.359375 35.175781 66.359375 Z M 35.175781 66.359375 "/>
<path style=" stroke:none;fill-rule:nonzero;fill:rgb(100%,100%,100%);fill-opacity:1;" d="M 52.726562 66.359375 L 60.824219 66.359375 C 62.367188 66.359375 63.613281 67.609375 63.613281 69.148438 L 63.613281 77.25 C 63.613281 78.789062 62.367188 80.039062 60.824219 80.039062 L 52.726562 80.039062 C 51.183594 80.039062 49.933594 78.789062 49.933594 77.25 L 49.933594 69.148438 C 49.933594 67.609375 51.183594 66.359375 52.726562 66.359375 Z M 52.726562 66.359375 "/>
<path style=" stroke:none;fill-rule:nonzero;fill:rgb(100%,100%,100%);fill-opacity:1;" d="M 70.261719 66.359375 L 78.359375 66.359375 C 79.902344 66.359375 81.148438 67.609375 81.148438 69.148438 L 81.148438 77.25 C 81.148438 78.789062 79.902344 80.039062 78.359375 80.039062 L 70.261719 80.039062 C 68.71875 80.039062 67.46875 78.789062 67.46875 77.25 L 67.46875 69.148438 C 67.46875 67.609375 68.71875 66.359375 70.261719 66.359375 Z M 70.261719 66.359375 "/>
</g>
</svg>
