
<svg xmlns="http://www.w3.org/2000/svg" xmlns:xlink="http://www.w3.org/1999/xlink" width="96px" height="96px" viewBox="0 0 96 96" version="1.1">
<defs>
<linearGradient id="linear0" gradientUnits="userSpaceOnUse" x1="-571.81" y1="-2840.37" x2="-571.81" y2="-2826.56" gradientTransform="matrix(1.06066,-1.06066,1.06066,1.06066,3656.287183,2444.055017)">
<stop offset="0" style="stop-color:rgb(100%,100%,100%);stop-opacity:0;"/>
<stop offset="1" style="stop-color:rgb(100%,100%,100%);stop-opacity:1;"/>
</linearGradient>
</defs>
<g id="surface1">
<path style=" stroke:none;fill-rule:nonzero;fill:rgb(36.078431%,41.960784%,75.294118%);fill-opacity:1;" d="M 8.085938 0 L 87.914062 0 C 92.378906 0 96 3.621094 96 8.085938 L 96 87.914062 C 96 92.378906 92.378906 96 87.914062 96 L 8.085938 96 C 3.621094 96 0 92.378906 0 87.914062 L 0 8.085938 C 0 3.621094 3.621094 0 8.085938 0 Z M 8.085938 0 "/>
<path style=" stroke:none;fill-rule:nonzero;fill:rgb(100%,100%,100%);fill-opacity:1;" d="M 43.816406 23.128906 C 44.75 23.078125 45.667969 23.402344 46.363281 24.03125 L 69 46.664062 L 76.875 54.539062 C 79.441406 57.105469 76.320312 64.363281 69.929688 70.753906 C 65.054688 75.628906 59.671875 78.601562 56.25 78.601562 C 55.3125 78.65625 54.394531 78.332031 53.699219 77.699219 L 23.175781 47.175781 C 20.609375 44.609375 23.714844 37.351562 30.121094 30.945312 C 34.996094 26.070312 40.363281 23.101562 43.785156 23.101562 M 43.785156 20.851562 C 39.613281 20.851562 33.765625 24.105469 28.53125 29.355469 C 22.003906 36 17.519531 44.699219 21.613281 48.796875 L 50.113281 77.296875 L 52.140625 79.320312 C 53.257812 80.363281 54.753906 80.902344 56.28125 80.820312 C 60.449219 80.820312 66.300781 77.566406 71.550781 72.316406 C 74.589844 69.375 77.066406 65.902344 78.855469 62.070312 C 81.148438 56.714844 79.605469 54.03125 78.496094 52.921875 L 70.589844 45 L 48 22.5 C 46.882812 21.457031 45.386719 20.917969 43.859375 21 Z M 43.785156 20.851562 "/>
<path style=" stroke:none;fill-rule:nonzero;fill:url(#linear0);" d="M 23.199219 47.207031 L 46.363281 24.042969 L 64.351562 42.03125 L 41.1875 65.195312 Z M 23.199219 47.207031 "/>
<path style=" stroke:none;fill-rule:nonzero;fill:rgb(100%,100%,100%);fill-opacity:1;" d="M 46.359375 24.027344 C 43.800781 21.464844 36.539062 24.578125 30.140625 30.972656 C 23.746094 37.371094 20.632812 44.632812 23.195312 47.191406 C 25.753906 49.75 33.015625 46.640625 39.410156 40.242188 C 45.808594 33.847656 48.917969 26.585938 46.359375 24.027344 Z M 46.359375 24.027344 "/>
<path style=" stroke:none;fill-rule:nonzero;fill:rgb(70.196078%,70.196078%,70.196078%);fill-opacity:1;" d="M 38.714844 25.671875 C 37.179688 24.136719 32.832031 26 29 29.828125 C 25.167969 33.660156 23.308594 38.011719 24.84375 39.546875 C 26.378906 41.078125 30.726562 39.21875 34.558594 35.386719 C 38.390625 31.554688 40.25 27.207031 38.714844 25.671875 Z M 38.714844 25.671875 "/>
<path style=" stroke:none;fill-rule:nonzero;fill:rgb(100%,100%,100%);fill-opacity:1;" d="M 36.355469 23.453125 C 34.820312 21.917969 30.46875 23.78125 26.640625 27.609375 C 22.808594 31.441406 20.945312 35.792969 22.480469 37.324219 C 24.015625 38.859375 28.367188 37 32.199219 33.167969 C 36.027344 29.335938 37.890625 24.988281 36.355469 23.453125 Z M 36.355469 23.453125 "/>
<path style=" stroke:none;fill-rule:nonzero;fill:rgb(16.078431%,71.372549%,96.470588%);fill-opacity:1;" d="M 45.824219 69.824219 L 53.699219 77.699219 C 56.265625 80.265625 63.523438 77.160156 69.929688 70.753906 C 76.335938 64.351562 79.441406 57.105469 76.875 54.539062 L 69 46.664062 Z M 45.824219 69.824219 "/>
<path style=" stroke:none;fill-rule:nonzero;fill:rgb(100%,100%,100%);fill-opacity:1;" d="M 68.984375 46.671875 C 66.425781 44.113281 59.164062 47.222656 52.765625 53.617188 C 46.371094 60.015625 43.257812 67.277344 45.820312 69.835938 C 48.378906 72.394531 55.640625 69.285156 62.035156 62.890625 C 68.433594 56.492188 71.542969 49.230469 68.984375 46.671875 Z M 68.984375 46.671875 "/>
<path style=" stroke:none;fill-rule:nonzero;fill:rgb(16.078431%,71.372549%,96.470588%);fill-opacity:1;" d="M 35.863281 59.863281 L 43.738281 67.738281 C 46.304688 70.304688 53.566406 67.199219 59.96875 60.796875 C 66.375 54.390625 69.480469 47.144531 66.914062 44.578125 L 59.039062 36.703125 Z M 35.863281 59.863281 "/>
<path style=" stroke:none;fill-rule:nonzero;fill:rgb(100%,100%,100%);fill-opacity:1;" d="M 59.023438 36.710938 C 56.464844 34.152344 49.203125 37.261719 42.804688 43.660156 C 36.410156 50.054688 33.300781 57.316406 35.859375 59.875 C 38.417969 62.4375 45.679688 59.324219 52.078125 52.929688 C 58.472656 46.53125 61.582031 39.269531 59.023438 36.710938 Z M 59.023438 36.710938 "/>
</g>
</svg>
