
<svg xmlns="http://www.w3.org/2000/svg" xmlns:xlink="http://www.w3.org/1999/xlink" width="96px" height="96px" viewBox="0 0 96 96" version="1.1">
<g id="surface1">
<path style=" stroke:none;fill-rule:nonzero;fill:rgb(49.411765%,34.117647%,76.862745%);fill-opacity:1;" d="M 8.085938 0 L 87.914062 0 C 92.378906 0 96 3.621094 96 8.085938 L 96 87.914062 C 96 92.378906 92.378906 96 87.914062 96 L 8.085938 96 C 3.621094 96 0 92.378906 0 87.914062 L 0 8.085938 C 0 3.621094 3.621094 0 8.085938 0 Z M 8.085938 0 "/>
<path style=" stroke:none;fill-rule:nonzero;fill:rgb(92.54902%,25.098039%,47.843137%);fill-opacity:1;" d="M 53.835938 40.335938 C 56.820312 38.382812 58.628906 35.066406 58.648438 31.5 L 58.648438 28.125 C 58.640625 22.246094 53.878906 17.484375 48 17.476562 C 42.121094 17.484375 37.359375 22.246094 37.351562 28.125 L 37.351562 31.5 C 37.355469 35.082031 39.167969 38.417969 42.164062 40.378906 L 42.164062 42.886719 C 42.164062 44.183594 41.464844 45.382812 40.335938 46.019531 L 31.035156 51.269531 C 27.085938 53.496094 24.644531 57.675781 24.644531 62.203125 L 24.644531 66.988281 L 39.285156 66.988281 L 48 60.988281 L 51 61.394531 L 57 66.945312 L 71.429688 66.945312 L 71.429688 62.160156 C 71.429688 57.628906 68.988281 53.449219 65.039062 51.226562 L 55.738281 45.976562 C 54.609375 45.335938 53.910156 44.136719 53.910156 42.839844 L 53.910156 40.335938 "/>
<path style=" stroke:none;fill-rule:nonzero;fill:rgb(100%,100%,100%);fill-opacity:1;" d="M 57.210938 58.90625 L 56.699219 58.90625 L 56.699219 53.910156 C 56.699219 50.757812 54.152344 48.203125 51 48.195312 L 45.390625 48.195312 C 42.238281 48.203125 39.691406 50.757812 39.691406 53.910156 L 39.691406 58.90625 L 38.789062 58.90625 C 38.152344 58.90625 37.539062 59.160156 37.085938 59.613281 C 36.636719 60.066406 36.386719 60.679688 36.390625 61.320312 L 36.390625 76.125 C 36.386719 76.761719 36.636719 77.375 37.089844 77.828125 C 37.539062 78.277344 38.152344 78.527344 38.789062 78.523438 L 57.210938 78.523438 C 58.535156 78.523438 59.609375 77.449219 59.609375 76.125 L 59.609375 61.320312 C 59.609375 59.992188 58.539062 58.914062 57.210938 58.90625 Z M 49.15625 68.59375 L 49.15625 73.5 C 49.15625 74.136719 48.636719 74.65625 48 74.65625 C 47.363281 74.65625 46.84375 74.136719 46.84375 73.5 L 46.84375 68.59375 C 45.480469 68.042969 44.699219 66.601562 44.980469 65.15625 C 45.261719 63.710938 46.527344 62.671875 48 62.671875 C 49.472656 62.671875 50.738281 63.710938 51.019531 65.15625 C 51.300781 66.601562 50.519531 68.042969 49.15625 68.59375 Z M 53.65625 58.90625 L 42.691406 58.90625 L 42.691406 53.910156 C 42.691406 52.417969 43.898438 51.210938 45.390625 51.210938 L 51 51.210938 C 52.492188 51.210938 53.699219 52.417969 53.699219 53.910156 Z M 53.65625 58.90625 "/>
</g>
</svg>
