
<svg xmlns="http://www.w3.org/2000/svg" xmlns:xlink="http://www.w3.org/1999/xlink" width="96px" height="96px" viewBox="0 0 96 96" version="1.1">
<defs>
<filter id="alpha" filterUnits="objectBoundingBox" x="0%" y="0%" width="100%" height="100%">
  <feColorMatrix type="matrix" in="SourceGraphic" values="0 0 0 0 1 0 0 0 0 1 0 0 0 0 1 0 0 0 1 0"/>
</filter>
<mask id="mask0">
  <g filter="url(#alpha)">
<rect x="0" y="0" width="96" height="96" style="fill:rgb(0%,0%,0%);fill-opacity:0.301961;stroke:none;"/>
  </g>
</mask>
<clipPath id="clip1">
  <rect x="0" y="0" width="96" height="96"/>
</clipPath>
<g id="surface5" clip-path="url(#clip1)">
<path style=" stroke:none;fill-rule:nonzero;fill:rgb(100%,100%,100%);fill-opacity:1;" d="M 24.734375 63.644531 L 71.28125 63.644531 C 76.832031 63.644531 81.328125 68.144531 81.328125 73.695312 C 81.328125 79.246094 76.832031 83.746094 71.28125 83.746094 L 24.734375 83.746094 C 19.183594 83.746094 14.683594 79.246094 14.683594 73.695312 C 14.683594 68.144531 19.183594 63.644531 24.734375 63.644531 Z M 24.734375 63.644531 "/>
</g>
</defs>
<g id="surface1">
<path style=" stroke:none;fill-rule:nonzero;fill:rgb(49.411765%,34.117647%,76.862745%);fill-opacity:1;" d="M 8.085938 0 L 87.914062 0 C 92.378906 0 96 3.621094 96 8.085938 L 96 87.914062 C 96 92.378906 92.378906 96 87.914062 96 L 8.085938 96 C 3.621094 96 0 92.378906 0 87.914062 L 0 8.085938 C 0 3.621094 3.621094 0 8.085938 0 Z M 8.085938 0 "/>
<path style=" stroke:none;fill-rule:nonzero;fill:rgb(100%,100%,100%);fill-opacity:1;" d="M 52.050781 34.003906 C 54.132812 32.636719 55.390625 30.316406 55.394531 27.824219 L 55.394531 25.5 C 55.371094 21.429688 52.070312 18.144531 48 18.136719 C 43.929688 18.144531 40.628906 21.429688 40.605469 25.5 L 40.605469 27.796875 C 40.609375 30.285156 41.867188 32.609375 43.949219 33.976562 L 43.949219 35.714844 C 43.949219 36.617188 43.460938 37.449219 42.675781 37.890625 L 36.226562 41.519531 C 33.460938 43.046875 31.738281 45.953125 31.726562 49.109375 L 31.726562 52.5 L 64.214844 52.5 L 64.214844 49.140625 C 64.203125 45.980469 62.480469 43.078125 59.714844 41.550781 L 53.265625 37.921875 C 52.480469 37.476562 51.996094 36.644531 51.988281 35.746094 L 51.988281 34.003906 "/>
<use xlink:href="#surface5" mask="url(#mask0)"/>
<path style=" stroke:none;fill-rule:nonzero;fill:rgb(100%,100%,100%);fill-opacity:1;" d="M 28.695312 73.695312 C 28.695312 75.019531 27.621094 76.09375 26.296875 76.09375 C 24.96875 76.09375 23.894531 75.019531 23.894531 73.695312 C 23.894531 72.371094 24.96875 71.296875 26.296875 71.296875 C 27.621094 71.296875 28.695312 72.371094 28.695312 73.695312 Z M 28.695312 73.695312 "/>
<path style=" stroke:none;fill-rule:nonzero;fill:rgb(100%,100%,100%);fill-opacity:1;" d="M 36.511719 73.695312 C 36.511719 75.019531 35.433594 76.09375 34.109375 76.09375 C 32.785156 76.09375 31.710938 75.019531 31.710938 73.695312 C 31.710938 72.371094 32.785156 71.296875 34.109375 71.296875 C 35.433594 71.296875 36.511719 72.371094 36.511719 73.695312 Z M 36.511719 73.695312 "/>
<path style=" stroke:none;fill-rule:nonzero;fill:rgb(100%,100%,100%);fill-opacity:1;" d="M 44.324219 73.695312 C 44.324219 75.019531 43.25 76.09375 41.925781 76.09375 C 40.597656 76.09375 39.523438 75.019531 39.523438 73.695312 C 39.523438 72.371094 40.597656 71.296875 41.925781 71.296875 C 43.25 71.296875 44.324219 72.371094 44.324219 73.695312 Z M 44.324219 73.695312 "/>
<path style=" stroke:none;fill-rule:nonzero;fill:rgb(100%,100%,100%);fill-opacity:1;" d="M 52.15625 73.695312 C 52.15625 75.019531 51.082031 76.09375 49.753906 76.09375 C 48.429688 76.09375 47.355469 75.019531 47.355469 73.695312 C 47.355469 72.371094 48.429688 71.296875 49.753906 71.296875 C 51.082031 71.296875 52.15625 72.371094 52.15625 73.695312 Z M 52.15625 73.695312 "/>
<path style=" stroke:none;fill-rule:nonzero;fill:rgb(100%,100%,100%);fill-opacity:1;" d="M 59.96875 73.695312 C 59.96875 75.019531 58.894531 76.09375 57.570312 76.09375 C 56.246094 76.09375 55.171875 75.019531 55.171875 73.695312 C 55.171875 72.371094 56.246094 71.296875 57.570312 71.296875 C 58.894531 71.296875 59.96875 72.371094 59.96875 73.695312 Z M 59.96875 73.695312 "/>
</g>
</svg>
