
<svg xmlns="http://www.w3.org/2000/svg" xmlns:xlink="http://www.w3.org/1999/xlink" width="96px" height="96px" viewBox="0 0 96 96" version="1.1">
<defs>
<filter id="alpha" filterUnits="objectBoundingBox" x="0%" y="0%" width="100%" height="100%">
  <feColorMatrix type="matrix" in="SourceGraphic" values="0 0 0 0 1 0 0 0 0 1 0 0 0 0 1 0 0 0 1 0"/>
</filter>
<mask id="mask0">
  <g filter="url(#alpha)">
<rect x="0" y="0" width="96" height="96" style="fill:rgb(0%,0%,0%);fill-opacity:0.690196;stroke:none;"/>
  </g>
</mask>
<clipPath id="clip1">
  <rect x="0" y="0" width="96" height="96"/>
</clipPath>
<g id="surface5" clip-path="url(#clip1)">
<path style=" stroke:none;fill-rule:nonzero;fill:rgb(100%,100%,100%);fill-opacity:1;" d="M 56.386719 29.414062 C 55.394531 28.445312 53.808594 28.460938 52.835938 29.453125 C 51.867188 30.441406 51.886719 32.03125 52.875 33 C 61.203125 41.324219 61.203125 54.824219 52.875 63.148438 C 51.910156 64.121094 51.910156 65.6875 52.875 66.660156 C 53.839844 67.625 55.402344 67.625 56.371094 66.660156 C 66.664062 56.382812 66.671875 39.703125 56.386719 29.414062 Z M 56.386719 29.414062 "/>
</g>
<mask id="mask1">
  <g filter="url(#alpha)">
<rect x="0" y="0" width="96" height="96" style="fill:rgb(0%,0%,0%);fill-opacity:0.419608;stroke:none;"/>
  </g>
</mask>
<clipPath id="clip2">
  <rect x="0" y="0" width="96" height="96"/>
</clipPath>
<g id="surface8" clip-path="url(#clip2)">
<path style=" stroke:none;fill-rule:nonzero;fill:rgb(100%,100%,100%);fill-opacity:1;" d="M 61.996094 23.804688 C 61.027344 22.839844 59.457031 22.84375 58.492188 23.8125 C 57.527344 24.78125 57.53125 26.351562 58.5 27.316406 C 69.917969 38.742188 69.917969 57.257812 58.5 68.683594 C 57.789062 69.394531 57.574219 70.460938 57.960938 71.386719 C 58.34375 72.316406 59.25 72.917969 60.253906 72.914062 C 60.914062 72.917969 61.542969 72.660156 62.011719 72.195312 C 75.34375 58.820312 75.339844 37.171875 61.996094 23.804688 Z M 61.996094 23.804688 "/>
</g>
</defs>
<g id="surface1">
<path style=" stroke:none;fill-rule:nonzero;fill:rgb(36.078431%,41.960784%,75.294118%);fill-opacity:1;" d="M 8.085938 0 L 87.914062 0 C 92.378906 0 96 3.621094 96 8.085938 L 96 87.914062 C 96 92.378906 92.378906 96 87.914062 96 L 8.085938 96 C 3.621094 96 0 92.378906 0 87.914062 L 0 8.085938 C 0 3.621094 3.621094 0 8.085938 0 Z M 8.085938 0 "/>
<path style=" stroke:none;fill-rule:nonzero;fill:rgb(100%,100%,100%);fill-opacity:1;" d="M 50.835938 34.964844 C 49.867188 33.996094 48.292969 33.996094 47.324219 34.964844 C 46.355469 35.933594 46.355469 37.503906 47.324219 38.476562 C 52.570312 43.742188 52.570312 52.257812 47.324219 57.523438 C 46.613281 58.234375 46.398438 59.300781 46.785156 60.226562 C 47.167969 61.15625 48.074219 61.757812 49.078125 61.753906 C 49.738281 61.757812 50.371094 61.5 50.835938 61.035156 C 58.015625 53.828125 58.015625 42.171875 50.835938 34.964844 Z M 50.835938 34.964844 "/>
<use xlink:href="#surface5" mask="url(#mask0)"/>
<use xlink:href="#surface8" mask="url(#mask1)"/>
<path style=" stroke:none;fill-rule:nonzero;fill:rgb(100%,100%,100%);fill-opacity:1;" d="M 42.839844 31.621094 C 42 31.199219 40.992188 31.289062 40.246094 31.859375 L 33.644531 36.839844 L 26.476562 36.839844 C 25.816406 36.839844 25.183594 37.101562 24.71875 37.570312 C 24.253906 38.039062 23.996094 38.671875 24 39.328125 L 24 56.671875 C 24 58.035156 25.109375 59.144531 26.476562 59.144531 L 33.644531 59.144531 L 40.246094 64.140625 C 40.675781 64.46875 41.203125 64.648438 41.746094 64.648438 C 42.132812 64.648438 42.511719 64.558594 42.855469 64.378906 C 43.699219 63.960938 44.230469 63.101562 44.234375 62.160156 L 44.234375 33.839844 C 44.230469 32.894531 43.691406 32.03125 42.839844 31.621094 Z M 42.839844 31.621094 "/>
</g>
</svg>
