
<svg xmlns="http://www.w3.org/2000/svg" xmlns:xlink="http://www.w3.org/1999/xlink" width="96px" height="96px" viewBox="0 0 96 96" version="1.1">
<g id="surface1">
<path style=" stroke:none;fill-rule:nonzero;fill:rgb(49.411765%,34.117647%,76.862745%);fill-opacity:1;" d="M 8.085938 0 L 87.914062 0 C 92.378906 0 96 3.621094 96 8.085938 L 96 87.914062 C 96 92.378906 92.378906 96 87.914062 96 L 8.085938 96 C 3.621094 96 0 92.378906 0 87.914062 L 0 8.085938 C 0 3.621094 3.621094 0 8.085938 0 Z M 8.085938 0 "/>
<path style=" stroke:none;fill-rule:nonzero;fill:rgb(100%,100%,100%);fill-opacity:1;" d="M 77.65625 76.859375 L 27.121094 76.859375 C 25.628906 76.859375 24.421875 75.652344 24.421875 74.160156 L 24.421875 31.273438 C 24.421875 29.785156 25.628906 28.574219 27.121094 28.574219 L 77.65625 28.574219 C 79.144531 28.574219 80.355469 29.785156 80.355469 31.273438 L 80.355469 74.160156 C 80.355469 75.652344 79.144531 76.859375 77.65625 76.859375 Z M 77.65625 76.859375 "/>
<path style=" stroke:none;fill-rule:nonzero;fill:rgb(92.54902%,25.098039%,47.843137%);fill-opacity:1;" d="M 27.136719 27.328125 L 77.65625 27.328125 C 79.84375 27.328125 81.613281 29.101562 81.613281 31.289062 L 81.613281 74.160156 C 81.605469 76.339844 79.835938 78.105469 77.65625 78.105469 L 27.136719 78.105469 C 24.957031 78.105469 23.191406 76.339844 23.191406 74.160156 L 23.191406 31.289062 C 23.191406 29.109375 24.953125 27.339844 27.136719 27.328125 Z M 77.65625 75.613281 C 78.484375 75.613281 79.15625 74.945312 79.15625 74.113281 L 79.15625 31.289062 C 79.15625 30.460938 78.484375 29.789062 77.65625 29.789062 L 27.136719 29.789062 C 26.304688 29.789062 25.636719 30.460938 25.636719 31.289062 L 25.636719 74.160156 C 25.636719 74.988281 26.304688 75.660156 27.136719 75.660156 Z M 77.65625 75.613281 "/>
<path style=" stroke:none;fill-rule:nonzero;fill:rgb(100%,100%,100%);fill-opacity:1;" d="M 68.863281 67.425781 L 18.328125 67.425781 C 16.839844 67.425781 15.628906 66.214844 15.628906 64.726562 L 15.628906 21.839844 C 15.628906 20.347656 16.839844 19.140625 18.328125 19.140625 L 68.863281 19.140625 C 70.355469 19.140625 71.566406 20.347656 71.566406 21.839844 L 71.566406 64.726562 C 71.566406 66.214844 70.355469 67.425781 68.863281 67.425781 Z M 68.863281 67.425781 "/>
<path style=" stroke:none;fill-rule:nonzero;fill:rgb(92.54902%,25.098039%,47.843137%);fill-opacity:1;" d="M 18.34375 17.894531 L 68.863281 17.894531 C 71.042969 17.894531 72.808594 19.660156 72.808594 21.839844 L 72.808594 64.710938 C 72.808594 66.890625 71.046875 68.660156 68.863281 68.671875 L 18.34375 68.671875 C 16.15625 68.671875 14.386719 66.898438 14.386719 64.710938 L 14.386719 21.839844 C 14.394531 19.660156 16.164062 17.894531 18.34375 17.894531 Z M 68.863281 66.164062 C 69.695312 66.164062 70.363281 65.492188 70.363281 64.664062 L 70.363281 21.839844 C 70.363281 21.011719 69.695312 20.339844 68.863281 20.339844 L 18.34375 20.339844 C 17.515625 20.339844 16.84375 21.011719 16.84375 21.839844 L 16.84375 64.710938 C 16.84375 65.539062 17.515625 66.210938 18.34375 66.210938 Z M 68.863281 66.164062 "/>
<path style=" stroke:none;fill-rule:nonzero;fill:rgb(92.54902%,25.098039%,47.843137%);fill-opacity:1;" d="M 72.464844 24.691406 L 14.863281 24.691406 L 14.863281 21.570312 C 14.863281 19.847656 16.261719 18.449219 17.984375 18.449219 L 69.328125 18.449219 C 71.054688 18.449219 72.449219 19.847656 72.449219 21.570312 L 72.449219 24.691406 Z M 72.464844 24.691406 "/>
<path style=" stroke:none;fill-rule:nonzero;fill:rgb(100%,100%,100%);fill-opacity:1;" d="M 58.09375 21.660156 C 58.09375 22.703125 57.25 23.550781 56.203125 23.550781 C 55.160156 23.550781 54.316406 22.703125 54.316406 21.660156 C 54.316406 20.617188 55.160156 19.769531 56.203125 19.769531 C 57.25 19.769531 58.09375 20.617188 58.09375 21.660156 Z M 58.09375 21.660156 "/>
<path style=" stroke:none;fill-rule:nonzero;fill:rgb(100%,100%,100%);fill-opacity:1;" d="M 64.394531 21.660156 C 64.394531 22.703125 63.546875 23.550781 62.503906 23.550781 C 61.460938 23.550781 60.613281 22.703125 60.613281 21.660156 C 60.613281 20.617188 61.460938 19.769531 62.503906 19.769531 C 63.546875 19.769531 64.394531 20.617188 64.394531 21.660156 Z M 64.394531 21.660156 "/>
<path style=" stroke:none;fill-rule:nonzero;fill:rgb(100%,100%,100%);fill-opacity:1;" d="M 70.710938 21.660156 C 70.710938 22.703125 69.863281 23.550781 68.820312 23.550781 C 67.777344 23.550781 66.929688 22.703125 66.929688 21.660156 C 66.929688 20.617188 67.777344 19.769531 68.820312 19.769531 C 69.863281 19.769531 70.710938 20.617188 70.710938 21.660156 Z M 70.710938 21.660156 "/>
</g>
</svg>
