
<svg xmlns="http://www.w3.org/2000/svg" xmlns:xlink="http://www.w3.org/1999/xlink" width="96px" height="96px" viewBox="0 0 96 96" version="1.1">
<defs>
<clipPath id="clip1">
  <path d="M 7 0 L 43 0 L 43 96 L 7 96 Z M 7 0 "/>
</clipPath>
<clipPath id="clip2">
  <path d="M 8.085938 0 L 87.914062 0 C 92.378906 0 96 3.621094 96 8.085938 L 96 87.914062 C 96 92.378906 92.378906 96 87.914062 96 L 8.085938 96 C 3.621094 96 0 92.378906 0 87.914062 L 0 8.085938 C 0 3.621094 3.621094 0 8.085938 0 Z M 8.085938 0 "/>
</clipPath>
<clipPath id="clip3">
  <path d="M 25 0 L 71 0 L 71 96 L 25 96 Z M 25 0 "/>
</clipPath>
<clipPath id="clip4">
  <path d="M 8.085938 0 L 87.914062 0 C 92.378906 0 96 3.621094 96 8.085938 L 96 87.914062 C 96 92.378906 92.378906 96 87.914062 96 L 8.085938 96 C 3.621094 96 0 92.378906 0 87.914062 L 0 8.085938 C 0 3.621094 3.621094 0 8.085938 0 Z M 8.085938 0 "/>
</clipPath>
<clipPath id="clip5">
  <path d="M 53 0 L 88 0 L 88 96 L 53 96 Z M 53 0 "/>
</clipPath>
<clipPath id="clip6">
  <path d="M 8.085938 0 L 87.914062 0 C 92.378906 0 96 3.621094 96 8.085938 L 96 87.914062 C 96 92.378906 92.378906 96 87.914062 96 L 8.085938 96 C 3.621094 96 0 92.378906 0 87.914062 L 0 8.085938 C 0 3.621094 3.621094 0 8.085938 0 Z M 8.085938 0 "/>
</clipPath>
<clipPath id="clip7">
  <path d="M 41 8 L 56 8 L 56 96 L 41 96 Z M 41 8 "/>
</clipPath>
<clipPath id="clip8">
  <path d="M 8.085938 0 L 87.914062 0 C 92.378906 0 96 3.621094 96 8.085938 L 96 87.914062 C 96 92.378906 92.378906 96 87.914062 96 L 8.085938 96 C 3.621094 96 0 92.378906 0 87.914062 L 0 8.085938 C 0 3.621094 3.621094 0 8.085938 0 Z M 8.085938 0 "/>
</clipPath>
<clipPath id="clip9">
  <path d="M 55 7 L 56 7 L 56 9 L 55 9 Z M 55 7 "/>
</clipPath>
<clipPath id="clip10">
  <path d="M 8.085938 0 L 87.914062 0 C 92.378906 0 96 3.621094 96 8.085938 L 96 87.914062 C 96 92.378906 92.378906 96 87.914062 96 L 8.085938 96 C 3.621094 96 0 92.378906 0 87.914062 L 0 8.085938 C 0 3.621094 3.621094 0 8.085938 0 Z M 8.085938 0 "/>
</clipPath>
<clipPath id="clip11">
  <path d="M 39 6 L 56 6 L 56 96 L 39 96 Z M 39 6 "/>
</clipPath>
<clipPath id="clip12">
  <path d="M 8.085938 0 L 87.914062 0 C 92.378906 0 96 3.621094 96 8.085938 L 96 87.914062 C 96 92.378906 92.378906 96 87.914062 96 L 8.085938 96 C 3.621094 96 0 92.378906 0 87.914062 L 0 8.085938 C 0 3.621094 3.621094 0 8.085938 0 Z M 8.085938 0 "/>
</clipPath>
<clipPath id="clip13">
  <path d="M 40 7 L 56 7 L 56 96 L 40 96 Z M 40 7 "/>
</clipPath>
<clipPath id="clip14">
  <path d="M 8.085938 0 L 87.914062 0 C 92.378906 0 96 3.621094 96 8.085938 L 96 87.914062 C 96 92.378906 92.378906 96 87.914062 96 L 8.085938 96 C 3.621094 96 0 92.378906 0 87.914062 L 0 8.085938 C 0 3.621094 3.621094 0 8.085938 0 Z M 8.085938 0 "/>
</clipPath>
<clipPath id="clip15">
  <path d="M 31 0 L 65 0 L 65 17 L 31 17 Z M 31 0 "/>
</clipPath>
<clipPath id="clip16">
  <path d="M 8.085938 0 L 87.914062 0 C 92.378906 0 96 3.621094 96 8.085938 L 96 87.914062 C 96 92.378906 92.378906 96 87.914062 96 L 8.085938 96 C 3.621094 96 0 92.378906 0 87.914062 L 0 8.085938 C 0 3.621094 3.621094 0 8.085938 0 Z M 8.085938 0 "/>
</clipPath>
<clipPath id="clip17">
  <path d="M 45 30 L 50 30 L 50 35 L 45 35 Z M 45 30 "/>
</clipPath>
<clipPath id="clip18">
  <path d="M 8.085938 0 L 87.914062 0 C 92.378906 0 96 3.621094 96 8.085938 L 96 87.914062 C 96 92.378906 92.378906 96 87.914062 96 L 8.085938 96 C 3.621094 96 0 92.378906 0 87.914062 L 0 8.085938 C 0 3.621094 3.621094 0 8.085938 0 Z M 8.085938 0 "/>
</clipPath>
<linearGradient id="linear0" gradientUnits="userSpaceOnUse" x1="30.56" y1="21.72" x2="33.25" y2="21.72" gradientTransform="matrix(1.5,0,0,1.5,0,0)">
<stop offset="0" style="stop-color:rgb(25.490196%,74.117647%,83.137255%);stop-opacity:1;"/>
<stop offset="1" style="stop-color:rgb(50.980392%,32.54902%,83.921569%);stop-opacity:1;"/>
</linearGradient>
<clipPath id="clip19">
  <path d="M 45 62 L 50 62 L 50 67 L 45 67 Z M 45 62 "/>
</clipPath>
<clipPath id="clip20">
  <path d="M 8.085938 0 L 87.914062 0 C 92.378906 0 96 3.621094 96 8.085938 L 96 87.914062 C 96 92.378906 92.378906 96 87.914062 96 L 8.085938 96 C 3.621094 96 0 92.378906 0 87.914062 L 0 8.085938 C 0 3.621094 3.621094 0 8.085938 0 Z M 8.085938 0 "/>
</clipPath>
<linearGradient id="linear1" gradientUnits="userSpaceOnUse" x1="30.56" y1="42.73" x2="33.25" y2="42.73" gradientTransform="matrix(1.5,0,0,1.5,0,0)">
<stop offset="0" style="stop-color:rgb(25.490196%,74.117647%,83.137255%);stop-opacity:1;"/>
<stop offset="1" style="stop-color:rgb(50.980392%,32.54902%,83.921569%);stop-opacity:1;"/>
</linearGradient>
</defs>
<g id="surface1">
<path style=" stroke:none;fill-rule:nonzero;fill:rgb(32.941176%,29.803922%,40.784314%);fill-opacity:1;" d="M 8.085938 0 L 87.914062 0 C 92.378906 0 96 3.621094 96 8.085938 L 96 87.914062 C 96 92.378906 92.378906 96 87.914062 96 L 8.085938 96 C 3.621094 96 0 92.378906 0 87.914062 L 0 8.085938 C 0 3.621094 3.621094 0 8.085938 0 Z M 8.085938 0 "/>
<g clip-path="url(#clip1)" clip-rule="nonzero">
<g clip-path="url(#clip2)" clip-rule="nonzero">
<path style=" stroke:none;fill-rule:nonzero;fill:rgb(79.607843%,79.607843%,79.607843%);fill-opacity:1;" d="M 24.914062 0 C 18.554688 0 12 -9.105469 7.605469 -5.191406 C 8.625 13.304688 13.066406 68.460938 25.5 96 L 42.496094 96 C 28.246094 64.5 25.5 11.851562 25.050781 0 Z M 24.914062 0 "/>
</g>
</g>
<g clip-path="url(#clip3)" clip-rule="nonzero">
<g clip-path="url(#clip4)" clip-rule="nonzero">
<path style=" stroke:none;fill-rule:nonzero;fill:rgb(96.862745%,96.862745%,96.862745%);fill-opacity:1;" d="M 25.050781 0 C 25.5 11.851562 28.246094 64.5 42.496094 96 L 53.503906 96 C 67.753906 64.5 70.5 11.851562 70.949219 0 Z M 25.050781 0 "/>
</g>
</g>
<g clip-path="url(#clip5)" clip-rule="nonzero">
<g clip-path="url(#clip6)" clip-rule="nonzero">
<path style=" stroke:none;fill-rule:nonzero;fill:rgb(79.607843%,79.607843%,79.607843%);fill-opacity:1;" d="M 71.085938 0 L 70.949219 0 C 70.5 11.851562 67.753906 64.5 53.503906 96 L 70.5 96 C 82.933594 68.460938 87 18.148438 87.988281 -0.34375 C 83.59375 -4.246094 77.445312 0 71.085938 0 Z M 71.085938 0 "/>
</g>
</g>
<g clip-path="url(#clip7)" clip-rule="nonzero">
<g clip-path="url(#clip8)" clip-rule="nonzero">
<path style=" stroke:none;fill-rule:nonzero;fill:rgb(94.509804%,94.509804%,94.509804%);fill-opacity:1;" d="M 43.066406 96 L 53.863281 96 L 55.921875 8.355469 L 41.011719 8.355469 Z M 43.066406 96 "/>
</g>
</g>
<g clip-path="url(#clip9)" clip-rule="nonzero">
<g clip-path="url(#clip10)" clip-rule="nonzero">
<path style=" stroke:none;fill-rule:nonzero;fill:rgb(89.803922%,89.803922%,89.803922%);fill-opacity:1;" d="M 55.933594 8.355469 L 55.933594 7.546875 L 55.921875 8.355469 Z M 55.933594 8.355469 "/>
</g>
</g>
<g clip-path="url(#clip11)" clip-rule="nonzero">
<g clip-path="url(#clip12)" clip-rule="nonzero">
<path style=" stroke:none;fill-rule:nonzero;fill:rgb(89.803922%,89.803922%,89.803922%);fill-opacity:1;" d="M 40.183594 7.546875 L 55.933594 7.546875 L 55.933594 6.734375 L 39.359375 6.734375 L 41.460938 96 L 42.269531 96 Z M 40.183594 7.546875 "/>
</g>
</g>
<g clip-path="url(#clip13)" clip-rule="nonzero">
<g clip-path="url(#clip14)" clip-rule="nonzero">
<path style=" stroke:none;fill-rule:nonzero;fill:rgb(89.803922%,89.803922%,89.803922%);fill-opacity:1;" d="M 42.269531 96 L 43.066406 96 L 41.011719 8.355469 L 55.921875 8.355469 L 55.933594 7.546875 L 40.183594 7.546875 Z M 42.269531 96 "/>
</g>
</g>
<g clip-path="url(#clip15)" clip-rule="nonzero">
<g clip-path="url(#clip16)" clip-rule="nonzero">
<path style=" stroke:none;fill-rule:nonzero;fill:rgb(92.54902%,25.098039%,47.843137%);fill-opacity:1;" d="M 64.769531 1.574219 C 64.769531 1.304688 64.625 1.050781 64.394531 0.910156 C 64.160156 0.769531 63.871094 0.757812 63.628906 0.886719 L 51.375 3.886719 C 51.082031 2.9375 50.207031 2.289062 49.214844 2.28125 L 46.214844 2.28125 C 45.316406 2.289062 44.507812 2.816406 44.128906 3.628906 L 32.371094 0.886719 C 32.128906 0.757812 31.839844 0.769531 31.605469 0.910156 C 31.375 1.050781 31.230469 1.304688 31.230469 1.574219 L 31.230469 15.390625 C 31.230469 15.664062 31.375 15.914062 31.605469 16.054688 C 31.839844 16.195312 32.128906 16.207031 32.371094 16.078125 L 44.578125 9.496094 C 45.007812 9.960938 45.613281 10.230469 46.246094 10.230469 L 49.246094 10.230469 C 49.945312 10.203125 50.59375 9.855469 51 9.285156 L 63.585938 16.078125 C 63.828125 16.207031 64.117188 16.195312 64.347656 16.054688 C 64.582031 15.914062 64.722656 15.664062 64.726562 15.390625 Z M 64.769531 1.574219 "/>
</g>
</g>
<g clip-path="url(#clip17)" clip-rule="nonzero">
<g clip-path="url(#clip18)" clip-rule="nonzero">
<path style=" stroke:none;fill-rule:nonzero;fill:url(#linear0);" d="M 49.890625 32.578125 C 49.890625 33.699219 48.984375 34.605469 47.863281 34.605469 C 46.746094 34.605469 45.839844 33.699219 45.839844 32.578125 C 45.839844 31.460938 46.746094 30.554688 47.863281 30.554688 C 48.984375 30.554688 49.890625 31.460938 49.890625 32.578125 Z M 49.890625 32.578125 "/>
</g>
</g>
<g clip-path="url(#clip19)" clip-rule="nonzero">
<g clip-path="url(#clip20)" clip-rule="nonzero">
<path style=" stroke:none;fill-rule:nonzero;fill:url(#linear1);" d="M 49.890625 64.09375 C 49.890625 65.214844 48.984375 66.121094 47.863281 66.121094 C 46.746094 66.121094 45.839844 65.214844 45.839844 64.09375 C 45.839844 62.976562 46.746094 62.070312 47.863281 62.070312 C 48.984375 62.070312 49.890625 62.976562 49.890625 64.09375 Z M 49.890625 64.09375 "/>
</g>
</g>
</g>
</svg>
