
<svg xmlns="http://www.w3.org/2000/svg" xmlns:xlink="http://www.w3.org/1999/xlink" width="96px" height="96px" viewBox="0 0 96 96" version="1.1">
<g id="surface1">
<path style=" stroke:none;fill-rule:nonzero;fill:rgb(92.54902%,25.098039%,47.843137%);fill-opacity:1;" d="M 96 48 L 96 8.085938 C 96 3.621094 92.378906 0 87.914062 0 L 48 0 L 48 48 Z M 96 48 "/>
<path style=" stroke:none;fill-rule:nonzero;fill:rgb(91.764706%,92.156863%,93.72549%);fill-opacity:1;" d="M 48 0 L 8.085938 0 C 3.621094 0 0 3.621094 0 8.085938 L 0 48 L 48 48 Z M 48 0 "/>
<path style=" stroke:none;fill-rule:nonzero;fill:rgb(16.078431%,71.372549%,96.470588%);fill-opacity:1;" d="M 48 48 L 48 96 L 87.914062 96 C 92.378906 96 96 92.378906 96 87.914062 L 96 48 Z M 48 48 "/>
<path style=" stroke:none;fill-rule:nonzero;fill:rgb(63.137255%,38.431373%,96.862745%);fill-opacity:1;" d="M 0 48 L 0 87.914062 C 0 92.378906 3.621094 96 8.085938 96 L 48 96 L 48 48 Z M 0 48 "/>
<path style=" stroke:none;fill-rule:nonzero;fill:rgb(100%,100%,100%);fill-opacity:1;" d="M 76.035156 80.550781 L 68.789062 80.550781 C 67.0625 80.542969 65.664062 79.144531 65.65625 77.414062 L 65.65625 71.414062 C 65.664062 69.6875 67.0625 68.289062 68.789062 68.28125 L 73.378906 68.28125 C 73.910156 68.28125 74.339844 68.710938 74.339844 69.238281 C 74.339844 69.769531 73.910156 70.199219 73.378906 70.199219 L 68.789062 70.199219 C 68.121094 70.207031 67.582031 70.746094 67.574219 71.414062 L 67.574219 77.414062 C 67.582031 78.082031 68.125 78.613281 68.789062 78.613281 L 76.035156 78.613281 C 76.355469 78.617188 76.664062 78.496094 76.894531 78.269531 C 77.121094 78.042969 77.25 77.734375 77.25 77.414062 L 77.25 71.414062 C 77.25 70.742188 76.707031 70.199219 76.035156 70.199219 L 75.074219 70.199219 L 75.074219 66.164062 C 75.035156 65.234375 74.265625 64.5 73.335938 64.5 L 72.210938 64.5 C 71.289062 64.515625 70.539062 65.246094 70.5 66.164062 L 70.5 66.570312 C 70.546875 66.945312 70.375 67.3125 70.054688 67.515625 C 69.734375 67.714844 69.328125 67.714844 69.011719 67.515625 C 68.691406 67.3125 68.519531 66.945312 68.566406 66.570312 L 68.566406 66.164062 C 68.574219 64.148438 70.207031 62.511719 72.226562 62.503906 L 73.351562 62.503906 C 75.375 62.503906 77.015625 64.140625 77.023438 66.164062 L 77.023438 68.355469 C 78.328125 68.773438 79.207031 69.988281 79.199219 71.355469 L 79.199219 77.355469 C 79.210938 78.199219 78.882812 79.015625 78.289062 79.617188 C 77.691406 80.21875 76.882812 80.554688 76.035156 80.550781 Z M 76.035156 80.550781 "/>
<path style=" stroke:none;fill-rule:nonzero;fill:rgb(100%,100%,100%);fill-opacity:1;" d="M 71.566406 18.585938 C 72.792969 18.585938 73.785156 19.578125 73.785156 20.804688 C 73.785156 22.03125 72.792969 23.023438 71.566406 23.023438 C 70.339844 23.023438 69.34375 22.03125 69.34375 20.804688 C 69.339844 20.214844 69.574219 19.648438 69.992188 19.230469 C 70.40625 18.8125 70.976562 18.582031 71.566406 18.585938 M 71.566406 16.800781 C 70.078125 16.707031 68.664062 17.449219 67.894531 18.726562 C 67.121094 20 67.121094 21.597656 67.894531 22.871094 C 68.664062 24.144531 70.078125 24.886719 71.566406 24.796875 C 73.050781 24.886719 74.464844 24.144531 75.238281 22.871094 C 76.007812 21.597656 76.007812 20 75.238281 18.726562 C 74.464844 17.449219 73.050781 16.707031 71.566406 16.800781 Z M 71.566406 16.800781 "/>
<path style=" stroke:none;fill-rule:nonzero;fill:rgb(100%,100%,100%);fill-opacity:1;" d="M 71.566406 27.480469 C 74.820312 27.480469 77.671875 29.664062 78.523438 32.804688 C 78.542969 32.832031 78.542969 32.867188 78.523438 32.894531 L 64.605469 32.894531 C 64.605469 32.894531 64.605469 32.820312 64.605469 32.804688 C 65.46875 29.664062 68.320312 27.484375 71.578125 27.480469 M 71.578125 25.695312 C 67.511719 25.6875 63.945312 28.414062 62.878906 32.339844 C 62.71875 32.902344 62.832031 33.503906 63.183594 33.96875 C 63.535156 34.433594 64.082031 34.707031 64.664062 34.710938 L 78.496094 34.710938 C 79.074219 34.703125 79.621094 34.425781 79.96875 33.964844 C 80.320312 33.5 80.433594 32.898438 80.28125 32.339844 C 79.214844 28.414062 75.648438 25.6875 71.578125 25.695312 Z M 71.578125 25.695312 "/>
<path style=" stroke:none;fill-rule:nonzero;fill:rgb(50.196078%,50.196078%,50.196078%);fill-opacity:1;" d="M 32.28125 32.085938 L 32.28125 20.085938 C 32.273438 18.15625 30.710938 16.597656 28.785156 16.589844 L 22.785156 16.589844 C 20.855469 16.589844 19.289062 18.15625 19.289062 20.085938 L 19.289062 27.496094 C 18.902344 27.339844 18.492188 27.257812 18.074219 27.253906 C 16.671875 27.132812 15.433594 28.164062 15.300781 29.566406 C 15.441406 30.929688 16.632812 31.941406 18 31.859375 C 19.394531 31.972656 20.625 30.945312 20.761719 29.550781 L 20.761719 21.480469 C 20.757812 20.679688 21.386719 20.019531 22.183594 19.980469 L 29.203125 19.980469 C 30.003906 20.019531 30.632812 20.679688 30.628906 21.480469 L 30.628906 30.210938 C 30.257812 30.0625 29.859375 29.988281 29.460938 29.984375 C 28.058594 29.871094 26.828125 30.898438 26.683594 32.296875 C 26.828125 33.691406 28.058594 34.71875 29.460938 34.605469 C 30.859375 34.71875 32.09375 33.691406 32.234375 32.296875 C 32.308594 32.21875 32.28125 32.144531 32.28125 32.085938 Z M 32.28125 32.085938 "/>
<path style=" stroke:none;fill-rule:nonzero;fill:rgb(100%,100%,100%);fill-opacity:1;" d="M 36.269531 67.035156 L 31.875 65.535156 C 31.546875 65.425781 31.320312 65.117188 31.320312 64.769531 C 31.320312 64.332031 30.964844 63.976562 30.523438 63.976562 L 17.324219 63.976562 C 16.886719 63.976562 16.53125 64.332031 16.53125 64.769531 L 16.53125 78.976562 C 16.53125 79.417969 16.882812 79.777344 17.324219 79.785156 L 30.523438 79.785156 C 30.738281 79.785156 30.941406 79.699219 31.09375 79.546875 C 31.242188 79.394531 31.324219 79.1875 31.320312 78.976562 C 31.320312 78.714844 31.445312 78.472656 31.65625 78.324219 C 31.871094 78.171875 32.140625 78.136719 32.386719 78.226562 L 32.519531 78.226562 C 32.722656 78.292969 32.941406 78.273438 33.128906 78.179688 C 33.316406 78.082031 33.460938 77.917969 33.523438 77.714844 L 36.78125 67.996094 C 36.875 67.59375 36.65625 67.183594 36.269531 67.035156 Z M 28.769531 76.425781 L 19.125 76.425781 C 18.683594 76.425781 18.324219 76.070312 18.316406 75.628906 L 18.316406 66.628906 C 18.316406 66.183594 18.675781 65.820312 19.125 65.820312 L 28.738281 65.820312 C 29.179688 65.828125 29.535156 66.1875 29.535156 66.628906 L 29.535156 75.628906 C 29.554688 75.851562 29.480469 76.074219 29.332031 76.242188 C 29.179688 76.40625 28.964844 76.5 28.738281 76.5 Z M 31.351562 74.625 L 31.351562 67.90625 C 31.347656 67.644531 31.476562 67.402344 31.6875 67.253906 C 31.898438 67.101562 32.171875 67.066406 32.414062 67.15625 L 34.605469 67.890625 C 34.804688 67.957031 34.972656 68.097656 35.070312 68.285156 C 35.164062 68.476562 35.179688 68.695312 35.113281 68.894531 L 33 75 C 32.933594 75.203125 32.792969 75.367188 32.601562 75.464844 C 32.414062 75.558594 32.195312 75.578125 31.996094 75.511719 L 31.816406 75.511719 C 31.464844 75.363281 31.261719 75 31.320312 74.625 Z M 31.351562 74.625 "/>
</g>
</svg>
