
<svg xmlns="http://www.w3.org/2000/svg" xmlns:xlink="http://www.w3.org/1999/xlink" width="16px" height="16px" viewBox="0 0 16 16" version="1.1">
<defs>
<linearGradient id="linear0" gradientUnits="userSpaceOnUse" x1="32" y1="27.200001" x2="32" y2="3.35" gradientTransform="matrix(0.25,0,0,0.25,0,0)">
<stop offset="0" style="stop-color:rgb(63.137257%,65.098041%,67.843139%);stop-opacity:1;"/>
<stop offset="0.33" style="stop-color:rgb(69.411767%,70.980394%,73.333335%);stop-opacity:1;"/>
<stop offset="0.98" style="stop-color:rgb(85.09804%,86.666667%,87.843138%);stop-opacity:1;"/>
<stop offset="1" style="stop-color:rgb(85.882354%,87.058824%,88.235295%);stop-opacity:1;"/>
</linearGradient>
<linearGradient id="linear1" gradientUnits="userSpaceOnUse" x1="22.870001" y1="25.049999" x2="53.080002" y2="55.27" gradientTransform="matrix(0.25,0,0,0.25,0,0)">
<stop offset="0" style="stop-color:rgb(16.078432%,71.372551%,96.470588%);stop-opacity:1;"/>
<stop offset="1" style="stop-color:rgb(36.862746%,47.843137%,84.313726%);stop-opacity:1;"/>
</linearGradient>
<linearGradient id="linear2" gradientUnits="userSpaceOnUse" x1="18.9" y1="29.02" x2="49.110001" y2="59.23" gradientTransform="matrix(0.25,0,0,0.25,0,0)">
<stop offset="0" style="stop-color:rgb(16.078432%,71.372551%,96.470588%);stop-opacity:1;"/>
<stop offset="1" style="stop-color:rgb(36.862746%,47.843137%,84.313726%);stop-opacity:1;"/>
</linearGradient>
</defs>
<g id="surface1">
<path style=" stroke:none;fill-rule:nonzero;fill:url(#linear0);" d="M 10.714844 2.714844 C 10.714844 1.214844 9.5 0 8 0 C 6.5 0 5.285156 1.214844 5.285156 2.714844 L 5.285156 7.25 L 10.714844 7.25 Z M 10.714844 2.714844 "/>
<path style=" stroke:none;fill-rule:nonzero;fill:url(#linear1);" d="M 5.285156 7.25 L 5.285156 8.726562 C 5.285156 10.222656 6.5 11.441406 8 11.441406 C 9.5 11.441406 10.714844 10.222656 10.714844 8.726562 L 10.714844 7.25 Z M 5.285156 7.25 "/>
<path style=" stroke:none;fill-rule:nonzero;fill:rgb(50.588238%,52.156866%,52.549022%);fill-opacity:1;" d="M 5.285156 2.859375 L 7 2.859375 C 7.09375 2.859375 7.1875 2.898438 7.253906 2.964844 C 7.324219 3.03125 7.359375 3.125 7.359375 3.21875 C 7.359375 3.417969 7.199219 3.578125 7 3.578125 L 5.285156 3.578125 Z M 5.285156 2.859375 "/>
<path style=" stroke:none;fill-rule:nonzero;fill:rgb(50.588238%,52.156866%,52.549022%);fill-opacity:1;" d="M 10.714844 3.578125 L 9 3.578125 C 8.800781 3.578125 8.640625 3.417969 8.640625 3.21875 C 8.640625 3.125 8.675781 3.03125 8.746094 2.964844 C 8.8125 2.898438 8.90625 2.859375 9 2.859375 L 10.71875 2.859375 Z M 10.714844 3.578125 "/>
<path style=" stroke:none;fill-rule:nonzero;fill:rgb(50.588238%,52.156866%,52.549022%);fill-opacity:1;" d="M 5.285156 4.179688 L 7 4.179688 C 7.09375 4.179688 7.1875 4.21875 7.253906 4.285156 C 7.324219 4.351562 7.359375 4.445312 7.359375 4.539062 C 7.359375 4.636719 7.324219 4.726562 7.253906 4.796875 C 7.1875 4.863281 7.09375 4.902344 7 4.898438 L 5.285156 4.898438 Z M 5.285156 4.179688 "/>
<path style=" stroke:none;fill-rule:nonzero;fill:rgb(50.588238%,52.156866%,52.549022%);fill-opacity:1;" d="M 10.714844 4.898438 L 9 4.898438 C 8.90625 4.902344 8.8125 4.863281 8.746094 4.796875 C 8.675781 4.726562 8.640625 4.636719 8.640625 4.539062 C 8.640625 4.445312 8.675781 4.351562 8.746094 4.285156 C 8.8125 4.21875 8.90625 4.179688 9 4.179688 L 10.71875 4.179688 Z M 10.714844 4.898438 "/>
<path style=" stroke:none;fill-rule:nonzero;fill:rgb(50.588238%,52.156866%,52.549022%);fill-opacity:1;" d="M 5.285156 5.5 L 7 5.5 C 7.199219 5.5 7.359375 5.660156 7.359375 5.859375 C 7.359375 5.957031 7.324219 6.046875 7.253906 6.117188 C 7.1875 6.183594 7.09375 6.21875 7 6.21875 L 5.285156 6.21875 Z M 5.285156 5.5 "/>
<path style=" stroke:none;fill-rule:nonzero;fill:rgb(50.588238%,52.156866%,52.549022%);fill-opacity:1;" d="M 10.714844 6.21875 L 9 6.21875 C 8.90625 6.21875 8.8125 6.183594 8.746094 6.117188 C 8.675781 6.046875 8.640625 5.957031 8.640625 5.859375 C 8.640625 5.660156 8.800781 5.5 9 5.5 L 10.71875 5.5 Z M 10.714844 6.21875 "/>
<path style=" stroke:none;fill-rule:nonzero;fill:rgb(33.725491%,51.372552%,85.882354%);fill-opacity:1;" d="M 12.402344 7.039062 L 11.046875 7.039062 L 11.046875 6.734375 L 4.953125 6.734375 L 4.953125 7.039062 L 3.597656 7.039062 L 3.597656 7.460938 L 4.953125 7.460938 L 4.953125 7.785156 L 11.046875 7.785156 L 11.046875 7.460938 L 12.402344 7.460938 Z M 12.402344 7.039062 "/>
<path style=" stroke:none;fill-rule:nonzero;fill:url(#linear2);" d="M 12.402344 6.828125 C 12.167969 6.828125 11.980469 7.015625 11.980469 7.25 L 11.980469 8.328125 C 11.980469 10.527344 10.199219 12.308594 8 12.308594 C 5.800781 12.308594 4.019531 10.527344 4.019531 8.328125 L 4.019531 7.25 C 4.03125 7.089844 3.953125 6.941406 3.820312 6.855469 C 3.683594 6.773438 3.511719 6.773438 3.378906 6.855469 C 3.242188 6.941406 3.164062 7.089844 3.175781 7.25 L 3.175781 8.328125 C 3.1875 10.691406 4.902344 12.703125 7.234375 13.078125 L 7.234375 15.144531 L 5.363281 15.144531 C 5.207031 15.132812 5.054688 15.210938 4.972656 15.34375 C 4.890625 15.480469 4.890625 15.652344 4.972656 15.785156 C 5.054688 15.921875 5.207031 16 5.363281 15.988281 L 10.582031 15.988281 C 10.742188 16 10.890625 15.921875 10.976562 15.785156 C 11.058594 15.652344 11.058594 15.480469 10.976562 15.34375 C 10.890625 15.210938 10.742188 15.132812 10.582031 15.144531 L 8.710938 15.144531 L 8.710938 13.101562 C 11.074219 12.746094 12.820312 10.71875 12.824219 8.328125 L 12.824219 7.25 C 12.824219 7.136719 12.777344 7.03125 12.699219 6.953125 C 12.621094 6.871094 12.515625 6.828125 12.402344 6.828125 Z M 12.402344 6.828125 "/>
</g>
</svg>
