
<svg xmlns="http://www.w3.org/2000/svg" xmlns:xlink="http://www.w3.org/1999/xlink" width="16px" height="16px" viewBox="0 0 16 16" version="1.1">
<defs>
<linearGradient id="linear0" gradientUnits="userSpaceOnUse" x1="-259.450012" y1="-2859.689941" x2="-259.450012" y2="-2836.969971" gradientTransform="matrix(0.176777,-0.176777,0.176777,0.176777,555.847445,464.103042)">
<stop offset="0" style="stop-color:rgb(100%,100%,100%);stop-opacity:0;"/>
<stop offset="1" style="stop-color:rgb(100%,100%,100%);stop-opacity:1;"/>
</linearGradient>
<linearGradient id="linear1" gradientUnits="userSpaceOnUse" x1="33.580002" y1="33.57" x2="54.18" y2="54.169998" gradientTransform="matrix(0.25,0,0,0.25,0,0)">
<stop offset="0" style="stop-color:rgb(16.078432%,71.372551%,96.470588%);stop-opacity:1;"/>
<stop offset="1" style="stop-color:rgb(49.411765%,34.117648%,76.862746%);stop-opacity:1;"/>
</linearGradient>
<linearGradient id="linear2" gradientUnits="userSpaceOnUse" x1="29.700001" y1="29.690001" x2="42.360001" y2="42.349998" gradientTransform="matrix(0.25,0,0,0.25,0,0)">
<stop offset="0" style="stop-color:rgb(16.078432%,71.372551%,96.470588%);stop-opacity:1;"/>
<stop offset="1" style="stop-color:rgb(49.411765%,34.117648%,76.862746%);stop-opacity:1;"/>
</linearGradient>
</defs>
<g id="surface1">
<path style=" stroke:none;fill-rule:nonzero;fill:rgb(82.352942%,83.529413%,85.490197%);fill-opacity:1;" d="M 9.703125 15.800781 C 9.394531 15.820312 9.09375 15.710938 8.867188 15.5 L 0.5 7.136719 C -0.289062 6.34375 0.546875 4.265625 2.40625 2.40625 C 3.75 1.066406 5.273438 0.199219 6.296875 0.199219 C 6.605469 0.179688 6.910156 0.289062 7.136719 0.5 L 15.5 8.863281 C 16.289062 9.65625 15.453125 11.734375 13.59375 13.59375 C 12.25 14.933594 10.726562 15.800781 9.703125 15.800781 Z M 9.703125 15.800781 "/>
<path style=" stroke:none;fill-rule:nonzero;fill:rgb(82.352942%,83.529413%,85.490197%);fill-opacity:1;" d="M 6.296875 0.398438 C 6.554688 0.382812 6.804688 0.472656 6.996094 0.648438 L 13.199219 6.84375 L 15.359375 9 C 16.058594 9.703125 15.207031 11.695312 13.453125 13.449219 C 12.117188 14.785156 10.640625 15.597656 9.703125 15.597656 C 9.449219 15.613281 9.195312 15.523438 9.007812 15.347656 L 8.453125 14.792969 L 0.640625 7 C -0.0585938 6.296875 0.796875 4.304688 2.546875 2.550781 C 3.886719 1.214844 5.359375 0.402344 6.296875 0.402344 M 6.296875 0.00390625 C 5.226562 0 3.644531 0.890625 2.265625 2.265625 C 0.59375 3.941406 -0.644531 6.265625 0.363281 7.265625 L 8.171875 15.082031 L 8.726562 15.636719 C 8.992188 15.886719 9.34375 16.015625 9.703125 16 C 10.777344 16 12.359375 15.109375 13.734375 13.734375 C 14.550781 12.945312 15.214844 12.011719 15.691406 10.984375 C 16.121094 9.984375 16.101562 9.175781 15.640625 8.714844 L 13.480469 6.554688 L 7.273438 0.363281 C 7.011719 0.113281 6.660156 -0.015625 6.296875 0 Z M 6.296875 0.00390625 "/>
<path style=" stroke:none;fill-rule:nonzero;fill:url(#linear0);" d="M 0.644531 6.992188 L 6.996094 0.640625 L 11.929688 5.574219 L 5.578125 11.925781 Z M 0.644531 6.992188 "/>
<path style=" stroke:none;fill-rule:nonzero;fill:rgb(91.764706%,91.764706%,91.764706%);fill-opacity:1;" d="M 6.996094 0.644531 C 7.699219 1.34375 6.84375 3.335938 5.089844 5.089844 C 3.339844 6.84375 1.347656 7.695312 0.644531 6.992188 C -0.0546875 6.292969 0.796875 4.300781 2.550781 2.546875 C 4.304688 0.792969 6.292969 -0.0585938 6.996094 0.644531 Z M 6.996094 0.644531 "/>
<path style=" stroke:none;fill-rule:nonzero;fill:rgb(82.352942%,83.529413%,85.490197%);fill-opacity:1;" d="M 1.347656 7.5 C 1.019531 7.515625 0.699219 7.398438 0.457031 7.175781 C -0.375 6.351562 0.445312 4.277344 2.359375 2.359375 C 4.273438 0.441406 6.351562 -0.375 7.183594 0.453125 C 7.601562 0.878906 7.613281 1.628906 7.207031 2.574219 C 6.734375 3.585938 6.082031 4.503906 5.277344 5.277344 C 3.867188 6.691406 2.371094 7.5 1.347656 7.5 Z M 6.296875 0.664062 C 5.941406 0.679688 5.59375 0.761719 5.269531 0.914062 C 4.320312 1.355469 3.460938 1.972656 2.734375 2.726562 C 0.984375 4.488281 0.316406 6.289062 0.828125 6.800781 C 1.078125 7.050781 1.65625 7.019531 2.371094 6.714844 C 3.320312 6.269531 4.179688 5.652344 4.90625 4.898438 C 5.660156 4.171875 6.277344 3.316406 6.722656 2.367188 C 7.027344 1.65625 7.058594 1.078125 6.808594 0.828125 C 6.664062 0.707031 6.480469 0.648438 6.296875 0.664062 Z M 6.296875 0.664062 "/>
<path style=" stroke:none;fill-rule:nonzero;fill:rgb(74.117649%,76.078433%,78.823531%);fill-opacity:1;" d="M 5 1 C 4.511719 0.523438 3.25 1.023438 2.140625 2.140625 C 1.667969 2.601562 1.28125 3.148438 1 3.75 C 0.75 4.304688 0.75 4.75 1 5 C 1.136719 5.125 1.316406 5.191406 1.5 5.183594 C 2.109375 5.183594 3.011719 4.683594 3.84375 3.859375 C 4.96875 2.734375 5.46875 1.480469 5 1 Z M 5 1 "/>
<path style=" stroke:none;fill-rule:nonzero;fill:rgb(91.764706%,91.764706%,91.764706%);fill-opacity:1;" d="M 4.246094 0.484375 C 4.667969 0.90625 4.15625 2.097656 3.109375 3.144531 C 2.058594 4.195312 0.867188 4.707031 0.445312 4.285156 C 0.0234375 3.863281 0.535156 2.671875 1.585938 1.621094 C 2.632812 0.574219 3.824219 0.0625 4.246094 0.484375 Z M 4.246094 0.484375 "/>
<path style=" stroke:none;fill-rule:nonzero;fill:url(#linear1);" d="M 6.847656 13.199219 L 9 15.359375 C 9.703125 16.058594 11.691406 15.207031 13.449219 13.453125 C 15.203125 11.699219 16.050781 9.703125 15.351562 9.003906 L 13.199219 6.84375 Z M 6.847656 13.199219 "/>
<path style=" stroke:none;fill-rule:nonzero;fill:rgb(45.882353%,75.294119%,96.470588%);fill-opacity:1;" d="M 13.199219 6.847656 C 13.902344 7.550781 13.046875 9.539062 11.296875 11.292969 C 9.542969 13.046875 7.550781 13.898438 6.847656 13.199219 C 6.148438 12.496094 7 10.503906 8.753906 8.75 C 10.507812 6.996094 12.496094 6.144531 13.199219 6.847656 Z M 13.199219 6.847656 "/>
<path style=" stroke:none;fill-rule:nonzero;fill:url(#linear2);" d="M 4.117188 10.46875 L 6.277344 12.628906 C 6.980469 13.328125 8.96875 12.476562 10.726562 10.722656 C 12.480469 8.96875 13.328125 6.972656 12.628906 6.273438 L 10.46875 4.113281 Z M 4.117188 10.46875 "/>
<path style=" stroke:none;fill-rule:nonzero;fill:rgb(45.882353%,75.294119%,96.470588%);fill-opacity:1;" d="M 10.46875 4.117188 C 11.171875 4.820312 10.316406 6.808594 8.5625 8.5625 C 6.8125 10.316406 4.820312 11.167969 4.117188 10.46875 C 3.417969 9.765625 4.269531 7.773438 6.023438 6.019531 C 7.777344 4.269531 9.765625 3.414062 10.46875 4.117188 Z M 10.46875 4.117188 "/>
</g>
</svg>
