
<svg xmlns="http://www.w3.org/2000/svg" xmlns:xlink="http://www.w3.org/1999/xlink" width="16px" height="16px" viewBox="0 0 16 16" version="1.1">
<defs>
<linearGradient id="linear0" gradientUnits="userSpaceOnUse" x1="32" y1="3.56" x2="32" y2="60.439999" gradientTransform="matrix(0.25,0,0,0.25,0,0)">
<stop offset="0" style="stop-color:rgb(85.882354%,87.058824%,88.235295%);stop-opacity:1;"/>
<stop offset="1" style="stop-color:rgb(63.137257%,65.098041%,67.843139%);stop-opacity:1;"/>
</linearGradient>
<linearGradient id="linear1" gradientUnits="userSpaceOnUse" x1="32" y1="17.75" x2="32" y2="51.560001" gradientTransform="matrix(0.25,0,0,0.25,0,0)">
<stop offset="0" style="stop-color:rgb(100%,100%,100%);stop-opacity:1;"/>
<stop offset="0.22" style="stop-color:rgb(90.980393%,91.37255%,92.156863%);stop-opacity:1;"/>
<stop offset="0.49" style="stop-color:rgb(82.745099%,83.529413%,85.09804%);stop-opacity:1;"/>
<stop offset="0.75" style="stop-color:rgb(77.64706%,78.823531%,80.784315%);stop-opacity:1;"/>
<stop offset="1" style="stop-color:rgb(76.078433%,77.254903%,79.215688%);stop-opacity:1;"/>
</linearGradient>
<linearGradient id="linear2" gradientUnits="userSpaceOnUse" x1="24.139999" y1="45.529999" x2="39.860001" y2="29.82" gradientTransform="matrix(0.25,-0.000000000000000069,0.000000000000000069,0.25,-0.000613539,0.000429535)">
<stop offset="0.18" style="stop-color:rgb(16.078432%,71.372551%,96.470588%);stop-opacity:1;"/>
<stop offset="0.82" style="stop-color:rgb(49.411765%,34.117648%,76.862746%);stop-opacity:1;"/>
</linearGradient>
</defs>
<g id="surface1">
<path style=" stroke:none;fill-rule:nonzero;fill:url(#linear0);" d="M 14.25 3.140625 L 12.351562 3.140625 C 12.285156 3.140625 12.21875 3.113281 12.171875 3.0625 C 12.125 3.011719 12.097656 2.945312 12.101562 2.878906 C 12.09375 1.777344 11.203125 0.890625 10.101562 0.890625 L 5.898438 0.890625 C 4.796875 0.890625 3.898438 1.785156 3.898438 2.890625 C 3.902344 2.960938 3.878906 3.03125 3.828125 3.078125 C 3.777344 3.128906 3.707031 3.15625 3.636719 3.152344 L 1.75 3.152344 C 0.785156 3.152344 0 3.9375 0 4.902344 L 0 13.371094 C 0 14.335938 0.785156 15.121094 1.75 15.121094 L 14.25 15.121094 C 15.214844 15.121094 16 14.335938 16 13.371094 L 16 4.882812 C 15.996094 3.917969 15.214844 3.140625 14.25 3.140625 Z M 14.25 3.140625 "/>
<path style=" stroke:none;fill-rule:nonzero;fill:rgb(63.137257%,65.098041%,67.843139%);fill-opacity:1;" d="M 12.488281 10.398438 C 12.488281 12.878906 10.480469 14.886719 8 14.886719 C 5.519531 14.886719 3.511719 12.878906 3.511719 10.398438 C 3.511719 7.917969 5.519531 5.90625 8 5.90625 C 10.480469 5.90625 12.488281 7.917969 12.488281 10.398438 Z M 12.488281 10.398438 "/>
<path style=" stroke:none;fill-rule:nonzero;fill:rgb(100%,100%,100%);fill-opacity:1;" d="M 14.097656 5.765625 C 14.097656 6.136719 13.796875 6.4375 13.425781 6.4375 C 13.054688 6.4375 12.753906 6.136719 12.753906 5.765625 C 12.753906 5.394531 13.054688 5.09375 13.425781 5.09375 C 13.796875 5.09375 14.097656 5.394531 14.097656 5.765625 Z M 14.097656 5.765625 "/>
<path style=" stroke:none;fill-rule:nonzero;fill:url(#linear1);" d="M 12.488281 9.417969 C 12.488281 11.898438 10.480469 13.90625 8 13.90625 C 5.519531 13.90625 3.511719 11.898438 3.511719 9.417969 C 3.511719 6.9375 5.519531 4.925781 8 4.925781 C 10.480469 4.925781 12.488281 6.9375 12.488281 9.417969 Z M 12.488281 9.417969 "/>
<path style=" stroke:none;fill-rule:nonzero;fill:rgb(71.764708%,73.725492%,76.862746%);fill-opacity:1;" d="M 8 14.035156 C 5.449219 14.035156 3.382812 11.96875 3.378906 9.417969 C 3.378906 6.867188 5.445312 4.800781 7.996094 4.800781 C 10.546875 4.800781 12.613281 6.867188 12.613281 9.417969 C 12.613281 11.964844 10.546875 14.03125 8 14.035156 Z M 8 5.050781 C 5.585938 5.050781 3.628906 7.007812 3.628906 9.417969 C 3.628906 11.832031 5.585938 13.789062 8 13.789062 C 10.410156 13.785156 12.367188 11.832031 12.363281 9.417969 C 12.363281 7.007812 10.410156 5.054688 8 5.050781 Z M 8 5.050781 "/>
<path style=" stroke:none;fill-rule:nonzero;fill:url(#linear2);" d="M 9.960938 7.453125 C 11.046875 8.539062 11.046875 10.296875 9.960938 11.382812 C 8.878906 12.464844 7.121094 12.464844 6.035156 11.382812 C 4.949219 10.296875 4.949219 8.539062 6.035156 7.453125 C 7.121094 6.367188 8.878906 6.367188 9.960938 7.453125 Z M 9.960938 7.453125 "/>
<path style=" stroke:none;fill-rule:nonzero;fill:rgb(100%,100%,100%);fill-opacity:1;" d="M 8.265625 8.414062 C 8.265625 8.933594 7.84375 9.359375 7.324219 9.359375 C 6.800781 9.359375 6.378906 8.933594 6.378906 8.414062 C 6.378906 7.890625 6.800781 7.46875 7.324219 7.46875 C 7.84375 7.46875 8.265625 7.890625 8.265625 8.414062 Z M 8.265625 8.414062 "/>
</g>
</svg>
