
<svg xmlns="http://www.w3.org/2000/svg" xmlns:xlink="http://www.w3.org/1999/xlink" width="16px" height="16px" viewBox="0 0 16 16" version="1.1">
<defs>
<linearGradient id="linear0" gradientUnits="userSpaceOnUse" x1="32.900002" y1="55.459999" x2="32.900002" y2="57.439999" gradientTransform="matrix(0.25,0,0,0.25,0,0)">
<stop offset="0" style="stop-color:rgb(80.392158%,81.568629%,83.92157%);stop-opacity:1;"/>
<stop offset="0.56" style="stop-color:rgb(81.176472%,82.352942%,84.313726%);stop-opacity:1;"/>
<stop offset="0.79" style="stop-color:rgb(83.92157%,84.705883%,86.274511%);stop-opacity:1;"/>
<stop offset="0.97" style="stop-color:rgb(89.019608%,89.019608%,89.411765%);stop-opacity:1;"/>
<stop offset="1" style="stop-color:rgb(90.196079%,90.196079%,90.196079%);stop-opacity:1;"/>
</linearGradient>
<linearGradient id="linear1" gradientUnits="userSpaceOnUse" x1="10.4" y1="2.59" x2="55.09" y2="50.599998" gradientTransform="matrix(0.25,0,0,0.25,0,0)">
<stop offset="0" style="stop-color:rgb(16.078432%,71.372551%,96.470588%);stop-opacity:1;"/>
<stop offset="0.67" style="stop-color:rgb(39.607844%,45.09804%,82.745099%);stop-opacity:1;"/>
<stop offset="1" style="stop-color:rgb(49.411765%,34.117648%,76.862746%);stop-opacity:1;"/>
</linearGradient>
</defs>
<g id="surface1">
<path style=" stroke:none;fill-rule:nonzero;fill:url(#linear0);" d="M 11.644531 14.277344 L 11.050781 14.277344 C 10.804688 14.277344 10.601562 14.078125 10.601562 13.828125 L 10.601562 11.75 L 5.851562 11.75 L 5.851562 13.824219 C 5.851562 14.074219 5.648438 14.273438 5.398438 14.273438 L 4.804688 14.273438 C 4.558594 14.273438 4.359375 14.472656 4.359375 14.71875 C 4.359375 14.964844 4.558594 15.164062 4.804688 15.164062 L 11.644531 15.164062 C 11.890625 15.164062 12.089844 14.964844 12.089844 14.71875 C 12.089844 14.476562 11.890625 14.277344 11.644531 14.277344 Z M 11.644531 14.277344 "/>
<path style=" stroke:none;fill-rule:nonzero;fill:url(#linear1);" d="M 0.988281 1.03125 L 15.011719 1.03125 C 15.445312 1.03125 15.796875 1.386719 15.796875 1.820312 L 15.796875 11.078125 C 15.796875 11.511719 15.445312 11.863281 15.011719 11.863281 L 0.988281 11.863281 C 0.554688 11.863281 0.203125 11.511719 0.203125 11.078125 L 0.203125 1.820312 C 0.203125 1.386719 0.554688 1.03125 0.988281 1.03125 Z M 0.988281 1.03125 "/>
<path style=" stroke:none;fill-rule:nonzero;fill:rgb(90.196079%,90.196079%,90.196079%);fill-opacity:1;" d="M 15.011719 1.234375 C 15.167969 1.234375 15.316406 1.296875 15.425781 1.40625 C 15.535156 1.515625 15.59375 1.664062 15.59375 1.820312 L 15.59375 11.070312 C 15.59375 11.226562 15.535156 11.375 15.425781 11.484375 C 15.316406 11.59375 15.167969 11.65625 15.011719 11.65625 L 1 11.65625 C 0.84375 11.65625 0.695312 11.59375 0.585938 11.484375 C 0.476562 11.375 0.414062 11.226562 0.414062 11.070312 L 0.414062 1.820312 C 0.414062 1.496094 0.675781 1.234375 1 1.234375 L 15.011719 1.234375 M 15.011719 0.832031 L 1 0.832031 C 0.449219 0.832031 0 1.28125 0 1.832031 L 0 11.082031 C 0 11.636719 0.449219 12.082031 1 12.082031 L 15.011719 12.082031 C 15.566406 12.082031 16.011719 11.636719 16.011719 11.082031 L 16.011719 1.832031 C 16.003906 1.285156 15.558594 0.84375 15.011719 0.84375 Z M 15.011719 0.832031 "/>
<path style=" stroke:none;fill-rule:nonzero;fill:rgb(90.196079%,90.196079%,90.196079%);fill-opacity:1;" d="M 15.085938 11.8125 L 0.886719 11.8125 C 0.707031 11.8125 0.535156 11.742188 0.410156 11.613281 C 0.28125 11.488281 0.210938 11.316406 0.210938 11.136719 L 0.210938 10.460938 L 15.761719 10.460938 L 15.761719 11.136719 C 15.761719 11.511719 15.460938 11.8125 15.085938 11.8125 Z M 15.085938 11.8125 "/>
</g>
</svg>
