
<svg xmlns="http://www.w3.org/2000/svg" xmlns:xlink="http://www.w3.org/1999/xlink" width="16px" height="16px" viewBox="0 0 16 16" version="1.1">
<defs>
<linearGradient id="linear0" gradientUnits="userSpaceOnUse" x1="-23.584999" y1="124.839996" x2="28.500999" y2="170.240005" gradientTransform="matrix(0.125332,0,0,0.125435,6.010359,-14.035944)">
<stop offset="0" style="stop-color:rgb(20%,20%,20%);stop-opacity:1;"/>
<stop offset="1" style="stop-color:rgb(10.196079%,10.196079%,10.196079%);stop-opacity:1;"/>
</linearGradient>
<radialGradient id="radial0" gradientUnits="userSpaceOnUse" cx="-74.103996" cy="276.040009" fx="-74.103996" fy="276.040009" r="5.6027" gradientTransform="matrix(0.0704325,-0.0726857,0.0772368,0.0749666,-8.073755,-10.445684)">
<stop offset="0" style="stop-color:rgb(41.568628%,41.568628%,41.568628%);stop-opacity:1;"/>
<stop offset="1" style="stop-color:rgb(5.098039%,5.098039%,5.098039%);stop-opacity:1;"/>
</radialGradient>
</defs>
<g id="surface1">
<path style=" stroke:none;fill-rule:nonzero;fill:rgb(14.901961%,14.901961%,14.901961%);fill-opacity:0.99653;" d="M 12.652344 -0.00390625 L 13.335938 -0.00390625 L 13.335938 0.0976562 L 12.652344 0.0976562 Z M 12.652344 -0.00390625 "/>
<path style=" stroke:none;fill-rule:nonzero;fill:rgb(14.901961%,14.901961%,14.901961%);fill-opacity:1;" d="M 14.089844 2.15625 L 14.308594 2.15625 L 14.308594 2.378906 L 14.089844 2.378906 Z M 14.089844 2.15625 "/>
<path style=" stroke:none;fill-rule:nonzero;fill:rgb(14.901961%,14.901961%,14.901961%);fill-opacity:1;" d="M 14.140625 2.90625 L 14.253906 2.90625 C 14.285156 2.90625 14.308594 2.929688 14.308594 2.957031 L 14.308594 3.359375 C 14.308594 3.386719 14.285156 3.410156 14.253906 3.410156 L 14.140625 3.410156 C 14.113281 3.410156 14.089844 3.386719 14.089844 3.359375 L 14.089844 2.957031 C 14.089844 2.929688 14.113281 2.90625 14.140625 2.90625 Z M 14.140625 2.90625 "/>
<path style=" stroke:none;fill-rule:nonzero;fill:rgb(14.901961%,14.901961%,14.901961%);fill-opacity:1;" d="M 14.140625 3.722656 L 14.253906 3.722656 C 14.285156 3.722656 14.308594 3.746094 14.308594 3.773438 L 14.308594 4.175781 C 14.308594 4.203125 14.285156 4.226562 14.253906 4.226562 L 14.140625 4.226562 C 14.113281 4.226562 14.089844 4.203125 14.089844 4.175781 L 14.089844 3.773438 C 14.089844 3.746094 14.113281 3.722656 14.140625 3.722656 Z M 14.140625 3.722656 "/>
<path style="fill-rule:nonzero;fill:rgb(69.803923%,69.803923%,69.803923%);fill-opacity:0.98333;stroke-width:0.1005;stroke-linecap:round;stroke-linejoin:round;stroke:rgb(50.196081%,50.196081%,50.196081%);stroke-opacity:1;stroke-miterlimit:4;" d="M 5.898024 263.678261 L 27.96987 263.678261 C 28.7632 263.678261 29.407289 264.321825 29.407289 265.114507 L 29.407289 293.949299 C 29.407289 294.749829 28.7632 295.393393 27.96987 295.393393 L 5.898024 295.393393 C 5.104695 295.393393 4.460605 294.749829 4.460605 293.949299 L 4.460605 265.114507 C 4.460605 264.321825 5.104695 263.678261 5.898024 263.678261 Z M 5.898024 263.678261 " transform="matrix(0.497311,0,0,0.497717,-0.425337,-131.123841)"/>
<path style=" stroke:none;fill-rule:nonzero;fill:rgb(0%,0%,0%);fill-opacity:1;" d="M 2.617188 0.273438 L 13.375 0.273438 C 13.761719 0.273438 14.074219 0.585938 14.074219 0.976562 L 14.074219 15.035156 C 14.074219 15.421875 13.761719 15.738281 13.375 15.738281 L 2.617188 15.738281 C 2.230469 15.738281 1.917969 15.421875 1.917969 15.035156 L 1.917969 0.976562 C 1.917969 0.585938 2.230469 0.273438 2.617188 0.273438 Z M 2.617188 0.273438 "/>
<path style=" stroke:none;fill-rule:nonzero;fill:url(#linear0);" d="M 3.054688 1.621094 L 12.9375 1.621094 L 12.9375 14.386719 L 3.054688 14.386719 Z M 3.054688 1.621094 "/>
<path style=" stroke:none;fill-rule:nonzero;fill:url(#radial0);" d="M 8.363281 15.128906 C 8.363281 15.332031 8.199219 15.496094 7.996094 15.496094 C 7.792969 15.496094 7.628906 15.332031 7.628906 15.128906 C 7.628906 14.925781 7.792969 14.761719 7.996094 14.761719 C 8.199219 14.761719 8.363281 14.925781 8.363281 15.128906 Z M 8.363281 15.128906 "/>
<path style="fill-rule:nonzero;fill:rgb(10.196079%,10.196079%,10.196079%);fill-opacity:0.98333;stroke-width:0.98113;stroke-linecap:round;stroke-linejoin:round;stroke:rgb(70.588237%,70.588237%,70.980394%);stroke-opacity:1;stroke-miterlimit:4;" d="M 369.728734 196.808842 L 371.949507 196.808842 C 372.443012 196.808842 372.813141 197.240307 372.813141 197.671771 L 372.813141 199.520904 C 372.813141 199.952368 372.443012 200.383833 371.949507 200.383833 L 369.728734 200.383833 C 369.235229 200.383833 368.865101 199.952368 368.865101 199.520904 L 368.865101 197.671771 C 368.865101 197.240307 369.235229 196.808842 369.728734 196.808842 Z M 369.728734 196.808842 " transform="matrix(0.0633226,0,0,0.0633743,-15.486389,2.543004)"/>
</g>
</svg>
