
<svg xmlns="http://www.w3.org/2000/svg" xmlns:xlink="http://www.w3.org/1999/xlink" width="16px" height="16px" viewBox="0 0 16 16" version="1.1">
<defs>
<linearGradient id="linear0" gradientUnits="userSpaceOnUse" x1="24.1" y1="9.75" x2="53.459999" y2="9.75" gradientTransform="matrix(0.25,0,0,0.25,0,0)">
<stop offset="0" style="stop-color:rgb(82.352942%,83.529413%,85.490197%);stop-opacity:1;"/>
<stop offset="0.58" style="stop-color:rgb(83.137256%,84.313726%,86.274511%);stop-opacity:1;"/>
<stop offset="0.82" style="stop-color:rgb(85.882354%,87.058824%,88.235295%);stop-opacity:1;"/>
<stop offset="1" style="stop-color:rgb(90.588236%,91.37255%,92.156863%);stop-opacity:1;"/>
</linearGradient>
</defs>
<g id="surface1">
<path style=" stroke:none;fill-rule:nonzero;fill:rgb(30.980393%,32.549021%,33.725491%);fill-opacity:1;" d="M 0.0507812 15.308594 C 0.0507812 15.492188 0.125 15.667969 0.253906 15.800781 C 0.386719 15.929688 0.566406 16.003906 0.75 16 L 15.25 16 C 15.632812 16 15.941406 15.6875 15.941406 15.308594 L 15.941406 2.449219 C 15.941406 2.261719 15.871094 2.078125 15.738281 1.949219 L 13.988281 0.199219 C 13.859375 0.0703125 13.683594 0 13.5 0 L 0.75 0 C 0.566406 -0.00390625 0.386719 0.0703125 0.253906 0.199219 C 0.125 0.332031 0.0507812 0.507812 0.0507812 0.691406 Z M 0.0507812 15.308594 "/>
<path style=" stroke:none;fill-rule:nonzero;fill:rgb(26.274511%,27.450982%,27.843139%);fill-opacity:1;" d="M 12.402344 4.914062 L 3.417969 4.914062 C 2.984375 4.910156 2.636719 4.558594 2.636719 4.128906 L 2.636719 0 L 3.066406 0 L 3.066406 4.128906 C 3.066406 4.320312 3.222656 4.480469 3.417969 4.480469 L 12.402344 4.480469 Z M 12.402344 4.914062 "/>
<path style=" stroke:none;fill-rule:nonzero;fill:url(#linear0);" d="M 6.023438 0 L 13.363281 0 L 13.363281 4.289062 C 13.363281 4.445312 13.304688 4.59375 13.191406 4.703125 C 13.082031 4.8125 12.929688 4.875 12.773438 4.875 L 6.613281 4.875 C 6.289062 4.875 6.023438 4.613281 6.023438 4.289062 Z M 6.023438 0 "/>
<path style=" stroke:none;fill-rule:nonzero;fill:rgb(30.980393%,32.549021%,33.725491%);fill-opacity:1;" d="M 11.570312 1.074219 L 11.574219 1.074219 C 11.972656 1.074219 12.300781 1.398438 12.300781 1.800781 L 12.300781 3.148438 C 12.300781 3.550781 11.972656 3.875 11.574219 3.875 L 11.570312 3.875 C 11.167969 3.875 10.84375 3.550781 10.84375 3.148438 L 10.84375 1.800781 C 10.84375 1.398438 11.167969 1.074219 11.570312 1.074219 Z M 11.570312 1.074219 "/>
<path style=" stroke:none;fill-rule:nonzero;fill:rgb(100%,100%,100%);fill-opacity:1;" d="M 2.613281 6.796875 L 13.382812 6.796875 C 13.613281 6.796875 13.796875 6.984375 13.796875 7.210938 L 13.796875 14.675781 C 13.796875 14.902344 13.613281 15.089844 13.382812 15.089844 L 2.613281 15.089844 C 2.386719 15.089844 2.199219 14.902344 2.199219 14.675781 L 2.199219 7.210938 C 2.199219 6.984375 2.386719 6.796875 2.613281 6.796875 Z M 2.613281 6.796875 "/>
<path style=" stroke:none;fill-rule:nonzero;fill:rgb(90.196079%,90.196079%,90.196079%);fill-opacity:1;" d="M 3.125 9.445312 L 12.875 9.445312 L 12.875 9.828125 L 3.125 9.828125 Z M 3.125 9.445312 "/>
<path style=" stroke:none;fill-rule:nonzero;fill:rgb(90.196079%,90.196079%,90.196079%);fill-opacity:1;" d="M 3.125 12.136719 L 12.875 12.136719 L 12.875 12.519531 L 3.125 12.519531 Z M 3.125 12.136719 "/>
</g>
</svg>
