
<svg xmlns="http://www.w3.org/2000/svg" xmlns:xlink="http://www.w3.org/1999/xlink" width="16px" height="16px" viewBox="0 0 16 16" version="1.1">
<defs>
<linearGradient id="linear0" gradientUnits="userSpaceOnUse" x1="16.09" y1="59.560001" x2="47.290001" y2="5.51" gradientTransform="matrix(0.25,0,0,0.25,0,0)">
<stop offset="0" style="stop-color:rgb(83.137256%,83.137256%,83.137256%);stop-opacity:1;"/>
<stop offset="0.34" style="stop-color:rgb(45.882353%,75.294119%,96.470588%);stop-opacity:1;"/>
<stop offset="0.46" style="stop-color:rgb(47.843137%,53.725493%,86.274511%);stop-opacity:1;"/>
<stop offset="0.57" style="stop-color:rgb(49.411765%,34.117648%,76.862746%);stop-opacity:1;"/>
<stop offset="0.65" style="stop-color:rgb(47.450981%,36.078432%,78.039217%);stop-opacity:1;"/>
<stop offset="0.74" style="stop-color:rgb(42.352942%,41.960785%,81.176472%);stop-opacity:1;"/>
<stop offset="0.84" style="stop-color:rgb(33.725491%,51.372552%,85.882354%);stop-opacity:1;"/>
<stop offset="0.95" style="stop-color:rgb(21.960784%,64.705884%,92.941177%);stop-opacity:1;"/>
<stop offset="1" style="stop-color:rgb(16.078432%,71.372551%,96.470588%);stop-opacity:1;"/>
</linearGradient>
</defs>
<g id="surface1">
<path style="fill-rule:nonzero;fill:rgb(92.156863%,92.54902%,93.333334%);fill-opacity:1;stroke-width:1;stroke-linecap:butt;stroke-linejoin:miter;stroke:rgb(82.352942%,83.529413%,85.490197%);stroke-opacity:1;stroke-miterlimit:10;" d="M 32 12.921875 C 21.46875 12.921875 12.921875 21.46875 12.9375 32 C 12.9375 42.546875 21.484375 51.078125 32.015625 51.078125 C 42.546875 51.078125 51.09375 42.53125 51.09375 32 C 51.078125 21.46875 42.53125 12.9375 32 12.921875 Z M 32 38.625 C 28.34375 38.625 25.375 35.65625 25.375 32 C 25.375 28.34375 28.34375 25.375 32 25.375 C 35.65625 25.375 38.625 28.34375 38.625 32 C 38.625 35.65625 35.65625 38.625 32 38.625 Z M 32 38.625 " transform="matrix(0.25,0,0,0.25,0,0)"/>
<path style=" stroke:none;fill-rule:nonzero;fill:url(#linear0);" d="M 8 0 C 3.582031 0 0 3.582031 0 8 C 0 12.417969 3.582031 16 8 16 C 12.417969 16 16 12.417969 16 8 C 16 3.582031 12.417969 0 8 0 Z M 4.199219 8 C 4.199219 5.898438 5.898438 4.199219 8 4.199219 C 10.101562 4.199219 11.800781 5.898438 11.800781 8 C 11.800781 10.101562 10.101562 11.800781 8 11.800781 C 5.902344 11.800781 4.199219 10.097656 4.199219 8 Z M 4.199219 8 "/>
<path style=" stroke:none;fill-rule:nonzero;fill:rgb(100%,100%,100%);fill-opacity:1;" d="M 2.726562 15.523438 C 1.925781 15.523438 1.117188 14.984375 1.117188 13.773438 C 1.117188 12.566406 1.941406 12 2.75 12 C 3.144531 12.003906 3.523438 12.164062 3.796875 12.449219 L 3.878906 12.53125 L 3.324219 13.195312 L 3.226562 13.109375 C 3.109375 12.976562 2.941406 12.898438 2.765625 12.890625 C 2.398438 12.890625 2.144531 13.25 2.144531 13.75 C 2.144531 14.296875 2.375 14.621094 2.753906 14.621094 C 2.953125 14.613281 3.140625 14.523438 3.265625 14.371094 L 3.363281 14.265625 L 3.921875 14.933594 L 3.851562 15.011719 C 3.574219 15.34375 3.160156 15.53125 2.726562 15.523438 Z M 2.726562 15.523438 "/>
<path style=" stroke:none;fill-rule:nonzero;fill:rgb(60.000002%,60.000002%,60.000002%);fill-opacity:1;" d="M 2.75 12.117188 C 3.113281 12.121094 3.457031 12.269531 3.710938 12.53125 L 3.308594 13.015625 C 3.167969 12.863281 2.972656 12.773438 2.761719 12.765625 C 2.355469 12.765625 2.011719 13.128906 2.011719 13.746094 C 2.011719 14.363281 2.308594 14.75 2.75 14.75 C 2.984375 14.742188 3.203125 14.636719 3.355469 14.460938 L 3.753906 14.933594 C 3.5 15.238281 3.121094 15.414062 2.722656 15.40625 C 1.921875 15.398438 1.25 14.847656 1.25 13.773438 C 1.25 12.703125 1.953125 12.117188 2.75 12.117188 M 2.75 11.867188 C 1.875 11.867188 1 12.523438 1 13.773438 C 1 15.070312 1.871094 15.648438 2.734375 15.648438 C 3.203125 15.65625 3.652344 15.453125 3.953125 15.09375 L 4.09375 14.933594 L 3.957031 14.769531 L 3.558594 14.296875 L 3.375 14.078125 L 3.183594 14.285156 C 3.078125 14.417969 2.917969 14.496094 2.75 14.5 C 2.3125 14.5 2.265625 13.976562 2.265625 13.75 C 2.265625 13.3125 2.464844 13.015625 2.765625 13.015625 C 2.910156 13.023438 3.046875 13.089844 3.140625 13.199219 L 3.335938 13.378906 L 3.503906 13.171875 L 3.90625 12.691406 L 4.046875 12.515625 L 3.890625 12.355469 C 3.59375 12.039062 3.183594 11.859375 2.753906 11.855469 Z M 2.75 11.867188 "/>
<path style=" stroke:none;fill-rule:nonzero;fill:rgb(100%,100%,100%);fill-opacity:1;" d="M 3.886719 15.464844 L 3.886719 12.050781 L 4.921875 12.050781 C 6.03125 12.050781 6.648438 12.652344 6.648438 13.742188 C 6.648438 14.832031 6.03125 15.464844 4.960938 15.464844 Z M 4.886719 14.601562 C 5.226562 14.601562 5.609375 14.488281 5.609375 13.742188 C 5.609375 12.996094 5.265625 12.910156 4.886719 12.90625 Z M 4.886719 14.601562 "/>
<path style=" stroke:none;fill-rule:nonzero;fill:rgb(60.000002%,60.000002%,60.000002%);fill-opacity:1;" d="M 4.921875 12.175781 C 5.886719 12.175781 6.523438 12.640625 6.523438 13.742188 C 6.523438 14.84375 5.886719 15.339844 4.960938 15.339844 L 4 15.339844 L 4 12.175781 L 4.910156 12.175781 M 4.761719 14.726562 L 4.863281 14.726562 C 5.363281 14.726562 5.734375 14.492188 5.734375 13.742188 C 5.734375 12.992188 5.371094 12.78125 4.863281 12.78125 L 4.761719 12.78125 L 4.761719 14.726562 M 4.910156 11.925781 L 3.75 11.925781 L 3.75 15.589844 L 4.953125 15.589844 C 6.085938 15.589844 6.761719 14.898438 6.761719 13.742188 C 6.761719 12.585938 6.085938 11.925781 4.910156 11.925781 Z M 5.011719 14.46875 L 5.011719 13.039062 C 5.3125 13.070312 5.484375 13.226562 5.484375 13.742188 C 5.484375 14.261719 5.300781 14.433594 5.011719 14.46875 Z M 5.011719 14.46875 "/>
<path style=" stroke:none;fill-rule:nonzero;fill:rgb(100%,100%,100%);fill-opacity:1;" d="M 6.617188 13.71875 L 8.070312 13.71875 L 8.070312 14.5 L 6.617188 14.5 Z M 6.617188 13.71875 "/>
<path style=" stroke:none;fill-rule:nonzero;fill:rgb(60.000002%,60.000002%,60.000002%);fill-opacity:1;" d="M 7.945312 13.84375 L 7.945312 14.375 L 6.75 14.375 L 6.75 13.84375 L 7.953125 13.84375 M 8.203125 13.59375 L 6.5 13.59375 L 6.5 14.625 L 8.203125 14.625 Z M 8.203125 13.59375 "/>
<path style=" stroke:none;fill-rule:nonzero;fill:rgb(100%,100%,100%);fill-opacity:1;" d="M 10.199219 15.464844 C 10.199219 15.464844 9.886719 13.949219 9.878906 13.929688 C 9.875 13.910156 9.574219 15.464844 9.574219 15.464844 L 8.425781 15.464844 L 7.804688 12.050781 L 8.839844 12.050781 L 9.054688 13.601562 L 9.085938 13.863281 L 9.140625 13.59375 L 9.484375 12.050781 L 10.324219 12.050781 L 10.675781 13.589844 C 10.691406 13.675781 10.710938 13.761719 10.726562 13.839844 L 10.753906 13.589844 L 10.972656 12.039062 L 11.953125 12.039062 L 11.359375 15.464844 Z M 10.199219 15.464844 "/>
<path style=" stroke:none;fill-rule:nonzero;fill:rgb(60.000002%,60.000002%,60.000002%);fill-opacity:1;" d="M 11.804688 12.175781 L 11.25 15.339844 L 10.300781 15.339844 L 10.015625 13.960938 C 9.964844 13.710938 9.921875 13.460938 9.890625 13.226562 L 9.871094 13.226562 C 9.832031 13.476562 9.796875 13.726562 9.746094 13.960938 L 9.46875 15.339844 L 8.53125 15.339844 L 7.953125 12.175781 L 8.734375 12.175781 L 8.929688 13.617188 L 9.058594 14.617188 L 9.074219 14.617188 C 9.136719 14.28125 9.199219 13.941406 9.261719 13.617188 L 9.585938 12.175781 L 10.222656 12.175781 L 10.554688 13.617188 C 10.617188 13.941406 10.671875 14.28125 10.738281 14.617188 L 10.75 14.617188 C 10.789062 14.277344 10.832031 13.941406 10.871094 13.617188 L 11.074219 12.175781 L 11.796875 12.175781 M 12.09375 11.925781 L 10.863281 11.925781 L 10.835938 12.140625 L 10.695312 13.117188 L 10.46875 12.117188 L 10.421875 11.921875 L 9.386719 11.921875 L 9.34375 12.117188 L 9.113281 13.117188 L 8.980469 12.117188 L 8.949219 11.902344 L 7.65625 11.902344 L 7.707031 12.199219 L 8.285156 15.359375 L 8.324219 15.566406 L 9.675781 15.566406 L 9.714844 15.363281 L 9.882812 14.53125 L 10.054688 15.363281 L 10.09375 15.566406 L 11.464844 15.566406 L 11.503906 15.359375 L 12.050781 12.21875 L 12.101562 11.925781 Z M 12.09375 11.925781 "/>
<path style=" stroke:none;fill-rule:nonzero;fill:rgb(100%,100%,100%);fill-opacity:1;" d="M 13.652344 15.464844 L 13.074219 14.351562 L 12.90625 14.351562 L 12.90625 15.464844 L 11.894531 15.464844 L 11.894531 12.050781 L 13.179688 12.050781 C 14.308594 12.050781 14.542969 12.660156 14.542969 13.171875 C 14.5625 13.558594 14.371094 13.929688 14.042969 14.136719 L 14.792969 15.464844 Z M 13.121094 13.5 C 13.503906 13.5 13.550781 13.308594 13.550781 13.171875 C 13.550781 13.03125 13.515625 12.898438 13.121094 12.898438 L 12.90625 12.898438 L 12.90625 13.5 Z M 13.121094 13.5 "/>
<path style=" stroke:none;fill-rule:nonzero;fill:rgb(60.000002%,60.000002%,60.000002%);fill-opacity:1;" d="M 13.179688 12.175781 C 13.859375 12.175781 14.429688 12.40625 14.429688 13.175781 C 14.457031 13.566406 14.238281 13.929688 13.886719 14.089844 L 14.59375 15.339844 L 13.742188 15.339844 L 13.148438 14.226562 L 12.78125 14.226562 L 12.78125 15.339844 L 12.019531 15.339844 L 12.019531 12.175781 L 13.179688 12.175781 M 12.78125 13.628906 L 13.121094 13.628906 C 13.484375 13.628906 13.675781 13.46875 13.675781 13.171875 C 13.675781 12.875 13.484375 12.777344 13.121094 12.777344 L 12.78125 12.777344 L 12.78125 13.628906 M 13.179688 11.925781 L 11.769531 11.925781 L 11.769531 15.589844 L 13.03125 15.589844 L 13.03125 14.546875 L 13.5 15.453125 L 13.570312 15.589844 L 15 15.589844 L 14.789062 15.21875 L 14.203125 14.171875 C 14.507812 13.933594 14.679688 13.558594 14.660156 13.171875 C 14.660156 12.707031 14.46875 11.921875 13.160156 11.921875 Z M 13.03125 13.027344 L 13.121094 13.027344 C 13.425781 13.027344 13.425781 13.085938 13.425781 13.171875 C 13.425781 13.261719 13.425781 13.378906 13.121094 13.378906 L 13.03125 13.378906 Z M 13.03125 13.027344 "/>
</g>
</svg>
