
<svg xmlns="http://www.w3.org/2000/svg" xmlns:xlink="http://www.w3.org/1999/xlink" width="16px" height="16px" viewBox="0 0 16 16" version="1.1">
<defs>
<linearGradient id="linear0" gradientUnits="userSpaceOnUse" x1="16.09" y1="59.560001" x2="47.290001" y2="5.51" gradientTransform="matrix(0.25,0,0,0.25,0,0)">
<stop offset="0" style="stop-color:rgb(83.137256%,83.137256%,83.137256%);stop-opacity:1;"/>
<stop offset="0.34" style="stop-color:rgb(45.882353%,75.294119%,96.470588%);stop-opacity:1;"/>
<stop offset="0.46" style="stop-color:rgb(47.843137%,53.725493%,86.274511%);stop-opacity:1;"/>
<stop offset="0.57" style="stop-color:rgb(49.411765%,34.117648%,76.862746%);stop-opacity:1;"/>
<stop offset="0.65" style="stop-color:rgb(47.450981%,36.078432%,78.039217%);stop-opacity:1;"/>
<stop offset="0.74" style="stop-color:rgb(42.352942%,41.960785%,81.176472%);stop-opacity:1;"/>
<stop offset="0.84" style="stop-color:rgb(33.725491%,51.372552%,85.882354%);stop-opacity:1;"/>
<stop offset="0.95" style="stop-color:rgb(21.960784%,64.705884%,92.941177%);stop-opacity:1;"/>
<stop offset="1" style="stop-color:rgb(16.078432%,71.372551%,96.470588%);stop-opacity:1;"/>
</linearGradient>
</defs>
<g id="surface1">
<path style="fill-rule:nonzero;fill:rgb(92.156863%,92.54902%,93.333334%);fill-opacity:1;stroke-width:1;stroke-linecap:butt;stroke-linejoin:miter;stroke:rgb(82.352942%,83.529413%,85.490197%);stroke-opacity:1;stroke-miterlimit:10;" d="M 32 12.921875 C 21.46875 12.921875 12.921875 21.46875 12.9375 32 C 12.9375 42.546875 21.484375 51.078125 32.015625 51.078125 C 42.546875 51.078125 51.09375 42.53125 51.09375 32 C 51.078125 21.46875 42.53125 12.9375 32 12.921875 Z M 32 38.625 C 28.34375 38.625 25.375 35.65625 25.375 32 C 25.375 28.34375 28.34375 25.375 32 25.375 C 35.65625 25.375 38.625 28.34375 38.625 32 C 38.625 35.65625 35.65625 38.625 32 38.625 Z M 32 38.625 " transform="matrix(0.25,0,0,0.25,0,0)"/>
<path style=" stroke:none;fill-rule:nonzero;fill:url(#linear0);" d="M 8 0 C 3.582031 0 0 3.582031 0 8 C 0 12.417969 3.582031 16 8 16 C 12.417969 16 16 12.417969 16 8 C 16 3.582031 12.417969 0 8 0 Z M 4.199219 8 C 4.199219 5.898438 5.898438 4.199219 8 4.199219 C 10.101562 4.199219 11.800781 5.898438 11.800781 8 C 11.800781 10.101562 10.101562 11.800781 8 11.800781 C 5.902344 11.800781 4.199219 10.097656 4.199219 8 Z M 4.199219 8 "/>
<path style=" stroke:none;fill-rule:nonzero;fill:rgb(100%,100%,100%);fill-opacity:1;" d="M 4.582031 15.523438 C 3.78125 15.523438 2.972656 14.984375 2.972656 13.773438 C 2.972656 12.566406 3.796875 12 4.609375 12 C 5.003906 12.003906 5.382812 12.164062 5.65625 12.449219 L 5.734375 12.53125 L 5.179688 13.203125 L 5.082031 13.113281 C 4.964844 12.984375 4.796875 12.90625 4.621094 12.898438 C 4.25 12.890625 4 13.25 4 13.75 C 4 14.296875 4.230469 14.621094 4.609375 14.621094 C 4.804688 14.609375 4.984375 14.519531 5.109375 14.371094 L 5.207031 14.265625 L 5.765625 14.933594 L 5.699219 15.011719 C 5.421875 15.339844 5.011719 15.527344 4.582031 15.523438 Z M 4.582031 15.523438 "/>
<path style=" stroke:none;fill-rule:nonzero;fill:rgb(60.000002%,60.000002%,60.000002%);fill-opacity:1;" d="M 4.609375 12.117188 C 4.96875 12.121094 5.316406 12.269531 5.566406 12.53125 L 5.167969 13.015625 C 5.027344 12.863281 4.828125 12.773438 4.621094 12.765625 C 4.210938 12.765625 3.871094 13.128906 3.871094 13.746094 C 3.871094 14.363281 4.160156 14.746094 4.605469 14.746094 C 4.839844 14.742188 5.058594 14.636719 5.210938 14.457031 L 5.609375 14.933594 C 5.355469 15.238281 4.976562 15.410156 4.578125 15.402344 C 3.773438 15.402344 3.09375 14.851562 3.09375 13.777344 C 3.09375 12.703125 3.800781 12.121094 4.59375 12.121094 M 4.59375 11.871094 C 3.71875 11.871094 2.84375 12.523438 2.84375 13.777344 C 2.84375 15.074219 3.710938 15.652344 4.578125 15.652344 C 5.046875 15.660156 5.496094 15.457031 5.796875 15.097656 L 5.9375 14.933594 L 5.800781 14.773438 L 5.398438 14.296875 L 5.21875 14.078125 L 5.023438 14.289062 C 4.921875 14.414062 4.769531 14.492188 4.605469 14.496094 C 4.167969 14.496094 4.121094 13.976562 4.121094 13.746094 C 4.121094 13.308594 4.320312 13.015625 4.621094 13.015625 C 4.765625 13.023438 4.902344 13.089844 5 13.199219 L 5.195312 13.378906 L 5.363281 13.171875 L 5.75 12.691406 L 5.890625 12.515625 L 5.75 12.355469 C 5.453125 12.039062 5.042969 11.859375 4.613281 11.855469 Z M 4.59375 11.871094 "/>
<path style=" stroke:none;fill-rule:nonzero;fill:rgb(100%,100%,100%);fill-opacity:1;" d="M 5.75 15.464844 L 5.75 12.050781 L 6.773438 12.050781 C 7.886719 12.050781 8.503906 12.652344 8.503906 13.742188 C 8.503906 14.832031 7.886719 15.464844 6.816406 15.464844 Z M 6.75 14.601562 C 7.09375 14.601562 7.476562 14.488281 7.476562 13.742188 C 7.476562 12.996094 7.128906 12.910156 6.75 12.90625 Z M 6.75 14.601562 "/>
<path style=" stroke:none;fill-rule:nonzero;fill:rgb(60.000002%,60.000002%,60.000002%);fill-opacity:1;" d="M 6.773438 12.175781 C 7.738281 12.175781 8.378906 12.640625 8.378906 13.742188 C 8.378906 14.84375 7.75 15.339844 6.816406 15.339844 L 5.863281 15.339844 L 5.863281 12.175781 L 6.773438 12.175781 M 6.625 14.726562 L 6.726562 14.726562 C 7.226562 14.726562 7.601562 14.492188 7.601562 13.742188 C 7.601562 12.992188 7.25 12.78125 6.726562 12.78125 L 6.625 12.78125 L 6.625 14.726562 M 6.773438 11.925781 L 5.613281 11.925781 L 5.613281 15.589844 L 6.816406 15.589844 C 7.949219 15.589844 8.628906 14.898438 8.628906 13.742188 C 8.628906 12.585938 7.953125 11.925781 6.773438 11.925781 Z M 6.875 14.46875 L 6.875 13.039062 C 7.175781 13.070312 7.351562 13.226562 7.351562 13.742188 C 7.351562 14.261719 7.164062 14.433594 6.875 14.46875 Z M 6.875 14.46875 "/>
<path style=" stroke:none;fill-rule:nonzero;fill:rgb(100%,100%,100%);fill-opacity:1;" d="M 8.472656 13.71875 L 9.925781 13.71875 L 9.925781 14.5 L 8.472656 14.5 Z M 8.472656 13.71875 "/>
<path style=" stroke:none;fill-rule:nonzero;fill:rgb(60.000002%,60.000002%,60.000002%);fill-opacity:1;" d="M 9.800781 13.84375 L 9.800781 14.375 L 8.597656 14.375 L 8.597656 13.84375 L 9.800781 13.84375 M 10.050781 13.59375 L 8.347656 13.59375 L 8.347656 14.625 L 10.050781 14.625 Z M 10.050781 13.59375 "/>
<path style=" stroke:none;fill-rule:nonzero;fill:rgb(100%,100%,100%);fill-opacity:1;" d="M 11.796875 15.464844 L 11.21875 14.351562 L 11.050781 14.351562 L 11.050781 15.464844 L 10.039062 15.464844 L 10.039062 12.050781 L 11.324219 12.050781 C 12.453125 12.050781 12.6875 12.660156 12.6875 13.171875 C 12.707031 13.558594 12.515625 13.929688 12.1875 14.136719 L 12.9375 15.464844 Z M 11.265625 13.5 C 11.648438 13.5 11.695312 13.308594 11.695312 13.171875 C 11.695312 13.03125 11.664062 12.898438 11.265625 12.898438 L 11.050781 12.898438 L 11.050781 13.5 Z M 11.265625 13.5 "/>
<path style=" stroke:none;fill-rule:nonzero;fill:rgb(60.000002%,60.000002%,60.000002%);fill-opacity:1;" d="M 11.324219 12.175781 C 12.003906 12.175781 12.574219 12.40625 12.574219 13.175781 C 12.601562 13.566406 12.382812 13.929688 12.03125 14.089844 L 12.738281 15.339844 L 11.875 15.339844 L 11.292969 14.226562 L 10.925781 14.226562 L 10.925781 15.339844 L 10.164062 15.339844 L 10.164062 12.175781 L 11.324219 12.175781 M 10.925781 13.628906 L 11.265625 13.628906 C 11.628906 13.628906 11.820312 13.46875 11.820312 13.171875 C 11.820312 12.875 11.628906 12.777344 11.265625 12.777344 L 10.925781 12.777344 L 10.925781 13.628906 M 11.324219 11.925781 L 9.914062 11.925781 L 9.914062 15.589844 L 11.175781 15.589844 L 11.175781 14.546875 L 11.652344 15.453125 L 11.722656 15.589844 L 13.152344 15.589844 L 12.941406 15.21875 L 12.355469 14.171875 C 12.660156 13.933594 12.832031 13.558594 12.8125 13.171875 C 12.8125 12.707031 12.621094 11.921875 11.3125 11.921875 Z M 11.175781 13.027344 L 11.265625 13.027344 C 11.570312 13.027344 11.570312 13.085938 11.570312 13.171875 C 11.570312 13.261719 11.570312 13.378906 11.265625 13.378906 L 11.175781 13.378906 Z M 11.175781 13.027344 "/>
</g>
</svg>
