
<svg xmlns="http://www.w3.org/2000/svg" xmlns:xlink="http://www.w3.org/1999/xlink" width="16px" height="16px" viewBox="0 0 16 16" version="1.1">
<defs>
<linearGradient id="linear0" gradientUnits="userSpaceOnUse" x1="16.09" y1="59.560001" x2="47.290001" y2="5.51" gradientTransform="matrix(0.25,0,0,0.25,0,0)">
<stop offset="0" style="stop-color:rgb(83.137256%,83.137256%,83.137256%);stop-opacity:1;"/>
<stop offset="0.34" style="stop-color:rgb(45.882353%,75.294119%,96.470588%);stop-opacity:1;"/>
<stop offset="0.46" style="stop-color:rgb(47.843137%,53.725493%,86.274511%);stop-opacity:1;"/>
<stop offset="0.57" style="stop-color:rgb(49.411765%,34.117648%,76.862746%);stop-opacity:1;"/>
<stop offset="0.65" style="stop-color:rgb(47.450981%,36.078432%,78.039217%);stop-opacity:1;"/>
<stop offset="0.74" style="stop-color:rgb(42.352942%,41.960785%,81.176472%);stop-opacity:1;"/>
<stop offset="0.84" style="stop-color:rgb(33.725491%,51.372552%,85.882354%);stop-opacity:1;"/>
<stop offset="0.95" style="stop-color:rgb(21.960784%,64.705884%,92.941177%);stop-opacity:1;"/>
<stop offset="1" style="stop-color:rgb(16.078432%,71.372551%,96.470588%);stop-opacity:1;"/>
</linearGradient>
</defs>
<g id="surface1">
<path style="fill-rule:nonzero;fill:rgb(92.156863%,92.54902%,93.333334%);fill-opacity:1;stroke-width:1;stroke-linecap:butt;stroke-linejoin:miter;stroke:rgb(82.352942%,83.529413%,85.490197%);stroke-opacity:1;stroke-miterlimit:10;" d="M 32 12.921875 C 21.46875 12.921875 12.921875 21.46875 12.9375 32 C 12.9375 42.546875 21.484375 51.078125 32.015625 51.078125 C 42.546875 51.078125 51.09375 42.53125 51.09375 32 C 51.078125 21.46875 42.53125 12.9375 32 12.921875 Z M 32 38.625 C 28.34375 38.625 25.375 35.65625 25.375 32 C 25.375 28.34375 28.34375 25.375 32 25.375 C 35.65625 25.375 38.625 28.34375 38.625 32 C 38.625 35.65625 35.65625 38.625 32 38.625 Z M 32 38.625 " transform="matrix(0.25,0,0,0.25,0,0)"/>
<path style=" stroke:none;fill-rule:nonzero;fill:url(#linear0);" d="M 8 0 C 3.582031 0 0 3.582031 0 8 C 0 12.417969 3.582031 16 8 16 C 12.417969 16 16 12.417969 16 8 C 16 3.582031 12.417969 0 8 0 Z M 4.199219 8 C 4.199219 5.898438 5.898438 4.199219 8 4.199219 C 10.101562 4.199219 11.800781 5.898438 11.800781 8 C 11.800781 10.101562 10.101562 11.800781 8 11.800781 C 5.902344 11.800781 4.199219 10.097656 4.199219 8 Z M 4.199219 8 "/>
<path style=" stroke:none;fill-rule:nonzero;fill:rgb(49.411765%,34.117648%,76.862746%);fill-opacity:1;" d="M 14.558594 15.875 C 13.828125 15.875 13.238281 15.375 13.238281 14.753906 C 13.238281 14.136719 13.828125 13.636719 14.558594 13.636719 C 14.6875 13.636719 14.816406 13.652344 14.941406 13.683594 L 14.941406 10.09375 C 14.941406 9.820312 14.714844 9.59375 14.441406 9.59375 L 11.429688 9.59375 C 11.152344 9.59375 10.929688 9.820312 10.929688 10.09375 L 10.929688 13.648438 C 10.882812 14.234375 10.308594 14.691406 9.613281 14.691406 C 8.921875 14.691406 8.296875 14.191406 8.296875 13.574219 C 8.296875 12.953125 8.886719 12.453125 9.613281 12.453125 C 9.75 12.453125 9.886719 12.46875 10.015625 12.507812 L 10.015625 9.5 C 10.015625 8.601562 10.746094 7.875 11.640625 7.871094 L 14.234375 7.871094 C 15.132812 7.875 15.859375 8.601562 15.863281 9.5 L 15.863281 14.660156 C 15.863281 14.6875 15.863281 14.714844 15.863281 14.742188 C 15.875 15.371094 15.28125 15.875 14.558594 15.875 Z M 14.558594 15.875 "/>
<path style=" stroke:none;fill-rule:nonzero;fill:rgb(100%,100%,100%);fill-opacity:1;" d="M 14.234375 8 C 15.0625 8 15.734375 8.671875 15.734375 9.5 L 15.734375 14.660156 C 15.742188 14.691406 15.746094 14.71875 15.75 14.75 C 15.75 15.300781 15.214844 15.75 14.558594 15.75 C 13.898438 15.75 13.363281 15.304688 13.363281 14.75 C 13.363281 14.195312 13.898438 13.75 14.558594 13.75 C 14.730469 13.75 14.898438 13.785156 15.058594 13.847656 L 15.058594 10.097656 C 15.054688 9.757812 14.78125 9.484375 14.441406 9.484375 L 11.429688 9.484375 C 11.089844 9.484375 10.816406 9.757812 10.816406 10.097656 L 10.816406 13.523438 C 10.816406 13.542969 10.816406 13.554688 10.816406 13.574219 C 10.816406 14.121094 10.28125 14.574219 9.621094 14.574219 C 8.964844 14.574219 8.425781 14.128906 8.425781 13.574219 C 8.425781 13.015625 8.960938 12.574219 9.621094 12.574219 C 9.800781 12.574219 9.980469 12.609375 10.148438 12.675781 L 10.148438 9.5 C 10.148438 8.671875 10.820312 8 11.648438 8 L 14.234375 8 M 14.234375 7.75 L 11.644531 7.75 C 10.679688 7.75 9.894531 8.535156 9.894531 9.5 L 9.894531 12.351562 C 9.804688 12.335938 9.710938 12.328125 9.621094 12.328125 C 8.824219 12.328125 8.175781 12.886719 8.175781 13.578125 C 8.175781 14.269531 8.824219 14.828125 9.621094 14.828125 C 10.28125 14.859375 10.875 14.425781 11.042969 13.785156 L 11.058594 13.785156 L 11.058594 10.09375 C 11.058594 9.894531 11.222656 9.734375 11.421875 9.734375 L 14.449219 9.734375 C 14.652344 9.734375 14.8125 9.894531 14.816406 10.09375 L 14.816406 13.53125 C 14.734375 13.519531 14.648438 13.511719 14.566406 13.511719 C 14.203125 13.507812 13.847656 13.632812 13.566406 13.859375 C 13.289062 14.074219 13.121094 14.398438 13.113281 14.75 C 13.113281 15.4375 13.761719 16 14.558594 16 C 15.355469 16 16 15.441406 16 14.75 C 16.003906 14.714844 16.003906 14.679688 16 14.648438 L 16 9.5 C 16 8.535156 15.214844 7.75 14.25 7.75 Z M 14.234375 7.75 "/>
</g>
</svg>
