
<svg xmlns="http://www.w3.org/2000/svg" xmlns:xlink="http://www.w3.org/1999/xlink" width="16px" height="16px" viewBox="0 0 16 16" version="1.1">
<defs>
<linearGradient id="linear0" gradientUnits="userSpaceOnUse" x1="16.09" y1="59.560001" x2="47.290001" y2="5.51" gradientTransform="matrix(0.25,0,0,0.25,0,0)">
<stop offset="0" style="stop-color:rgb(83.137256%,83.137256%,83.137256%);stop-opacity:1;"/>
<stop offset="0.34" style="stop-color:rgb(45.882353%,75.294119%,96.470588%);stop-opacity:1;"/>
<stop offset="0.46" style="stop-color:rgb(47.843137%,53.725493%,86.274511%);stop-opacity:1;"/>
<stop offset="0.57" style="stop-color:rgb(49.411765%,34.117648%,76.862746%);stop-opacity:1;"/>
<stop offset="0.65" style="stop-color:rgb(47.450981%,36.078432%,78.039217%);stop-opacity:1;"/>
<stop offset="0.74" style="stop-color:rgb(42.352942%,41.960785%,81.176472%);stop-opacity:1;"/>
<stop offset="0.84" style="stop-color:rgb(33.725491%,51.372552%,85.882354%);stop-opacity:1;"/>
<stop offset="0.95" style="stop-color:rgb(21.960784%,64.705884%,92.941177%);stop-opacity:1;"/>
<stop offset="1" style="stop-color:rgb(16.078432%,71.372551%,96.470588%);stop-opacity:1;"/>
</linearGradient>
</defs>
<g id="surface1">
<path style="fill-rule:nonzero;fill:rgb(92.156863%,92.54902%,93.333334%);fill-opacity:1;stroke-width:1;stroke-linecap:butt;stroke-linejoin:miter;stroke:rgb(82.352942%,83.529413%,85.490197%);stroke-opacity:1;stroke-miterlimit:10;" d="M 32 12.921875 C 21.46875 12.921875 12.921875 21.46875 12.9375 32 C 12.9375 42.546875 21.484375 51.078125 32.015625 51.078125 C 42.546875 51.078125 51.09375 42.53125 51.09375 32 C 51.078125 21.46875 42.53125 12.9375 32 12.921875 Z M 32 38.625 C 28.34375 38.625 25.375 35.65625 25.375 32 C 25.375 28.34375 28.34375 25.375 32 25.375 C 35.65625 25.375 38.625 28.34375 38.625 32 C 38.625 35.65625 35.65625 38.625 32 38.625 Z M 32 38.625 " transform="matrix(0.25,0,0,0.25,0,0)"/>
<path style=" stroke:none;fill-rule:nonzero;fill:url(#linear0);" d="M 8 0 C 3.582031 0 0 3.582031 0 8 C 0 12.417969 3.582031 16 8 16 C 12.417969 16 16 12.417969 16 8 C 16 3.582031 12.417969 0 8 0 Z M 4.199219 8 C 4.199219 5.898438 5.898438 4.199219 8 4.199219 C 10.101562 4.199219 11.800781 5.898438 11.800781 8 C 11.800781 10.101562 10.101562 11.800781 8 11.800781 C 5.902344 11.800781 4.199219 10.097656 4.199219 8 Z M 4.199219 8 "/>
<path style=" stroke:none;fill-rule:nonzero;fill:rgb(100%,100%,100%);fill-opacity:1;" d="M 4.710938 15.425781 L 4.066406 13.65625 C 3.992188 13.9375 3.8125 14.183594 3.566406 14.335938 C 3.207031 14.5625 2.804688 14.714844 2.386719 14.785156 C 2.027344 14.847656 1.660156 14.878906 1.292969 14.890625 L 1.25 14.890625 C 1.128906 14.890625 1 14.890625 0.878906 14.890625 L 0.140625 14.890625 C 0.140625 14.890625 0.203125 14.613281 0.210938 14.574219 L 0.308594 14.164062 C 0.398438 13.792969 0.484375 13.414062 0.558594 13.050781 C 0.566406 13 0.59375 12.957031 0.628906 12.925781 L 0.601562 12.925781 L 0.75 12.351562 C 0.800781 12.140625 0.847656 12.101562 1.058594 12.101562 L 4.582031 12.101562 C 4.6875 12.089844 4.785156 12.160156 4.804688 12.265625 C 4.925781 12.660156 5.046875 13.054688 5.171875 13.449219 L 5.230469 13.648438 L 5.605469 13.183594 C 5.871094 12.847656 6.136719 12.519531 6.402344 12.199219 C 6.449219 12.132812 6.523438 12.097656 6.601562 12.101562 L 7.769531 12.101562 C 8.046875 12.101562 8.320312 12.101562 8.59375 12.101562 C 8.96875 12.089844 9.339844 12.171875 9.675781 12.332031 C 10.039062 12.484375 10.304688 12.808594 10.382812 13.191406 C 10.417969 13.410156 10.382812 13.632812 10.277344 13.828125 C 10.09375 14.1875 9.789062 14.464844 9.414062 14.613281 C 8.996094 14.796875 8.539062 14.890625 8.082031 14.886719 L 6.453125 14.886719 L 6.523438 14.589844 C 6.523438 14.589844 6.761719 13.589844 6.832031 13.273438 L 4.96875 15.375 L 4.820312 15.554688 Z M 1.566406 14.101562 C 1.710938 14.105469 1.859375 14.09375 2 14.0625 C 2.230469 14.019531 2.445312 13.914062 2.617188 13.75 C 2.75 13.636719 2.8125 13.460938 2.777344 13.289062 C 2.75 13.175781 2.667969 13.085938 2.558594 13.039062 C 2.433594 12.976562 2.292969 12.941406 2.152344 12.941406 L 1.851562 12.941406 L 1.554688 14.101562 Z M 8.148438 14.0625 C 8.421875 14.0625 8.6875 13.96875 8.898438 13.796875 C 9.03125 13.699219 9.113281 13.546875 9.121094 13.386719 C 9.121094 13.246094 9.042969 13.117188 8.921875 13.050781 C 8.785156 12.960938 8.621094 12.914062 8.453125 12.917969 L 8.148438 12.917969 L 8.148438 13.039062 L 7.898438 14.066406 Z M 8.148438 14.0625 "/>
<path style=" stroke:none;fill-rule:nonzero;fill:rgb(60.000002%,60.000002%,60.000002%);fill-opacity:1;" d="M 7.761719 12.214844 L 8.59375 12.214844 C 8.953125 12.210938 9.304688 12.285156 9.628906 12.433594 C 9.957031 12.574219 10.195312 12.867188 10.269531 13.21875 C 10.300781 13.410156 10.265625 13.609375 10.175781 13.78125 C 10.003906 14.113281 9.714844 14.375 9.367188 14.511719 C 8.960938 14.6875 8.523438 14.769531 8.082031 14.761719 L 6.597656 14.761719 C 6.609375 14.703125 6.621094 14.65625 6.632812 14.605469 C 6.753906 14.078125 6.882812 13.558594 7.003906 13.035156 C 7.003906 12.996094 7.023438 12.980469 7.066406 12.980469 L 8.039062 12.980469 C 7.949219 13.367188 7.859375 13.753906 7.761719 14.148438 L 8.164062 14.148438 C 8.464844 14.148438 8.753906 14.042969 8.988281 13.851562 C 9.148438 13.734375 9.246094 13.550781 9.25 13.351562 C 9.25 13.175781 9.15625 13.011719 9 12.925781 C 8.84375 12.820312 8.660156 12.765625 8.46875 12.765625 L 7.191406 12.765625 C 7.136719 12.765625 7.082031 12.789062 7.050781 12.828125 C 6.328125 13.644531 5.609375 14.460938 4.886719 15.273438 L 4.824219 15.347656 L 4.824219 15.335938 L 3.980469 13.03125 C 3.992188 13.199219 3.992188 13.367188 3.980469 13.53125 C 3.9375 13.832031 3.761719 14.097656 3.5 14.25 C 3.152344 14.46875 2.765625 14.617188 2.363281 14.679688 C 1.988281 14.742188 1.609375 14.777344 1.226562 14.785156 C 1.109375 14.785156 0.976562 14.785156 0.863281 14.785156 L 0.28125 14.785156 C 0.296875 14.71875 0.308594 14.664062 0.324219 14.605469 C 0.441406 14.105469 0.574219 13.605469 0.683594 13.085938 C 0.683594 13.027344 0.71875 13.011719 0.773438 13.011719 L 1.710938 13.011719 L 1.40625 14.210938 L 1.566406 14.210938 C 1.71875 14.214844 1.867188 14.203125 2.011719 14.171875 C 2.269531 14.128906 2.507812 14.011719 2.699219 13.835938 C 2.859375 13.695312 2.929688 13.480469 2.890625 13.273438 C 2.855469 13.121094 2.753906 12.996094 2.613281 12.929688 C 2.46875 12.855469 2.3125 12.816406 2.152344 12.816406 L 0.75 12.816406 C 0.785156 12.664062 0.820312 12.515625 0.855469 12.371094 C 0.890625 12.226562 0.890625 12.214844 1.050781 12.214844 L 4.582031 12.214844 C 4.609375 12.210938 4.636719 12.21875 4.65625 12.234375 C 4.679688 12.25 4.691406 12.273438 4.695312 12.300781 C 4.851562 12.800781 5.011719 13.324219 5.167969 13.835938 C 5.167969 13.835938 5.167969 13.863281 5.1875 13.886719 L 5.53125 13.460938 C 5.851562 13.066406 6.171875 12.667969 6.488281 12.269531 C 6.515625 12.234375 6.558594 12.214844 6.601562 12.21875 L 7.761719 12.21875 M 7.761719 11.988281 L 6.601562 11.988281 C 6.488281 11.988281 6.378906 12.039062 6.3125 12.128906 C 6.050781 12.464844 5.789062 12.789062 5.527344 13.101562 L 5.351562 13.320312 L 5.273438 13.414062 C 5.15625 13.023438 5.023438 12.628906 4.914062 12.238281 C 4.878906 12.085938 4.738281 11.980469 4.582031 11.988281 L 1.050781 11.988281 C 0.785156 11.988281 0.691406 12.0625 0.628906 12.320312 C 0.605469 12.421875 0.582031 12.519531 0.558594 12.621094 L 0.523438 12.765625 L 0.472656 12.980469 C 0.472656 12.996094 0.472656 13.011719 0.472656 13.027344 C 0.375 13.394531 0.289062 13.75 0.199219 14.125 L 0.101562 14.550781 C 0.101562 14.589844 0.0820312 14.628906 0.0742188 14.671875 L 0.0742188 14.734375 L 0 15 L 0.871094 15 C 1.015625 15 1.132812 15 1.246094 15 L 1.308594 15 C 1.679688 14.992188 2.046875 14.953125 2.414062 14.890625 C 2.847656 14.820312 3.261719 14.664062 3.632812 14.425781 C 3.808594 14.3125 3.957031 14.15625 4.0625 13.976562 L 4.183594 14.308594 L 4.601562 15.445312 L 4.613281 15.476562 L 4.632812 15.507812 L 4.632812 15.519531 L 4.808594 15.738281 L 4.988281 15.523438 L 5.015625 15.488281 L 5.046875 15.453125 L 5.496094 14.953125 C 5.867188 14.539062 6.238281 14.121094 6.609375 13.703125 L 6.5 14.175781 L 6.40625 14.574219 C 6.40625 14.609375 6.390625 14.640625 6.378906 14.679688 L 6.378906 14.734375 L 6.3125 15 L 8.085938 15 C 8.558594 15.003906 9.027344 14.910156 9.460938 14.71875 C 9.859375 14.558594 10.1875 14.261719 10.378906 13.878906 C 10.496094 13.664062 10.539062 13.417969 10.5 13.179688 C 10.410156 12.761719 10.125 12.414062 9.730469 12.25 C 9.375 12.082031 8.988281 11.996094 8.597656 12 C 8.320312 12 8.039062 12 7.761719 12 Z M 8.039062 13.949219 L 8.128906 13.574219 L 8.25 13.074219 L 8.25 13.039062 L 8.449219 13.039062 C 8.59375 13.039062 8.734375 13.078125 8.851562 13.15625 C 8.976562 13.242188 9.003906 13.3125 9.003906 13.390625 C 8.996094 13.523438 8.929688 13.644531 8.824219 13.71875 C 8.632812 13.878906 8.390625 13.96875 8.140625 13.96875 Z M 1.703125 13.988281 L 1.820312 13.519531 L 1.933594 13.070312 L 1.933594 13.050781 L 2.148438 13.050781 C 2.273438 13.054688 2.394531 13.082031 2.503906 13.140625 C 2.585938 13.167969 2.644531 13.238281 2.664062 13.324219 C 2.6875 13.457031 2.640625 13.59375 2.53125 13.675781 C 2.375 13.824219 2.175781 13.921875 1.960938 13.953125 C 1.875 13.972656 1.785156 13.984375 1.699219 13.988281 Z M 1.703125 13.988281 "/>
<path style=" stroke:none;fill-rule:nonzero;fill:rgb(100%,100%,100%);fill-opacity:1;" d="M 11.585938 14.640625 L 11.585938 13.828125 L 10.808594 13.828125 L 10.808594 13.113281 L 11.585938 13.113281 L 11.585938 12.300781 L 12.320312 12.300781 L 12.320312 13.113281 L 13.097656 13.113281 L 13.097656 13.828125 L 12.320312 13.828125 L 12.320312 14.640625 Z M 11.585938 14.640625 "/>
<path style=" stroke:none;fill-rule:nonzero;fill:rgb(16.078432%,71.372551%,96.470588%);fill-opacity:1;" d="M 12.203125 12.417969 L 12.203125 13.226562 L 12.984375 13.226562 L 12.984375 13.710938 L 12.203125 13.710938 L 12.203125 14.527344 L 11.703125 14.527344 L 11.703125 13.710938 L 10.925781 13.710938 L 10.925781 13.226562 L 11.699219 13.226562 L 11.699219 12.417969 L 12.199219 12.417969 M 12.425781 12.191406 L 11.472656 12.191406 L 11.472656 13 L 10.699219 13 L 10.699219 13.941406 L 11.472656 13.941406 L 11.472656 14.75 L 12.433594 14.75 L 12.433594 13.941406 L 13.210938 13.941406 L 13.210938 13 L 12.433594 13 L 12.433594 12.191406 Z M 12.425781 12.191406 "/>
<path style=" stroke:none;fill-rule:nonzero;fill:rgb(100%,100%,100%);fill-opacity:1;" d="M 14.765625 15.046875 L 14.234375 14.03125 L 14.082031 14.03125 L 14.082031 15.046875 L 13.164062 15.046875 L 13.164062 11.933594 L 14.335938 11.933594 C 15.359375 11.933594 15.585938 12.488281 15.585938 12.957031 C 15.601562 13.3125 15.429688 13.644531 15.128906 13.835938 L 15.8125 15.046875 Z M 14.28125 13.25 C 14.628906 13.25 14.671875 13.078125 14.671875 12.949219 C 14.671875 12.824219 14.640625 12.699219 14.28125 12.699219 L 14.082031 12.699219 L 14.082031 13.25 Z M 14.28125 13.25 "/>
<path style=" stroke:none;fill-rule:nonzero;fill:rgb(16.078432%,71.372551%,96.470588%);fill-opacity:1;" d="M 14.335938 12.050781 C 14.949219 12.050781 15.460938 12.257812 15.460938 12.957031 C 15.484375 13.3125 15.285156 13.644531 14.960938 13.789062 L 15.609375 14.933594 L 14.832031 14.933594 L 14.300781 13.917969 L 13.96875 13.917969 L 13.96875 14.933594 L 13.273438 14.933594 L 13.273438 12.050781 L 14.335938 12.050781 M 13.96875 13.371094 L 14.28125 13.371094 C 14.609375 13.371094 14.78125 13.226562 14.78125 12.957031 C 14.78125 12.6875 14.605469 12.59375 14.28125 12.59375 L 13.96875 12.59375 L 13.96875 13.371094 M 14.335938 11.820312 L 13.046875 11.820312 L 13.046875 15.164062 L 14.199219 15.164062 L 14.199219 14.210938 L 14.632812 15.039062 L 14.695312 15.164062 L 16 15.164062 L 15.808594 14.824219 L 15.273438 13.871094 C 15.550781 13.652344 15.707031 13.3125 15.691406 12.957031 C 15.691406 12.53125 15.515625 11.820312 14.335938 11.820312 Z M 14.199219 12.820312 L 14.28125 12.820312 C 14.554688 12.820312 14.554688 12.871094 14.554688 12.953125 C 14.554688 13.03125 14.554688 13.136719 14.28125 13.136719 L 14.199219 13.136719 Z M 14.199219 12.820312 "/>
</g>
</svg>
