
<svg xmlns="http://www.w3.org/2000/svg" xmlns:xlink="http://www.w3.org/1999/xlink" width="16px" height="16px" viewBox="0 0 16 16" version="1.1">
<g id="surface1">
<path style=" stroke:none;fill-rule:nonzero;fill:rgb(30.980393%,32.549021%,33.725491%);fill-opacity:1;" d="M 1.320312 15.089844 C 1.320312 15.59375 1.726562 16 2.230469 16 L 13.769531 16 C 14.273438 16 14.679688 15.59375 14.679688 15.089844 L 14.679688 2.539062 C 14.679688 2.296875 14.585938 2.0625 14.414062 1.890625 L 12.789062 0.265625 C 12.617188 0.0976562 12.382812 0 12.140625 0 L 2.230469 0 C 1.726562 0 1.320312 0.40625 1.320312 0.910156 Z M 1.320312 15.089844 "/>
<path style=" stroke:none;fill-rule:nonzero;fill:rgb(100%,80.000001%,0%);fill-opacity:1;" d="M 10.914062 4.878906 L 10.914062 1.667969 L 10 1.667969 L 10 4.835938 C 10.304688 4.878906 10.609375 4.894531 10.914062 4.878906 Z M 10.914062 4.878906 "/>
<path style=" stroke:none;fill-rule:nonzero;fill:rgb(100%,80.000001%,0%);fill-opacity:1;" d="M 4.160156 3.230469 C 4.460938 3.191406 4.761719 3.183594 5.0625 3.203125 L 5.0625 1.667969 L 4.160156 1.667969 Z M 4.160156 3.230469 "/>
<path style=" stroke:none;fill-rule:nonzero;fill:rgb(100%,80.000001%,0%);fill-opacity:1;" d="M 9.75 1.667969 L 8.824219 1.667969 L 8.824219 4.546875 C 9.125 4.65625 9.429688 4.742188 9.746094 4.796875 Z M 9.75 1.667969 "/>
<path style=" stroke:none;fill-rule:nonzero;fill:rgb(100%,80.000001%,0%);fill-opacity:1;" d="M 7.851562 5.140625 C 9.453125 6.101562 11.433594 6.175781 13.101562 5.339844 L 13.101562 3.050781 C 13.101562 2.5 12.769531 2 12.261719 1.78125 L 12.261719 4.902344 L 12.171875 4.925781 C 11.6875 5.0625 11.191406 5.132812 10.6875 5.132812 C 9.648438 5.121094 8.625 4.839844 7.726562 4.316406 C 6.449219 3.59375 5.210938 3.316406 4.050781 3.496094 L 3.90625 3.515625 L 3.90625 1.71875 C 3.308594 1.886719 2.894531 2.429688 2.890625 3.050781 L 2.890625 4.621094 C 3.871094 4.199219 5.601562 3.867188 7.851562 5.140625 Z M 7.851562 5.140625 "/>
<path style=" stroke:none;fill-rule:nonzero;fill:rgb(100%,80.000001%,0%);fill-opacity:1;" d="M 8.574219 4.445312 L 8.574219 1.667969 L 7.652344 1.667969 L 7.652344 4 C 7.71875 4.035156 7.789062 4.066406 7.851562 4.105469 C 8.085938 4.234375 8.328125 4.347656 8.574219 4.445312 Z M 8.574219 4.445312 "/>
<path style=" stroke:none;fill-rule:nonzero;fill:rgb(100%,80.000001%,0%);fill-opacity:1;" d="M 11.164062 4.859375 C 11.453125 4.832031 11.734375 4.78125 12.015625 4.710938 L 12.015625 1.699219 C 11.917969 1.679688 11.820312 1.667969 11.71875 1.667969 L 11.164062 1.667969 Z M 11.164062 4.859375 "/>
<path style=" stroke:none;fill-rule:nonzero;fill:rgb(100%,80.000001%,0%);fill-opacity:1;" d="M 7.402344 1.667969 L 6.484375 1.667969 L 6.484375 3.5 C 6.796875 3.605469 7.105469 3.730469 7.402344 3.875 Z M 7.402344 1.667969 "/>
<path style=" stroke:none;fill-rule:nonzero;fill:rgb(100%,80.000001%,0%);fill-opacity:1;" d="M 6.234375 1.667969 L 5.3125 1.667969 L 5.3125 3.230469 C 5.625 3.265625 5.929688 3.328125 6.234375 3.414062 Z M 6.234375 1.667969 "/>
<path style=" stroke:none;fill-rule:nonzero;fill:rgb(100%,80.000001%,0%);fill-opacity:1;" d="M 5.25 8.667969 L 6.171875 8.667969 L 6.171875 5.710938 C 5.871094 5.625 5.5625 5.5625 5.25 5.527344 Z M 5.25 8.667969 "/>
<path style=" stroke:none;fill-rule:nonzero;fill:rgb(100%,80.000001%,0%);fill-opacity:1;" d="M 12.015625 7.015625 C 11.71875 7.089844 11.417969 7.140625 11.113281 7.167969 L 11.113281 8.667969 L 11.71875 8.667969 C 11.820312 8.667969 11.917969 8.65625 12.015625 8.632812 Z M 12.015625 7.015625 "/>
<path style=" stroke:none;fill-rule:nonzero;fill:rgb(100%,80.000001%,0%);fill-opacity:1;" d="M 10.664062 6.171875 C 9.632812 6.160156 8.621094 5.882812 7.730469 5.359375 C 5.457031 4.074219 3.789062 4.457031 2.894531 4.878906 L 2.894531 7.28125 C 2.898438 8.046875 3.519531 8.664062 4.28125 8.667969 L 5 8.667969 L 5 5.5 C 4.714844 5.484375 4.433594 5.492188 4.148438 5.527344 L 4.148438 7.457031 L 3.898438 7.457031 L 3.898438 5.570312 L 3.878906 5.335938 C 4.878906 5.15625 6.21875 5.242188 7.84375 6.15625 C 9.171875 6.949219 10.773438 7.144531 12.253906 6.699219 L 12.253906 8.550781 C 12.761719 8.335938 13.09375 7.835938 13.09375 7.28125 L 13.09375 5.613281 C 12.335938 5.972656 11.503906 6.164062 10.664062 6.171875 Z M 10.664062 6.171875 "/>
<path style=" stroke:none;fill-rule:nonzero;fill:rgb(100%,80.000001%,0%);fill-opacity:1;" d="M 7.601562 6.308594 L 7.601562 8.667969 L 8.523438 8.667969 L 8.523438 6.75 C 8.25 6.640625 7.984375 6.511719 7.730469 6.363281 Z M 7.601562 6.308594 "/>
<path style=" stroke:none;fill-rule:nonzero;fill:rgb(100%,80.000001%,0%);fill-opacity:1;" d="M 8.773438 8.667969 L 9.691406 8.667969 L 9.691406 7.097656 C 9.378906 7.039062 9.070312 6.957031 8.773438 6.847656 Z M 8.773438 8.667969 "/>
<path style=" stroke:none;fill-rule:nonzero;fill:rgb(100%,80.000001%,0%);fill-opacity:1;" d="M 6.429688 8.667969 L 7.351562 8.667969 L 7.351562 6.167969 C 7.054688 6.019531 6.746094 5.890625 6.429688 5.78125 Z M 6.429688 8.667969 "/>
<path style=" stroke:none;fill-rule:nonzero;fill:rgb(100%,80.000001%,0%);fill-opacity:1;" d="M 9.941406 7.136719 L 9.941406 8.667969 L 10.863281 8.667969 L 10.863281 7.167969 C 10.796875 7.167969 10.734375 7.167969 10.664062 7.167969 C 10.421875 7.171875 10.183594 7.164062 9.941406 7.136719 Z M 9.941406 7.136719 "/>
<path style=" stroke:none;fill-rule:nonzero;fill:rgb(100%,100%,100%);fill-opacity:1;" d="M 12.40625 10.914062 L 3.761719 10.914062 C 3.386719 10.914062 3.082031 11.21875 3.082031 11.59375 L 3.082031 12.402344 L 13.082031 12.402344 L 13.082031 11.59375 C 13.082031 11.414062 13.011719 11.242188 12.886719 11.113281 C 12.757812 10.988281 12.585938 10.914062 12.40625 10.914062 Z M 12.40625 10.914062 "/>
<path style=" stroke:none;fill-rule:nonzero;fill:rgb(32.156864%,52.941179%,87.058824%);fill-opacity:1;" d="M 3.082031 12.402344 L 13.082031 12.402344 L 13.082031 15.453125 L 3.082031 15.453125 Z M 3.082031 12.402344 "/>
</g>
</svg>
