
<svg xmlns="http://www.w3.org/2000/svg" xmlns:xlink="http://www.w3.org/1999/xlink" width="16px" height="16px" viewBox="0 0 16 16" version="1.1">
<defs>
<linearGradient id="linear0" gradientUnits="userSpaceOnUse" x1="20.120001" y1="63" x2="20.120001" y2="0.86" gradientTransform="matrix(0.25,0,0,0.25,0,0)">
<stop offset="0" style="stop-color:rgb(63.137257%,65.098041%,67.843139%);stop-opacity:1;"/>
<stop offset="0.08" style="stop-color:rgb(68.627453%,70.19608%,72.549021%);stop-opacity:1;"/>
<stop offset="0.23" style="stop-color:rgb(76.078433%,77.64706%,79.607844%);stop-opacity:1;"/>
<stop offset="0.41" style="stop-color:rgb(81.568629%,83.137256%,84.313726%);stop-opacity:1;"/>
<stop offset="0.62" style="stop-color:rgb(85.09804%,86.274511%,87.450981%);stop-opacity:1;"/>
<stop offset="1" style="stop-color:rgb(85.882354%,87.058824%,88.235295%);stop-opacity:1;"/>
</linearGradient>
<linearGradient id="linear1" gradientUnits="userSpaceOnUse" x1="7.15" y1="3.99" x2="33.09" y2="29.93" gradientTransform="matrix(0.25,0,0,0.25,0,0)">
<stop offset="0" style="stop-color:rgb(16.078432%,71.372551%,96.470588%);stop-opacity:1;"/>
<stop offset="1" style="stop-color:rgb(36.862746%,47.843137%,84.313726%);stop-opacity:1;"/>
</linearGradient>
<linearGradient id="linear2" gradientUnits="userSpaceOnUse" x1="47.150002" y1="22.059999" x2="47.150002" y2="3.91" gradientTransform="matrix(0.25,0,0,0.25,0,0)">
<stop offset="0" style="stop-color:rgb(63.137257%,65.098041%,67.843139%);stop-opacity:1;"/>
<stop offset="0.33" style="stop-color:rgb(69.411767%,70.980394%,73.333335%);stop-opacity:1;"/>
<stop offset="0.98" style="stop-color:rgb(85.09804%,86.666667%,87.843138%);stop-opacity:1;"/>
<stop offset="1" style="stop-color:rgb(85.882354%,87.058824%,88.235295%);stop-opacity:1;"/>
</linearGradient>
<linearGradient id="linear3" gradientUnits="userSpaceOnUse" x1="59.360001" y1="22.059999" x2="59.360001" y2="3.91" gradientTransform="matrix(0.25,0,0,0.25,0,0)">
<stop offset="0" style="stop-color:rgb(63.137257%,65.098041%,67.843139%);stop-opacity:1;"/>
<stop offset="0.33" style="stop-color:rgb(69.411767%,70.980394%,73.333335%);stop-opacity:1;"/>
<stop offset="0.98" style="stop-color:rgb(85.09804%,86.666667%,87.843138%);stop-opacity:1;"/>
<stop offset="1" style="stop-color:rgb(85.882354%,87.058824%,88.235295%);stop-opacity:1;"/>
</linearGradient>
</defs>
<g id="surface1">
<path style=" stroke:none;fill-rule:nonzero;fill:rgb(71.764708%,72.549021%,73.725492%);fill-opacity:1;" d="M 13.433594 15.785156 L 12.25 15.785156 C 11.480469 15.785156 10.855469 15.160156 10.851562 14.386719 L 10.851562 7.910156 C 10.851562 7.574219 10.585938 7.300781 10.25 7.292969 L 9.585938 7.292969 L 9.585938 6.859375 L 10.25 6.859375 C 10.832031 6.859375 11.300781 7.328125 11.300781 7.910156 L 11.300781 14.386719 C 11.304688 14.914062 11.726562 15.339844 12.25 15.347656 L 13.429688 15.347656 Z M 13.433594 15.785156 "/>
<path style=" stroke:none;fill-rule:nonzero;fill:rgb(71.764708%,72.549021%,73.725492%);fill-opacity:1;" d="M 13.324219 15.773438 C 12.742188 15.769531 12.269531 15.300781 12.269531 14.71875 L 12.269531 5.949219 L 12.703125 5.949219 L 12.703125 14.71875 C 12.703125 15.0625 12.980469 15.335938 13.324219 15.335938 C 13.664062 15.335938 13.941406 15.0625 13.941406 14.71875 L 13.941406 5.949219 L 14.375 5.949219 L 14.375 14.71875 C 14.375 15.300781 13.902344 15.769531 13.324219 15.773438 Z M 13.324219 15.773438 "/>
<path style=" stroke:none;fill-rule:nonzero;fill:url(#linear0);" d="M 0.957031 0.214844 L 9.105469 0.214844 C 9.632812 0.214844 10.0625 0.644531 10.0625 1.171875 L 10.0625 14.792969 C 10.0625 15.320312 9.632812 15.75 9.105469 15.75 L 0.957031 15.75 C 0.429688 15.75 0 15.320312 0 14.792969 L 0 1.171875 C 0 0.644531 0.429688 0.214844 0.957031 0.214844 Z M 0.957031 0.214844 "/>
<path style=" stroke:none;fill-rule:nonzero;fill:url(#linear1);" d="M 1.585938 1.421875 L 8.476562 1.421875 C 8.773438 1.421875 9.015625 1.664062 9.015625 1.960938 L 9.015625 6.515625 C 9.015625 6.816406 8.773438 7.058594 8.476562 7.058594 L 1.585938 7.058594 C 1.289062 7.058594 1.046875 6.816406 1.046875 6.515625 L 1.046875 1.960938 C 1.046875 1.664062 1.289062 1.421875 1.585938 1.421875 Z M 1.585938 1.421875 "/>
<path style=" stroke:none;fill-rule:nonzero;fill:rgb(100%,100%,100%);fill-opacity:1;" d="M 5.070312 9.660156 C 5.710938 9.652344 6.292969 10.035156 6.542969 10.625 C 6.792969 11.21875 6.664062 11.902344 6.210938 12.359375 C 5.761719 12.816406 5.078125 12.953125 4.484375 12.710938 C 3.890625 12.46875 3.503906 11.890625 3.5 11.25 C 3.5 10.375 4.210938 9.667969 5.082031 9.667969 M 5.082031 8.351562 C 3.90625 8.347656 2.847656 9.050781 2.390625 10.132812 C 1.9375 11.214844 2.183594 12.464844 3.011719 13.296875 C 3.839844 14.132812 5.089844 14.382812 6.175781 13.933594 C 7.261719 13.484375 7.96875 12.425781 7.96875 11.25 C 7.96875 10.480469 7.664062 9.742188 7.121094 9.195312 C 6.578125 8.652344 5.839844 8.34375 5.070312 8.34375 Z M 5.082031 8.351562 "/>
<path style=" stroke:none;fill-rule:nonzero;fill:url(#linear2);" d="M 12.949219 1.90625 C 12.933594 1.136719 12.289062 0.480469 11.394531 0.238281 C 11.214844 0.1875 11.019531 0.226562 10.867188 0.339844 C 10.71875 0.453125 10.628906 0.632812 10.628906 0.820312 L 10.628906 3.039062 C 10.628906 3.226562 10.714844 3.402344 10.863281 3.515625 C 11.007812 3.628906 11.199219 3.667969 11.378906 3.621094 C 11.605469 3.5625 11.824219 3.472656 12.023438 3.351562 L 12.023438 5.710938 C 12.011719 5.882812 12.097656 6.042969 12.242188 6.132812 C 12.390625 6.222656 12.574219 6.222656 12.71875 6.132812 C 12.867188 6.042969 12.949219 5.882812 12.9375 5.710938 L 12.9375 1.90625 Z M 12.949219 1.90625 "/>
<path style=" stroke:none;fill-rule:nonzero;fill:url(#linear3);" d="M 13.683594 1.90625 C 13.695312 1.136719 14.335938 0.480469 15.234375 0.238281 C 15.414062 0.1875 15.609375 0.226562 15.761719 0.339844 C 15.910156 0.453125 16 0.632812 16 0.820312 L 16 3.039062 C 16 3.226562 15.914062 3.402344 15.765625 3.515625 C 15.621094 3.628906 15.429688 3.667969 15.25 3.621094 C 15.023438 3.5625 14.804688 3.472656 14.601562 3.351562 L 14.601562 5.710938 C 14.613281 5.882812 14.53125 6.042969 14.382812 6.132812 C 14.238281 6.222656 14.054688 6.222656 13.90625 6.132812 C 13.761719 6.042969 13.675781 5.882812 13.691406 5.710938 L 13.691406 1.921875 C 13.691406 1.921875 13.683594 1.910156 13.683594 1.90625 Z M 13.683594 1.90625 "/>
</g>
</svg>
