
<svg xmlns="http://www.w3.org/2000/svg" xmlns:xlink="http://www.w3.org/1999/xlink" width="16px" height="16px" viewBox="0 0 16 16" version="1.1">
<defs>
<linearGradient id="linear0" gradientUnits="userSpaceOnUse" x1="32" y1="64" x2="32" y2="0" gradientTransform="matrix(0.25,0,0,0.25,0,0)">
<stop offset="0" style="stop-color:rgb(63.137257%,65.098041%,67.843139%);stop-opacity:1;"/>
<stop offset="0.09" style="stop-color:rgb(71.372551%,72.941178%,75.294119%);stop-opacity:1;"/>
<stop offset="0.19" style="stop-color:rgb(78.039217%,79.215688%,81.176472%);stop-opacity:1;"/>
<stop offset="0.32" style="stop-color:rgb(82.352942%,83.92157%,85.09804%);stop-opacity:1;"/>
<stop offset="0.5" style="stop-color:rgb(85.09804%,86.274511%,87.450981%);stop-opacity:1;"/>
<stop offset="1" style="stop-color:rgb(85.882354%,87.058824%,88.235295%);stop-opacity:1;"/>
</linearGradient>
<linearGradient id="linear1" gradientUnits="userSpaceOnUse" x1="12.05" y1="6.67" x2="51.950001" y2="46.560001" gradientTransform="matrix(0.25,0,0,0.25,0,0)">
<stop offset="0.18" style="stop-color:rgb(16.078432%,71.372551%,96.470588%);stop-opacity:1;"/>
<stop offset="0.82" style="stop-color:rgb(49.411765%,34.117648%,76.862746%);stop-opacity:1;"/>
</linearGradient>
</defs>
<g id="surface1">
<path style=" stroke:none;fill-rule:nonzero;fill:url(#linear0);" d="M 2.734375 13.859375 C 2.738281 14.339844 3.007812 14.78125 3.4375 15 C 4.859375 15.6875 6.421875 16.03125 8 16 C 9.578125 16.03125 11.140625 15.6875 12.5625 15 C 12.992188 14.78125 13.261719 14.339844 13.265625 13.859375 L 13.265625 1.273438 C 13.265625 0.574219 12.699219 0.00390625 12 0 L 4 0 C 3.296875 0 2.726562 0.570312 2.726562 1.273438 Z M 2.734375 13.859375 "/>
<path style=" stroke:none;fill-rule:nonzero;fill:url(#linear1);" d="M 4.085938 0.828125 L 11.917969 0.828125 C 12.230469 0.828125 12.488281 1.085938 12.488281 1.398438 L 12.488281 11.90625 C 12.488281 12.21875 12.230469 12.476562 11.917969 12.476562 L 4.085938 12.476562 C 3.769531 12.476562 3.515625 12.21875 3.515625 11.90625 L 3.515625 1.398438 C 3.515625 1.085938 3.769531 0.828125 4.085938 0.828125 Z M 4.085938 0.828125 "/>
<path style=" stroke:none;fill-rule:nonzero;fill:rgb(100%,100%,100%);fill-opacity:1;" d="M 8.914062 14.285156 C 8.914062 14.789062 8.503906 15.199219 8 15.199219 C 7.496094 15.199219 7.085938 14.789062 7.085938 14.285156 C 7.085938 13.78125 7.496094 13.371094 8 13.371094 C 8.503906 13.371094 8.914062 13.78125 8.914062 14.285156 Z M 8.914062 14.285156 "/>
<path style=" stroke:none;fill-rule:nonzero;fill:rgb(71.764708%,72.549021%,73.725492%);fill-opacity:1;" d="M 8 13.5 C 8.433594 13.5 8.789062 13.851562 8.789062 14.289062 C 8.789062 14.722656 8.433594 15.074219 8 15.074219 C 7.566406 15.074219 7.210938 14.722656 7.210938 14.289062 C 7.210938 13.851562 7.566406 13.5 8 13.5 M 8 13.25 C 7.425781 13.25 6.960938 13.714844 6.960938 14.289062 C 6.960938 14.859375 7.425781 15.324219 8 15.324219 C 8.574219 15.324219 9.039062 14.859375 9.039062 14.289062 C 9.039062 13.714844 8.574219 13.25 8 13.25 Z M 8 13.25 "/>
<path style=" stroke:none;fill-rule:nonzero;fill:rgb(100%,100%,100%);fill-opacity:1;" d="M 6.59375 14.671875 L 6.542969 14.671875 L 5.828125 14.546875 C 5.6875 14.515625 5.582031 14.390625 5.578125 14.246094 L 5.578125 13.75 C 5.582031 13.582031 5.71875 13.449219 5.886719 13.449219 L 6.59375 13.449219 C 6.761719 13.449219 6.898438 13.582031 6.898438 13.75 L 6.898438 14.378906 C 6.902344 14.457031 6.867188 14.535156 6.8125 14.59375 C 6.753906 14.652344 6.675781 14.683594 6.59375 14.683594 Z M 6.59375 14.671875 "/>
<path style=" stroke:none;fill-rule:nonzero;fill:rgb(71.764708%,72.549021%,73.725492%);fill-opacity:1;" d="M 6.59375 13.5625 C 6.640625 13.5625 6.6875 13.582031 6.722656 13.613281 C 6.757812 13.648438 6.773438 13.691406 6.773438 13.738281 L 6.773438 14.367188 C 6.773438 14.46875 6.695312 14.546875 6.59375 14.546875 L 6.566406 14.546875 L 5.851562 14.421875 C 5.765625 14.402344 5.707031 14.328125 5.703125 14.242188 L 5.703125 13.75 C 5.703125 13.703125 5.722656 13.65625 5.757812 13.625 C 5.792969 13.589844 5.835938 13.570312 5.886719 13.574219 L 6.59375 13.574219 M 6.59375 13.324219 L 5.886719 13.324219 C 5.648438 13.324219 5.457031 13.511719 5.453125 13.75 L 5.453125 14.25 C 5.457031 14.457031 5.605469 14.636719 5.808594 14.671875 L 6.519531 14.800781 C 6.546875 14.800781 6.570312 14.800781 6.59375 14.800781 C 6.832031 14.800781 7.023438 14.609375 7.023438 14.371094 L 7.023438 13.75 C 7.023438 13.511719 6.832031 13.324219 6.59375 13.324219 Z M 6.59375 13.324219 "/>
<path style=" stroke:none;fill-rule:nonzero;fill:rgb(100%,100%,100%);fill-opacity:1;" d="M 5.234375 14.425781 L 5.183594 14.425781 L 4.472656 14.300781 C 4.328125 14.273438 4.222656 14.148438 4.222656 14 L 4.222656 13.75 C 4.222656 13.582031 4.359375 13.449219 4.527344 13.449219 L 5.238281 13.449219 C 5.402344 13.449219 5.539062 13.582031 5.539062 13.75 L 5.539062 14.132812 C 5.539062 14.214844 5.507812 14.292969 5.453125 14.347656 C 5.394531 14.40625 5.316406 14.4375 5.234375 14.4375 Z M 5.234375 14.425781 "/>
<path style=" stroke:none;fill-rule:nonzero;fill:rgb(71.764708%,72.549021%,73.725492%);fill-opacity:1;" d="M 5.234375 13.5625 C 5.28125 13.5625 5.328125 13.582031 5.363281 13.613281 C 5.394531 13.648438 5.414062 13.691406 5.414062 13.738281 L 5.414062 14.121094 C 5.414062 14.222656 5.335938 14.300781 5.234375 14.300781 L 5.203125 14.300781 L 4.5 14.171875 C 4.414062 14.15625 4.351562 14.082031 4.351562 13.996094 L 4.351562 13.75 C 4.355469 13.652344 4.433594 13.574219 4.53125 13.574219 L 5.242188 13.574219 M 5.242188 13.324219 L 4.523438 13.324219 C 4.289062 13.324219 4.097656 13.511719 4.09375 13.75 L 4.09375 14 C 4.09375 14.207031 4.246094 14.386719 4.449219 14.421875 L 5.160156 14.550781 C 5.183594 14.550781 5.210938 14.550781 5.234375 14.550781 C 5.472656 14.550781 5.664062 14.359375 5.664062 14.121094 L 5.664062 13.75 C 5.664062 13.511719 5.472656 13.324219 5.234375 13.324219 Z M 5.242188 13.324219 "/>
<path style=" stroke:none;fill-rule:nonzero;fill:rgb(100%,100%,100%);fill-opacity:1;" d="M 9.40625 14.671875 C 9.238281 14.671875 9.101562 14.535156 9.101562 14.367188 L 9.101562 13.75 C 9.101562 13.582031 9.238281 13.449219 9.40625 13.449219 L 10.113281 13.449219 C 10.28125 13.449219 10.417969 13.582031 10.421875 13.75 L 10.421875 14.25 C 10.417969 14.398438 10.3125 14.523438 10.171875 14.550781 L 9.460938 14.675781 Z M 9.40625 14.671875 "/>
<path style=" stroke:none;fill-rule:nonzero;fill:rgb(71.764708%,72.549021%,73.725492%);fill-opacity:1;" d="M 10.113281 13.5625 C 10.164062 13.5625 10.207031 13.582031 10.242188 13.613281 C 10.277344 13.648438 10.296875 13.691406 10.296875 13.738281 L 10.296875 14.238281 C 10.292969 14.328125 10.234375 14.402344 10.148438 14.417969 L 9.433594 14.546875 L 9.40625 14.546875 C 9.304688 14.546875 9.226562 14.464844 9.226562 14.363281 L 9.226562 13.75 C 9.226562 13.703125 9.242188 13.65625 9.277344 13.625 C 9.3125 13.589844 9.359375 13.570312 9.40625 13.574219 L 10.113281 13.574219 M 10.113281 13.324219 L 9.40625 13.324219 C 9.167969 13.324219 8.976562 13.511719 8.976562 13.75 L 8.976562 14.378906 C 8.976562 14.613281 9.167969 14.808594 9.40625 14.808594 C 9.429688 14.808594 9.453125 14.808594 9.480469 14.808594 L 10.191406 14.679688 C 10.398438 14.644531 10.546875 14.460938 10.546875 14.25 L 10.546875 13.75 C 10.542969 13.511719 10.351562 13.324219 10.113281 13.324219 Z M 10.113281 13.324219 "/>
<path style=" stroke:none;fill-rule:nonzero;fill:rgb(100%,100%,100%);fill-opacity:1;" d="M 10.765625 14.425781 C 10.597656 14.425781 10.460938 14.289062 10.460938 14.121094 L 10.460938 13.75 C 10.460938 13.582031 10.597656 13.449219 10.765625 13.449219 L 11.476562 13.449219 C 11.640625 13.449219 11.777344 13.582031 11.78125 13.75 L 11.78125 14 C 11.777344 14.148438 11.675781 14.273438 11.53125 14.300781 L 10.816406 14.425781 Z M 10.765625 14.425781 "/>
<path style=" stroke:none;fill-rule:nonzero;fill:rgb(71.764708%,72.549021%,73.725492%);fill-opacity:1;" d="M 11.476562 13.5625 C 11.574219 13.5625 11.652344 13.640625 11.65625 13.738281 L 11.65625 13.988281 C 11.65625 14.078125 11.59375 14.152344 11.507812 14.167969 L 10.796875 14.296875 L 10.765625 14.296875 C 10.664062 14.296875 10.585938 14.214844 10.585938 14.113281 L 10.585938 13.75 C 10.585938 13.703125 10.605469 13.65625 10.636719 13.625 C 10.671875 13.589844 10.71875 13.570312 10.765625 13.574219 L 11.476562 13.574219 M 11.476562 13.324219 L 10.765625 13.324219 C 10.527344 13.324219 10.335938 13.511719 10.335938 13.75 L 10.335938 14.132812 C 10.335938 14.371094 10.527344 14.5625 10.765625 14.5625 C 10.789062 14.566406 10.816406 14.566406 10.839844 14.5625 L 11.550781 14.433594 C 11.757812 14.398438 11.910156 14.214844 11.90625 14 L 11.90625 13.75 C 11.902344 13.511719 11.710938 13.324219 11.476562 13.324219 Z M 11.476562 13.324219 "/>
</g>
</svg>
