
<svg xmlns="http://www.w3.org/2000/svg" xmlns:xlink="http://www.w3.org/1999/xlink" width="16px" height="16px" viewBox="0 0 16 16" version="1.1">
<defs>
<filter id="alpha" filterUnits="objectBoundingBox" x="0%" y="0%" width="100%" height="100%">
  <feColorMatrix type="matrix" in="SourceGraphic" values="0 0 0 0 1 0 0 0 0 1 0 0 0 0 1 0 0 0 1 0"/>
</filter>
<mask id="mask0">
  <g filter="url(#alpha)">
<rect x="0" y="0" width="16" height="16" style="fill:rgb(0%,0%,0%);fill-opacity:0.402062;stroke:none;"/>
  </g>
</mask>
<linearGradient id="linear0" gradientUnits="userSpaceOnUse" x1="302.857147" y1="366.647888" x2="302.857147" y2="609.505066" gradientTransform="matrix(0.0132359,0,0,0.00824652,3.216164,10.957704)">
<stop offset="0" style="stop-color:rgb(0%,0%,0%);stop-opacity:0;"/>
<stop offset="0.5" style="stop-color:rgb(0%,0%,0%);stop-opacity:1;"/>
<stop offset="1" style="stop-color:rgb(0%,0%,0%);stop-opacity:0;"/>
</linearGradient>
<clipPath id="clip1">
  <rect x="0" y="0" width="16" height="16"/>
</clipPath>
<g id="surface5" clip-path="url(#clip1)">
<path style=" stroke:none;fill-rule:nonzero;fill:url(#linear0);" d="M 4.804688 13.980469 L 11.195312 13.980469 L 11.195312 15.984375 L 4.804688 15.984375 Z M 4.804688 13.980469 "/>
</g>
<mask id="mask1">
  <g filter="url(#alpha)">
<rect x="0" y="0" width="16" height="16" style="fill:rgb(0%,0%,0%);fill-opacity:0.402062;stroke:none;"/>
  </g>
</mask>
<radialGradient id="radial0" gradientUnits="userSpaceOnUse" cx="605.714294" cy="486.647888" fx="605.714294" fy="486.647888" r="117.14286" gradientTransform="matrix(0.0132359,0,0,0.00824652,3.218769,10.957704)">
<stop offset="0" style="stop-color:rgb(0%,0%,0%);stop-opacity:1;"/>
<stop offset="1" style="stop-color:rgb(0%,0%,0%);stop-opacity:0;"/>
</radialGradient>
<clipPath id="clip2">
  <rect x="0" y="0" width="16" height="16"/>
</clipPath>
<g id="surface8" clip-path="url(#clip2)">
<path style=" stroke:none;fill-rule:nonzero;fill:url(#radial0);" d="M 11.195312 13.980469 C 11.195312 13.980469 11.195312 15.984375 11.195312 15.984375 C 11.878906 15.988281 12.84375 15.535156 12.84375 14.984375 C 12.84375 14.429688 12.082031 13.980469 11.195312 13.980469 Z M 11.195312 13.980469 "/>
</g>
<mask id="mask2">
  <g filter="url(#alpha)">
<rect x="0" y="0" width="16" height="16" style="fill:rgb(0%,0%,0%);fill-opacity:0.402062;stroke:none;"/>
  </g>
</mask>
<radialGradient id="radial1" gradientUnits="userSpaceOnUse" cx="605.714294" cy="486.647888" fx="605.714294" fy="486.647888" r="117.14286" gradientTransform="matrix(-0.0132359,0,0,0.00824652,12.781232,10.957704)">
<stop offset="0" style="stop-color:rgb(0%,0%,0%);stop-opacity:1;"/>
<stop offset="1" style="stop-color:rgb(0%,0%,0%);stop-opacity:0;"/>
</radialGradient>
<clipPath id="clip3">
  <rect x="0" y="0" width="16" height="16"/>
</clipPath>
<g id="surface11" clip-path="url(#clip3)">
<path style=" stroke:none;fill-rule:nonzero;fill:url(#radial1);" d="M 4.804688 13.980469 C 4.804688 13.980469 4.804688 15.984375 4.804688 15.984375 C 4.121094 15.988281 3.15625 15.535156 3.15625 14.984375 C 3.15625 14.429688 3.917969 13.980469 4.804688 13.980469 Z M 4.804688 13.980469 "/>
</g>
<linearGradient id="linear1" gradientUnits="userSpaceOnUse" x1="-301.943359" y1="152.961334" x2="-245.238678" y2="134.961334" gradientTransform="matrix(0.0400019,0,0,0.0410929,20.351133,4.537465)">
<stop offset="0" style="stop-color:rgb(37.254903%,37.254903%,37.254903%);stop-opacity:1;"/>
<stop offset="1" style="stop-color:rgb(14.509805%,14.509805%,14.509805%);stop-opacity:1;"/>
</linearGradient>
<linearGradient id="linear2" gradientUnits="userSpaceOnUse" x1="-393.433197" y1="67.439331" x2="-221.40564" y2="68.025116" gradientTransform="matrix(0.985476,0,0,1,-5.787069,0)">
<stop offset="0" style="stop-color:rgb(24.705882%,24.705882%,24.705882%);stop-opacity:1;"/>
<stop offset="0.360932" style="stop-color:rgb(23.529412%,23.529412%,23.529412%);stop-opacity:1;"/>
<stop offset="0.660323" style="stop-color:rgb(18.039216%,18.039216%,18.039216%);stop-opacity:1;"/>
<stop offset="1" style="stop-color:rgb(12.54902%,12.54902%,12.54902%);stop-opacity:1;"/>
</linearGradient>
<linearGradient id="linear3" gradientUnits="userSpaceOnUse" x1="-397.0625" y1="72.4375" x2="-212.125" y2="72.4375" gradientTransform="matrix(1,0,0,1,0,0)">
<stop offset="0" style="stop-color:rgb(67.843139%,67.843139%,67.843139%);stop-opacity:1;"/>
<stop offset="1" style="stop-color:rgb(26.274511%,26.274511%,26.274511%);stop-opacity:1;"/>
</linearGradient>
<radialGradient id="radial2" gradientUnits="userSpaceOnUse" cx="-398" cy="257.924438" fx="-398" fy="257.924438" r="2.3125" gradientTransform="matrix(0.352176,0,0,0.401263,206.284637,9.005733)">
<stop offset="0" style="stop-color:rgb(35.686275%,35.686275%,35.686275%);stop-opacity:1;"/>
<stop offset="1" style="stop-color:rgb(0%,0%,0%);stop-opacity:1;"/>
</radialGradient>
<linearGradient id="linear4" gradientUnits="userSpaceOnUse" x1="-396.625" y1="260.445831" x2="-399.5625" y2="258.258331" gradientTransform="matrix(0.501174,0,0,0.283786,265.585663,39.264446)">
<stop offset="0" style="stop-color:rgb(100%,100%,100%);stop-opacity:1;"/>
<stop offset="1" style="stop-color:rgb(5.098039%,5.098039%,5.098039%);stop-opacity:1;"/>
</linearGradient>
<linearGradient id="linear5" gradientUnits="userSpaceOnUse" x1="-307.512421" y1="224.499695" x2="-307.326416" y2="-102.18364" gradientTransform="matrix(0.0430985,0,0,0.0411128,21.127424,4.540933)">
<stop offset="0" style="stop-color:rgb(1.176471%,1.176471%,1.176471%);stop-opacity:1;"/>
<stop offset="1" style="stop-color:rgb(21.960784%,21.960784%,21.960784%);stop-opacity:0;"/>
</linearGradient>
<linearGradient id="linear6" gradientUnits="userSpaceOnUse" x1="-389.486542" y1="65.211327" x2="-175.064072" y2="61.538403" gradientTransform="matrix(0.350266,0,0,0.31895,170.729767,35.395191)">
<stop offset="0" style="stop-color:rgb(80.392158%,80.392158%,80.392158%);stop-opacity:1;"/>
<stop offset="1" style="stop-color:rgb(18.82353%,18.82353%,18.82353%);stop-opacity:1;"/>
</linearGradient>
<linearGradient id="linear7" gradientUnits="userSpaceOnUse" x1="-400.995178" y1="189.645706" x2="-222.533722" y2="218.645706" gradientTransform="matrix(0.0396307,0,0,0.0547511,19.797146,1.501512)">
<stop offset="0" style="stop-color:rgb(67.058825%,67.058825%,67.058825%);stop-opacity:1;"/>
<stop offset="1" style="stop-color:rgb(86.274511%,86.274511%,86.274511%);stop-opacity:0;"/>
</linearGradient>
<linearGradient id="linear8" gradientUnits="userSpaceOnUse" x1="-314.028534" y1="-83.613548" x2="-314.028534" y2="-75.273575" gradientTransform="matrix(0.293817,0,0,0.379668,153.479797,38.888062)">
<stop offset="0" style="stop-color:rgb(0%,0%,0%);stop-opacity:1;"/>
<stop offset="1" style="stop-color:rgb(11.764706%,11.764706%,11.764706%);stop-opacity:1;"/>
</linearGradient>
<linearGradient id="linear9" gradientUnits="userSpaceOnUse" x1="-305.528534" y1="-78.313988" x2="-305.528534" y2="-85.985588" gradientTransform="matrix(0.293817,0,0,0.379668,153.479797,38.888062)">
<stop offset="0" style="stop-color:rgb(18.431373%,18.431373%,18.431373%);stop-opacity:1;"/>
<stop offset="1" style="stop-color:rgb(0%,0%,0%);stop-opacity:1;"/>
</linearGradient>
<mask id="mask3">
  <g filter="url(#alpha)">
<rect x="0" y="0" width="16" height="16" style="fill:rgb(0%,0%,0%);fill-opacity:0.1;stroke:none;"/>
  </g>
</mask>
<linearGradient id="linear10" gradientUnits="userSpaceOnUse" x1="-282.75" y1="4.70304" x2="-362.78125" y2="11.71875" gradientTransform="matrix(0.0383002,0,0,0.0414938,19.828356,4.579665)">
<stop offset="0" style="stop-color:rgb(100%,100%,100%);stop-opacity:1;"/>
<stop offset="1" style="stop-color:rgb(100%,100%,100%);stop-opacity:0;"/>
</linearGradient>
<clipPath id="clip4">
  <rect x="0" y="0" width="16" height="16"/>
</clipPath>
<g id="surface14" clip-path="url(#clip4)">
<path style=" stroke:none;fill-rule:nonzero;fill:url(#linear10);" d="M 5.121094 0.566406 C 5.019531 0.566406 4.9375 0.683594 4.9375 0.828125 L 4.9375 13.535156 C 4.9375 13.679688 5.019531 13.796875 5.121094 13.796875 L 6.738281 13.796875 C 7.347656 9.386719 7.777344 4.976562 8.039062 0.566406 Z M 5.121094 0.566406 "/>
</g>
</defs>
<g id="surface1">
<use xlink:href="#surface5" mask="url(#mask0)"/>
<use xlink:href="#surface8" mask="url(#mask1)"/>
<use xlink:href="#surface11" mask="url(#mask2)"/>
<path style=" stroke:none;fill-rule:nonzero;fill:url(#linear1);" d="M 4.929688 0.210938 L 11.40625 0.210938 C 11.691406 0.210938 11.921875 0.445312 11.921875 0.730469 L 11.921875 14.464844 C 11.921875 14.75 11.691406 14.984375 11.40625 14.984375 L 4.929688 14.984375 C 4.644531 14.984375 4.414062 14.75 4.414062 14.464844 L 4.414062 0.730469 C 4.414062 0.445312 4.644531 0.210938 4.929688 0.210938 Z M 4.929688 0.210938 "/>
<path style="fill-rule:nonzero;fill:url(#linear2);stroke-width:1.493298;stroke-linecap:butt;stroke-linejoin:miter;stroke:rgb(0%,0%,0%);stroke-opacity:1;stroke-miterlimit:4;" d="M -385.631198 -110.047758 L -226.248082 -110.047758 C -219.150758 -110.047758 -213.455374 -104.311765 -213.455374 -97.237372 L -213.455374 242.142263 C -213.455374 249.216655 -219.150758 254.857049 -226.248082 254.857049 L -385.631198 254.857049 C -392.728522 254.857049 -398.423905 249.216655 -398.423905 242.142263 L -398.423905 -97.237372 C -398.423905 -104.311765 -392.728522 -110.047758 -385.631198 -110.047758 Z M -385.631198 -110.047758 " transform="matrix(0.0445811,0,0,0.0408604,21.676224,4.54347)"/>
<path style="fill:none;stroke-width:0.0365266;stroke-linecap:butt;stroke-linejoin:miter;stroke:url(#linear3);stroke-miterlimit:4;" d="M -385.631198 -108.32696 C -391.852309 -108.32696 -396.759101 -103.451365 -396.759101 -97.237372 L -396.759101 242.142263 C -396.759101 248.260656 -391.852309 253.231851 -385.631198 253.231851 L -223.531822 253.231851 C -217.310711 253.231851 -212.49154 248.260656 -212.49154 242.142263 L -212.49154 -97.237372 C -212.49154 -103.451365 -217.310711 -108.32696 -223.531822 -108.32696 Z M -385.631198 -108.32696 " transform="matrix(0.0445811,0,0,0.0408604,21.676224,4.54347)"/>
<path style="fill-rule:nonzero;fill:url(#radial2);stroke-width:1;stroke-linecap:round;stroke-linejoin:round;stroke:url(#linear4);stroke-miterlimit:4;" d="M 64.9375 111.53125 L 65.75 111.53125 C 66.0625 111.53125 66.3125 111.78125 66.3125 112.125 L 66.3125 112.59375 C 66.3125 112.9375 66.0625 113.1875 65.75 113.1875 L 64.9375 113.1875 C 64.625 113.1875 64.34375 112.9375 64.34375 112.59375 L 64.34375 112.125 C 64.34375 111.78125 64.625 111.53125 64.9375 111.53125 Z M 64.9375 111.53125 " transform="matrix(0.125,0,0,0.125,0,0)"/>
<path style=" stroke:none;fill-rule:nonzero;fill:url(#linear5);" d="M 4.242188 9.070312 L 4.15625 13.613281 L 4.15625 13.707031 C 4.15625 13.859375 4.253906 13.980469 4.375 13.980469 L 11.617188 13.980469 C 11.738281 13.980469 11.839844 13.859375 11.839844 13.707031 L 11.738281 9.070312 Z M 4.242188 9.070312 "/>
<path style="fill-rule:nonzero;fill:rgb(1.176471%,1.176471%,1.176471%);fill-opacity:1;stroke-width:1;stroke-linecap:square;stroke-linejoin:miter;stroke:url(#linear6);stroke-miterlimit:4;" d="M 36.25 4.53125 L 91.84375 4.53125 C 92.78125 4.53125 93.53125 5.46875 93.53125 6.59375 L 93.53125 105.8125 C 93.53125 106.9375 92.78125 107.84375 91.84375 107.84375 L 36.25 107.84375 C 35.3125 107.84375 34.5625 106.9375 34.5625 105.8125 L 34.5625 6.59375 C 34.5625 5.46875 35.3125 4.53125 36.25 4.53125 Z M 36.25 4.53125 " transform="matrix(0.125,0,0,0.125,0,0)"/>
<path style=" stroke:none;fill-rule:nonzero;fill:rgb(57.647061%,58.039218%,60.000002%);fill-opacity:1;" d="M 8.75 1.632812 C 8.640625 1.628906 8.53125 1.691406 8.503906 1.777344 C 8.480469 1.863281 8.535156 1.929688 8.636719 1.949219 C 8.707031 1.960938 8.800781 1.941406 8.855469 1.902344 C 8.960938 1.824219 8.960938 1.699219 8.855469 1.652344 C 8.824219 1.640625 8.785156 1.632812 8.75 1.632812 Z M 7.054688 1.632812 C 6.984375 1.632812 6.914062 1.65625 6.867188 1.699219 C 6.765625 1.792969 6.808594 1.921875 6.945312 1.949219 C 6.988281 1.953125 7.054688 1.949219 7.097656 1.933594 C 7.25 1.886719 7.296875 1.71875 7.175781 1.660156 C 7.140625 1.640625 7.097656 1.632812 7.054688 1.632812 Z M 7.863281 1.632812 C 7.847656 1.632812 7.835938 1.632812 7.820312 1.636719 C 7.707031 1.652344 7.621094 1.726562 7.621094 1.8125 C 7.621094 1.882812 7.671875 1.933594 7.761719 1.949219 C 7.855469 1.964844 7.957031 1.929688 8.011719 1.867188 C 8.042969 1.832031 8.054688 1.796875 8.050781 1.75 C 8.046875 1.679688 7.964844 1.632812 7.863281 1.632812 Z M 9.585938 1.640625 L 9.515625 1.644531 L 9.445312 1.644531 L 9.351562 1.789062 C 9.300781 1.867188 9.257812 1.933594 9.257812 1.9375 C 9.257812 1.941406 9.28125 1.941406 9.308594 1.941406 L 9.355469 1.941406 L 9.375 1.914062 L 9.390625 1.886719 L 9.523438 1.886719 L 9.527344 1.914062 L 9.53125 1.9375 L 9.59375 1.941406 L 9.652344 1.941406 L 9.648438 1.929688 C 9.648438 1.921875 9.632812 1.855469 9.613281 1.777344 Z M 6.445312 1.644531 C 6.378906 1.644531 6.371094 1.644531 6.367188 1.652344 C 6.367188 1.660156 6.351562 1.707031 6.339844 1.757812 C 6.316406 1.832031 6.3125 1.859375 6.3125 1.894531 L 6.3125 1.941406 L 6.378906 1.941406 L 6.398438 1.878906 C 6.410156 1.847656 6.417969 1.8125 6.421875 1.804688 C 6.425781 1.792969 6.429688 1.808594 6.445312 1.867188 L 6.464844 1.941406 L 6.523438 1.941406 L 6.578125 1.875 C 6.609375 1.839844 6.636719 1.8125 6.640625 1.8125 C 6.640625 1.8125 6.617188 1.910156 6.605469 1.933594 C 6.605469 1.941406 6.667969 1.945312 6.707031 1.9375 L 6.730469 1.933594 L 6.753906 1.839844 C 6.769531 1.789062 6.785156 1.722656 6.792969 1.695312 L 6.808594 1.644531 L 6.648438 1.644531 L 6.601562 1.703125 L 6.550781 1.761719 L 6.519531 1.644531 Z M 7.285156 1.644531 L 7.28125 1.667969 C 7.277344 1.683594 7.273438 1.703125 7.269531 1.710938 C 7.257812 1.746094 7.257812 1.746094 7.320312 1.746094 C 7.375 1.746094 7.378906 1.746094 7.375 1.753906 C 7.375 1.761719 7.367188 1.800781 7.355469 1.84375 C 7.347656 1.886719 7.335938 1.925781 7.335938 1.929688 C 7.332031 1.941406 7.335938 1.941406 7.390625 1.941406 L 7.449219 1.9375 L 7.46875 1.863281 C 7.480469 1.824219 7.492188 1.777344 7.492188 1.765625 L 7.5 1.746094 L 7.617188 1.746094 L 7.628906 1.699219 C 7.632812 1.675781 7.636719 1.65625 7.636719 1.648438 C 7.636719 1.644531 7.597656 1.644531 7.460938 1.644531 Z M 8.128906 1.644531 L 8.09375 1.785156 C 8.070312 1.863281 8.054688 1.929688 8.054688 1.933594 C 8.054688 1.941406 8.070312 1.941406 8.105469 1.941406 L 8.160156 1.941406 L 8.183594 1.855469 L 8.230469 1.851562 C 8.289062 1.851562 8.296875 1.859375 8.292969 1.894531 C 8.289062 1.933594 8.292969 1.9375 8.363281 1.9375 L 8.425781 1.9375 L 8.425781 1.894531 C 8.429688 1.84375 8.425781 1.828125 8.410156 1.824219 C 8.398438 1.820312 8.394531 1.808594 8.40625 1.808594 C 8.417969 1.808594 8.457031 1.773438 8.464844 1.753906 C 8.476562 1.726562 8.476562 1.695312 8.464844 1.675781 C 8.445312 1.648438 8.421875 1.644531 8.269531 1.644531 Z M 9.085938 1.644531 C 9.078125 1.644531 9.070312 1.644531 9.0625 1.644531 L 9.007812 1.644531 L 8.972656 1.785156 C 8.953125 1.863281 8.9375 1.929688 8.9375 1.933594 C 8.9375 1.941406 8.96875 1.941406 9.078125 1.941406 L 9.222656 1.941406 L 9.230469 1.917969 C 9.234375 1.902344 9.238281 1.882812 9.242188 1.871094 L 9.246094 1.851562 L 9.160156 1.851562 C 9.105469 1.851562 9.074219 1.851562 9.074219 1.847656 C 9.074219 1.84375 9.085938 1.796875 9.097656 1.746094 C 9.109375 1.691406 9.121094 1.648438 9.121094 1.644531 C 9.121094 1.644531 9.105469 1.644531 9.085938 1.644531 Z M 8.226562 1.714844 L 8.277344 1.714844 C 8.304688 1.714844 8.332031 1.714844 8.339844 1.71875 C 8.355469 1.722656 8.359375 1.746094 8.339844 1.757812 C 8.332031 1.765625 8.3125 1.769531 8.269531 1.769531 C 8.238281 1.769531 8.214844 1.765625 8.214844 1.765625 C 8.214844 1.761719 8.21875 1.75 8.222656 1.738281 Z M 7.050781 1.714844 C 7.070312 1.714844 7.089844 1.722656 7.105469 1.734375 C 7.136719 1.765625 7.117188 1.832031 7.066406 1.855469 C 7.035156 1.871094 7.011719 1.875 6.988281 1.871094 C 6.929688 1.855469 6.925781 1.789062 6.976562 1.742188 C 6.996094 1.722656 7.023438 1.714844 7.050781 1.714844 Z M 8.726562 1.714844 C 8.734375 1.714844 8.742188 1.714844 8.753906 1.714844 C 8.789062 1.722656 8.804688 1.738281 8.808594 1.769531 C 8.808594 1.808594 8.789062 1.839844 8.753906 1.855469 C 8.707031 1.878906 8.671875 1.878906 8.644531 1.851562 C 8.617188 1.828125 8.628906 1.773438 8.667969 1.738281 C 8.683594 1.722656 8.703125 1.714844 8.726562 1.714844 Z M 7.859375 1.714844 C 7.875 1.714844 7.890625 1.71875 7.902344 1.722656 C 7.949219 1.75 7.9375 1.824219 7.875 1.859375 C 7.820312 1.886719 7.757812 1.871094 7.75 1.824219 C 7.746094 1.804688 7.757812 1.769531 7.773438 1.75 C 7.792969 1.726562 7.828125 1.714844 7.859375 1.714844 Z M 9.484375 1.742188 L 9.492188 1.765625 C 9.496094 1.777344 9.5 1.796875 9.5 1.804688 C 9.5 1.816406 9.5 1.816406 9.472656 1.816406 C 9.457031 1.816406 9.441406 1.816406 9.441406 1.8125 C 9.441406 1.8125 9.453125 1.796875 9.464844 1.777344 Z M 9.484375 1.742188 "/>
<path style="fill:none;stroke-width:2.923881;stroke-linecap:butt;stroke-linejoin:miter;stroke:rgb(0%,0%,0%);stroke-opacity:1;stroke-miterlimit:4;" d="M -385.617221 -108.32696 C -391.817633 -108.32696 -396.708099 -103.451365 -396.708099 -97.237372 L -396.708099 242.142263 C -396.708099 248.260656 -391.817633 253.231851 -385.617221 253.231851 L -223.533204 253.231851 C -217.332791 253.231851 -212.442325 248.260656 -212.442325 242.142263 L -212.442325 -97.237372 C -212.442325 -103.451365 -217.332791 -108.32696 -223.533204 -108.32696 Z M -385.617221 -108.32696 " transform="matrix(0.0447299,0,0,0.0408604,21.686115,4.54347)"/>
<path style=" stroke:none;fill-rule:nonzero;fill:url(#linear7);" d="M 4.222656 13.800781 C 4.222656 13.800781 4.25 13.671875 4.265625 13.585938 C 4.289062 13.441406 4.34375 13.3125 4.34375 13.3125 C 4.4375 13.492188 4.546875 13.519531 4.785156 13.5 L 10.976562 13.460938 L 10.738281 13.574219 L 4.917969 13.574219 C 4.519531 13.625 4.402344 13.777344 4.429688 13.976562 C 4.304688 14.007812 4.253906 13.921875 4.222656 13.800781 Z M 4.222656 13.800781 "/>
<path style=" stroke:none;fill-rule:nonzero;fill:rgb(17.647059%,17.647059%,17.647059%);fill-opacity:1;" d="M 4.984375 2.234375 L 10.996094 2.234375 L 10.996094 12.003906 L 4.984375 12.003906 Z M 4.984375 2.234375 "/>
<path style="fill-rule:nonzero;fill:url(#linear8);stroke-width:1;stroke-linecap:butt;stroke-linejoin:miter;stroke:url(#linear9);stroke-miterlimit:4;" d="M 54.59375 6.75 L 73.375 6.75 C 74.03125 6.75 74.59375 7.28125 74.59375 7.9375 C 74.59375 8.625 74.03125 9.15625 73.375 9.15625 L 54.59375 9.15625 C 53.9375 9.15625 53.375 8.625 53.375 7.9375 C 53.375 7.28125 53.9375 6.75 54.59375 6.75 Z M 54.59375 6.75 " transform="matrix(0.125,0,0,0.125,0,0)"/>
<use xlink:href="#surface14" mask="url(#mask3)"/>
<path style="fill:none;stroke-width:2.197927;stroke-linecap:butt;stroke-linejoin:miter;stroke:rgb(69.803923%,69.803923%,71.372551%);stroke-opacity:1;stroke-miterlimit:4;" d="M -451.877801 213.438414 C -451.877801 215.804684 -453.733172 217.776576 -456.174451 217.776576 C -458.518078 217.776576 -460.471101 215.804684 -460.471101 213.438414 C -460.471101 210.97355 -458.518078 209.100253 -456.174451 209.100253 C -453.733172 209.100253 -451.877801 210.97355 -451.877801 213.438414 Z M -451.877801 213.438414 " transform="matrix(0.0400021,0,0,0.0396193,28.869028,4.137466)"/>
<path style="fill:none;stroke-width:1.715368;stroke-linecap:square;stroke-linejoin:miter;stroke:rgb(69.803923%,69.803923%,71.372551%);stroke-opacity:1;stroke-miterlimit:4;" d="M -451.209993 217.446795 L -448.009103 220.832506 " transform="matrix(0.0512553,0,0,0.0507648,33.876892,1.680104)"/>
<path style="fill:none;stroke-width:1.720754;stroke-linecap:butt;stroke-linejoin:miter;stroke:rgb(69.803923%,69.803923%,71.372551%);stroke-opacity:1;stroke-miterlimit:4;" d="M -498.702212 217.621777 L -498.702212 220.851763 L -492.57442 220.851763 L -492.57442 217.621777 " transform="matrix(0.0497222,0,0,0.0520029,33.624714,1.390062)"/>
<path style="fill:none;stroke-width:1.720754;stroke-linecap:butt;stroke-linejoin:miter;stroke:rgb(69.803923%,69.803923%,71.372551%);stroke-opacity:1;stroke-miterlimit:4;" d="M -501.137616 217.396429 L -495.795439 211.912963 L -490.139016 217.621777 " transform="matrix(0.0497222,0,0,0.0520029,33.624714,1.390062)"/>
<path style="fill:none;stroke-width:1.720754;stroke-linecap:square;stroke-linejoin:miter;stroke:rgb(69.803923%,69.803923%,71.372551%);stroke-opacity:1;stroke-miterlimit:4;" d="M -492.495859 214.842486 L -492.495859 212.063195 " transform="matrix(0.0497222,0,0,0.0520029,33.624714,1.390062)"/>
<path style="fill:none;stroke-width:1.896222;stroke-linecap:square;stroke-linejoin:miter;stroke:rgb(69.803923%,69.803923%,71.372551%);stroke-opacity:1;stroke-miterlimit:4;" d="M -545.325611 211.687833 L -533.811477 211.687833 " transform="matrix(0.0451212,0,0,0.0471908,31.355732,2.432162)"/>
<path style="fill:none;stroke-width:1.896222;stroke-linecap:square;stroke-linejoin:miter;stroke:rgb(69.803923%,69.803923%,71.372551%);stroke-opacity:1;stroke-miterlimit:4;" d="M -542.209004 214.750534 L -533.811477 214.750534 " transform="matrix(0.0451212,0,0,0.0471908,31.355732,2.432162)"/>
<path style="fill:none;stroke-width:1.896222;stroke-linecap:square;stroke-linejoin:miter;stroke:rgb(69.803923%,69.803923%,71.372551%);stroke-opacity:1;stroke-miterlimit:4;" d="M -542.209004 217.896011 L -533.811477 217.896011 " transform="matrix(0.0451212,0,0,0.0471908,31.355732,2.432162)"/>
<path style="fill:none;stroke-width:1.896222;stroke-linecap:square;stroke-linejoin:miter;stroke:rgb(69.803923%,69.803923%,71.372551%);stroke-opacity:1;stroke-miterlimit:4;" d="M -542.209004 221.041488 L -533.811477 221.041488 " transform="matrix(0.0451212,0,0,0.0471908,31.355732,2.432162)"/>
<path style="fill:none;stroke-width:1.689512;stroke-linecap:square;stroke-linejoin:miter;stroke:rgb(69.803923%,69.803923%,71.372551%);stroke-opacity:1;stroke-miterlimit:4;" d="M -571.04623 216.729161 L -573.218772 214.602912 L -570.971315 212.400724 " transform="matrix(0.0521423,0,0,0.0514403,34.978767,1.499817)"/>
<path style="fill:none;stroke-width:1.689512;stroke-linecap:square;stroke-linejoin:miter;stroke:rgb(69.803923%,69.803923%,71.372551%);stroke-opacity:1;stroke-miterlimit:4;" d="M -571.345891 221.361348 L -567.89979 221.361348 " transform="matrix(0.0521423,0,0,0.0514403,34.978767,1.499817)"/>
<path style="fill:none;stroke-width:1.689512;stroke-linecap:square;stroke-linejoin:miter;stroke:rgb(69.803923%,69.803923%,71.372551%);stroke-opacity:1;stroke-miterlimit:4;" d="M -571.795382 214.602912 L -568.124536 214.602912 " transform="matrix(0.0521423,0,0,0.0514403,34.978767,1.499817)"/>
<path style="fill:none;stroke-width:1.689512;stroke-linecap:square;stroke-linejoin:miter;stroke:rgb(69.803923%,69.803923%,71.372551%);stroke-opacity:1;stroke-miterlimit:4;" d="M -581.187137 214.059637 C -580.288154 214.059637 -579.389171 214.743075 -578.93968 215.730262 C -578.490188 216.793387 -578.490188 218.084324 -579.014595 219.147449 C -579.464086 220.210574 -580.288154 220.818074 -581.187137 220.818074 " transform="matrix(0.0521423,0,0,0.0514403,35.718475,1.527763)"/>
</g>
</svg>
