
<svg xmlns="http://www.w3.org/2000/svg" xmlns:xlink="http://www.w3.org/1999/xlink" width="16px" height="16px" viewBox="0 0 16 16" version="1.1">
<defs>
<filter id="alpha" filterUnits="objectBoundingBox" x="0%" y="0%" width="100%" height="100%">
  <feColorMatrix type="matrix" in="SourceGraphic" values="0 0 0 0 1 0 0 0 0 1 0 0 0 0 1 0 0 0 1 0"/>
</filter>
<mask id="mask0">
  <g filter="url(#alpha)">
<rect x="0" y="0" width="16" height="16" style="fill:rgb(0%,0%,0%);fill-opacity:0.317;stroke:none;"/>
  </g>
</mask>
<radialGradient id="radial0" gradientUnits="userSpaceOnUse" cx="64" cy="1042.362183" fx="64" fy="1042.362183" r="32" gradientTransform="matrix(0.125,0,0,0.0390625,0,-25.96727)">
<stop offset="0" style="stop-color:rgb(0%,0%,0%);stop-opacity:1;"/>
<stop offset="1" style="stop-color:rgb(0%,0%,0%);stop-opacity:0;"/>
</radialGradient>
<clipPath id="clip1">
  <rect x="0" y="0" width="16" height="16"/>
</clipPath>
<g id="surface5" clip-path="url(#clip1)">
<path style=" stroke:none;fill-rule:nonzero;fill:url(#radial0);" d="M 12 14.75 C 12 15.441406 10.210938 16 8 16 C 5.789062 16 4 15.441406 4 14.75 C 4 14.058594 5.789062 13.5 8 13.5 C 10.210938 13.5 12 14.058594 12 14.75 Z M 12 14.75 "/>
</g>
<mask id="mask1">
  <g filter="url(#alpha)">
<rect x="0" y="0" width="16" height="16" style="fill:rgb(0%,0%,0%);fill-opacity:0.114;stroke:none;"/>
  </g>
</mask>
<linearGradient id="linear0" gradientUnits="userSpaceOnUse" x1="130" y1="63" x2="35" y2="23" gradientTransform="matrix(0.125,0,0,0.125,0,0)">
<stop offset="0" style="stop-color:rgb(100%,100%,100%);stop-opacity:1;"/>
<stop offset="1" style="stop-color:rgb(100%,100%,100%);stop-opacity:0;"/>
</linearGradient>
<clipPath id="clip2">
  <rect x="0" y="0" width="16" height="16"/>
</clipPath>
<g id="surface8" clip-path="url(#clip2)">
<path style=" stroke:none;fill-rule:nonzero;fill:url(#linear0);" d="M 5.617188 0.125 C 5 0.125 4.5 0.625 4.5 1.242188 L 4.5 10.671875 C 6.652344 8.160156 7.96875 4.296875 8.101562 0.125 Z M 5.617188 0.125 "/>
</g>
</defs>
<g id="surface1">
<use xlink:href="#surface5" mask="url(#mask0)"/>
<path style=" stroke:none;fill-rule:nonzero;fill:rgb(30.19608%,30.19608%,30.19608%);fill-opacity:1;" d="M 9.375 0 L 10.25 0 C 10.320312 0 10.375 0.0546875 10.375 0.125 C 10.375 0.195312 10.320312 0.25 10.25 0.25 L 9.375 0.25 C 9.304688 0.25 9.25 0.195312 9.25 0.125 C 9.25 0.0546875 9.304688 0 9.375 0 Z M 9.375 0 "/>
<path style=" stroke:none;fill-rule:nonzero;fill:rgb(30.19608%,30.19608%,30.19608%);fill-opacity:1;" d="M 4.5 2.125 C 4.570312 2.125 4.625 2.179688 4.625 2.25 L 4.625 2.625 C 4.625 2.695312 4.570312 2.75 4.5 2.75 C 4.429688 2.75 4.375 2.695312 4.375 2.625 L 4.375 2.25 C 4.375 2.179688 4.429688 2.125 4.5 2.125 Z M 4.5 2.125 "/>
<path style=" stroke:none;fill-rule:nonzero;fill:rgb(30.19608%,30.19608%,30.19608%);fill-opacity:1;" d="M 4.5 3.5 C 4.570312 3.5 4.625 3.554688 4.625 3.625 L 4.625 3.875 C 4.625 3.945312 4.570312 4 4.5 4 C 4.429688 4 4.375 3.945312 4.375 3.875 L 4.375 3.625 C 4.375 3.554688 4.429688 3.5 4.5 3.5 Z M 4.5 3.5 "/>
<path style=" stroke:none;fill-rule:nonzero;fill:rgb(30.19608%,30.19608%,30.19608%);fill-opacity:1;" d="M 4.5 4.625 C 4.570312 4.625 4.625 4.679688 4.625 4.75 L 4.625 5 C 4.625 5.070312 4.570312 5.125 4.5 5.125 C 4.429688 5.125 4.375 5.070312 4.375 5 L 4.375 4.75 C 4.375 4.679688 4.429688 4.625 4.5 4.625 Z M 4.5 4.625 "/>
<path style="fill-rule:nonzero;fill:rgb(0%,0%,0%);fill-opacity:1;stroke-width:1;stroke-linecap:round;stroke-linejoin:round;stroke:rgb(10.196079%,10.196079%,10.196079%);stroke-opacity:1;stroke-miterlimit:4;" d="M 44.9375 925.862183 L 83.0625 925.862183 C 87.71875 925.862183 91.5 929.643433 91.5 934.299683 L 91.5 1033.424683 C 91.5 1038.080933 87.71875 1041.862183 83.0625 1041.862183 L 44.9375 1041.862183 C 40.28125 1041.862183 36.5 1038.080933 36.5 1033.424683 L 36.5 934.299683 C 36.5 929.643433 40.28125 925.862183 44.9375 925.862183 Z M 44.9375 925.862183 " transform="matrix(0.125,0,0,0.125,0,-115.545273)"/>
<path style="fill:none;stroke-width:1;stroke-linecap:round;stroke-linejoin:round;stroke:rgb(10.980392%,10.980392%,10.980392%);stroke-opacity:1;stroke-miterlimit:4;" d="M 68.5 1033.362183 C 68.5 1035.862183 66.5 1037.862183 64 1037.862183 C 61.5 1037.862183 59.5 1035.862183 59.5 1033.362183 C 59.5 1030.862183 61.5 1028.862183 64 1028.862183 C 66.5 1028.862183 68.5 1030.862183 68.5 1033.362183 Z M 68.5 1033.362183 " transform="matrix(0.125,0,0,0.125,0,-115.545273)"/>
<path style="fill:none;stroke-width:1;stroke-linecap:round;stroke-linejoin:round;stroke:rgb(30.19608%,30.19608%,30.19608%);stroke-opacity:1;stroke-miterlimit:4;" d="M 63.09375 1031.862183 L 64.90625 1031.862183 C 65.21875 1031.862183 65.5 1032.143433 65.5 1032.455933 L 65.5 1034.268433 C 65.5 1034.580933 65.21875 1034.862183 64.90625 1034.862183 L 63.09375 1034.862183 C 62.78125 1034.862183 62.5 1034.580933 62.5 1034.268433 L 62.5 1032.455933 C 62.5 1032.143433 62.78125 1031.862183 63.09375 1031.862183 Z M 63.09375 1031.862183 " transform="matrix(0.125,0,0,0.125,0,-115.545273)"/>
<path style=" stroke:none;fill-rule:nonzero;fill:rgb(10.196079%,10.196079%,10.196079%);fill-opacity:1;" d="M 5.125 2.125 L 10.875 2.125 C 10.945312 2.125 11 2.179688 11 2.25 L 11 12.625 C 11 12.695312 10.945312 12.75 10.875 12.75 L 5.125 12.75 C 5.054688 12.75 5 12.695312 5 12.625 L 5 2.25 C 5 2.179688 5.054688 2.125 5.125 2.125 Z M 5.125 2.125 "/>
<path style=" stroke:none;fill-rule:nonzero;fill:rgb(10.196079%,10.196079%,10.196079%);fill-opacity:1;" d="M 8.125 0.75 C 8.125 0.820312 8.070312 0.875 8 0.875 C 7.929688 0.875 7.875 0.820312 7.875 0.75 C 7.875 0.679688 7.929688 0.625 8 0.625 C 8.070312 0.625 8.125 0.679688 8.125 0.75 Z M 8.125 0.75 "/>
<use xlink:href="#surface8" mask="url(#mask1)"/>
<path style="fill-rule:nonzero;fill:rgb(20%,20%,20%);fill-opacity:1;stroke-width:1;stroke-linecap:round;stroke-linejoin:round;stroke:rgb(10.196079%,10.196079%,10.196079%);stroke-opacity:1;stroke-miterlimit:4;" d="M 60.5 933.862183 L 67.5 933.862183 C 68.0625 933.862183 68.5 934.299683 68.5 934.862183 C 68.5 935.424683 68.0625 935.862183 67.5 935.862183 L 60.5 935.862183 C 59.9375 935.862183 59.5 935.424683 59.5 934.862183 C 59.5 934.299683 59.9375 933.862183 60.5 933.862183 Z M 60.5 933.862183 " transform="matrix(0.125,0,0,0.125,0,-115.545273)"/>
</g>
</svg>
