
<svg xmlns="http://www.w3.org/2000/svg" xmlns:xlink="http://www.w3.org/1999/xlink" width="16px" height="16px" viewBox="0 0 16 16" version="1.1">
<defs>
<filter id="alpha" filterUnits="objectBoundingBox" x="0%" y="0%" width="100%" height="100%">
  <feColorMatrix type="matrix" in="SourceGraphic" values="0 0 0 0 1 0 0 0 0 1 0 0 0 0 1 0 0 0 1 0"/>
</filter>
<mask id="mask0">
  <g filter="url(#alpha)">
<rect x="0" y="0" width="16" height="16" style="fill:rgb(0%,0%,0%);fill-opacity:0.99;stroke:none;"/>
  </g>
</mask>
<clipPath id="clip1">
  <rect x="0" y="0" width="16" height="16"/>
</clipPath>
<g id="surface5" clip-path="url(#clip1)">
<path style=" stroke:none;fill-rule:nonzero;fill:rgb(60.000002%,60.000002%,60.000002%);fill-opacity:1;" d="M 11.84375 5.625 L 11.90625 5.625 C 11.957031 5.625 12 5.667969 12 5.71875 L 12 7.40625 C 12 7.457031 11.957031 7.5 11.90625 7.5 L 11.84375 7.5 C 11.792969 7.5 11.75 7.457031 11.75 7.40625 L 11.75 5.71875 C 11.75 5.667969 11.792969 5.625 11.84375 5.625 Z M 11.84375 5.625 "/>
</g>
<radialGradient id="radial0" gradientUnits="userSpaceOnUse" cx="23.823223" cy="1048.980957" fx="23.823223" fy="1048.980957" r="13" gradientTransform="matrix(0.32549,0,0,0.0809379,0.24577,-69.954468)">
<stop offset="0" style="stop-color:rgb(0%,0%,0%);stop-opacity:1;"/>
<stop offset="1" style="stop-color:rgb(0%,0%,0%);stop-opacity:0;"/>
</radialGradient>
<mask id="mask1">
  <g filter="url(#alpha)">
<rect x="0" y="0" width="16" height="16" style="fill:rgb(0%,0%,0%);fill-opacity:0.189;stroke:none;"/>
  </g>
</mask>
<radialGradient id="radial1" gradientUnits="userSpaceOnUse" cx="17.971973" cy="1005.458191" fx="17.971973" fy="1005.458191" r="11" gradientTransform="matrix(0.811101,0.0540731,-0.0956534,1.434806,92.466209,-1433.789291)">
<stop offset="0" style="stop-color:rgb(100%,100%,100%);stop-opacity:1;"/>
<stop offset="1" style="stop-color:rgb(0%,0%,0%);stop-opacity:0;"/>
</radialGradient>
<clipPath id="clip2">
  <rect x="0" y="0" width="16" height="16"/>
</clipPath>
<g id="surface8" clip-path="url(#clip2)">
<path style=" stroke:none;fill-rule:nonzero;fill:url(#radial1);" d="M 8.0625 0 C 4.203125 0 4.203125 0 4.203125 2.464844 L 4.203125 12.648438 C 6.515625 10.773438 8.226562 6.933594 8.585938 2.828125 C 8.667969 1.867188 8.675781 0.914062 8.605469 0.00390625 C 8.421875 0 8.265625 0 8.0625 0 Z M 8.0625 0 "/>
</g>
</defs>
<g id="surface1">
<path style=" stroke:none;fill-rule:nonzero;fill:rgb(60.000002%,60.000002%,60.000002%);fill-opacity:1;" d="M 11.84375 3.75 L 11.90625 3.75 C 11.957031 3.75 12 3.792969 12 3.84375 L 12 4.65625 C 12 4.707031 11.957031 4.75 11.90625 4.75 L 11.84375 4.75 C 11.792969 4.75 11.75 4.707031 11.75 4.65625 L 11.75 3.84375 C 11.75 3.792969 11.792969 3.75 11.84375 3.75 Z M 11.84375 3.75 "/>
<use xlink:href="#surface5" mask="url(#mask0)"/>
<path style=" stroke:none;fill-rule:nonzero;fill:url(#radial0);" d="M 12.230469 14.949219 C 12.230469 15.527344 10.335938 16 8 16 C 5.664062 16 3.769531 15.527344 3.769531 14.949219 C 3.769531 14.367188 5.664062 13.894531 8 13.894531 C 10.335938 13.894531 12.230469 14.367188 12.230469 14.949219 Z M 12.230469 14.949219 "/>
<path style=" stroke:none;fill-rule:nonzero;fill:rgb(50.196081%,50.196081%,50.196081%);fill-opacity:1;" d="M 11.875 12.917969 L 11.875 7.6875 L 8.0625 7.6875 L 8.0625 15.375 C 11.875 15.375 11.875 15.375 11.875 12.917969 Z M 4.25 12.917969 L 4.25 7.6875 L 8.0625 7.6875 L 8.0625 15.375 C 4.25 15.375 4.25 15.375 4.25 12.917969 Z M 11.875 2.457031 L 11.875 7.6875 L 8.0625 7.6875 L 8.0625 0 C 11.875 0 11.875 0 11.875 2.457031 Z M 4.25 2.457031 L 4.25 7.6875 L 8.0625 7.6875 L 8.0625 0 C 4.25 0 4.25 0 4.25 2.457031 Z M 4.25 2.457031 "/>
<path style=" stroke:none;fill-rule:nonzero;fill:rgb(100%,100%,100%);fill-opacity:1;" d="M 11.75 12.832031 L 11.75 7.6875 L 8.0625 7.6875 L 8.0625 15.25 C 11.75 15.25 11.75 15.25 11.75 12.832031 Z M 4.375 12.832031 L 4.375 7.6875 L 8.0625 7.6875 L 8.0625 15.25 C 4.375 15.25 4.375 15.25 4.375 12.832031 Z M 11.75 2.542969 L 11.75 7.6875 L 8.0625 7.6875 L 8.0625 0.125 C 11.75 0.125 11.75 0.125 11.75 2.542969 Z M 4.375 2.542969 L 4.375 7.6875 L 8.0625 7.6875 L 8.0625 0.125 C 4.375 0.125 4.375 0.125 4.375 2.542969 Z M 4.375 2.542969 "/>
<path style=" stroke:none;fill-rule:nonzero;fill:rgb(10.196079%,10.196079%,10.196079%);fill-opacity:1;" d="M 4.625 1.5 L 11.5 1.5 L 11.5 13.75 L 4.625 13.75 Z M 4.625 1.5 "/>
<use xlink:href="#surface8" mask="url(#mask1)"/>
<path style=" stroke:none;fill-rule:nonzero;fill:rgb(20%,20%,20%);fill-opacity:1;" d="M 10.625 0.625 C 10.625 0.695312 10.570312 0.75 10.5 0.75 C 10.429688 0.75 10.375 0.695312 10.375 0.625 C 10.375 0.554688 10.429688 0.5 10.5 0.5 C 10.570312 0.5 10.625 0.554688 10.625 0.625 Z M 10.625 0.625 "/>
<path style=" stroke:none;fill-rule:nonzero;fill:rgb(40.000001%,40.000001%,40.000001%);fill-opacity:1;" d="M 10.554688 0.617188 C 10.554688 0.660156 10.523438 0.691406 10.488281 0.691406 C 10.449219 0.691406 10.417969 0.660156 10.417969 0.617188 C 10.417969 0.578125 10.449219 0.546875 10.488281 0.546875 C 10.523438 0.546875 10.554688 0.578125 10.554688 0.617188 Z M 10.554688 0.617188 "/>
<path style=" stroke:none;fill-rule:nonzero;fill:rgb(10.196079%,10.196079%,10.196079%);fill-opacity:1;" d="M 10.574219 0.625 C 10.574219 0.664062 10.539062 0.699219 10.5 0.699219 C 10.460938 0.699219 10.425781 0.664062 10.425781 0.625 C 10.425781 0.585938 10.460938 0.550781 10.5 0.550781 C 10.539062 0.550781 10.574219 0.585938 10.574219 0.625 Z M 10.574219 0.625 "/>
<path style=" stroke:none;fill-rule:nonzero;fill:rgb(0%,0%,0%);fill-opacity:1;" d="M 10.542969 0.625 C 10.542969 0.648438 10.523438 0.667969 10.5 0.667969 C 10.476562 0.667969 10.457031 0.648438 10.457031 0.625 C 10.457031 0.601562 10.476562 0.582031 10.5 0.582031 C 10.523438 0.582031 10.542969 0.601562 10.542969 0.625 Z M 10.542969 0.625 "/>
<path style=" stroke:none;fill-rule:nonzero;fill:rgb(60.000002%,60.000002%,60.000002%);fill-opacity:1;" d="M 6.617188 14.375 L 9.632812 14.375 C 9.765625 14.375 9.875 14.484375 9.875 14.617188 L 9.875 14.632812 C 9.875 14.765625 9.765625 14.875 9.632812 14.875 L 6.617188 14.875 C 6.484375 14.875 6.375 14.765625 6.375 14.632812 L 6.375 14.617188 C 6.375 14.484375 6.484375 14.375 6.617188 14.375 Z M 6.617188 14.375 "/>
<path style=" stroke:none;fill-rule:nonzero;fill:rgb(80.000001%,80.000001%,80.000001%);fill-opacity:1;" d="M 6.613281 14.5 L 9.636719 14.5 C 9.699219 14.5 9.75 14.550781 9.75 14.613281 L 9.75 14.636719 C 9.75 14.699219 9.699219 14.75 9.636719 14.75 L 6.613281 14.75 C 6.550781 14.75 6.5 14.699219 6.5 14.636719 L 6.5 14.613281 C 6.5 14.550781 6.550781 14.5 6.613281 14.5 Z M 6.613281 14.5 "/>
<path style=" stroke:none;fill-rule:nonzero;fill:rgb(60.000002%,60.000002%,60.000002%);fill-opacity:1;" d="M 6.617188 0.5 L 9.632812 0.5 C 9.765625 0.5 9.875 0.609375 9.875 0.742188 L 9.875 0.757812 C 9.875 0.890625 9.765625 1 9.632812 1 L 6.617188 1 C 6.484375 1 6.375 0.890625 6.375 0.757812 L 6.375 0.742188 C 6.375 0.609375 6.484375 0.5 6.617188 0.5 Z M 6.617188 0.5 "/>
<path style=" stroke:none;fill-rule:nonzero;fill:rgb(80.000001%,80.000001%,80.000001%);fill-opacity:1;" d="M 6.613281 0.625 L 9.636719 0.625 C 9.699219 0.625 9.75 0.675781 9.75 0.738281 L 9.75 0.761719 C 9.75 0.824219 9.699219 0.875 9.636719 0.875 L 6.613281 0.875 C 6.550781 0.875 6.5 0.824219 6.5 0.761719 L 6.5 0.738281 C 6.5 0.675781 6.550781 0.625 6.613281 0.625 Z M 6.613281 0.625 "/>
</g>
</svg>
