
<svg xmlns="http://www.w3.org/2000/svg" xmlns:xlink="http://www.w3.org/1999/xlink" width="16px" height="16px" viewBox="0 0 16 16" version="1.1">
<defs>
<filter id="alpha" filterUnits="objectBoundingBox" x="0%" y="0%" width="100%" height="100%">
  <feColorMatrix type="matrix" in="SourceGraphic" values="0 0 0 0 1 0 0 0 0 1 0 0 0 0 1 0 0 0 1 0"/>
</filter>
<mask id="mask0">
  <g filter="url(#alpha)">
<rect x="0" y="0" width="16" height="16" style="fill:rgb(0%,0%,0%);fill-opacity:0.427;stroke:none;"/>
  </g>
</mask>
<radialGradient id="radial0" gradientUnits="userSpaceOnUse" cx="65" cy="118" fx="65" fy="118" r="45" gradientTransform="matrix(0.0977831,0,0,0.0277778,1.644101,11.472222)">
<stop offset="0" style="stop-color:rgb(0%,0%,0%);stop-opacity:1;"/>
<stop offset="1" style="stop-color:rgb(0%,0%,0%);stop-opacity:0;"/>
</radialGradient>
<clipPath id="clip1">
  <rect x="0" y="0" width="16" height="16"/>
</clipPath>
<g id="surface5" clip-path="url(#clip1)">
<path style=" stroke:none;fill-rule:nonzero;fill:url(#radial0);" d="M 12.398438 14.75 C 12.398438 15.441406 10.429688 16 8 16 C 5.570312 16 3.601562 15.441406 3.601562 14.75 C 3.601562 14.058594 5.570312 13.5 8 13.5 C 10.429688 13.5 12.398438 14.058594 12.398438 14.75 Z M 12.398438 14.75 "/>
</g>
<mask id="mask1">
  <g filter="url(#alpha)">
<rect x="0" y="0" width="16" height="16" style="fill:rgb(0%,0%,0%);fill-opacity:0.98;stroke:none;"/>
  </g>
</mask>
<clipPath id="clip2">
  <rect x="0" y="0" width="16" height="16"/>
</clipPath>
<g id="surface8" clip-path="url(#clip2)">
<path style=" stroke:none;fill-rule:nonzero;fill:rgb(60.000002%,60.000002%,60.000002%);fill-opacity:1;" d="M 7.4375 0.375 L 8.6875 0.375 C 8.792969 0.375 8.875 0.457031 8.875 0.5625 C 8.875 0.667969 8.792969 0.75 8.6875 0.75 L 7.4375 0.75 C 7.332031 0.75 7.25 0.667969 7.25 0.5625 C 7.25 0.457031 7.332031 0.375 7.4375 0.375 Z M 7.4375 0.375 "/>
</g>
<mask id="mask2">
  <g filter="url(#alpha)">
<rect x="0" y="0" width="16" height="16" style="fill:rgb(0%,0%,0%);fill-opacity:0.98;stroke:none;"/>
  </g>
</mask>
<clipPath id="clip3">
  <rect x="0" y="0" width="16" height="16"/>
</clipPath>
<g id="surface11" clip-path="url(#clip3)">
<path style=" stroke:none;fill-rule:nonzero;fill:rgb(10.196079%,10.196079%,10.196079%);fill-opacity:1;" d="M 10.5 0.5 C 10.5 0.570312 10.445312 0.625 10.375 0.625 C 10.304688 0.625 10.25 0.570312 10.25 0.5 C 10.25 0.429688 10.304688 0.375 10.375 0.375 C 10.445312 0.375 10.5 0.429688 10.5 0.5 Z M 10.5 0.5 "/>
</g>
<mask id="mask3">
  <g filter="url(#alpha)">
<rect x="0" y="0" width="16" height="16" style="fill:rgb(0%,0%,0%);fill-opacity:0.98;stroke:none;"/>
  </g>
</mask>
<clipPath id="clip4">
  <rect x="0" y="0" width="16" height="16"/>
</clipPath>
<g id="surface14" clip-path="url(#clip4)">
<path style=" stroke:none;fill-rule:nonzero;fill:rgb(10.196079%,10.196079%,10.196079%);fill-opacity:1;" d="M 9.625 0.375 C 9.625 0.445312 9.570312 0.5 9.5 0.5 C 9.429688 0.5 9.375 0.445312 9.375 0.375 C 9.375 0.304688 9.429688 0.25 9.5 0.25 C 9.570312 0.25 9.625 0.304688 9.625 0.375 Z M 9.625 0.375 "/>
</g>
<mask id="mask4">
  <g filter="url(#alpha)">
<rect x="0" y="0" width="16" height="16" style="fill:rgb(0%,0%,0%);fill-opacity:0.98;stroke:none;"/>
  </g>
</mask>
<clipPath id="clip5">
  <rect x="0" y="0" width="16" height="16"/>
</clipPath>
<g id="surface17" clip-path="url(#clip5)">
<path style=" stroke:none;fill-rule:nonzero;fill:rgb(10.196079%,10.196079%,10.196079%);fill-opacity:1;" d="M 9.25 0.375 C 9.25 0.445312 9.195312 0.5 9.125 0.5 C 9.054688 0.5 9 0.445312 9 0.375 C 9 0.304688 9.054688 0.25 9.125 0.25 C 9.195312 0.25 9.25 0.304688 9.25 0.375 Z M 9.25 0.375 "/>
</g>
<mask id="mask5">
  <g filter="url(#alpha)">
<rect x="0" y="0" width="16" height="16" style="fill:rgb(0%,0%,0%);fill-opacity:0.98;stroke:none;"/>
  </g>
</mask>
<clipPath id="clip6">
  <rect x="0" y="0" width="16" height="16"/>
</clipPath>
<g id="surface20" clip-path="url(#clip6)">
<path style=" stroke:none;fill-rule:nonzero;fill:rgb(10.196079%,10.196079%,10.196079%);fill-opacity:1;" d="M 6.875 0.375 C 6.875 0.445312 6.820312 0.5 6.75 0.5 C 6.679688 0.5 6.625 0.445312 6.625 0.375 C 6.625 0.304688 6.679688 0.25 6.75 0.25 C 6.820312 0.25 6.875 0.304688 6.875 0.375 Z M 6.875 0.375 "/>
</g>
<mask id="mask6">
  <g filter="url(#alpha)">
<rect x="0" y="0" width="16" height="16" style="fill:rgb(0%,0%,0%);fill-opacity:0.98;stroke:none;"/>
  </g>
</mask>
<clipPath id="clip7">
  <rect x="0" y="0" width="16" height="16"/>
</clipPath>
<g id="surface23" clip-path="url(#clip7)">
<path style=" stroke:none;fill-rule:nonzero;fill:rgb(10.196079%,10.196079%,10.196079%);fill-opacity:1;" d="M 4.75 1.375 L 11.25 1.375 C 11.320312 1.375 11.375 1.429688 11.375 1.5 L 11.375 13.25 C 11.375 13.320312 11.320312 13.375 11.25 13.375 L 4.75 13.375 C 4.679688 13.375 4.625 13.320312 4.625 13.25 L 4.625 1.5 C 4.625 1.429688 4.679688 1.375 4.75 1.375 Z M 4.75 1.375 "/>
</g>
<linearGradient id="linear0" gradientUnits="userSpaceOnUse" x1="506.450348" y1="1024.094482" x2="-334.104065" y2="535.196533" gradientTransform="matrix(0.125,0,0,0.125,0.000000251389,-0.000000238958)">
<stop offset="0" style="stop-color:rgb(100%,100%,100%);stop-opacity:1;"/>
<stop offset="1" style="stop-color:rgb(100%,100%,100%);stop-opacity:0;"/>
</linearGradient>
</defs>
<g id="surface1">
<path style=" stroke:none;fill-rule:nonzero;fill:rgb(60.000002%,60.000002%,60.000002%);fill-opacity:1;" d="M 11.75 3.375 C 11.820312 3.375 11.875 3.429688 11.875 3.5 L 11.875 4.625 C 11.875 4.695312 11.820312 4.75 11.75 4.75 C 11.679688 4.75 11.625 4.695312 11.625 4.625 L 11.625 3.5 C 11.625 3.429688 11.679688 3.375 11.75 3.375 Z M 11.75 3.375 "/>
<path style=" stroke:none;fill-rule:nonzero;fill:rgb(60.000002%,60.000002%,60.000002%);fill-opacity:1;" d="M 4.25 2.25 C 4.320312 2.25 4.375 2.304688 4.375 2.375 L 4.375 4.625 C 4.375 4.695312 4.320312 4.75 4.25 4.75 C 4.179688 4.75 4.125 4.695312 4.125 4.625 L 4.125 2.375 C 4.125 2.304688 4.179688 2.25 4.25 2.25 Z M 4.25 2.25 "/>
<use xlink:href="#surface5" mask="url(#mask0)"/>
<path style="fill-rule:nonzero;fill:rgb(90.196079%,90.196079%,90.196079%);fill-opacity:1;stroke-width:13.961003;stroke-linecap:round;stroke-linejoin:round;stroke:rgb(45.09804%,45.09804%,45.09804%);stroke-opacity:1;stroke-miterlimit:4;" d="M 305.94311 360.590178 C 181.611101 360.590178 9.122327 350.550311 9.122327 502.457874 L 9.122327 1853.474847 C 9.122327 2004.945893 181.611101 1994.906026 305.94311 1994.906026 L 538.846733 1994.906026 C 663.178743 1994.906026 835.667516 2004.945893 835.667516 1853.038331 L 835.667516 502.021358 C 835.667516 350.986827 663.178743 360.590178 538.846733 361.026694 L 538.846733 360.590178 Z M 305.94311 360.590178 " transform="matrix(0.00892268,0,0,0.0089487,4.231104,-3.164313)"/>
<path style=" stroke:none;fill-rule:nonzero;fill:rgb(50.196081%,50.196081%,50.196081%);fill-opacity:1;" d="M 6.992188 1.019531 L 7.066406 1.019531 C 7.066406 1.046875 7.070312 1.070312 7.085938 1.074219 C 7.089844 1.074219 7.097656 1.074219 7.101562 1.074219 C 7.109375 1.070312 7.117188 1.066406 7.117188 1.0625 C 7.121094 1.058594 7.121094 1.054688 7.125 1.050781 C 7.125 1.039062 7.121094 1.027344 7.109375 1.019531 C 7.066406 0.980469 6.988281 0.976562 6.992188 0.898438 C 6.992188 0.847656 7.027344 0.824219 7.089844 0.820312 C 7.183594 0.820312 7.195312 0.859375 7.191406 0.910156 L 7.117188 0.910156 C 7.117188 0.890625 7.117188 0.871094 7.09375 0.867188 C 7.074219 0.867188 7.070312 0.878906 7.066406 0.886719 C 7.066406 0.910156 7.074219 0.914062 7.082031 0.921875 C 7.128906 0.957031 7.207031 0.96875 7.199219 1.039062 C 7.199219 1.097656 7.164062 1.125 7.097656 1.125 C 7.046875 1.125 7.027344 1.117188 7.011719 1.101562 C 6.996094 1.085938 6.988281 1.066406 6.992188 1.019531 Z M 6.992188 1.019531 "/>
<path style=" stroke:none;fill-rule:nonzero;fill:rgb(50.196081%,50.196081%,50.196081%);fill-opacity:1;" d="M 7.320312 1.117188 L 7.242188 1.117188 L 7.296875 0.828125 L 7.425781 0.828125 L 7.476562 1.117188 L 7.398438 1.117188 L 7.359375 0.855469 Z M 7.320312 1.117188 "/>
<path style=" stroke:none;fill-rule:nonzero;fill:rgb(50.196081%,50.196081%,50.196081%);fill-opacity:1;" d="M 7.53125 1.117188 L 7.542969 0.828125 L 7.65625 0.828125 L 7.691406 1.050781 L 7.730469 0.828125 L 7.847656 0.828125 L 7.855469 1.117188 L 7.78125 1.117188 L 7.777344 0.859375 L 7.730469 1.117188 L 7.65625 1.117188 L 7.609375 0.863281 L 7.605469 1.117188 Z M 7.53125 1.117188 "/>
<path style=" stroke:none;fill-rule:nonzero;fill:rgb(50.196081%,50.196081%,50.196081%);fill-opacity:1;" d="M 7.921875 1.023438 L 8 1.023438 C 7.996094 1.046875 8 1.070312 8.015625 1.074219 C 8.023438 1.078125 8.027344 1.074219 8.035156 1.074219 C 8.042969 1.074219 8.046875 1.070312 8.050781 1.066406 C 8.054688 1.0625 8.054688 1.054688 8.054688 1.050781 C 8.058594 1.039062 8.050781 1.03125 8.042969 1.019531 C 7.996094 0.980469 7.921875 0.976562 7.921875 0.898438 C 7.925781 0.847656 7.960938 0.824219 8.023438 0.820312 C 8.113281 0.820312 8.128906 0.863281 8.121094 0.914062 L 8.050781 0.914062 C 8.050781 0.890625 8.046875 0.871094 8.023438 0.871094 C 8.003906 0.871094 8.003906 0.878906 8 0.886719 C 7.996094 0.910156 8.007812 0.914062 8.015625 0.921875 C 8.058594 0.957031 8.136719 0.96875 8.128906 1.042969 C 8.128906 1.097656 8.097656 1.128906 8.027344 1.128906 C 7.980469 1.128906 7.960938 1.117188 7.945312 1.105469 C 7.925781 1.085938 7.917969 1.070312 7.921875 1.023438 Z M 7.921875 1.023438 "/>
<path style=" stroke:none;fill-rule:nonzero;fill:rgb(50.196081%,50.196081%,50.196081%);fill-opacity:1;" d="M 8.265625 0.828125 L 8.191406 0.828125 L 8.191406 1.046875 C 8.199219 1.105469 8.234375 1.125 8.28125 1.125 C 8.292969 1.125 8.304688 1.125 8.3125 1.125 C 8.363281 1.125 8.394531 1.09375 8.394531 1.042969 L 8.394531 0.828125 L 8.320312 0.828125 L 8.320312 1.03125 C 8.320312 1.039062 8.320312 1.046875 8.320312 1.050781 C 8.320312 1.0625 8.3125 1.066406 8.304688 1.070312 C 8.296875 1.074219 8.289062 1.074219 8.28125 1.074219 C 8.273438 1.070312 8.273438 1.066406 8.269531 1.058594 C 8.265625 1.046875 8.265625 1.035156 8.265625 1.019531 Z M 8.265625 0.828125 "/>
<path style=" stroke:none;fill-rule:nonzero;fill:rgb(50.196081%,50.196081%,50.196081%);fill-opacity:1;" d="M 8.472656 1.117188 L 8.472656 0.828125 L 8.578125 0.828125 L 8.648438 1.054688 L 8.648438 0.828125 L 8.714844 0.828125 L 8.714844 1.117188 L 8.613281 1.117188 L 8.542969 0.882812 L 8.542969 1.117188 Z M 8.472656 1.117188 "/>
<path style=" stroke:none;fill-rule:nonzero;fill:rgb(50.196081%,50.196081%,50.196081%);fill-opacity:1;" d="M 8.917969 0.921875 L 8.992188 0.921875 C 8.992188 0.863281 8.972656 0.820312 8.894531 0.820312 C 8.816406 0.820312 8.785156 0.859375 8.789062 0.929688 L 8.789062 1.039062 C 8.789062 1.101562 8.835938 1.121094 8.890625 1.117188 C 8.957031 1.121094 8.992188 1.097656 8.992188 1.042969 L 8.992188 0.953125 L 8.890625 0.953125 L 8.890625 0.996094 L 8.917969 0.996094 L 8.917969 1.042969 C 8.917969 1.0625 8.90625 1.070312 8.890625 1.070312 C 8.871094 1.074219 8.863281 1.0625 8.859375 1.046875 L 8.859375 0.902344 C 8.863281 0.882812 8.871094 0.871094 8.890625 0.871094 C 8.902344 0.875 8.917969 0.875 8.917969 0.898438 Z M 8.917969 0.921875 "/>
<use xlink:href="#surface8" mask="url(#mask1)"/>
<path style=" stroke:none;fill-rule:nonzero;fill:rgb(30.19608%,30.19608%,30.19608%);fill-opacity:1;" d="M 7.5 0.5625 C 7.5 0.585938 7.488281 0.605469 7.46875 0.617188 C 7.449219 0.628906 7.425781 0.628906 7.40625 0.617188 C 7.386719 0.605469 7.375 0.585938 7.375 0.5625 C 7.375 0.539062 7.386719 0.519531 7.40625 0.507812 C 7.425781 0.496094 7.449219 0.496094 7.46875 0.507812 C 7.488281 0.519531 7.5 0.539062 7.5 0.5625 Z M 7.5 0.5625 "/>
<path style=" stroke:none;fill-rule:nonzero;fill:rgb(30.19608%,30.19608%,30.19608%);fill-opacity:1;" d="M 7.75 0.5625 C 7.75 0.585938 7.738281 0.605469 7.71875 0.617188 C 7.699219 0.628906 7.675781 0.628906 7.65625 0.617188 C 7.636719 0.605469 7.625 0.585938 7.625 0.5625 C 7.625 0.539062 7.636719 0.519531 7.65625 0.507812 C 7.675781 0.496094 7.699219 0.496094 7.71875 0.507812 C 7.738281 0.519531 7.75 0.539062 7.75 0.5625 Z M 7.75 0.5625 "/>
<path style=" stroke:none;fill-rule:nonzero;fill:rgb(30.19608%,30.19608%,30.19608%);fill-opacity:1;" d="M 8 0.5625 C 8 0.585938 7.988281 0.605469 7.96875 0.617188 C 7.949219 0.628906 7.925781 0.628906 7.90625 0.617188 C 7.886719 0.605469 7.875 0.585938 7.875 0.5625 C 7.875 0.539062 7.886719 0.519531 7.90625 0.507812 C 7.925781 0.496094 7.949219 0.496094 7.96875 0.507812 C 7.988281 0.519531 8 0.539062 8 0.5625 Z M 8 0.5625 "/>
<path style=" stroke:none;fill-rule:nonzero;fill:rgb(30.19608%,30.19608%,30.19608%);fill-opacity:1;" d="M 8.25 0.5625 C 8.25 0.585938 8.238281 0.605469 8.21875 0.617188 C 8.199219 0.628906 8.175781 0.628906 8.15625 0.617188 C 8.136719 0.605469 8.125 0.585938 8.125 0.5625 C 8.125 0.539062 8.136719 0.519531 8.15625 0.507812 C 8.175781 0.496094 8.199219 0.496094 8.21875 0.507812 C 8.238281 0.519531 8.25 0.539062 8.25 0.5625 Z M 8.25 0.5625 "/>
<path style=" stroke:none;fill-rule:nonzero;fill:rgb(30.19608%,30.19608%,30.19608%);fill-opacity:1;" d="M 8.5 0.5625 C 8.5 0.585938 8.488281 0.605469 8.46875 0.617188 C 8.449219 0.628906 8.425781 0.628906 8.40625 0.617188 C 8.386719 0.605469 8.375 0.585938 8.375 0.5625 C 8.375 0.539062 8.386719 0.519531 8.40625 0.507812 C 8.425781 0.496094 8.449219 0.496094 8.46875 0.507812 C 8.488281 0.519531 8.5 0.539062 8.5 0.5625 Z M 8.5 0.5625 "/>
<path style=" stroke:none;fill-rule:nonzero;fill:rgb(30.19608%,30.19608%,30.19608%);fill-opacity:1;" d="M 8.75 0.5625 C 8.75 0.585938 8.738281 0.605469 8.71875 0.617188 C 8.699219 0.628906 8.675781 0.628906 8.65625 0.617188 C 8.636719 0.605469 8.625 0.585938 8.625 0.5625 C 8.625 0.539062 8.636719 0.519531 8.65625 0.507812 C 8.675781 0.496094 8.699219 0.496094 8.71875 0.507812 C 8.738281 0.519531 8.75 0.539062 8.75 0.5625 Z M 8.75 0.5625 "/>
<use xlink:href="#surface11" mask="url(#mask2)"/>
<use xlink:href="#surface14" mask="url(#mask3)"/>
<use xlink:href="#surface17" mask="url(#mask4)"/>
<use xlink:href="#surface20" mask="url(#mask5)"/>
<use xlink:href="#surface23" mask="url(#mask6)"/>
<path style="fill-rule:nonzero;fill:rgb(90.196079%,90.196079%,90.196079%);fill-opacity:1;stroke-width:1;stroke-linecap:round;stroke-linejoin:round;stroke:rgb(63.529414%,63.529414%,63.529414%);stroke-opacity:1;stroke-miterlimit:4;" d="M 58.875 110.59375 L 70.125 110.59375 C 70.84375 110.59375 71.40625 111.15625 71.40625 111.875 L 71.40625 113.125 C 71.40625 113.84375 70.84375 114.40625 70.125 114.40625 L 58.875 114.40625 C 58.15625 114.40625 57.59375 113.84375 57.59375 113.125 L 57.59375 111.875 C 57.59375 111.15625 58.15625 110.59375 58.875 110.59375 Z M 58.875 110.59375 " transform="matrix(0.125,0,0,0.125,0,0)"/>
<path style=" stroke:none;fill-rule:nonzero;fill:url(#linear0);" d="M 6.960938 0.0625 C 5.851562 0.0625 4.3125 -0.0273438 4.3125 1.332031 L 4.3125 11.453125 C 6.394531 9.421875 7.8125 5.058594 8.007812 0.0625 C 7.652344 0.0625 7.273438 0.0625 6.960938 0.0625 Z M 6.960938 0.0625 "/>
</g>
</svg>
