
<svg xmlns="http://www.w3.org/2000/svg" xmlns:xlink="http://www.w3.org/1999/xlink" width="16px" height="16px" viewBox="0 0 16 16" version="1.1">
<defs>
<filter id="alpha" filterUnits="objectBoundingBox" x="0%" y="0%" width="100%" height="100%">
  <feColorMatrix type="matrix" in="SourceGraphic" values="0 0 0 0 1 0 0 0 0 1 0 0 0 0 1 0 0 0 1 0"/>
</filter>
<mask id="mask0">
  <g filter="url(#alpha)">
<rect x="0" y="0" width="16" height="16" style="fill:rgb(0%,0%,0%);fill-opacity:0.99;stroke:none;"/>
  </g>
</mask>
<radialGradient id="radial0" gradientUnits="userSpaceOnUse" cx="64" cy="1044.862183" fx="64" fy="1044.862183" r="42.5" gradientTransform="matrix(0.104574,0,0,0.0220588,1.307256,-7.985931)">
<stop offset="0" style="stop-color:rgb(0%,0%,0%);stop-opacity:1;"/>
<stop offset="1" style="stop-color:rgb(0%,0%,0%);stop-opacity:0;"/>
</radialGradient>
<clipPath id="clip1">
  <rect x="0" y="0" width="16" height="16"/>
</clipPath>
<g id="surface5" clip-path="url(#clip1)">
<path style=" stroke:none;fill-rule:nonzero;fill:url(#radial0);" d="M 12.445312 15.0625 C 12.445312 15.582031 10.453125 16 8 16 C 5.546875 16 3.554688 15.582031 3.554688 15.0625 C 3.554688 14.542969 5.546875 14.125 8 14.125 C 10.453125 14.125 12.445312 14.542969 12.445312 15.0625 Z M 12.445312 15.0625 "/>
</g>
<mask id="mask1">
  <g filter="url(#alpha)">
<rect x="0" y="0" width="16" height="16" style="fill:rgb(0%,0%,0%);fill-opacity:0.99;stroke:none;"/>
  </g>
</mask>
<clipPath id="clip2">
  <rect x="0" y="0" width="16" height="16"/>
</clipPath>
<g id="surface8" clip-path="url(#clip2)">
<path style=" stroke:none;fill-rule:nonzero;fill:rgb(40.000001%,40.000001%,40.000001%);fill-opacity:1;" d="M 5.449219 0 L 10.550781 0 C 11.210938 0 11.75 0.539062 11.75 1.199219 L 11.75 14.175781 C 11.75 14.835938 11.210938 15.375 10.550781 15.375 L 5.449219 15.375 C 4.789062 15.375 4.25 14.835938 4.25 14.175781 L 4.25 1.199219 C 4.25 0.539062 4.789062 0 5.449219 0 Z M 5.449219 0 "/>
</g>
<mask id="mask2">
  <g filter="url(#alpha)">
<rect x="0" y="0" width="16" height="16" style="fill:rgb(0%,0%,0%);fill-opacity:0.99;stroke:none;"/>
  </g>
</mask>
<clipPath id="clip3">
  <rect x="0" y="0" width="16" height="16"/>
</clipPath>
<g id="surface11" clip-path="url(#clip3)">
<path style=" stroke:none;fill-rule:nonzero;fill:rgb(100%,100%,100%);fill-opacity:1;" d="M 5.535156 0.125 L 10.464844 0.125 C 11.105469 0.125 11.625 0.652344 11.625 1.304688 L 11.625 14.070312 C 11.625 14.722656 11.105469 15.25 10.464844 15.25 L 5.535156 15.25 C 4.894531 15.25 4.375 14.722656 4.375 14.070312 L 4.375 1.304688 C 4.375 0.652344 4.894531 0.125 5.535156 0.125 Z M 5.535156 0.125 "/>
</g>
<mask id="mask3">
  <g filter="url(#alpha)">
<rect x="0" y="0" width="16" height="16" style="fill:rgb(0%,0%,0%);fill-opacity:0.99;stroke:none;"/>
  </g>
</mask>
<clipPath id="clip4">
  <rect x="0" y="0" width="16" height="16"/>
</clipPath>
<g id="surface14" clip-path="url(#clip4)">
<path style=" stroke:none;fill-rule:nonzero;fill:rgb(10.196079%,10.196079%,10.196079%);fill-opacity:1;" d="M 4.625 1.875 L 11.375 1.875 L 11.375 13.5 L 4.625 13.5 Z M 4.625 1.875 "/>
</g>
<mask id="mask4">
  <g filter="url(#alpha)">
<rect x="0" y="0" width="16" height="16" style="fill:rgb(0%,0%,0%);fill-opacity:0.121;stroke:none;"/>
  </g>
</mask>
<linearGradient id="linear0" gradientUnits="userSpaceOnUse" x1="140" y1="73" x2="35" y2="13" gradientTransform="matrix(0.125,0,0,0.125,0,0)">
<stop offset="0" style="stop-color:rgb(100%,100%,100%);stop-opacity:1;"/>
<stop offset="1" style="stop-color:rgb(100%,100%,100%);stop-opacity:0;"/>
</linearGradient>
<clipPath id="clip5">
  <rect x="0" y="0" width="16" height="16"/>
</clipPath>
<g id="surface17" clip-path="url(#clip5)">
<path style=" stroke:none;fill-rule:nonzero;fill:url(#linear0);" d="M 5.449219 0 C 4.785156 0 4.25 0.535156 4.25 1.199219 L 4.25 11.859375 C 6.792969 8.636719 8.300781 4.433594 8.503906 0 Z M 5.449219 0 "/>
</g>
<mask id="mask5">
  <g filter="url(#alpha)">
<rect x="0" y="0" width="16" height="16" style="fill:rgb(0%,0%,0%);fill-opacity:0.99;stroke:none;"/>
  </g>
</mask>
<clipPath id="clip6">
  <rect x="0" y="0" width="16" height="16"/>
</clipPath>
<g id="surface20" clip-path="url(#clip6)">
<path style=" stroke:none;fill-rule:nonzero;fill:rgb(20%,20%,20%);fill-opacity:1;" d="M 8.125 0.5 C 8.125 0.570312 8.070312 0.625 8 0.625 C 7.929688 0.625 7.875 0.570312 7.875 0.5 C 7.875 0.429688 7.929688 0.375 8 0.375 C 8.070312 0.375 8.125 0.429688 8.125 0.5 Z M 8.125 0.5 "/>
</g>
<mask id="mask6">
  <g filter="url(#alpha)">
<rect x="0" y="0" width="16" height="16" style="fill:rgb(0%,0%,0%);fill-opacity:0.99;stroke:none;"/>
  </g>
</mask>
<clipPath id="clip7">
  <rect x="0" y="0" width="16" height="16"/>
</clipPath>
<g id="surface23" clip-path="url(#clip7)">
<path style=" stroke:none;fill-rule:nonzero;fill:rgb(20%,20%,20%);fill-opacity:1;" d="M 6.875 1 C 6.875 1.070312 6.820312 1.125 6.75 1.125 C 6.679688 1.125 6.625 1.070312 6.625 1 C 6.625 0.929688 6.679688 0.875 6.75 0.875 C 6.820312 0.875 6.875 0.929688 6.875 1 Z M 6.875 1 "/>
</g>
<mask id="mask7">
  <g filter="url(#alpha)">
<rect x="0" y="0" width="16" height="16" style="fill:rgb(0%,0%,0%);fill-opacity:0.99;stroke:none;"/>
  </g>
</mask>
<clipPath id="clip8">
  <rect x="0" y="0" width="16" height="16"/>
</clipPath>
<g id="surface26" clip-path="url(#clip8)">
<path style=" stroke:none;fill-rule:nonzero;fill:rgb(20%,20%,20%);fill-opacity:1;" d="M 7.4375 0.875 L 8.5625 0.875 C 8.597656 0.875 8.625 0.902344 8.625 0.9375 C 8.625 0.972656 8.597656 1 8.5625 1 L 7.4375 1 C 7.402344 1 7.375 0.972656 7.375 0.9375 C 7.375 0.902344 7.402344 0.875 7.4375 0.875 Z M 7.4375 0.875 "/>
</g>
<mask id="mask8">
  <g filter="url(#alpha)">
<rect x="0" y="0" width="16" height="16" style="fill:rgb(0%,0%,0%);fill-opacity:0.99;stroke:none;"/>
  </g>
</mask>
<clipPath id="clip9">
  <rect x="0" y="0" width="16" height="16"/>
</clipPath>
<g id="surface29" clip-path="url(#clip9)">
<path style=" stroke:none;fill-rule:nonzero;fill:rgb(40.000001%,40.000001%,40.000001%);fill-opacity:1;" d="M 8.625 14.375 C 8.625 14.71875 8.34375 15 8 15 C 7.65625 15 7.375 14.71875 7.375 14.375 C 7.375 14.03125 7.65625 13.75 8 13.75 C 8.34375 13.75 8.625 14.03125 8.625 14.375 Z M 8.625 14.375 "/>
</g>
<mask id="mask9">
  <g filter="url(#alpha)">
<rect x="0" y="0" width="16" height="16" style="fill:rgb(0%,0%,0%);fill-opacity:0.99;stroke:none;"/>
  </g>
</mask>
<clipPath id="clip10">
  <rect x="0" y="0" width="16" height="16"/>
</clipPath>
<g id="surface32" clip-path="url(#clip10)">
<path style=" stroke:none;fill-rule:nonzero;fill:rgb(100%,100%,100%);fill-opacity:1;" d="M 8.5 14.375 C 8.5 14.652344 8.277344 14.875 8 14.875 C 7.722656 14.875 7.5 14.652344 7.5 14.375 C 7.5 14.097656 7.722656 13.875 8 13.875 C 8.277344 13.875 8.5 14.097656 8.5 14.375 Z M 8.5 14.375 "/>
</g>
</defs>
<g id="surface1">
<use xlink:href="#surface5" mask="url(#mask0)"/>
<path style=" stroke:none;fill-rule:nonzero;fill:rgb(60.000002%,60.000002%,60.000002%);fill-opacity:1;" d="M 11.6875 3.25 L 11.8125 3.25 C 11.847656 3.25 11.875 3.277344 11.875 3.3125 L 11.875 4.3125 C 11.875 4.347656 11.847656 4.375 11.8125 4.375 L 11.6875 4.375 C 11.652344 4.375 11.625 4.347656 11.625 4.3125 L 11.625 3.3125 C 11.625 3.277344 11.652344 3.25 11.6875 3.25 Z M 11.6875 3.25 "/>
<path style=" stroke:none;fill-rule:nonzero;fill:rgb(60.000002%,60.000002%,60.000002%);fill-opacity:1;" d="M 4.1875 2 L 4.3125 2 C 4.347656 2 4.375 2.015625 4.375 2.035156 L 4.375 2.589844 C 4.375 2.609375 4.347656 2.625 4.3125 2.625 L 4.1875 2.625 C 4.152344 2.625 4.125 2.609375 4.125 2.589844 L 4.125 2.035156 C 4.125 2.015625 4.152344 2 4.1875 2 Z M 4.1875 2 "/>
<path style=" stroke:none;fill-rule:nonzero;fill:rgb(60.000002%,60.000002%,60.000002%);fill-opacity:1;" d="M 4.1875 3.25 L 4.3125 3.25 C 4.347656 3.25 4.375 3.277344 4.375 3.3125 L 4.375 4.3125 C 4.375 4.347656 4.347656 4.375 4.3125 4.375 L 4.1875 4.375 C 4.152344 4.375 4.125 4.347656 4.125 4.3125 L 4.125 3.3125 C 4.125 3.277344 4.152344 3.25 4.1875 3.25 Z M 4.1875 3.25 "/>
<path style=" stroke:none;fill-rule:nonzero;fill:rgb(60.000002%,60.000002%,60.000002%);fill-opacity:1;" d="M 4.1875 4.625 L 4.3125 4.625 C 4.347656 4.625 4.375 4.652344 4.375 4.6875 L 4.375 5.6875 C 4.375 5.722656 4.347656 5.75 4.3125 5.75 L 4.1875 5.75 C 4.152344 5.75 4.125 5.722656 4.125 5.6875 L 4.125 4.6875 C 4.125 4.652344 4.152344 4.625 4.1875 4.625 Z M 4.1875 4.625 "/>
<use xlink:href="#surface8" mask="url(#mask1)"/>
<use xlink:href="#surface11" mask="url(#mask2)"/>
<use xlink:href="#surface14" mask="url(#mask3)"/>
<use xlink:href="#surface17" mask="url(#mask4)"/>
<use xlink:href="#surface20" mask="url(#mask5)"/>
<use xlink:href="#surface23" mask="url(#mask6)"/>
<use xlink:href="#surface26" mask="url(#mask7)"/>
<use xlink:href="#surface29" mask="url(#mask8)"/>
<use xlink:href="#surface32" mask="url(#mask9)"/>
</g>
</svg>
