
<svg xmlns="http://www.w3.org/2000/svg" xmlns:xlink="http://www.w3.org/1999/xlink" width="16px" height="16px" viewBox="0 0 16 16" version="1.1">
<defs>
<linearGradient id="linear0" gradientUnits="userSpaceOnUse" x1="21.42" y1="32.369999" x2="35.27" y2="32.369999" gradientTransform="matrix(0.25,0,0,0.25,0,0)">
<stop offset="0.18" style="stop-color:rgb(16.078432%,71.372551%,96.470588%);stop-opacity:1;"/>
<stop offset="0.82" style="stop-color:rgb(49.411765%,34.117648%,76.862746%);stop-opacity:1;"/>
</linearGradient>
</defs>
<g id="surface1">
<path style=" stroke:none;fill-rule:nonzero;fill:rgb(23.921569%,60.000002%,51.372552%);fill-opacity:1;" d="M 14.863281 3.332031 L 1.722656 3.332031 L 1.722656 13.125 L 14.863281 13.125 C 15.484375 13.125 15.992188 12.625 16 12 L 16 4.46875 C 16 3.839844 15.492188 3.332031 14.863281 3.332031 Z M 14.863281 3.332031 "/>
<path style=" stroke:none;fill-rule:nonzero;fill:rgb(82.352942%,83.529413%,85.490197%);fill-opacity:1;" d="M 2.203125 14.648438 L 1.101562 14.648438 L 1.101562 2.324219 L 0 2.324219 L 0 1.222656 L 1.101562 1.222656 C 1.710938 1.222656 2.203125 1.714844 2.203125 2.324219 Z M 2.203125 14.648438 "/>
<path style=" stroke:none;fill-rule:nonzero;fill:rgb(82.352942%,83.529413%,85.490197%);fill-opacity:1;" d="M 3.644531 13.230469 L 9.265625 13.230469 L 9.265625 14.671875 L 3.644531 14.671875 Z M 3.644531 13.230469 "/>
<path style=" stroke:none;fill-rule:nonzero;fill:rgb(39.215687%,73.725492%,56.470591%);fill-opacity:1;" d="M 3.613281 6.433594 L 5.382812 6.433594 L 5.382812 6.960938 L 3.613281 6.960938 Z M 3.613281 6.433594 "/>
<path style=" stroke:none;fill-rule:nonzero;fill:rgb(39.215687%,73.725492%,56.470591%);fill-opacity:1;" d="M 3.613281 7.386719 L 5.382812 7.386719 L 5.382812 7.917969 L 3.613281 7.917969 Z M 3.613281 7.386719 "/>
<path style=" stroke:none;fill-rule:nonzero;fill:rgb(39.215687%,73.725492%,56.470591%);fill-opacity:1;" d="M 3.613281 8.34375 L 5.382812 8.34375 L 5.382812 8.871094 L 3.613281 8.871094 Z M 3.613281 8.34375 "/>
<path style=" stroke:none;fill-rule:nonzero;fill:rgb(39.215687%,73.725492%,56.470591%);fill-opacity:1;" d="M 3.613281 9.296875 L 5.382812 9.296875 L 5.382812 9.828125 L 3.613281 9.828125 Z M 3.613281 9.296875 "/>
<path style=" stroke:none;fill-rule:nonzero;fill:rgb(39.215687%,73.725492%,56.470591%);fill-opacity:1;" d="M 8.917969 6.433594 L 10.683594 6.433594 L 10.683594 6.960938 L 8.917969 6.960938 Z M 8.917969 6.433594 "/>
<path style=" stroke:none;fill-rule:nonzero;fill:rgb(39.215687%,73.725492%,56.470591%);fill-opacity:1;" d="M 8.917969 7.386719 L 10.683594 7.386719 L 10.683594 7.917969 L 8.917969 7.917969 Z M 8.917969 7.386719 "/>
<path style=" stroke:none;fill-rule:nonzero;fill:rgb(39.215687%,73.725492%,56.470591%);fill-opacity:1;" d="M 8.917969 8.34375 L 10.683594 8.34375 L 10.683594 8.871094 L 8.917969 8.871094 Z M 8.917969 8.34375 "/>
<path style=" stroke:none;fill-rule:nonzero;fill:rgb(39.215687%,73.725492%,56.470591%);fill-opacity:1;" d="M 8.917969 9.296875 L 10.683594 9.296875 L 10.683594 9.828125 L 8.917969 9.828125 Z M 8.917969 9.296875 "/>
<path style=" stroke:none;fill-rule:nonzero;fill:rgb(39.215687%,73.725492%,56.470591%);fill-opacity:1;" d="M 8.316406 4.59375 L 8.847656 4.59375 L 8.847656 6.363281 L 8.316406 6.363281 Z M 8.316406 4.59375 "/>
<path style=" stroke:none;fill-rule:nonzero;fill:rgb(39.215687%,73.725492%,56.470591%);fill-opacity:1;" d="M 7.363281 4.59375 L 7.890625 4.59375 L 7.890625 6.363281 L 7.363281 6.363281 Z M 7.363281 4.59375 "/>
<path style=" stroke:none;fill-rule:nonzero;fill:rgb(39.215687%,73.725492%,56.470591%);fill-opacity:1;" d="M 6.40625 4.59375 L 6.9375 4.59375 L 6.9375 6.363281 L 6.40625 6.363281 Z M 6.40625 4.59375 "/>
<path style=" stroke:none;fill-rule:nonzero;fill:rgb(39.215687%,73.725492%,56.470591%);fill-opacity:1;" d="M 5.453125 4.59375 L 5.984375 4.59375 L 5.984375 6.363281 L 5.453125 6.363281 Z M 5.453125 4.59375 "/>
<path style=" stroke:none;fill-rule:nonzero;fill:rgb(39.215687%,73.725492%,56.470591%);fill-opacity:1;" d="M 8.316406 9.898438 L 8.847656 9.898438 L 8.847656 11.667969 L 8.316406 11.667969 Z M 8.316406 9.898438 "/>
<path style=" stroke:none;fill-rule:nonzero;fill:rgb(39.215687%,73.725492%,56.470591%);fill-opacity:1;" d="M 7.363281 9.898438 L 7.890625 9.898438 L 7.890625 11.667969 L 7.363281 11.667969 Z M 7.363281 9.898438 "/>
<path style=" stroke:none;fill-rule:nonzero;fill:rgb(39.215687%,73.725492%,56.470591%);fill-opacity:1;" d="M 6.40625 9.898438 L 6.9375 9.898438 L 6.9375 11.667969 L 6.40625 11.667969 Z M 6.40625 9.898438 "/>
<path style=" stroke:none;fill-rule:nonzero;fill:rgb(39.215687%,73.725492%,56.470591%);fill-opacity:1;" d="M 5.453125 9.898438 L 5.984375 9.898438 L 5.984375 11.667969 L 5.453125 11.667969 Z M 5.453125 9.898438 "/>
<path style=" stroke:none;fill-rule:nonzero;fill:rgb(39.215687%,73.725492%,56.470591%);fill-opacity:1;" d="M 12.90625 7.019531 L 14.253906 7.019531 L 14.253906 7.425781 L 12.90625 7.425781 Z M 12.90625 7.019531 "/>
<path style=" stroke:none;fill-rule:nonzero;fill:rgb(39.215687%,73.725492%,56.470591%);fill-opacity:1;" d="M 12.90625 7.75 L 14.253906 7.75 L 14.253906 8.15625 L 12.90625 8.15625 Z M 12.90625 7.75 "/>
<path style=" stroke:none;fill-rule:nonzero;fill:rgb(39.215687%,73.725492%,56.470591%);fill-opacity:1;" d="M 12.90625 8.476562 L 14.253906 8.476562 L 14.253906 8.882812 L 12.90625 8.882812 Z M 12.90625 8.476562 "/>
<path style=" stroke:none;fill-rule:nonzero;fill:rgb(39.215687%,73.725492%,56.470591%);fill-opacity:1;" d="M 12.90625 9.203125 L 14.253906 9.203125 L 14.253906 9.609375 L 12.90625 9.609375 Z M 12.90625 9.203125 "/>
<path style=" stroke:none;fill-rule:nonzero;fill:rgb(39.215687%,73.725492%,56.470591%);fill-opacity:1;" d="M 13.851562 5.015625 L 14.253906 5.015625 L 14.253906 6.363281 L 13.851562 6.363281 Z M 13.851562 5.015625 "/>
<path style=" stroke:none;fill-rule:nonzero;fill:rgb(39.215687%,73.725492%,56.470591%);fill-opacity:1;" d="M 13.121094 5.015625 L 13.527344 5.015625 L 13.527344 6.363281 L 13.121094 6.363281 Z M 13.121094 5.015625 "/>
<path style=" stroke:none;fill-rule:nonzero;fill:rgb(39.215687%,73.725492%,56.470591%);fill-opacity:1;" d="M 12.394531 5.015625 L 12.800781 5.015625 L 12.800781 6.363281 L 12.394531 6.363281 Z M 12.394531 5.015625 "/>
<path style=" stroke:none;fill-rule:nonzero;fill:rgb(39.215687%,73.725492%,56.470591%);fill-opacity:1;" d="M 11.667969 5.015625 L 12.074219 5.015625 L 12.074219 6.363281 L 11.667969 6.363281 Z M 11.667969 5.015625 "/>
<path style=" stroke:none;fill-rule:nonzero;fill:rgb(39.215687%,73.725492%,56.470591%);fill-opacity:1;" d="M 13.851562 10.265625 L 14.253906 10.265625 L 14.253906 11.613281 L 13.851562 11.613281 Z M 13.851562 10.265625 "/>
<path style=" stroke:none;fill-rule:nonzero;fill:rgb(39.215687%,73.725492%,56.470591%);fill-opacity:1;" d="M 13.121094 10.265625 L 13.527344 10.265625 L 13.527344 11.613281 L 13.121094 11.613281 Z M 13.121094 10.265625 "/>
<path style=" stroke:none;fill-rule:nonzero;fill:rgb(39.215687%,73.725492%,56.470591%);fill-opacity:1;" d="M 12.394531 10.265625 L 12.800781 10.265625 L 12.800781 11.613281 L 12.394531 11.613281 Z M 12.394531 10.265625 "/>
<path style=" stroke:none;fill-rule:nonzero;fill:rgb(39.215687%,73.725492%,56.470591%);fill-opacity:1;" d="M 11.667969 10.265625 L 12.074219 10.265625 L 12.074219 11.613281 L 11.667969 11.613281 Z M 11.667969 10.265625 "/>
<path style=" stroke:none;fill-rule:nonzero;fill:rgb(100%,100%,100%);fill-opacity:1;" d="M 5.203125 5.234375 L 9.101562 5.234375 C 9.636719 5.234375 10.074219 5.671875 10.074219 6.210938 L 10.074219 10.109375 C 10.074219 10.644531 9.636719 11.082031 9.101562 11.082031 L 5.203125 11.082031 C 4.664062 11.082031 4.226562 10.644531 4.226562 10.109375 L 4.226562 6.210938 C 4.226562 5.671875 4.664062 5.234375 5.203125 5.234375 Z M 5.203125 5.234375 "/>
<path style=" stroke:none;fill-rule:nonzero;fill:rgb(23.921569%,60.000002%,51.372552%);fill-opacity:1;" d="M 3.472656 13.125 L 3.472656 14.777344 L 9.296875 14.777344 L 9.296875 13.125 Z M 6.5 13.335938 L 7.699219 13.335938 L 7.699219 14.566406 L 6.5 14.566406 Z M 6.289062 14.566406 L 5.066406 14.566406 L 5.066406 13.335938 L 6.277344 13.335938 Z M 3.6875 13.335938 L 4.863281 13.335938 L 4.863281 14.566406 L 3.675781 14.566406 Z M 9.101562 14.566406 L 7.914062 14.566406 L 7.914062 13.335938 L 9.09375 13.335938 Z M 9.101562 14.566406 "/>
<path style=" stroke:none;fill-rule:nonzero;fill:url(#linear0);" d="M 8.8125 9.414062 L 8.8125 6.96875 C 8.816406 6.78125 8.742188 6.597656 8.605469 6.460938 C 8.472656 6.324219 8.289062 6.25 8.101562 6.25 L 6.878906 6.25 C 6.484375 6.25 6.167969 6.566406 6.167969 6.960938 L 6.167969 8.460938 C 6.089844 8.425781 6.003906 8.410156 5.917969 8.410156 C 5.632812 8.386719 5.378906 8.59375 5.351562 8.878906 C 5.378906 9.164062 5.632812 9.375 5.917969 9.351562 C 6.203125 9.375 6.453125 9.164062 6.480469 8.878906 C 6.480469 8.878906 6.480469 8.863281 6.480469 8.859375 L 6.480469 7.25 C 6.480469 7.089844 6.609375 6.960938 6.769531 6.960938 L 8.199219 6.960938 C 8.277344 6.957031 8.355469 6.984375 8.410156 7.039062 C 8.46875 7.09375 8.5 7.171875 8.5 7.25 L 8.5 9.027344 C 8.417969 9.003906 8.335938 8.992188 8.25 9 C 7.964844 8.976562 7.714844 9.1875 7.6875 9.46875 C 7.722656 9.75 7.96875 9.949219 8.25 9.925781 C 8.535156 9.949219 8.785156 9.742188 8.816406 9.457031 C 8.816406 9.441406 8.8125 9.425781 8.8125 9.414062 Z M 8.8125 9.414062 "/>
</g>
</svg>
