
<svg xmlns="http://www.w3.org/2000/svg" xmlns:xlink="http://www.w3.org/1999/xlink" width="16px" height="16px" viewBox="0 0 16 16" version="1.1">
<defs>
<linearGradient id="linear0" gradientUnits="userSpaceOnUse" x1="32" y1="47.27" x2="32" y2="25.620001" gradientTransform="matrix(0.25,0,0,0.25,0,0)">
<stop offset="0" style="stop-color:rgb(82.352942%,83.529413%,85.490197%);stop-opacity:1;"/>
<stop offset="0.58" style="stop-color:rgb(83.137256%,84.313726%,86.274511%);stop-opacity:1;"/>
<stop offset="0.82" style="stop-color:rgb(85.882354%,87.058824%,88.235295%);stop-opacity:1;"/>
<stop offset="1" style="stop-color:rgb(90.588236%,91.37255%,92.156863%);stop-opacity:1;"/>
</linearGradient>
<linearGradient id="linear1" gradientUnits="userSpaceOnUse" x1="33.119999" y1="-1.97" x2="33.119999" y2="17.1" gradientTransform="matrix(0.25,0,0,0.25,0,0)">
<stop offset="0.18" style="stop-color:rgb(16.078432%,71.372551%,96.470588%);stop-opacity:1;"/>
<stop offset="0.82" style="stop-color:rgb(49.411765%,34.117648%,76.862746%);stop-opacity:1;"/>
</linearGradient>
<linearGradient id="linear2" gradientUnits="userSpaceOnUse" x1="32.040001" y1="25.879999" x2="32.040001" y2="36.860001" gradientTransform="matrix(0.25,0,0,0.25,0,0)">
<stop offset="0.18" style="stop-color:rgb(16.078432%,71.372551%,96.470588%);stop-opacity:1;"/>
<stop offset="0.82" style="stop-color:rgb(49.411765%,34.117648%,76.862746%);stop-opacity:1;"/>
</linearGradient>
</defs>
<g id="surface1">
<path style=" stroke:none;fill-rule:nonzero;fill:url(#linear0);" d="M 7.683594 6.222656 L 7.683594 4.222656 L 7.222656 4.222656 C 5.347656 4.226562 3.828125 5.742188 3.820312 7.617188 L 3.820312 11.699219 C 3.820312 14.007812 5.691406 15.878906 8 15.878906 C 10.308594 15.878906 12.179688 14.007812 12.179688 11.699219 L 12.179688 7.617188 C 12.175781 5.742188 10.65625 4.21875 8.777344 4.214844 L 8.316406 4.214844 L 8.316406 6.214844 Z M 7.683594 6.222656 "/>
<path style=" stroke:none;fill-rule:nonzero;fill:url(#linear1);" d="M 8.316406 4.082031 L 7.734375 4.082031 L 7.734375 3.789062 C 7.734375 2.984375 8.386719 2.332031 9.191406 2.332031 L 10.25 2.332031 C 10.734375 2.332031 11.125 1.941406 11.125 1.457031 C 11.125 0.972656 10.734375 0.582031 10.25 0.582031 L 4.84375 0.582031 L 4.84375 0 L 10.25 0 C 11.054688 0 11.707031 0.652344 11.707031 1.457031 C 11.707031 2.261719 11.054688 2.914062 10.25 2.914062 L 9.191406 2.914062 C 8.707031 2.914062 8.316406 3.308594 8.316406 3.789062 Z M 8.316406 4.082031 "/>
<path style=" stroke:none;fill-rule:nonzero;fill:url(#linear2);" d="M 8.011719 6.140625 C 8.441406 6.140625 8.792969 6.492188 8.792969 6.921875 L 8.792969 8.265625 C 8.792969 8.699219 8.441406 9.050781 8.011719 9.050781 C 7.578125 9.050781 7.226562 8.699219 7.226562 8.265625 L 7.226562 6.921875 C 7.226562 6.492188 7.578125 6.140625 8.011719 6.140625 Z M 8.011719 6.140625 "/>
<path style=" stroke:none;fill-rule:nonzero;fill:rgb(85.09804%,85.490197%,85.882354%);fill-opacity:1;" d="M 8 16 C 5.625 15.996094 3.699219 14.074219 3.699219 11.699219 L 3.699219 7.617188 C 3.699219 5.671875 5.277344 4.09375 7.222656 4.09375 L 7.683594 4.09375 L 7.683594 4.34375 L 7.222656 4.34375 C 5.414062 4.34375 3.949219 5.808594 3.945312 7.617188 L 3.945312 11.699219 C 3.945312 13.9375 5.761719 15.753906 8 15.753906 C 10.238281 15.753906 12.054688 13.9375 12.054688 11.699219 L 12.054688 7.617188 C 12.054688 5.808594 10.585938 4.339844 8.777344 4.335938 L 8.316406 4.335938 L 8.316406 4.085938 L 8.777344 4.085938 C 10.722656 4.089844 12.300781 5.667969 12.300781 7.613281 L 12.300781 11.699219 C 12.300781 14.074219 10.375 15.996094 8 16 Z M 8 16 "/>
</g>
</svg>
